<svg viewBox="0 0 24 24" fill="none" xmlns="http://www.w3.org/2000/svg">
<path d="M2.3999 5.57496C2.3999 5.10287 2.58954 4.65011 2.92711 4.31628C3.26468 3.98246 3.72251 3.79492 4.1999 3.79492H17.3999C17.8773 3.79492 18.3351 3.98246 18.6727 4.31628C19.0103 4.65011 19.1999 5.10287 19.1999 5.57496V9.72839H15.5999C14.9634 9.72839 14.3529 9.97844 13.9028 10.4235C13.4528 10.8686 13.1999 11.4723 13.1999 12.1018V15.6619H4.1999C3.72251 15.6619 3.26468 15.4743 2.92711 15.1405C2.58954 14.8067 2.3999 14.3539 2.3999 13.8818V5.57496ZM4.7999 8.5417C5.43642 8.5417 6.04687 8.29164 6.49696 7.84655C6.94705 7.40145 7.1999 6.79777 7.1999 6.16831V4.98162H5.9999V6.16831C5.9999 6.48304 5.87347 6.78488 5.64843 7.00743C5.42339 7.22998 5.11816 7.355 4.7999 7.355H3.5999V8.5417H4.7999ZM8.6999 9.72839C8.6999 10.2792 8.92115 10.8074 9.31498 11.1968C9.7088 11.5863 10.2429 11.8051 10.7999 11.8051C11.3569 11.8051 11.891 11.5863 12.2848 11.1968C12.6787 10.8074 12.8999 10.2792 12.8999 9.72839C12.8999 9.17761 12.6787 8.64939 12.2848 8.25993C11.891 7.87047 11.3569 7.65168 10.7999 7.65168C10.2429 7.65168 9.7088 7.87047 9.31498 8.25993C8.92115 8.64939 8.6999 9.17761 8.6999 9.72839ZM3.5999 10.9151V12.1018H4.7999C5.11816 12.1018 5.42339 12.2268 5.64843 12.4494C5.87347 12.6719 5.9999 12.9737 5.9999 13.2885V14.4752H7.1999V13.2885C7.1999 12.659 6.94705 12.0553 6.49696 11.6102C6.04687 11.1651 5.43642 10.9151 4.7999 10.9151H3.5999ZM17.9999 8.5417V7.355H16.7999C16.4816 7.355 16.1764 7.22998 15.9514 7.00743C15.7263 6.78488 15.5999 6.48304 15.5999 6.16831V4.98162H14.3999V6.16831C14.3999 6.79777 14.6528 7.40145 15.1028 7.84655C15.5529 8.29164 16.1634 8.5417 16.7999 8.5417H17.9999ZM20.3999 9.72839V6.26918C20.751 6.39193 21.0549 6.61935 21.2699 6.92009C21.4848 7.22083 21.6001 7.58009 21.5999 7.94835V9.72839H20.3999ZM13.1999 16.8486V18.0352H6.5999C6.22751 18.0354 5.86423 17.9214 5.56011 17.7089C5.256 17.4963 5.02603 17.1958 4.9019 16.8486H13.1999ZM16.1999 10.9151C15.7225 10.9151 15.2647 11.1026 14.9271 11.4364C14.5895 11.7703 14.3999 12.223 14.3999 12.6951V21.002C14.3999 21.4741 14.5895 21.9268 14.9271 22.2607C15.2647 22.5945 15.7225 22.782 16.1999 22.782H20.9999C21.4773 22.782 21.9351 22.5945 22.2727 22.2607C22.6103 21.9268 22.7999 21.4741 22.7999 21.002V12.6951C22.7999 12.223 22.6103 11.7703 22.2727 11.4364C21.9351 11.1026 21.4773 10.9151 20.9999 10.9151H16.1999ZM16.1999 15.6619H17.3999C17.559 15.6619 17.7116 15.7244 17.8242 15.8356C17.9367 15.9469 17.9999 16.0978 17.9999 16.2552C17.9999 16.4126 17.9367 16.5635 17.8242 16.6748C17.7116 16.786 17.559 16.8486 17.3999 16.8486H16.1999C16.0408 16.8486 15.8882 16.786 15.7756 16.6748C15.6631 16.5635 15.5999 16.4126 15.5999 16.2552C15.5999 16.0978 15.6631 15.9469 15.7756 15.8356C15.8882 15.7244 16.0408 15.6619 16.1999 15.6619ZM19.7999 15.6619H20.9999C21.159 15.6619 21.3116 15.7244 21.4242 15.8356C21.5367 15.9469 21.5999 16.0978 21.5999 16.2552C21.5999 16.4126 21.5367 16.5635 21.4242 16.6748C21.3116 16.786 21.159 16.8486 20.9999 16.8486H19.7999C19.6408 16.8486 19.4882 16.786 19.3756 16.6748C19.2631 16.5635 19.1999 16.4126 19.1999 16.2552C19.1999 16.0978 19.2631 15.9469 19.3756 15.8356C19.4882 15.7244 19.6408 15.6619 19.7999 15.6619ZM16.1999 18.0352H17.3999C17.559 18.0352 17.7116 18.0978 17.8242 18.209C17.9367 18.3203 17.9999 18.4712 17.9999 18.6286C17.9999 18.786 17.9367 18.9369 17.8242 19.0482C17.7116 19.1594 17.559 19.2219 17.3999 19.2219H16.1999C16.0408 19.2219 15.8882 19.1594 15.7756 19.0482C15.6631 18.9369 15.5999 18.786 15.5999 18.6286C15.5999 18.4712 15.6631 18.3203 15.7756 18.209C15.8882 18.0978 16.0408 18.0352 16.1999 18.0352ZM19.7999 18.0352H20.9999C21.159 18.0352 21.3116 18.0978 21.4242 18.209C21.5367 18.3203 21.5999 18.4712 21.5999 18.6286C21.5999 18.786 21.5367 18.9369 21.4242 19.0482C21.3116 19.1594 21.159 19.2219 20.9999 19.2219H19.7999C19.6408 19.2219 19.4882 19.1594 19.3756 19.0482C19.2631 18.9369 19.1999 18.786 19.1999 18.6286C19.1999 18.4712 19.2631 18.3203 19.3756 18.209C19.4882 18.0978 19.6408 18.0352 19.7999 18.0352ZM16.1999 20.4086H17.3999C17.559 20.4086 17.7116 20.4711 17.8242 20.5824C17.9367 20.6937 17.9999 20.8446 17.9999 21.002C17.9999 21.1593 17.9367 21.3103 17.8242 21.4215C17.7116 21.5328 17.559 21.5953 17.3999 21.5953H16.1999C16.0408 21.5953 15.8882 21.5328 15.7756 21.4215C15.6631 21.3103 15.5999 21.1593 15.5999 21.002C15.5999 20.8446 15.6631 20.6937 15.7756 20.5824C15.8882 20.4711 16.0408 20.4086 16.1999 20.4086ZM19.7999 20.4086H20.9999C21.159 20.4086 21.3116 20.4711 21.4242 20.5824C21.5367 20.6937 21.5999 20.8446 21.5999 21.002C21.5999 21.1593 21.5367 21.3103 21.4242 21.4215C21.3116 21.5328 21.159 21.5953 20.9999 21.5953H19.7999C19.6408 21.5953 19.4882 21.5328 19.3756 21.4215C19.2631 21.3103 19.1999 21.1593 19.1999 21.002C19.1999 20.8446 19.2631 20.6937 19.3756 20.5824C19.4882 20.4711 19.6408 20.4086 19.7999 20.4086ZM15.5999 12.6951C15.5999 12.5378 15.6631 12.3868 15.7756 12.2756C15.8882 12.1643 16.0408 12.1018 16.1999 12.1018H20.9999C21.159 12.1018 21.3116 12.1643 21.4242 12.2756C21.5367 12.3868 21.5999 12.5378 21.5999 12.6951V13.8818C21.5999 14.0392 21.5367 14.1901 21.4242 14.3014C21.3116 14.4127 21.159 14.4752 20.9999 14.4752H16.1999C16.0408 14.4752 15.8882 14.4127 15.7756 14.3014C15.6631 14.1901 15.5999 14.0392 15.5999 13.8818V12.6951Z" fill="currentColor"/>
</svg>
