<svg viewBox="0 0 19 19" fill="none" xmlns="http://www.w3.org/2000/svg">
<path d="M16.7207 12.3151C16.0765 11.207 15.7343 9.61652 15.7343 7.71875C15.7343 6.06529 15.0775 4.47955 13.9083 3.31038C12.7391 2.14121 11.1534 1.48438 9.49993 1.48438C7.84647 1.48438 6.26073 2.14121 5.09156 3.31038C3.92239 4.47955 3.26555 6.06529 3.26555 7.71875C3.26555 9.61727 2.92489 11.207 2.28067 12.3151C2.14922 12.5411 2.07953 12.7977 2.07862 13.0592C2.07771 13.3207 2.1456 13.5778 2.27548 13.8047C2.40453 14.0317 2.59184 14.2202 2.81808 14.3507C3.04432 14.4812 3.30128 14.5489 3.56243 14.5469H6.24766C6.32131 15.3586 6.69581 16.1134 7.29758 16.663C7.89936 17.2127 8.68492 17.5174 9.49993 17.5174C10.3149 17.5174 11.1005 17.2127 11.7023 16.663C12.3041 16.1134 12.6785 15.3586 12.7522 14.5469H15.4374C15.6982 14.5485 15.9547 14.4806 16.1805 14.3501C16.4063 14.2197 16.5933 14.0314 16.7222 13.8047C16.8526 13.5781 16.9211 13.3212 16.9209 13.0597C16.9206 12.7982 16.8516 12.5415 16.7207 12.3151ZM9.49993 15.7344C9.15774 15.7344 8.82603 15.6163 8.56094 15.3999C8.29586 15.1835 8.11368 14.8822 8.04524 14.5469H10.9546C10.8862 14.8822 10.704 15.1835 10.4389 15.3999C10.1738 15.6163 9.84212 15.7344 9.49993 15.7344ZM4.05673 12.7656C4.71356 11.4297 5.0468 9.73305 5.0468 7.71875C5.0468 6.53771 5.51597 5.40504 6.35109 4.56992C7.18622 3.73479 8.31889 3.26562 9.49993 3.26562C10.681 3.26562 11.8136 3.73479 12.6488 4.56992C13.4839 5.40504 13.9531 6.53771 13.9531 7.71875C13.9531 9.7323 14.2856 11.4297 14.9424 12.7656H4.05673Z" fill="currentColor"/>
</svg>
