<svg viewBox="0 0 40 40" fill="none" xmlns="http://www.w3.org/2000/svg">
<path d="M10.0003 36.2601C9.08366 36.2601 8.29921 35.9376 7.64699 35.2926C6.99366 34.6465 6.66699 33.8702 6.66699 32.9637V6.59276C6.66699 5.68626 6.99366 4.90996 7.64699 4.26387C8.29921 3.61888 9.08366 3.29639 10.0003 3.29639H30.0003C30.917 3.29639 31.702 3.61888 32.3553 4.26387C33.0075 4.90996 33.3337 5.68626 33.3337 6.59276V32.9637C33.3337 33.8702 33.0075 34.6465 32.3553 35.2926C31.702 35.9376 30.917 36.2601 30.0003 36.2601H10.0003ZM11.667 18.1301H16.667V16.4819H23.3337V18.1301H28.3337V8.24094H11.667V18.1301ZM11.667 21.4264V31.3155H28.3337V21.4264H11.667ZM10.0003 6.59276V32.9637H30.0003V6.59276H10.0003Z" fill="currentColor"/>
</svg>
