<svg viewBox="0 0 40 40" fill="none" xmlns="http://www.w3.org/2000/svg">
<path fill-rule="evenodd" clip-rule="evenodd" d="M20.0002 2.08337C18.9918 2.08337 18.0635 2.33337 17.0485 2.75337C16.0668 3.16004 14.9268 3.75837 13.5085 4.50337L10.0618 6.31171C8.32016 7.22504 6.9285 7.95671 5.85016 8.67504C4.73683 9.42004 3.87683 10.2034 3.25183 11.265C2.6285 12.3234 2.3485 13.47 2.2135 14.835C2.0835 16.16 2.0835 17.7884 2.0835 19.8384V20.1617C2.0835 22.2117 2.0835 23.84 2.2135 25.165C2.3485 26.5317 2.63016 27.6767 3.25183 28.735C3.87683 29.7967 4.73516 30.58 5.85183 31.325C6.92683 32.0434 8.32016 32.775 10.0618 33.6884L13.5085 35.4967C14.9268 36.2417 16.0668 36.84 17.0485 37.2467C18.0652 37.6667 18.9918 37.9167 20.0002 37.9167C21.0085 37.9167 21.9368 37.6667 22.9518 37.2467C23.9335 36.84 25.0735 36.2417 26.4918 35.4967L29.9385 33.69C31.6802 32.775 33.0718 32.0434 34.1485 31.325C35.2652 30.58 36.1235 29.7967 36.7485 28.735C37.3718 27.6767 37.6518 26.53 37.7868 25.165C37.9168 23.84 37.9168 22.2117 37.9168 20.1634V19.8367C37.9168 17.7884 37.9168 16.16 37.7868 14.835C37.6518 13.4684 37.3702 12.3234 36.7485 11.265C36.1235 10.2034 35.2652 9.42004 34.1485 8.67504C33.0735 7.95671 31.6802 7.22504 29.9385 6.31171L26.4918 4.50337C25.0735 3.75837 23.9335 3.16004 22.9518 2.75337C21.9352 2.33337 21.0085 2.08337 20.0002 2.08337ZM14.6168 6.74337C16.1002 5.96504 17.1402 5.42171 18.0035 5.06504C18.8435 4.71671 19.4352 4.58337 20.0002 4.58337C20.5668 4.58337 21.1568 4.71671 21.9968 5.06504C22.8602 5.42171 23.8985 5.96504 25.3818 6.74337L28.7152 8.49337C30.5318 9.44504 31.8068 10.1167 32.7618 10.7534C33.2318 11.0684 33.6002 11.36 33.9002 11.6534L28.3485 14.4284L14.1818 6.97171L14.6168 6.74337ZM11.5752 8.34004L11.2852 8.49337C9.4685 9.44504 8.1935 10.1167 7.24016 10.7534C6.83338 11.0171 6.45226 11.3184 6.10183 11.6534L20.0002 18.6034L25.5952 15.8034L11.9185 8.60671C11.7893 8.53858 11.6731 8.44833 11.5752 8.34004ZM4.89683 13.845C4.8135 14.2017 4.7485 14.6067 4.70183 15.0784C4.58516 16.2684 4.5835 17.7734 4.5835 19.9017V20.0967C4.5835 22.2267 4.5835 23.7317 4.70183 24.92C4.81683 26.0817 5.03516 26.8334 5.40683 27.4667C5.77683 28.095 6.31183 28.6267 7.24016 29.2467C8.1935 29.8834 9.4685 30.555 11.2852 31.5067L14.6185 33.2567C16.1018 34.035 17.1402 34.5784 18.0035 34.935C18.2768 35.0484 18.5218 35.1384 18.7502 35.21V20.7717L4.89683 13.845ZM21.2502 35.2084C21.4785 35.1384 21.7235 35.0484 21.9968 34.935C22.8602 34.5784 23.8985 34.035 25.3818 33.2567L28.7152 31.5067C30.5318 30.5534 31.8068 29.8834 32.7618 29.2467C33.6885 28.6267 34.2235 28.095 34.5952 27.4667C34.9668 26.8334 35.1835 26.0834 35.2985 24.92C35.4152 23.7317 35.4168 22.2267 35.4168 20.0984V19.9034C35.4168 17.7734 35.4168 16.2684 35.2985 15.08C35.261 14.6651 35.1958 14.253 35.1035 13.8467L29.5835 16.605V21.6667C29.5835 21.9982 29.4518 22.3162 29.2174 22.5506C28.983 22.785 28.665 22.9167 28.3335 22.9167C28.002 22.9167 27.684 22.785 27.4496 22.5506C27.2152 22.3162 27.0835 21.9982 27.0835 21.6667V17.8567L21.2502 20.7734V35.2084Z" fill="currentColor"/>
</svg>
