<svg viewBox="0 0 256 256" fill="none" xmlns="http://www.w3.org/2000/svg">
<path d="M208 56H180.28L166.65 35.56C165.92 34.4655 164.931 33.568 163.771 32.9471C162.611 32.3261 161.316 32.0008 160 32H96C94.6843 32.0008 93.3891 32.3261 92.2291 32.9471C91.0691 33.568 90.0802 34.4655 89.35 35.56L75.71 56H48C41.6348 56 35.5303 58.5286 31.0294 63.0294C26.5286 67.5303 24 73.6348 24 80V192C24 198.365 26.5286 204.47 31.0294 208.971C35.5303 213.471 41.6348 216 48 216H208C214.365 216 220.47 213.471 224.971 208.971C229.471 204.47 232 198.365 232 192V80C232 73.6348 229.471 67.5303 224.971 63.0294C220.47 58.5286 214.365 56 208 56ZM216 192C216 194.122 215.157 196.157 213.657 197.657C212.157 199.157 210.122 200 208 200H48C45.8783 200 43.8434 199.157 42.3431 197.657C40.8429 196.157 40 194.122 40 192V80C40 77.8783 40.8429 75.8434 42.3431 74.3431C43.8434 72.8429 45.8783 72 48 72H80C81.3174 72.0009 82.6147 71.6764 83.7765 71.0553C84.9383 70.4343 85.9288 69.5359 86.66 68.44L100.28 48H155.71L169.34 68.44C170.071 69.5359 171.062 70.4343 172.223 71.0553C173.385 71.6764 174.683 72.0009 176 72H208C210.122 72 212.157 72.8429 213.657 74.3431C215.157 75.8434 216 77.8783 216 80V192ZM128 88C119.298 88 110.791 90.5806 103.555 95.4153C96.3191 100.25 90.6796 107.122 87.3493 115.162C84.019 123.202 83.1477 132.049 84.8455 140.584C86.5432 149.119 90.7338 156.959 96.8873 163.113C103.041 169.266 110.881 173.457 119.416 175.155C127.951 176.852 136.798 175.981 144.838 172.651C152.878 169.32 159.75 163.681 164.585 156.445C169.419 149.209 172 140.702 172 132C171.987 120.335 167.347 109.151 159.098 100.902C150.849 92.6532 139.665 88.0132 128 88ZM128 160C122.462 160 117.049 158.358 112.444 155.281C107.839 152.204 104.251 147.831 102.131 142.715C100.012 137.599 99.4576 131.969 100.538 126.537C101.618 121.106 104.285 116.117 108.201 112.201C112.117 108.285 117.106 105.618 122.537 104.538C127.969 103.458 133.599 104.012 138.715 106.131C143.831 108.251 148.204 111.839 151.281 116.444C154.358 121.049 156 126.462 156 132C156 139.426 153.05 146.548 147.799 151.799C142.548 157.05 135.426 160 128 160Z" fill="currentColor"/>
</svg>
