<svg viewBox="0 0 19 19" fill="none" xmlns="http://www.w3.org/2000/svg">
<path d="M1.979 3.36475C1.979 3.20727 2.04156 3.05625 2.15291 2.9449C2.26426 2.83355 2.41528 2.771 2.57275 2.771H3.0145C3.76659 2.771 4.21784 3.27687 4.47513 3.74712C4.64692 4.06062 4.77121 4.424 4.86859 4.75333C4.89493 4.75125 4.92133 4.75019 4.94775 4.75016H14.842C15.4991 4.75016 15.9741 5.37875 15.7936 6.01129L14.3464 11.0851C14.2167 11.5402 13.9422 11.9406 13.5645 12.2257C13.1868 12.5108 12.7265 12.6651 12.2533 12.6652H7.54442C7.06744 12.6653 6.60365 12.5086 6.22434 12.2194C5.84503 11.9302 5.57119 11.5245 5.44492 11.0645L4.84325 8.87L3.84575 5.507L3.84496 5.50066C3.72146 5.05179 3.60588 4.63141 3.4333 4.31791C3.26784 4.01312 3.13484 3.9585 3.0153 3.9585H2.57275C2.41528 3.9585 2.26426 3.89594 2.15291 3.78459C2.04156 3.67324 1.979 3.52222 1.979 3.36475ZM5.99513 8.58183L6.58967 10.7502C6.70842 11.1793 7.09871 11.4777 7.54442 11.4777H12.2533C12.4684 11.4777 12.6776 11.4077 12.8493 11.2781C13.021 11.1485 13.1458 10.9665 13.2048 10.7597L14.58 5.93766H5.21296L5.98405 8.53987L5.99513 8.58183ZM8.70817 15.0418C8.70817 15.4618 8.54136 15.8645 8.24442 16.1614C7.94749 16.4583 7.54476 16.6252 7.12484 16.6252C6.70491 16.6252 6.30218 16.4583 6.00525 16.1614C5.70832 15.8645 5.5415 15.4618 5.5415 15.0418C5.5415 14.6219 5.70832 14.2192 6.00525 13.9222C6.30218 13.6253 6.70491 13.4585 7.12484 13.4585C7.54476 13.4585 7.94749 13.6253 8.24442 13.9222C8.54136 14.2192 8.70817 14.6219 8.70817 15.0418ZM7.52067 15.0418C7.52067 14.9368 7.47897 14.8362 7.40473 14.7619C7.3305 14.6877 7.22982 14.646 7.12484 14.646C7.01986 14.646 6.91917 14.6877 6.84494 14.7619C6.77071 14.8362 6.729 14.9368 6.729 15.0418C6.729 15.1468 6.77071 15.2475 6.84494 15.3217C6.91917 15.396 7.01986 15.4377 7.12484 15.4377C7.22982 15.4377 7.3305 15.396 7.40473 15.3217C7.47897 15.2475 7.52067 15.1468 7.52067 15.0418ZM14.2498 15.0418C14.2498 15.4618 14.083 15.8645 13.7861 16.1614C13.4892 16.4583 13.0864 16.6252 12.6665 16.6252C12.2466 16.6252 11.8439 16.4583 11.5469 16.1614C11.25 15.8645 11.0832 15.4618 11.0832 15.0418C11.0832 14.6219 11.25 14.2192 11.5469 13.9222C11.8439 13.6253 12.2466 13.4585 12.6665 13.4585C13.0864 13.4585 13.4892 13.6253 13.7861 13.9222C14.083 14.2192 14.2498 14.6219 14.2498 15.0418ZM13.0623 15.0418C13.0623 14.9368 13.0206 14.8362 12.9464 14.7619C12.8722 14.6877 12.7715 14.646 12.6665 14.646C12.5615 14.646 12.4608 14.6877 12.3866 14.7619C12.3124 14.8362 12.2707 14.9368 12.2707 15.0418C12.2707 15.1468 12.3124 15.2475 12.3866 15.3217C12.4608 15.396 12.5615 15.4377 12.6665 15.4377C12.7715 15.4377 12.8722 15.396 12.9464 15.3217C13.0206 15.2475 13.0623 15.1468 13.0623 15.0418Z" fill="currentColor"/>
</svg>
