<svg viewBox="0 0 32 32" fill="none" xmlns="http://www.w3.org/2000/svg">
<path d="M16 30.747C24.2843 30.747 31 24.1058 31 15.9134C31 7.72097 24.2843 1.07971 16 1.07971C7.71573 1.07971 1 7.72097 1 15.9134C1 24.1058 7.71573 30.747 16 30.747Z" stroke="currentColor" stroke-width="2" stroke-linecap="round" stroke-linejoin="round"/>
<path d="M11 12.617H11.0167M21 12.617H21.0167M11.8333 20.8579C12.3765 21.4061 13.0247 21.8416 13.7402 22.1389C14.4557 22.4362 15.2239 22.5894 16 22.5894C16.7761 22.5894 17.5443 22.4362 18.2598 22.1389C18.9753 21.8416 19.6235 21.4061 20.1667 20.8579M16 1.07971C15.1159 1.07971 14.2681 1.42701 13.643 2.0452C13.0179 2.66339 12.6667 3.50183 12.6667 4.37608C12.6667 5.25033 13.0179 6.08878 13.643 6.70697C14.2681 7.32516 15.1159 7.67245 16 7.67245" stroke="currentColor" stroke-width="2" stroke-linecap="round" stroke-linejoin="round"/>
</svg>
