<svg viewBox="0 0 24 24" fill="none" xmlns="http://www.w3.org/2000/svg">
<path fill-rule="evenodd" clip-rule="evenodd" d="M11.4702 15.4698C11.6108 15.3294 11.8014 15.2505 12.0002 15.2505C12.1989 15.2505 12.3895 15.3294 12.5302 15.4698L14.5302 17.4698C14.6038 17.5385 14.6629 17.6213 14.7039 17.7133C14.7449 17.8053 14.767 17.9046 14.7687 18.0053C14.7705 18.106 14.752 18.206 14.7143 18.2994C14.6766 18.3928 14.6204 18.4776 14.5492 18.5489C14.478 18.6201 14.3931 18.6762 14.2998 18.714C14.2064 18.7517 14.1063 18.7702 14.0056 18.7684C13.9049 18.7666 13.8056 18.7446 13.7136 18.7036C13.6216 18.6626 13.5388 18.6035 13.4702 18.5298L12.7502 17.8098V21.9998C12.7502 22.1987 12.6711 22.3895 12.5305 22.5302C12.3898 22.6708 12.1991 22.7498 12.0002 22.7498C11.8012 22.7498 11.6105 22.6708 11.4698 22.5302C11.3292 22.3895 11.2502 22.1987 11.2502 21.9998V17.8098L10.5302 18.5298C10.4615 18.6035 10.3787 18.6626 10.2867 18.7036C10.1947 18.7446 10.0954 18.7666 9.99468 18.7684C9.89397 18.7702 9.79394 18.7517 9.70056 18.714C9.60717 18.6762 9.52233 18.6201 9.45112 18.5489C9.3799 18.4776 9.32375 18.3928 9.28603 18.2994C9.24831 18.206 9.22979 18.106 9.23156 18.0053C9.23334 17.9046 9.25538 17.8053 9.29637 17.7133C9.33736 17.6213 9.39647 17.5385 9.47015 17.4698L11.4702 15.4698Z" fill="currentColor"/>
<path d="M12.476 3.75C9.726 3.75 7.512 5.95 7.512 8.647C7.512 9.109 7.577 9.556 7.697 9.978C8.194 10.122 8.66 10.338 9.08 10.618C9.16639 10.6703 9.24132 10.7396 9.3003 10.8216C9.35928 10.9036 9.40108 10.9966 9.4232 11.0952C9.44533 11.1938 9.44732 11.2958 9.42906 11.3951C9.41079 11.4944 9.37265 11.5891 9.31692 11.6733C9.26118 11.7576 9.18901 11.8297 9.10472 11.8853C9.02044 11.941 8.92578 11.9791 8.82642 11.9972C8.72706 12.0154 8.62506 12.0133 8.52652 11.9911C8.42799 11.9689 8.33495 11.927 8.253 11.868C7.66992 11.4817 6.98546 11.2767 6.286 11.279C4.325 11.279 2.75 12.849 2.75 14.765C2.75 16.681 4.325 18.25 6.286 18.25C6.48491 18.25 6.67568 18.329 6.81633 18.4697C6.95698 18.6103 7.036 18.8011 7.036 19C7.036 19.1989 6.95698 19.3897 6.81633 19.5303C6.67568 19.671 6.48491 19.75 6.286 19.75C3.513 19.75 1.25 17.526 1.25 14.765C1.25 12.06 3.42 9.872 6.114 9.782C6.04614 9.40748 6.012 9.02762 6.012 8.647C6.012 5.106 8.914 2.25 12.476 2.25C15.634 2.25 18.272 4.494 18.831 7.471C21.131 8.448 22.75 10.709 22.75 13.353C22.75 16.427 20.562 18.984 17.657 19.606C17.4625 19.6476 17.2594 19.6103 17.0924 19.5022C16.9254 19.3941 16.8081 19.224 16.7665 19.0295C16.7249 18.835 16.7622 18.6319 16.8703 18.4649C16.9784 18.2979 17.1485 18.1806 17.343 18.139C19.583 17.659 21.25 15.693 21.25 13.353C21.25 11.216 19.86 9.391 17.912 8.725C17.3886 8.54599 16.8392 8.45476 16.286 8.455C15.703 8.455 15.146 8.555 14.628 8.735C14.4414 8.79593 14.2383 8.78126 14.0624 8.69415C13.8865 8.60704 13.7517 8.45443 13.6871 8.26909C13.6224 8.08374 13.633 7.88043 13.7166 7.7028C13.8001 7.52516 13.95 7.38737 14.134 7.319C15.1039 6.98042 16.1401 6.87591 17.158 7.014C16.8085 6.05419 16.1712 5.22564 15.3333 4.64147C14.4953 4.0573 13.4975 3.74597 12.476 3.75Z" fill="currentColor"/>
</svg>
