<svg viewBox="0 0 15 15" fill="none" xmlns="http://www.w3.org/2000/svg">
<path d="M13.0181 8.03813C13.125 7.78 13.125 7.45187 13.125 6.79688C13.125 6.14188 13.125 5.81375 13.0181 5.55562C12.9475 5.38496 12.8438 5.22989 12.7132 5.09927C12.5826 4.96865 12.4275 4.86505 12.2569 4.79438C11.9988 4.6875 11.6706 4.6875 11.0156 4.6875H6.9375C6.15 4.6875 5.75625 4.6875 5.45563 4.84062C5.19079 4.97549 4.97549 5.19079 4.84062 5.45563C4.6875 5.75563 4.6875 6.14938 4.6875 6.9375V11.0156C4.6875 11.6706 4.6875 11.9988 4.79438 12.2569C4.9375 12.6013 5.21125 12.8756 5.55562 13.0181C5.81375 13.125 6.14188 13.125 6.79688 13.125C7.45187 13.125 7.78 13.125 8.03813 13.0181M13.0181 8.03813C12.9475 8.20879 12.8438 8.36386 12.7132 8.49448C12.5826 8.6251 12.4275 8.7287 12.2569 8.79938C11.9988 8.90625 11.6706 8.90625 11.0156 8.90625C10.3606 8.90625 10.0325 8.90625 9.77437 9.01312C9.60371 9.0838 9.44864 9.1874 9.31802 9.31802C9.1874 9.44864 9.0838 9.60371 9.01312 9.77437C8.90625 10.0325 8.90625 10.3606 8.90625 11.0156C8.90625 11.6706 8.90625 11.9988 8.79938 12.2569C8.7287 12.4275 8.6251 12.5826 8.49448 12.7132C8.36386 12.8438 8.20879 12.9475 8.03813 13.0181M13.0181 8.03813C12.682 9.19749 12.0636 10.2554 11.2183 11.1171C10.3729 11.9788 9.32708 12.6173 8.17438 12.9756L8.03813 13.0181M10.3125 4.6875V4.125C10.3125 3.3375 10.3125 2.94375 10.1594 2.64313C10.0247 2.37838 9.8096 2.16309 9.545 2.02812C9.24375 1.875 8.85 1.875 8.0625 1.875H4.125C3.3375 1.875 2.94375 1.875 2.64313 2.02812C2.37829 2.16299 2.16299 2.37829 2.02812 2.64313C1.875 2.94313 1.875 3.33687 1.875 4.125V8.0625C1.875 8.85 1.875 9.24375 2.02812 9.54437C2.16312 9.80937 2.37813 10.0244 2.64313 10.1594C2.94313 10.3125 3.3375 10.3125 4.12562 10.3125H4.6875" stroke="currentColor" stroke-width="1.5" stroke-linecap="round" stroke-linejoin="round"/>
</svg>
