<svg viewBox="0 0 512 494" fill="none" xmlns="http://www.w3.org/2000/svg">
<g clip-path="url(#clip0_2150_3)">
<path d="M448 183.8V60.8C448.019 54.9192 446.876 49.0927 444.636 43.6548C442.397 38.217 439.106 33.2749 434.952 29.1124C430.798 24.9498 425.862 21.6487 420.429 19.3985C414.996 17.1483 409.171 15.9934 403.29 16H280.36C272.3 16.0166 264.571 19.211 258.85 24.89L13.0904 270.58C4.70857 278.989 0.00195313 290.377 0.00195312 302.25C0.00195313 314.123 4.70857 325.511 13.0904 333.92L130.09 450.92C138.496 459.304 149.884 464.012 161.755 464.012C173.627 464.012 185.015 459.304 193.42 450.92L439.11 205.31C444.791 199.591 447.986 191.861 448 183.8ZM352 144C345.671 144 339.485 142.123 334.222 138.607C328.96 135.091 324.858 130.093 322.436 124.246C320.014 118.399 319.381 111.965 320.615 105.757C321.85 99.5497 324.898 93.8479 329.373 89.3726C333.848 84.8973 339.55 81.8496 345.758 80.6149C351.965 79.3802 358.399 80.0139 364.246 82.4359C370.094 84.8579 375.091 88.9594 378.607 94.2218C382.124 99.4842 384 105.671 384 112C384 120.487 380.629 128.626 374.628 134.627C368.627 140.629 360.487 144 352 144Z" fill="currentColor"/>
<path d="M496 64C491.756 64 487.686 65.6857 484.686 68.6863C481.685 71.6869 480 75.7565 480 80V207.37L218.69 468.69C217.141 470.161 215.903 471.927 215.048 473.884C214.193 475.841 213.739 477.949 213.711 480.085C213.684 482.22 214.084 484.34 214.889 486.318C215.694 488.296 216.886 490.093 218.396 491.603C219.906 493.113 221.704 494.306 223.682 495.111C225.66 495.915 227.779 496.316 229.915 496.288C232.05 496.261 234.159 495.806 236.116 494.951C238.073 494.096 239.839 492.858 241.31 491.31L503.31 229.31C506.097 226.51 508.3 223.185 509.792 219.526C511.283 215.868 512.034 211.95 512 208V80C512 75.7565 510.314 71.6869 507.313 68.6863C504.313 65.6857 500.243 64 496 64Z" fill="currentColor"/>
</g>
<defs>
<clipPath id="clip0_2150_3">
<rect width="512" height="512" fill="white"/>
</clipPath>
</defs>
</svg>
