<svg viewBox="0 0 256 256" fill="none" xmlns="http://www.w3.org/2000/svg">
<path d="M216.49 79.52L160.49 23.52C159.376 22.4042 158.052 21.519 156.595 20.915C155.139 20.311 153.577 20.0001 152 20H56C50.6957 20 45.6086 22.1071 41.8579 25.8579C38.1071 29.6086 36 34.6957 36 40V216C36 221.304 38.1071 226.391 41.8579 230.142C45.6086 233.893 50.6957 236 56 236H200C205.304 236 210.391 233.893 214.142 230.142C217.893 226.391 220 221.304 220 216V88C220 84.8199 218.737 81.7699 216.49 79.52ZM160 57L183 80H160V57ZM60 212V44H136V92C136 95.1826 137.264 98.2348 139.515 100.485C141.765 102.736 144.817 104 148 104H196V212H60Z" fill="currentColor"/>
</svg>
