<svg viewBox="0 0 24 24" fill="none" xmlns="http://www.w3.org/2000/svg">
<path fill-rule="evenodd" clip-rule="evenodd" d="M19.9996 3.2001H12.7996V11.2001H20.7996V4.0001C20.7996 3.78792 20.7153 3.58444 20.5653 3.43441C20.4153 3.28438 20.2118 3.2001 19.9996 3.2001ZM20.7996 12.8001H12.7996V20.8001H19.9996C20.2118 20.8001 20.4153 20.7158 20.5653 20.5658C20.7153 20.4158 20.7996 20.2123 20.7996 20.0001V12.8001ZM11.1996 11.2001V3.2001H3.99961C3.78744 3.2001 3.58395 3.28438 3.43392 3.43441C3.28389 3.58444 3.19961 3.78792 3.19961 4.0001V11.2001H11.1996ZM3.19961 12.8001V20.0001C3.19961 20.2123 3.28389 20.4158 3.43392 20.5658C3.58395 20.7158 3.78744 20.8001 3.99961 20.8001H11.1996V12.8001H3.19961ZM3.99961 1.6001C3.36309 1.6001 2.75264 1.85295 2.30255 2.30304C1.85247 2.75313 1.59961 3.36358 1.59961 4.0001V20.0001C1.59961 20.6366 1.85247 21.2471 2.30255 21.6972C2.75264 22.1472 3.36309 22.4001 3.99961 22.4001H19.9996C20.6361 22.4001 21.2466 22.1472 21.6967 21.6972C22.1468 21.2471 22.3996 20.6366 22.3996 20.0001V4.0001C22.3996 3.36358 22.1468 2.75313 21.6967 2.30304C21.2466 1.85295 20.6361 1.6001 19.9996 1.6001H3.99961Z" fill="currentColor"/>
</svg>
