<svg viewBox="0 0 36 36" fill="none" xmlns="http://www.w3.org/2000/svg">
<g clip-path="url(#clip0_2116_3)">
<path d="M32.3749 16.2192C30.9939 15.6082 29.0209 16.4272 27.6249 18.4072C26.7079 19.7072 26.4379 21.5582 25.2339 21.7512C24.7739 21.8252 24.5239 21.5452 24.3939 21.1422C24.2569 20.4622 24.2869 19.4112 24.5409 17.9412L27.2809 5.6262C27.4989 4.6852 26.9879 3.7742 25.7579 3.4772C24.5279 3.1802 23.6029 3.7832 23.3839 4.7242L20.9379 15.8902C20.4449 18.3562 19.5309 17.9082 19.7519 15.1152L20.4529 2.0222C20.5099 1.0102 19.7319 0.183196 18.5819 0.139196C17.4319 0.0951965 16.6029 0.785196 16.5439 1.7962L15.8759 15.2052C15.7329 17.9122 14.7639 16.8922 14.5539 14.9312L12.9999 4.0832C12.8409 3.0602 11.8819 2.3532 10.7319 2.5372C9.58193 2.7222 8.88693 3.6732 9.04593 4.6962L10.5409 14.6102C11.1339 18.3952 10.3589 19.4432 9.08293 15.3332L7.48893 9.3082C7.22893 8.3412 6.27593 7.7412 5.07893 8.0772C3.88193 8.4132 3.36593 9.3762 3.62493 10.3432L5.18293 16.0062C5.83393 20.0832 5.83393 21.6922 5.83393 24.4992C5.83393 27.3062 7.12493 36.0002 16.9999 36.0002C26.8749 36.0002 28.9059 25.9692 28.9999 25.3342C28.9999 25.3342 29.1229 23.8542 30.1559 22.4692C31.1417 21.1363 32.1843 19.8465 33.2809 18.6032C33.5979 18.2442 33.9059 16.8962 32.3749 16.2192Z" fill="#FFDC5D"/>
<path d="M24.9113 21.7411C24.6113 21.6191 24.3573 21.3051 24.3273 20.6221C22.4353 20.8811 19.8763 21.4111 17.9073 23.3371C15.3513 25.8361 14.9153 28.5371 14.9363 30.3441C14.9533 31.8011 15.7483 32.4911 15.9813 30.3321C16.2743 27.6051 18.2633 22.1891 24.9113 21.7411Z" fill="#EF9645"/>
</g>
<defs>
<clipPath id="clip0_2116_3">
<rect width="36" height="36" fill="white"/>
</clipPath>
</defs>
</svg>
