<svg viewBox="0 0 15 15" fill="none" xmlns="http://www.w3.org/2000/svg">
<path d="M7.50001 1.25C10.9519 1.25 13.75 4.04813 13.75 7.5C13.75 10.9519 10.9519 13.75 7.50001 13.75C6.5025 13.7514 5.51927 13.513 4.63313 13.055L2.24188 13.7219C2.10847 13.7591 1.96756 13.7602 1.83358 13.725C1.69961 13.6899 1.57739 13.6197 1.47945 13.5218C1.38151 13.4239 1.31137 13.3016 1.27621 13.1677C1.24105 13.0337 1.24215 12.8928 1.27938 12.7594L1.94688 10.37C1.48773 9.48309 1.24871 8.49872 1.25001 7.5C1.25001 4.04813 4.04813 1.25 7.50001 1.25ZM7.50001 2.1875C6.09104 2.1875 4.73979 2.74721 3.7435 3.7435C2.74721 4.73978 2.18751 6.09104 2.18751 7.5C2.18751 8.41875 2.42063 9.30187 2.85813 10.0856L2.95188 10.2544L2.25688 12.7444L4.74876 12.0494L4.91751 12.1431C5.62649 12.5373 6.41634 12.7639 7.22647 12.8055C8.03661 12.8471 8.84551 12.7027 9.59115 12.3832C10.3368 12.0637 10.9994 11.5777 11.5281 10.9625C12.0568 10.3473 12.4376 9.61913 12.6413 8.83392C12.845 8.04871 12.8661 7.22728 12.7032 6.43262C12.5402 5.63796 12.1974 4.89118 11.701 4.24954C11.2047 3.6079 10.568 3.08845 9.83981 2.73101C9.1116 2.37358 8.31121 2.18766 7.50001 2.1875ZM7.50001 9.6875C7.66577 9.6875 7.82474 9.75335 7.94195 9.87056C8.05916 9.98777 8.12501 10.1467 8.12501 10.3125C8.12501 10.4783 8.05916 10.6372 7.94195 10.7544C7.82474 10.8717 7.66577 10.9375 7.50001 10.9375C7.33425 10.9375 7.17527 10.8717 7.05806 10.7544C6.94085 10.6372 6.87501 10.4783 6.87501 10.3125C6.87501 10.1467 6.94085 9.98777 7.05806 9.87056C7.17527 9.75335 7.33425 9.6875 7.50001 9.6875ZM7.50001 4.21875C7.95585 4.21875 8.39302 4.39983 8.71535 4.72216C9.03767 5.04449 9.21876 5.48166 9.21876 5.9375C9.21876 6.56875 9.03313 6.92125 8.56188 7.41188L8.45625 7.51875C8.06751 7.9075 7.96876 8.0725 7.96876 8.4375C7.96876 8.56182 7.91937 8.68105 7.83146 8.76896C7.74355 8.85686 7.62433 8.90625 7.50001 8.90625C7.37569 8.90625 7.25646 8.85686 7.16855 8.76896C7.08064 8.68105 7.03126 8.56182 7.03126 8.4375C7.03126 7.80625 7.21688 7.45375 7.68813 6.96312L7.79376 6.85625C8.18251 6.4675 8.28126 6.3025 8.28126 5.9375C8.28061 5.73767 8.20342 5.54569 8.06555 5.40103C7.92769 5.25638 7.73964 5.17005 7.54007 5.1598C7.3405 5.14956 7.1446 5.21617 6.99264 5.34595C6.84069 5.47572 6.74424 5.65879 6.72313 5.8575L6.71876 5.9375C6.71876 6.06182 6.66937 6.18105 6.58146 6.26896C6.49355 6.35686 6.37433 6.40625 6.25001 6.40625C6.12569 6.40625 6.00646 6.35686 5.91855 6.26896C5.83064 6.18105 5.78126 6.06182 5.78126 5.9375C5.78126 5.48166 5.96234 5.04449 6.28467 4.72216C6.60699 4.39983 7.04416 4.21875 7.50001 4.21875Z" fill="currentColor"/>
</svg>
