<svg viewBox="0 0 256 256" fill="none" xmlns="http://www.w3.org/2000/svg">
<path d="M120 144H104C101.878 144 99.8434 144.843 98.3431 146.343C96.8429 147.843 96 149.878 96 152V208C96 210.122 96.8429 212.157 98.3431 213.657C99.8434 215.157 101.878 216 104 216C106.122 216 108.157 215.157 109.657 213.657C111.157 212.157 112 210.122 112 208V200H120C127.426 200 134.548 197.05 139.799 191.799C145.05 186.548 148 179.426 148 172C148 164.574 145.05 157.452 139.799 152.201C134.548 146.95 127.426 144 120 144ZM120 184H112V160H120C123.183 160 126.235 161.264 128.485 163.515C130.736 165.765 132 168.817 132 172C132 175.183 130.736 178.235 128.485 180.485C126.235 182.736 123.183 184 120 184ZM216 184V200.87C216 202.93 215.205 204.911 213.78 206.4C210.994 209.399 207.626 211.797 203.881 213.448C200.135 215.098 196.093 215.967 192 216C174.35 216 160 199.85 160 180C160 160.15 174.35 144 192 144C197.882 144.018 203.623 145.802 208.48 149.12C210.238 150.313 211.451 152.157 211.85 154.244C212.25 156.331 211.803 158.492 210.61 160.25C209.417 162.008 207.573 163.221 205.486 163.62C203.399 164.02 201.238 163.573 199.48 162.38C197.285 160.847 194.677 160.017 192 160C183.18 160 176 169 176 180C176 191 183.18 200 192 200C194.886 199.967 197.688 199.018 200 197.29V192C197.878 192 195.843 191.157 194.343 189.657C192.843 188.157 192 186.122 192 184C192 181.878 192.843 179.843 194.343 178.343C195.843 176.843 197.878 176 200 176H208C210.122 176 212.157 176.843 213.657 178.343C215.157 179.843 216 181.878 216 184ZM80 152V190C80 196.896 77.2607 203.509 72.3848 208.385C67.5088 213.261 60.8956 216 54 216C47.1044 216 40.4912 213.261 35.6152 208.385C30.7393 203.509 28 196.896 28 190C28 187.878 28.8429 185.843 30.3431 184.343C31.8434 182.843 33.8783 182 36 182C38.1217 182 40.1566 182.843 41.6569 184.343C43.1571 185.843 44 187.878 44 190C44 192.652 45.0536 195.196 46.9289 197.071C48.8043 198.946 51.3478 200 54 200C56.6522 200 59.1957 198.946 61.0711 197.071C62.9464 195.196 64 192.652 64 190V152C64 149.878 64.8429 147.843 66.3431 146.343C67.8434 144.843 69.8783 144 72 144C74.1217 144 76.1566 144.843 77.6569 146.343C79.1571 147.843 80 149.878 80 152ZM213.66 82.34L157.66 26.34C156.917 25.5973 156.034 25.0084 155.063 24.6069C154.092 24.2054 153.051 23.9992 152 24H56C51.7565 24 47.6869 25.6857 44.6863 28.6863C41.6857 31.6869 40 35.7565 40 40V112C40 114.122 40.8429 116.157 42.3431 117.657C43.8434 119.157 45.8783 120 48 120C50.1217 120 52.1566 119.157 53.6569 117.657C55.1571 116.157 56 114.122 56 112V40H144V88C144 90.1217 144.843 92.1566 146.343 93.6569C147.843 95.1571 149.878 96 152 96H200V112C200 114.122 200.843 116.157 202.343 117.657C203.843 119.157 205.878 120 208 120C210.122 120 212.157 119.157 213.657 117.657C215.157 116.157 216 114.122 216 112V88C216.001 86.9491 215.795 85.9084 215.393 84.9372C214.992 83.966 214.403 83.0835 213.66 82.34ZM160 80V51.31L188.69 80H160Z" fill="currentColor"/>
</svg>
