<svg viewBox="0 0 42 37" fill="none" xmlns="http://www.w3.org/2000/svg">
<path fill-rule="evenodd" clip-rule="evenodd" d="M6.57489 13.8841L21.3484 5.54639V15.7857L15.4947 19.2964L6.57489 13.8841Z" fill="currentColor" stroke="currentColor" stroke-miterlimit="22.9256"/>
<path fill-rule="evenodd" clip-rule="evenodd" d="M26.241 19.4006L21.3485 15.7857V5.54639L35.7039 13.5916L26.241 19.4006Z" stroke="currentColor" stroke-miterlimit="22.9256"/>
<path fill-rule="evenodd" clip-rule="evenodd" d="M20.9303 22.6601L26.2409 19.4L21.4793 15.8745L15.4948 19.2957L20.9303 22.6601Z" stroke="currentColor" stroke-miterlimit="22.9256"/>
<path fill-rule="evenodd" clip-rule="evenodd" d="M25.1115 27.6343L20.9303 22.6609L35.7038 13.5918L39.3275 19.2966L25.1115 27.6343Z" stroke="currentColor" stroke-miterlimit="22.9256"/>
<path fill-rule="evenodd" clip-rule="evenodd" d="M26.0872 1.15723L41 8.47103L35.7039 13.5907L21.3485 5.5455L26.0872 1.15723Z" fill="currentColor" stroke="currentColor" stroke-miterlimit="22.9256"/>
<path fill-rule="evenodd" clip-rule="evenodd" d="M15.7735 0.865234L21.3484 5.54607L6.57495 13.8838L1 8.32532L15.7735 0.865234Z" stroke="currentColor" stroke-miterlimit="22.9256"/>
<path fill-rule="evenodd" clip-rule="evenodd" d="M6.12817 27.9818V21.9414L17.1006 27.8546L20.4871 23.5315V35.9922L6.12817 27.9818Z" stroke="currentColor" stroke-miterlimit="22.9256"/>
<path fill-rule="evenodd" clip-rule="evenodd" d="M35.8718 27.8808V21.9414L25.5387 27.6191L21.5128 23.1709V35.9922L35.8718 27.8808Z" fill="currentColor" stroke="currentColor" stroke-miterlimit="22.9256"/>
<path fill-rule="evenodd" clip-rule="evenodd" d="M17.4066 27.6625L20.891 22.6892L6.5356 13.9126L3.05127 19.1785L17.4066 27.6625Z" fill="currentColor" stroke="currentColor" stroke-miterlimit="22.9256"/>
</svg>
