<svg viewBox="0 0 19 19" fill="none" xmlns="http://www.w3.org/2000/svg">
<path fill-rule="evenodd" clip-rule="evenodd" d="M17.4168 9.50016C17.4168 13.8725 13.8725 17.4168 9.50017 17.4168C8.23351 17.4168 7.03651 17.1192 5.97567 16.5903C5.69544 16.4455 5.37195 16.4081 5.06605 16.485L3.3038 16.9569C3.12937 17.0034 2.94577 17.0033 2.77142 16.9564C2.59708 16.9096 2.43812 16.8177 2.31051 16.69C2.18289 16.5623 2.09111 16.4033 2.04438 16.2289C1.99765 16.0545 1.9976 15.8709 2.04426 15.6965L2.5153 13.9343C2.59191 13.6285 2.55419 13.3053 2.40921 13.0255C1.86426 11.9303 1.58157 10.7234 1.58351 9.50016C1.58351 5.12779 5.1278 1.5835 9.50017 1.5835C13.8725 1.5835 17.4168 5.12779 17.4168 9.50016ZM5.93767 8.794C5.93767 9.87779 6.98188 11.0146 7.9398 11.8292C8.59134 12.3834 8.91751 12.6613 9.50017 12.6613C10.0828 12.6613 10.409 12.3842 11.0605 11.8292C12.0185 11.0138 13.0627 9.87779 13.0627 8.794C13.0627 6.6747 11.1033 5.88383 9.50017 7.521C7.89705 5.88383 5.93767 6.6747 5.93767 8.794Z" fill="currentColor"/>
</svg>
