<svg viewBox="0 0 15 15" fill="none" xmlns="http://www.w3.org/2000/svg">
<path d="M12.5 7.5H6.5625M11.25 9.375L13.125 7.5L11.25 5.625M8.125 4.375V3.75C8.125 3.41848 7.9933 3.10054 7.75888 2.86612C7.52446 2.6317 7.20652 2.5 6.875 2.5H3.75C3.41848 2.5 3.10054 2.6317 2.86612 2.86612C2.6317 3.10054 2.5 3.41848 2.5 3.75V11.25C2.5 11.5815 2.6317 11.8995 2.86612 12.1339C3.10054 12.3683 3.41848 12.5 3.75 12.5H6.875C7.20652 12.5 7.52446 12.3683 7.75888 12.1339C7.9933 11.8995 8.125 11.5815 8.125 11.25V10.625" stroke="currentColor" stroke-linecap="round" stroke-linejoin="round"/>
</svg>
