<svg viewBox="0 0 177 33" fill="none" xmlns="http://www.w3.org/2000/svg">
<path d="M11.9267 16.235L8.67115 23.2596C8.48378 23.613 8.3667 23.8449 8.31984 23.9554C8.22613 24.1763 8.17933 24.3972 8.17933 24.6182C8.17933 24.8611 8.25741 25.0709 8.4135 25.2477C8.56965 25.4244 8.73359 25.5128 8.90538 25.5128L8.78823 26.2749H2.25386C1.73861 26.2749 1.48096 25.9214 1.48096 25.2145C1.48096 25.1041 1.4966 24.9163 1.52782 24.6512L4.73646 5.23412C4.76768 5.0132 4.69745 4.78677 4.52566 4.55484C4.35393 4.3229 4.18214 4.20694 4.01041 4.20694L4.17435 3.44482H10.6854C11.185 3.44482 11.4348 3.79833 11.4348 4.49965C11.4348 4.58799 11.4348 4.76474 11.4348 5.02982L9.98274 13.551L13.0509 7.0124C13.1914 6.72519 13.3241 6.45459 13.449 6.18951C13.5739 5.92443 13.6676 5.60415 13.7301 5.22861C13.7613 5.00769 13.6988 4.78677 13.5427 4.55484C13.3865 4.3229 13.2226 4.20694 13.0509 4.20694L13.168 3.44482H19.6789C19.9443 3.44482 20.1356 3.53875 20.2528 3.72653C20.3698 3.9143 20.4284 4.18489 20.4284 4.53831L20.3816 5.03533L17.1963 24.4856C17.1651 24.7065 17.2354 24.9329 17.4071 25.1649C17.5789 25.3968 17.7506 25.5128 17.9223 25.5128L17.7584 26.2749H11.2475C10.7478 26.2749 10.498 25.9214 10.498 25.2145C10.498 25.1262 10.498 24.9494 10.498 24.6844L11.9267 16.235Z" fill="white"/>
<path d="M27.6423 24.6841L28.5791 18.9518H27.3144L26.4947 23.9552L26.4712 24.4854C26.4712 24.7283 26.5415 24.9603 26.682 25.1812C26.8226 25.4021 26.9709 25.5126 27.127 25.5126L26.9865 26.2747H21.1313C20.9127 26.2747 20.7331 26.1863 20.5926 26.0096C20.4521 25.8328 20.3818 25.623 20.3818 25.3801L20.4521 24.6786L22.7239 10.8392C22.7551 10.7067 22.7708 10.5742 22.7708 10.4362C22.7708 10.3036 22.7708 10.2042 22.7708 10.1379C22.7708 9.89488 22.7005 9.66294 22.56 9.44211C22.4195 9.22119 22.2711 9.11074 22.115 9.11074L22.2555 8.34863H28.1107C28.3293 8.34863 28.5088 8.43696 28.6494 8.61371C28.7899 8.79038 28.8602 9.00579 28.8602 9.24875L28.7899 9.94464L28.017 14.6443H29.3052L29.9141 10.8448C29.9453 10.7123 29.9609 10.5797 29.9609 10.4417C29.9609 10.3091 29.9609 10.2097 29.9609 10.1434C29.9609 9.90048 29.8907 9.66845 29.7502 9.44211C29.6096 9.22119 29.4613 9.11074 29.3052 9.11074L29.4457 8.34863H35.3008C35.5195 8.34863 35.699 8.43696 35.8395 8.61371C35.9801 8.79038 36.0503 9.00028 36.0503 9.24324L35.9801 9.94464L33.6849 23.9497L33.6614 24.4854C33.6614 24.7283 33.7317 24.9603 33.8722 25.1812C34.0128 25.4021 34.1611 25.5126 34.3172 25.5126L34.1767 26.2747H28.3215C28.1029 26.2747 27.9233 26.1863 27.7828 26.0096C27.6423 25.8328 27.572 25.623 27.572 25.3801L27.6423 24.6841Z" fill="white"/>
<path d="M37.9005 8.34863H46.7301C47.7294 8.34863 48.5062 8.69103 49.0606 9.38133C49.6148 10.0661 49.892 10.9332 49.892 11.9769C49.892 12.1315 49.8803 12.3028 49.8568 12.4905C49.8334 12.6782 49.8139 12.8273 49.7983 12.9378C49.6109 14.0699 49.3416 14.8983 48.9903 15.4174C48.639 15.9421 48.2291 16.2568 47.7607 16.3673C48.2447 16.6987 48.5882 17.1017 48.7912 17.5767C48.9942 18.0516 49.0957 18.6316 49.0957 19.3163C49.0957 19.6476 49.0761 19.979 49.0371 20.3104C48.9981 20.6417 48.9317 21.1167 48.838 21.7352C48.5882 23.3035 48.1198 24.4522 47.4328 25.1812C46.7458 25.9101 45.8012 26.2747 44.5989 26.2747H36.7763C36.5577 26.2747 36.3782 26.1863 36.2377 26.0096C36.0971 25.8328 36.0269 25.623 36.0269 25.3801L36.0971 24.6786L38.3689 10.8392C38.4002 10.7067 38.4158 10.5742 38.4158 10.4362C38.4158 10.3036 38.4158 10.2042 38.4158 10.1379C38.4158 9.89488 38.3455 9.66294 38.205 9.44211C38.0645 9.22119 37.9161 9.11074 37.76 9.11074L37.9005 8.34863ZM44.8331 13.9705L44.997 13.0317C45.0751 12.5623 44.958 12.3248 44.6457 12.3248H43.8962L43.4981 14.7106H44.2944C44.5599 14.7106 44.7394 14.462 44.8331 13.9705ZM43.7792 20.4097L43.99 19.1506C44.068 18.6204 43.9587 18.3554 43.662 18.3554H42.8892L42.4441 21.1387H43.1936C43.381 21.1387 43.5176 21.078 43.6035 20.9565C43.6893 20.835 43.7479 20.6528 43.7792 20.4097Z" fill="white"/>
<path d="M57.4566 21.1387H59.3536C59.9782 21.1387 60.431 21.0614 60.7121 20.9068C60.9931 20.7521 61.1961 20.4539 61.321 20.0122H61.9065L61.321 23.3919C61.1336 24.5185 60.7979 25.2806 60.3139 25.6782C59.8299 26.0759 59.1038 26.2747 58.1357 26.2747H53.194C52.0698 26.2747 51.2461 25.9157 50.7231 25.1978C50.2 24.4799 49.9385 23.414 49.9385 22.0002C49.9385 21.0725 50.0634 19.8796 50.3132 18.4217L50.8987 15.1081C51.2891 12.9323 51.98 11.2645 52.9714 10.0993C53.9629 8.93399 55.1223 8.34863 56.4494 8.34863H59.0257C60.509 8.34863 61.5942 8.69103 62.2812 9.38133C62.9682 10.0661 63.3117 11.0878 63.3117 12.4353C63.3117 12.9709 63.2493 13.6116 63.1244 14.3682C62.8277 16.185 62.5428 17.3116 62.2695 17.759C61.9963 18.2007 61.4147 18.4217 60.5247 18.4217H56.2387L56.0279 19.6476L55.9576 20.3766C55.9576 20.6417 56.0747 20.835 56.3089 20.9565C56.5431 21.078 56.9257 21.1387 57.4566 21.1387ZM56.7774 15.1081H57.5736C57.8703 15.1081 58.0655 14.8376 58.1592 14.3019L58.2763 13.6613C58.3075 13.5288 58.3231 13.3741 58.3231 13.1919C58.3231 12.8328 58.1435 12.6562 57.7844 12.6562C57.519 12.6562 57.3394 12.739 57.2458 12.9102C57.1521 13.0759 57.074 13.352 57.0115 13.7331L56.7774 15.1081Z" fill="white"/>
<path d="M70.2207 21.1387H72.5394C72.8048 21.1387 73.0468 21.0227 73.2654 20.7908C73.484 20.5589 73.6245 20.2993 73.687 20.0122H74.2022L73.687 23.1599C73.4684 24.4412 73.1717 25.2806 72.797 25.6782C72.4222 26.0759 71.8211 26.2747 70.9936 26.2747H66.7544C65.5833 26.2747 64.7285 25.9046 64.1899 25.1646C63.6512 24.4191 63.3818 23.287 63.3818 21.7573C63.3818 20.7411 63.4833 19.6256 63.6863 18.4051L64.225 15.0861C64.5685 12.8936 65.2633 11.2038 66.3094 10.0108C67.2775 8.90084 68.4329 8.34863 69.7757 8.34863H75.2093L74.6472 11.8609C74.5692 12.2806 74.3662 12.6009 74.0383 12.8218C73.7104 13.0427 73.281 13.1532 72.7501 13.1532H71.7196C71.3293 13.1532 70.9936 13.3078 70.7125 13.6171C70.4315 13.9318 70.2441 14.3957 70.1504 15.0143L69.5415 18.8082C69.5103 19.0291 69.4907 19.2501 69.4829 19.4599C69.4751 19.6698 69.4712 19.863 69.4712 20.0397C69.4712 20.349 69.5454 20.6141 69.6937 20.8239C69.842 21.0338 70.0177 21.1387 70.2207 21.1387Z" fill="white"/>
<path d="M76.732 8.34924H81.346C81.7519 8.34924 82.0603 8.52039 82.2711 8.8683C82.4819 9.21629 82.5873 9.66906 82.5873 10.2324C82.5873 10.4533 82.5794 10.6245 82.5638 10.7349H82.8917C83.2665 9.91762 83.6412 9.31014 84.0159 8.91256C84.4687 8.42656 85.0074 8.18359 85.632 8.18359H87.3417C88.7469 8.18359 89.4495 8.8794 89.4495 10.271C89.4495 10.4698 89.4417 10.6245 89.4261 10.7349H89.7072C90.1288 9.85132 90.5113 9.23283 90.8548 8.87941C91.292 8.41554 91.8307 8.18359 92.4708 8.18359H93.7355C94.7348 8.18359 95.4374 8.35475 95.8434 8.69714C96.2494 9.03954 96.4524 9.67466 96.4524 10.6024C96.4524 11.1546 96.3821 11.8284 96.2415 12.6236L94.3679 23.9558L94.3445 24.486C94.3445 24.7289 94.4148 24.961 94.5553 25.1818C94.6958 25.4027 94.8441 25.5132 95.0003 25.5132L94.8597 26.2753H89.4261C89.2075 26.2753 89.028 26.1869 88.8874 26.0102C88.7469 25.8334 88.6767 25.6236 88.6767 25.3807L88.7469 24.6848L90.4567 14.3467C90.4879 14.2142 90.5035 14.0264 90.5035 13.7833C90.5035 13.2532 90.3005 12.9882 89.8945 12.9882C89.7072 12.9882 89.5355 13.0875 89.3793 13.2863C89.2232 13.4852 89.1139 13.7944 89.0514 14.2142L87.4587 23.9558L87.4354 24.486C87.4354 24.7289 87.5056 24.961 87.6461 25.1818C87.7867 25.4027 87.935 25.5132 88.0911 25.5132L87.9506 26.2753H82.517C82.2984 26.2753 82.1188 26.1869 81.9783 26.0102C81.8378 25.8334 81.7675 25.6236 81.7675 25.3807L81.8378 24.6848L83.5475 14.3135C83.5631 14.203 83.5748 14.0871 83.5827 13.9656C83.5904 13.8441 83.5943 13.7613 83.5943 13.7171C83.5943 13.2311 83.3992 12.9882 83.0088 12.9882C82.8059 12.9882 82.6224 13.0765 82.4584 13.2532C82.2945 13.4299 82.1813 13.7392 82.1188 14.181L80.5262 23.9558L80.5028 24.486C80.5028 24.7289 80.5731 24.961 80.7136 25.1818C80.8541 25.4027 81.0024 25.5132 81.1586 25.5132L81.018 26.2753H75.5844C75.3659 26.2753 75.1863 26.1869 75.0458 26.0102C74.9053 25.8334 74.835 25.6236 74.835 25.3807L74.9052 24.6793L77.2473 10.3373L77.2707 9.8403C77.2707 9.61938 77.2005 9.44273 77.06 9.31014C76.9194 9.17764 76.7711 9.11135 76.6149 9.11135L76.732 8.34924Z" fill="white"/>
<path fill-rule="evenodd" clip-rule="evenodd" d="M11.9268 16.2358L8.67125 23.2604C8.48388 23.6138 8.3668 23.8457 8.31994 23.9562C8.22623 24.1771 8.17943 24.398 8.17943 24.6189C8.17943 24.8619 8.25751 25.0717 8.4136 25.2485C8.56975 25.4252 8.73369 25.5136 8.90548 25.5136L8.78833 26.2757H2.25396C1.73871 26.2757 1.48106 25.9222 1.48106 25.2153C1.48106 25.1049 1.4967 24.9171 1.52791 24.652L4.73656 5.23491C4.76778 5.01399 4.69755 4.78756 4.52576 4.55563C4.35403 4.32369 4.18224 4.20773 4.01051 4.20773L4.17445 3.44561H10.6855C11.1851 3.44561 11.4349 3.79912 11.4349 4.50044C11.4349 4.58878 11.4349 4.76553 11.4349 5.03061L9.98284 13.5518L13.051 7.01319C13.1915 6.72598 13.3242 6.45538 13.4491 6.1903C13.574 5.92521 13.6677 5.60494 13.7302 5.2294C13.7614 5.00848 13.6989 4.78756 13.5428 4.55563C13.3866 4.32369 13.2227 4.20773 13.051 4.20773L13.1681 3.44561H19.679C19.9444 3.44561 20.1357 3.53954 20.2529 3.72731C20.3699 3.91509 20.4285 4.18568 20.4285 4.5391L20.3817 5.03612L17.1964 24.4864C17.1652 24.7073 17.2355 24.9337 17.4072 25.1656C17.579 25.3976 17.7507 25.5136 17.9225 25.5136L17.7585 26.2757H11.2476C10.7479 26.2757 10.4981 25.9222 10.4981 25.2153C10.4981 25.127 10.4981 24.9502 10.4981 24.6851L11.9268 16.2358ZM9.7998 27.0633C9.59858 27.5809 9.21024 27.9095 8.78833 27.9089V27.9102H2.25396C1.68722 27.9102 1.2263 27.6665 0.870977 27.179C0.507489 26.6802 0.325684 26.0256 0.325684 25.2153C0.325684 25.1046 0.332606 24.9661 0.346453 24.8001C0.348061 24.7807 0.349978 24.7617 0.35208 24.7426C0.361105 24.6445 0.373963 24.5248 0.390592 24.3839C0.394672 24.3495 0.399493 24.3156 0.404995 24.282L0.40413 24.2817L3.48117 5.66101C3.10933 5.38937 2.85514 4.84057 2.85514 4.20773C2.85514 3.98943 2.88543 3.78119 2.94032 3.59088L3.07323 2.97308C3.22394 2.27001 3.68065 1.81707 4.17445 1.81724V1.81104H10.6855C11.2499 1.81104 11.7082 2.05941 12.0597 2.55398C12.0899 2.59649 12.1188 2.64013 12.1464 2.68491C12.3445 2.15177 12.7389 1.81173 13.1681 1.81234V1.81104H19.679C19.9314 1.81104 20.1705 1.8664 20.3961 1.9772C20.6844 2.11871 20.924 2.34242 21.1148 2.64826C21.4275 3.14966 21.5838 3.77997 21.5838 4.5391C21.5838 4.65935 21.5746 4.77646 21.5571 4.88937L21.5235 5.24681C21.5188 5.29867 21.5122 5.34965 21.5042 5.39959L21.5055 5.40003L18.4498 24.0588C18.8227 24.3299 19.0778 24.8796 19.0778 25.5136C19.0778 25.7318 19.0475 25.9401 18.9926 26.1304L18.8597 26.7482C18.709 27.4513 18.2523 27.9042 17.7585 27.904V27.9102H11.2476C10.6829 27.9102 10.224 27.6612 9.87089 27.163L9.8686 27.1662C9.84486 27.1327 9.82193 27.0983 9.7998 27.0633Z" fill="white"/>
<path fill-rule="evenodd" clip-rule="evenodd" d="M27.6419 24.6849L28.5787 18.9526H27.314L26.4943 23.956L26.4709 24.4862C26.4709 24.7291 26.5411 24.9611 26.6817 25.182C26.8222 25.4029 26.9705 25.5134 27.1266 25.5134L26.9861 26.2755H21.1309C20.9123 26.2755 20.7328 26.1871 20.5922 26.0104C20.4517 25.8336 20.3814 25.6238 20.3814 25.3809L20.4517 24.6794L22.7235 10.84C22.7548 10.7075 22.7704 10.575 22.7704 10.437C22.7704 10.3044 22.7704 10.205 22.7704 10.1387C22.7704 9.89568 22.7001 9.66374 22.5596 9.44291C22.4191 9.22199 22.2707 9.11153 22.1146 9.11153L22.2551 8.34943H28.1103C28.3289 8.34943 28.5084 8.43776 28.649 8.61451C28.7895 8.79118 28.8598 9.00659 28.8598 9.24955L28.7895 9.94544L28.0166 14.6451H29.3048L29.9137 10.8456C29.9449 10.7131 29.9605 10.5805 29.9605 10.4425C29.9605 10.3099 29.9605 10.2105 29.9605 10.1442C29.9605 9.90128 29.8903 9.66925 29.7498 9.44291C29.6092 9.22199 29.4609 9.11153 29.3048 9.11153L29.4453 8.34943H35.3005C35.5191 8.34943 35.6986 8.43776 35.8391 8.61451C35.9797 8.79118 36.0499 9.00108 36.0499 9.24404L35.9797 9.94544L33.6845 23.9505L33.6611 24.4862C33.6611 24.7291 33.7313 24.9611 33.8718 25.182C34.0124 25.4029 34.1607 25.5134 34.3168 25.5134L34.1763 26.2755H28.3211C28.1025 26.2755 27.923 26.1871 27.7824 26.0104C27.6419 25.8336 27.5716 25.6238 27.5716 25.3809L27.6419 24.6849ZM27.5483 27.6973C27.3791 27.8312 27.186 27.9052 26.9861 27.9051V27.91H21.1309C20.8986 27.91 20.6725 27.8559 20.4532 27.748C20.2165 27.6315 20.0068 27.4586 19.825 27.2299C19.6394 26.9965 19.495 26.7251 19.3916 26.4164C19.2812 26.087 19.2261 25.7417 19.2261 25.3809C19.2261 25.2635 19.2349 25.1491 19.2515 25.0387L19.3099 24.456C19.3145 24.4084 19.3207 24.3616 19.3281 24.3156L19.3279 24.3155L21.5852 10.5647C21.2134 10.2931 20.9592 9.74438 20.9592 9.11153C20.9592 8.92114 20.9823 8.73844 21.0246 8.56851L21.1403 7.94074C21.2748 7.20644 21.7426 6.71939 22.2551 6.71983V6.71484H28.1103C28.3427 6.71484 28.5687 6.76881 28.788 6.87691C28.8202 6.89274 28.8519 6.90961 28.8832 6.92754C29.0523 6.79365 29.2454 6.71966 29.4453 6.71983V6.71484H35.3005C35.5328 6.71484 35.7589 6.76881 35.9782 6.87691C36.2148 6.99331 36.4243 7.16596 36.6064 7.39501C36.7918 7.62808 36.9363 7.89946 37.0398 8.20836C37.1502 8.53773 37.2053 8.88319 37.2053 9.24404C37.2053 9.36132 37.1965 9.47571 37.1799 9.58599L37.1215 10.1689C37.1169 10.2165 37.1107 10.2633 37.1033 10.3093L37.1035 10.3094L34.8495 24.0626C35.2195 24.3351 35.4722 24.8824 35.4722 25.5134C35.4722 25.7038 35.4491 25.8864 35.4068 26.0564L35.2911 26.6842C35.1566 27.4184 34.6888 27.9055 34.1763 27.9051V27.91H28.3211C28.0887 27.91 27.8627 27.8559 27.6434 27.748C27.6111 27.7322 27.5794 27.7153 27.5483 27.6973Z" fill="white"/>
<path fill-rule="evenodd" clip-rule="evenodd" d="M37.9002 6.71484H46.7298C47.3425 6.71484 47.9009 6.826 48.4048 7.04893C48.9514 7.29075 49.4242 7.65956 49.8229 8.15614C49.8464 8.18544 49.8688 8.21579 49.8902 8.2471C50.2591 8.72489 50.5409 9.26773 50.7351 9.87434C50.943 10.5232 51.047 11.2249 51.047 11.9777C51.047 12.0694 51.041 12.2018 51.0292 12.3752C51.0177 12.5422 51.0059 12.6753 50.9938 12.7722C50.9675 12.9834 51.0049 12.6721 50.957 13.0376C50.9539 13.062 50.9435 13.1355 50.9262 13.2578C50.9238 13.2746 50.9212 13.2912 50.9185 13.3078L50.9217 13.3089C50.8106 13.9802 50.6706 14.5752 50.5021 15.0926C50.3155 15.6652 50.0896 16.1487 49.8247 16.5418L49.8248 16.5419C49.7986 16.5811 49.7721 16.6195 49.7452 16.6572C49.7568 16.6828 49.7681 16.7087 49.7792 16.7347C49.9388 17.1081 50.0586 17.523 50.1384 17.9792C50.2132 18.4066 50.2506 18.8527 50.2506 19.3171C50.2506 19.5211 50.2442 19.7315 50.2315 19.9481C50.2202 20.1392 50.2011 20.3497 50.1741 20.5793C50.1482 20.7982 50.1202 21.0158 50.0903 21.2299C50.0622 21.4313 50.0207 21.7124 49.9659 22.0743C49.9605 22.1105 49.9542 22.1462 49.9471 22.1814C49.7976 23.0864 49.5806 23.8877 49.2964 24.5846C48.9827 25.354 48.5914 25.9874 48.1229 26.4846C47.6625 26.9729 47.1252 27.3359 46.5111 27.5728C45.9285 27.7976 45.2909 27.91 44.5985 27.91H36.7759C36.5436 27.91 36.3175 27.8559 36.0982 27.748C35.8615 27.6315 35.6518 27.4586 35.47 27.2299C35.2845 26.9965 35.14 26.7251 35.0366 26.4164C34.9262 26.087 34.8711 25.7417 34.8711 25.3809C34.8711 25.2635 34.8799 25.1491 34.8965 25.0387L34.9549 24.456C34.9596 24.4084 34.9657 24.3616 34.9732 24.3156L34.973 24.3155L37.2302 10.5647C36.8584 10.2931 36.6042 9.74438 36.6042 9.11153C36.6042 8.92105 36.6273 8.73826 36.6696 8.56833L36.7854 7.94074C36.9199 7.20644 37.3877 6.71939 37.9002 6.71983V6.71484ZM37.9002 8.34943H46.7298C47.729 8.34943 48.5058 8.69183 49.0602 9.38213C49.6144 10.0669 49.8916 10.934 49.8916 11.9777C49.8916 12.1323 49.8799 12.3036 49.8564 12.4913C49.833 12.679 49.8135 12.8281 49.7979 12.9386C49.6105 14.0707 49.3412 14.8991 48.9899 15.4182C48.6386 15.9429 48.2287 16.2576 47.7603 16.3681C48.2443 16.6994 48.5878 17.1025 48.7908 17.5775C48.9938 18.0524 49.0953 18.6324 49.0953 19.3171C49.0953 19.6484 49.0757 19.9798 49.0367 20.3112C48.9977 20.6425 48.9313 21.1175 48.8376 21.736C48.5878 23.3043 48.1194 24.453 47.4324 25.182C46.7454 25.9109 45.8008 26.2755 44.5985 26.2755H36.7759C36.5574 26.2755 36.3778 26.1871 36.2373 26.0104C36.0968 25.8336 36.0265 25.6238 36.0265 25.3809L36.0968 24.6794L38.3686 10.84C38.3998 10.7075 38.4154 10.575 38.4154 10.437C38.4154 10.3044 38.4154 10.205 38.4154 10.1387C38.4154 9.89568 38.3451 9.66374 38.2046 9.44291C38.0641 9.22199 37.9157 9.11153 37.7596 9.11153L37.9002 8.34943ZM44.8327 13.9713L44.9966 13.0325C45.0747 12.5631 44.9576 12.3256 44.6453 12.3256H43.8959L43.4977 14.7114H44.294C44.5595 14.7114 44.739 14.4628 44.8327 13.9713ZM43.7788 20.4105L43.9896 19.1514C44.0676 18.6212 43.9583 18.3562 43.6616 18.3562H42.8888L42.4438 21.1395H43.1932C43.3806 21.1395 43.5172 21.0788 43.6031 20.9573C43.689 20.8358 43.7476 20.6536 43.7788 20.4105Z" fill="white"/>
<path fill-rule="evenodd" clip-rule="evenodd" d="M57.4562 21.1395H59.3532C59.9778 21.1395 60.4306 21.0622 60.7117 20.9076C60.9927 20.7529 61.1957 20.4547 61.3206 20.013H61.9061L61.3206 23.3927C61.1332 24.5193 60.7975 25.2814 60.3135 25.679C59.8295 26.0767 59.1034 26.2755 58.1354 26.2755H53.1936C52.0694 26.2755 51.2457 25.9165 50.7227 25.1986C50.1996 24.4807 49.9381 23.4148 49.9381 22.001C49.9381 21.0733 50.063 19.8804 50.3128 18.4225L50.8983 15.1089C51.2887 12.9331 51.9796 11.2653 52.971 10.1001C53.9625 8.93479 55.1219 8.34943 56.449 8.34943H59.0253C60.5087 8.34943 61.5938 8.69183 62.2808 9.38213C62.9678 10.0669 63.3113 11.0886 63.3113 12.4361C63.3113 12.9717 63.2489 13.6124 63.124 14.369C62.8273 16.1858 62.5424 17.3124 62.2691 17.7598C61.9959 18.2015 61.4143 18.4225 60.5243 18.4225H56.2383L56.0275 19.6484L55.9572 20.3774C55.9572 20.6425 56.0744 20.8358 56.3085 20.9573C56.5427 21.0788 56.9253 21.1395 57.4562 21.1395ZM56.777 15.1089H57.5732C57.8699 15.1089 58.0651 14.8384 58.1588 14.3027L58.2759 13.6621C58.3071 13.5296 58.3227 13.3749 58.3227 13.1927C58.3227 12.8336 58.1431 12.657 57.784 12.657C57.5186 12.657 57.339 12.7398 57.2454 12.911C57.1517 13.0767 57.0736 13.3528 57.0111 13.7339L56.777 15.1089ZM62.8934 19.1635C63 19.411 63.0615 19.7019 63.0615 20.013C63.0615 20.1954 63.0403 20.3708 63.0014 20.5346L62.4422 23.7623L62.4443 23.763C62.3216 24.5017 62.1425 25.138 61.9077 25.6712C61.639 26.2811 61.3001 26.7542 60.8912 27.0901C60.5365 27.3815 60.1135 27.5946 59.6226 27.729C59.1818 27.8497 58.686 27.91 58.1354 27.91H53.1936C52.523 27.91 51.9232 27.7947 51.3942 27.5642C50.8056 27.3078 50.3139 26.9085 49.9194 26.367C49.5296 25.8319 49.2386 25.1729 49.0466 24.3907C48.8707 23.6739 48.7827 22.8772 48.7827 22.001C48.7827 21.466 48.8185 20.8568 48.89 20.1744C48.9551 19.5521 49.0563 18.8402 49.1936 18.0394C49.1942 18.0354 49.195 18.0314 49.1957 18.0274L49.1936 18.0266L49.779 14.7131C50.0001 13.4809 50.3126 12.3773 50.7164 11.4018C51.1292 10.4043 51.6357 9.55328 52.2354 8.84855C52.8403 8.13769 53.4954 7.60412 54.2005 7.24895C54.9068 6.89317 55.6564 6.71484 56.449 6.71484H59.0253C59.8383 6.71484 60.5632 6.81542 61.1999 7.01701C61.8948 7.23705 62.4761 7.58085 62.9437 8.04884L62.9443 8.04761C63.4541 8.55583 63.8381 9.19314 64.0959 9.95717C64.3431 10.6897 64.4667 11.5168 64.4667 12.4361C64.4667 12.7556 64.4466 13.1222 64.4063 13.5367C64.3682 13.9295 64.3153 14.33 64.2478 14.7393C64.2443 14.7603 64.2405 14.7812 64.2364 14.8019C64.0793 15.7568 63.9257 16.5309 63.776 17.1248C63.5868 17.8755 63.3748 18.4422 63.1402 18.8261C63.1278 18.8463 63.1152 18.8659 63.1023 18.8849C63.0378 18.9842 62.9681 19.077 62.8934 19.1635Z" fill="white"/>
<path fill-rule="evenodd" clip-rule="evenodd" d="M70.6359 19.5049H72.54C72.5536 19.5049 72.5655 19.4996 72.5754 19.489C72.5875 19.4762 72.5974 19.4647 72.6052 19.4544C72.7738 18.7991 73.2138 18.3825 73.6875 18.3827V18.3784H74.2028C74.8409 18.3784 75.3582 19.1102 75.3582 20.013C75.3582 20.1794 75.3405 20.34 75.3078 20.4913L74.8113 23.5246C74.806 23.5574 74.8 23.5895 74.7934 23.6214C74.51 25.239 74.0747 26.3592 73.4881 26.9816C73.1679 27.3213 72.781 27.5662 72.3274 27.7162C71.9368 27.8454 71.4923 27.91 70.9942 27.91H66.755C66.0649 27.91 65.4469 27.7919 64.9016 27.5559C64.2934 27.2926 63.7885 26.8851 63.3871 26.3339C63.3853 26.3313 63.3835 26.3287 63.3817 26.3262C62.9825 25.7734 62.686 25.0894 62.4922 24.273C62.3154 23.5282 62.2271 22.6903 62.2271 21.7581C62.2271 21.2132 62.257 20.6121 62.3167 19.9543C62.3751 19.3114 62.4573 18.672 62.5631 18.0356C62.5664 18.0158 62.5699 17.9963 62.5737 17.9768L63.1018 14.723C63.1065 14.6934 63.1119 14.6642 63.1178 14.6355C63.3164 13.409 63.6128 12.3165 64.0069 11.3572C64.4261 10.3366 64.9532 9.46478 65.5879 8.74098C65.5977 8.72978 65.6077 8.71894 65.6177 8.70836C66.2024 8.04674 66.8407 7.55051 67.5325 7.21904C68.2347 6.88268 68.9827 6.71484 69.7763 6.71484H75.2099C75.848 6.71484 76.3653 7.44669 76.3653 8.34943C76.3653 8.51989 76.3468 8.68413 76.3126 8.83858L75.7716 12.2193C75.7686 12.2385 75.7652 12.2576 75.7617 12.2765L75.7626 12.2768C75.6773 12.736 75.5211 13.1447 75.2945 13.5022C75.0851 13.8325 74.8319 14.0978 74.5353 14.2976C74.0496 14.6249 73.4546 14.7886 72.7507 14.7886H71.7202C71.5934 14.7886 71.4938 14.8284 71.4217 14.9077C71.4149 14.9151 71.408 14.9225 71.4012 14.9297C71.3886 14.9505 71.3761 14.9763 71.3638 15.0071C71.3296 15.0918 71.3014 15.2072 71.2793 15.3535C71.2741 15.3883 71.2681 15.4227 71.2613 15.4564L70.6721 19.1275L70.6749 19.1282C70.6571 19.2542 70.6475 19.3247 70.6461 19.341C70.6421 19.3852 70.6386 19.4401 70.6359 19.5049ZM70.2212 21.1395H72.54C72.8053 21.1395 73.0474 21.0235 73.266 20.7916C73.4846 20.5597 73.6251 20.3001 73.6875 20.013H74.2028L73.6875 23.1607C73.469 24.442 73.1723 25.2814 72.7976 25.679C72.4228 26.0767 71.8217 26.2755 70.9942 26.2755H66.755C65.5839 26.2755 64.7291 25.9054 64.1904 25.1654C63.6518 24.4199 63.3824 23.2878 63.3824 21.7581C63.3824 20.7419 63.4839 19.6264 63.6869 18.4059L64.2256 15.0869C64.5691 12.8944 65.2639 11.2046 66.31 10.0116C67.278 8.90164 68.4335 8.34943 69.7763 8.34943H75.2099L74.6478 11.8617C74.5697 12.2814 74.3667 12.6017 74.0389 12.8226C73.711 13.0435 73.2816 13.154 72.7507 13.154H71.7202C71.3299 13.154 70.9942 13.3086 70.7131 13.6179C70.432 13.9326 70.2447 14.3965 70.151 15.0151L69.5421 18.809C69.5108 19.0299 69.4913 19.2509 69.4835 19.4607C69.4757 19.6706 69.4718 19.8638 69.4718 20.0405C69.4718 20.3498 69.5459 20.6149 69.6943 20.8247C69.8426 21.0346 70.0183 21.1395 70.2212 21.1395Z" fill="white"/>
<path fill-rule="evenodd" clip-rule="evenodd" d="M76.7321 6.71398H81.3461C81.6948 6.71398 82.0147 6.79488 82.306 6.95799C82.6342 7.14148 82.9145 7.4244 83.1468 7.80773C83.1471 7.80826 83.1474 7.80878 83.1477 7.8093C83.2067 7.73916 83.266 7.67243 83.3255 7.60929C83.3378 7.59625 83.3502 7.58375 83.3627 7.57159C83.6835 7.23707 84.0334 6.9844 84.4121 6.81359C84.8041 6.63675 85.2108 6.54834 85.6321 6.54834H87.3418C88.58 6.54834 89.4658 6.95046 89.9992 7.75446C90.0591 7.6838 90.1187 7.61794 90.1779 7.55698C90.1996 7.53477 90.2217 7.51378 90.2441 7.49402C90.8732 6.86362 91.6155 6.54834 92.4709 6.54834H93.7356C94.2948 6.54834 94.785 6.59967 95.2061 6.70226C95.6955 6.82138 96.1051 7.02008 96.4348 7.29811C96.8455 7.64444 97.1513 8.13167 97.3518 8.75918C97.5224 9.29311 97.6078 9.9075 97.6078 10.6017C97.6078 10.9488 97.5857 11.3343 97.5415 11.7577C97.5018 12.1389 97.4431 12.551 97.3654 12.9933L95.5351 24.0633C95.904 24.3363 96.1557 24.8828 96.1557 25.5125C96.1557 25.7029 96.1327 25.8856 96.0903 26.0555L95.9746 26.6833C95.8401 27.4176 95.3723 27.9046 94.8598 27.9042V27.9092H89.4262C89.1939 27.9092 88.9679 27.855 88.7485 27.7471C88.6878 27.7173 88.6289 27.6837 88.5718 27.6464C88.3892 27.8117 88.1742 27.9044 87.9507 27.9042V27.9092H82.5171C82.2848 27.9092 82.0587 27.855 81.8393 27.7471C81.7738 27.7149 81.7104 27.6784 81.6491 27.6375C81.4644 27.8085 81.2457 27.9044 81.0181 27.9042V27.9092H75.5845C75.3522 27.9092 75.1262 27.855 74.9068 27.7471C74.6701 27.6307 74.4605 27.4577 74.2786 27.229C74.0932 26.9956 73.9486 26.7243 73.8452 26.4156C73.7348 26.0861 73.6797 25.7408 73.6797 25.38C73.6797 25.2626 73.6885 25.1482 73.7051 25.0378L73.7635 24.4551C73.7681 24.4075 73.7743 24.3608 73.7817 24.3148L73.7816 24.3147L76.0337 10.5235C75.6904 10.2401 75.4597 9.71352 75.4597 9.11067C75.4597 8.96488 75.4732 8.82355 75.4985 8.68904L75.6038 8.00381C75.7207 7.23786 76.1998 6.71451 76.7321 6.7153V6.71398ZM76.7321 8.34857H81.3461C81.752 8.34857 82.0604 8.51972 82.2712 8.86763C82.482 9.21562 82.5874 9.66839 82.5874 10.2317C82.5874 10.4526 82.5795 10.6239 82.5639 10.7342H82.8918C83.2666 9.91694 83.6413 9.30947 84.016 8.91188C84.4688 8.42588 85.0075 8.18292 85.6321 8.18292H87.3418C88.747 8.18292 89.4496 8.87873 89.4496 10.2704C89.4496 10.4691 89.4418 10.6239 89.4262 10.7342H89.7073C90.1289 9.85065 90.5114 9.23215 90.8549 8.87874C91.2921 8.41486 91.8308 8.18292 92.4709 8.18292H93.7356C94.7349 8.18292 95.4375 8.35407 95.8435 8.69647C96.2495 9.03886 96.4524 9.67399 96.4524 10.6017C96.4524 11.1539 96.3822 11.8277 96.2416 12.623L94.368 23.9551L94.3446 24.4853C94.3446 24.7283 94.4149 24.9603 94.5554 25.1811C94.6959 25.402 94.8442 25.5125 95.0003 25.5125L94.8598 26.2746H89.4262C89.2076 26.2746 89.0281 26.1863 88.8875 26.0095C88.747 25.8328 88.6768 25.6229 88.6768 25.38L88.747 24.6841L90.4567 14.346C90.488 14.2135 90.5035 14.0257 90.5035 13.7827C90.5035 13.2525 90.3006 12.9875 89.8946 12.9875C89.7073 12.9875 89.5355 13.0868 89.3794 13.2856C89.2232 13.4845 89.1139 13.7938 89.0515 14.2135L87.4588 23.9551L87.4355 24.4853C87.4355 24.7283 87.5057 24.9603 87.6462 25.1811C87.7868 25.402 87.9351 25.5125 88.0912 25.5125L87.9507 26.2746H82.5171C82.2985 26.2746 82.1189 26.1863 81.9784 26.0095C81.8379 25.8328 81.7676 25.6229 81.7676 25.38L81.8379 24.6841L83.5476 14.3128C83.5632 14.2024 83.5749 14.0864 83.5827 13.9649C83.5905 13.8434 83.5944 13.7606 83.5944 13.7165C83.5944 13.2305 83.3993 12.9875 83.0089 12.9875C82.8059 12.9875 82.6225 13.0758 82.4585 13.2525C82.2946 13.4292 82.1814 13.7385 82.1189 14.1803L80.5263 23.9551L80.5029 24.4853C80.5029 24.7283 80.5732 24.9603 80.7137 25.1811C80.8542 25.402 81.0025 25.5125 81.1587 25.5125L81.0181 26.2746H75.5845C75.3659 26.2746 75.1864 26.1863 75.0459 26.0095C74.9053 25.8328 74.8351 25.6229 74.8351 25.38L74.9053 24.6786L77.2474 10.3366L77.2708 9.83963C77.2708 9.61871 77.2006 9.44205 77.0601 9.30947C76.9195 9.17697 76.7712 9.11067 76.615 9.11067L76.7321 8.34857Z" fill="white"/>
<path d="M11.37 15.0988L8.11451 22.1234C7.92714 22.4768 7.81006 22.7087 7.7632 22.8192C7.66949 23.0401 7.62269 23.261 7.62269 23.4819C7.62269 23.7249 7.70077 23.9347 7.85686 24.1114C8.01301 24.2882 8.17695 24.3765 8.34874 24.3765L8.2316 25.1386H1.69722C1.18197 25.1386 0.924316 24.7852 0.924316 24.0783C0.924316 23.9678 0.939957 23.7801 0.971175 23.515L4.17982 4.09789C4.21104 3.87697 4.14081 3.65054 3.96902 3.41861C3.79729 3.18667 3.6255 3.07071 3.45377 3.07071L3.61771 2.30859H10.1287C10.6283 2.30859 10.8782 2.6621 10.8782 3.36342C10.8782 3.45176 10.8782 3.62851 10.8782 3.89359L9.4261 12.4148L12.4942 5.87617C12.6347 5.58896 12.7675 5.31836 12.8923 5.05328C13.0173 4.78819 13.1109 4.46792 13.1734 4.09238C13.2046 3.87146 13.1422 3.65054 12.9861 3.41861C12.8299 3.18667 12.666 3.07071 12.4942 3.07071L12.6113 2.30859H19.1223C19.3877 2.30859 19.579 2.40252 19.6961 2.59029C19.8132 2.77807 19.8717 3.04866 19.8717 3.40208L19.8249 3.8991L16.6397 23.3493C16.6084 23.5703 16.6787 23.7967 16.8505 24.0286C17.0222 24.2606 17.194 24.3765 17.3657 24.3765L17.2018 25.1386H10.6908C10.1912 25.1386 9.94135 24.7852 9.94135 24.0783C9.94135 23.99 9.94135 23.8132 9.94135 23.5481L11.37 15.0988Z" fill="white"/>
<path d="M27.0856 23.5474L28.0225 17.8151H26.7577L25.938 22.8185L25.9146 23.3486C25.9146 23.5916 25.9848 23.8236 26.1254 24.0445C26.2659 24.2654 26.4142 24.3758 26.5704 24.3758L26.4299 25.1379H20.5747C20.3561 25.1379 20.1765 25.0496 20.036 24.8729C19.8955 24.6961 19.8252 24.4863 19.8252 24.2433L19.8955 23.5419L22.1673 9.70253C22.1985 9.57003 22.2141 9.43745 22.2141 9.29944C22.2141 9.16685 22.2141 9.0675 22.2141 9.00121C22.2141 8.75816 22.1439 8.52622 22.0033 8.30539C21.8628 8.08447 21.7145 7.97402 21.5583 7.97402L21.6988 7.21191H27.5541C27.7727 7.21191 27.9522 7.30024 28.0928 7.47699C28.2333 7.65366 28.3035 7.86907 28.3035 8.11203L28.2333 8.80792L27.4604 13.5076H28.7485L29.3575 9.70805C29.3887 9.57555 29.4043 9.44295 29.4043 9.30495C29.4043 9.17236 29.4043 9.07301 29.4043 9.00672C29.4043 8.76376 29.334 8.53173 29.1935 8.30539C29.053 8.08447 28.9047 7.97402 28.7485 7.97402L28.889 7.21191H34.7442C34.9629 7.21191 35.1424 7.30024 35.2829 7.47699C35.4235 7.65366 35.4937 7.86356 35.4937 8.10652L35.4235 8.80792L33.1282 22.813L33.1048 23.3486C33.1048 23.5916 33.175 23.8236 33.3155 24.0445C33.4561 24.2654 33.6044 24.3758 33.7606 24.3758L33.6201 25.1379H27.7649C27.5462 25.1379 27.3667 25.0496 27.2262 24.8729C27.0856 24.6961 27.0154 24.4863 27.0154 24.2433L27.0856 23.5474Z" fill="white"/>
<path d="M37.3439 7.21191H46.1735C47.1728 7.21191 47.9496 7.55431 48.5039 8.24462C49.0582 8.92941 49.3354 9.79646 49.3354 10.8402C49.3354 10.9948 49.3236 11.1661 49.3002 11.3537C49.2768 11.5415 49.2573 11.6906 49.2416 11.8011C49.0543 12.9332 48.7849 13.7616 48.4336 14.2807C48.0823 14.8053 47.6725 15.1201 47.2041 15.2306C47.688 15.5619 48.0316 15.965 48.2346 16.44C48.4375 16.9149 48.539 17.4948 48.539 18.1796C48.539 18.5109 48.5195 18.8423 48.4805 19.1737C48.4414 19.505 48.3751 19.9799 48.2814 20.5984C48.0316 22.1668 47.5632 23.3155 46.8761 24.0445C46.1891 24.7734 45.2445 25.1379 44.0422 25.1379H36.2197C36.0011 25.1379 35.8215 25.0496 35.681 24.8729C35.5405 24.6961 35.4702 24.4863 35.4702 24.2433L35.5405 23.5419L37.8123 9.70253C37.8435 9.57003 37.8592 9.43745 37.8592 9.29944C37.8592 9.16685 37.8592 9.0675 37.8592 9.00121C37.8592 8.75816 37.7889 8.52622 37.6484 8.30539C37.5078 8.08447 37.3595 7.97402 37.2033 7.97402L37.3439 7.21191ZM44.2764 12.8338L44.4404 11.895C44.5185 11.4255 44.4014 11.1881 44.0891 11.1881H43.3396L42.9414 13.5738H43.7378C44.0032 13.5738 44.1827 13.3253 44.2764 12.8338ZM43.2225 19.273L43.4333 18.0139C43.5113 17.4837 43.402 17.2186 43.1054 17.2186H42.3325L41.8875 20.002H42.637C42.8244 20.002 42.961 19.9413 43.0468 19.8198C43.1327 19.6982 43.1913 19.5161 43.2225 19.273Z" fill="white"/>
<path d="M56.9004 20.002H58.7975C59.422 20.002 59.8748 19.9247 60.1559 19.7701C60.4369 19.6154 60.6399 19.3172 60.7648 18.8754H61.3503L60.7648 22.2552C60.5774 23.3818 60.2418 24.1439 59.7577 24.5415C59.2737 24.9391 58.5477 25.1379 57.5796 25.1379H52.6378C51.5136 25.1379 50.69 24.779 50.1669 24.0611C49.6439 23.3431 49.3823 22.2773 49.3823 20.8635C49.3823 19.9358 49.5073 18.7429 49.7571 17.2849L50.3425 13.9714C50.7329 11.7956 51.4239 10.1278 52.4153 8.96255C53.4068 7.79727 54.5661 7.21191 55.8933 7.21191H58.4696C59.9529 7.21191 61.038 7.55431 61.7251 8.24462C62.4121 8.92941 62.7556 9.95108 62.7556 11.2985C62.7556 11.8342 62.6932 12.4748 62.5682 13.2314C62.2716 15.0483 61.9866 16.1749 61.7133 16.6223C61.4401 17.064 60.8585 17.2849 59.9685 17.2849H55.6825L55.4717 18.5109L55.4015 19.2399C55.4015 19.505 55.5186 19.6982 55.7528 19.8198C55.987 19.9413 56.3695 20.002 56.9004 20.002ZM56.2212 13.9714H57.0175C57.3141 13.9714 57.5093 13.7008 57.603 13.1652L57.7201 12.5245C57.7513 12.392 57.767 12.2374 57.767 12.0551C57.767 11.6961 57.5874 11.5195 57.2283 11.5195C56.9628 11.5195 56.7833 11.6023 56.6896 11.7734C56.596 11.9392 56.5179 12.2153 56.4554 12.5963L56.2212 13.9714Z" fill="white"/>
<path d="M69.665 20.002H71.9837C72.2491 20.002 72.4911 19.886 72.7097 19.6541C72.9284 19.4221 73.0689 19.1626 73.1313 18.8754H73.6465L73.1313 22.0232C72.9127 23.3045 72.616 24.1439 72.2413 24.5415C71.8666 24.9391 71.2655 25.1379 70.4379 25.1379H66.1988C65.0277 25.1379 64.1729 24.7679 63.6342 24.0279C63.0955 23.2824 62.8262 22.1503 62.8262 20.6206C62.8262 19.6044 62.9277 18.4889 63.1306 17.2684L63.6693 13.9494C64.0128 11.7569 64.7077 10.0671 65.7537 8.87413C66.7218 7.76412 67.8772 7.21191 69.22 7.21191H74.6537L74.0916 10.7242C74.0135 11.1439 73.8105 11.4642 73.4826 11.6851C73.1547 11.906 72.7253 12.0165 72.1945 12.0165H71.164C70.7736 12.0165 70.4379 12.1711 70.1569 12.4804C69.8758 12.7951 69.6884 13.259 69.5948 13.8776L68.9858 17.6715C68.9546 17.8924 68.9351 18.1133 68.9273 18.3231C68.9195 18.533 68.9156 18.7263 68.9156 18.903C68.9156 19.2123 68.9897 19.4774 69.1381 19.6872C69.2864 19.8971 69.462 20.002 69.665 20.002Z" fill="white"/>
<path d="M76.1759 7.21204H80.7898C81.1958 7.21204 81.5041 7.38319 81.7149 7.73109C81.9257 8.07909 82.0311 8.53185 82.0311 9.09517C82.0311 9.31609 82.0233 9.48733 82.0077 9.5977H82.3356C82.7103 8.78041 83.085 8.17293 83.4598 7.77535C83.9126 7.28935 84.4512 7.04639 85.0758 7.04639H86.7855C88.1907 7.04639 88.8934 7.7422 88.8934 9.13382C88.8934 9.33262 88.8856 9.48733 88.8699 9.5977H89.151C89.5726 8.71412 89.9552 8.09562 90.2986 7.7422C90.7358 7.27833 91.2745 7.04639 91.9146 7.04639H93.1794C94.1787 7.04639 94.8813 7.21754 95.2873 7.55994C95.6933 7.90233 95.8962 8.53746 95.8962 9.46521C95.8962 10.0174 95.826 10.6912 95.6854 11.4864L93.8118 22.8186L93.7883 23.3488C93.7883 23.5917 93.8586 23.8237 93.9991 24.0446C94.1396 24.2655 94.2879 24.376 94.4441 24.376L94.3036 25.1381H88.8699C88.6513 25.1381 88.4718 25.0497 88.3313 24.873C88.1908 24.6962 88.1205 24.4864 88.1205 24.2435L88.1908 23.5476L89.9005 13.2094C89.9317 13.0769 89.9473 12.8892 89.9473 12.6461C89.9473 12.116 89.7444 11.851 89.3384 11.851C89.151 11.851 88.9793 11.9503 88.8231 12.1491C88.667 12.348 88.5577 12.6572 88.4953 13.0769L86.9026 22.8186L86.8792 23.3488C86.8792 23.5917 86.9494 23.8237 87.09 24.0446C87.2305 24.2655 87.3788 24.376 87.535 24.376L87.3945 25.1381H81.9608C81.7422 25.1381 81.5627 25.0497 81.4222 24.873C81.2816 24.6962 81.2113 24.4864 81.2113 24.2435L81.2816 23.5476L82.9913 13.1763C83.007 13.0658 83.0187 12.9499 83.0265 12.8284C83.0343 12.7069 83.0382 12.6241 83.0382 12.5799C83.0382 12.0939 82.843 11.851 82.4526 11.851C82.2497 11.851 82.0662 11.9393 81.9023 12.116C81.7383 12.2927 81.6252 12.602 81.5627 13.0438L79.9701 22.8186L79.9466 23.3488C79.9466 23.5917 80.0169 23.8237 80.1574 24.0446C80.2979 24.2655 80.4463 24.376 80.6024 24.376L80.4619 25.1381H75.0283C74.8097 25.1381 74.6301 25.0497 74.4896 24.873C74.3491 24.6962 74.2788 24.4864 74.2788 24.2435L74.3491 23.542L76.6912 9.20012L76.7146 8.70309C76.7146 8.48218 76.6443 8.30552 76.5038 8.17293C76.3632 8.04044 76.2149 7.97414 76.0588 7.97414L76.1759 7.21204Z" fill="white"/>
<path fill-rule="evenodd" clip-rule="evenodd" d="M9.24527 22.0671L8.88783 22.8384L8.85173 22.9048C8.82311 22.9588 8.79455 23.0133 8.76611 23.0679H9.07607L9.24527 22.0671ZM11.3704 15.0984L8.11487 22.123C7.9275 22.4764 7.81041 22.7083 7.76356 22.8188C7.66984 23.0397 7.62304 23.2606 7.62304 23.4815C7.62304 23.7245 7.70112 23.9343 7.85721 24.111C8.01336 24.2878 8.1773 24.3761 8.34909 24.3761L8.23195 25.1382H1.69758C1.18233 25.1382 0.924669 24.7848 0.924669 24.0779C0.924669 23.9674 0.940309 23.7797 0.971527 23.5146L4.18017 4.09749C4.21139 3.87657 4.14117 3.65014 3.96937 3.4182C3.79764 3.18627 3.62585 3.0703 3.45412 3.0703L3.61806 2.30819H10.1291C10.6287 2.30819 10.8785 2.6617 10.8785 3.36302C10.8785 3.45136 10.8785 3.62811 10.8785 3.89319L9.42645 12.4144L12.4946 5.87577C12.6351 5.58855 12.7678 5.31796 12.8927 5.05288C13.0176 4.78779 13.1113 4.46752 13.1738 4.09198C13.205 3.87106 13.1426 3.65014 12.9864 3.4182C12.8303 3.18627 12.6663 3.0703 12.4946 3.0703L12.6117 2.30819H19.1226C19.3881 2.30819 19.5793 2.40212 19.6965 2.58989C19.8135 2.77767 19.8721 3.04826 19.8721 3.40168L19.8253 3.8987L16.64 23.3489C16.6088 23.5699 16.6791 23.7963 16.8508 24.0282C17.0226 24.2602 17.1943 24.3761 17.3661 24.3761L17.2021 25.1382H10.6912C10.1915 25.1382 9.9417 24.7848 9.9417 24.0779C9.9417 23.9896 9.9417 23.8128 9.9417 23.5477L11.3704 15.0984ZM9.17114 25.1786L9.13492 25.4142L8.97629 26.4464H8.23195H1.69758C1.19259 26.4464 0.785023 26.2337 0.475007 25.8083C0.158377 25.3739 0 24.797 0 24.0779C0 23.9783 0.00630582 23.8525 0.0189784 23.7009L0.0194116 23.701C0.0281279 23.5963 0.0421607 23.4625 0.0613241 23.3L0.0721422 23.2182L3.1854 4.37849H2.21004L2.57279 2.69214L2.73673 1.93002L2.93683 1H3.61806H10.1291C10.6307 1 11.0348 1.21638 11.3411 1.64728C11.4803 1.84327 11.5881 2.06778 11.6644 2.32035L11.7087 2.03227L11.8673 1H12.6117H19.1226C19.3512 1 19.5654 1.04898 19.765 1.14702C20.0148 1.26964 20.222 1.46274 20.3864 1.72625C20.6599 2.16494 20.7968 2.72353 20.7968 3.40168V3.45547L20.7859 3.5703L20.7391 4.06732L20.7316 4.14804L20.7247 4.18993L17.6331 23.0679H18.6102L18.2474 24.7543L18.0835 25.5164L17.8834 26.4464H17.2021H10.6912C10.1894 26.4464 9.78462 26.2294 9.47714 25.7955L9.47529 25.7981C9.34695 25.6165 9.24557 25.41 9.17114 25.1786ZM11.7439 4.37849L11.5467 5.53556L11.7252 5.1552L11.7361 5.13483L11.7622 5.08148C11.8697 4.86187 11.9715 4.65363 12.1015 4.37849H11.7439Z" fill="#0000FF"/>
<path fill-rule="evenodd" clip-rule="evenodd" d="M27.0855 23.5465L28.0223 17.8142H26.7576L25.9379 22.8176L25.9145 23.3478C25.9145 23.5907 25.9847 23.8227 26.1253 24.0436C26.2658 24.2645 26.4141 24.3749 26.5702 24.3749L26.4297 25.1371H20.5745C20.356 25.1371 20.1764 25.0487 20.0359 24.872C19.8953 24.6952 19.8251 24.4854 19.8251 24.2424L19.8953 23.541L22.1671 9.70164C22.1984 9.56914 22.214 9.43656 22.214 9.29855C22.214 9.16596 22.214 9.06661 22.214 9.00032C22.214 8.75728 22.1437 8.52533 22.0032 8.3045C21.8627 8.08358 21.7143 7.97313 21.5582 7.97313L21.6987 7.21102H27.5539C27.7725 7.21102 27.952 7.29935 28.0926 7.47611C28.2331 7.65277 28.3034 7.86818 28.3034 8.11114L28.2331 8.80703L27.4602 13.5067H28.7484L29.3573 9.70716C29.3886 9.57466 29.4041 9.44206 29.4041 9.30406C29.4041 9.17147 29.4041 9.07212 29.4041 9.00583C29.4041 8.76287 29.3339 8.53084 29.1934 8.3045C29.0528 8.08358 28.9045 7.97313 28.7484 7.97313L28.8889 7.21102H34.7441C34.9627 7.21102 35.1422 7.29935 35.2827 7.47611C35.4233 7.65277 35.4936 7.86267 35.4936 8.10563L35.4233 8.80703L33.1281 22.8121L33.1047 23.3478C33.1047 23.5907 33.1749 23.8227 33.3154 24.0436C33.456 24.2645 33.6043 24.3749 33.7604 24.3749L33.6199 25.1371H27.7647C27.5461 25.1371 27.3666 25.0487 27.2261 24.872C27.0855 24.6952 27.0153 24.4854 27.0153 24.2424L27.0855 23.5465ZM27.167 26.3044L27.141 26.4452H26.4297H20.5745C20.3668 26.4452 20.1659 26.3975 19.9725 26.3023C19.7651 26.2003 19.5813 26.0486 19.4218 25.848C19.2593 25.6436 19.1331 25.407 19.0434 25.1391C18.948 24.8543 18.9004 24.5554 18.9004 24.2424V24.1716L18.9112 24.0636L18.9815 23.3622L18.9877 23.2999L18.996 23.2498L21.2678 9.41041L21.2732 9.37744L21.2917 9.29855H21.2904C21.2898 9.30126 21.2893 9.30248 21.2893 9.29855V9.28132H20.3645L20.666 7.64603L20.8065 6.88393L20.9875 5.90283H21.6987H27.5539C27.7603 5.90283 27.9596 5.94971 28.1517 6.04364L28.1777 5.90283H28.8889H34.7441C34.9519 5.90283 35.1527 5.95041 35.3461 6.04574C35.5533 6.14771 35.737 6.2991 35.8968 6.50008C36.0592 6.70412 36.1853 6.94069 36.2752 7.20892C36.3706 7.4936 36.4182 7.79271 36.4182 8.10563V8.17647L36.4074 8.28447L36.3372 8.98589L36.3227 9.09827L34.0443 23.0008L34.0414 23.0668H34.9541L34.6526 24.702L34.5121 25.4641L34.3312 26.4452H33.6199H27.7647C27.5584 26.4452 27.3591 26.3982 27.167 26.3044ZM21.2917 9.29855L21.293 9.29287L21.2928 9.29277C21.2923 9.29417 21.2917 9.29566 21.2921 9.2926C21.2932 9.28237 21.2917 9.2933 21.2904 9.29855H21.2917ZM21.293 9.29287C21.2937 9.29016 21.2933 9.29146 21.2928 9.29277L21.293 9.29287Z" fill="#0000FF"/>
<path fill-rule="evenodd" clip-rule="evenodd" d="M37.3443 5.90283H46.1739C46.764 5.90283 47.2996 6.00892 47.7804 6.22162C48.2954 6.44944 48.7403 6.79621 49.1147 7.26253L49.1131 7.26507C49.491 7.73253 49.7765 8.26804 49.9692 8.86983C50.1633 9.47557 50.2604 10.1325 50.2604 10.8393C50.2604 10.9279 50.2551 11.0502 50.2444 11.2062C50.234 11.3569 50.2228 11.4814 50.2107 11.5777C50.1924 11.7251 50.2148 11.536 50.1749 11.8406C50.1708 11.8724 50.1607 11.9443 50.145 12.0557L50.1414 12.0966C50.0338 12.7469 49.8989 13.3211 49.7372 13.8178C49.5608 14.3585 49.3491 14.8127 49.1021 15.1791L49.1022 15.1792C49.0327 15.2828 48.9612 15.3809 48.8874 15.4734C48.9372 15.5679 48.9834 15.6649 49.0259 15.7646C49.174 16.1109 49.2851 16.4957 49.3591 16.9186C49.4291 17.3183 49.464 17.7386 49.464 18.1787C49.464 18.3753 49.4579 18.5768 49.4458 18.7829C49.4349 18.9685 49.4166 19.17 49.391 19.3874C49.3664 19.5964 49.3387 19.8111 49.3082 20.0291C49.2793 20.2359 49.2382 20.5153 49.1847 20.8684L49.1811 20.8837C49.0363 21.7935 48.8229 22.5939 48.5413 23.2843C48.2435 24.0148 47.8727 24.6155 47.4291 25.0861C46.9921 25.5497 46.4806 25.8948 45.8948 26.1208C45.3344 26.337 44.7168 26.4452 44.0426 26.4452H36.22C36.0123 26.4452 35.8114 26.3975 35.618 26.3023C35.4106 26.2003 35.2268 26.0486 35.0673 25.848C34.9048 25.6436 34.7786 25.407 34.6889 25.1391C34.5935 24.8543 34.5459 24.5554 34.5459 24.2424V24.1716L34.5567 24.0636L34.627 23.3622L34.6332 23.2999L34.6415 23.2498L36.9133 9.41041L36.9187 9.37744L36.9372 9.29855H36.936C36.9353 9.30126 36.9348 9.30248 36.9348 9.29855V9.28132H36.0099L36.3115 7.64603L36.4521 6.88393L36.6331 5.90283H37.3443ZM37.3443 7.21102H46.1739C47.1731 7.21102 47.9499 7.55342 48.5043 8.24373C49.0585 8.92852 49.3357 9.79557 49.3357 10.8393C49.3357 10.9939 49.324 11.1652 49.3005 11.3528C49.2771 11.5406 49.2576 11.6897 49.242 11.8002C49.0546 12.9323 48.7853 13.7607 48.434 14.2798C48.0827 14.8045 47.6728 15.1192 47.2044 15.2297C47.6884 15.561 48.0319 15.9641 48.2349 16.4391C48.4379 16.914 48.5394 17.4939 48.5394 18.1787C48.5394 18.51 48.5198 18.8414 48.4808 19.1728C48.4418 19.5041 48.3754 19.9791 48.2817 20.5976C48.0319 22.1659 47.5635 23.3146 46.8765 24.0436C46.1895 24.7725 45.2449 25.1371 44.0426 25.1371H36.22C36.0015 25.1371 35.8219 25.0487 35.6814 24.872C35.5409 24.6952 35.4706 24.4854 35.4706 24.2424L35.5409 23.541L37.8127 9.70164C37.8439 9.56914 37.8595 9.43656 37.8595 9.29855C37.8595 9.16596 37.8595 9.06661 37.8595 9.00032C37.8595 8.75728 37.7892 8.52533 37.6487 8.3045C37.5082 8.08358 37.3598 7.97313 37.2037 7.97313L37.3443 7.21102ZM44.2768 12.8329L44.4407 11.8941C44.5188 11.4246 44.4017 11.1872 44.0894 11.1872H43.34L42.9418 13.573H43.7381C44.0036 13.573 44.1831 13.3244 44.2768 12.8329ZM43.2229 19.2721L43.4337 18.013C43.5117 17.4828 43.4024 17.2178 43.1057 17.2178H42.3329L41.8879 20.0011H42.6373C42.8247 20.0011 42.9613 19.9404 43.0472 19.8189C43.133 19.6974 43.1917 19.5152 43.2229 19.2721ZM36.9372 9.29855L36.9385 9.29287L36.9383 9.29277C36.9378 9.29417 36.9372 9.29566 36.9376 9.2926C36.9387 9.28237 36.9372 9.2933 36.936 9.29855H36.9372ZM36.9385 9.29287C36.9392 9.29016 36.9388 9.29146 36.9383 9.29277L36.9385 9.29287Z" fill="#0000FF"/>
<path fill-rule="evenodd" clip-rule="evenodd" d="M56.9003 18.6929H58.7973C59.2336 18.6929 59.5459 18.6593 59.7342 18.5922H56.406L56.3929 18.6682C56.5296 18.6847 56.6987 18.6929 56.9003 18.6929ZM56.9003 20.0011H58.7973C59.4219 20.0011 59.8747 19.9238 60.1558 19.7692C60.4368 19.6145 60.6398 19.3163 60.7647 18.8746H61.3502L60.7647 22.2543C60.5773 23.3809 60.2416 24.143 59.7576 24.5406C59.2736 24.9383 58.5475 25.1371 57.5795 25.1371H52.6377C51.5135 25.1371 50.6898 24.7781 50.1668 24.0602C49.6437 23.3422 49.3822 22.2764 49.3822 20.8626C49.3822 19.9349 49.5071 18.742 49.7569 17.284L50.3424 13.9705C50.7328 11.7947 51.4237 10.1269 52.4151 8.96166C53.4066 7.79638 54.566 7.21102 55.8931 7.21102H58.4694C59.9528 7.21102 61.0379 7.55342 61.725 8.24373C62.4119 8.92852 62.7555 9.9502 62.7555 11.2977C62.7555 11.8333 62.693 12.474 62.5681 13.2306C62.2714 15.0474 61.9865 16.174 61.7132 16.6214C61.44 17.0631 60.8584 17.284 59.9684 17.284H55.6824L55.4716 18.51L55.4013 19.239C55.4013 19.5041 55.5185 19.6974 55.7526 19.8189C55.9869 19.9404 56.3694 20.0011 56.9003 20.0011ZM56.2211 13.9705H57.0174C57.314 13.9705 57.5092 13.6999 57.6029 13.1643L57.72 12.5236C57.7512 12.3911 57.7668 12.2365 57.7668 12.0543C57.7668 11.6952 57.5872 11.5186 57.2281 11.5186C56.9627 11.5186 56.7831 11.6014 56.6895 11.7725C56.5958 11.9383 56.5177 12.2144 56.4552 12.5954L56.2211 13.9705ZM62.3506 17.5664H62.5257L62.246 19.1812L61.6623 22.5501L61.6641 22.5507C61.5471 23.2543 61.3777 23.8578 61.1562 24.3607C60.9077 24.9249 60.5955 25.3615 60.2199 25.6699C59.8877 25.9428 59.4888 26.1432 59.0235 26.2706C58.5982 26.387 58.1168 26.4452 57.5795 26.4452H52.6377C51.9888 26.4452 51.4114 26.335 50.9059 26.1147C50.3526 25.8736 49.8918 25.5003 49.5239 24.9954C49.1597 24.4954 48.8876 23.879 48.7078 23.1465C48.541 22.4665 48.4575 21.705 48.4575 20.8626C48.4575 20.3416 48.4924 19.7483 48.5621 19.0831C48.6267 18.4658 48.7264 17.7638 48.8611 16.9774V16.9672L49.4466 13.6537C49.6625 12.4504 49.9666 11.3753 50.3587 10.4279C50.7581 9.46305 51.2474 8.64052 51.8264 7.96009C52.4095 7.27478 53.0412 6.76035 53.7212 6.41778C54.4022 6.07477 55.1262 5.90283 55.8931 5.90283H58.4694C59.2682 5.90283 59.9766 6.00044 60.5945 6.19608C61.2588 6.40642 61.8126 6.73324 62.2554 7.17674L62.2559 7.17569C62.7325 7.65067 63.0912 8.24591 63.3318 8.95904C63.564 9.64716 63.6801 10.4274 63.6801 11.2977C63.6801 11.607 63.6609 11.9592 63.6224 12.355C63.5857 12.7334 63.534 13.1237 63.4675 13.527L63.4667 13.5267C63.3085 14.4955 63.1538 15.2785 63.003 15.8767C62.823 16.5905 62.6254 17.1228 62.4103 17.4748L62.4067 17.4799C62.3886 17.5093 62.3698 17.5381 62.3506 17.5664Z" fill="#0000FF"/>
<path fill-rule="evenodd" clip-rule="evenodd" d="M69.8412 18.6929H71.9836C72.0474 18.6929 72.1053 18.6654 72.1569 18.6107C72.1957 18.5696 72.2254 18.5301 72.2457 18.4925C72.25 18.4847 72.2483 18.4983 72.2498 18.4913L72.4509 17.5664H73.1312H73.6464H74.8076L74.5458 19.1658L74.0305 22.3136L74.027 22.329C73.7568 23.9127 73.3456 24.9976 72.7938 25.5831C72.5002 25.8946 72.1418 26.1204 71.7188 26.2604C71.3462 26.3836 70.9191 26.4452 70.4378 26.4452H66.1986C65.5294 26.4452 64.9336 26.3322 64.4119 26.1064C63.8398 25.8587 63.3661 25.4772 62.9912 24.9622L62.9875 24.9571C62.6139 24.4399 62.336 23.7985 62.154 23.0313C61.9856 22.322 61.9014 21.5184 61.9014 20.6197C61.9014 20.0821 61.9304 19.4945 61.9883 18.8566C62.0452 18.2308 62.1262 17.6024 62.2311 16.9711L62.2319 16.9714L62.7698 13.6573L62.7713 13.6578C62.9645 12.4287 63.2574 11.3369 63.6497 10.382C64.0546 9.39624 64.5634 8.55454 65.1757 7.85628L65.176 7.8569C65.747 7.20324 66.3718 6.71408 67.05 6.38918C67.7274 6.06471 68.4507 5.90283 69.2199 5.90283H74.6535H75.8081L75.5529 7.49718L74.9908 11.0095L74.9836 11.0555C74.9075 11.4649 74.7685 11.8291 74.5669 12.147C74.3792 12.4433 74.15 12.6825 73.8798 12.8646C73.4255 13.1706 72.8636 13.3238 72.1943 13.3238H71.1638C70.9844 13.3238 70.8376 13.3865 70.7238 13.5117L70.7218 13.508C70.6792 13.5576 70.641 13.6243 70.6073 13.708C70.5613 13.8221 70.5247 13.9687 70.4976 14.1476L70.494 14.1629L69.8901 17.9255L69.8923 17.9261C69.875 18.0486 69.8648 18.127 69.8617 18.1619C69.8559 18.2259 69.8514 18.302 69.8482 18.3887C69.8448 18.48 69.8425 18.5814 69.8412 18.6929ZM69.6649 20.0011H71.9836C72.249 20.0011 72.491 19.8851 72.7096 19.6532C72.9282 19.4213 73.0687 19.1617 73.1312 18.8746H73.6464L73.1312 22.0223C72.9126 23.3036 72.6159 24.143 72.2412 24.5406C71.8664 24.9383 71.2653 25.1371 70.4378 25.1371H66.1986C65.0276 25.1371 64.1727 24.767 63.6341 24.027C63.0954 23.2815 62.826 22.1494 62.826 20.6197C62.826 19.6035 62.9275 18.488 63.1305 17.2675L63.6692 13.9485C64.0127 11.756 64.7075 10.0662 65.7536 8.87324C66.7217 7.76323 67.8771 7.21102 69.2199 7.21102H74.6535L74.0914 10.7233C74.0134 11.143 73.8104 11.4633 73.4825 11.6842C73.1546 11.9051 72.7252 12.0156 72.1943 12.0156H71.1638C70.7735 12.0156 70.4378 12.1702 70.1567 12.4795C69.8757 12.7942 69.6883 13.2581 69.5946 13.8767L68.9857 17.6706C68.9545 17.8915 68.9349 18.1124 68.9271 18.3223C68.9193 18.5322 68.9155 18.7254 68.9155 18.9021C68.9155 19.2114 68.9896 19.4765 69.1379 19.6863C69.2862 19.8962 69.4619 20.0011 69.6649 20.0011Z" fill="#0000FF"/>
<path fill-rule="evenodd" clip-rule="evenodd" d="M76.1757 5.90344H80.7897C81.1092 5.90344 81.4009 5.97673 81.6649 6.12454C81.9583 6.28861 82.2086 6.54092 82.4155 6.88244C82.467 6.96753 82.515 7.05605 82.5593 7.14779C82.6743 6.99492 82.7902 6.85647 82.907 6.73245L82.9074 6.73332C83.2174 6.4016 83.5566 6.1527 83.9251 5.98653C84.2926 5.82071 84.6762 5.73779 85.0757 5.73779H86.7854C88.0641 5.73779 88.9383 6.19082 89.4082 7.09662C89.5261 6.93929 89.6423 6.80172 89.7567 6.684L89.758 6.68654C90.3597 6.05422 91.0786 5.73779 91.9145 5.73779H93.1792C93.7264 5.73779 94.2037 5.78747 94.6109 5.88665C95.0728 5.99903 95.456 6.18383 95.7603 6.44043C96.1296 6.75178 96.4047 7.19056 96.5855 7.75614C96.7422 8.24687 96.8207 8.81657 96.8207 9.46481C96.8207 9.79776 96.7995 10.1676 96.7572 10.5736C96.7183 10.9468 96.6606 11.3505 96.5843 11.7844L94.7274 23.0157L94.7251 23.0674H95.6376L95.3361 24.7026L95.1956 25.4648L95.0147 26.4459H94.3035H88.8698C88.662 26.4459 88.4613 26.3981 88.2678 26.3029C88.2257 26.2822 88.1846 26.2595 88.1445 26.2347L88.1056 26.4459H87.3943H81.9607C81.753 26.4459 81.5521 26.3981 81.3587 26.3029C81.3092 26.2786 81.261 26.2514 81.2143 26.2214L81.1729 26.4459H80.4617H75.0282C74.8204 26.4459 74.6196 26.3981 74.4261 26.3029C74.2188 26.201 74.035 26.0492 73.8754 25.8486C73.7132 25.6443 73.5868 25.4078 73.4971 25.1397C73.4016 24.8549 73.354 24.556 73.354 24.2431V24.1722L73.3648 24.0642L73.4351 23.3628L73.4496 23.2504L75.7306 9.28193H74.9123L75.1557 7.69781L75.2728 6.93571L75.4313 5.90344H76.1757ZM76.1757 7.21163H80.7897C81.1956 7.21163 81.504 7.38279 81.7148 7.73069C81.9256 8.07869 82.031 8.53145 82.031 9.09477C82.031 9.31569 82.0231 9.48693 82.0076 9.5973H82.3354C82.7102 8.78001 83.0849 8.17253 83.4596 7.77495C83.9125 7.28895 84.4511 7.04599 85.0757 7.04599H86.7854C88.1906 7.04599 88.8932 7.7418 88.8932 9.13342C88.8932 9.33221 88.8854 9.48693 88.8698 9.5973H89.1509C89.5725 8.71371 89.955 8.09522 90.2985 7.7418C90.7357 7.27793 91.2744 7.04599 91.9145 7.04599H93.1792C94.1785 7.04599 94.8811 7.21714 95.2872 7.55953C95.6931 7.90193 95.8961 8.53705 95.8961 9.46481C95.8961 10.017 95.8258 10.6908 95.6853 11.486L93.8116 22.8182L93.7882 23.3484C93.7882 23.5913 93.8585 23.8233 93.999 24.0442C94.1395 24.2651 94.2878 24.3756 94.444 24.3756L94.3035 25.1377H88.8698C88.6512 25.1377 88.4717 25.0493 88.3311 24.8726C88.1906 24.6958 88.1204 24.486 88.1204 24.2431L88.1906 23.5472L89.9004 13.209C89.9316 13.0765 89.9472 12.8888 89.9472 12.6457C89.9472 12.1156 89.7442 11.8506 89.3383 11.8506C89.1509 11.8506 88.9792 11.9499 88.823 12.1487C88.6669 12.3476 88.5576 12.6568 88.4951 13.0765L86.9025 22.8182L86.8791 23.3484C86.8791 23.5913 86.9493 23.8233 87.0898 24.0442C87.2304 24.2651 87.3787 24.3756 87.5349 24.3756L87.3943 25.1377H81.9607C81.7421 25.1377 81.5625 25.0493 81.422 24.8726C81.2815 24.6958 81.2112 24.486 81.2112 24.2431L81.2815 23.5472L82.9912 13.1759C83.0068 13.0654 83.0185 12.9495 83.0264 12.828C83.0342 12.7065 83.0381 12.6237 83.0381 12.5795C83.0381 12.0935 82.8429 11.8506 82.4525 11.8506C82.2496 11.8506 82.0661 11.9389 81.9022 12.1156C81.7382 12.2923 81.625 12.6016 81.5625 13.0434L79.9699 22.8182L79.9465 23.3484C79.9465 23.5913 80.0168 23.8233 80.1573 24.0442C80.2978 24.2651 80.4462 24.3756 80.6023 24.3756L80.4617 25.1377H75.0282C74.8096 25.1377 74.63 25.0493 74.4895 24.8726C74.349 24.6958 74.2787 24.486 74.2787 24.2431L74.349 23.5416L76.691 9.19972L76.7144 8.70269C76.7144 8.48178 76.6442 8.30512 76.5037 8.17253C76.3631 8.04003 76.2148 7.97374 76.0587 7.97374L76.1757 7.21163Z" fill="#0000FF"/>
<path fill-rule="evenodd" clip-rule="evenodd" d="M98.1626 17.4156V15.3835V15.0711C98.1626 14.7824 98.3966 14.5483 98.6854 14.5483H104.182C104.471 14.5483 104.705 14.7824 104.705 15.0711V15.3835V17.4156V17.728C104.705 18.0167 104.471 18.2507 104.182 18.2507H98.6854C98.3966 18.2507 98.1626 18.0167 98.1626 17.728V17.4156ZM99.7014 17.4156C99.1402 17.4156 98.6854 16.9607 98.6854 16.3995C98.6854 15.8384 99.1402 15.3835 99.7014 15.3835H103.166C103.727 15.3835 104.182 15.8384 104.182 16.3995C104.182 16.9607 103.727 17.4156 103.166 17.4156H99.7014Z" fill="#FEFEFE"/>
<path d="M99.1978 17.4686C98.9216 17.4686 98.6978 17.2447 98.6978 16.9686V15.9365C98.6978 15.6604 98.9216 15.4365 99.1978 15.4365H103.695C103.971 15.4365 104.195 15.6604 104.195 15.9365V16.9686C104.195 17.2447 103.971 17.4686 103.695 17.4686H99.1978Z" fill="#0000FF"/>
<path d="M106.847 2.73548H116.425C116.675 2.73548 116.917 2.65816 117.152 2.50905C117.386 2.35993 117.534 2.15013 117.597 1.87402H118.135L117.198 6.97114C117.042 7.68357 116.582 8.03699 115.817 8.03699H114.435L111.812 23.776C111.78 23.9969 111.851 24.2233 112.022 24.4552C112.194 24.6872 112.366 24.8031 112.538 24.8031L112.374 25.5653H105.863C105.363 25.5653 105.113 25.2118 105.113 24.5049C105.113 24.4166 105.129 24.2398 105.16 23.9803L107.807 8.03699H106.191C105.941 8.03699 105.734 8.1143 105.57 8.27453C105.406 8.43466 105.293 8.64447 105.23 8.89853H104.645L105.582 3.62466C105.644 3.31533 105.769 3.09449 105.957 2.95089C106.144 2.80728 106.441 2.73548 106.847 2.73548Z" fill="white"/>
<path d="M124.811 9.25231L124.67 10.0586H124.951C125.42 9.15297 125.802 8.53438 126.099 8.20309C126.552 7.71708 127.129 7.47412 127.832 7.47412H128.956C129.893 7.47412 130.568 7.79991 130.982 8.45155C131.396 9.1032 131.603 10.0807 131.603 11.384C131.603 12.3118 131.493 13.4493 131.275 14.7969L130.619 18.7399C130.135 21.6115 129.542 23.4892 128.839 24.3728C128.199 25.168 127.067 25.5656 125.443 25.5656H122.141L121.649 28.6803L121.625 29.2104C121.625 29.4534 121.696 29.6853 121.836 29.9062C121.977 30.1272 122.125 30.2376 122.281 30.2376L122.141 30.9997H116.286C116.067 30.9997 115.887 30.9113 115.747 30.7346C115.606 30.5579 115.536 30.348 115.536 30.105L115.606 29.4092L118.745 10.1249C118.776 9.99239 118.792 9.8598 118.792 9.7273C118.792 9.59472 118.792 9.49536 118.792 9.42907C118.792 9.18602 118.721 8.95409 118.581 8.73326C118.44 8.51234 118.292 8.40187 118.136 8.40187L118.276 7.63977H124.131C124.35 7.63977 124.53 7.72811 124.67 7.91037C124.811 8.08712 124.881 8.30243 124.881 8.54548L124.811 9.25231ZM124.108 13.4714L122.867 21.0593H123.686C124.108 21.0593 124.373 20.7279 124.483 20.0653L125.513 13.7697C125.544 13.6371 125.56 13.4273 125.56 13.1401C125.56 12.6984 125.381 12.4775 125.021 12.4775H124.928C124.694 12.4775 124.51 12.5658 124.377 12.7425C124.245 12.9192 124.155 13.1622 124.108 13.4714Z" fill="white"/>
<path d="M139.144 20.4301H141.041C141.666 20.4301 142.118 20.3528 142.399 20.1982C142.68 20.0436 142.883 19.7453 143.008 19.3036H143.594L143.008 22.6832C142.821 23.8098 142.485 24.5719 142.001 24.9695C141.517 25.3672 140.791 25.566 139.823 25.566H134.881C133.757 25.566 132.934 25.2071 132.411 24.4891C131.888 23.7712 131.626 22.7053 131.626 21.2916C131.626 20.3639 131.751 19.171 132.001 17.7131L132.586 14.3996C132.977 12.2238 133.667 10.556 134.659 9.39078C135.65 8.22549 136.81 7.64014 138.137 7.64014H140.713C142.196 7.64014 143.282 7.98253 143.969 8.67284C144.656 9.35763 144.999 10.3793 144.999 11.7268C144.999 12.2624 144.937 12.903 144.812 13.6596C144.515 15.4764 144.23 16.6031 143.957 17.0504C143.684 17.4922 143.102 17.7131 142.212 17.7131H137.926L137.715 18.9391L137.645 19.668C137.645 19.9331 137.762 20.1264 137.996 20.2479C138.231 20.3694 138.613 20.4301 139.144 20.4301ZM138.465 14.3996H139.261C139.558 14.3996 139.753 14.129 139.847 13.5933L139.964 12.9527C139.995 12.8202 140.01 12.6656 140.01 12.4834C140.01 12.1244 139.831 11.9477 139.472 11.9477C139.206 11.9477 139.027 12.0305 138.933 12.2017C138.839 12.3674 138.761 12.6435 138.699 13.0245L138.465 14.3996Z" fill="white"/>
<path d="M152.658 20.0603L154.297 10.1309C154.329 9.99838 154.344 9.86579 154.344 9.73329C154.344 9.60071 154.344 9.50135 154.344 9.42955C154.344 9.1865 154.274 8.95457 154.133 8.73374C153.993 8.51282 153.845 8.40236 153.689 8.40236L153.829 7.64025H159.684C159.903 7.64025 160.082 7.72858 160.223 7.90533C160.363 8.082 160.434 8.2919 160.434 8.53486L160.363 9.23076L158.068 23.2135L158.021 23.9591C158.021 24.1855 158.095 24.3788 158.244 24.5499C158.392 24.7212 158.544 24.804 158.701 24.804L158.583 25.5661H153.314C152.923 25.5661 152.635 25.4446 152.447 25.2016C152.26 24.9586 152.166 24.6384 152.166 24.2407C152.166 24.0419 152.213 23.6995 152.307 23.2135H152.026C151.62 24.1192 151.253 24.7377 150.925 25.0691C150.472 25.533 149.879 25.7649 149.145 25.7649H147.365C146.491 25.7649 145.866 25.5606 145.491 25.1519C145.117 24.7432 144.929 24.1137 144.929 23.2743C144.929 22.722 144.984 22.1476 145.093 21.5458L146.967 10.1309C146.998 9.99838 147.014 9.86579 147.014 9.72778C147.014 9.5952 147.014 9.49584 147.014 9.42955C147.014 9.1865 146.943 8.95457 146.803 8.73374C146.662 8.51282 146.514 8.40236 146.358 8.40236L146.498 7.64025H152.353C152.572 7.64025 152.752 7.72858 152.892 7.90533C153.033 8.082 153.103 8.2919 153.103 8.53486L153.033 9.23627L151.253 20.1652C151.221 20.4302 151.206 20.6069 151.206 20.6952C151.206 21.0708 151.401 21.2586 151.791 21.2586C152.041 21.2586 152.233 21.1536 152.365 20.9438C152.498 20.7339 152.596 20.4413 152.658 20.0603ZM157.529 5.91725H150.855C150.605 5.91725 150.398 5.83434 150.234 5.6687C150.07 5.50305 149.988 5.22135 149.988 4.82385L150.035 4.26053L150.293 2.73633H156.991C157.568 2.73633 157.857 3.07872 157.857 3.76351L157.81 4.29368L157.529 5.91725Z" fill="white"/>
<path d="M166.475 7.64014H172.729C173.478 7.64014 174.044 7.87208 174.427 8.34146C174.809 8.80534 175 9.44597 175 10.2689C175 10.4455 175 10.6113 175 10.7659C174.954 11.031 174.922 11.2353 174.907 11.3678L172.822 24.0749C172.354 26.8693 171.675 28.7358 170.785 29.6802C169.957 30.5582 168.583 31.0001 166.663 31.0001H161.768C160.987 31.0001 160.386 30.8012 159.964 30.4036C159.543 30.006 159.332 29.3543 159.332 28.4487C159.332 28.0511 159.379 27.5982 159.473 27.0902L159.964 24.3069H160.503C160.581 24.7929 160.726 25.1463 160.936 25.3672C161.147 25.5881 161.502 25.6985 162.002 25.6985H164.836C165.507 25.6985 166.011 25.5052 166.346 25.1186C166.682 24.7321 166.912 24.1081 167.037 23.2465L167.201 22.1862H166.827C166.483 23.0256 166.101 23.5669 165.679 23.8098C165.367 23.9866 164.797 24.0749 163.969 24.0749H162.798C161.159 24.0749 160.339 22.8268 160.339 20.3253C160.339 19.2594 160.464 18.0223 160.714 16.6031L161.182 13.8805C161.557 11.6218 162.275 9.97613 163.337 8.93241C164.211 8.07086 165.257 7.64014 166.475 7.64014ZM167.74 18.9667L168.888 11.9477H168.279H168.068C167.88 11.9477 167.713 12.0305 167.564 12.1962C167.416 12.3619 167.311 12.6215 167.248 12.9803L166.335 18.6685C166.304 18.8011 166.288 19.0109 166.288 19.3036C166.288 19.7453 166.467 19.9662 166.827 19.9662H166.92C167.154 19.9662 167.338 19.8779 167.471 19.7012C167.603 19.5245 167.693 19.2759 167.74 18.9667Z" fill="white"/>
<path d="M106.847 2.73548H116.425C116.675 2.73548 116.917 2.65816 117.152 2.50905C117.386 2.35993 117.534 2.15013 117.597 1.87402H118.135L117.198 6.97114C117.042 7.68357 116.582 8.03699 115.817 8.03699H114.435L111.812 23.776C111.78 23.9969 111.851 24.2233 112.022 24.4552C112.194 24.6872 112.366 24.8031 112.538 24.8031L112.374 25.5653H105.863C105.363 25.5653 105.113 25.2118 105.113 24.5049C105.113 24.4166 105.129 24.2398 105.16 23.9803L107.807 8.03699H106.191C105.941 8.03699 105.734 8.1143 105.57 8.27453C105.406 8.43466 105.293 8.64447 105.23 8.89853H104.645L105.582 3.62466C105.644 3.31533 105.769 3.09449 105.957 2.95089C106.144 2.80728 106.441 2.73548 106.847 2.73548V2.73548Z" stroke="white" stroke-width="2.06" stroke-miterlimit="22.9256" stroke-linejoin="round"/>
<path d="M124.811 9.25231L124.67 10.0586H124.951C125.42 9.15297 125.802 8.53438 126.099 8.20309C126.552 7.71708 127.129 7.47412 127.832 7.47412H128.956C129.893 7.47412 130.568 7.79991 130.982 8.45155C131.396 9.1032 131.603 10.0807 131.603 11.384C131.603 12.3118 131.493 13.4493 131.275 14.7969L130.619 18.7399C130.135 21.6115 129.542 23.4892 128.839 24.3728C128.199 25.168 127.067 25.5656 125.443 25.5656H122.141L121.649 28.6803L121.625 29.2104C121.625 29.4534 121.696 29.6853 121.836 29.9062C121.977 30.1272 122.125 30.2376 122.281 30.2376L122.141 30.9997H116.286C116.067 30.9997 115.887 30.9113 115.747 30.7346C115.606 30.5579 115.536 30.348 115.536 30.105L115.606 29.4092L118.745 10.1249C118.776 9.99239 118.792 9.8598 118.792 9.7273C118.792 9.59472 118.792 9.49536 118.792 9.42907C118.792 9.18602 118.721 8.95409 118.581 8.73326C118.44 8.51234 118.292 8.40187 118.136 8.40187L118.276 7.63977H124.131C124.35 7.63977 124.53 7.72811 124.67 7.91037C124.811 8.08712 124.881 8.30243 124.881 8.54548L124.811 9.25231V9.25231ZM124.108 13.4714L122.867 21.0593H123.686C124.108 21.0593 124.373 20.7279 124.483 20.0653L125.513 13.7697C125.544 13.6371 125.56 13.4273 125.56 13.1401C125.56 12.6984 125.381 12.4775 125.021 12.4775H124.928C124.694 12.4775 124.51 12.5658 124.377 12.7425C124.245 12.9192 124.155 13.1622 124.108 13.4714V13.4714Z" stroke="white" stroke-width="2.06" stroke-miterlimit="22.9256" stroke-linejoin="round"/>
<path d="M139.144 20.4301H141.041C141.666 20.4301 142.118 20.3528 142.399 20.1982C142.68 20.0436 142.883 19.7453 143.008 19.3036H143.594L143.008 22.6832C142.821 23.8098 142.485 24.5719 142.001 24.9695C141.517 25.3672 140.791 25.566 139.823 25.566H134.881C133.757 25.566 132.934 25.2071 132.411 24.4891C131.888 23.7712 131.626 22.7053 131.626 21.2916C131.626 20.3639 131.751 19.171 132.001 17.7131L132.586 14.3996C132.977 12.2238 133.667 10.556 134.659 9.39078C135.65 8.22549 136.81 7.64014 138.137 7.64014H140.713C142.196 7.64014 143.282 7.98253 143.969 8.67284C144.656 9.35763 144.999 10.3793 144.999 11.7268C144.999 12.2624 144.937 12.903 144.812 13.6596C144.515 15.4764 144.23 16.6031 143.957 17.0504C143.684 17.4922 143.102 17.7131 142.212 17.7131H137.926L137.715 18.9391L137.645 19.668C137.645 19.9331 137.762 20.1264 137.996 20.2479C138.231 20.3694 138.613 20.4301 139.144 20.4301V20.4301ZM138.465 14.3996H139.261C139.558 14.3996 139.753 14.129 139.847 13.5933L139.964 12.9527C139.995 12.8202 140.01 12.6656 140.01 12.4834C140.01 12.1244 139.831 11.9477 139.472 11.9477C139.206 11.9477 139.027 12.0305 138.933 12.2017C138.839 12.3674 138.761 12.6435 138.699 13.0245L138.465 14.3996V14.3996Z" stroke="white" stroke-width="2.06" stroke-miterlimit="22.9256" stroke-linejoin="round"/>
<path d="M152.658 20.0603L154.297 10.1309C154.329 9.99838 154.344 9.86579 154.344 9.73329C154.344 9.60071 154.344 9.50135 154.344 9.42955C154.344 9.1865 154.274 8.95457 154.133 8.73374C153.993 8.51282 153.845 8.40236 153.689 8.40236L153.829 7.64025H159.684C159.903 7.64025 160.082 7.72858 160.223 7.90533C160.363 8.082 160.434 8.2919 160.434 8.53486L160.363 9.23076L158.068 23.2135L158.021 23.9591C158.021 24.1855 158.095 24.3788 158.244 24.5499C158.392 24.7212 158.544 24.804 158.701 24.804L158.583 25.5661H153.314C152.923 25.5661 152.635 25.4446 152.447 25.2016C152.26 24.9586 152.166 24.6384 152.166 24.2407C152.166 24.0419 152.213 23.6995 152.307 23.2135H152.026C151.62 24.1192 151.253 24.7377 150.925 25.0691C150.472 25.533 149.879 25.7649 149.145 25.7649H147.365C146.491 25.7649 145.866 25.5606 145.491 25.1519C145.117 24.7432 144.929 24.1137 144.929 23.2743C144.929 22.722 144.984 22.1476 145.093 21.5458L146.967 10.1309C146.998 9.99838 147.014 9.86579 147.014 9.72778C147.014 9.5952 147.014 9.49584 147.014 9.42955C147.014 9.1865 146.943 8.95457 146.803 8.73374C146.662 8.51282 146.514 8.40236 146.358 8.40236L146.498 7.64025H152.353C152.572 7.64025 152.752 7.72858 152.892 7.90533C153.033 8.082 153.103 8.2919 153.103 8.53486L153.033 9.23627L151.253 20.1652C151.221 20.4302 151.206 20.6069 151.206 20.6952C151.206 21.0708 151.401 21.2586 151.791 21.2586C152.041 21.2586 152.233 21.1536 152.365 20.9438C152.498 20.7339 152.596 20.4413 152.658 20.0603V20.0603ZM157.529 5.91725H150.855C150.605 5.91725 150.398 5.83434 150.234 5.6687C150.07 5.50305 149.988 5.22135 149.988 4.82385L150.035 4.26053L150.293 2.73633H156.991C157.568 2.73633 157.857 3.07872 157.857 3.76351L157.81 4.29368L157.529 5.91725Z" stroke="white" stroke-width="2.06" stroke-miterlimit="22.9256" stroke-linejoin="round"/>
<path d="M166.475 7.64014H172.729C173.478 7.64014 174.044 7.87208 174.427 8.34146C174.809 8.80534 175 9.44597 175 10.2689C175 10.4455 175 10.6113 175 10.7659C174.954 11.031 174.922 11.2353 174.907 11.3678L172.822 24.0749C172.354 26.8693 171.675 28.7358 170.785 29.6802C169.957 30.5582 168.583 31.0001 166.663 31.0001H161.768C160.987 31.0001 160.386 30.8012 159.964 30.4036C159.543 30.006 159.332 29.3543 159.332 28.4487C159.332 28.0511 159.379 27.5982 159.473 27.0902L159.964 24.3069H160.503C160.581 24.7929 160.726 25.1463 160.936 25.3672C161.147 25.5881 161.502 25.6985 162.002 25.6985H164.836C165.507 25.6985 166.011 25.5052 166.346 25.1186C166.682 24.7321 166.912 24.1081 167.037 23.2465L167.201 22.1862H166.827C166.483 23.0256 166.101 23.5669 165.679 23.8098C165.367 23.9866 164.797 24.0749 163.969 24.0749H162.798C161.159 24.0749 160.339 22.8268 160.339 20.3253C160.339 19.2594 160.464 18.0223 160.714 16.6031L161.182 13.8805C161.557 11.6218 162.275 9.97613 163.337 8.93241C164.211 8.07086 165.257 7.64014 166.475 7.64014ZM167.74 18.9667L168.888 11.9477H168.279H168.068C167.88 11.9477 167.713 12.0305 167.564 12.1962C167.416 12.3619 167.311 12.6215 167.248 12.9803L166.335 18.6685C166.304 18.8011 166.288 19.0109 166.288 19.3036C166.288 19.7453 166.467 19.9662 166.827 19.9662H166.92C167.154 19.9662 167.338 19.8779 167.471 19.7012C167.603 19.5245 167.693 19.2759 167.74 18.9667V18.9667Z" stroke="white" stroke-width="2.06" stroke-miterlimit="22.9256" stroke-linejoin="round"/>
<path d="M106.352 1.86146H115.931C116.181 1.86146 116.423 1.78415 116.657 1.63503C116.891 1.48592 117.04 1.2761 117.102 1H117.641L116.704 6.09721C116.548 6.80964 116.087 7.16306 115.322 7.16306H113.94L111.317 22.902C111.286 23.123 111.356 23.3494 111.528 23.5813C111.7 23.8132 111.871 23.9291 112.043 23.9291L111.879 24.6912H105.368C104.869 24.6912 104.619 24.3378 104.619 23.631C104.619 23.5427 104.634 23.3659 104.666 23.1063L107.312 7.16306H105.696C105.446 7.16306 105.239 7.24037 105.076 7.4006C104.912 7.56073 104.798 7.77054 104.736 8.0246H104.15L105.087 2.75065C105.15 2.44131 105.275 2.22048 105.462 2.07687C105.649 1.93327 105.946 1.86146 106.352 1.86146Z" fill="#0000FF"/>
<path d="M124.316 8.3782L124.176 9.18447H124.457C124.925 8.27885 125.308 7.66035 125.604 7.32906C126.057 6.84306 126.635 6.6001 127.337 6.6001H128.461C129.398 6.6001 130.074 6.92588 130.487 7.57753C130.901 8.22909 131.108 9.20661 131.108 10.5099C131.108 11.4377 130.999 12.5753 130.78 13.9228L130.124 17.8658C129.64 20.7375 129.047 22.6152 128.344 23.4988C127.704 24.2939 126.572 24.6915 124.948 24.6915H121.646L121.154 27.8062L121.131 28.3364C121.131 28.5794 121.201 28.8113 121.342 29.0322C121.482 29.2531 121.63 29.3636 121.787 29.3636L121.646 30.1257H115.791C115.572 30.1257 115.393 30.0373 115.252 29.8606C115.112 29.6839 115.042 29.474 115.042 29.231L115.112 28.5352L118.25 9.25077C118.281 9.11827 118.297 8.98568 118.297 8.85318C118.297 8.7206 118.297 8.62125 118.297 8.55496C118.297 8.31191 118.227 8.07998 118.086 7.85923C117.946 7.63831 117.797 7.52785 117.641 7.52785L117.782 6.76575H123.637C123.855 6.76575 124.035 6.85408 124.176 7.03634C124.316 7.2131 124.386 7.42841 124.386 7.67145L124.316 8.3782ZM123.613 12.5974L122.372 20.1853H123.192C123.613 20.1853 123.879 19.8539 123.988 19.1912L125.019 12.8957C125.05 12.7631 125.065 12.5533 125.065 12.266C125.065 11.8243 124.886 11.6034 124.527 11.6034H124.433C124.199 11.6034 124.016 11.6917 123.883 11.8685C123.75 12.0451 123.66 12.2882 123.613 12.5974Z" fill="#0000FF"/>
<path d="M138.649 19.555H140.546C141.171 19.555 141.624 19.4777 141.905 19.3231C142.186 19.1685 142.389 18.8702 142.514 18.4285H143.099L142.514 21.8082C142.326 22.9348 141.991 23.6969 141.507 24.0944C141.023 24.4921 140.297 24.6909 139.329 24.6909H134.387C133.263 24.6909 132.439 24.332 131.916 23.6141C131.393 22.8962 131.131 21.8303 131.131 20.4166C131.131 19.4888 131.256 18.2959 131.506 16.838L132.092 13.5246C132.482 11.3487 133.173 9.68089 134.164 8.51569C135.156 7.35049 136.315 6.76514 137.642 6.76514H140.219C141.702 6.76514 142.787 7.10753 143.474 7.79784C144.161 8.48254 144.504 9.50422 144.504 10.8517C144.504 11.3874 144.442 12.028 144.317 12.7846C144.02 14.6014 143.736 15.7281 143.462 16.1753C143.189 16.6171 142.607 16.838 141.717 16.838H137.431L137.221 18.064L137.15 18.7929C137.15 19.058 137.268 19.2513 137.502 19.3729C137.736 19.4943 138.118 19.555 138.649 19.555ZM137.97 13.5246H138.766C139.063 13.5246 139.258 13.254 139.352 12.7183L139.469 12.0777C139.5 11.9452 139.516 11.7905 139.516 11.6083C139.516 11.2493 139.336 11.0726 138.977 11.0726C138.712 11.0726 138.532 11.1554 138.439 11.3266C138.345 11.4923 138.267 11.7684 138.204 12.1495L137.97 13.5246Z" fill="#0000FF"/>
<path d="M152.163 19.1848L153.802 9.25539C153.833 9.12289 153.849 8.9903 153.849 8.85781C153.849 8.72522 153.849 8.62587 153.849 8.55407C153.849 8.31102 153.779 8.07909 153.638 7.85835C153.498 7.63743 153.349 7.52696 153.193 7.52696L153.334 6.76486H159.189C159.408 6.76486 159.587 6.85319 159.728 7.02994C159.868 7.2066 159.938 7.41651 159.938 7.65946L159.868 8.35527L157.573 22.3381L157.526 23.0837C157.526 23.3101 157.6 23.5034 157.749 23.6745C157.897 23.8457 158.049 23.9285 158.205 23.9285L158.088 24.6906H152.819C152.428 24.6906 152.139 24.5691 151.952 24.3261C151.765 24.0831 151.671 23.7629 151.671 23.3653C151.671 23.1665 151.718 22.8241 151.812 22.3381H151.531C151.125 23.2438 150.758 23.8622 150.43 24.1936C149.977 24.6575 149.384 24.8894 148.65 24.8894H146.87C145.995 24.8894 145.371 24.6851 144.996 24.2764C144.621 23.8677 144.434 23.2383 144.434 22.3989C144.434 21.8466 144.489 21.2723 144.598 20.6704L146.472 9.25539C146.503 9.12289 146.518 8.9903 146.518 8.8523C146.518 8.71971 146.518 8.62036 146.518 8.55407C146.518 8.31102 146.448 8.07909 146.308 7.85835C146.167 7.63743 146.019 7.52696 145.863 7.52696L146.003 6.76486H151.858C152.077 6.76486 152.256 6.85319 152.397 7.02994C152.538 7.2066 152.608 7.41651 152.608 7.65946L152.538 8.36078L150.758 19.2897C150.726 19.5548 150.711 19.7315 150.711 19.8198C150.711 20.1954 150.906 20.3832 151.296 20.3832C151.546 20.3832 151.737 20.2782 151.87 20.0684C152.003 19.8585 152.1 19.5659 152.163 19.1848ZM157.034 5.04186H150.359C150.11 5.04186 149.903 4.95895 149.739 4.7933C149.575 4.62766 149.493 4.34595 149.493 3.94837L149.54 3.38505L149.797 1.86084H156.496C157.073 1.86084 157.362 2.20324 157.362 2.88803L157.315 3.4182L157.034 5.04186Z" fill="#0000FF"/>
<path d="M165.981 6.76514H172.234C172.984 6.76514 173.55 6.99708 173.932 7.46646C174.315 7.93034 174.506 8.57087 174.506 9.39376C174.506 9.57043 174.506 9.73616 174.506 9.89078C174.459 10.1559 174.428 10.3602 174.413 10.4928L172.328 23.1999C171.86 25.9942 171.181 27.8608 170.291 28.8052C169.463 29.6832 168.089 30.1251 166.169 30.1251H161.274C160.493 30.1251 159.892 29.9262 159.47 29.5286C159.049 29.131 158.838 28.4793 158.838 27.5737C158.838 27.176 158.885 26.7232 158.978 26.2151L159.47 23.4319H160.009C160.087 23.9178 160.231 24.2712 160.442 24.4921C160.653 24.713 161.008 24.8234 161.508 24.8234H164.342C165.013 24.8234 165.517 24.6301 165.852 24.2436C166.188 23.857 166.418 23.2331 166.543 22.3715L166.707 21.3112H166.332C165.989 22.1506 165.606 22.6919 165.185 22.9348C164.873 23.1116 164.303 23.1999 163.475 23.1999H162.304C160.665 23.1999 159.845 21.9518 159.845 19.4502C159.845 18.3843 159.97 17.1472 160.22 15.7281L160.688 13.0055C161.063 10.7467 161.781 9.10104 162.843 8.05732C163.717 7.19587 164.763 6.76514 165.981 6.76514ZM167.246 18.0916L168.394 11.0726H167.785H167.574C167.386 11.0726 167.219 11.1554 167.07 11.3211C166.922 11.4868 166.817 11.7464 166.754 12.1053L165.841 17.7934C165.809 17.926 165.794 18.1358 165.794 18.4285C165.794 18.8702 165.973 19.0912 166.332 19.0912H166.426C166.66 19.0912 166.844 19.0028 166.977 18.8261C167.109 18.6494 167.199 18.4009 167.246 18.0916Z" fill="#0000FF"/>
</svg>
