<svg  viewBox="0 0 24 25" fill="none" xmlns="http://www.w3.org/2000/svg">
<path d="M16.6667 12.5232C16.6667 15.3926 14.5792 17.715 12 17.715C9.42083 17.715 7.33333 15.3926 7.33333 12.5232C7.33333 9.65386 9.42083 7.33146 12 7.33146C14.5792 7.33146 16.6667 9.65386 16.6667 12.5232ZM11.3333 11.0399V14.0066H11C10.6333 14.0066 10.3333 14.3404 10.3333 14.7483C10.3333 15.1562 10.6333 15.49 11 15.49H13C13.3667 15.49 13.6667 15.1562 13.6667 14.7483C13.6667 14.3404 13.3667 14.0066 13 14.0066H12.6667V10.2982C12.6667 9.89027 12.3667 9.55651 12 9.55651H11.3333C10.9667 9.55651 10.6667 9.89027 10.6667 10.2982C10.6667 10.7061 10.9667 11.0399 11.3333 11.0399ZM0 6.58978C0 4.95112 1.19375 3.62305 2.66667 3.62305H21.3333C22.8042 3.62305 24 4.95112 24 6.58978V18.4567C24 20.0931 22.8042 21.4235 21.3333 21.4235H2.66667C1.19375 21.4235 0 20.0931 0 18.4567V6.58978ZM2 8.81483V16.2317C3.47292 16.2317 4.66667 17.5621 4.66667 19.1984H19.3333C19.3333 17.5621 20.5292 16.2317 22 16.2317V8.81483C20.5292 8.81483 19.3333 7.48444 19.3333 5.8481H4.66667C4.66667 7.48444 3.47292 8.81483 2 8.81483Z" fill="currentColor"/>
</svg>
