<svg viewBox="0 0 24 25" fill="none" xmlns="http://www.w3.org/2000/svg">
<path fill-rule="evenodd" clip-rule="evenodd" d="M12.0199 3.78027C9.76139 3.78027 7.70339 4.518 6.48589 5.12074C6.37589 5.17513 6.27339 5.22853 6.17789 5.27996C5.98889 5.38182 5.82789 5.47675 5.69989 5.56031L7.08489 7.5767L7.73689 7.83333C10.2849 9.10457 13.7019 9.10457 16.2504 7.83333L16.9904 7.45358L18.3004 5.56031C18.029 5.38527 17.7468 5.22723 17.4554 5.08712C16.2444 4.49081 14.2359 3.78027 12.0199 3.78027ZM8.79839 6.06268C8.30795 5.97192 7.82355 5.85171 7.34789 5.70272C8.48839 5.20183 10.1884 4.67029 12.0194 4.67029C13.2879 4.67029 14.4874 4.92543 15.4794 5.24881C14.3169 5.41049 13.0764 5.68492 11.8944 6.02263C10.9644 6.28865 9.87739 6.25997 8.79839 6.06268ZM16.7784 8.5666L16.6559 8.62792C13.8524 10.0262 10.1344 10.0262 7.33089 8.62792L7.21489 8.56957C3.00389 13.1388 -0.211112 21.5792 12.0199 21.5792C24.2499 21.5792 20.9564 12.9811 16.7784 8.5666ZM11.4999 12.6805C11.2347 12.6805 10.9803 12.7847 10.7928 12.9701C10.6052 13.1556 10.4999 13.4071 10.4999 13.6694C10.4999 13.9317 10.6052 14.1832 10.7928 14.3687C10.9803 14.5541 11.2347 14.6583 11.4999 14.6583V12.6805ZM12.4999 11.6916V11.1971H11.4999V11.6916C10.9695 11.6916 10.4607 11.8999 10.0857 12.2709C9.7106 12.6418 9.49989 13.1448 9.49989 13.6694C9.49989 14.1939 9.7106 14.697 10.0857 15.0679C10.4607 15.4388 10.9695 15.6472 11.4999 15.6472V17.625C11.2931 17.6251 11.0913 17.5617 10.9225 17.4437C10.7536 17.3256 10.6259 17.1587 10.5569 16.9659C10.5127 16.8423 10.4207 16.741 10.3011 16.6844C10.1814 16.6279 10.0439 16.6206 9.91889 16.6643C9.79384 16.708 9.69145 16.799 9.63425 16.9173C9.57705 17.0356 9.56973 17.1716 9.61389 17.2952C9.75181 17.6809 10.0072 18.0148 10.345 18.251C10.6827 18.4871 11.0862 18.6139 11.4999 18.6139V19.1084H12.4999V18.6139C13.0303 18.6139 13.539 18.4056 13.9141 18.0347C14.2892 17.6637 14.4999 17.1607 14.4999 16.6361C14.4999 16.1116 14.2892 15.6085 13.9141 15.2376C13.539 14.8667 13.0303 14.6583 12.4999 14.6583V12.6805C12.9349 12.6805 13.3054 12.9549 13.4434 13.3396C13.4639 13.4025 13.4969 13.4608 13.5405 13.5109C13.5842 13.5609 13.6375 13.6019 13.6974 13.6312C13.7573 13.6606 13.8226 13.6777 13.8893 13.6817C13.956 13.6857 14.0229 13.6764 14.0859 13.6544C14.149 13.6323 14.2069 13.598 14.2563 13.5535C14.3057 13.5089 14.3455 13.455 14.3735 13.395C14.4015 13.3349 14.417 13.27 14.4191 13.2039C14.4212 13.1378 14.4099 13.072 14.3859 13.0103C14.248 12.6246 13.9925 12.2907 13.6548 12.0546C13.317 11.8184 12.9135 11.6916 12.4999 11.6916ZM12.4999 15.6472V17.625C12.7651 17.625 13.0195 17.5208 13.207 17.3354C13.3945 17.1499 13.4999 16.8984 13.4999 16.6361C13.4999 16.3738 13.3945 16.1223 13.207 15.9369C13.0195 15.7514 12.7651 15.6472 12.4999 15.6472Z" fill="currentColor"/>
</svg>
