<svg viewBox="0 0 100 83" fill="none" xmlns="http://www.w3.org/2000/svg">
<g clip-path="url(#clip0_2209_17)">
<path d="M37.2024 30.811C39.1554 30.831 41.1384 30.894 42.9444 30.992L35.1414 20.23C33.9844 19.585 29.8144 16.915 26.5234 15.875L26.6794 15.191C26.7084 15.191 33.2414 16.241 36.4064 19.048L45.0734 30.943L45.3854 31.177C46.3234 31.265 47.2164 31.367 47.9584 31.48L40.9854 21.919L43.5584 14.307C43.2264 10.987 37.8354 0.454 37.8264 0.445L38.3734 0.01C42.6944 3.599 45.3264 14.419 45.3264 14.419L42.9244 21.616L48.3634 29.053C48.2024 27.759 48.1144 26.245 48.1144 24.585C48.2564 20.01 48.4754 16.421 49.9654 16.05C51.4694 16.421 51.6844 20 51.8254 24.585C51.8254 26.226 51.7274 27.72 51.5814 29.014L56.9864 21.617L54.5744 14.229C55.0344 13.008 58.0184 2.92 61.5584 0L62.0904 0.444C62.0904 0.454 56.6854 10.986 56.3334 14.165L58.9314 21.909L51.9534 31.46C52.7054 31.377 53.5894 31.265 54.5464 31.177L54.8494 30.943L63.5504 18.99C66.6654 16.241 73.2034 15.201 73.2384 15.181L73.4094 15.874C70.1084 16.904 65.9684 19.556 64.7764 20.229L56.9834 30.991C58.7904 30.893 60.7534 30.83 62.7304 30.83C69.5904 30.933 76.4904 31.387 76.7784 34.497C76.7784 34.809 76.7004 35.117 76.5444 35.41C75.7194 37.065 73.4294 37.5 70.5824 37.529C65.6454 37.529 58.8294 35.976 54.4104 34.843L53.0144 36.156C54.6304 36.659 57.1354 37.699 58.8394 39.501L59.0394 39.823L59.8594 46.429L64.4494 52.039L63.9274 52.522L58.2434 47.21L57.4374 40.589C56.0064 39.085 53.4974 38.133 52.1004 37.713C51.9144 38.133 51.6564 38.519 51.2854 38.792C51.2654 38.885 51.2464 38.973 51.2364 39.046L51.2564 39.036C52.0764 39.036 53.1264 39.407 53.1214 40.569C53.1264 40.632 53.1264 40.711 53.1214 40.75C52.9454 42.088 51.6324 42.845 50.7924 43.25L50.3674 51.028L49.6644 51.038L48.9024 43.128C48.0874 42.674 46.9734 41.937 46.8464 40.74C46.8464 40.681 46.8314 40.618 46.8314 40.569C46.8314 39.417 47.8864 39.036 48.6914 39.036H48.7014C48.6914 38.963 48.6674 38.87 48.6674 38.792C48.2864 38.509 48.0274 38.123 47.8564 37.698C46.4404 38.133 43.9254 39.055 42.5784 40.398L41.5534 47.41L35.9824 52.522L35.4794 52.039L39.9914 46.585L40.9774 39.632L41.0804 39.51C42.7844 37.689 45.2944 36.678 46.8954 36.156L45.5184 34.843C41.1044 36.005 34.2734 37.529 29.3414 37.538C26.4944 37.499 24.1994 37.064 23.3694 35.409C23.2234 35.116 23.1544 34.813 23.1594 34.515C23.4334 31.377 30.3324 30.923 37.2024 30.811Z" fill="currentColor"/>
<path d="M98.853 57.5681C99.493 57.3481 100 56.8551 100 56.1421C100 55.2441 99.272 54.5161 98.374 54.5161H1.626C0.728 54.5171 0 55.2441 0 56.1431C0 56.8221 0.474 57.2901 1.064 57.5351C1.088 57.6231 1.093 57.7161 1.162 57.7791L6.431 63.0481L2.544 66.9301L2.022 66.4081C1.788 66.1741 1.397 66.1741 1.163 66.4081C0.929 66.6421 0.929 67.0331 1.163 67.2671L1.69 67.7991L1.163 68.3261C0.929 68.5601 0.934 68.9461 1.168 69.1801C1.285 69.2971 1.437 69.3561 1.593 69.3561C1.749 69.3561 1.905 69.2931 2.023 69.1751L2.545 68.6481L6.437 72.5301L2.545 76.4121L2.023 75.8851C1.789 75.6511 1.403 75.6461 1.169 75.8801C0.935 76.1141 0.93 76.5001 1.164 76.7341L1.691 77.2611L1.164 77.7931C0.93 78.0271 0.93 78.4131 1.164 78.6521C1.281 78.7691 1.437 78.8281 1.594 78.8281C1.751 78.8281 1.906 78.7691 2.024 78.6521L2.546 78.1251L6.516 82.0951V82.1001C6.501 82.1491 6.462 82.1831 6.462 82.2371C6.462 82.2911 6.501 82.3301 6.516 82.3741C6.545 82.4771 6.555 82.5891 6.633 82.6671C6.755 82.7841 6.906 82.8431 7.063 82.8431H7.52C7.691 82.8431 7.842 82.7701 7.95 82.6621C7.974 82.6381 7.965 82.6081 7.984 82.5841C8.062 82.4861 8.126 82.3741 8.126 82.2371C8.126 82.2371 8.126 82.2371 8.126 82.2321C8.126 82.1831 8.077 82.1441 8.067 82.0901L12.027 78.1201L15.992 82.0951V82.1001C15.977 82.1491 15.933 82.1831 15.933 82.2371C15.933 82.2911 15.977 82.3301 15.992 82.3741C16.021 82.4771 16.031 82.5891 16.109 82.6671C16.226 82.7841 16.382 82.8431 16.539 82.8431H16.998C17.169 82.8431 17.32 82.7701 17.428 82.6621C17.452 82.6381 17.443 82.6081 17.462 82.5841C17.535 82.4861 17.604 82.3741 17.604 82.2371C17.604 82.2371 17.604 82.2371 17.604 82.2321C17.604 82.1831 17.555 82.1441 17.541 82.0901L21.511 78.1251L25.481 82.0951L25.474 82.1001C25.459 82.1491 25.415 82.1831 25.415 82.2371C25.415 82.2911 25.459 82.3301 25.474 82.3741C25.498 82.4771 25.508 82.5891 25.591 82.6671C25.708 82.7841 25.864 82.8431 26.021 82.8431H26.475C26.631 82.8431 26.787 82.7841 26.905 82.6671C26.983 82.5891 26.998 82.4771 27.022 82.3741C27.037 82.3301 27.081 82.2911 27.081 82.2371C27.081 82.1831 27.037 82.1491 27.022 82.1001V82.0951L30.997 78.1251L34.957 82.0951V82.1001C34.942 82.1491 34.898 82.1831 34.898 82.2371C34.898 82.2911 34.942 82.3301 34.957 82.3741C34.981 82.4771 34.991 82.5891 35.074 82.6671C35.191 82.7841 35.347 82.8431 35.504 82.8431H35.963C36.129 82.8431 36.28 82.7701 36.393 82.6621C36.413 82.6381 36.408 82.6081 36.422 82.5841C36.5 82.4861 36.564 82.3741 36.564 82.2371C36.564 82.2371 36.564 82.2371 36.564 82.2321C36.564 82.1831 36.52 82.1441 36.505 82.0901L40.475 78.1201L44.44 82.0851L44.434 82.1001C44.419 82.1491 44.38 82.1831 44.38 82.2371C44.38 82.2911 44.419 82.3301 44.434 82.3741C44.458 82.4771 44.473 82.5891 44.551 82.6671C44.673 82.7841 44.829 82.8431 44.986 82.8431H45.44C45.591 82.8431 45.748 82.7841 45.865 82.6671C45.919 82.6181 45.924 82.5351 45.953 82.4671C45.987 82.3891 46.046 82.3251 46.046 82.2421V82.2371C46.046 82.1831 46.002 82.1441 45.992 82.0951L49.957 78.1251L53.917 82.0951V82.1001C53.902 82.1491 53.858 82.1831 53.858 82.2371C53.858 82.2911 53.902 82.3301 53.917 82.3741C53.946 82.4771 53.956 82.5891 54.034 82.6671C54.151 82.7841 54.307 82.8431 54.464 82.8431H54.923C55.094 82.8431 55.245 82.7701 55.353 82.6621C55.377 82.6381 55.368 82.6081 55.387 82.5841C55.46 82.4861 55.529 82.3741 55.529 82.2371C55.529 82.2371 55.529 82.2371 55.529 82.2321C55.529 82.1831 55.48 82.1441 55.466 82.0901L59.436 78.1201L63.411 82.0901C63.396 82.1441 63.348 82.1831 63.348 82.2321C63.348 82.2371 63.348 82.2371 63.348 82.2371C63.348 82.3741 63.416 82.4861 63.49 82.5841C63.51 82.6081 63.5 82.6381 63.524 82.6621C63.631 82.7691 63.783 82.8431 63.954 82.8431H64.413C64.569 82.8431 64.725 82.7841 64.843 82.6671C64.921 82.5891 64.936 82.4771 64.96 82.3741C64.975 82.3301 65.019 82.2911 65.019 82.2371C65.019 82.1831 64.975 82.1491 64.96 82.1001V82.0951L68.925 78.1301L72.895 82.1001C72.88 82.1541 72.836 82.1831 72.836 82.2371C72.836 82.5741 73.105 82.8421 73.441 82.8421H73.89C74.222 82.8421 74.495 82.5731 74.495 82.2371C74.495 82.1831 74.451 82.1541 74.436 82.1051L78.411 78.1301L82.371 82.0951V82.1001C82.356 82.1491 82.317 82.1831 82.317 82.2371C82.317 82.2911 82.356 82.3301 82.371 82.3741C82.395 82.4771 82.41 82.5891 82.488 82.6671C82.61 82.7841 82.766 82.8431 82.923 82.8431H83.377C83.548 82.8431 83.699 82.7701 83.807 82.6621C83.831 82.6381 83.822 82.6081 83.841 82.5841C83.919 82.4861 83.983 82.3741 83.983 82.2371C83.983 82.2371 83.983 82.2371 83.983 82.2321C83.983 82.1831 83.939 82.1441 83.929 82.0901L87.889 78.1251L91.859 82.0951V82.1001C91.844 82.1491 91.8 82.1831 91.8 82.2371C91.8 82.2911 91.844 82.3301 91.859 82.3741C91.883 82.4771 91.898 82.5891 91.976 82.6671C92.093 82.7841 92.249 82.8431 92.406 82.8431H92.865C93.036 82.8431 93.187 82.7701 93.295 82.6621C93.319 82.6381 93.31 82.6081 93.329 82.5841C93.402 82.4861 93.471 82.3741 93.471 82.2371C93.471 82.2371 93.471 82.2371 93.471 82.2321C93.471 82.1831 93.422 82.1441 93.412 82.0901L97.377 78.1251L97.914 78.6671C98.036 78.7841 98.187 78.8431 98.344 78.8431C98.501 78.8431 98.656 78.7841 98.774 78.6671C99.008 78.4281 99.008 78.0421 98.774 77.8081L98.237 77.2661L98.769 76.7341C99.008 76.5001 99.013 76.1141 98.774 75.8801C98.54 75.6461 98.159 75.6411 97.92 75.8751L97.378 76.4121L93.491 72.5301L97.378 68.6481L97.92 69.1851C98.042 69.3021 98.189 69.3611 98.345 69.3611C98.501 69.3611 98.657 69.2981 98.775 69.1801C99.014 68.9461 99.009 68.5601 98.77 68.3261L98.238 67.7941L98.775 67.2521C99.009 67.0181 99.009 66.6321 98.775 66.3931C98.541 66.1591 98.155 66.1591 97.916 66.3931L97.379 66.9301L93.492 63.0481L98.77 57.7701C98.823 57.7151 98.823 57.6371 98.853 57.5681ZM83.999 63.0471L87.886 59.1651L91.778 63.0471L87.886 66.9291L83.999 63.0471ZM87.026 67.7931L83.149 71.6701L79.267 67.7881L83.144 63.9061L87.026 67.7931ZM79.8 57.7691H86.489L87.031 58.3111L83.149 62.1931L79.262 58.3061L79.8 57.7691ZM82.285 63.0471L78.408 66.9291L74.521 63.0421L78.403 59.1651L82.285 63.0471ZM77.544 67.7881L73.662 71.6701L69.78 67.7881L73.662 63.9011L77.544 67.7881ZM70.322 57.7691H77.007L77.544 58.3061L73.662 62.1881L69.78 58.3111L70.322 57.7691ZM72.803 63.0421L68.921 66.9291L65.039 63.0471L68.926 59.1651L72.803 63.0421ZM68.062 67.7881L64.175 71.6751L60.288 67.7931L64.175 63.9011L68.062 67.7881ZM60.83 57.7691H67.524L68.071 58.3111L64.179 62.1931L60.287 58.3061L60.83 57.7691ZM63.325 63.0471L59.433 66.9341L55.551 63.0471L59.433 59.1601L63.325 63.0471ZM58.574 67.7931L54.692 71.6751L50.805 67.7931L54.692 63.9061L58.574 67.7931ZM51.367 57.7691H58.037L58.574 58.3061L54.692 62.1881L50.815 58.3161L51.367 57.7691ZM53.838 63.0471L49.956 66.9291L46.074 63.0521L49.956 59.1701L53.838 63.0471ZM49.092 67.7931L45.215 71.6751L41.328 67.7931L45.215 63.9061L49.092 67.7931ZM41.875 57.7691H48.555L49.097 58.3111L45.215 62.1931L41.333 58.3111L41.875 57.7691ZM44.355 63.0521L40.473 66.9341L36.586 63.0471L40.473 59.1651L44.355 63.0521ZM39.609 67.7931L35.727 71.6751L31.845 67.7881L35.727 63.9061L39.609 67.7931ZM32.383 57.7691H39.072L39.614 58.3111L35.727 62.1931L31.845 58.3061L32.383 57.7691ZM34.868 63.0521L30.996 66.9291L27.104 63.0421L30.986 59.1651L34.868 63.0521ZM30.132 67.7931L26.25 71.6751L22.363 67.7931L26.24 63.9061L30.132 67.7931ZM22.91 57.7691H29.58L30.127 58.3111L26.25 62.1881L22.368 58.3111L22.91 57.7691ZM25.391 63.0521L21.509 66.9291L17.627 63.0471L21.509 59.1651L25.391 63.0521ZM20.649 67.7931L16.767 71.6751L12.88 67.7881L16.767 63.9061L20.649 67.7931ZM13.442 57.7691H20.112L20.654 58.3111L16.767 62.1931L12.89 58.3161L13.442 57.7691ZM15.913 63.0471L12.026 66.9341L8.144 63.0471L12.031 59.1651L15.913 63.0471ZM2.866 57.7691H10.635L11.177 58.3111L7.29 62.1921L2.866 57.7691ZM3.408 67.7931L7.29 63.9061L11.172 67.7881L7.29 71.6751L3.408 67.7931ZM7.29 81.1521L3.408 77.2651L7.29 73.3831L11.172 77.2701L7.29 81.1521ZM8.149 72.5291L12.026 68.6521L15.908 72.5291L12.026 76.4061L8.149 72.5291ZM16.768 81.1521L12.881 77.2701L16.768 73.3831L20.65 77.2651L16.768 81.1521ZM17.622 72.5291L21.509 68.6471L25.396 72.5291L21.509 76.4111L17.622 72.5291ZM26.24 81.1521L22.363 77.2651L26.25 73.3831L30.132 77.2651L26.24 81.1521ZM30.991 76.4061L27.109 72.5291L30.991 68.6521L34.868 72.5291L30.991 76.4061ZM35.728 81.1521L31.846 77.2701L35.728 73.3831L39.61 77.2651L35.728 81.1521ZM36.582 72.5291L40.474 68.6471L44.361 72.5291L40.474 76.4111L36.582 72.5291ZM45.215 81.1521L41.328 77.2651L45.215 73.3831L49.092 77.2651L45.215 81.1521ZM46.074 72.5291L49.956 68.6471L53.843 72.5291L49.956 76.4111L46.074 72.5291ZM54.692 81.1521L50.805 77.2651L54.692 73.3831L58.574 77.2651L54.692 81.1521ZM55.557 72.5291L59.434 68.6471L63.321 72.5291L59.434 76.4111L55.557 72.5291ZM64.175 81.1571L60.288 77.2651L64.175 73.3831L68.062 77.2701L64.175 81.1571ZM65.039 72.5291L68.921 68.6471L72.803 72.5291L68.921 76.4111L65.039 72.5291ZM73.662 81.1571L69.78 77.2701L73.662 73.3881L77.544 77.2701L73.662 81.1571ZM74.521 72.5291L78.408 68.6471L82.29 72.5291L78.408 76.4111L74.521 72.5291ZM83.145 81.1521L79.268 77.2701L83.15 73.3881L87.027 77.2651L83.145 81.1521ZM84.009 72.5291L87.891 68.6471L91.778 72.5291L87.891 76.4111L84.009 72.5291ZM96.519 77.2661L92.632 81.1531L88.74 77.2661L92.632 73.3841L96.519 77.2661ZM96.519 67.7931L92.632 71.6751L88.74 67.7931L92.632 63.9061L96.519 67.7931ZM92.632 62.1921L88.74 58.3101L89.287 57.7681H97.06L92.632 62.1921Z" fill="currentColor"/>
</g>
<defs>
<clipPath id="clip0_2209_17">
<rect width="100" height="82.842" fill="white"/>
</clipPath>
</defs>
</svg>
