<svg viewBox="0 0 32 33" fill="none" xmlns="http://www.w3.org/2000/svg">
<path fill-rule="evenodd" clip-rule="evenodd" d="M5.28025 13.984L3.81784 13.1647L2.31974 14.5896L3.17581 16.1213L2.71209 17.2256L1 17.8312V19.826L2.67642 20.289L3.14012 21.4646L2.35541 23.0319L3.71082 24.3855L5.35158 23.6731L6.38597 24.1362L7.028 25.8104H8.91844L9.5248 24.1006L10.6305 23.6018L12.1643 24.4212L13.6267 22.9963L12.842 21.4646L13.3057 20.3959L14.9464 19.826V17.7955L13.3413 17.2968L12.842 16.1213L13.6267 14.5896L12.2356 13.2003L10.7019 13.9484L9.5248 13.4853L8.98977 11.8823H6.99233L6.49299 13.4853L5.28025 13.984Z" stroke="currentColor" stroke-miterlimit="22.9256"/>
<path d="M7.9732 23.1921C10.3765 23.1921 12.3247 21.2465 12.3247 18.8463C12.3247 16.4462 10.3765 14.5005 7.9732 14.5005C5.5699 14.5005 3.62164 16.4462 3.62164 18.8463C3.62164 21.2465 5.5699 23.1921 7.9732 23.1921Z" stroke="currentColor" stroke-miterlimit="22.9256"/>
<path d="M7.97319 21.9633C9.69689 21.9633 11.0942 20.5678 11.0942 18.8464C11.0942 17.125 9.69689 15.7295 7.97319 15.7295C6.2495 15.7295 4.85217 17.125 4.85217 18.8464C4.85217 20.5678 6.2495 21.9633 7.97319 21.9633Z" stroke="currentColor" stroke-miterlimit="22.9256"/>
<path fill-rule="evenodd" clip-rule="evenodd" d="M19.4792 17.4356L17.7363 16.4591L15.9507 18.1573L16.971 19.9829L16.4184 21.2991L14.3778 22.0208V24.3983L16.3759 24.9503L16.9285 26.3513L15.9933 28.2194L17.6087 29.8327L19.5643 28.9836L20.7971 29.5355L21.5623 31.5309H23.8155L24.5382 29.4931L25.856 28.8987L27.684 29.8752L29.427 28.1769L28.4918 26.3513L29.0444 25.0776L31 24.3983V21.9784L29.0869 21.384L28.4918 19.9829L29.427 18.1573L27.7691 16.5015L25.9411 17.3931L24.5382 16.8412L23.9005 14.9307H21.5198L20.9247 16.8412L19.4792 17.4356Z" stroke="currentColor" stroke-miterlimit="22.9256"/>
<path d="M22.6889 28.411C25.5533 28.411 27.8754 26.092 27.8754 23.2314C27.8754 20.3708 25.5533 18.0518 22.6889 18.0518C19.8246 18.0518 17.5025 20.3708 17.5025 23.2314C17.5025 26.092 19.8246 28.411 22.6889 28.411Z" stroke="currentColor" stroke-miterlimit="22.9256"/>
<path d="M22.6889 26.9459C24.7433 26.9459 26.4087 25.2827 26.4087 23.231C26.4087 21.1793 24.7433 19.5161 22.6889 19.5161C20.6345 19.5161 18.9691 21.1793 18.9691 23.231C18.9691 25.2827 20.6345 26.9459 22.6889 26.9459Z" stroke="currentColor" stroke-miterlimit="22.9256"/>
<path fill-rule="evenodd" clip-rule="evenodd" d="M9.19345 2.94953L8.13115 2.35439L7.04291 3.38945L7.66476 4.50211L7.32791 5.30426L6.08423 5.74416V7.19322L7.302 7.52961L7.63885 8.38352L7.06882 9.52206L8.05341 10.5054L9.24527 9.98783L9.99666 10.3242L10.463 11.5404H11.8363L12.2768 10.2984L13.08 9.93607L14.1941 10.5312L15.2564 9.49618L14.6864 8.38352L15.0232 7.60724L16.2151 7.19322V5.71828L15.0492 5.35602L14.6864 4.50211L15.2564 3.38945L14.2459 2.38027L13.1318 2.92367L12.2768 2.58727L11.8881 1.42285H10.4371L10.0744 2.58727L9.19345 2.94953Z" stroke="currentColor" stroke-miterlimit="22.9256"/>
<path d="M11.1497 9.63843C12.8955 9.63843 14.3107 8.22506 14.3107 6.48157C14.3107 4.73808 12.8955 3.32471 11.1497 3.32471C9.40388 3.32471 7.98865 4.73808 7.98865 6.48157C7.98865 8.22506 9.40388 9.63843 11.1497 9.63843Z" stroke="currentColor" stroke-miterlimit="22.9256"/>
<path d="M11.1497 8.74563C12.4018 8.74563 13.4168 7.73193 13.4168 6.48146C13.4168 5.23099 12.4018 4.21729 11.1497 4.21729C9.89755 4.21729 8.88251 5.23099 8.88251 6.48146C8.88251 7.73193 9.89755 8.74563 11.1497 8.74563Z" stroke="currentColor" stroke-miterlimit="22.9256"/>
</svg>
