<svg  viewBox="0 0 256 256" fill="none" xmlns="http://www.w3.org/2000/svg">
<path d="M240 208H232V72C232 69.8783 231.157 67.8434 229.657 66.3431C228.157 64.8429 226.122 64 224 64H184V40C184 37.8783 183.157 35.8434 181.657 34.3431C180.157 32.8429 178.122 32 176 32H80C77.8783 32 75.8434 32.8429 74.3431 34.3431C72.8429 35.8434 72 37.8783 72 40V96H32C29.8783 96 27.8434 96.8429 26.3431 98.3431C24.8429 99.8434 24 101.878 24 104V208H16C13.8783 208 11.8434 208.843 10.3431 210.343C8.84285 211.843 8 213.878 8 216C8 218.122 8.84285 220.157 10.3431 221.657C11.8434 223.157 13.8783 224 16 224H240C242.122 224 244.157 223.157 245.657 221.657C247.157 220.157 248 218.122 248 216C248 213.878 247.157 211.843 245.657 210.343C244.157 208.843 242.122 208 240 208ZM40 112H80C82.1217 112 84.1566 111.157 85.6569 109.657C87.1571 108.157 88 106.122 88 104V48H168V72C168 74.1217 168.843 76.1566 170.343 77.6569C171.843 79.1571 173.878 80 176 80H216V208H152V168C152 165.878 151.157 163.843 149.657 162.343C148.157 160.843 146.122 160 144 160H112C109.878 160 107.843 160.843 106.343 162.343C104.843 163.843 104 165.878 104 168V208H40V112ZM136 208H120V176H136V208ZM112 72C112 69.8783 112.843 67.8434 114.343 66.3431C115.843 64.8429 117.878 64 120 64H136C138.122 64 140.157 64.8429 141.657 66.3431C143.157 67.8434 144 69.8783 144 72C144 74.1217 143.157 76.1566 141.657 77.6569C140.157 79.1571 138.122 80 136 80H120C117.878 80 115.843 79.1571 114.343 77.6569C112.843 76.1566 112 74.1217 112 72ZM112 104C112 101.878 112.843 99.8434 114.343 98.3431C115.843 96.8429 117.878 96 120 96H136C138.122 96 140.157 96.8429 141.657 98.3431C143.157 99.8434 144 101.878 144 104C144 106.122 143.157 108.157 141.657 109.657C140.157 111.157 138.122 112 136 112H120C117.878 112 115.843 111.157 114.343 109.657C112.843 108.157 112 106.122 112 104ZM168 104C168 101.878 168.843 99.8434 170.343 98.3431C171.843 96.8429 173.878 96 176 96H192C194.122 96 196.157 96.8429 197.657 98.3431C199.157 99.8434 200 101.878 200 104C200 106.122 199.157 108.157 197.657 109.657C196.157 111.157 194.122 112 192 112H176C173.878 112 171.843 111.157 170.343 109.657C168.843 108.157 168 106.122 168 104ZM88 136C88 138.122 87.1571 140.157 85.6569 141.657C84.1566 143.157 82.1217 144 80 144H64C61.8783 144 59.8434 143.157 58.3431 141.657C56.8429 140.157 56 138.122 56 136C56 133.878 56.8429 131.843 58.3431 130.343C59.8434 128.843 61.8783 128 64 128H80C82.1217 128 84.1566 128.843 85.6569 130.343C87.1571 131.843 88 133.878 88 136ZM88 168C88 170.122 87.1571 172.157 85.6569 173.657C84.1566 175.157 82.1217 176 80 176H64C61.8783 176 59.8434 175.157 58.3431 173.657C56.8429 172.157 56 170.122 56 168C56 165.878 56.8429 163.843 58.3431 162.343C59.8434 160.843 61.8783 160 64 160H80C82.1217 160 84.1566 160.843 85.6569 162.343C87.1571 163.843 88 165.878 88 168ZM112 136C112 133.878 112.843 131.843 114.343 130.343C115.843 128.843 117.878 128 120 128H136C138.122 128 140.157 128.843 141.657 130.343C143.157 131.843 144 133.878 144 136C144 138.122 143.157 140.157 141.657 141.657C140.157 143.157 138.122 144 136 144H120C117.878 144 115.843 143.157 114.343 141.657C112.843 140.157 112 138.122 112 136ZM168 136C168 133.878 168.843 131.843 170.343 130.343C171.843 128.843 173.878 128 176 128H192C194.122 128 196.157 128.843 197.657 130.343C199.157 131.843 200 133.878 200 136C200 138.122 199.157 140.157 197.657 141.657C196.157 143.157 194.122 144 192 144H176C173.878 144 171.843 143.157 170.343 141.657C168.843 140.157 168 138.122 168 136ZM168 168C168 165.878 168.843 163.843 170.343 162.343C171.843 160.843 173.878 160 176 160H192C194.122 160 196.157 160.843 197.657 162.343C199.157 163.843 200 165.878 200 168C200 170.122 199.157 172.157 197.657 173.657C196.157 175.157 194.122 176 192 176H176C173.878 176 171.843 175.157 170.343 173.657C168.843 172.157 168 170.122 168 168Z" fill="currentColor"/>
</svg>
