<svg  viewBox="0 0 15 15" fill="none" xmlns="http://www.w3.org/2000/svg">
<path d="M8.28709 1.87523C5.10584 1.78773 2.49959 4.34398 2.49959 7.50023H1.38084C1.09959 7.50023 0.962092 7.83773 1.16209 8.03148L2.90584 9.78148C3.03084 9.90648 3.22459 9.90648 3.34959 9.78148L5.09334 8.03148C5.13653 7.98742 5.16571 7.93156 5.17721 7.87094C5.1887 7.81033 5.18199 7.74766 5.15793 7.69085C5.13387 7.63404 5.09353 7.58562 5.042 7.5517C4.99046 7.51777 4.93004 7.49987 4.86834 7.50023H3.74959C3.74959 5.06273 5.73709 3.09398 8.18709 3.12523C10.5121 3.15648 12.4683 5.11273 12.4996 7.43773C12.5308 9.88148 10.5621 11.8752 8.12459 11.8752C7.11834 11.8752 6.18709 11.5315 5.44959 10.9502C5.32988 10.8559 5.17969 10.8089 5.02757 10.8181C4.87546 10.8274 4.73204 10.8922 4.62459 11.0002C4.36209 11.2627 4.38084 11.7065 4.67459 11.9315C5.65655 12.708 6.8727 13.1288 8.12459 13.1252C11.2808 13.1252 13.8371 10.519 13.7496 7.33773C13.6683 4.40648 11.2183 1.95648 8.28709 1.87523ZM7.96834 5.00023C7.71209 5.00023 7.49959 5.21273 7.49959 5.46898V7.76898C7.49959 7.98773 7.61834 8.19398 7.80584 8.30648L9.75584 9.46273C9.98084 9.59398 10.2683 9.51898 10.3996 9.30023C10.5308 9.07523 10.4558 8.78773 10.2371 8.65648L8.43709 7.58773V5.46273C8.43709 5.21273 8.22459 5.00023 7.96834 5.00023Z" fill="currentColor"/>
</svg>
