<!-- icon666.com - MILLIONS vector ICONS FREE --><svg version="1.1" id="Capa_1" xmlns="http://www.w3.org/2000/svg" xmlns:xlink="http://www.w3.org/1999/xlink" x="0px" y="0px" viewBox="0 0 512.001 512.001" style="enable-background:new 0 0 512.001 512.001;" xml:space="preserve"><g><g><path d="M256.001,202.668c-87.883,0-127.051-26.155-144.427-48.096c-2.024-2.554-5.104-4.043-8.363-4.043h-0.064 c-3.279,0.019-6.367,1.545-8.373,4.139c-13.081,16.753-20.161,37.412-20.107,58.667c0.059,52.995,43.005,95.941,96,96 c52.995-0.059,95.941-43.005,96-96C266.667,207.443,261.892,202.668,256.001,202.668z M170.608,288.061 c-41.237-0.033-74.64-33.489-74.607-74.726c-0.03-12.129,2.938-24.078,8.64-34.784c22.581,21.653,64.053,43.317,139.957,45.301 C239.385,260.705,207.827,288.09,170.608,288.061z"></path></g></g><g><g><path d="M170.667,42.668c-76.583,0-138.667,62.083-138.667,138.667v160h21.333v-160c0-64.801,52.532-117.333,117.333-117.333 s117.333,52.532,117.333,117.333v160h21.333v-160C309.334,104.751,247.251,42.668,170.667,42.668z"></path></g></g><g><g><path d="M202.667,288.001v10.667c0,17.673-14.327,32-32,32c-17.673,0-32-14.327-32-32v-10.667h-21.333v10.667 c0.035,29.441,23.893,53.298,53.333,53.333c29.441-0.035,53.298-23.893,53.333-53.333v-10.667H202.667z"></path></g></g><g><g><path d="M245.334,309.334h-32c-4.482,0.003-8.483,2.807-10.016,7.019l-32.651,89.771l-32.651-89.771 c-1.533-4.211-5.534-7.016-10.016-7.019h-32c-52.995,0.059-95.941,43.005-96,96v96c0,5.891,4.776,10.667,10.667,10.667h320 c5.891,0,10.667-4.776,10.667-10.667v-96C341.275,352.339,298.329,309.393,245.334,309.334z M320.001,490.668H21.334l0-85.333 c0.047-41.218,33.449-74.62,74.667-74.667h24.533l40.117,110.315c1.079,2.947,3.401,5.268,6.348,6.348 c5.532,2.026,11.658-0.816,13.684-6.348l40.117-110.315h24.533c41.218,0.047,74.62,33.449,74.667,74.667V490.668z"></path></g></g><g><g><path d="M224.001,320.001v88.309l-53.333,17.781l-53.333-17.781v-88.309H96.001v96c-0.001,4.593,2.938,8.671,7.296,10.123 l64,21.333c1.087,0.361,2.225,0.545,3.371,0.544c1.145,0.001,2.284-0.183,3.371-0.544l64-21.333 c4.358-1.451,7.297-5.53,7.296-10.123v-96H224.001z"></path></g></g><g><g><rect x="160.001" y="437.334" width="21.333" height="64"></rect></g></g><g><g><path d="M488.016,32.524c-35.058-39.775-95.721-43.599-135.496-8.541c-39.775,35.058-43.599,95.721-8.541,135.496l16-14.112 c-12.017-13.636-18.647-31.188-18.647-49.363c-0.001-41.237,33.427-74.668,74.665-74.669 c41.237-0.001,74.667,33.427,74.669,74.665c0.001,41.237-33.427,74.667-74.665,74.669c-2.829,0.001-5.541,1.125-7.541,3.125 l-39.541,39.541h-38.251v21.333h42.667c2.829-0.001,5.541-1.125,7.541-3.125l39.648-39.648 c21.793-1.029,42.585-9.449,58.952-23.875C519.249,132.962,523.073,72.299,488.016,32.524z"></path></g></g><g><g><path d="M426.667,91.585V10.668h-21.333v85.333c0.001,2.829,1.125,5.541,3.125,7.541l64,64l15.083-15.083L426.667,91.585z"></path></g></g><g><g><rect x="416.001" y="85.334" width="85.333" height="21.333"></rect></g></g><g><g><path d="M480.001,277.334H330.667v21.333h149.333c5.891,0,10.667,4.776,10.667,10.667v42.667c0,5.891-4.776,10.667-10.667,10.667 H362.667v21.333h117.333c17.673,0,32-14.327,32-32v-42.667C512.001,291.661,497.674,277.334,480.001,277.334z"></path></g></g><g><g><rect x="373.334" y="320.001" width="96" height="21.333"></rect></g></g><g><g><rect x="330.667" y="320.001" width="21.333" height="21.333"></rect></g></g><g><g><path d="M437.334,373.334v38.251l-39.541,39.541l15.083,15.083l42.667-42.667c2-2,3.125-4.713,3.125-7.541v-42.667H437.334z"></path></g></g></svg>