<svg viewBox="0 0 256 256" fill="none" xmlns="http://www.w3.org/2000/svg">
<path d="M60 144H44C41.8783 144 39.8434 144.843 38.3431 146.343C36.8429 147.843 36 149.878 36 152V208C36 210.122 36.8429 212.157 38.3431 213.657C39.8434 215.157 41.8783 216 44 216C46.1217 216 48.1566 215.157 49.6569 213.657C51.1571 212.157 52 210.122 52 208V200H60C67.4261 200 74.548 197.05 79.799 191.799C85.05 186.548 88 179.426 88 172C88 164.574 85.05 157.452 79.799 152.201C74.548 146.95 67.4261 144 60 144ZM60 184H52V160H60C63.1826 160 66.2348 161.264 68.4853 163.515C70.7357 165.765 72 168.817 72 172C72 175.183 70.7357 178.235 68.4853 180.485C66.2348 182.736 63.1826 184 60 184ZM224 200.87C224 202.93 223.205 204.911 221.78 206.4C218.994 209.399 215.626 211.797 211.881 213.448C208.135 215.098 204.093 215.967 200 216C182.35 216 168 199.85 168 180C168 160.15 182.35 144 200 144C205.88 144.02 211.62 145.8 216.48 149.11C218.24 150.303 219.453 152.147 219.854 154.235C220.254 156.324 219.808 158.485 218.615 160.245C217.422 162.005 215.578 163.218 213.49 163.619C211.401 164.019 209.24 163.573 207.48 162.38C205.285 160.847 202.677 160.017 200 160C191.18 160 184 169 184 180C184 191 191.18 200 200 200C202.888 199.968 205.691 199.015 208 197.28V192C205.878 192 203.843 191.157 202.343 189.657C200.843 188.157 200 186.122 200 184C200 181.878 200.843 179.843 202.343 178.343C203.843 176.843 205.878 176 208 176H216C218.122 176 220.157 176.843 221.657 178.343C223.157 179.843 224 181.878 224 184V200.87ZM156 152V208C156 209.695 155.462 211.347 154.463 212.717C153.463 214.086 152.055 215.103 150.44 215.62C149.652 215.874 148.828 216.002 148 216C146.727 216 145.472 215.696 144.339 215.113C143.207 214.531 142.23 213.686 141.49 212.65L116 177V208C116 210.122 115.157 212.157 113.657 213.657C112.157 215.157 110.122 216 108 216C105.878 216 103.843 215.157 102.343 213.657C100.843 212.157 100 210.122 100 208V152C99.9999 150.305 100.538 148.654 101.537 147.285C102.536 145.915 103.944 144.899 105.559 144.381C107.173 143.864 108.909 143.873 110.518 144.406C112.127 144.94 113.525 145.971 114.51 147.35L140 183V152C140 149.878 140.843 147.843 142.343 146.343C143.843 144.843 145.878 144 148 144C150.122 144 152.157 144.843 153.657 146.343C155.157 147.843 156 149.878 156 152ZM48 120C50.1217 120 52.1566 119.157 53.6569 117.657C55.1571 116.157 56 114.122 56 112V40H144V88C144 90.1217 144.843 92.1566 146.343 93.6569C147.843 95.1571 149.878 96 152 96H200V112C200 114.122 200.843 116.157 202.343 117.657C203.843 119.157 205.878 120 208 120C210.122 120 212.157 119.157 213.657 117.657C215.157 116.157 216 114.122 216 112V88C216.001 86.9491 215.795 85.9084 215.393 84.9372C214.992 83.966 214.403 83.0835 213.66 82.34L157.66 26.34C156.917 25.5973 156.034 25.0084 155.063 24.6069C154.092 24.2054 153.051 23.9992 152 24H56C51.7565 24 47.6869 25.6857 44.6863 28.6863C41.6857 31.6869 40 35.7565 40 40V112C40 114.122 40.8429 116.157 42.3431 117.657C43.8434 119.157 45.8783 120 48 120ZM160 51.31L188.69 80H160V51.31Z" fill="currentColor"/>
</svg>
