<svg viewBox="0 0 512 494" fill="none" xmlns="http://www.w3.org/2000/svg">
<path d="M467 45.2001C462.854 41.0065 457.916 37.6797 452.472 35.4135C447.028 33.1473 441.187 31.987 435.29 32.0001H312.36C304.296 32.0151 296.564 35.2095 290.84 40.8901L45.0901 286.59C36.7046 294.993 31.9951 306.379 31.9951 318.25C31.9951 330.121 36.7046 341.507 45.0901 349.91L162.09 466.91C170.495 475.299 181.885 480.011 193.76 480.011C205.635 480.011 217.025 475.299 225.43 466.91L471.08 221.31C476.772 215.596 479.978 207.865 480 199.8V76.8001C480.036 70.9341 478.906 65.1194 476.674 59.6944C474.442 54.2694 471.154 49.3424 467 45.2001ZM384 160C377.671 160 371.484 158.123 366.222 154.607C360.959 151.091 356.858 146.093 354.436 140.246C352.014 134.399 351.38 127.965 352.615 121.757C353.85 115.55 356.897 109.848 361.373 105.373C365.848 100.897 371.55 97.8497 377.757 96.615C383.965 95.3802 390.399 96.014 396.246 98.436C402.093 100.858 407.091 104.959 410.607 110.222C414.123 115.484 416 121.671 416 128C416 136.487 412.629 144.626 406.628 150.628C400.626 156.629 392.487 160 384 160Z" fill="currentColor"/>
</svg>
