<svg version="1.1" id="Capa_1" xmlns="http://www.w3.org/2000/svg" xmlns:xlink="http://www.w3.org/1999/xlink" x="0px" y="0px" viewBox="0 0 512 512" style="enable-background:new 0 0 512 512;" xml:space="preserve"><g><g><path d="M330.667,0H96c-2.829,0.001-5.541,1.125-7.541,3.125L3.125,88.459c-2,2-3.125,4.713-3.125,7.541v362.667 C0.035,488.107,23.893,511.965,53.333,512h96v-21.333h-96c-17.673,0-32-14.327-32-32V100.416l79.083-79.083h230.251 c17.673,0,32,14.327,32,32v96H384v-96C383.965,23.893,360.107,0.035,330.667,0z"></path></g></g><g><g><path d="M85.333,10.667v64c0,5.891-4.776,10.667-10.667,10.667H53.333v21.333h21.333c17.673,0,32-14.327,32-32v-64H85.333z"></path></g></g><g><g><path d="M309.333,42.667H288V64h21.333C315.224,64,320,68.776,320,74.667V96h21.333V74.667 C341.333,56.994,327.006,42.667,309.333,42.667z"></path></g></g><g><g><rect x="245.333" y="42.667" width="21.333" height="21.333"></rect></g></g><g><g><path d="M256,256c-70.692,0-128,57.308-128,128s57.308,128,128,128c70.661-0.076,127.924-57.339,128-128 C384,313.308,326.692,256,256,256z M256,490.667c-58.91,0-106.667-47.756-106.667-106.667S197.09,277.333,256,277.333 c58.884,0.065,106.602,47.783,106.667,106.667C362.667,442.91,314.91,490.667,256,490.667z"></path></g></g><g><g><path d="M266.667,330.667h-21.333c-17.673,0-32,14.327-32,32s14.327,32,32,32h21.333v-21.333h-21.333 c-5.891,0-10.667-4.776-10.667-10.667S239.442,352,245.333,352h21.333c5.891,0,10.667,4.776,10.667,10.667h21.333 C298.667,344.994,284.34,330.667,266.667,330.667z"></path></g></g><g><g><path d="M266.667,373.333h-21.333v21.333h21.333c5.891,0,10.667,4.776,10.667,10.667c0,5.891-4.776,10.667-10.667,10.667h-21.333 c-5.891,0-10.667-4.776-10.667-10.667h-21.333c0,17.673,14.327,32,32,32h21.333c17.673,0,32-14.327,32-32 S284.34,373.333,266.667,373.333z"></path></g></g><g><g><rect x="245.333" y="320" width="21.333" height="21.333"></rect></g></g><g><g><rect x="245.333" y="426.667" width="21.333" height="21.333"></rect></g></g><g><g><path d="M480,426.667h-85.333V448H480c5.891,0,10.667,4.776,10.667,10.667V480c0,5.891-4.776,10.667-10.667,10.667H341.333V512 H480c17.673,0,32-14.327,32-32v-21.333C512,440.994,497.673,426.667,480,426.667z"></path></g></g><g><g><path d="M480,362.667h-74.667V384H480c5.891,0,10.667,4.776,10.667,10.667V416c0,5.891-4.776,10.667-10.667,10.667h-64V448h64 c17.673,0,32-14.327,32-32v-21.333C512,376.994,497.673,362.667,480,362.667z"></path></g></g><g><g><path d="M480,298.667h-85.333V320H480c5.891,0,10.667,4.776,10.667,10.667V352c0,5.891-4.776,10.667-10.667,10.667h-64V384h64 c17.673,0,32-14.327,32-32v-21.333C512,312.994,497.673,298.667,480,298.667z"></path></g></g><g><g><path d="M437.333,234.667H330.667V256h106.667c5.891,0,10.667,4.776,10.667,10.667V288c0,5.891-4.776,10.667-10.667,10.667h-32 V320h32c17.673,0,32-14.327,32-32v-21.333C469.333,248.994,455.006,234.667,437.333,234.667z"></path></g></g><g><g><path d="M480,170.667H288c-17.673,0-32,14.327-32,32v32h21.333v-32c0-5.891,4.776-10.667,10.667-10.667h192 c5.891,0,10.667,4.776,10.667,10.667V224c0,5.891-4.776,10.667-10.667,10.667h-64V256h64c17.673,0,32-14.327,32-32v-21.333 C512,184.994,497.673,170.667,480,170.667z"></path></g></g></svg>