<svg  viewBox="0 0 40 40" fill="none" xmlns="http://www.w3.org/2000/svg">
<path d="M20 37.0841L12.28 33.0135C10.0792 31.8556 8.23872 30.1269 6.95616 28.0129C5.6736 25.899 4.99736 23.4795 5.00001 21.0143V4.94445C5.00067 4.28896 5.26427 3.6605 5.73297 3.197C6.20167 2.7335 6.83717 2.47282 7.50001 2.47217H32.5C33.1628 2.47282 33.7983 2.7335 34.267 3.197C34.7357 3.6605 34.9993 4.28896 35 4.94445V21.0143C35.0027 23.4795 34.3264 25.899 33.0439 28.0129C31.7613 30.1269 29.9208 31.8556 27.72 33.0135L20 37.0841ZM7.50001 4.94445V21.0143C7.49793 23.0314 8.05139 25.011 9.10096 26.7406C10.1505 28.4702 11.6566 29.8845 13.4575 30.8317L20 34.2817L26.5425 30.8329C28.3436 29.8856 29.8498 28.4712 30.8994 26.7413C31.949 25.0115 32.5023 23.0316 32.5 21.0143V4.94445H7.50001Z" fill="currentColor"/>
<path d="M20 31.2458V7.41675H30V20.7732C29.9999 22.3401 29.5697 23.8775 28.7551 25.2214C27.9405 26.5653 26.7723 27.6653 25.375 28.4039L20 31.2458Z" fill="currentColor"/>
</svg>
