<svg viewBox="0 0 24 24" fill="none" xmlns="http://www.w3.org/2000/svg">
<path d="M3 7.67086C3 5.99786 4.474 4.34386 5.51 3.38986C5.77923 3.14021 6.13284 3.00149 6.5 3.00149C6.86716 3.00149 7.22077 3.14021 7.49 3.38986C8.527 4.34386 10 5.99786 10 7.66986C10 9.31186 8.675 10.9999 6.5 10.9999C4.325 10.9999 3 9.31186 3 7.67086ZM8.5 17.6709C8.5 15.9979 9.974 14.3439 11.01 13.3889C11.2792 13.1392 11.6328 13.0005 12 13.0005C12.3672 13.0005 12.7208 13.1392 12.99 13.3889C14.026 14.3439 15.5 15.9979 15.5 17.6709C15.5 19.3119 14.175 20.9999 12 20.9999C9.825 20.9999 8.5 19.3119 8.5 17.6709ZM14 7.67086C14 5.99786 15.474 4.34386 16.51 3.38886C16.7792 3.13921 17.1328 3.00049 17.5 3.00049C17.8672 3.00049 18.2208 3.13921 18.49 3.38886C19.527 4.34386 21 5.99786 21 7.66986C21 9.31186 19.675 10.9999 17.5 10.9999C15.325 10.9999 14 9.31186 14 7.67086Z" stroke="currentColor" stroke-width="1.5" stroke-linecap="round" stroke-linejoin="round"/>
</svg>
