<svg viewBox="0 0 24 24" fill="none" xmlns="http://www.w3.org/2000/svg">
<path d="M12.75 15.58V8.42L13.752 9.31C13.9018 9.43286 14.0933 9.49299 14.2864 9.4778C14.4796 9.46261 14.6593 9.37327 14.7881 9.22851C14.9168 9.08374 14.9845 8.89477 14.9771 8.70119C14.9696 8.5076 14.8875 8.32441 14.748 8.19L12.498 6.19C12.3607 6.06812 12.1836 6.0008 12 6.0008C11.8164 6.0008 11.6393 6.06812 11.502 6.19L9.252 8.19C9.1739 8.25406 9.10954 8.33323 9.06279 8.42278C9.01604 8.51232 8.98786 8.61038 8.97994 8.71108C8.97202 8.81178 8.98452 8.91304 9.0167 9.00879C9.04887 9.10454 9.10006 9.19281 9.16719 9.26829C9.23431 9.34377 9.31599 9.40492 9.40733 9.44805C9.49866 9.49119 9.59777 9.51544 9.69871 9.51933C9.79965 9.52323 9.90033 9.50669 9.99472 9.47072C10.0891 9.43475 10.1753 9.38008 10.248 9.31L11.25 8.42V15.58L10.248 14.69C10.1753 14.6199 10.0891 14.5652 9.99472 14.5293C9.90033 14.4933 9.79965 14.4768 9.69871 14.4807C9.59777 14.4846 9.49866 14.5088 9.40733 14.5519C9.31599 14.5951 9.23431 14.6562 9.16719 14.7317C9.10006 14.8072 9.04887 14.8955 9.0167 14.9912C8.98452 15.087 8.97202 15.1882 8.97994 15.2889C8.98786 15.3896 9.01604 15.4877 9.06279 15.5772C9.10954 15.6668 9.1739 15.7459 9.252 15.81L11.502 17.81L11.514 17.821C11.6522 17.9386 11.8284 18.0021 12.0099 17.9998C12.1914 17.9974 12.3659 17.9292 12.501 17.808L14.748 15.811C14.8911 15.6775 14.9763 15.4933 14.9855 15.2977C14.9946 15.1022 14.927 14.9108 14.797 14.7645C14.667 14.6182 14.4849 14.5285 14.2897 14.5146C14.0944 14.5006 13.9015 14.5636 13.752 14.69L12.75 15.58ZM17.75 21C18.612 21 19.4386 20.6576 20.0481 20.0481C20.6576 19.4386 21 18.612 21 17.75V6.25C21 5.38805 20.6576 4.5614 20.0481 3.9519C19.4386 3.34241 18.612 3 17.75 3H6.25C5.38805 3 4.5614 3.34241 3.9519 3.9519C3.34241 4.5614 3 5.38805 3 6.25V17.75C3 18.612 3.34241 19.4386 3.9519 20.0481C4.5614 20.6576 5.38805 21 6.25 21H17.75ZM19.5 17.75C19.5 18.2141 19.3156 18.6592 18.9874 18.9874C18.6592 19.3156 18.2141 19.5 17.75 19.5H6.25C5.78587 19.5 5.34075 19.3156 5.01256 18.9874C4.68437 18.6592 4.5 18.2141 4.5 17.75V17.5H9.647L8.587 16.558C8.41227 16.4011 8.26993 16.2116 8.168 16H4.5V8H8.168C8.266 7.794 8.406 7.603 8.588 7.442L9.648 6.5H4.5V6.25C4.5 5.284 5.284 4.5 6.25 4.5H17.75C18.716 4.5 19.5 5.284 19.5 6.25V6.5H14.353L15.413 7.442C15.594 7.603 15.733 7.794 15.832 8H19.5V16H15.832C15.7298 16.2116 15.5871 16.4012 15.412 16.558L14.352 17.5H19.5V17.75Z" fill="currentColor"/>
</svg>
