<svg viewBox="0 0 16 16" fill="none" xmlns="http://www.w3.org/2000/svg">
<path d="M10 7.99819C10 8.13079 9.94732 8.25797 9.85355 8.35174C9.75979 8.44551 9.63261 8.49819 9.5 8.49819C9.36739 8.49819 9.24021 8.44551 9.14645 8.35174C9.05268 8.25797 9 8.13079 9 7.99819C9 7.86558 9.05268 7.7384 9.14645 7.64463C9.24021 7.55086 9.36739 7.49819 9.5 7.49819C9.63261 7.49819 9.75979 7.55086 9.85355 7.64463C9.94732 7.7384 10 7.86558 10 7.99819ZM7.598 2.01019C7.52549 1.99569 7.45067 1.99746 7.37892 2.01537C7.30718 2.03328 7.2403 2.06687 7.1831 2.11374C7.1259 2.16061 7.07981 2.21958 7.04815 2.2864C7.01649 2.35323 7.00004 2.42624 7 2.50019V13.4972C7.00004 13.5711 7.01649 13.6441 7.04815 13.711C7.07981 13.7778 7.1259 13.8368 7.1831 13.8836C7.2403 13.9305 7.30718 13.9641 7.37892 13.982C7.45067 13.9999 7.52549 14.0017 7.598 13.9872L12.598 12.9872C12.7113 12.9645 12.8133 12.9033 12.8866 12.814C12.9598 12.7247 12.9999 12.6127 13 12.4972V3.50019C12.9999 3.38464 12.9598 3.27268 12.8866 3.18335C12.8133 3.09402 12.7113 3.03283 12.598 3.01019L7.598 2.01019ZM8 12.8872V3.11019L12 3.91019V12.0872L8 12.8872ZM6 12.9972V11.9972H4V4.00019H6V3.00019H3.5C3.36739 3.00019 3.24021 3.05286 3.14645 3.14663C3.05268 3.2404 3 3.36758 3 3.50019V12.4972C3 12.6298 3.05268 12.757 3.14645 12.8507C3.24021 12.9445 3.36739 12.9972 3.5 12.9972H6Z" fill="currentColor"/>
</svg>
