<!-- icon666.com - MILLIONS vector ICONS FREE --><svg version="1.1" id="Capa_1" xmlns="http://www.w3.org/2000/svg" xmlns:xlink="http://www.w3.org/1999/xlink" x="0px" y="0px" viewBox="0 0 512.027 512.027" style="enable-background:new 0 0 512.027 512.027;" xml:space="preserve"><g><g><path d="M389.365,165.518c-24.014-24.008-56.579-37.498-90.536-37.504c-70.74-0.013-128.095,57.323-128.108,128.063 c-0.013,70.74,57.323,128.096,128.063,128.108c34.029,0.027,66.669-13.492,90.713-37.572 C439.469,296.568,439.41,215.489,389.365,165.518z M298.952,362.734c-58.91,0.046-106.704-47.672-106.75-106.583 c-0.046-58.91,47.672-106.704,106.583-106.75c28.319-0.049,55.49,11.191,75.499,31.232c19.989,19.984,31.23,47.085,31.252,75.351 C405.581,314.893,357.862,362.687,298.952,362.734z"></path></g></g><g><g><path d="M502.656,414.702l-60.405-60.416c-2-2-4.713-3.125-7.541-3.125c-2.829,0.001-5.541,1.125-7.541,3.125l-30.197,30.197 c-4.164,4.165-4.164,10.917,0,15.083l60.405,60.416c5.996,6.007,14.137,9.377,22.624,9.365l0,0 c8.49,0.014,16.637-3.356,22.635-9.365c0.115-0.102,0.222-0.213,0.32-0.331C515.167,447.108,515.034,427.081,502.656,414.702z M487.563,444.856l-0.203,0.213c-4.197,4.016-10.835,3.935-14.933-0.181l-52.864-52.875l15.136-15.115l52.864,52.875 C491.727,433.939,491.727,440.691,487.563,444.856z"></path></g></g><g><g><rect x="451.076" y="419.124" transform="matrix(0.7071 -0.7071 0.7071 0.7071 -165.5359 459.9415)" width="42.71" height="21.333"></rect></g></g><g><g><rect x="390.035" y="331.306" transform="matrix(0.7071 -0.7071 0.7071 0.7071 -135.7813 388.1947)" width="21.333" height="53.387"></rect></g></g><g><g><path d="M298.667,170.68v21.333c35.332,0.035,63.965,28.668,64,64H384C383.947,208.907,345.773,170.733,298.667,170.68z"></path></g></g><g><g><path d="M298.667,213.347c-23.564,0-42.667,19.103-42.667,42.667s19.103,42.667,42.667,42.667s42.667-19.103,42.667-42.667 S322.231,213.347,298.667,213.347z M298.667,277.347c-11.782,0-21.333-9.551-21.333-21.333c0-11.782,9.551-21.333,21.333-21.333 c11.782,0,21.333,9.551,21.333,21.333C320,267.796,310.449,277.347,298.667,277.347z"></path></g></g><g><g><rect x="250.67" y="196.05" transform="matrix(0.7071 -0.7071 0.7071 0.7071 -78.0859 248.8432)" width="21.333" height="45.259"></rect></g></g><g><g><rect x="165.296" y="110.717" transform="matrix(0.7071 -0.7071 0.7071 0.7071 -42.7515 163.4809)" width="21.333" height="45.259"></rect></g></g><g><g><path d="M149.333,74.68c-17.673,0-32,14.327-32,32c0,17.673,14.327,32,32,32c17.673,0,32-14.327,32-32 C181.333,89.007,167.006,74.68,149.333,74.68z M149.333,117.347c-5.891,0-10.667-4.776-10.667-10.667s4.776-10.667,10.667-10.667 c5.891,0,10.667,4.776,10.667,10.667S155.224,117.347,149.333,117.347z"></path></g></g><g><g><path d="M149.333,362.68c-17.673,0-32,14.327-32,32s14.327,32,32,32c17.673,0,32-14.327,32-32S167.006,362.68,149.333,362.68z M149.333,405.347c-5.891,0-10.667-4.776-10.667-10.667s4.776-10.667,10.667-10.667c5.891,0,10.667,4.776,10.667,10.667 S155.224,405.347,149.333,405.347z"></path></g></g><g><g><rect x="238.705" y="282.68" transform="matrix(0.7071 -0.7071 0.7071 0.7071 -130.8845 270.71)" width="45.259" height="21.333"></rect></g></g><g><g><rect x="153.381" y="357.343" transform="matrix(0.7071 -0.7071 0.7071 0.7071 -208.6699 232.2456)" width="45.259" height="21.333"></rect></g></g><g><g><path d="M458.667,32.014H53.333C23.893,32.049,0.035,55.906,0,85.347v266.667c0.035,29.441,23.893,53.298,53.333,53.333H96 v-21.333H53.333c-17.673,0-32-14.327-32-32V85.347c0-17.673,14.327-32,32-32h405.333c17.673,0,32,14.327,32,32v288H512v-288 C511.965,55.906,488.107,32.049,458.667,32.014z"></path></g></g><g><g><rect x="170.667" y="458.68" width="192" height="21.333"></rect></g></g><g><g><rect x="309.333" y="394.68" width="21.333" height="74.667"></rect></g></g><g><g><rect x="202.667" y="394.68" width="21.333" height="74.667"></rect></g></g><g><g><path d="M74.667,341.347c-5.891,0-10.667-4.776-10.667-10.667v-21.333H42.667v21.333c0,17.673,14.327,32,32,32H96v-21.333H74.667z "></path></g></g><g><g><rect x="42.667" y="266.68" width="21.333" height="21.333"></rect></g></g></svg>