<svg viewBox="0 0 15 15" fill="none" xmlns="http://www.w3.org/2000/svg">
<path fill-rule="evenodd" clip-rule="evenodd" d="M7.5 5.15625C6.8784 5.15625 6.28226 5.40318 5.84272 5.84272C5.40318 6.28226 5.15625 6.8784 5.15625 7.5C5.15625 8.1216 5.40318 8.71774 5.84272 9.15728C6.28226 9.59682 6.8784 9.84375 7.5 9.84375C8.1216 9.84375 8.71774 9.59682 9.15728 9.15728C9.59682 8.71774 9.84375 8.1216 9.84375 7.5C9.84375 6.8784 9.59682 6.28226 9.15728 5.84272C8.71774 5.40318 8.1216 5.15625 7.5 5.15625ZM6.09375 7.5C6.09375 7.12704 6.24191 6.76935 6.50563 6.50563C6.76935 6.24191 7.12704 6.09375 7.5 6.09375C7.87296 6.09375 8.23065 6.24191 8.49437 6.50563C8.75809 6.76935 8.90625 7.12704 8.90625 7.5C8.90625 7.87296 8.75809 8.23065 8.49437 8.49437C8.23065 8.75809 7.87296 8.90625 7.5 8.90625C7.12704 8.90625 6.76935 8.75809 6.50563 8.49437C6.24191 8.23065 6.09375 7.87296 6.09375 7.5Z" fill="black"/>
<path fill-rule="evenodd" clip-rule="evenodd" d="M7.4846 0.78125C7.20648 0.78125 6.9746 0.78125 6.7846 0.79375C6.59039 0.801837 6.39885 0.841961 6.21773 0.9125C6.00913 0.998806 5.81958 1.12536 5.6599 1.28493C5.50023 1.4445 5.37355 1.63396 5.2871 1.8425C5.19648 2.06125 5.1721 2.2925 5.1621 2.54375C5.1611 2.63564 5.13678 2.72577 5.09141 2.80568C5.04604 2.88559 4.98112 2.95267 4.90273 3.00063C4.82203 3.04469 4.73145 3.06752 4.63951 3.06697C4.54757 3.06643 4.45727 3.04252 4.3771 2.9975C4.1546 2.88 3.9421 2.78562 3.7071 2.75437C3.48332 2.72494 3.25592 2.73987 3.03791 2.79831C2.8199 2.85676 2.61553 2.95757 2.43648 3.095C2.28508 3.2168 2.1548 3.36271 2.05085 3.52688C1.9446 3.68563 1.82835 3.88625 1.6896 4.12688L1.67398 4.15437C1.5346 4.395 1.41898 4.59562 1.33523 4.76687C1.24773 4.94562 1.17898 5.12187 1.15398 5.31687C1.09435 5.76874 1.21665 6.22579 1.49398 6.5875C1.63835 6.77562 1.82648 6.9125 2.03898 7.04625C2.1182 7.09309 2.18421 7.15931 2.23078 7.23869C2.27736 7.31807 2.30298 7.40799 2.30523 7.5C2.30298 7.59201 2.27736 7.68193 2.23078 7.76131C2.18421 7.84069 2.1182 7.90691 2.03898 7.95375C1.82648 8.0875 1.63898 8.22438 1.49398 8.4125C1.35655 8.59155 1.25573 8.79592 1.19729 9.01394C1.13885 9.23195 1.12391 9.45934 1.15335 9.68312C1.17898 9.87813 1.2471 10.0544 1.3346 10.2331C1.41898 10.4044 1.5346 10.605 1.67398 10.8456L1.6896 10.8731C1.82835 11.1137 1.9446 11.3144 2.05085 11.4731C2.16148 11.6375 2.28023 11.7856 2.43648 11.9044C2.61548 12.0419 2.81983 12.1428 3.03784 12.2014C3.25586 12.2599 3.48327 12.275 3.7071 12.2456C3.9421 12.2144 4.1546 12.1206 4.3771 12.0025C4.45717 11.9575 4.54736 11.9337 4.6392 11.9331C4.73103 11.9326 4.8215 11.9554 4.9021 11.9994C4.98092 12.047 5.04626 12.1139 5.09188 12.1939C5.1375 12.2739 5.16189 12.3642 5.16273 12.4563C5.1721 12.7075 5.19648 12.9388 5.28773 13.1575C5.37403 13.3661 5.50058 13.5556 5.66016 13.7153C5.81973 13.875 6.00919 14.0017 6.21773 14.0881C6.39898 14.1631 6.58648 14.1925 6.7846 14.2056C6.9746 14.2188 7.20648 14.2188 7.4846 14.2188H7.51585C7.79398 14.2188 8.02585 14.2188 8.21585 14.2062C8.4146 14.1925 8.60148 14.1631 8.78273 14.0875C8.99132 14.0012 9.18087 13.8746 9.34055 13.7151C9.50023 13.5555 9.6269 13.366 9.71335 13.1575C9.80398 12.9388 9.82835 12.7075 9.83835 12.4563C9.83924 12.3643 9.86352 12.274 9.90889 12.194C9.95427 12.1139 10.0192 12.0468 10.0977 11.9987C10.1785 11.9548 10.2691 11.9321 10.361 11.9327C10.453 11.9334 10.5432 11.9574 10.6234 12.0025C10.8458 12.12 11.0584 12.2144 11.2934 12.245C11.7452 12.3046 12.2023 12.1823 12.564 11.905C12.7202 11.785 12.839 11.6375 12.9496 11.4731C13.0559 11.3144 13.1721 11.1137 13.3109 10.8731L13.3265 10.8456C13.4659 10.605 13.5815 10.4044 13.6652 10.2331C13.7527 10.0544 13.8215 9.8775 13.8465 9.68312C13.9061 9.23126 13.7838 8.77421 13.5065 8.4125C13.3621 8.22438 13.174 8.0875 12.9615 7.95375C12.8823 7.90691 12.8162 7.84069 12.7697 7.76131C12.7231 7.68193 12.6975 7.59201 12.6952 7.5C12.6952 7.32625 12.7902 7.15375 12.9615 7.04625C13.174 6.9125 13.3615 6.77562 13.5065 6.5875C13.6439 6.40845 13.7447 6.20408 13.8032 5.98607C13.8616 5.76805 13.8765 5.54066 13.8471 5.31687C13.8174 5.12482 13.7561 4.93899 13.6659 4.76687C13.5591 4.55922 13.446 4.35495 13.3265 4.15437L13.3109 4.12688C13.1967 3.92318 13.0762 3.72308 12.9496 3.52688C12.8457 3.36289 12.7154 3.21718 12.564 3.09562C12.385 2.95809 12.1806 2.85716 11.9626 2.79861C11.7446 2.74006 11.5172 2.72503 11.2934 2.75437C11.0584 2.78562 10.8458 2.87937 10.6234 2.9975C10.5433 3.04241 10.4531 3.06625 10.3613 3.0668C10.2694 3.06735 10.179 3.04458 10.0984 3.00063C10.0197 2.95282 9.95456 2.88581 9.90896 2.80589C9.86337 2.72596 9.83886 2.63576 9.83773 2.54375C9.82835 2.2925 9.80398 2.06125 9.71273 1.8425C9.62642 1.63391 9.49987 1.44436 9.3403 1.28468C9.18073 1.125 8.99126 0.998321 8.78273 0.911875C8.60148 0.836875 8.41398 0.8075 8.21585 0.794375C8.02585 0.78125 7.79398 0.78125 7.51585 0.78125H7.4846ZM6.57648 1.77813C6.6246 1.75813 6.69773 1.74 6.84835 1.72938C7.00273 1.71875 7.20273 1.71875 7.50023 1.71875C7.79773 1.71875 7.99773 1.71875 8.1521 1.72938C8.30273 1.74 8.37585 1.75813 8.42398 1.77813C8.61585 1.8575 8.76773 2.00938 8.8471 2.20125C8.8721 2.26125 8.89273 2.35562 8.90085 2.57875C8.9196 3.07375 9.17523 3.55062 9.62898 3.8125C10.0827 4.075 10.6234 4.0575 11.0615 3.82625C11.259 3.72188 11.3509 3.6925 11.4158 3.68438C11.6212 3.65724 11.8289 3.71277 11.9934 3.83875C12.0346 3.87063 12.0871 3.925 12.1715 4.05C12.2584 4.17875 12.3584 4.35188 12.5071 4.60938C12.6559 4.86688 12.7552 5.04062 12.8234 5.17937C12.8902 5.315 12.9109 5.3875 12.9171 5.43937C12.9442 5.64473 12.8887 5.85245 12.7627 6.01687C12.7227 6.06875 12.6515 6.13375 12.4627 6.2525C12.0427 6.51625 11.7577 6.97625 11.7577 7.5C11.7577 8.02375 12.0427 8.48375 12.4627 8.7475C12.6515 8.86625 12.7227 8.93125 12.7627 8.98312C12.889 9.1475 12.944 9.355 12.9171 9.56063C12.9109 9.6125 12.8896 9.68563 12.8234 9.82063C12.7552 9.96 12.6559 10.1331 12.5071 10.3906C12.3584 10.6481 12.2577 10.8212 12.1715 10.95C12.0871 11.075 12.0346 11.1294 11.9934 11.1613C11.8289 11.2872 11.6212 11.3428 11.4158 11.3156C11.3509 11.3075 11.2596 11.2781 11.0615 11.1737C10.624 10.9425 10.0827 10.925 9.62898 11.1869C9.17523 11.4494 8.9196 11.9263 8.90085 12.4213C8.89273 12.6444 8.8721 12.7388 8.8471 12.7987C8.80784 12.8936 8.75026 12.9798 8.67765 13.0524C8.60505 13.125 8.51885 13.1826 8.42398 13.2219C8.37585 13.2419 8.30273 13.26 8.1521 13.2706C7.99773 13.2812 7.79773 13.2812 7.50023 13.2812C7.20273 13.2812 7.00273 13.2812 6.84835 13.2706C6.69773 13.26 6.6246 13.2419 6.57648 13.2219C6.4816 13.1826 6.3954 13.125 6.3228 13.0524C6.25019 12.9798 6.19261 12.8936 6.15335 12.7987C6.12835 12.7388 6.10773 12.6444 6.0996 12.4213C6.08085 11.9263 5.82523 11.4494 5.37148 11.1875C4.91773 10.925 4.3771 10.9425 3.93898 11.1737C3.74148 11.2781 3.6496 11.3075 3.5846 11.3156C3.37925 11.3428 3.17152 11.2872 3.0071 11.1613C2.96585 11.1294 2.91335 11.075 2.82898 10.95C2.71142 10.767 2.59949 10.5805 2.49335 10.3906C2.3446 10.1331 2.24523 9.95938 2.1771 9.82063C2.11023 9.685 2.0896 9.6125 2.08335 9.56063C2.05622 9.35527 2.11174 9.14755 2.23773 8.98312C2.27773 8.93125 2.34898 8.86625 2.53773 8.7475C2.95773 8.48375 3.24273 8.02375 3.24273 7.5C3.24273 6.97625 2.95773 6.51625 2.53773 6.2525C2.34898 6.13375 2.27773 6.06875 2.23773 6.01687C2.11174 5.85245 2.05622 5.64473 2.08335 5.43937C2.0896 5.3875 2.11085 5.31437 2.1771 5.17937C2.24523 5.04 2.3446 4.86688 2.49335 4.60938C2.6421 4.35188 2.74273 4.17875 2.82898 4.05C2.91335 3.925 2.96585 3.87063 3.0071 3.83875C3.17152 3.71277 3.37925 3.65724 3.5846 3.68438C3.6496 3.6925 3.74085 3.72188 3.93898 3.82625C4.37648 4.0575 4.91773 4.075 5.37148 3.8125C5.82523 3.55062 6.08085 3.07375 6.0996 2.57875C6.10773 2.35562 6.12835 2.26125 6.15335 2.20125C6.23273 2.00938 6.3846 1.8575 6.57648 1.77813Z" fill="currentColor"/>
</svg>
