<svg  viewBox="0 0 15 15" fill="none" xmlns="http://www.w3.org/2000/svg">
<path d="M9.9943 0.646656C10.3993 0.412969 10.8617 0.297535 11.329 0.313463C11.7963 0.329392 12.2497 0.476045 12.6378 0.736766C13.026 0.997486 13.3332 1.36182 13.5246 1.7884C13.7161 2.21497 13.7841 2.68668 13.7209 3.14995C13.6576 3.61322 13.4658 4.04949 13.1671 4.40919C12.8684 4.76889 12.4748 5.03762 12.031 5.18484C11.5872 5.33207 11.111 5.35189 10.6566 5.24206C10.2021 5.13224 9.78751 4.89716 9.45993 4.56353L5.53493 6.82978C5.65664 7.26816 5.65664 7.73141 5.53493 8.16978L9.45993 10.436C9.88672 10.0032 10.4565 9.74064 11.0628 9.69736C11.6691 9.65407 12.2704 9.83304 12.7543 10.2008C13.2383 10.5686 13.5717 11.1 13.6924 11.6958C13.8131 12.2915 13.7126 12.9108 13.4099 13.4379C13.1062 13.9659 12.6202 14.3649 12.0431 14.5599C11.4661 14.7548 10.8377 14.7324 10.2759 14.4969C9.71423 14.2613 9.25785 13.8287 8.99251 13.2804C8.72717 12.7321 8.67114 12.1058 8.83493 11.5192L4.90993 9.25228C4.56196 9.60663 4.11638 9.84938 3.62996 9.94959C3.14353 10.0498 2.63829 10.0029 2.1786 9.81496C1.71891 9.62699 1.32558 9.30643 1.04872 8.89412C0.771869 8.48181 0.624023 7.99642 0.624023 7.49978C0.624023 7.00314 0.771869 6.51775 1.04872 6.10544C1.32558 5.69313 1.71891 5.37257 2.1786 5.1846C2.63829 4.99663 3.14353 4.94977 3.62996 5.04998C4.11638 5.15018 4.56196 5.39293 4.90993 5.74728L8.83493 3.48103C8.68681 2.9469 8.72031 2.3787 8.93015 1.86568C9.14 1.35265 9.51432 0.923862 9.9943 0.646656ZM12.3268 2.18728C12.2453 2.04397 12.1363 1.9182 12.006 1.8172C11.8757 1.71619 11.7268 1.64196 11.5677 1.59877C11.4086 1.55558 11.2425 1.54428 11.079 1.56553C10.9156 1.58678 10.7579 1.64015 10.6151 1.72258C10.4724 1.805 10.3473 1.91485 10.2472 2.04581C10.1471 2.17676 10.0738 2.32622 10.0317 2.4856C9.98954 2.64497 9.97935 2.81111 10.0017 2.97444C10.024 3.13777 10.0784 3.29507 10.1618 3.43728C10.3287 3.72204 10.6015 3.92921 10.9207 4.01358C11.2398 4.09795 11.5793 4.05267 11.8652 3.88762C12.151 3.72258 12.36 3.45116 12.4465 3.13261C12.533 2.81406 12.49 2.47423 12.3268 2.18728ZM1.9193 7.82916C1.96997 8.01348 2.06219 8.18375 2.1889 8.32688C2.3156 8.47002 2.47342 8.58222 2.65023 8.65488C2.82704 8.72754 3.01816 8.75872 3.20889 8.74602C3.39963 8.73333 3.58493 8.6771 3.75055 8.58166C3.95276 8.46478 4.11818 8.29359 4.22806 8.0875C4.33794 7.8814 4.38788 7.64865 4.37222 7.41562C4.35656 7.18259 4.27593 6.9586 4.13946 6.76906C4.003 6.57952 3.81616 6.43201 3.60013 6.34324C3.38411 6.25446 3.14753 6.22799 2.91722 6.26682C2.68692 6.30565 2.4721 6.40822 2.29712 6.56291C2.12213 6.7176 1.99399 6.91822 1.92721 7.14203C1.86044 7.36583 1.8577 7.60387 1.9193 7.82916ZM11.8693 11.1054C11.7271 11.022 11.5698 10.9676 11.4065 10.9453C11.2431 10.923 11.077 10.9331 10.9176 10.9753C10.7582 11.0174 10.6088 11.0907 10.4778 11.1908C10.3469 11.2909 10.237 11.416 10.1546 11.5587C10.0722 11.7015 10.0188 11.8592 9.99755 12.0226C9.9763 12.1861 9.9876 12.3522 10.0308 12.5113C10.074 12.6704 10.1482 12.8193 10.2492 12.9496C10.3502 13.0799 10.476 13.1889 10.6193 13.2704C10.9063 13.4336 11.2461 13.4766 11.5646 13.3901C11.8832 13.3036 12.1546 13.0946 12.3196 12.8088C12.4847 12.5229 12.53 12.1834 12.4456 11.8643C12.3612 11.5451 12.1541 11.2723 11.8693 11.1054Z" fill="currentColor"/>
</svg>
