<svg viewBox="0 0 40 40" fill="none" xmlns="http://www.w3.org/2000/svg">
<g clip-path="url(#clip0_1450_843)">
<path d="M11.9438 10.0795C11.9438 12.1269 10.6562 13.788 8.94375 13.788C7.34375 13.788 5.94375 12.1269 5.94375 10.0795C5.94375 8.03219 7.34375 6.37112 8.94375 6.37112C10.6562 6.37112 11.9438 8.03219 11.9438 10.0795ZM24.0625 26.1493H19.4062L24.6625 35.8994C25.275 36.9733 25.0312 38.5725 24.1125 39.3297C23.1875 40.0868 21.95 39.7855 21.3375 38.6498L19.2625 34.8023H3C1.34312 34.8023 0 33.1413 0 31.0939V3.89885C0 1.85072 1.34312 0.19043 3 0.19043H37C38.6562 0.19043 40 1.85072 40 3.89885V31.0939C40 33.1413 38.6562 34.8023 37 34.8023H26.3687L23.7 29.8578H26.5625L24.0625 26.1493ZM3.94375 5.13499V29.8578H7.94375V24.1561C7.94375 19.1188 10.475 14.5992 14.2563 12.7295C16.5188 11.6093 17.9438 8.90521 17.9438 5.89521V5.13499H3.94375ZM22 5.13499V5.89521C22 10.1182 20.2563 13.9811 17.4688 16.2139L17.525 16.3298L20.0875 21.1353H24.5312C25.425 21.1353 26.2687 21.6915 26.8375 22.5414L31.7687 29.8578H36V5.13499H22ZM16.5938 29.8578L12.2937 21.8769C12.1 22.5954 11.9438 23.2985 11.9438 24.1561V29.7882C11.9438 29.7882 11.9438 29.8578 11.9438 29.7882L16.5938 29.8578Z" fill="currentColor"/>
</g>
<defs>
<clipPath id="clip0_1450_843">
<rect width="40" height="39.5564" fill="white" transform="translate(0 0.19043)"/>
</clipPath>
</defs>
</svg>
