<svg viewBox="0 0 256 256" fill="none" xmlns="http://www.w3.org/2000/svg">
<path d="M87.8198 196.31C87.508 199.37 86.5221 202.322 84.9331 204.956C83.3441 207.589 81.1914 209.838 78.6298 211.54C73.4398 215 66.9998 216 61.1398 216C56.0294 215.968 50.9432 215.296 45.9998 214C43.9806 213.409 42.2756 212.046 41.2542 210.206C40.2328 208.367 39.9772 206.199 40.5427 204.172C41.1082 202.146 42.4493 200.424 44.2755 199.379C46.1018 198.334 48.2661 198.05 50.2998 198.59C54.6798 199.79 65.2498 201.29 69.8498 198.23C70.7298 197.64 71.6798 196.71 71.9898 194.3C72.3398 191.63 71.2798 190.2 59.2098 186.71C49.8598 184.01 34.2098 179.48 36.2098 163.6C36.521 160.6 37.4887 157.706 39.0441 155.122C40.5995 152.539 42.7045 150.329 45.2098 148.65C57.0498 140.65 75.9298 145.34 78.0398 145.89C80.0925 146.43 81.8468 147.763 82.9167 149.596C83.9866 151.429 84.2845 153.612 83.7448 155.665C83.205 157.718 81.872 159.472 80.0388 160.542C78.2056 161.612 76.0225 161.91 73.9698 161.37C69.4898 160.2 58.7398 158.81 54.1398 161.93C53.5368 162.337 53.0404 162.882 52.6923 163.521C52.3443 164.16 52.1548 164.873 52.1398 165.6C52.0298 166.5 51.9998 166.69 53.2598 167.5C55.5698 168.99 59.6998 170.18 63.7098 171.34C73.4998 174.17 90.0598 179 87.8198 196.31ZM216 88V112C216 114.122 215.157 116.157 213.657 117.657C212.156 119.157 210.121 120 208 120C205.878 120 203.843 119.157 202.343 117.657C200.843 116.157 200 114.122 200 112V96H152C149.878 96 147.843 95.1571 146.343 93.6569C144.843 92.1566 144 90.1217 144 88V40H55.9998V112C55.9998 114.122 55.1569 116.157 53.6566 117.657C52.1563 119.157 50.1215 120 47.9998 120C45.878 120 43.8432 119.157 42.3429 117.657C40.8426 116.157 39.9998 114.122 39.9998 112V40C39.9998 35.7565 41.6855 31.6869 44.686 28.6863C47.6866 25.6857 51.7563 24 55.9998 24H152C154.119 24.001 156.151 24.8425 157.65 26.34L213.65 82.34C214.394 83.0827 214.985 83.9649 215.388 84.9361C215.791 85.9072 215.999 86.9484 216 88ZM160 80H188.69L160 51.31V80ZM146.7 144.47C145.71 144.116 144.661 143.96 143.611 144.011C142.561 144.063 141.532 144.321 140.582 144.77C139.632 145.22 138.78 145.852 138.074 146.631C137.369 147.41 136.823 148.32 136.47 149.31L124 184.21L111.53 149.31C111.201 148.29 110.671 147.346 109.97 146.535C109.27 145.724 108.414 145.062 107.452 144.588C106.491 144.114 105.444 143.838 104.375 143.777C103.305 143.715 102.233 143.869 101.224 144.23C100.215 144.59 99.2882 145.15 98.4995 145.876C97.7107 146.601 97.0757 147.478 96.6323 148.453C96.1888 149.429 95.946 150.484 95.918 151.555C95.8901 152.627 96.0777 153.693 96.4698 154.69L116.47 210.69C117.024 212.245 118.046 213.59 119.395 214.541C120.744 215.492 122.354 216.002 124.005 216.002C125.655 216.002 127.265 215.492 128.614 214.541C129.963 213.59 130.985 212.245 131.54 210.69L151.54 154.69C152.252 152.693 152.142 150.495 151.235 148.578C150.327 146.662 148.696 145.184 146.7 144.47ZM208 176H200C197.878 176 195.843 176.843 194.343 178.343C192.843 179.843 192 181.878 192 184C192 186.122 192.843 188.157 194.343 189.657C195.843 191.157 197.878 192 200 192V197.29C197.696 199.033 194.889 199.984 192 200C183.18 200 176 191 176 180C176 169 183.18 160 192 160C194.693 160.011 197.319 160.841 199.53 162.38C201.289 163.525 203.427 163.934 205.484 163.517C207.541 163.1 209.352 161.891 210.526 160.152C211.7 158.412 212.144 156.281 211.761 154.217C211.378 152.153 210.2 150.323 208.48 149.12C203.623 145.802 197.882 144.018 192 144C174.36 144 160 160.15 160 180C160 199.85 174.36 216 192 216C196.092 215.967 200.135 215.098 203.88 213.448C207.626 211.797 210.994 209.399 213.78 206.4C215.204 204.911 216 202.93 216 200.87V184C216 181.878 215.157 179.843 213.657 178.343C212.156 176.843 210.121 176 208 176Z" fill="currentColor"/>
</svg>
