<svg width="39" height="10" viewBox="0 0 39 10" fill="none" xmlns="http://www.w3.org/2000/svg">
<path opacity="0.2" d="M9.63489 5C9.63489 7.48361 7.61389 9.5 5.11713 9.5C2.62036 9.5 0.599365 7.48361 0.599365 5C0.599365 2.51639 2.62036 0.5 5.11713 0.5C7.61389 0.5 9.63489 2.51639 9.63489 5Z" stroke="#0000FF"/>
<path opacity="0.5" d="M23.6847 5C23.6847 7.48361 21.6637 9.5 19.1669 9.5C16.6702 9.5 14.6492 7.48361 14.6492 5C14.6492 2.51639 16.6702 0.5 19.1669 0.5C21.6637 0.5 23.6847 2.51639 23.6847 5Z" stroke="#0000FF"/>
<path opacity="0.7" d="M37.7343 5C37.7343 7.48361 35.7133 9.5 33.2165 9.5C30.7197 9.5 28.6987 7.48361 28.6987 5C28.6987 2.51639 30.7197 0.5 33.2165 0.5C35.7133 0.5 37.7343 2.51639 37.7343 5Z" stroke="#0000FF"/>
</svg>
