<svg viewBox="0 0 300 400" fill="none" xmlns="http://www.w3.org/2000/svg">
<path d="M2.5 2.5H147.5V397.5H2.5V2.5Z" fill="#F5F5F5" fill-opacity="0.6" stroke="black" stroke-width="5"/>
<rect x="24.75" y="30.1956" width="101.25" height="201.348" fill="#8FD3FF" fill-opacity="0.58" stroke="black" stroke-width="3"/>
<rect x="24.75" y="262.37" width="101.25" height="117.87" fill="white" fill-opacity="0.3" stroke="black" stroke-width="3"/>
<path d="M152.5 2.5H297.5V258.37H152.5V2.5Z" fill="#F5F5F5" fill-opacity="0.6" stroke="black" stroke-width="5"/>
<rect x="174.75" y="30.1956" width="101.25" height="201.348" fill="#8FD3FF" fill-opacity="0.6" stroke="black" stroke-width="3"/>
<path d="M74.9766 134.652V112.404L78.6126 115.86H70.6566V109.452H83.4726V134.652H74.9766Z" fill="black" fill-opacity="0.42"/>
<path d="M215.057 134.652V129.432L224.165 121.008C224.741 120.456 225.161 119.976 225.425 119.568C225.713 119.16 225.905 118.8 226.001 118.488C226.097 118.152 226.145 117.84 226.145 117.552C226.145 116.928 225.941 116.448 225.533 116.112C225.125 115.752 224.513 115.572 223.697 115.572C222.953 115.572 222.245 115.776 221.573 116.184C220.901 116.568 220.373 117.144 219.989 117.912L213.581 114.708C214.493 112.98 215.861 111.576 217.685 110.496C219.509 109.416 221.777 108.876 224.489 108.876C226.481 108.876 228.245 109.2 229.781 109.848C231.317 110.496 232.517 111.408 233.381 112.584C234.245 113.76 234.677 115.152 234.677 116.76C234.677 117.576 234.569 118.392 234.353 119.208C234.161 120.024 233.753 120.888 233.129 121.8C232.505 122.688 231.581 123.684 230.357 124.788L223.517 131.016L222.185 128.064H235.253V134.652H215.057Z" fill="black" fill-opacity="0.42"/>
<line x1="137" y1="235.652" x2="137" y2="258.261" stroke="black" stroke-width="4"/>
</svg>
