<svg width="24" height="24" viewBox="0 0 24 24" fill="none" xmlns="http://www.w3.org/2000/svg">
<path d="M13.1326 13.0963L9.33891 19.7709C9.12057 20.1067 8.98413 20.3271 8.92952 20.4321C8.82031 20.642 8.76578 20.8519 8.76578 21.0618C8.76578 21.2927 8.85676 21.492 9.03866 21.66C9.22063 21.8279 9.41167 21.9119 9.61187 21.9119L9.47536 22.636H1.86065C1.26022 22.636 0.959961 22.3002 0.959961 21.6285C0.959961 21.5235 0.978187 21.3451 1.01457 21.0932L4.7537 2.64351C4.79008 2.4336 4.70824 2.21845 4.50805 1.99807C4.30793 1.77769 4.10773 1.6675 3.90761 1.6675L4.09866 0.943359H11.6861C12.2683 0.943359 12.5595 1.27925 12.5595 1.94564C12.5595 2.02957 12.5595 2.19752 12.5595 2.44939L10.8673 10.546L14.4427 4.33319C14.6065 4.06029 14.7611 3.80318 14.9067 3.5513C15.0522 3.29942 15.1614 2.99511 15.2342 2.63828C15.2706 2.42836 15.1978 2.21845 15.0159 1.99807C14.8339 1.77769 14.6429 1.6675 14.4427 1.6675L14.5792 0.943359H22.1666C22.4759 0.943359 22.6988 1.03261 22.8353 1.21103C22.9717 1.38944 23.04 1.64656 23.04 1.98237L22.9854 2.45463L19.2735 20.9358C19.2371 21.1458 19.3191 21.3609 19.5192 21.5813C19.7194 21.8017 19.9195 21.9119 20.1196 21.9119L19.9286 22.636H12.3412C11.7589 22.636 11.4678 22.3002 11.4678 21.6285C11.4678 21.5445 11.4678 21.3766 11.4678 21.1247L13.1326 13.0963V13.0963Z" fill="white"/>
<path fill-rule="evenodd" clip-rule="evenodd" d="M10.6693 19.8696L10.2568 20.597L10.2151 20.6597C10.1821 20.7106 10.1491 20.762 10.1163 20.8136H10.474L10.6693 19.8696ZM13.1217 13.297L9.36477 19.9223C9.14854 20.2556 9.01342 20.4744 8.95935 20.5785C8.8512 20.7869 8.79719 20.9953 8.79719 21.2036C8.79719 21.4328 8.88729 21.6307 9.06743 21.7974C9.24763 21.9641 9.43682 22.0474 9.63507 22.0474L9.49988 22.7662H1.95905C1.36443 22.7662 1.06709 22.4328 1.06709 21.7661C1.06709 21.6619 1.08514 21.4848 1.12117 21.2348L4.82403 2.92142C4.86005 2.71306 4.77901 2.4995 4.58076 2.28075C4.38258 2.062 4.18433 1.95262 3.98615 1.95262L4.17534 1.23383H11.6892C12.2658 1.23383 12.5541 1.56725 12.5541 2.2287C12.5541 2.31201 12.5541 2.47872 12.5541 2.72874L10.8784 10.7655L14.4191 4.59862C14.5812 4.32773 14.7344 4.07252 14.8785 3.8225C15.0227 3.57249 15.1308 3.27042 15.2029 2.91622C15.2389 2.70786 15.1669 2.4995 14.9867 2.28075C14.8065 2.062 14.6173 1.95262 14.4191 1.95262L14.5542 1.23383H22.068C22.3743 1.23383 22.595 1.32242 22.7302 1.49952C22.8654 1.67662 22.9329 1.93183 22.9329 2.26516L22.8789 2.73393L19.203 21.0786C19.167 21.2869 19.2481 21.5005 19.4463 21.7192C19.6445 21.938 19.8427 22.0474 20.0409 22.0474L19.8517 22.7662H12.3379C11.7613 22.7662 11.473 22.4328 11.473 21.7661C11.473 21.6828 11.473 21.5161 11.473 21.2661L13.1217 13.297V13.297ZM10.5837 22.8042L10.5419 23.0264L10.3589 24H9.49988H1.95905C1.37628 24 0.905937 23.7994 0.548171 23.3982C0.182772 22.9885 0 22.4443 0 21.7661C0 21.6721 0.00727709 21.5535 0.0219016 21.4105L0.0224015 21.4106C0.0324603 21.3118 0.0486545 21.1856 0.0707697 21.0324L0.083254 20.9553L3.67604 3.18645H2.55045L2.96907 1.59595L3.15826 0.877159L3.38918 0H4.17534H11.6892C12.2681 0 12.7345 0.204077 13.0879 0.610488C13.2486 0.79534 13.373 1.00708 13.4611 1.2453L13.5121 0.973589L13.6952 0H14.5542H22.068C22.3317 0 22.5789 0.0461969 22.8093 0.138664C23.0976 0.25431 23.3367 0.436436 23.5264 0.684967C23.8421 1.09872 24 1.62556 24 2.26516V2.31589L23.9875 2.4242L23.9335 2.89297L23.9248 2.9691L23.9168 3.00861L20.3491 20.8136H21.4767L21.058 22.404L20.8688 23.1228L20.6379 24H19.8517H12.3379C11.7588 24 11.2917 23.7954 10.9369 23.3861L10.9347 23.3885C10.7866 23.2173 10.6696 23.0225 10.5837 22.8042V22.8042ZM13.5527 3.18645L13.3252 4.27775L13.5312 3.91901L13.5437 3.89979L13.5739 3.84948C13.6979 3.64236 13.8155 3.44595 13.9655 3.18645H13.5527Z" fill="#0000FF"/>
</svg>
