<svg viewBox="0 0 565 487" fill="none" xmlns="http://www.w3.org/2000/svg">
<g filter="url(#filter0_i_1493_136)">
<path d="M551.769 474.619H15.1035L14.23 11.6082H552.777L551.769 474.619Z" fill="#16161B"/>
<path d="M14.23 11.6082L14.5927 197.824H52.859V204.075H60.5487V262.285H84.1691V194.469H91.157V137.022H100.082V124.097H117.407H134.732V137.02H143.657V194.467H150.645V210.619H167.214V105.563H259.09V203.564H269.655V170.236H325.7C325.7 176.322 325.7 221.878 325.7 223.402H355.56V164.482L360.728 160.018V144.049L365.953 139.535V123.814L377.064 114.217H384.5H391.937L403.048 123.814V139.535L408.273 144.049V160.018L413.441 164.482V223.402H443.301V187.135H491.465V125.979L552.517 125.656L552.773 11.6091L14.23 11.6082Z" fill="#323339"/>
<path d="M552.52 83.0151L15.1035 318.968V357.03L552.52 125.655V83.0151Z" fill="#0F0F11"/>
<path d="M551.769 169.06L15.1035 404.681V429.097L551.769 189.038V169.06Z" fill="#0F0F11"/>
</g>
<g opacity="0.2">
<g opacity="0.2">
<path d="M470.212 12H456.604V477.656H470.212V12Z" fill="black"/>
</g>
<g opacity="0.2">
<path d="M87.1489 15.064H73.5403V477.655H87.1489V15.064Z" fill="black"/>
</g>
<g opacity="0.2">
<path d="M551.767 55.9934H15.0649V61.9751H551.767V55.9934Z" fill="black"/>
</g>
<g opacity="0.2">
<path d="M551.768 392.79H14.23V398.772H551.768V392.79Z" fill="black"/>
</g>
<path d="M552.826 47.2085H14.23V55.9935H552.826V47.2085Z" fill="#263238"/>
<path d="M92.226 12H78.6174V477.656H92.226V12Z" fill="#263238"/>
<path d="M476.137 12H462.528V477.656H476.137V12Z" fill="#263238"/>
<path d="M552.826 384.968H14.23V393.753H552.826V384.968Z" fill="#263238"/>
<path d="M462.528 384.864C462.528 385.005 380.186 385.119 278.635 385.119C177.049 385.119 94.7256 385.005 94.7256 384.864C94.7256 384.724 177.049 384.609 278.635 384.609C380.186 384.61 462.528 384.724 462.528 384.864Z" fill="#323339"/>
<path d="M551.739 384.8C551.739 384.94 534.915 385.055 514.165 385.055C493.408 385.055 476.586 384.941 476.586 384.8C476.586 384.659 493.408 384.545 514.165 384.545C534.915 384.545 551.739 384.659 551.739 384.8Z" fill="#323339"/>
<path d="M78.9066 384.148C78.9066 384.289 64.698 384.403 47.1751 384.403C29.6454 384.403 15.4402 384.289 15.4402 384.148C15.4402 384.007 29.6454 383.894 47.1751 383.894C64.6969 383.894 78.9066 384.007 78.9066 384.148Z" fill="#323339"/>
<path d="M92.3819 43.4514C92.2192 43.4514 92.0881 36.455 92.0881 27.8257C92.0881 19.1935 92.2192 12.199 92.3819 12.199C92.5435 12.199 92.6757 19.1945 92.6757 27.8257C92.6757 36.455 92.5446 43.4514 92.3819 43.4514Z" fill="#323339"/>
<path d="M433.471 47.2088C433.471 47.3498 357.109 47.4634 262.935 47.4634C168.727 47.4634 92.3818 47.3498 92.3818 47.2088C92.3818 47.0677 168.727 46.9541 262.935 46.9541C357.109 46.9541 433.471 47.0677 433.471 47.2088Z" fill="#323339"/>
<path d="M552.777 47.3604C552.777 47.5014 535.717 47.615 514.679 47.615C493.632 47.615 476.577 47.5014 476.577 47.3604C476.577 47.2193 493.632 47.1057 514.679 47.1057C535.717 47.1057 552.777 47.2203 552.777 47.3604Z" fill="#323339"/>
<path d="M476.124 13.0872C476.286 13.0872 476.418 20.3197 476.418 29.2379C476.418 38.16 476.287 45.3906 476.124 45.3906C475.963 45.3906 475.831 38.16 475.831 29.2379C475.831 20.3197 475.963 13.0872 476.124 13.0872Z" fill="#323339"/>
<path d="M476.912 379.785C476.75 379.785 476.618 311.689 476.618 227.708C476.618 143.698 476.749 75.6165 476.912 75.6165C477.074 75.6165 477.206 143.698 477.206 227.708C477.205 311.689 477.074 379.785 476.912 379.785Z" fill="#323339"/>
<path d="M92.2249 379.785C92.0622 379.785 91.9312 311.689 91.9312 227.708C91.9312 143.698 92.0622 75.6165 92.2249 75.6165C92.3865 75.6165 92.5187 143.698 92.5187 227.708C92.5187 311.689 92.3877 379.785 92.2249 379.785Z" fill="#323339"/>
<path d="M92.2248 477.656C92.0632 477.656 91.9321 448.639 91.9321 431.842C91.9321 415.038 92.0632 401.423 92.2248 401.423C92.3864 401.423 92.5175 415.039 92.5175 431.842C92.5175 448.638 92.3864 477.656 92.2248 477.656Z" fill="#323339"/>
<path d="M476.912 477.656C476.75 477.656 476.619 448.639 476.619 431.842C476.619 415.038 476.75 401.423 476.912 401.423C477.073 401.423 477.204 415.039 477.204 431.842C477.204 448.638 477.073 477.656 476.912 477.656Z" fill="#323339"/>
<path d="M66.9514 47.4651C66.9514 47.6052 56.0254 47.7198 42.5513 47.7198C29.0726 47.7198 18.1489 47.6062 18.1489 47.4651C18.1489 47.3241 29.0726 47.2104 42.5513 47.2104C56.0254 47.2104 66.9514 47.325 66.9514 47.4651Z" fill="#323339"/>
</g>
<g opacity="0.2">
<path d="M373.182 369.274V356.556H357.997C357.997 352.523 357.997 348.49 357.997 344.457C357.997 327.83 357.997 311.201 357.997 294.574C357.997 279.656 357.997 264.74 357.997 249.823C357.997 237.702 357.997 225.58 357.997 213.459C357.997 205.006 357.997 196.554 357.997 188.1C357.997 187.35 357.997 186.6 357.997 185.85C357.997 185.206 357.997 184.562 357.997 183.918C357.997 181.238 357.997 178.558 357.997 175.878C359.325 175.436 360.552 174.74 361.564 173.846C364.478 171.272 365.343 167.612 366.12 164.262C367.036 160.309 367.744 156.224 367.722 152.19C367.704 148.912 367.126 145.093 362.56 144.623C362.403 144.593 362.238 144.573 362.052 144.575C360.114 144.597 358.178 144.62 356.24 144.642C356.24 126.783 356.24 108.922 356.24 91.0627C356.24 76.6127 356.24 62.1639 356.24 47.7139C356.24 36.3279 356.24 24.9419 356.24 13.556C356.24 11.4831 352.358 11.4796 352.358 13.556C352.358 31.676 352.358 49.7961 352.358 67.9162C352.358 82.3662 352.358 96.815 352.358 111.265C352.358 122.406 352.358 133.546 352.358 144.687C351.813 144.692 351.268 144.7 350.721 144.705C348.383 144.732 346.125 145.092 344.723 146.848C343.794 148.009 343.597 149.458 343.381 150.81C343.108 152.527 343.003 154.255 342.985 155.986C342.944 159.771 343.442 163.557 344.593 167.224C345.613 170.478 347.196 173.996 351.009 175.655C352.011 176.09 353.061 176.311 354.114 176.377C354.114 178.89 354.114 181.404 354.114 183.917C354.114 184.562 354.114 185.205 354.114 185.849C354.114 192.623 354.114 199.397 354.114 206.172C354.114 217.489 354.114 228.805 354.114 240.121C354.114 254.39 354.114 268.659 354.114 282.928C354.114 299.205 354.114 315.482 354.114 331.758C354.114 340.024 354.114 348.289 354.114 356.555H260.227C260.867 350.359 261.374 345.666 261.625 343.788C262.896 334.297 264.008 315.21 235.994 318.479C228.335 319.373 221.855 321.002 216.769 322.66C216.17 322.289 215.372 322.1 214.265 322.193L213.687 317.556C213.777 314.993 213.06 312.522 213.06 312.522L212.537 308.313L213.652 273.037C214.305 273.381 214.966 273.728 215.652 274.086C219.012 275.838 222.08 277.392 224.322 278.489C226.565 279.586 227.984 280.227 228.047 280.151L228.83 279.141C239.695 284.821 250.158 289.94 253.263 290.314C263.339 291.532 280.286 253.967 283.922 245.616C288.559 245.982 295.096 246.418 296.603 246.099C298.998 245.59 298.446 241.251 298.446 241.251L299.979 240.207C302.316 237.443 300.759 234.844 300.759 234.844C303.329 231.929 299.55 229.947 299.55 229.947C299.55 229.947 300.122 227.75 298.807 225.376C298.227 224.33 295.72 224.01 293.097 223.98L292.08 215.775L323.395 177.715L312.748 168.75L278.791 209.746L287.13 219.561C285.857 218.811 280.611 220.862 278.791 222.243C276.862 223.706 274.855 229.451 274.855 229.451L272.664 233.564L272.611 233.518L249.807 260.448L245.161 258.042L248.438 253.81L215.194 233.518C214.726 233.219 214.261 232.955 213.795 232.72C213.74 232.453 213.704 232.303 213.704 232.303L211.253 231.758C210.956 231.679 210.66 231.616 210.365 231.561L206.055 230.602C205.353 229.964 201.621 226.969 194.855 228.112L187.891 226.565L186.487 226.595L186.327 224.462C186.341 224.461 186.354 224.461 186.369 224.459L186.235 221.685H186.231C187.337 221.471 199.842 218.817 199.25 208.049C198.951 202.608 197.213 191.445 195.495 181.357C194.958 178.21 193.565 175.326 191.555 172.814C193.771 175.075 194.48 177.715 194.48 177.715C194.48 177.715 198.055 177.243 204.028 174.426C207.532 172.774 213.876 168.185 213.291 165.233C212.824 162.875 210.214 161.119 207.427 160.515C204.64 159.912 199.231 159.921 194.122 160.616C191.53 160.969 189.09 161.426 186.727 161.965C176.542 155.178 162.835 158.446 162.835 158.446C145.648 161.524 142.639 174.921 142.41 177.19C142.064 180.586 143.194 185.021 143.194 185.021L143.449 184.893C143.474 185.367 143.508 185.859 143.556 186.395C143.988 191.184 145.27 193.703 146.609 195.109C144.103 195.478 141.483 196.84 141.944 201.044C142.786 208.726 152.114 206.455 152.105 206.233L153.691 227.299L152.795 227.317L142.565 229.739L142.148 228.748C142.148 228.748 135.539 226.966 132.141 231.948C132.141 231.948 132.182 232.034 132.254 232.179L130.298 232.642V232.633C130.298 232.633 119.247 235.925 114.572 244.915C113.485 247.006 96.7472 271.925 96.7472 271.925L98.3736 272.788L89.3855 285.585C89.3855 285.585 86.9834 292.556 89.0146 295.55C91.0458 298.543 98.8308 304 108.183 296.635L119.302 283.9L121.181 284.897L125.624 279.183C125.883 280.797 126.114 282.167 126.3 283.195L126.95 312.525V313.182C125.719 316.605 126.402 319.805 126.767 321.058C125.972 321.192 125.39 321.429 124.993 321.804C119.58 322.46 104.783 325.393 104.783 337.828L106.328 346.786H106.136C106.188 347.211 106.456 348.355 106.892 350.049L107.66 354.504L108.047 354.406C108.232 355.088 108.426 355.804 108.633 356.556H77.3725C77.3343 355.865 77.2919 355.486 77.2494 355.486C77.2069 355.486 77.1659 355.865 77.1262 356.556H49.2192C49.2192 345.915 49.2192 335.274 49.2192 324.633C49.2192 307.558 49.2192 290.483 49.2192 273.407C49.2192 272.709 49.2192 272.011 49.2192 271.312C49.2192 270.669 49.2192 270.024 49.2192 269.38C49.2192 266.7 49.2192 264.02 49.2192 261.34C50.5469 260.899 51.7741 260.202 52.7862 259.308C55.7006 256.734 56.5654 253.075 57.3425 249.725C58.2583 245.772 58.966 241.688 58.9448 237.653C58.9264 234.376 58.3489 230.556 53.7826 230.087C53.6255 230.056 53.4585 230.036 53.2745 230.038C51.3367 230.061 49.4004 230.083 47.4626 230.105C47.4626 202.67 47.4626 175.234 47.4626 147.799C47.4626 117.992 47.4626 88.1854 47.4626 58.3799C47.4626 43.439 47.4626 28.4981 47.4626 13.556C47.4626 11.4831 43.5801 11.4796 43.5801 13.556C43.5801 41.2522 43.5801 68.9485 43.5801 96.6436C43.5801 126.45 43.5801 156.257 43.5801 186.062C43.5801 200.758 43.5801 215.455 43.5801 230.15C43.0351 230.156 42.4902 230.163 41.9438 230.169C39.6069 230.196 37.3478 230.555 35.9451 232.311C35.0166 233.472 34.8199 234.922 34.6033 236.273C34.3301 237.99 34.2254 239.718 34.207 241.449C34.1659 245.234 34.6642 249.021 35.8149 252.687C36.8355 255.941 38.4179 259.46 42.2311 261.118C43.2333 261.554 44.2835 261.775 45.3366 261.84C45.3366 264.354 45.3366 266.867 45.3366 269.38C45.3366 270.025 45.3366 270.669 45.3366 271.312C45.3366 286.535 45.3366 301.757 45.3366 316.979C45.3366 330.172 45.3366 343.364 45.3366 356.555H27.7355C27.6973 355.864 27.6548 355.485 27.6124 355.485C27.5699 355.485 27.5289 355.864 27.4892 356.555H17.08V369.273H27.2387C27.2189 371.973 27.2076 374.942 27.2076 378.057C27.2076 388.699 27.3392 397.594 27.5161 399.981H14V403.672H17.3376L17.3419 403.697L17.3928 403.991L18.3483 409.515L18.947 412.982L26.9641 459.355H45.3352C45.3352 461.987 45.3352 464.619 45.3352 467.251C45.3352 491.502 45.3352 448.351 45.3352 472.603L47.1942 473.206L49.0731 472.603C49.0731 466.815 49.2178 465.141 49.2178 459.354H77.8878L84.028 412.941C84.2941 412.924 84.4724 412.907 84.4724 412.889C84.4724 412.872 84.2983 412.855 84.0421 412.838L84.4724 409.584L85.2156 403.968C86.9183 403.93 87.8638 403.887 87.8638 403.844C87.8638 403.8 86.9297 403.758 85.2481 403.721L85.2538 403.674H88.4145V399.982H77.3329C77.5098 397.595 77.6429 388.7 77.6429 378.058C77.6429 374.943 77.6316 371.974 77.6117 369.274H112.166C118.35 391.205 127.053 421.141 127.053 421.141L160.792 418.582L152.113 369.274H223.942L222.826 418.553L253.858 421.141C253.858 421.141 256.661 391.991 258.935 369.274H354.113C354.113 369.391 354.113 369.507 354.113 369.624H348.598V375.1H354.113C354.113 377.991 354.113 380.883 354.113 383.775C354.113 401.232 354.113 418.687 354.113 436.144C354.113 452.771 354.113 455.975 354.113 472.603C356.589 473.809 358.468 472.603 358.468 472.603C358.468 456.326 357.995 465.118 357.995 448.842C357.995 431.503 357.995 414.163 357.995 396.824C357.995 389.583 357.995 382.342 357.995 375.1H363.51V369.624H357.995C357.995 369.507 357.995 369.39 357.995 369.274H373.182ZM213.686 271.935L220.929 276.079C219.451 275.288 217.819 274.424 216.089 273.524C215.264 273.094 214.457 272.676 213.676 272.273L213.686 271.935ZM126.142 278.503L126.187 278.446L126.198 278.965C126.18 278.812 126.162 278.66 126.142 278.503ZM45.3352 369.625H40.8044V375.101H45.3352C45.3352 379.375 45.3352 383.649 45.3352 387.922C45.3352 391.942 45.3352 395.962 45.3352 399.981H27.7072C27.8841 397.594 28.0172 388.699 28.0172 378.057C28.0172 374.942 28.0059 371.973 27.9861 369.273H45.3366C45.3352 369.391 45.3352 369.507 45.3352 369.625ZM45.3352 257.508C45.3352 257.855 45.3352 258.201 45.3352 258.547C44.3232 258.417 43.3295 258.014 42.4619 257.245C40.1434 255.189 39.4399 251.822 38.8355 249.153C38.1717 246.218 38.0089 243.237 38.1136 240.256C38.1561 239.077 38.2297 237.891 38.4137 236.72C38.575 235.689 38.6345 234.054 39.948 233.553C40.844 233.212 42.2283 233.388 43.1696 233.377C46.537 233.339 49.9043 233.3 53.2717 233.261C55.8152 233.375 55.0863 238.095 55.0028 239.503C54.8272 242.466 54.3672 245.42 53.7161 248.336C53.1089 251.055 52.5937 254.214 50.5653 256.498C50.169 256.944 49.7047 257.307 49.2164 257.622C49.2164 257.584 49.2164 257.548 49.2164 257.51C49.2192 255.435 45.3352 255.432 45.3352 257.508ZM49.2192 399.982C49.2192 399.118 49.2192 398.254 49.2192 397.389C49.2192 389.96 49.2192 382.531 49.2192 375.101H55.7176V369.625H49.2192C49.2192 369.509 49.2192 369.391 49.2192 369.275H76.8672C76.8474 371.975 76.8361 374.944 76.8361 378.06C76.8361 388.701 76.9677 397.596 77.1461 399.984L49.2192 399.982ZM204.657 356.42C204.548 356.467 204.45 356.51 204.346 356.556H204.147C204.537 356.413 204.924 356.268 205.297 356.13L205.311 356.134C205.1 356.226 204.858 356.333 204.657 356.42ZM205.651 356.556C205.816 356.491 205.983 356.426 206.156 356.359L206.589 356.475L224.231 356.557L205.651 356.556ZM354.114 172.045C354.114 172.391 354.114 172.738 354.114 173.084C353.102 172.954 352.109 172.551 351.241 171.782C348.922 169.725 348.219 166.358 347.615 163.69C346.951 160.755 346.788 157.773 346.894 154.792C346.937 153.613 347.01 152.427 347.194 151.256C347.355 150.225 347.415 148.59 348.729 148.09C349.624 147.748 351.007 147.924 351.95 147.913C355.317 147.874 358.685 147.835 362.052 147.796C364.596 147.91 363.867 152.63 363.785 154.038C363.609 157.002 363.149 159.955 362.498 162.871C361.891 165.59 361.376 168.749 359.347 171.033C358.951 171.48 358.487 171.843 357.998 172.157C357.998 172.12 357.998 172.083 357.998 172.046C357.997 169.972 354.114 169.968 354.114 172.045Z" fill="black"/>
</g>
<path d="M266.311 403.806L261.429 429.082C261.429 429.082 290.283 441.662 289.921 446.406L231.415 440.36L237.102 400.72L266.311 403.806Z" fill="#263238"/>
<path d="M243.658 425.076C242.486 425.219 241.543 426.212 241.662 427.203C241.781 428.194 242.967 429.007 244.141 428.88C245.314 428.754 246.49 427.593 246.24 426.619C245.991 425.647 244.536 424.757 243.43 425.116" fill="#E0E0E0"/>
<path d="M231.415 440.36L232.173 436.382L287.984 443.666C287.984 443.666 290.446 444.89 289.921 446.405L231.415 440.36Z" fill="#455A64"/>
<path d="M262.416 428.928C262.37 429.167 260.925 429.128 259.404 429.758C257.862 430.353 256.982 431.321 256.733 431.198C256.476 431.124 257.118 429.729 258.976 428.996C260.826 428.248 262.511 428.714 262.416 428.928Z" fill="#323339"/>
<path d="M268.232 431.701C268.262 431.94 266.964 432.222 265.841 433.139C264.686 434.03 264.277 435.104 263.994 435.064C263.719 435.075 263.734 433.644 265.155 432.526C266.564 431.398 268.26 431.471 268.232 431.701Z" fill="#323339"/>
<path d="M270.791 438.248C270.523 438.273 270.305 437.029 271.237 435.786C272.157 434.538 273.582 434.158 273.673 434.37C273.804 434.585 272.832 435.202 272.086 436.232C271.312 437.247 271.08 438.254 270.791 438.248Z" fill="#323339"/>
<path d="M262.77 423.067C262.617 423.273 261.356 422.806 259.728 422.732C258.102 422.63 256.777 422.956 256.658 422.734C256.519 422.543 257.879 421.779 259.796 421.89C261.712 421.987 262.938 422.892 262.77 423.067Z" fill="#323339"/>
<path d="M234.863 419.557C234.874 419.389 242.386 419.617 251.637 420.068C260.891 420.518 268.382 421.019 268.371 421.188C268.359 421.356 260.849 421.129 251.595 420.678C242.342 420.227 234.851 419.725 234.863 419.557Z" fill="#455A64"/>
<path d="M167.139 404.604L174.899 433.533L188.304 455.407C189.237 457.216 187.696 462.517 185.493 463.165C184.26 463.528 182.901 463.372 181.83 462.733C175.01 458.671 150.008 443.62 149.796 441.196C149.701 440.121 148.275 435.066 149.61 426.963L142.039 409.726L167.139 404.604Z" fill="#263238"/>
<path d="M189.046 458.163C187.828 455.644 185.816 453.796 182.777 451.805L168.815 441.289L165.341 438.246C162.454 435.717 158.127 434.527 154.073 435.442C150.608 436.224 149.379 437.986 149.644 440.372C149.863 441.574 150.575 442.675 151.666 443.475C154.587 445.615 162.802 451.378 181.711 462.748C182.811 463.409 184.235 463.567 185.492 463.165C188.47 462.769 190.106 460.753 189.046 458.163Z" fill="#455A64"/>
<path d="M120.943 346.785C121.444 350.885 141.87 421.141 141.87 421.141L175.609 418.581L162.97 346.785H120.943Z" fill="#263238"/>
<path d="M175.61 418.583C175.617 418.667 173.735 418.861 170.685 419.119C167.43 419.371 163.314 419.688 158.761 420.04C154.204 420.366 150.084 420.661 146.83 420.895C143.777 421.108 141.886 421.228 141.873 421.142C141.867 421.1 142.332 421.014 143.178 420.895C144.025 420.773 145.255 420.63 146.776 420.466C149.819 420.143 154.035 419.775 158.697 419.433C163.358 419.091 167.583 418.837 170.645 418.691C173.704 418.54 175.602 418.498 175.61 418.583Z" fill="#455A64"/>
<path d="M219.035 327.97C219.035 327.97 231.065 320.783 250.809 318.479C278.825 315.209 277.711 334.297 276.44 343.788C275.278 352.463 268.675 421.14 268.675 421.14L235.437 418.369L239.048 356.556L221.406 356.473L200.596 350.916L219.035 327.97Z" fill="#263238"/>
<path d="M133.291 351.747C133.291 351.747 142.339 359.57 163.815 359.57C178.594 359.57 205.748 361.32 216.054 357.618C237.645 349.862 237.645 347.594 237.645 347.594V321.882C237.645 321.882 186.324 329.329 177.484 326.838C168.646 324.347 141.758 321.621 141.758 321.621C141.758 321.621 119.591 322.61 119.591 337.827L122.467 354.504L133.291 351.747Z" fill="#263238"/>
<path d="M241.644 346.057C241.698 346.124 240.369 346.969 238.125 348.225C235.883 349.482 232.717 351.134 229.119 352.817C225.518 354.498 222.173 355.888 219.716 356.827C217.259 357.768 215.699 358.273 215.658 358.199C215.614 358.119 217.094 357.475 219.486 356.439C221.879 355.403 225.172 353.959 228.758 352.284C232.342 350.608 235.538 349.02 237.845 347.861C240.153 346.702 241.584 345.983 241.644 346.057Z" fill="#455A64"/>
<path d="M149.556 358.685C149.528 358.755 148.219 358.485 146.193 357.823C144.169 357.163 141.446 356.071 138.662 354.557C135.88 353.038 133.587 351.4 132.053 350.122C130.514 348.843 129.696 347.954 129.763 347.905C129.846 347.842 130.797 348.623 132.41 349.808C134.019 350.992 136.326 352.551 139.067 354.047C141.81 355.538 144.449 356.673 146.401 357.427C148.35 358.182 149.593 358.596 149.556 358.685Z" fill="#455A64"/>
<path d="M210.306 181.362C208.458 170.516 196.661 162.642 183.195 163.264L181.858 163.327C167.478 164.678 160.86 175.347 162.921 186.978L166.918 206.24L169.191 236.46L201.678 231.651L200.934 221.71C200.934 221.71 214.681 219.318 214.062 208.053C213.762 202.612 212.024 191.449 210.306 181.362Z" fill="#FFBF9D"/>
<path d="M201.047 221.689C201.047 221.689 192.222 222.531 182.574 218.213C182.574 218.213 187.416 226.117 201.182 224.463L201.047 221.689Z" fill="#FF9A6C"/>
<path d="M207.396 192.33C207.493 193.177 206.688 193.943 205.601 194.04C204.515 194.138 203.554 193.533 203.458 192.685C203.362 191.838 204.166 191.071 205.251 190.974C206.338 190.876 207.3 191.482 207.396 192.33Z" fill="#263238"/>
<path d="M207.711 187.008C207.481 187.229 205.918 186.397 203.786 186.499C201.656 186.578 200.154 187.54 199.909 187.339C199.789 187.25 200.013 186.86 200.665 186.426C201.306 185.994 202.423 185.551 203.751 185.495C205.079 185.44 206.224 185.785 206.893 186.161C207.578 186.539 207.826 186.908 207.711 187.008Z" fill="#263238"/>
<path d="M188.591 193.479C188.688 194.326 187.884 195.09 186.795 195.189C185.709 195.287 184.748 194.681 184.652 193.833C184.556 192.987 185.36 192.221 186.445 192.122C187.534 192.024 188.495 192.631 188.591 193.479Z" fill="#263238"/>
<path d="M186.788 188.3C186.558 188.521 184.992 187.689 182.863 187.793C180.733 187.87 179.231 188.833 178.985 188.632C178.865 188.544 179.085 188.154 179.742 187.72C180.385 187.288 181.5 186.846 182.828 186.789C184.156 186.733 185.301 187.077 185.97 187.454C186.651 187.831 186.902 188.2 186.788 188.3Z" fill="#263238"/>
<path d="M195.422 200.772C195.405 200.673 196.716 200.427 198.848 200.105C199.388 200.034 199.898 199.923 199.967 199.616C200.073 199.291 199.812 198.826 199.512 198.323C198.926 197.278 198.311 196.182 197.666 195.034C195.094 190.348 193.201 186.485 193.434 186.402C193.667 186.32 195.94 190.051 198.511 194.737C199.132 195.892 199.725 196.995 200.29 198.05C200.531 198.542 200.926 199.095 200.695 199.77C200.572 200.107 200.188 200.366 199.846 200.457C199.503 200.559 199.197 200.578 198.928 200.604C196.775 200.799 195.438 200.868 195.422 200.772Z" fill="#263238"/>
<path d="M189.234 202.258C189.579 202.225 189.715 204.103 191.789 205.344C193.86 206.59 196.31 206.265 196.347 206.527C196.388 206.643 195.823 206.917 194.784 206.988C193.765 207.065 192.256 206.866 190.986 206.107C189.721 205.345 189.125 204.279 188.992 203.513C188.851 202.731 189.076 202.254 189.234 202.258Z" fill="#263238"/>
<path d="M186.862 181.494C186.685 181.974 184.54 181.849 182.059 182.21C179.566 182.529 177.592 183.218 177.231 182.81C177.069 182.615 177.389 182.156 178.172 181.663C178.948 181.171 180.208 180.679 181.698 180.474C183.19 180.271 184.577 180.401 185.508 180.66C186.448 180.918 186.937 181.267 186.862 181.494Z" fill="#263238"/>
<path d="M207.648 182.031C207.301 182.44 205.805 182.101 204.037 182.163C202.268 182.176 200.795 182.578 200.423 182.183C200.258 181.991 200.466 181.587 201.093 181.184C201.71 180.783 202.766 180.431 203.98 180.405C205.195 180.381 206.272 180.688 206.914 181.062C207.567 181.436 207.801 181.832 207.648 182.031Z" fill="#263238"/>
<path d="M208.747 175.556C208.747 175.556 204.594 168.675 200.293 167.224C195.084 165.467 193.218 170.085 188.309 169.212C183.401 168.339 178.428 166.652 173.703 169.912C168.533 173.48 171.228 175.691 171.245 180.701C171.313 201.015 167.158 206.953 165.194 197.473C164.979 196.435 159.373 197.542 158.368 186.4C157.85 180.651 158.661 178.745 159.949 174.61C161.037 171.124 163.274 168.646 167.405 165.838C173.924 161.405 183.27 160.884 189.658 161.109C196.045 161.335 208.707 166.702 208.747 175.556Z" fill="#263238"/>
<path d="M165.919 197.832C165.709 196.099 163.769 194.812 161.648 195.076C159.076 195.395 156.282 196.72 156.756 201.051C157.599 208.733 166.926 206.462 166.918 206.24C166.912 206.088 166.306 201.044 165.919 197.832Z" fill="#FFBF9D"/>
<path d="M164.543 203.498C164.499 203.477 164.388 203.603 164.121 203.727C163.861 203.848 163.401 203.951 162.891 203.836C161.859 203.61 160.875 202.383 160.677 201.001C160.577 200.303 160.684 199.624 160.929 199.051C161.156 198.468 161.56 198.044 162.056 197.934C162.547 197.804 162.929 198.023 163.069 198.23C163.219 198.436 163.177 198.593 163.228 198.604C163.256 198.621 163.416 198.461 163.306 198.148C163.249 197.998 163.119 197.825 162.88 197.694C162.636 197.56 162.294 197.508 161.947 197.563C161.222 197.657 160.625 198.249 160.356 198.879C160.047 199.514 159.906 200.277 160.019 201.061C160.25 202.605 161.385 203.983 162.788 204.205C163.468 204.297 164.006 204.094 164.272 203.892C164.546 203.684 164.577 203.509 164.543 203.498Z" fill="#FF9A6C"/>
<path d="M175.462 161.803C175.459 161.83 175.712 161.846 176.147 161.973C176.57 162.101 177.201 162.361 177.691 162.92L177.814 163.061L177.934 162.912C178.753 161.906 180.151 160.597 182.307 159.687C183.378 159.241 184.635 158.91 185.993 158.85C187.343 158.782 188.778 159.033 190.072 159.596C191.078 160.031 191.94 160.635 192.591 161.324C193.23 162.022 193.645 162.81 193.797 163.597L193.844 163.839L194.127 163.761C195.53 163.377 196.996 163.536 198.095 163.968C199.209 164.4 199.948 165.105 200.382 165.744C201.241 167.062 201.036 168.011 201.134 167.996C201.155 167.997 201.219 167.778 201.204 167.361C201.185 166.947 201.079 166.327 200.654 165.629C200.236 164.938 199.478 164.156 198.283 163.661C197.11 163.169 195.526 162.967 193.967 163.374L194.297 163.538C194.146 162.681 193.704 161.82 193.022 161.064C192.327 160.317 191.405 159.67 190.331 159.204C188.952 158.603 187.405 158.339 185.962 158.421C184.518 158.495 183.196 158.86 182.085 159.344C179.851 160.33 178.46 161.721 177.684 162.785L177.929 162.778C177.351 162.184 176.652 161.947 176.193 161.85C175.722 161.758 175.462 161.786 175.462 161.803Z" fill="#455A64"/>
<path d="M165.933 180.367C166.869 182.299 169.586 183.509 172.043 183.085C174.501 182.661 176.413 180.654 176.344 178.573C178.051 179.176 180.145 178.945 181.601 177.99C183.056 177.035 183.813 175.398 183.497 173.881C185.671 175.305 189.407 174.431 190.361 172.272C192.103 173.085 194.323 173.411 196.093 172.643C197.865 171.875 198.788 169.775 197.589 168.448C196.794 167.567 195.388 167.257 194.078 167.087C188.225 166.322 182.072 167.235 176.9 169.637C171.729 172.038 167.573 175.911 165.297 180.452" fill="#263238"/>
<path d="M210.661 174.716C210.661 174.716 207.077 171.12 201.029 170.262C189.795 168.668 174.41 169.161 160.224 183.913L158.006 185.025C158.006 185.025 156.877 180.591 157.222 177.194C157.453 174.925 160.461 161.529 177.649 158.452C177.649 158.452 203.701 152.224 210.661 174.716Z" fill="#0000FF"/>
<g opacity="0.3">
<path d="M210.661 174.716C210.661 174.716 207.077 171.12 201.029 170.262C189.795 168.668 174.41 169.161 160.224 183.913L158.006 185.025C158.006 185.025 156.877 180.591 157.222 177.194C157.453 174.925 160.461 161.529 177.649 158.452C177.649 158.452 203.701 152.224 210.661 174.716Z" fill="black"/>
</g>
<path d="M161.123 182.688C166.857 176.032 174.861 171.741 183.396 168.105C191.932 164.469 199.466 161.909 208.934 160.62C214.044 159.925 219.452 159.916 222.239 160.52C225.026 161.123 227.636 162.879 228.103 165.237C228.688 168.188 222.344 172.778 218.841 174.43C212.867 177.247 209.292 177.719 209.292 177.719C209.292 177.719 207.535 171.13 200.842 169.856C186.938 167.209 160.664 182.958 161.123 182.688Z" fill="#0000FF"/>
<path d="M306.264 232.659L293.334 220.212L333.01 182.022L345.939 194.469L306.264 232.659Z" fill="#FFA000"/>
<path d="M318.138 207.561L312.293 201.935L314.064 200.23L319.909 205.856L318.138 207.561ZM320.655 200.339L317.379 197.184L319.15 195.479L322.427 198.634L320.655 200.339ZM328.16 197.915L322.315 192.289L324.086 190.584L329.931 196.21L328.16 197.915ZM327.347 187.491L329.119 185.786L332.395 188.94L330.624 190.645L327.347 187.491ZM300.61 219.631L297.333 216.477L299.104 214.772L302.381 217.926L300.61 219.631ZM308.114 217.207L302.27 211.581L304.041 209.876L309.885 215.502L308.114 217.207ZM310.633 209.985L307.356 206.83L309.128 205.125L312.404 208.28L310.633 209.985Z" fill="#9E6400"/>
<path d="M299.449 243.963C299.449 243.963 279.41 291.686 268.077 290.316C260.91 289.449 214.508 263.302 214.508 263.302L222.704 238.742L264.622 260.451L287.427 233.522L299.449 243.963Z" fill="#FFBF9D"/>
<path d="M289.67 229.455C289.67 229.455 291.677 223.711 293.606 222.246C295.536 220.783 301.325 218.561 302.134 219.731L301.073 224.368C301.073 224.368 312.307 223.007 313.622 225.379C314.937 227.752 314.365 229.95 314.365 229.95C314.365 229.95 318.145 231.933 315.574 234.848C315.574 234.848 317.133 237.445 314.796 240.209L313.263 241.253C313.263 241.253 313.813 245.592 311.42 246.101C309.026 246.608 293.936 245.209 293.936 245.209L286.972 234.52L289.67 229.455Z" fill="#FFBF9D"/>
<path d="M167.608 227.324L202.705 226.569L228.52 232.307C228.52 232.307 230.284 239.512 229.534 251.378L228.645 267.53L227.355 308.314L229.083 322.193C231.624 321.979 232.607 323.193 233.051 324.898C234.316 326.535 208.295 346.041 193.324 347.62C157.149 349.692 140.963 340.305 139.041 323.885C139.116 322.069 139.872 321.237 141.948 320.995L140.751 266.903L145.112 232.647L167.608 227.324Z" fill="#0000FF"/>
<path d="M122.991 296.633C113.638 303.998 105.854 298.541 103.823 295.548C101.792 292.554 104.194 285.583 104.194 285.583L116.876 267.53L139.989 277.167L122.991 296.633Z" fill="#FFBF9D"/>
<path d="M145.109 232.632C145.109 232.632 134.058 235.924 129.383 244.914C128.295 247.006 111.557 271.925 111.557 271.925L129.37 281.382L135.989 284.896L145.109 273.166V258.923V232.632Z" fill="#0000FF"/>
<path d="M263.254 253.813L230.009 233.522C222.331 228.589 214.732 232.665 209.618 239.513C209.701 239.399 209.534 239.624 209.618 239.513C202.149 249.824 210.045 257.84 213.264 263.213L242.864 280.152L263.254 253.813Z" fill="#0000FF"/>
<path d="M136.469 248.869C136.672 248.849 137.985 257.003 139.403 267.078C140.823 277.155 141.808 285.339 141.607 285.359C141.406 285.378 140.093 277.227 138.673 267.149C137.255 257.074 136.268 248.888 136.469 248.869Z" fill="#263238"/>
<path d="M141.759 321.621C141.759 321.621 148.389 334.555 176.163 335.731C203.937 336.906 229.081 322.193 229.081 322.193L228.032 313.763C228.032 313.763 209.284 328.05 176.423 327.942C147.845 327.848 141.757 312.524 141.757 312.524L141.759 321.621Z" fill="#263238"/>
<path d="M146.952 231.952C146.943 231.965 172.426 283.163 172.426 283.163L178.618 280.151L156.959 228.753C156.959 228.753 150.35 226.971 146.952 231.952Z" fill="#263238"/>
<path d="M209.302 228.172C198.426 242.692 188.083 259.99 178.617 279.68L186.354 282.252C186.354 282.252 207.432 235.835 221 230.731C221 230.731 217.101 226.7 209.302 228.172Z" fill="#263238"/>
<path d="M169.653 286.338C169.653 286.338 142.508 311.097 141.758 313.181C140.176 317.575 141.758 321.621 141.758 321.621L146.952 320.971L173.198 292.534L169.653 286.338Z" fill="#263238"/>
<path d="M178.618 290.344C178.618 290.344 225.45 323.186 226.661 322.214C229.944 319.582 227.879 312.523 227.879 312.523L182.189 285.357L178.618 290.344Z" fill="#263238"/>
<path d="M218.513 267.459C218.565 267.388 219.976 268.032 222.216 269.135C224.455 270.237 227.522 271.796 230.887 273.549C234.251 275.302 237.275 276.919 239.442 278.114C241.609 279.308 242.919 280.082 242.863 280.151C242.806 280.22 241.392 279.573 239.153 278.472C236.914 277.37 233.849 275.813 230.489 274.061C227.13 272.31 224.109 270.695 221.942 269.5C219.775 268.306 218.46 267.531 218.513 267.459Z" fill="#263238"/>
<path d="M175.621 297.281C173.549 296.681 171.96 295.419 171.037 293.914C169.001 290.595 165.1 281.75 165.942 280.006C168.37 274.981 183.696 274.589 187.466 278.877C191.149 283.066 184.983 293.222 182.713 295.536C180.391 297.903 177.716 297.887 175.621 297.281Z" fill="#263238"/>
<path d="M175.621 297.281C175.634 297.192 176.682 297.652 178.604 297.47C179.548 297.354 180.669 296.977 181.665 296.207C182.672 295.446 183.484 294.317 184.311 293.044C185.129 291.767 185.932 290.324 186.639 288.729C187.336 287.137 187.964 285.381 188.186 283.502C188.325 282.565 188.259 281.597 188.028 280.657C187.775 279.711 187.129 278.888 186.22 278.251C184.308 277.031 181.715 276.467 179.108 276.301C176.485 276.136 173.875 276.33 171.504 276.906C170.338 277.225 169.197 277.6 168.264 278.177C167.279 278.687 166.564 279.499 166.219 280.274C166.056 281.088 166.342 282.07 166.56 282.929C166.798 283.809 167.089 284.657 167.386 285.472C167.987 287.103 168.626 288.603 169.248 289.961C170.515 292.662 171.552 294.898 173.098 295.921C174.551 296.995 175.664 297.217 175.621 297.281C175.616 297.296 175.345 297.253 174.86 297.091C174.379 296.927 173.679 296.634 172.909 296.103C172.145 295.577 171.311 294.79 170.696 293.727C170.06 292.688 169.42 291.477 168.762 290.122C168.107 288.766 167.434 287.265 166.803 285.626C166.489 284.805 166.183 283.952 165.928 283.053C165.705 282.144 165.365 281.249 165.558 280.149C165.981 279.135 166.786 278.286 167.852 277.707C168.87 277.074 170.069 276.675 171.292 276.338C173.767 275.727 176.452 275.525 179.167 275.695C181.864 275.874 184.561 276.435 186.676 277.791C187.697 278.5 188.444 279.483 188.71 280.522C188.959 281.553 189.012 282.583 188.86 283.557C188.608 285.514 187.942 287.294 187.21 288.906C186.467 290.519 185.627 291.969 184.767 293.251C183.903 294.52 183.033 295.675 181.939 296.46C180.859 297.252 179.637 297.623 178.638 297.706C177.63 297.782 176.857 297.646 176.359 297.525C175.859 297.402 175.616 297.295 175.621 297.281Z" fill="#455A64"/>
<path d="M370.882 145.423C370.882 127.342 370.882 109.26 370.882 91.1777C370.882 76.7066 370.882 62.2366 370.882 47.7654C370.882 36.3618 370.882 24.9583 370.882 13.5547C370.882 11.6697 367.351 11.6662 367.351 13.5547C367.351 31.636 367.351 49.7173 367.351 67.7998C367.351 82.2709 367.351 96.7409 367.351 111.212C367.351 122.616 367.351 134.019 367.351 145.423C367.35 147.308 370.882 147.311 370.882 145.423Z" fill="#263238"/>
<path d="M368.489 183.08C368.489 188.374 368.489 193.667 368.489 198.961C368.489 206.628 368.489 214.294 368.489 221.961C368.489 231.49 368.489 241.018 368.489 250.547C368.489 261.319 368.489 272.091 368.489 282.864C368.489 294.293 368.489 305.723 368.489 317.152C368.489 328.597 368.489 340.042 368.489 351.487C368.489 362.474 368.489 373.461 368.489 384.448C368.489 394.334 368.489 404.221 368.489 414.106C368.489 422.271 368.489 430.435 368.489 438.6C368.489 444.537 368.489 463.693 368.489 469.63C368.489 470.667 368.489 471.704 368.489 472.742C368.489 474.163 372.247 474.165 372.247 472.742C372.247 467.448 372.247 448.936 372.247 443.642C372.247 435.976 372.247 428.309 372.247 420.643C372.247 411.114 372.247 401.586 372.247 392.057C372.247 381.285 372.247 370.512 372.247 359.74C372.247 348.311 372.247 336.881 372.247 325.452C372.247 314.007 372.247 302.561 372.247 291.116C372.247 280.13 372.247 269.143 372.247 258.156C372.247 248.27 372.247 238.383 372.247 228.498C372.247 220.333 372.247 212.168 372.247 204.004C372.247 198.067 372.247 192.13 372.247 186.192C372.247 185.155 372.247 184.118 372.247 183.08C372.247 181.659 368.489 181.657 368.489 183.08Z" fill="#263238"/>
<path d="M369.107 172.044C369.107 176.646 369.107 181.248 369.107 185.85C369.107 187.735 372.638 187.738 372.638 185.85C372.638 181.248 372.638 176.646 372.638 172.044C372.638 170.159 369.107 170.156 369.107 172.044Z" fill="#E0E0E0"/>
<path d="M376.869 147.65C379.604 147.773 378.868 152.515 378.777 154.038C378.601 157.014 378.137 159.981 377.485 162.91C376.873 165.65 376.348 168.822 374.303 171.121C372.184 173.505 368.515 174.165 365.935 171.885C363.591 169.813 362.873 166.422 362.263 163.729C361.596 160.78 361.429 157.787 361.535 154.793C361.578 153.613 361.653 152.428 361.835 151.257C362.005 150.165 362.08 148.501 363.458 147.964C364.379 147.606 365.794 147.779 366.768 147.768C370.134 147.728 373.502 147.689 376.869 147.65C379.139 147.625 379.145 144.694 376.869 144.72C373.093 144.764 369.315 144.807 365.538 144.852C363.262 144.878 361.064 145.212 359.691 146.921C358.778 148.058 358.586 149.485 358.373 150.81C358.099 152.527 357.995 154.255 357.977 155.985C357.936 159.759 358.433 163.53 359.579 167.185C360.588 170.4 362.143 173.892 365.915 175.529C369.455 177.065 373.604 176.085 376.256 173.743C379.148 171.188 379.997 167.545 380.767 164.223C381.68 160.283 382.385 156.211 382.364 152.19C382.345 148.881 381.8 144.941 376.869 144.72C374.599 144.619 374.606 147.548 376.869 147.65Z" fill="#E0E0E0"/>
<path d="M62.1024 230.886C62.1024 203.152 62.1024 175.418 62.1024 147.686C62.1024 117.846 62.1024 88.0066 62.1024 58.1659C62.1024 43.2954 62.1024 28.4261 62.1024 13.5557C62.1024 11.6707 58.5723 11.6672 58.5723 13.5557C58.5723 41.2895 58.5723 69.0233 58.5723 96.756C58.5723 126.596 58.5723 156.436 58.5723 186.276C58.5723 201.146 58.5723 216.016 58.5723 230.886C58.5723 232.771 62.1024 232.775 62.1024 230.886Z" fill="#263238"/>
<path d="M60.3467 268.589C60.3467 278.378 60.3467 288.166 60.3467 297.955C60.3467 311.473 60.3467 324.992 60.3467 338.51C60.3467 353.475 60.3467 368.439 60.3467 383.402C60.3467 397.216 60.3467 411.03 60.3467 424.843C60.3467 435.226 60.3467 458.462 60.3467 468.845C60.3467 469.747 60.3467 471.939 60.3467 472.842C60.3467 474.13 64.1045 474.132 64.1045 472.842C64.1045 463.053 64.1045 439.122 64.1045 429.334C64.1045 415.816 64.1045 402.297 64.1045 388.779C64.1045 373.815 64.1045 358.851 64.1045 343.887C64.1045 330.073 64.1045 316.259 64.1045 302.446C64.1045 292.063 64.1045 281.681 64.1045 271.298C64.1045 270.396 64.1045 269.493 64.1045 268.59C64.1045 267.301 60.3467 267.299 60.3467 268.589Z" fill="#263238"/>
<path d="M60.3289 257.508C60.3289 262.109 60.3289 266.712 60.3289 271.313C60.3289 273.198 63.8604 273.202 63.8604 271.313C63.8604 266.712 63.8604 262.11 63.8604 257.508C63.8604 255.623 60.3289 255.619 60.3289 257.508Z" fill="#E0E0E0"/>
<path d="M68.0911 233.114C70.8258 233.236 70.0898 237.978 69.9992 239.502C69.8237 242.478 69.3594 245.444 68.7069 248.373C68.0954 251.113 67.5702 254.285 65.5249 256.585C63.406 258.969 59.7371 259.629 57.1568 257.348C54.8128 255.276 54.0952 251.886 53.4851 249.193C52.8184 246.244 52.6514 243.25 52.7576 240.257C52.8 239.077 52.875 237.892 53.0576 236.721C53.2275 235.628 53.3025 233.964 54.6797 233.428C55.6012 233.069 57.0166 233.242 57.9905 233.231C61.3564 233.192 64.7238 233.153 68.0911 233.114C70.3615 233.088 70.3672 230.158 68.0911 230.184C64.3147 230.227 60.5369 230.271 56.7604 230.314C54.4844 230.34 52.2862 230.675 50.9132 232.384C50.0003 233.52 49.8078 234.947 49.5954 236.272C49.3208 237.989 49.2175 239.718 49.1991 241.448C49.1581 245.221 49.6549 248.991 50.8014 252.647C51.8106 255.862 53.3648 259.354 57.137 260.991C60.677 262.527 64.8271 261.548 67.4782 259.205C70.37 256.65 71.2193 253.009 71.9893 249.685C72.9022 245.745 73.6071 241.673 73.5859 237.652C73.5675 234.344 73.0226 230.405 68.0911 230.184C65.8208 230.084 65.8264 233.013 68.0911 233.114Z" fill="#E0E0E0"/>
<path d="M388 356.556H31.8982V369.274H388V356.556Z" fill="#AE7461"/>
<path d="M378.328 369.625H363.417V375.101H378.328V369.625Z" fill="#263238"/>
<path d="M70.5346 369.625H55.6228V375.101H70.5346V369.625Z" fill="#263238"/>
<path d="M34.7319 401.948L45.3818 463.546H98.2149L106.335 402.16L34.7319 401.948Z" fill="#455A64"/>
<path d="M109.136 401.948H31.9319V405.778H109.136V401.948Z" fill="#455A64"/>
<path d="M108.563 405.955C108.563 406.124 91.4065 406.221 70.2483 406.173C49.0831 406.123 31.9307 405.947 31.9307 405.779C31.9307 405.611 49.0845 405.514 70.2497 405.563C91.4079 405.61 108.565 405.786 108.563 405.955Z" fill="#263238"/>
<path d="M105.046 411.911C105.046 412.079 89.7674 412.216 70.9249 412.216C52.0754 412.216 36.8013 412.08 36.8013 411.911C36.8013 411.742 52.0768 411.605 70.9249 411.605C89.7674 411.605 105.046 411.742 105.046 411.911Z" fill="#263238"/>
<path d="M105.046 415.339C105.046 415.507 89.8227 415.644 71.0481 415.644C52.2665 415.644 37.0476 415.508 37.0476 415.339C37.0476 415.169 52.2679 415.033 71.0481 415.033C89.8227 415.033 105.046 415.171 105.046 415.339Z" fill="#263238"/>
<path d="M46.054 355.784C46.2565 355.784 46.4221 366.271 46.4221 379.203C46.4221 392.141 46.2579 402.625 46.054 402.625C45.8502 402.625 45.686 392.141 45.686 379.203C45.686 366.271 45.8502 355.784 46.054 355.784Z" fill="#263238"/>
<path d="M97.5413 355.784C97.7452 355.784 97.9094 366.271 97.9094 379.203C97.9094 392.141 97.7452 402.625 97.5413 402.625C97.3389 402.625 97.1733 392.141 97.1733 379.203C97.1733 366.271 97.3375 355.784 97.5413 355.784Z" fill="#263238"/>
<defs>
<filter id="filter0_i_1493_136" x="14.23" y="11.6082" width="538.547" height="467.01" filterUnits="userSpaceOnUse" color-interpolation-filters="sRGB">
<feFlood flood-opacity="0" result="BackgroundImageFix"/>
<feBlend mode="normal" in="SourceGraphic" in2="BackgroundImageFix" result="shape"/>
<feColorMatrix in="SourceAlpha" type="matrix" values="0 0 0 0 0 0 0 0 0 0 0 0 0 0 0 0 0 0 127 0" result="hardAlpha"/>
<feOffset dy="4"/>
<feGaussianBlur stdDeviation="32"/>
<feComposite in2="hardAlpha" operator="arithmetic" k2="-1" k3="1"/>
<feColorMatrix type="matrix" values="0 0 0 0 0.196078 0 0 0 0 0.2 0 0 0 0 0.223529 0 0 0 1 0"/>
<feBlend mode="normal" in2="shape" result="effect1_innerShadow_1493_136"/>
</filter>
</defs>
</svg>
