<svg viewBox="0 0 565 487" fill="none" xmlns="http://www.w3.org/2000/svg">
<g filter="url(#filter0_i_1493_136)">
<path d="M551.769 474.618H15.1035L14.23 11.6079H552.777L551.769 474.618Z" fill="#E0E0E0"/>
<path d="M14.23 11.6079L14.5927 197.824H52.859V204.075H60.5487V262.284H84.1691V194.469H91.157V137.022H100.082V124.097H117.407H134.732V137.02H143.657V194.467H150.645V210.619H167.214V105.563H259.09V203.564H269.655V170.236H325.7C325.7 176.322 325.7 221.878 325.7 223.401H355.56V164.482L360.728 160.018V144.049L365.953 139.535V123.814L377.064 114.217H384.5H391.937L403.048 123.814V139.535L408.273 144.049V160.018L413.441 164.482V223.401H443.301V187.134H491.465V125.979L552.517 125.656L552.773 11.6089L14.23 11.6079Z" fill="#F5F5F5"/>
<path d="M552.52 83.0146L15.1035 318.967V357.029L552.52 125.654V83.0146Z" fill="#FAFAFA"/>
<path d="M551.769 169.06L15.1035 404.681V429.097L551.769 189.038V169.06Z" fill="#FAFAFA"/>
</g>
<g opacity="0.1">
<g opacity="0.2">
<path d="M470.212 14.6079H456.604V477.656H470.212V14.6079Z" fill="black"/>
</g>
<g opacity="0.2">
<path d="M87.1489 17.6548H73.5403V477.655H87.1489V17.6548Z" fill="black"/>
</g>
<g opacity="0.2">
<path d="M551.767 58.355H15.0649V64.3032H551.767V58.355Z" fill="black"/>
</g>
<g opacity="0.2">
<path d="M551.768 393.265H14.23V399.213H551.768V393.265Z" fill="black"/>
</g>
<path d="M552.826 49.6191H14.23V58.3549H552.826V49.6191Z" fill="#263238"/>
<path d="M92.226 14.6079H78.6174V477.656H92.226V14.6079Z" fill="#263238"/>
<path d="M476.137 14.6079H462.528V477.656H476.137V14.6079Z" fill="#263238"/>
<path d="M552.826 385.487H14.23V394.223H552.826V385.487Z" fill="#263238"/>
<path d="M462.528 385.384C462.528 385.524 380.186 385.637 278.635 385.637C177.049 385.637 94.7256 385.524 94.7256 385.384C94.7256 385.244 177.049 385.13 278.635 385.13C380.186 385.131 462.528 385.244 462.528 385.384Z" fill="white"/>
<path d="M551.739 385.32C551.739 385.459 534.915 385.573 514.165 385.573C493.408 385.573 476.586 385.46 476.586 385.32C476.586 385.18 493.408 385.067 514.165 385.067C534.915 385.067 551.739 385.18 551.739 385.32Z" fill="white"/>
<path d="M78.9066 384.672C78.9066 384.811 64.698 384.925 47.1751 384.925C29.6454 384.925 15.4402 384.812 15.4402 384.672C15.4402 384.532 29.6454 384.419 47.1751 384.419C64.6969 384.419 78.9066 384.532 78.9066 384.672Z" fill="white"/>
<path d="M92.3819 45.8831C92.2192 45.8831 92.0881 38.9258 92.0881 30.3449C92.0881 21.761 92.2192 14.8057 92.3819 14.8057C92.5435 14.8057 92.6757 21.762 92.6757 30.3449C92.6757 38.9258 92.5446 45.8831 92.3819 45.8831Z" fill="white"/>
<path d="M433.471 49.6194C433.471 49.7597 357.109 49.8727 262.935 49.8727C168.727 49.8727 92.3818 49.7597 92.3818 49.6194C92.3818 49.4792 168.727 49.3662 262.935 49.3662C357.109 49.3662 433.471 49.4792 433.471 49.6194Z" fill="white"/>
<path d="M552.777 49.7703C552.777 49.9106 535.717 50.0236 514.679 50.0236C493.632 50.0236 476.577 49.9106 476.577 49.7703C476.577 49.6301 493.632 49.5171 514.679 49.5171C535.717 49.5171 552.777 49.631 552.777 49.7703Z" fill="white"/>
<path d="M476.124 15.689C476.286 15.689 476.418 22.881 476.418 31.7492C476.418 40.6214 476.287 47.8115 476.124 47.8115C475.963 47.8115 475.831 40.6214 475.831 31.7492C475.831 22.881 475.963 15.689 476.124 15.689Z" fill="white"/>
<path d="M476.912 380.333C476.75 380.333 476.618 312.619 476.618 229.108C476.618 145.568 476.749 77.8682 476.912 77.8682C477.074 77.8682 477.206 145.568 477.206 229.108C477.205 312.619 477.074 380.333 476.912 380.333Z" fill="white"/>
<path d="M92.2249 380.333C92.0622 380.333 91.9312 312.619 91.9312 229.108C91.9312 145.568 92.0622 77.8682 92.2249 77.8682C92.3865 77.8682 92.5187 145.568 92.5187 229.108C92.5187 312.619 92.3877 380.333 92.2249 380.333Z" fill="white"/>
<path d="M92.2248 477.656C92.0632 477.656 91.9321 448.801 91.9321 432.098C91.9321 415.389 92.0632 401.85 92.2248 401.85C92.3864 401.85 92.5175 415.39 92.5175 432.098C92.5175 448.8 92.3864 477.656 92.2248 477.656Z" fill="white"/>
<path d="M476.912 477.656C476.75 477.656 476.619 448.801 476.619 432.098C476.619 415.389 476.75 401.85 476.912 401.85C477.073 401.85 477.204 415.39 477.204 432.098C477.204 448.8 477.073 477.656 476.912 477.656Z" fill="white"/>
<path d="M66.9514 49.8743C66.9514 50.0136 56.0254 50.1276 42.5513 50.1276C29.0726 50.1276 18.1489 50.0146 18.1489 49.8743C18.1489 49.7341 29.0726 49.6211 42.5513 49.6211C56.0254 49.6211 66.9514 49.7351 66.9514 49.8743Z" fill="white"/>
</g>
<g opacity="0.2">
<path d="M320.747 387.304V376.757H308.624C308.624 373.412 308.624 370.067 308.624 366.723C308.624 352.933 308.624 339.142 308.624 325.352C308.624 312.98 308.624 300.61 308.624 288.238C308.624 278.185 308.624 268.132 308.624 258.08C308.624 251.069 308.624 244.059 308.624 237.048C308.624 236.426 308.624 235.804 308.624 235.182C308.624 234.648 308.624 234.114 308.624 233.58C308.624 231.357 308.624 229.135 308.624 226.912C309.684 226.546 310.664 225.968 311.471 225.227C313.798 223.092 314.489 220.057 315.109 217.278C315.84 214 316.405 210.612 316.388 207.266C316.373 204.548 315.912 201.38 312.267 200.991C312.142 200.965 312.009 200.949 311.861 200.951C310.314 200.969 308.769 200.988 307.222 201.006C307.222 186.195 307.222 171.382 307.222 156.571C307.222 144.586 307.222 132.603 307.222 120.619C307.222 111.176 307.222 101.733 307.222 92.2904C307.222 90.5713 304.122 90.5684 304.122 92.2904C304.122 107.318 304.122 122.346 304.122 137.374C304.122 149.358 304.122 161.341 304.122 173.325C304.122 182.565 304.122 191.804 304.122 201.043C303.687 201.048 303.252 201.054 302.816 201.059C300.949 201.081 299.147 201.379 298.027 202.836C297.285 203.799 297.128 205.001 296.956 206.122C296.737 207.546 296.654 208.979 296.639 210.414C296.606 213.553 297.004 216.694 297.923 219.734C298.738 222.433 300.001 225.351 303.045 226.727C303.845 227.088 304.684 227.271 305.524 227.326C305.524 229.41 305.524 231.494 305.524 233.579C305.524 234.114 305.524 234.647 305.524 235.181C305.524 240.799 305.524 246.417 305.524 252.036C305.524 261.422 305.524 270.807 305.524 280.192C305.524 292.026 305.524 303.86 305.524 315.694C305.524 329.193 305.524 342.692 305.524 356.191C305.524 363.046 305.524 369.901 305.524 376.756H230.571C231.082 371.617 231.487 367.725 231.687 366.168C232.701 358.297 233.59 342.466 211.225 345.178C205.11 345.919 199.937 347.27 195.877 348.645C195.399 348.338 194.762 348.181 193.878 348.258L193.417 344.412C193.488 342.287 192.916 340.238 192.916 340.238L192.498 336.747L193.389 307.491C193.91 307.776 194.437 308.064 194.985 308.361C197.668 309.814 200.117 311.102 201.907 312.012C203.698 312.922 204.83 313.454 204.881 313.39L205.506 312.553C214.18 317.264 222.533 321.509 225.012 321.819C233.055 322.829 246.585 291.675 249.488 284.749C253.189 285.053 258.408 285.414 259.611 285.149C261.523 284.728 261.083 281.129 261.083 281.129L262.306 280.263C264.172 277.971 262.929 275.815 262.929 275.815C264.981 273.398 261.964 271.754 261.964 271.754C261.964 271.754 262.42 269.931 261.371 267.963C260.907 267.095 258.906 266.83 256.812 266.805L256 260L281 228.435L272.5 221L245.391 255L252.048 263.141C251.032 262.518 246.845 264.219 245.391 265.364C243.851 266.578 242.249 271.343 242.249 271.343L240.5 274.754L240.458 274.716L222.252 297.05L218.544 295.055L221.16 291.545L194.619 274.716C194.246 274.467 193.875 274.248 193.503 274.053C193.459 273.832 193.431 273.708 193.431 273.708L191.473 273.256C191.236 273.19 191 273.138 190.765 273.092L187.324 272.297C186.764 271.768 183.784 269.284 178.382 270.232L172.823 268.949L171.702 268.974L171.574 267.205C171.585 267.204 171.596 267.204 171.608 267.202L171.501 264.902H171.497C172.381 264.724 182.363 262.523 181.891 253.593C181.653 249.08 180.265 239.822 178.893 231.456C178.465 228.846 177.353 226.454 175.748 224.371C177.517 226.246 178.083 228.435 178.083 228.435C178.083 228.435 180.937 228.044 185.706 225.708C188.503 224.338 193.567 220.532 193.101 218.084C192.728 216.128 190.644 214.672 188.419 214.171C186.194 213.67 181.876 213.678 177.797 214.255C175.728 214.547 173.78 214.926 171.894 215.373C163.762 209.744 152.819 212.455 152.819 212.455C139.099 215.008 136.697 226.118 136.514 228C136.238 230.817 137.14 234.494 137.14 234.494L137.343 234.388C137.363 234.782 137.39 235.19 137.429 235.634C137.774 239.606 138.797 241.695 139.866 242.861C137.865 243.167 135.773 244.297 136.142 247.784C136.814 254.155 144.261 252.271 144.254 252.087L145.52 269.557L144.804 269.573L136.638 271.581L136.305 270.759C136.305 270.759 131.029 269.282 128.315 273.414C128.315 273.414 128.348 273.485 128.406 273.605L126.844 273.989V273.981C126.844 273.981 118.022 276.711 114.29 284.167C113.422 285.902 100.06 306.568 100.06 306.568L101.358 307.284L94.1827 317.897C94.1827 317.897 92.2651 323.679 93.8866 326.161C95.5082 328.644 101.723 333.169 109.189 327.061L118.066 316.499L119.566 317.326L123.113 312.588C123.32 313.926 123.504 315.063 123.653 315.915L124.172 340.24V340.785C123.189 343.623 123.734 346.277 124.026 347.317C123.391 347.428 122.926 347.625 122.609 347.935C118.288 348.48 106.475 350.912 106.475 361.225L107.709 368.654H107.555C107.597 369.007 107.81 369.955 108.159 371.36L108.772 375.055L109.081 374.973C109.229 375.539 109.383 376.134 109.548 376.757H84.5924C84.5619 376.184 84.5279 375.87 84.494 375.87C84.4601 375.87 84.4274 376.184 84.3957 376.757H62.1167C62.1167 367.931 62.1167 359.107 62.1167 350.282C62.1167 336.121 62.1167 321.96 62.1167 307.798C62.1167 307.218 62.1167 306.64 62.1167 306.06C62.1167 305.526 62.1167 304.992 62.1167 304.458C62.1167 302.235 62.1167 300.012 62.1167 297.79C63.1766 297.424 64.1563 296.846 64.9643 296.105C67.2909 293.97 67.9814 290.935 68.6017 288.157C69.3328 284.878 69.8978 281.491 69.8809 278.145C69.8662 275.427 69.4052 272.259 65.7598 271.87C65.6344 271.844 65.501 271.828 65.3541 271.83C63.8071 271.848 62.2613 271.867 60.7143 271.885C60.7143 249.132 60.7143 226.378 60.7143 203.624C60.7143 178.904 60.7143 154.184 60.7143 129.465C60.7143 117.074 60.7143 104.683 60.7143 92.2904C60.7143 90.5713 57.6147 90.5684 57.6147 92.2904C57.6147 115.26 57.6147 138.23 57.6147 161.199C57.6147 185.919 57.6147 210.639 57.6147 235.358C57.6147 247.546 57.6147 259.735 57.6147 271.922C57.1797 271.927 56.7446 271.933 56.3085 271.938C54.4428 271.96 52.6393 272.258 51.5195 273.714C50.7782 274.678 50.6212 275.88 50.4483 277.001C50.2302 278.425 50.1466 279.858 50.1319 281.293C50.0991 284.432 50.4969 287.573 51.4156 290.613C52.2303 293.312 53.4936 296.23 56.5378 297.606C57.3379 297.967 58.1763 298.15 59.0171 298.205C59.0171 300.289 59.0171 302.373 59.0171 304.458C59.0171 304.993 59.0171 305.526 59.0171 306.06C59.0171 318.685 59.0171 331.309 59.0171 343.934C59.0171 354.875 59.0171 365.816 59.0171 376.756H44.9655C44.935 376.183 44.9011 375.869 44.8672 375.869C44.8333 375.869 44.8005 376.183 44.7689 376.756H36.4589V387.303H44.5689C44.5531 389.543 44.544 392.005 44.544 394.589C44.544 403.414 44.6491 410.791 44.7904 412.772H34V415.833H36.6645L36.6679 415.853L36.7086 416.097L37.4714 420.678L37.9493 423.554L44.3497 462.013H59.0159C59.0159 464.196 59.0159 466.379 59.0159 468.561C59.0159 488.674 59.0159 452.887 59.0159 473L60.5 473.5L62 473C62 468.2 62.1155 466.812 62.1155 462.012H85.0037L89.9056 423.52C90.1181 423.506 90.2604 423.491 90.2604 423.477C90.2604 423.462 90.1214 423.448 89.9169 423.434L90.2604 420.736L90.8537 416.078C92.2131 416.046 92.9679 416.011 92.9679 415.975C92.9679 415.939 92.2221 415.904 90.8797 415.873L90.8842 415.834H93.4075V412.772H84.5607C84.702 410.792 84.8082 403.415 84.8082 394.59C84.8082 392.006 84.7991 389.544 84.7833 387.304H112.369C117.306 405.493 124.254 430.32 124.254 430.32L151.189 428.198L144.26 387.304H201.604L200.712 428.174L225.486 430.32C225.486 430.32 227.724 406.144 229.54 387.304H305.523C305.523 387.402 305.523 387.498 305.523 387.595H301.121V392.136H305.523C305.523 394.534 305.523 396.932 305.523 399.331C305.523 413.809 305.523 428.285 305.523 442.763C305.523 456.553 305.523 459.21 305.523 473C307.5 474 309 473 309 473C309 459.501 308.623 466.792 308.623 453.294C308.623 438.914 308.623 424.534 308.623 410.153C308.623 404.148 308.623 398.142 308.623 392.136H313.025V387.595H308.623C308.623 387.498 308.623 387.401 308.623 387.304H320.747ZM193.416 306.576L199.198 310.014C198.018 309.357 196.715 308.641 195.335 307.894C194.676 307.538 194.032 307.191 193.408 306.857L193.416 306.576ZM123.527 312.024L123.563 311.976L123.572 312.407C123.557 312.28 123.542 312.154 123.527 312.024ZM59.0159 387.596H55.3988V392.137H59.0159C59.0159 395.682 59.0159 399.226 59.0159 402.77C59.0159 406.104 59.0159 409.438 59.0159 412.772H44.9429C45.0842 410.791 45.1904 403.414 45.1904 394.589C45.1904 392.005 45.1813 389.543 45.1655 387.303H59.0171C59.0159 387.402 59.0159 387.498 59.0159 387.596ZM59.0159 294.612C59.0159 294.899 59.0159 295.186 59.0159 295.474C58.208 295.366 57.4147 295.031 56.722 294.393C54.8711 292.688 54.3095 289.896 53.827 287.683C53.297 285.249 53.1671 282.776 53.2507 280.304C53.2846 279.326 53.3433 278.342 53.4902 277.371C53.6191 276.516 53.6665 275.16 54.7152 274.745C55.4305 274.462 56.5356 274.608 57.287 274.599C59.9753 274.567 62.6636 274.535 65.3518 274.502C67.3825 274.597 66.8005 278.511 66.7338 279.679C66.5937 282.137 66.2265 284.586 65.7067 287.005C65.2219 289.26 64.8106 291.88 63.1913 293.774C62.8749 294.144 62.5043 294.445 62.1144 294.706C62.1144 294.675 62.1144 294.645 62.1144 294.614C62.1167 292.893 59.0159 292.89 59.0159 294.612ZM62.1167 412.772C62.1167 412.056 62.1167 411.339 62.1167 410.622C62.1167 404.46 62.1167 398.299 62.1167 392.137H67.3045V387.596H62.1167C62.1167 387.499 62.1167 387.402 62.1167 387.305H84.1889C84.1731 389.544 84.1641 392.007 84.1641 394.591C84.1641 403.416 84.2692 410.793 84.4116 412.773L62.1167 412.772ZM186.208 376.644C186.121 376.683 186.043 376.719 185.959 376.757H185.801C186.112 376.638 186.421 376.518 186.718 376.403L186.73 376.407C186.561 376.483 186.368 376.572 186.208 376.644ZM187.001 376.757C187.133 376.703 187.266 376.649 187.404 376.593L187.75 376.69L201.834 376.758L187.001 376.757ZM305.524 223.733C305.524 224.02 305.524 224.307 305.524 224.595C304.716 224.487 303.923 224.152 303.23 223.515C301.379 221.809 300.818 219.017 300.335 216.804C299.805 214.37 299.675 211.897 299.76 209.425C299.794 208.447 299.853 207.463 300 206.492C300.129 205.637 300.176 204.281 301.225 203.866C301.94 203.583 303.044 203.729 303.797 203.719C306.485 203.687 309.173 203.655 311.861 203.623C313.892 203.717 313.31 207.632 313.244 208.799C313.104 211.257 312.737 213.706 312.217 216.125C311.733 218.38 311.321 221 309.702 222.894C309.386 223.264 309.015 223.565 308.625 223.826C308.625 223.795 308.625 223.765 308.625 223.734C308.624 222.014 305.524 222.011 305.524 223.733Z" fill="black"/>
</g>
<path d="M235.428 415.943L231.531 436.906C231.531 436.906 254.566 447.339 254.277 451.273L207.569 446.259L212.109 413.384L235.428 415.943Z" fill="#263238"/>
<path d="M217.344 433.584C216.408 433.703 215.655 434.526 215.75 435.348C215.845 436.17 216.792 436.844 217.729 436.739C218.666 436.634 219.605 435.671 219.405 434.864C219.206 434.057 218.044 433.319 217.162 433.617" fill="#E0E0E0"/>
<path d="M207.569 446.259L208.175 442.96L252.731 449.001C252.731 449.001 254.696 450.016 254.277 451.273L207.569 446.259Z" fill="#455A64"/>
<path d="M232.318 436.778C232.282 436.977 231.128 436.945 229.914 437.467C228.683 437.961 227.98 438.763 227.781 438.661C227.577 438.6 228.089 437.442 229.572 436.835C231.049 436.214 232.394 436.601 232.318 436.778Z" fill="white"/>
<path d="M236.961 439.078C236.985 439.277 235.949 439.51 235.053 440.271C234.131 441.009 233.804 441.901 233.578 441.867C233.359 441.876 233.37 440.69 234.505 439.763C235.63 438.827 236.984 438.887 236.961 439.078Z" fill="white"/>
<path d="M239.005 444.508C238.791 444.528 238.617 443.497 239.361 442.466C240.095 441.431 241.233 441.115 241.305 441.292C241.41 441.47 240.634 441.981 240.039 442.836C239.42 443.678 239.235 444.513 239.005 444.508Z" fill="white"/>
<path d="M232.601 431.917C232.479 432.088 231.472 431.701 230.173 431.639C228.874 431.555 227.817 431.826 227.722 431.641C227.611 431.483 228.697 430.85 230.227 430.941C231.757 431.022 232.735 431.772 232.601 431.917Z" fill="white"/>
<path d="M210.322 429.007C210.331 428.867 216.328 429.056 223.713 429.43C231.101 429.803 237.081 430.219 237.072 430.36C237.063 430.499 231.067 430.31 223.679 429.936C216.293 429.562 210.313 429.146 210.322 429.007Z" fill="#455A64"/>
<path d="M156.256 416.605L162.45 440.598L173.153 458.739C173.897 460.239 172.667 464.635 170.909 465.173C169.924 465.474 168.839 465.344 167.984 464.815C162.54 461.446 142.579 448.964 142.41 446.953C142.334 446.061 141.196 441.869 142.262 435.148L136.218 420.853L156.256 416.605Z" fill="#263238"/>
<path d="M173.745 461.025C172.773 458.935 171.166 457.402 168.74 455.751L157.594 447.03L154.821 444.506C152.515 442.408 149.061 441.422 145.825 442.181C143.058 442.829 142.078 444.29 142.289 446.269C142.464 447.266 143.032 448.179 143.904 448.843C146.235 450.617 152.793 455.397 167.889 464.827C168.767 465.375 169.904 465.506 170.907 465.173C173.285 464.845 174.591 463.172 173.745 461.025Z" fill="#455A64"/>
<path d="M119.376 368.653C119.776 372.053 136.083 430.32 136.083 430.32L163.018 428.197L152.928 368.653H119.376Z" fill="#263238"/>
<path d="M163.019 428.198C163.024 428.268 161.522 428.429 159.086 428.643C156.489 428.852 153.202 429.115 149.567 429.407C145.93 429.678 142.64 429.922 140.043 430.116C137.605 430.292 136.095 430.393 136.085 430.321C136.081 430.287 136.451 430.214 137.127 430.116C137.803 430.015 138.785 429.896 140 429.761C142.429 429.493 145.794 429.187 149.516 428.903C153.238 428.62 156.611 428.41 159.055 428.288C161.497 428.163 163.012 428.128 163.019 428.198Z" fill="#455A64"/>
<path d="M197.686 353.049C197.686 353.049 207.29 347.088 223.052 345.177C245.418 342.466 244.529 358.296 243.514 366.168C242.587 373.362 237.315 430.32 237.315 430.32L210.781 428.021L213.663 376.756L199.579 376.688L182.966 372.079L197.686 353.049Z" fill="#263238"/>
<path d="M129.234 372.769C129.234 372.769 136.457 379.257 153.603 379.257C165.401 379.257 187.079 380.708 195.306 377.638C212.543 371.205 212.543 369.325 212.543 369.325V348C212.543 348 171.572 354.176 164.515 352.11C157.459 350.044 135.994 347.784 135.994 347.784C135.994 347.784 118.297 348.604 118.297 361.224L120.593 375.055L129.234 372.769Z" fill="#263238"/>
<path d="M215.736 368.05C215.779 368.105 214.718 368.806 212.926 369.848C211.137 370.89 208.609 372.26 205.736 373.656C202.862 375.05 200.191 376.203 198.23 376.981C196.268 377.761 195.023 378.18 194.99 378.119C194.955 378.053 196.137 377.519 198.047 376.66C199.956 375.801 202.586 374.603 205.448 373.214C208.309 371.824 210.861 370.507 212.703 369.546C214.546 368.584 215.688 367.988 215.736 368.05Z" fill="#455A64"/>
<path d="M142.219 378.522C142.196 378.581 141.151 378.357 139.534 377.808C137.918 377.26 135.744 376.354 133.521 375.099C131.301 373.839 129.47 372.481 128.245 371.421C127.017 370.36 126.364 369.623 126.417 369.582C126.484 369.529 127.243 370.177 128.53 371.16C129.815 372.143 131.657 373.435 133.845 374.676C136.034 375.912 138.142 376.854 139.7 377.479C141.256 378.106 142.248 378.448 142.219 378.522Z" fill="#455A64"/>
<path d="M190.717 231.46C189.243 222.465 179.824 215.935 169.074 216.451L168.006 216.503C156.527 217.624 151.243 226.471 152.888 236.118L156.079 252.093L157.894 277.156L183.83 273.167L183.236 264.923C183.236 264.923 194.21 262.939 193.716 253.596C193.477 249.084 192.089 239.826 190.717 231.46Z" fill="#FFBF9D"/>
<path d="M183.326 264.905C183.326 264.905 176.28 265.604 168.578 262.022C168.578 262.022 172.444 268.577 183.433 267.206L183.326 264.905Z" fill="#FF9A6C"/>
<path d="M188.394 240.556C188.472 241.259 187.829 241.894 186.961 241.974C186.094 242.055 185.327 241.554 185.25 240.851C185.174 240.148 185.815 239.512 186.682 239.431C187.55 239.351 188.317 239.853 188.394 240.556Z" fill="#263238"/>
<path d="M188.646 236.142C188.462 236.325 187.214 235.636 185.512 235.72C183.812 235.786 182.613 236.583 182.417 236.417C182.321 236.343 182.5 236.019 183.021 235.66C183.533 235.302 184.424 234.934 185.484 234.888C186.544 234.842 187.458 235.128 187.993 235.44C188.54 235.754 188.738 236.059 188.646 236.142Z" fill="#263238"/>
<path d="M173.382 241.509C173.459 242.211 172.817 242.846 171.948 242.927C171.081 243.009 170.314 242.507 170.237 241.803C170.16 241.101 170.802 240.466 171.669 240.384C172.538 240.302 173.305 240.806 173.382 241.509Z" fill="#263238"/>
<path d="M171.942 237.214C171.758 237.397 170.508 236.707 168.809 236.793C167.108 236.857 165.909 237.656 165.713 237.49C165.617 237.417 165.793 237.093 166.317 236.733C166.83 236.374 167.721 236.008 168.781 235.96C169.841 235.915 170.755 236.2 171.289 236.513C171.833 236.825 172.033 237.131 171.942 237.214Z" fill="#263238"/>
<path d="M178.835 247.558C178.822 247.476 179.868 247.271 181.57 247.004C182.002 246.946 182.409 246.853 182.464 246.599C182.549 246.329 182.34 245.944 182.1 245.527C181.632 244.66 181.142 243.751 180.627 242.799C178.573 238.912 177.062 235.709 177.248 235.64C177.434 235.572 179.249 238.666 181.301 242.552C181.797 243.511 182.271 244.425 182.722 245.3C182.914 245.708 183.229 246.167 183.045 246.727C182.946 247.006 182.64 247.221 182.367 247.297C182.093 247.381 181.849 247.397 181.634 247.418C179.916 247.58 178.848 247.638 178.835 247.558Z" fill="#263238"/>
<path d="M173.895 248.79C174.171 248.763 174.279 250.32 175.935 251.35C177.588 252.383 179.544 252.113 179.573 252.33C179.606 252.427 179.155 252.654 178.326 252.713C177.512 252.776 176.308 252.612 175.294 251.983C174.284 251.351 173.808 250.466 173.702 249.831C173.589 249.182 173.768 248.787 173.895 248.79Z" fill="#263238"/>
<path d="M172.001 231.569C171.86 231.968 170.148 231.864 168.167 232.163C166.177 232.428 164.601 232.999 164.312 232.661C164.184 232.499 164.439 232.119 165.064 231.709C165.683 231.301 166.689 230.893 167.879 230.724C169.07 230.555 170.177 230.663 170.921 230.878C171.671 231.092 172.061 231.381 172.001 231.569Z" fill="#263238"/>
<path d="M188.595 232.015C188.318 232.355 187.124 232.073 185.713 232.125C184.3 232.135 183.125 232.469 182.828 232.141C182.696 231.982 182.862 231.647 183.362 231.312C183.855 230.98 184.698 230.688 185.667 230.667C186.637 230.646 187.497 230.901 188.01 231.211C188.531 231.522 188.717 231.85 188.595 232.015Z" fill="#263238"/>
<path d="M189.473 226.645C189.473 226.645 186.158 220.938 182.724 219.734C178.565 218.277 177.076 222.107 173.157 221.383C169.238 220.66 165.269 219.26 161.497 221.964C157.369 224.923 159.52 226.757 159.534 230.912C159.588 247.759 156.271 252.684 154.703 244.822C154.531 243.961 150.056 244.879 149.254 235.638C148.841 230.87 149.488 229.289 150.516 225.86C151.384 222.969 153.171 220.914 156.468 218.585C161.673 214.908 169.134 214.477 174.234 214.663C179.333 214.851 189.441 219.302 189.473 226.645Z" fill="#263238"/>
<path d="M155.282 245.12C155.114 243.682 153.565 242.615 151.872 242.834C149.819 243.099 147.589 244.197 147.967 247.789C148.639 254.16 156.086 252.277 156.079 252.093C156.075 251.967 155.591 247.784 155.282 245.12Z" fill="#FFBF9D"/>
<path d="M154.183 249.818C154.148 249.801 154.06 249.906 153.846 250.008C153.639 250.108 153.271 250.194 152.864 250.099C152.041 249.912 151.255 248.894 151.097 247.747C151.017 247.169 151.103 246.606 151.298 246.131C151.479 245.646 151.802 245.295 152.198 245.204C152.59 245.096 152.895 245.277 153.007 245.45C153.127 245.62 153.093 245.751 153.133 245.759C153.156 245.774 153.284 245.641 153.196 245.382C153.15 245.257 153.046 245.114 152.855 245.005C152.661 244.894 152.388 244.851 152.111 244.897C151.532 244.974 151.055 245.465 150.841 245.987C150.594 246.514 150.481 247.147 150.572 247.797C150.756 249.078 151.662 250.22 152.782 250.404C153.326 250.481 153.755 250.313 153.967 250.145C154.185 249.973 154.21 249.828 154.183 249.818Z" fill="#FF9A6C"/>
<path d="M162.9 215.239C162.898 215.262 163.1 215.274 163.447 215.379C163.785 215.486 164.289 215.702 164.68 216.165L164.778 216.282L164.874 216.159C165.527 215.324 166.644 214.239 168.365 213.484C169.22 213.114 170.224 212.839 171.307 212.79C172.385 212.733 173.531 212.941 174.564 213.408C175.367 213.769 176.056 214.27 176.575 214.842C177.085 215.42 177.416 216.074 177.538 216.726L177.575 216.927L177.801 216.863C178.921 216.544 180.092 216.676 180.969 217.034C181.858 217.393 182.448 217.977 182.795 218.507C183.481 219.601 183.317 220.388 183.395 220.375C183.412 220.376 183.463 220.194 183.451 219.848C183.436 219.505 183.351 218.991 183.012 218.411C182.679 217.839 182.073 217.19 181.119 216.78C180.182 216.372 178.918 216.204 177.674 216.541L177.937 216.678C177.816 215.967 177.464 215.253 176.919 214.626C176.364 214.006 175.628 213.469 174.771 213.084C173.67 212.585 172.435 212.366 171.283 212.434C170.13 212.495 169.074 212.798 168.187 213.2C166.404 214.017 165.293 215.171 164.674 216.053L164.87 216.048C164.409 215.555 163.85 215.358 163.484 215.278C163.108 215.201 162.9 215.225 162.9 215.239Z" fill="#455A64"/>
<path d="M155.293 230.635C156.04 232.237 158.21 233.24 160.171 232.889C162.133 232.537 163.66 230.873 163.604 229.147C164.967 229.647 166.639 229.455 167.801 228.664C168.963 227.872 169.567 226.514 169.315 225.256C171.051 226.437 174.033 225.711 174.795 223.921C176.186 224.595 177.957 224.866 179.371 224.229C180.786 223.592 181.523 221.851 180.565 220.75C179.93 220.019 178.808 219.762 177.762 219.621C173.089 218.987 168.177 219.744 164.048 221.736C159.92 223.727 156.603 226.94 154.786 230.705" fill="#263238"/>
<path d="M191.001 225.948C191.001 225.948 188.14 222.966 183.311 222.254C174.342 220.932 162.06 221.341 150.736 233.576L148.965 234.498C148.965 234.498 148.063 230.82 148.339 228.003C148.523 226.122 150.924 215.011 164.646 212.459C164.646 212.459 185.445 207.294 191.001 225.948Z" fill="#0000FF"/>
<g opacity="0.3">
<path d="M191.001 225.948C191.001 225.948 188.14 222.966 183.311 222.254C174.342 220.932 162.06 221.341 150.736 233.576L148.965 234.498C148.965 234.498 148.063 230.82 148.339 228.003C148.523 226.122 150.924 215.011 164.646 212.459C164.646 212.459 185.445 207.294 191.001 225.948Z" fill="black"/>
</g>
<path d="M151.453 232.56C156.031 227.04 162.421 223.481 169.235 220.465C176.049 217.45 182.064 215.327 189.622 214.258C193.701 213.681 198.019 213.674 200.244 214.174C202.469 214.675 204.553 216.131 204.926 218.087C205.392 220.535 200.328 224.341 197.531 225.711C192.762 228.047 189.908 228.439 189.908 228.439C189.908 228.439 188.506 222.974 183.162 221.918C172.062 219.722 151.087 232.784 151.453 232.56Z" fill="#0000FF"/>
<path d="M267.324 274.003L257.002 263.68L288.676 232.007L298.998 242.33L267.324 274.003Z" fill="#FFA000"/>
<path d="M276.803 253.188L272.137 248.522L273.551 247.108L278.217 251.774L276.803 253.188ZM278.813 247.198L276.197 244.582L277.611 243.168L280.227 245.784L278.813 247.198ZM284.804 245.188L280.138 240.522L281.552 239.108L286.218 243.774L284.804 245.188ZM284.155 236.543L285.57 235.129L288.185 237.745L286.771 239.159L284.155 236.543ZM262.81 263.198L260.194 260.582L261.608 259.168L264.224 261.784L262.81 263.198ZM268.801 261.188L264.135 256.522L265.549 255.108L270.215 259.774L268.801 261.188ZM270.812 255.198L268.196 252.582L269.61 251.168L272.226 253.784L270.812 255.198Z" fill="#9E6400"/>
<path d="M261.884 283.378C261.884 283.378 245.885 322.957 236.838 321.82C231.116 321.102 194.072 299.416 194.072 299.416L200.615 279.048L234.08 297.053L252.285 274.719L261.884 283.378Z" fill="#FFBF9D"/>
<path d="M254.076 271.346C254.076 271.346 255.679 266.582 257.219 265.367C258.759 264.154 263.381 262.311 264.027 263.281L263.18 267.127C263.18 267.127 272.148 265.998 273.198 267.966C274.248 269.933 273.791 271.757 273.791 271.757C273.791 271.757 276.809 273.401 274.757 275.818C274.757 275.818 276.001 277.973 274.135 280.265L272.911 281.13C272.911 281.13 273.351 284.729 271.44 285.151C269.529 285.572 257.482 284.412 257.482 284.412L251.923 275.547L254.076 271.346Z" fill="#FFBF9D"/>
<path d="M156.63 269.578L184.649 268.952L205.258 273.711C205.258 273.711 206.666 279.687 206.067 289.528L205.358 302.923L204.328 336.747L205.708 348.258C207.736 348.081 208.521 349.087 208.875 350.501C209.886 351.859 189.112 368.036 177.16 369.346C148.28 371.064 135.359 363.279 133.824 349.662C133.884 348.155 134.488 347.465 136.145 347.265L135.189 302.403L138.671 273.994L156.63 269.578Z" fill="#0000FF"/>
<path d="M121.011 327.06C113.544 333.168 107.33 328.643 105.709 326.16C104.087 323.677 106.005 317.896 106.005 317.896L116.129 302.923L134.581 310.916L121.011 327.06Z" fill="#FFBF9D"/>
<path d="M138.668 273.981C138.668 273.981 129.846 276.711 126.114 284.167C125.245 285.902 111.883 306.568 111.883 306.568L126.104 314.412L131.388 317.326L138.668 307.598V295.785V273.981Z" fill="#0000FF"/>
<path d="M232.987 291.548L206.447 274.719C200.318 270.628 194.251 274.008 190.168 279.687C190.235 279.593 190.102 279.78 190.168 279.687C184.205 288.239 190.509 294.888 193.079 299.344L216.71 313.392L232.987 291.548Z" fill="#0000FF"/>
<path d="M131.771 287.447C131.933 287.431 132.981 294.193 134.113 302.548C135.247 310.906 136.033 317.693 135.873 317.709C135.712 317.726 134.664 310.965 133.53 302.608C132.398 294.252 131.611 287.463 131.771 287.447Z" fill="#263238"/>
<path d="M135.994 347.784C135.994 347.784 141.287 358.511 163.46 359.486C185.632 360.46 205.706 348.258 205.706 348.258L204.868 341.267C204.868 341.267 189.902 353.116 163.668 353.026C140.853 352.948 135.993 340.239 135.993 340.239L135.994 347.784Z" fill="#263238"/>
<path d="M140.14 273.417C140.133 273.428 160.476 315.888 160.476 315.888L165.42 313.391L148.129 270.764C148.129 270.764 142.853 269.286 140.14 273.417Z" fill="#263238"/>
<path d="M189.916 270.282C181.233 282.324 172.976 296.67 165.419 313L171.596 315.134C171.596 315.134 188.423 276.637 199.255 272.404C199.255 272.404 196.143 269.061 189.916 270.282Z" fill="#263238"/>
<path d="M158.263 318.522C158.263 318.522 136.593 339.056 135.994 340.784C134.73 344.428 135.994 347.784 135.994 347.784L140.14 347.244L161.093 323.661L158.263 318.522Z" fill="#263238"/>
<path d="M165.42 321.844C165.42 321.844 202.807 349.082 203.774 348.276C206.395 346.093 204.746 340.238 204.746 340.238L168.271 317.708L165.42 321.844Z" fill="#263238"/>
<path d="M197.269 302.865C197.311 302.805 198.437 303.34 200.225 304.255C202.013 305.168 204.461 306.462 207.147 307.915C209.834 309.369 212.247 310.71 213.977 311.701C215.707 312.692 216.754 313.333 216.708 313.391C216.663 313.448 215.534 312.912 213.747 311.998C211.959 311.084 209.513 309.793 206.83 308.34C204.148 306.887 201.737 305.548 200.007 304.558C198.277 303.567 197.227 302.924 197.269 302.865Z" fill="#263238"/>
<path d="M163.028 327.598C161.373 327.1 160.104 326.053 159.368 324.805C157.743 322.053 154.628 314.716 155.301 313.27C157.239 309.103 169.474 308.778 172.483 312.334C175.424 315.808 170.501 324.231 168.689 326.15C166.836 328.113 164.7 328.1 163.028 327.598Z" fill="#263238"/>
<path d="M163.028 327.598C163.038 327.524 163.874 327.905 165.409 327.754C166.162 327.658 167.057 327.345 167.853 326.706C168.656 326.075 169.305 325.139 169.965 324.083C170.618 323.025 171.259 321.828 171.824 320.505C172.38 319.184 172.881 317.728 173.059 316.17C173.169 315.392 173.116 314.59 172.932 313.811C172.73 313.026 172.215 312.343 171.489 311.815C169.963 310.803 167.892 310.335 165.811 310.198C163.717 310.061 161.633 310.222 159.741 310.7C158.809 310.964 157.899 311.275 157.154 311.754C156.367 312.176 155.797 312.85 155.521 313.493C155.391 314.168 155.619 314.982 155.793 315.694C155.983 316.425 156.216 317.128 156.453 317.804C156.932 319.156 157.443 320.401 157.939 321.527C158.951 323.767 159.779 325.621 161.013 326.47C162.173 327.36 163.062 327.544 163.028 327.598C163.023 327.61 162.807 327.574 162.42 327.44C162.036 327.304 161.477 327.061 160.863 326.621C160.252 326.184 159.587 325.532 159.095 324.65C158.588 323.788 158.077 322.784 157.552 321.66C157.029 320.535 156.492 319.29 155.988 317.932C155.737 317.251 155.493 316.543 155.289 315.798C155.111 315.044 154.84 314.302 154.993 313.389C155.331 312.548 155.974 311.844 156.825 311.364C157.638 310.839 158.595 310.508 159.571 310.228C161.547 309.722 163.691 309.554 165.858 309.696C168.011 309.844 170.165 310.309 171.853 311.433C172.668 312.021 173.264 312.837 173.477 313.699C173.676 314.554 173.718 315.408 173.597 316.216C173.395 317.838 172.863 319.315 172.279 320.652C171.686 321.989 171.016 323.192 170.329 324.255C169.639 325.308 168.944 326.265 168.071 326.917C167.209 327.573 166.234 327.881 165.436 327.95C164.631 328.013 164.014 327.901 163.616 327.8C163.218 327.698 163.023 327.609 163.028 327.598Z" fill="#455A64"/>
<path d="M318.91 201.654C318.91 186.658 318.91 171.662 318.91 156.666C318.91 144.664 318.91 132.664 318.91 120.662C318.91 111.204 318.91 101.747 318.91 92.2893C318.91 90.726 316.092 90.7231 316.092 92.2893C316.092 107.285 316.092 122.281 316.092 137.277C316.092 149.279 316.092 161.28 316.092 173.281C316.092 182.739 316.092 192.196 316.092 201.654C316.091 203.217 318.91 203.22 318.91 201.654Z" fill="#263238"/>
<path d="M317 232.885C317 237.275 317 241.665 317 246.056C317 252.414 317 258.772 317 265.131C317 273.033 317 280.935 317 288.838C317 297.772 317 306.706 317 315.64C317 325.119 317 334.598 317 344.077C317 353.569 317 363.061 317 372.553C317 381.665 317 390.777 317 399.889C317 408.088 317 416.287 317 424.486C317 431.258 317 438.028 317 444.8C317 449.724 317 465.611 317 470.534C317 471.394 317 472.255 317 473.116C317 474.294 320 474.296 320 473.116C320 468.725 320 453.372 320 448.982C320 442.623 320 436.265 320 429.907C320 422.004 320 414.102 320 406.199C320 397.265 320 388.331 320 379.397C320 369.919 320 360.439 320 350.961C320 341.469 320 331.976 320 322.485C320 313.373 320 304.261 320 295.149C320 286.95 320 278.75 320 270.552C320 263.781 320 257.009 320 250.238C320 245.315 320 240.39 320 235.466C320 234.606 320 233.746 320 232.885C320 231.706 317 231.704 317 232.885Z" fill="#263238"/>
<path d="M317.493 223.733C317.493 227.549 317.493 231.366 317.493 235.182C317.493 236.745 320.313 236.748 320.313 235.182C320.313 231.366 320.313 227.549 320.313 223.733C320.313 222.169 317.493 222.166 317.493 223.733Z" fill="#E0E0E0"/>
<path d="M323.69 203.502C325.873 203.603 325.286 207.536 325.213 208.799C325.073 211.267 324.703 213.728 324.182 216.157C323.694 218.429 323.274 221.06 321.641 222.967C319.95 224.944 317.021 225.492 314.961 223.6C313.09 221.882 312.517 219.07 312.03 216.837C311.497 214.391 311.364 211.908 311.449 209.425C311.483 208.447 311.543 207.464 311.688 206.493C311.824 205.587 311.884 204.207 312.983 203.762C313.719 203.465 314.849 203.608 315.627 203.599C318.314 203.566 321.002 203.534 323.69 203.502C325.503 203.48 325.507 201.05 323.69 201.071C320.675 201.107 317.659 201.144 314.645 201.181C312.827 201.202 311.073 201.48 309.977 202.897C309.248 203.84 309.094 205.023 308.924 206.122C308.705 207.546 308.623 208.979 308.608 210.414C308.575 213.544 308.972 216.671 309.887 219.702C310.693 222.369 311.934 225.265 314.945 226.622C317.771 227.896 321.083 227.084 323.201 225.141C325.509 223.022 326.187 220.001 326.802 217.246C327.531 213.978 328.094 210.601 328.077 207.266C328.062 204.522 327.627 201.255 323.69 201.071C321.878 200.988 321.883 203.417 323.69 203.502Z" fill="#E0E0E0"/>
<path d="M72.4017 272.533C72.4017 249.532 72.4017 226.531 72.4017 203.531C72.4017 178.783 72.4017 154.036 72.4017 129.288C72.4017 116.955 72.4017 104.623 72.4017 92.2902C72.4017 90.727 69.5835 90.7241 69.5835 92.2902C69.5835 115.291 69.5835 138.292 69.5835 161.292C69.5835 186.04 69.5835 210.788 69.5835 235.535C69.5835 247.868 69.5835 260.2 69.5835 272.533C69.5835 274.096 72.4017 274.099 72.4017 272.533Z" fill="#263238"/>
<path d="M71 303.802C71 311.92 71 320.038 71 328.156C71 339.368 71 350.579 71 361.791C71 374.201 71 386.612 71 399.022C71 410.478 71 421.934 71 433.391C71 442.001 71 461.273 71 469.883C71 470.632 71 472.449 71 473.198C71 474.266 74 474.268 74 473.198C74 465.08 74 445.233 74 437.115C74 425.904 74 414.692 74 403.481C74 391.071 74 378.66 74 366.25C74 354.793 74 343.337 74 331.88C74 323.27 74 314.659 74 306.049C74 305.3 74 304.551 74 303.802C74 302.734 71 302.732 71 303.802Z" fill="#263238"/>
<path d="M70.9858 294.612C70.9858 298.428 70.9858 302.245 70.9858 306.061C70.9858 307.624 73.8052 307.627 73.8052 306.061C73.8052 302.245 73.8052 298.429 73.8052 294.612C73.8052 293.048 70.9858 293.045 70.9858 294.612Z" fill="#E0E0E0"/>
<path d="M77.1829 274.38C79.366 274.482 78.7784 278.415 78.7061 279.678C78.566 282.146 78.1953 284.606 77.6744 287.036C77.1862 289.308 76.767 291.939 75.1342 293.846C73.4426 295.823 70.5136 296.37 68.4536 294.479C66.5823 292.761 66.0094 289.949 65.5224 287.715C64.9902 285.27 64.8568 282.787 64.9416 280.304C64.9755 279.325 65.0354 278.343 65.1811 277.372C65.3167 276.466 65.3766 275.086 66.4761 274.64C67.2117 274.343 68.3417 274.487 69.1192 274.478C71.8063 274.445 74.4946 274.413 77.1829 274.38C78.9954 274.359 78.9999 271.929 77.1829 271.95C74.168 271.986 71.152 272.022 68.1372 272.058C66.3202 272.08 64.5653 272.357 63.4692 273.775C62.7403 274.717 62.5866 275.901 62.4171 277C62.1979 278.424 62.1154 279.857 62.1007 281.292C62.068 284.421 62.4646 287.548 63.3799 290.58C64.1856 293.247 65.4263 296.143 68.4378 297.5C71.2639 298.774 74.5771 297.962 76.6936 296.019C79.0022 293.9 79.6802 290.88 80.2949 288.124C81.0237 284.856 81.5865 281.479 81.5695 278.144C81.5548 275.4 81.1198 272.133 77.1829 271.95C75.3703 271.868 75.3749 274.297 77.1829 274.38Z" fill="#E0E0E0"/>
<path d="M332.576 376.757H48.2888V387.304H332.576V376.757Z" fill="#AE7461"/>
<path d="M324.855 387.595H312.951V392.137H324.855V387.595Z" fill="#263238"/>
<path d="M79.1333 387.595H67.2288V392.137H79.1333V387.595Z" fill="#263238"/>
<path d="M50.551 414.403L59.0531 465.489H101.232L107.714 414.578L50.551 414.403Z" fill="#455A64"/>
<path d="M109.95 414.403H48.3157V417.579H109.95V414.403Z" fill="#455A64"/>
<path d="M109.493 417.726C109.493 417.866 95.7962 417.946 78.9049 417.906C62.008 417.865 48.3147 417.719 48.3147 417.58C48.3147 417.441 62.0092 417.36 78.906 417.401C95.7973 417.44 109.494 417.586 109.493 417.726Z" fill="#263238"/>
<path d="M106.685 422.665C106.685 422.805 94.4877 422.919 79.4452 422.919C64.397 422.919 52.2031 422.806 52.2031 422.665C52.2031 422.525 64.3981 422.412 79.4452 422.412C94.4877 422.412 106.685 422.525 106.685 422.665Z" fill="#263238"/>
<path d="M106.685 425.508C106.685 425.647 94.5317 425.761 79.5434 425.761C64.5494 425.761 52.3997 425.648 52.3997 425.508C52.3997 425.368 64.5505 425.255 79.5434 425.255C94.5317 425.255 106.685 425.369 106.685 425.508Z" fill="#263238"/>
<path d="M59.5899 376.117C59.7515 376.117 59.8837 384.814 59.8837 395.539C59.8837 406.269 59.7527 414.964 59.5899 414.964C59.4272 414.964 59.2961 406.269 59.2961 395.539C59.2961 384.814 59.4272 376.117 59.5899 376.117Z" fill="#263238"/>
<path d="M100.694 376.117C100.856 376.117 100.987 384.814 100.987 395.539C100.987 406.269 100.856 414.964 100.694 414.964C100.532 414.964 100.4 406.269 100.4 395.539C100.4 384.814 100.531 376.117 100.694 376.117Z" fill="#263238"/>
<defs>
<filter id="filter0_i_1493_136" x="14.23" y="11.6079" width="538.547" height="467.01" filterUnits="userSpaceOnUse" color-interpolation-filters="sRGB">
<feFlood flood-opacity="0" result="BackgroundImageFix"/>
<feBlend mode="normal" in="SourceGraphic" in2="BackgroundImageFix" result="shape"/>
<feColorMatrix in="SourceAlpha" type="matrix" values="0 0 0 0 0 0 0 0 0 0 0 0 0 0 0 0 0 0 127 0" result="hardAlpha"/>
<feOffset dy="4"/>
<feGaussianBlur stdDeviation="32"/>
<feComposite in2="hardAlpha" operator="arithmetic" k2="-1" k3="1"/>
<feColorMatrix type="matrix" values="0 0 0 0 1 0 0 0 0 1 0 0 0 0 1 0 0 0 1 0"/>
<feBlend mode="normal" in2="shape" result="effect1_innerShadow_1493_136"/>
</filter>
</defs>
</svg>
