<svg viewBox="0 0 303 80" fill="none" xmlns="http://www.w3.org/2000/svg">
<path d="M0 0H303V60.5C303 60.5 267.5 64 250.5 35C233.5 6 172 45.5 147 54C122 62.5 85 24.5 57 42.5C29 60.5 0 49 0 49V0Z" fill="#FFD86A" fill-opacity="0.61"/>
<path d="M0 0H303V40.3405C303 40.3405 273 31.7345 248.5 43.0299C224 54.3252 169 69.3857 142 78.5295C115 87.6734 78.5 51.098 51 53.2495C23.5 55.401 0 74.2265 0 65.6205C0 57.0146 0 0 0 0Z" fill="#FFD86A" fill-opacity="0.74"/>
<path d="M0 0H303V52.5C303 52.5 274.5 70 247 71C219.5 72 171.5 35.5 148 40C124.5 44.5 75.5 76.5 47 76C18.5 75.5 0 61 0 61V0Z" fill="#FFD86A" fill-opacity="0.71"/>
</svg>
