<svg width="150" height="140" viewBox="0 0 150 140" fill="none" xmlns="http://www.w3.org/2000/svg">
<path d="M48.4231 139.829L36.7386 133.601C36.5067 133.504 36.3177 133.368 36.1906 133.154L34.0396 129.689L40.9788 125.992L40.7675 126.556L48.4231 139.829Z" fill="#0000FF"/>
<path opacity="0.2" d="M48.4231 139.829L36.7386 133.601C36.5067 133.504 36.3177 133.368 36.1906 133.154L34.0396 129.689L40.9788 125.992L40.7675 126.556L48.4231 139.829Z" fill="black"/>
<path d="M39.9209 126.516L48.0078 139.443C48.5249 140.269 49.8547 140.152 50.1932 139.251L58.7405 116.483L39.9209 126.516Z" fill="#0000FF"/>
<path d="M150 12.7315C150 9.40662 147.471 5.36191 144.349 3.69867L139.748 1.24743C136.628 -0.415808 131.567 -0.415808 128.447 1.24743L5.65069 66.6114C2.52898 68.2746 0 72.3177 0 75.6442V124.852C0 128.178 2.5307 132.221 5.65069 133.884L10.2516 136.336C13.3733 137.999 18.433 137.999 21.553 136.336L144.877 70.6165C149.954 67.9464 150 65.2637 150 61.9388V12.7315Z" fill="#0000FF"/>
<path opacity="0.2" d="M0 124.852C0 128.178 2.5307 132.222 5.65069 133.885L10.2516 136.336C13.0727 137.839 17.4623 137.987 20.5875 136.774C17.9279 137.701 15.9023 136.3 15.9023 133.325V84.1179C15.9023 82.4546 16.5346 80.6122 17.5568 78.9775L1.65446 70.5044C0.632214 72.1391 0 73.9815 0 75.6447V124.852Z" fill="black"/>
<path opacity="0.4" d="M149.814 11.2486C149.154 9.03518 146.967 8.32962 144.358 9.71538L21.5493 75.0889C19.9945 75.9165 18.5702 77.3276 17.5685 78.9814L1.67139 70.5146C2.69878 68.8608 4.09726 67.4497 5.6521 66.6221L128.433 1.24859C131.57 -0.405129 136.632 -0.405129 139.743 1.24859L144.356 3.70618C147.021 5.11731 149.261 8.28047 149.814 11.2486Z" fill="white"/>
<path d="M27.9548 111.209C27.9548 111.11 27.9668 111.021 27.9891 110.946C28.0097 110.875 28.0338 110.811 28.0647 110.754L30.9029 103.466C30.0989 103.894 29.355 104.113 28.666 104.122C27.9771 104.133 27.3826 103.956 26.881 103.593C26.3793 103.228 25.9824 102.67 25.6886 101.921C25.3949 101.171 25.2471 100.245 25.2471 99.1467C25.2471 98.0273 25.3949 96.9348 25.6886 95.8725C25.9824 94.8086 26.3862 93.8192 26.9033 92.9028C27.4187 91.9848 28.0286 91.1682 28.7313 90.4468C29.4323 89.7254 30.1865 89.1514 30.9888 88.7233C31.7929 88.2952 32.5437 88.0669 33.2463 88.0399C33.9473 88.013 34.559 88.1795 35.0727 88.5473C35.5898 88.9136 35.9936 89.4717 36.2873 90.2232C36.5811 90.9732 36.7289 91.9087 36.7289 93.028C36.7289 93.6195 36.6842 94.1934 36.5897 94.7531C36.4952 95.3128 36.3749 95.8551 36.2237 96.383C36.0726 96.9126 35.9076 97.4279 35.7307 97.9305C35.5503 98.4331 35.3664 98.9183 35.1809 99.3845L31.1383 109.725C31.0799 109.879 31.0043 110.052 30.9115 110.244C30.8171 110.436 30.671 110.585 30.47 110.693L28.5354 111.723C28.3757 111.807 28.2417 111.799 28.1266 111.696C28.0149 111.596 27.9548 111.433 27.9548 111.209ZM28.1712 97.5896C28.1712 98.7312 28.4358 99.459 28.9667 99.7777C29.4976 100.096 30.171 100.038 30.9888 99.6017C31.8066 99.1657 32.4784 98.5029 33.0093 97.6087C33.5419 96.716 33.8065 95.7092 33.8065 94.5882C33.8065 93.4688 33.5419 92.7379 33.0093 92.4002C32.4784 92.0624 31.8066 92.1084 30.9888 92.5445C30.171 92.9789 29.4976 93.6496 28.9667 94.5533C28.4375 95.4555 28.1712 96.4703 28.1712 97.5896Z" fill="#FAFAFA"/>
<path d="M40.7524 84.6535C40.7524 84.43 40.809 84.2064 40.9259 83.9829C41.0375 83.7577 41.1767 83.6055 41.333 83.5215L49.4182 79.2135C49.5763 79.1295 49.712 79.1374 49.8271 79.2405C49.9405 79.342 49.9989 79.5053 49.9989 79.7288V81.8994C49.9989 82.123 49.9422 82.3466 49.8271 82.5701C49.712 82.7953 49.5745 82.9491 49.4182 83.0315L43.3758 86.2518L43.1387 90.2886C43.5253 89.8589 43.9084 89.5227 44.2881 89.2786C44.6678 89.0344 44.9805 88.8489 45.2245 88.7173C46.0268 88.2892 46.7707 88.0466 47.4614 87.9848C48.1486 87.9245 48.7447 88.0593 49.2447 88.3938C49.7464 88.7284 50.1415 89.2564 50.4284 89.9794C50.7153 90.704 50.8597 91.6347 50.8597 92.7763C50.8597 94.0796 50.7119 95.2735 50.4181 96.3548C50.1243 97.4394 49.7223 98.4176 49.2138 99.2881C48.7052 100.162 48.1056 100.916 47.4184 101.56C46.7312 102.202 45.9993 102.729 45.2261 103.141C44.2365 103.669 43.3879 103.959 42.6783 104.011C41.9687 104.064 41.3812 103.934 40.9156 103.621C40.45 103.311 40.0978 102.856 39.8624 102.258C39.6253 101.662 39.493 100.972 39.4655 100.193C39.45 99.9572 39.5033 99.7305 39.627 99.5116C39.749 99.2928 39.8882 99.1438 40.0462 99.0582L41.7883 98.1291C41.9309 98.0529 42.0598 98.0514 42.1749 98.1211C42.2883 98.1925 42.3673 98.3288 42.412 98.5302C42.4979 98.952 42.6336 99.2627 42.8192 99.4593C43.0047 99.6559 43.2195 99.7748 43.4651 99.8177C43.7091 99.8589 43.9806 99.8319 44.283 99.732C44.5853 99.6321 44.898 99.4974 45.2296 99.3198C46.0474 98.8854 46.7054 98.2179 47.2071 97.3189C47.7087 96.4198 47.9596 95.4209 47.9596 94.3206C47.9596 93.4041 47.7087 92.7731 47.2071 92.4306C46.7054 92.0866 46.0457 92.1214 45.2296 92.5368C44.8001 92.7668 44.4582 92.9935 44.2073 93.2186C43.9565 93.4438 43.7504 93.6594 43.594 93.8655C43.4342 94.0717 43.2934 94.2556 43.1645 94.4157C43.0339 94.5759 42.869 94.7106 42.668 94.8169L40.6922 95.8712C40.5324 95.9553 40.3967 95.9458 40.2833 95.8443C40.1699 95.7428 40.1098 95.5811 40.1098 95.3559L40.7524 84.6535Z" fill="#FAFAFA"/>
<path d="M65.6091 78.5568C65.6246 78.9358 65.6315 79.3591 65.6315 79.8284C65.6315 80.2978 65.6315 80.7766 65.6315 81.2634C65.6315 81.7533 65.6315 82.2305 65.6315 82.6999C65.6315 83.1692 65.6246 83.6005 65.6091 83.9952C65.5679 85.2003 65.4408 86.3609 65.2329 87.4803C65.025 88.5981 64.6951 89.6509 64.2433 90.6355C63.7914 91.6201 63.2056 92.5128 62.4823 93.3166C61.7573 94.1189 60.8708 94.8007 59.8262 95.3572C58.7644 95.9233 57.8762 96.1865 57.1598 96.1532C56.4416 96.1167 55.8575 95.8488 55.4056 95.3461C54.9555 94.8435 54.6256 94.1427 54.4177 93.2453C54.2098 92.3495 54.0844 91.3205 54.0415 90.1614C54.0123 89.4019 53.9985 88.5299 53.9985 87.5421C53.9985 86.5543 54.014 85.6648 54.0415 84.8752C54.0827 83.6718 54.2098 82.5001 54.4177 81.3601C54.6256 80.2217 54.9555 79.153 55.4056 78.1589C55.8592 77.1647 56.4416 76.2578 57.1598 75.4381C57.8762 74.6184 58.7644 73.9255 59.8262 73.3594C60.8708 72.8013 61.7573 72.5397 62.4823 72.5714C63.2056 72.6047 63.7931 72.8711 64.2433 73.3737C64.6968 73.8763 65.025 74.5771 65.2329 75.4745C65.4408 76.372 65.5679 77.3994 65.6091 78.5568ZM56.945 88.4601C57.0154 89.8887 57.2628 90.8939 57.6855 91.4711C58.1081 92.0514 58.8211 92.0736 59.8262 91.5377C60.8278 91.0033 61.5425 90.2217 61.9651 89.1911C62.3878 88.162 62.6352 86.8936 62.7074 85.3889C62.7366 84.5993 62.7503 83.7368 62.7503 82.7982C62.7503 81.8611 62.7348 81.0144 62.7074 80.255C62.6352 78.828 62.3878 77.8227 61.9651 77.2424C61.5425 76.6637 60.8278 76.6415 59.8262 77.1758C58.8211 77.7102 58.1081 78.4934 57.6855 79.5224C57.2628 80.553 57.0154 81.8215 56.945 83.3246C56.9158 84.1142 56.9021 84.9767 56.9021 85.9138C56.9021 86.8556 56.9158 87.7022 56.945 88.4601Z" fill="#FAFAFA"/>
<path d="M68.4497 75.9755C68.3484 75.8471 68.3105 75.6647 68.3329 75.4285C68.3535 75.1938 68.4291 74.9703 68.5579 74.7594L73.2259 67.0473C73.3376 66.865 73.4578 66.6842 73.5798 66.5066C73.7001 66.3306 73.8341 66.2038 73.9784 66.1277L75.6569 65.235C75.8133 65.151 75.9507 65.1589 76.0641 65.262C76.1775 65.3635 76.2377 65.5268 76.2377 65.7487V85.4872C76.2377 85.7123 76.1792 85.9359 76.0641 86.1594C75.9507 86.3846 75.8116 86.5384 75.6569 86.6224L73.9131 87.5499C73.7551 87.634 73.6193 87.6261 73.506 87.523C73.3908 87.4215 73.3341 87.2582 73.3341 87.0331V71.9387L70.2794 76.9569C70.1506 77.1694 70.0114 77.2994 69.8602 77.3486C69.7108 77.3977 69.5767 77.3613 69.465 77.2392L68.4497 75.9755Z" fill="#FAFAFA"/>
<path d="M91.5879 64.7164C91.6034 65.0953 91.6103 65.5187 91.6103 65.988C91.6103 66.4573 91.6103 66.9361 91.6103 67.4229C91.6103 67.9128 91.6103 68.3901 91.6103 68.8594C91.6103 69.3287 91.6034 69.76 91.5879 70.1548C91.545 71.3598 91.4196 72.5204 91.2117 73.6398C91.0038 74.7576 90.6739 75.8104 90.2221 76.795C89.7702 77.7797 89.1844 78.6723 88.4611 79.4762C87.736 80.2785 86.8495 80.9603 85.805 81.5168C84.7432 82.0828 83.8532 82.346 83.1368 82.3127C82.4204 82.2763 81.8362 82.0083 81.3827 81.5057C80.9325 81.0031 80.6027 80.3023 80.3948 79.4048C80.1869 78.509 80.0615 77.48 80.0185 76.321C79.9893 75.5615 79.9756 74.6894 79.9756 73.7016C79.9756 72.7139 79.991 71.8244 80.0185 71.0348C80.0598 69.8313 80.1869 68.6596 80.3948 67.5196C80.6027 66.3812 80.9343 65.3125 81.3827 64.32C81.8362 63.3243 82.4204 62.4189 83.1368 61.5992C83.8532 60.7795 84.7432 60.0866 85.805 59.5206C86.8495 58.9625 87.736 58.7008 88.4611 58.7326C89.1844 58.7658 89.7719 59.0322 90.2221 59.5348C90.6756 60.0375 91.0038 60.7383 91.2117 61.6357C91.4196 62.5331 91.5433 63.5574 91.5879 64.7164ZM82.922 74.6197C82.9942 76.0483 83.2416 77.0535 83.6643 77.6306C84.0869 78.2109 84.7999 78.2331 85.805 77.6972C86.8066 77.1629 87.5196 76.3812 87.9422 75.3506C88.3648 74.3216 88.614 73.0532 88.6861 71.5485C88.7153 70.7589 88.7291 69.8964 88.7291 68.9577C88.7291 68.0207 88.7136 67.174 88.6861 66.4145C88.614 64.9875 88.3666 63.9823 87.9422 63.402C87.5196 62.8232 86.8066 62.8011 85.805 63.3354C84.7999 63.8697 84.0869 64.653 83.6643 65.682C83.2416 66.7126 82.9942 67.981 82.922 69.4841C82.8928 70.2737 82.8791 71.1362 82.8791 72.0733C82.8774 73.0135 82.8928 73.8602 82.922 74.6197Z" fill="#FAFAFA"/>
<path d="M102.36 72.3899C102.202 72.4739 102.066 72.466 101.953 72.3629C101.838 72.2615 101.781 72.0982 101.781 71.873V68.1755L95.1151 71.7271C94.9571 71.8112 94.8196 71.8033 94.7062 71.7018C94.5911 71.5987 94.5344 71.437 94.5344 71.2118V69.0428C94.5344 68.7574 94.5791 68.4815 94.6736 68.2199C94.7664 67.9567 94.878 67.6682 95.0069 67.3542L101.585 52.1774C101.874 51.5147 102.168 51.104 102.468 50.9439L104.102 50.0734C104.26 49.9894 104.396 49.9973 104.511 50.1004C104.625 50.2018 104.685 50.3651 104.685 50.5871V62.8101L106.532 61.8254C106.691 61.7414 106.825 61.7509 106.942 61.8524C107.054 61.9539 107.114 62.1172 107.114 62.3423V64.5114C107.114 64.7365 107.056 64.9585 106.942 65.1836C106.825 65.4088 106.691 65.561 106.532 65.645L104.685 66.6296V70.3271C104.685 70.5523 104.626 70.7758 104.511 70.9994C104.396 71.2245 104.259 71.3783 104.102 71.4624L102.36 72.3899ZM101.779 64.3576V57.8188L98.1028 66.3173L101.779 64.3576Z" fill="#FAFAFA"/>
<path d="M116.876 57.2913V62.8534C116.876 63.0785 116.819 63.3021 116.702 63.5257C116.589 63.7492 116.451 63.9046 116.295 63.9886L114.661 64.8591C114.501 64.9431 114.367 64.9336 114.252 64.8322C114.139 64.7307 114.081 64.5674 114.081 64.3422V58.7801L110.23 60.8318C110.074 60.9159 109.937 60.9079 109.823 60.8049C109.708 60.7034 109.651 60.5401 109.651 60.3149V58.2997C109.651 58.0746 109.706 57.8526 109.823 57.6275C109.937 57.4039 110.074 57.2485 110.23 57.1645L114.081 55.1128V49.584C114.081 49.3589 114.137 49.1353 114.252 48.9117C114.367 48.6866 114.503 48.5344 114.661 48.4488L116.295 47.5783C116.453 47.4943 116.589 47.5022 116.702 47.6052C116.817 47.7067 116.876 47.87 116.876 48.0936V53.6224L120.704 51.5834C120.86 51.4993 120.997 51.5088 121.111 51.6103C121.224 51.7134 121.284 51.8751 121.284 52.0987V54.1139C121.284 54.339 121.226 54.5626 121.111 54.7862C120.997 55.0113 120.86 55.1651 120.704 55.2491L116.876 57.2913Z" fill="#FAFAFA"/>
<path d="M126.942 54.6502C127.099 54.5662 127.234 54.5741 127.35 54.6756C127.463 54.7786 127.521 54.942 127.521 55.1655V58.1606C127.521 58.3858 127.465 58.6093 127.35 58.8329C127.234 59.058 127.097 59.2118 126.942 59.2959L124.941 60.3613C124.784 60.4454 124.647 60.4374 124.534 60.3344C124.418 60.2329 124.36 60.0696 124.36 59.8445V56.8494C124.36 56.6258 124.417 56.4022 124.534 56.1771C124.647 55.9535 124.786 55.7997 124.941 55.7157L126.942 54.6502Z" fill="#FAFAFA"/>
<path d="M133.627 51.0877C133.785 51.0037 133.921 51.0116 134.034 51.1131C134.149 51.2161 134.208 51.3795 134.208 51.603V54.5981C134.208 54.8233 134.151 55.0468 134.034 55.2704C133.921 55.4955 133.783 55.6493 133.627 55.7334L131.625 56.7988C131.469 56.8829 131.333 56.8749 131.218 56.7719C131.105 56.6704 131.046 56.5071 131.046 56.2819V53.2869C131.046 53.0633 131.103 52.8397 131.218 52.6146C131.333 52.391 131.471 52.2372 131.625 52.1532L133.627 51.0877Z" fill="#FAFAFA"/>
<path d="M140.315 47.5233C140.473 47.4392 140.609 47.4472 140.724 47.5486C140.838 47.6517 140.896 47.815 140.896 48.0386V51.0336C140.896 51.2588 140.839 51.4824 140.724 51.7059C140.609 51.9311 140.473 52.0849 140.315 52.1689L138.316 53.2344C138.158 53.3184 138.022 53.3105 137.907 53.2074C137.793 53.106 137.735 52.9426 137.735 52.7175V49.7224C137.735 49.4988 137.792 49.2753 137.907 49.0501C138.022 48.8266 138.158 48.6728 138.316 48.5887L140.315 47.5233Z" fill="#FAFAFA"/>
</svg>
