<svg viewBox="0 0 64 64" fill="none" xmlns="http://www.w3.org/2000/svg">
<path d="M36.9 22.7L39.4 4.1C37 3.5 34.6 2 32 2C29.4 2 27 3.5 24.5 4.2C22 4.8 19.2 4.7 17 6C14.8 7.3 13.4 9.8 11.6 11.6C9.8 13.4 7.3 14.8 6 17C4.7 19.2 4.8 22 4.1 24.5C3.5 27 2 29.4 2 32C2 34.6 3.5 37 4.2 39.5C4.8 42 4.7 44.8 6 47C7.3 49.2 9.8 50.6 11.6 52.4C13.4 54.2 14.7 56.7 17 58C19.2 59.3 22 59.2 24.5 59.9C27 60.5 29.4 62 32 62C34.6 62 37 60.5 39.5 59.8C42 59.1 44.8 59.2 47 57.9C49.2 56.6 50.6 54.1 52.4 52.3C54.2 50.5 56.7 49.2 58 46.9C59.3 44.7 59.2 41.9 59.9 39.4C60.5 37 62 34.6 62 32C62 29.4 59.9 23.9 59.9 23.9L36.9 22.7Z" fill="#DDA85F"/>
<path d="M59.3996 22.4C58.3996 22.7 56.9996 22.6 55.4996 22C53.3996 21.2 52.0996 19.5 51.6996 17.5C50.6996 17.8 48.2996 17.5 46.6996 16.5C44.2996 15 43.7996 10.8 43.7996 10.8C41.0996 10 39.0996 6.8 39.3996 4.1C37.1996 3.5 34.3996 3.6 31.9996 3.6C29.5996 3.6 27.3996 5 25.1996 5.6C22.8996 6.2 20.2996 6.1 18.2996 7.3C16.2996 8.5 14.9996 10.8 13.3996 12.4C11.6996 14.1 9.39961 15.3 8.29961 17.3C7.09961 19.3 7.19961 21.9 6.59961 24.2C5.99961 26.4 4.59961 28.6 4.59961 31C4.59961 33.4 5.99961 35.6 6.59961 37.8C7.19961 40.1 7.09961 42.7 8.29961 44.7C9.49961 46.7 11.7996 48 13.3996 49.6C15.0996 51.3 16.2996 53.6 18.2996 54.7C20.2996 55.9 22.8996 55.8 25.1996 56.4C27.3996 57 29.5996 58.4 31.9996 58.4C34.3996 58.4 36.5996 57 38.7996 56.4C41.0996 55.8 43.6996 55.9 45.6996 54.7C47.6996 53.5 48.9996 51.2 50.5996 49.6C52.2996 47.9 54.5996 46.7 55.6996 44.7C56.8996 42.7 56.7996 40.1 57.3996 37.8C57.9996 35.6 60.3996 33.8 60.6996 31.4C61.4996 27.5 59.4996 23.1 59.3996 22.4Z" fill="#F2CB7D"/>
<path d="M50.1002 10.7999L48.7002 12.1999L47.4002 10.7999L48.7002 9.4999L50.1002 10.7999ZM55.8002 17.7999L55.2002 18.4999L54.5002 17.7999L55.2002 17.0999L55.8002 17.7999ZM50.8002 13.1999L50.1002 13.8999L49.4002 13.1999L50.1002 12.4999L50.8002 13.1999ZM44.6002 7.0999L43.9002 7.7999L43.2002 7.0999L43.9002 6.3999L44.6002 7.0999ZM57.2002 20.2999L56.5002 20.9999L55.8002 20.2999L56.5002 19.5999L57.2002 20.2999ZM57.8002 17.7999L57.1002 18.4999L56.4002 17.7999L57.1002 17.0999L57.8002 17.7999Z" fill="#DDA85F"/>
<path d="M11.7997 20.5999C10.7997 22.2999 12.2997 25.3999 14.2997 26.2999C17.1997 27.4999 18.8997 27.6999 20.6997 24.5999C21.2997 23.4999 22.0997 20.5999 21.7997 19.8999C21.3997 18.8999 19.6997 16.8999 18.5997 16.8999C15.4997 16.9999 12.4997 19.3999 11.7997 20.5999Z" fill="#6D4934"/>
<path d="M12.3001 20.5999C11.6001 21.7999 13.4001 25.3999 15.8001 25.0999C19.1001 24.6999 18.8001 17.8999 17.4001 17.8999C15.0001 17.8999 12.8001 19.6999 12.3001 20.5999Z" fill="#A37F6A"/>
<path d="M45.1999 39.1002C46.5999 38.7002 47.5999 36.2002 46.9999 34.7002C46.0999 32.4002 45.1999 31.4002 42.5999 32.1002C41.6999 32.4002 39.5999 33.5002 39.3999 34.0002C39.0999 34.8002 38.8999 36.8002 39.4999 37.4002C41.1999 39.1002 44.1999 39.4002 45.1999 39.1002Z" fill="#6D4934"/>
<path d="M43.7996 36.7002C44.8996 36.4002 46.5996 33.0002 44.7996 32.8002C41.6996 32.3002 39.2996 33.8002 39.5996 35.5002C39.8996 37.2002 42.9996 36.9002 43.7996 36.7002Z" fill="#A37F6A"/>
<path d="M24.8997 44.5001C24.5997 43.3001 22.3997 42.4001 20.9997 43.0001C18.9997 43.8001 18.0997 44.5001 18.7997 46.8001C18.9997 47.6001 19.9997 49.4001 20.4997 49.5001C21.1997 49.8001 22.8997 49.9001 23.3997 49.4001C24.8997 48.0001 25.0997 45.4001 24.8997 44.5001Z" fill="#6D4934"/>
<path d="M23.1997 43.6002C22.9997 42.7002 18.7997 44.0002 19.1997 45.6002C19.9997 48.3002 19.9997 48.7002 20.7997 48.6002C22.2997 48.2002 23.2997 44.3002 23.1997 43.6002Z" fill="#A37F6A"/>
<path d="M51.1002 25.5001C49.9002 25.8001 49.0002 28.0001 49.6002 29.4001C50.4002 31.4001 52.3002 31.7001 54.4002 30.6001C56.2002 29.7001 56.3002 26.5001 55.8002 25.9001C54.3002 24.4001 52.0002 25.3001 51.1002 25.5001Z" fill="#6D4934"/>
<path d="M50.5997 26.5998C49.9997 27.2998 49.4997 30.0998 50.9997 29.6998C53.6997 28.8998 55.5997 26.1998 54.3997 25.7998C52.8997 25.2998 51.2997 25.7998 50.5997 26.5998Z" fill="#A37F6A"/>
<path d="M22.7402 16.1118L24.7202 14.1318L26.7002 16.1118L24.7202 18.0918L22.7402 16.1118Z" fill="#6D4934"/>
<path d="M14.7061 33.4831L16.6851 31.5031L18.6651 33.4821L16.6861 35.4621L14.7061 33.4831ZM34.6981 44.8111L36.6781 42.8311L38.6581 44.8111L36.6781 46.7911L34.6981 44.8111ZM32.0381 39.2891L34.7251 36.6021L37.4121 39.2891L34.7251 41.9761L32.0381 39.2891ZM24.6961 9.82714L27.3831 7.14014L30.0701 9.82714L27.3831 12.5141L24.6961 9.82714Z" fill="#DDA85F"/>
<path d="M41.1216 46.347L43.1016 44.367L45.0816 46.347L43.1016 48.327L41.1216 46.347ZM49.0756 35.215L51.0556 33.235L53.0356 35.215L51.0556 37.195L49.0756 35.215ZM41.8116 24.637L42.8016 23.647L43.7916 24.637L42.8016 25.627L41.8116 24.637ZM13.7256 38.266L14.7156 37.276L15.7056 38.266L14.7156 39.256L13.7256 38.266Z" fill="#6D4934"/>
</svg>
