<svg viewBox="0 0 539 509" fill="none" xmlns="http://www.w3.org/2000/svg">
<g opacity="0.2">
<path d="M455.982 0H442.374V508.656H455.982V0Z" fill="black"/>
</g>
<g opacity="0.2">
<path d="M72.9187 3.34692H59.3101V508.655H72.9187V3.34692Z" fill="black"/>
</g>
<g opacity="0.2">
<path d="M537.537 48.0559H0.834961V54.59H537.537V48.0559Z" fill="black"/>
</g>
<g opacity="0.2">
<path d="M537.538 415.953H0V422.488H537.538V415.953Z" fill="black"/>
</g>
<path d="M538.596 38.4597H0V48.0559H538.596V38.4597Z" fill="#263238"/>
<path d="M77.9958 0H64.3872V508.656H77.9958V0Z" fill="#263238"/>
<path d="M461.907 0H448.298V508.656H461.907V0Z" fill="#263238"/>
<path d="M538.596 407.409H0V417.005H538.596V407.409Z" fill="#263238"/>
<path d="M448.298 407.295C448.298 407.449 365.956 407.574 264.405 407.574C162.819 407.574 80.4956 407.449 80.4956 407.295C80.4956 407.142 162.819 407.017 264.405 407.017C365.956 407.018 448.298 407.142 448.298 407.295Z" fill="#323339"/>
<path d="M537.509 407.225C537.509 407.378 520.685 407.504 499.935 407.504C479.178 407.504 462.356 407.379 462.356 407.225C462.356 407.071 479.178 406.947 499.935 406.947C520.685 406.947 537.509 407.071 537.509 407.225Z" fill="#323339"/>
<path d="M64.6764 406.513C64.6764 406.667 50.4678 406.792 32.9449 406.792C15.4152 406.792 1.20996 406.667 1.20996 406.513C1.20996 406.359 15.4152 406.236 32.9449 406.236C50.4667 406.236 64.6764 406.359 64.6764 406.513Z" fill="#323339"/>
<path d="M78.1517 34.3556C77.989 34.3556 77.8579 26.7132 77.8579 17.287C77.8579 7.85768 77.989 0.217285 78.1517 0.217285C78.3133 0.217285 78.4455 7.85877 78.4455 17.287C78.4455 26.7132 78.3144 34.3556 78.1517 34.3556Z" fill="#323339"/>
<path d="M419.241 38.4601C419.241 38.6141 342.879 38.7382 248.705 38.7382C154.497 38.7382 78.1519 38.6141 78.1519 38.4601C78.1519 38.306 154.497 38.1819 248.705 38.1819C342.879 38.1819 419.241 38.306 419.241 38.4601Z" fill="#323339"/>
<path d="M538.547 38.6256C538.547 38.7797 521.487 38.9037 500.449 38.9037C479.402 38.9037 462.347 38.7797 462.347 38.6256C462.347 38.4715 479.402 38.3474 500.449 38.3474C521.487 38.3474 538.547 38.4726 538.547 38.6256Z" fill="#323339"/>
<path d="M461.894 1.1875C462.056 1.1875 462.188 9.08787 462.188 18.8296C462.188 28.5756 462.057 36.4739 461.894 36.4739C461.733 36.4739 461.601 28.5756 461.601 18.8296C461.601 9.08787 461.733 1.1875 461.894 1.1875Z" fill="#323339"/>
<path d="M462.682 401.747C462.52 401.747 462.388 327.363 462.388 235.627C462.388 143.859 462.519 69.491 462.682 69.491C462.844 69.491 462.976 143.859 462.976 235.627C462.975 327.363 462.844 401.747 462.682 401.747Z" fill="#323339"/>
<path d="M77.9949 401.747C77.8322 401.747 77.7012 327.363 77.7012 235.627C77.7012 143.859 77.8322 69.491 77.9949 69.491C78.1565 69.491 78.2887 143.859 78.2887 235.627C78.2887 327.363 78.1577 401.747 77.9949 401.747Z" fill="#323339"/>
<path d="M77.9949 508.656C77.8333 508.656 77.7021 476.959 77.7021 458.611C77.7021 440.256 77.8333 425.383 77.9949 425.383C78.1565 425.383 78.2876 440.257 78.2876 458.611C78.2876 476.958 78.1565 508.656 77.9949 508.656Z" fill="#323339"/>
<path d="M462.682 508.656C462.52 508.656 462.389 476.959 462.389 458.611C462.389 440.256 462.52 425.383 462.682 425.383C462.843 425.383 462.974 440.257 462.974 458.611C462.974 476.958 462.843 508.656 462.682 508.656Z" fill="#323339"/>
<path d="M52.7214 38.7401C52.7214 38.8932 41.7954 39.0184 28.3213 39.0184C14.8426 39.0184 3.91895 38.8943 3.91895 38.7401C3.91895 38.5861 14.8426 38.4619 28.3213 38.4619C41.7954 38.4619 52.7214 38.5871 52.7214 38.7401Z" fill="#323339"/>
</svg>
