<svg viewBox="0 0 553 462" fill="none" xmlns="http://www.w3.org/2000/svg">
<path d="M468 35H455V462H468V35Z" fill="black" fill-opacity="0.6"/>
<path d="M74 35H61V462H74V35Z" fill="black" fill-opacity="0.6"/>
<path d="M551 44H2V49H551V44Z" fill="black" fill-opacity="0.6"/>
<path d="M551 378H0V384H551V378Z" fill="black" fill-opacity="0.6"/>
<path d="M553 35H0V44H553V35Z" fill="#7E7E7E"/>
<path d="M80 35H67V462H80V35Z" fill="#7E7E7E"/>
<path d="M474 35H461V462H474V35Z" fill="#7E7E7E"/>
<path d="M553 370H0V379H553V370Z" fill="#7E7E7E"/>
<path d="M475 365C474.449 365 474 297.389 474 214.007C474 130.596 474.446 63 475 63C475.551 63 476 130.596 476 214.007C475.997 297.389 475.551 365 475 365Z" fill="white"/>
<path d="M475.002 462C474.448 462 474 433.072 474 416.326C474 399.574 474.448 386 475.002 386C475.552 386 476 399.575 476 416.326C476 433.071 475.552 462 475.002 462Z" fill="white"/>
<path d="M455.547 47.3967L82.5469 193.397" stroke="#FFBC00" stroke-width="3" stroke-linecap="round"/>
<path d="M261 49L80 365" stroke="#FFBC00" stroke-width="5" stroke-linecap="round" stroke-dasharray="10 10"/>
<path d="M261 49L456 370" stroke="#FFBC00" stroke-width="5" stroke-linecap="round" stroke-dasharray="10 10"/>
<path d="M455 370L82.5469 193.397" stroke="#FFBC00" stroke-width="3" stroke-linecap="round"/>
<path d="M390.006 91.3636V103H387.545V93.6989H387.477L384.812 95.3693V93.1875L387.693 91.3636H390.006ZM397.021 103.159C396.218 103.159 395.502 103.011 394.874 102.716C394.249 102.42 393.752 102.013 393.385 101.494C393.018 100.975 392.826 100.381 392.811 99.7102H395.197C395.224 100.161 395.413 100.527 395.766 100.807C396.118 101.087 396.536 101.227 397.021 101.227C397.408 101.227 397.749 101.142 398.044 100.972C398.343 100.797 398.576 100.557 398.743 100.25C398.913 99.9394 398.999 99.5833 398.999 99.1818C398.999 98.7727 398.911 98.4129 398.737 98.1023C398.567 97.7917 398.33 97.5492 398.027 97.375C397.724 97.2008 397.377 97.1117 396.987 97.108C396.646 97.108 396.315 97.178 395.993 97.3182C395.675 97.4583 395.427 97.6496 395.249 97.892L393.061 97.5L393.612 91.3636H400.726V93.375H395.641L395.339 96.2898H395.408C395.612 96.0019 395.921 95.7633 396.334 95.5739C396.747 95.3845 397.209 95.2898 397.72 95.2898C398.421 95.2898 399.046 95.4545 399.595 95.7841C400.144 96.1136 400.578 96.5663 400.896 97.142C401.214 97.714 401.372 98.3731 401.368 99.1193C401.372 99.9034 401.19 100.6 400.822 101.21C400.459 101.816 399.949 102.294 399.294 102.642C398.643 102.987 397.885 103.159 397.021 103.159ZM407.646 103.256C406.669 103.252 405.828 103.011 405.124 102.534C404.423 102.057 403.883 101.366 403.504 100.46C403.129 99.5549 402.944 98.4659 402.947 97.1932C402.947 95.9242 403.135 94.8428 403.51 93.9489C403.889 93.0549 404.429 92.375 405.129 91.9091C405.834 91.4394 406.673 91.2045 407.646 91.2045C408.62 91.2045 409.457 91.4394 410.158 91.9091C410.862 92.3788 411.404 93.0606 411.783 93.9545C412.161 94.8447 412.349 95.9242 412.345 97.1932C412.345 98.4697 412.156 99.5606 411.777 100.466C411.402 101.371 410.864 102.062 410.163 102.54C409.463 103.017 408.624 103.256 407.646 103.256ZM407.646 101.216C408.313 101.216 408.845 100.881 409.243 100.21C409.641 99.5398 409.838 98.5341 409.834 97.1932C409.834 96.3106 409.743 95.5758 409.561 94.9886C409.383 94.4015 409.129 93.9602 408.8 93.6648C408.474 93.3693 408.089 93.2216 407.646 93.2216C406.983 93.2216 406.453 93.553 406.055 94.2159C405.658 94.8788 405.457 95.8712 405.453 97.1932C405.453 98.0871 405.542 98.8333 405.72 99.4318C405.902 100.027 406.158 100.473 406.487 100.773C406.817 101.068 407.203 101.216 407.646 101.216ZM418.662 103.256C417.685 103.252 416.844 103.011 416.139 102.534C415.438 102.057 414.899 101.366 414.52 100.46C414.145 99.5549 413.959 98.4659 413.963 97.1932C413.963 95.9242 414.151 94.8428 414.526 93.9489C414.904 93.0549 415.444 92.375 416.145 91.9091C416.849 91.4394 417.688 91.2045 418.662 91.2045C419.635 91.2045 420.473 91.4394 421.173 91.9091C421.878 92.3788 422.42 93.0606 422.798 93.9545C423.177 94.8447 423.365 95.9242 423.361 97.1932C423.361 98.4697 423.171 99.5606 422.793 100.466C422.418 101.371 421.88 102.062 421.179 102.54C420.478 103.017 419.639 103.256 418.662 103.256ZM418.662 101.216C419.329 101.216 419.861 100.881 420.259 100.21C420.656 99.5398 420.853 98.5341 420.849 97.1932C420.849 96.3106 420.759 95.5758 420.577 94.9886C420.399 94.4015 420.145 93.9602 419.815 93.6648C419.49 93.3693 419.105 93.2216 418.662 93.2216C417.999 93.2216 417.469 93.553 417.071 94.2159C416.673 94.8788 416.473 95.8712 416.469 97.1932C416.469 98.0871 416.558 98.8333 416.736 99.4318C416.918 100.027 417.173 100.473 417.503 100.773C417.832 101.068 418.219 101.216 418.662 101.216ZM430.297 100.324L432.661 94.2727H434.501L431.098 103H429.49L426.166 94.2727H428.001L430.297 100.324ZM427.45 94.2727V103H425.138V94.2727H427.45ZM433.263 103V94.2727H435.547V103H433.263ZM442.578 100.324L444.942 94.2727H446.783L443.379 103H441.771L438.447 94.2727H440.283L442.578 100.324ZM439.732 94.2727V103H437.419V94.2727H439.732ZM445.544 103V94.2727H447.828V103H445.544Z" fill="#0000FF"/>
<path d="M92.0057 139.364V151H89.5455V141.699H89.4773L86.8125 143.369V141.188L89.6932 139.364H92.0057ZM99.1122 151.159C98.2372 151.159 97.4588 151.017 96.777 150.733C96.099 150.445 95.5668 150.053 95.1804 149.557C94.794 149.061 94.6009 148.498 94.6009 147.869C94.6009 147.384 94.7107 146.939 94.9304 146.534C95.1539 146.125 95.4569 145.786 95.8395 145.517C96.2221 145.244 96.6501 145.07 97.1236 144.994V144.915C96.5024 144.79 95.9986 144.489 95.6122 144.011C95.2259 143.53 95.0327 142.972 95.0327 142.335C95.0327 141.733 95.2088 141.197 95.5611 140.727C95.9134 140.254 96.3963 139.883 97.0099 139.614C97.6274 139.341 98.3281 139.205 99.1122 139.205C99.8963 139.205 100.595 139.341 101.209 139.614C101.826 139.886 102.311 140.259 102.663 140.733C103.016 141.203 103.194 141.737 103.197 142.335C103.194 142.975 102.997 143.534 102.607 144.011C102.216 144.489 101.716 144.79 101.107 144.915V144.994C101.572 145.07 101.995 145.244 102.374 145.517C102.756 145.786 103.059 146.125 103.283 146.534C103.51 146.939 103.625 147.384 103.629 147.869C103.625 148.498 103.43 149.061 103.044 149.557C102.658 150.053 102.124 150.445 101.442 150.733C100.764 151.017 99.9872 151.159 99.1122 151.159ZM99.1122 149.352C99.5024 149.352 99.8433 149.282 100.135 149.142C100.427 148.998 100.654 148.801 100.817 148.551C100.983 148.297 101.067 148.006 101.067 147.676C101.067 147.339 100.982 147.042 100.811 146.784C100.641 146.523 100.41 146.318 100.118 146.17C99.8262 146.019 99.491 145.943 99.1122 145.943C98.7372 145.943 98.402 146.019 98.1065 146.17C97.8111 146.318 97.5781 146.523 97.4077 146.784C97.241 147.042 97.1577 147.339 97.1577 147.676C97.1577 148.006 97.2391 148.297 97.402 148.551C97.5649 148.801 97.794 148.998 98.0895 149.142C98.3849 149.282 98.7259 149.352 99.1122 149.352ZM99.1122 144.153C99.438 144.153 99.7277 144.087 99.9815 143.955C100.235 143.822 100.434 143.638 100.578 143.403C100.722 143.169 100.794 142.898 100.794 142.591C100.794 142.288 100.722 142.023 100.578 141.795C100.434 141.564 100.237 141.384 99.9872 141.256C99.7372 141.123 99.4455 141.057 99.1122 141.057C98.7827 141.057 98.491 141.123 98.2372 141.256C97.9834 141.384 97.7846 141.564 97.6406 141.795C97.5005 142.023 97.4304 142.288 97.4304 142.591C97.4304 142.898 97.5024 143.169 97.6463 143.403C97.7902 143.638 97.9891 143.822 98.2429 143.955C98.4967 144.087 98.7865 144.153 99.1122 144.153ZM109.912 151.256C108.935 151.252 108.094 151.011 107.389 150.534C106.688 150.057 106.149 149.366 105.77 148.46C105.395 147.555 105.209 146.466 105.213 145.193C105.213 143.924 105.401 142.843 105.776 141.949C106.154 141.055 106.694 140.375 107.395 139.909C108.099 139.439 108.938 139.205 109.912 139.205C110.885 139.205 111.723 139.439 112.423 139.909C113.128 140.379 113.67 141.061 114.048 141.955C114.427 142.845 114.615 143.924 114.611 145.193C114.611 146.47 114.421 147.561 114.043 148.466C113.668 149.371 113.13 150.062 112.429 150.54C111.728 151.017 110.889 151.256 109.912 151.256ZM109.912 149.216C110.579 149.216 111.111 148.881 111.509 148.21C111.906 147.54 112.103 146.534 112.099 145.193C112.099 144.311 112.009 143.576 111.827 142.989C111.649 142.402 111.395 141.96 111.065 141.665C110.74 141.369 110.355 141.222 109.912 141.222C109.249 141.222 108.719 141.553 108.321 142.216C107.923 142.879 107.723 143.871 107.719 145.193C107.719 146.087 107.808 146.833 107.986 147.432C108.168 148.027 108.423 148.473 108.753 148.773C109.082 149.068 109.469 149.216 109.912 149.216ZM120.928 151.256C119.95 151.252 119.109 151.011 118.405 150.534C117.704 150.057 117.164 149.366 116.786 148.46C116.411 147.555 116.225 146.466 116.229 145.193C116.229 143.924 116.416 142.843 116.791 141.949C117.17 141.055 117.71 140.375 118.411 139.909C119.115 139.439 119.954 139.205 120.928 139.205C121.901 139.205 122.738 139.439 123.439 139.909C124.143 140.379 124.685 141.061 125.064 141.955C125.443 142.845 125.63 143.924 125.626 145.193C125.626 146.47 125.437 147.561 125.058 148.466C124.683 149.371 124.145 150.062 123.445 150.54C122.744 151.017 121.905 151.256 120.928 151.256ZM120.928 149.216C121.594 149.216 122.126 148.881 122.524 148.21C122.922 147.54 123.119 146.534 123.115 145.193C123.115 144.311 123.024 143.576 122.842 142.989C122.664 142.402 122.411 141.96 122.081 141.665C121.755 141.369 121.371 141.222 120.928 141.222C120.265 141.222 119.734 141.553 119.337 142.216C118.939 142.879 118.738 143.871 118.734 145.193C118.734 146.087 118.823 146.833 119.001 147.432C119.183 148.027 119.439 148.473 119.768 148.773C120.098 149.068 120.484 149.216 120.928 149.216ZM132.562 148.324L134.926 142.273H136.767L133.364 151H131.756L128.432 142.273H130.267L132.562 148.324ZM129.716 142.273V151H127.403V142.273H129.716ZM135.528 151V142.273H137.812V151H135.528ZM144.844 148.324L147.207 142.273H149.048L145.645 151H144.037L140.713 142.273H142.548L144.844 148.324ZM141.997 142.273V151H139.685V142.273H141.997ZM147.81 151V142.273H150.094V151H147.81Z" fill="#0000FF"/>
</svg>
