<svg viewBox="0 0 500 500" fill="none" xmlns="http://www.w3.org/2000/svg">
<path d="M375.731 345.512C380.595 348.32 390.155 347.354 397.083 343.354L437.019 320.16C443.947 316.16 445.612 310.636 440.738 307.822C435.863 305.008 426.297 305.972 419.37 309.975L379.465 333.179C372.539 337.182 370.867 342.703 375.731 345.512Z" fill="#303136"/>
<path d="M135.311 366.901L94.6914 343.448L135.311 319.996V366.901Z" fill="#303136"/>
<path d="M250.119 380.932L184.649 343.108L250.135 305.358L250.119 380.932Z" fill="#303136"/>
<path d="M80.3606 312.066C80.4746 302.565 73.8396 282.802 64.1286 270.347C54.4176 257.892 39.0246 248.685 27.9686 252.32C17.6706 255.705 18.6196 269.173 30.9556 278.238C43.2916 287.303 61.8606 298.728 67.1466 314.205L78.4006 333.252L80.3606 312.066Z" fill="#407BFF"/>
<path opacity="0.1" d="M80.3606 312.066C80.4746 302.565 73.8396 282.802 64.1286 270.347C54.4176 257.892 39.0246 248.685 27.9686 252.32C17.6706 255.705 18.6196 269.173 30.9556 278.238C43.2916 287.303 61.8606 298.728 67.1466 314.205L78.4006 333.252L80.3606 312.066Z" fill="black"/>
<path d="M80.9055 325.076C80.6035 325.048 80.3445 324.822 80.2865 324.51C74.3145 292.001 48.3945 265.323 32.7605 259.309C32.4035 259.171 32.2245 258.769 32.3615 258.412C32.4975 258.056 32.8915 257.869 33.2585 258.013C49.1895 264.14 75.5895 291.256 81.6515 324.259C81.7215 324.636 81.4715 324.997 81.0945 325.066C81.0315 325.079 80.9675 325.082 80.9055 325.076Z" fill="#28292E"/>
<path d="M75.8194 345.778C74.3574 340.419 67.9394 331.527 57.4764 324.12C45.9014 315.926 31.1754 312.045 27.8454 305.736C23.8454 298.157 30.2784 291.118 42.2494 292.749C54.2204 294.38 75.1044 310.992 78.1774 335.661L75.8194 345.778Z" fill="#407BFF"/>
<path d="M78.2063 340.202C77.9433 340.178 77.7063 340.003 77.6133 339.736C68.0013 311.831 46.9193 301.824 37.1163 300.431C36.7373 300.378 36.4733 300.025 36.5263 299.646C36.5803 299.265 36.9163 299.001 37.3113 299.056C48.1523 300.596 69.1153 310.801 78.9263 339.284C79.0513 339.646 78.8573 340.042 78.4953 340.167C78.4003 340.2 78.3013 340.21 78.2063 340.202Z" fill="#28292E"/>
<path d="M434.924 285.023C434.924 285.023 436.257 264.991 448.062 250.122C459.867 235.252 459.141 229.129 451.002 226.127C442.863 223.125 423.956 241.046 428.163 265.044C432.37 289.042 434.924 285.023 434.924 285.023Z" fill="#407BFF"/>
<path opacity="0.1" d="M434.924 285.023C434.924 285.023 436.257 264.991 448.062 250.122C459.867 235.252 459.141 229.129 451.002 226.127C442.863 223.125 423.956 241.046 428.163 265.044C432.37 289.042 434.924 285.023 434.924 285.023Z" fill="black"/>
<path d="M431.319 273.581C431.075 273.581 430.87 273.391 430.855 273.145C429.476 251.086 445.055 232.987 450.886 228.891C451.094 228.744 451.386 228.794 451.534 229.004C451.682 229.214 451.631 229.504 451.421 229.652C445.704 233.668 430.43 251.424 431.784 273.087C431.8 273.343 431.605 273.564 431.349 273.58C431.338 273.581 431.328 273.581 431.319 273.581Z" fill="#28292E"/>
<path d="M431.716 301.565C431.716 301.565 438.83 304.03 447.971 305.478C457.112 306.925 461.146 302.554 461.146 302.554C461.146 302.554 457.546 293.98 452.355 291.575C452.355 291.575 461.156 293.369 468.22 298.082C468.22 298.082 473.802 298.167 476.024 289.647C476.024 289.647 472.717 284.52 461.621 281.75C461.621 281.75 468.372 280.051 478.1 282.532C478.829 282.822 481.939 271.807 482.88 266.725C483.82 261.643 481.778 261.697 477.817 260.639C473.855 259.581 460.734 256.634 458.254 258.813C455.774 260.992 454.514 268.442 454.514 268.442C454.514 268.442 452.88 264.046 454.142 258.999C454.142 258.999 450.577 257.606 445.044 259.215C440.518 260.532 440.298 263.611 440.503 267.092C440.653 269.636 441.266 272.346 442.462 275.927C442.462 275.927 438.934 271.406 438.825 261.602C438.825 261.602 429.564 266.203 427.983 275.395C427.127 280.365 425.915 294.962 431.716 301.565Z" fill="#407BFF"/>
<path d="M433.462 299.777C433.653 299.777 433.837 299.67 433.925 299.486C441.302 284.161 468.727 266.353 478.551 264.442C478.829 264.388 479.012 264.118 478.958 263.839C478.904 263.56 478.631 263.381 478.355 263.433C468.369 265.376 440.493 283.471 433 299.041C432.877 299.297 432.984 299.604 433.24 299.727C433.312 299.761 433.387 299.777 433.462 299.777Z" fill="#28292E"/>
<path d="M76.7807 352.864C75.6467 352.864 74.9688 351.927 74.9688 350.358V182.149L280.964 63.2183L280.965 230.75C280.965 233.32 279.153 236.458 276.927 237.744L78.4217 352.351C77.8407 352.686 77.2727 352.864 76.7807 352.864Z" fill="#16161B"/>
<path d="M280.379 64.2311L280.38 230.75C280.38 233.094 278.665 236.065 276.635 237.237L78.1298 351.844C77.6368 352.128 77.1708 352.279 76.7808 352.279C75.6738 352.279 75.5538 350.935 75.5538 350.358V182.486L280.379 64.2311ZM281.548 62.2041L74.3848 181.811V350.357C74.3848 352.316 75.3608 353.448 76.7808 353.448C77.3628 353.448 78.0198 353.258 78.7148 352.857L277.219 238.25C279.61 236.869 281.549 233.511 281.549 230.75L281.548 62.2041Z" fill="#323339"/>
<path d="M74.3848 181.811V209.955L281.547 90.3501L281.548 62.2041L74.3848 181.811Z" fill="#407BFF"/>
<path d="M90.6318 183.313L90.6328 187.349C90.6328 188.174 91.2178 188.511 91.9318 188.099L155.625 151.326L155.624 144.29L91.9308 181.063C91.2158 181.475 90.6318 182.488 90.6318 183.313Z" fill="#16161B"/>
<path d="M162.45 140.349C163.167 139.935 163.749 140.271 163.749 141.099V145.135C163.749 145.963 163.167 146.971 162.45 147.385L155.625 151.326L155.624 144.29L162.45 140.349Z" fill="#455A64"/>
<path d="M74.3848 172.74C74.3848 169.978 76.3238 166.621 78.7148 165.24L277.218 50.6329C279.61 49.2519 281.548 50.3719 281.548 53.1329V62.2039L74.3848 181.811V172.74Z" fill="#455A64"/>
<path d="M258.525 66.136C257.403 66.784 256.494 68.359 256.494 69.654C256.494 70.949 257.403 71.475 258.525 70.827C259.647 70.179 260.556 68.604 260.556 67.309C260.556 66.013 259.646 65.488 258.525 66.136Z" fill="#407BFF"/>
<path d="M264.959 62.4163C263.837 63.0643 262.928 64.6393 262.928 65.9343C262.928 67.2293 263.837 67.7553 264.959 67.1073C266.081 66.4593 266.99 64.8843 266.99 63.5893C266.99 62.2933 266.081 61.7683 264.959 62.4163Z" fill="#407BFF"/>
<path d="M271.393 58.6961C270.271 59.3441 269.362 60.9191 269.362 62.2141C269.362 63.5101 270.271 64.0351 271.393 63.3871C272.515 62.7391 273.424 61.1641 273.424 59.8691C273.424 58.5731 272.515 58.0481 271.393 58.6961Z" fill="#407BFF"/>
<g opacity="0.1">
<path d="M216.554 108.675C214.102 110.091 212.114 113.534 212.114 116.366C212.114 119.198 214.102 120.346 216.554 118.93C219.006 117.514 220.994 114.071 220.994 111.239C220.994 108.407 219.006 107.259 216.554 108.675Z" fill="black"/>
<path d="M196.245 120.401C193.793 121.817 191.805 125.26 191.805 128.092C191.805 130.924 193.793 132.072 196.245 130.656C198.697 129.24 200.685 125.797 200.685 122.965C200.685 120.133 198.697 118.985 196.245 120.401Z" fill="black"/>
<path d="M236.865 96.9477C234.413 98.3637 232.425 101.807 232.425 104.639C232.425 107.471 234.413 108.619 236.865 107.203C239.317 105.787 241.305 102.344 241.305 99.5117C241.305 96.6807 239.317 95.5327 236.865 96.9477Z" fill="black"/>
<path d="M257.175 85.1997C254.723 86.6157 252.735 90.0588 252.735 92.8908C252.735 95.7228 254.723 96.8708 257.175 95.4548C259.627 94.0388 261.615 90.5958 261.615 87.7638C261.614 84.9318 259.627 83.7837 257.175 85.1997Z" fill="black"/>
</g>
<path d="M94.9618 212.146L143.17 184.313C145.561 182.932 147.5 184.052 147.5 186.813V233.098C147.5 235.859 145.561 239.217 143.17 240.598L94.9628 268.432C92.5718 269.813 90.6328 268.693 90.6328 265.932L90.6318 219.646C90.6318 216.885 92.5708 213.527 94.9618 212.146Z" fill="#323339"/>
<path d="M164.02 172.277L265.031 113.955C267.422 112.574 269.361 113.694 269.361 116.455V162.74C269.361 165.501 267.422 168.859 265.031 170.24L164.021 228.562C161.63 229.943 159.691 228.824 159.691 226.062L159.69 179.776C159.69 177.016 161.628 173.658 164.02 172.277Z" fill="#323339"/>
<path d="M94.9628 282.503L171.605 238.254C173.996 236.873 175.935 237.854 175.936 240.444C175.936 243.034 173.998 246.253 171.606 247.634L94.9628 291.884C92.5718 293.265 90.6328 292.284 90.6328 289.694C90.6328 287.103 92.5708 283.884 94.9628 282.503Z" fill="#323339"/>
<path d="M94.9628 298.917L171.605 254.668C173.996 253.287 175.935 254.268 175.936 256.858C175.936 259.448 173.998 262.667 171.606 264.048L94.9628 308.298C92.5718 309.679 90.6328 308.698 90.6328 306.108C90.6328 303.517 92.5708 300.298 94.9628 298.917Z" fill="#323339"/>
<path d="M94.9628 315.332L171.605 271.083C173.996 269.702 175.935 270.683 175.936 273.273C175.936 275.863 173.998 279.082 171.606 280.463L94.9628 324.713C92.5718 326.094 90.6328 325.113 90.6328 322.523C90.6328 319.931 92.5708 316.712 94.9628 315.332Z" fill="#323339"/>
<path d="M131.253 259.673C131.253 258.016 132.416 256.001 133.851 255.173L266.762 178.437C268.197 177.609 270.523 177.608 271.958 178.437L274.886 180.128C276.321 180.956 277.484 182.971 277.484 184.628V286.507C277.484 288.157 276.315 290.182 274.886 291.007L141.975 367.743C140.546 368.568 138.208 368.568 136.779 367.743L133.851 366.053C132.422 365.228 131.253 363.203 131.253 361.553V259.673Z" fill="#407BFF"/>
<path opacity="0.4" d="M132.011 257.114L139.385 261.367L276.721 182.068C276.254 181.257 275.603 180.544 274.89 180.126L271.952 178.442C270.526 177.606 268.191 177.606 266.765 178.442L133.854 255.173C133.129 255.589 132.478 256.302 132.011 257.114Z" fill="#28292E"/>
<path opacity="0.1" d="M131.249 259.67V361.547C131.249 363.206 132.417 365.222 133.855 366.045L136.78 367.741C137.001 367.864 137.235 367.975 137.493 368.061C137.825 368.172 138.181 368.258 138.562 368.307C139.238 368.393 139.951 368.369 140.615 368.233C140.787 368.196 140.959 368.147 141.119 368.098C141.23 368.061 141.328 368.024 141.426 367.975C140.947 368.147 140.529 368.122 140.185 367.95C139.693 367.692 139.386 367.102 139.386 366.242V264.365C139.386 263.296 139.927 262.484 140.738 262.153L139.386 261.367L132.012 257.114C131.544 257.925 131.249 258.846 131.249 259.67Z" fill="black"/>
<path opacity="0.2" d="M139.385 261.366L200.937 284.362C205.325 285.997 210.253 284.374 212.81 280.454L222.694 265.311L277.213 181.785L224.665 265.88L277.483 286.551C277.471 287.387 277.163 288.321 276.672 289.144L224.517 266.116L213.031 284.498C210.389 288.714 205.054 290.361 200.507 288.345L192.329 284.735L140.185 367.951C139.693 367.693 139.386 367.103 139.386 366.243V364.547L192.074 284.623L139.385 261.366Z" fill="black"/>
<path d="M249.052 144.405V378.308C249.052 381.069 250.991 382.189 253.382 380.808L358.46 320.142C360.851 318.761 362.79 315.403 362.79 312.642V78.7389C362.79 75.9779 360.851 74.8579 358.46 76.2389L253.382 136.905C250.991 138.286 249.052 141.644 249.052 144.405Z" fill="#16161B" stroke="#323339" stroke-width="1.1698" stroke-miterlimit="10"/>
<path d="M255.142 148.764C255.142 148.116 255.646 147.3 256.268 146.941L268.238 140.033C268.86 139.674 269.364 139.908 269.364 140.556C269.364 141.203 268.86 142.019 268.238 142.378L256.269 149.287C255.646 149.645 255.142 149.411 255.142 148.764Z" fill="#455A64"/>
<path d="M255.142 153.422C255.142 152.774 255.646 151.958 256.268 151.599L268.238 144.691C268.86 144.332 269.364 144.566 269.364 145.214C269.364 145.862 268.86 146.677 268.238 147.036L256.269 153.945C255.646 154.303 255.142 154.069 255.142 153.422Z" fill="#455A64"/>
<path d="M255.142 158.08C255.142 157.432 255.646 156.616 256.268 156.257L268.238 149.349C268.86 148.99 269.364 149.224 269.364 149.872C269.364 150.52 268.86 151.335 268.238 151.694L256.269 158.603C255.646 158.961 255.142 158.727 255.142 158.08Z" fill="#455A64"/>
<path d="M354.665 98.1009V96.2329C354.665 96.1209 354.583 96.0679 354.481 96.1139L353.041 96.7629C352.939 96.8089 352.835 96.7579 352.801 96.6519C352.717 96.3869 352.609 96.1489 352.48 95.9379C352.422 95.8429 352.409 95.6889 352.458 95.5889L353.418 93.6539C353.468 93.5539 353.429 93.4279 353.333 93.3719L352.291 92.7709C352.195 92.7149 352.066 92.7449 352.004 92.8379L350.808 94.6369C350.746 94.7299 350.606 94.7949 350.495 94.7919C350.248 94.7859 349.987 94.8109 349.716 94.8709C349.607 94.8949 349.511 94.8299 349.5 94.7189L349.342 93.1479C349.331 93.0369 349.244 92.9919 349.147 93.0479L347.529 93.9819C347.433 94.0379 347.346 94.1729 347.336 94.2839L347.174 96.0839C347.164 96.1949 347.088 96.3449 347.006 96.4199C346.691 96.7099 346.39 97.0289 346.107 97.3709C346.036 97.4569 345.894 97.4979 345.789 97.4609L344.75 97.0979C344.645 97.0609 344.514 97.1099 344.459 97.2059L343.27 99.2659C343.214 99.3629 343.238 99.4999 343.322 99.5729L344.155 100.291C344.24 100.364 344.275 100.507 344.236 100.611C344.082 101.027 343.955 101.447 343.862 101.865C343.838 101.974 343.746 102.114 343.655 102.179L342.177 103.219C342.086 103.283 342.012 103.426 342.012 103.537V105.405C342.012 105.517 342.094 105.57 342.196 105.524L343.636 104.875C343.738 104.829 343.842 104.88 343.876 104.986C343.96 105.251 344.068 105.489 344.197 105.7C344.255 105.795 344.268 105.949 344.219 106.049L343.259 107.984C343.209 108.084 343.248 108.21 343.344 108.266L344.386 108.867C344.482 108.923 344.611 108.893 344.673 108.8L345.869 107.001C345.931 106.908 346.071 106.843 346.182 106.845C346.429 106.851 346.69 106.826 346.961 106.766C347.07 106.742 347.166 106.807 347.177 106.918L347.335 108.49C347.346 108.601 347.434 108.646 347.53 108.59L349.148 107.656C349.244 107.6 349.331 107.465 349.341 107.354L349.503 105.554C349.513 105.443 349.589 105.293 349.671 105.218C349.986 104.928 350.286 104.609 350.569 104.267C350.64 104.181 350.782 104.14 350.887 104.177L351.925 104.539C352.03 104.576 352.161 104.527 352.217 104.431L353.406 102.371C353.462 102.275 353.438 102.137 353.354 102.064L352.521 101.346C352.436 101.273 352.401 101.13 352.44 101.026C352.594 100.61 352.721 100.19 352.814 99.7719C352.838 99.6629 352.93 99.5229 353.021 99.4579L354.499 98.4179C354.591 98.3549 354.665 98.2129 354.665 98.1009ZM348.34 103.975C346.831 104.846 345.607 104.14 345.607 102.397C345.607 100.654 346.831 98.5349 348.34 97.6639C349.849 96.7929 351.073 97.4989 351.073 99.2419C351.072 100.984 349.849 103.103 348.34 103.975Z" fill="#37474F"/>
<path d="M305.92 144.201C318.198 137.112 328.151 142.859 328.151 157.036C328.151 171.213 318.198 188.452 305.92 195.541C293.642 202.63 283.689 196.883 283.689 182.706C283.69 168.528 293.643 151.289 305.92 144.201Z" fill="#455A64"/>
<path d="M305.765 155.358C309.748 153.058 312.977 154.922 312.977 159.521C312.977 164.121 309.748 169.714 305.765 172.013C301.782 174.312 298.553 172.449 298.553 167.849C298.553 163.25 301.782 157.657 305.765 155.358Z" fill="#407BFF"/>
<path d="M319.978 179.883C319.978 172.326 314.672 169.263 308.129 173.042L304.038 175.404C297.495 179.182 292.189 188.371 292.189 195.927V197.988C293.37 198.38 294.653 198.574 296.008 198.577C298.993 198.583 302.353 197.6 305.92 195.541C311.254 192.461 316.147 187.463 319.978 181.636V179.883Z" fill="#407BFF"/>
<path d="M285.855 216.634L325.986 193.464C327.182 192.774 328.151 193.264 328.151 194.559C328.151 195.854 327.182 197.464 325.986 198.154L285.855 221.324C284.659 222.014 283.69 221.524 283.69 220.229C283.69 218.934 284.659 217.325 285.855 216.634Z" fill="#407BFF"/>
<path d="M281.549 233.207L330.294 205.034C331.49 204.344 332.459 204.834 332.459 206.129C332.459 207.424 331.49 209.034 330.294 209.724L281.549 237.897C280.353 238.587 279.384 238.097 279.384 236.802C279.384 235.507 280.353 233.897 281.549 233.207Z" fill="#455A64"/>
<path d="M331.593 227.745L345.242 219.864C345.959 219.45 346.541 219.639 346.541 220.287C346.541 220.935 345.959 221.796 345.242 222.21L331.593 230.091C330.876 230.505 330.294 230.316 330.294 229.668C330.294 229.02 330.876 228.159 331.593 227.745Z" fill="#37474F"/>
<path d="M263.403 262.43L283.445 250.859C284.641 250.169 285.61 250.728 285.61 252.109V265.871C285.61 267.252 284.641 268.931 283.445 269.621L263.403 281.192C262.207 281.882 261.238 281.323 261.238 279.942V266.18C261.238 264.799 262.207 263.12 263.403 262.43Z" fill="#407BFF"/>
<path d="M266.6 264.353L280.249 256.472C280.966 256.058 281.548 256.247 281.548 256.895C281.548 257.543 280.966 258.404 280.249 258.818L266.6 266.699C265.883 267.113 265.301 266.924 265.301 266.276C265.301 265.628 265.882 264.767 266.6 264.353Z" fill="#16161B"/>
<path d="M265.301 271.294V275.329C265.301 276.157 265.883 276.493 266.6 276.079L280.249 268.198C280.966 267.784 281.548 266.776 281.548 265.948V261.912C281.548 261.084 280.967 260.748 280.249 261.162L266.599 269.043C265.882 269.458 265.301 270.465 265.301 271.294Z" fill="#16161B"/>
<path d="M295.899 243.668L315.941 232.097C317.137 231.407 318.106 231.966 318.106 233.347V247.109C318.106 248.49 317.137 250.169 315.941 250.859L295.899 262.43C294.703 263.12 293.734 262.561 293.734 261.18V247.418C293.734 246.038 294.703 244.359 295.899 243.668Z" fill="#407BFF"/>
<path d="M299.097 245.592L312.746 237.711C313.463 237.297 314.045 237.486 314.045 238.134C314.045 238.782 313.463 239.643 312.746 240.057L299.097 247.938C298.38 248.352 297.798 248.163 297.798 247.515C297.798 246.867 298.379 246.006 299.097 245.592Z" fill="#16161B"/>
<path d="M297.798 252.533V256.568C297.798 257.396 298.38 257.732 299.097 257.318L312.746 249.437C313.463 249.023 314.045 248.015 314.045 247.187L314.046 243.151C314.046 242.323 313.464 241.987 312.747 242.401L299.097 250.282C298.379 250.697 297.798 251.704 297.798 252.533Z" fill="#16161B"/>
<path d="M328.395 224.906L348.437 213.335C349.633 212.645 350.602 213.204 350.602 214.585V228.347C350.602 229.728 349.633 231.407 348.437 232.097L328.395 243.668C327.199 244.358 326.23 243.799 326.23 242.418V228.656C326.23 227.275 327.2 225.596 328.395 224.906Z" fill="#407BFF"/>
<path d="M331.593 226.829L345.242 218.948C345.959 218.534 346.541 218.723 346.541 219.371C346.541 220.019 345.96 220.88 345.242 221.294L331.593 229.175C330.876 229.589 330.294 229.4 330.294 228.752C330.294 228.104 330.876 227.244 331.593 226.829Z" fill="#16161B"/>
<path d="M330.294 233.77V237.805C330.294 238.633 330.876 238.969 331.593 238.555L345.242 230.674C345.959 230.26 346.541 229.252 346.541 228.424V224.388C346.541 223.56 345.96 223.224 345.242 223.638L331.592 231.519C330.876 231.934 330.294 232.942 330.294 233.77Z" fill="#16161B"/>
<path d="M265.568 294.013L346.272 247.418C348.664 246.037 350.602 247.018 350.602 249.608C350.602 252.198 348.663 255.418 346.272 256.798L265.568 303.393C263.177 304.774 261.238 303.793 261.238 301.203C261.238 298.612 263.177 295.393 265.568 294.013Z" fill="#323339"/>
<path d="M265.568 312.774L346.272 266.179C348.664 264.798 350.602 265.779 350.602 268.369C350.602 270.959 348.663 274.179 346.272 275.559L265.568 322.154C263.177 323.535 261.238 322.554 261.238 319.964C261.238 317.374 263.177 314.155 265.568 312.774Z" fill="#323339"/>
<path d="M291.839 321.06L320.005 304.798C321.201 304.108 322.17 304.667 322.17 306.048V315.119C322.17 316.5 321.201 318.179 320.005 318.869L291.839 335.131C290.643 335.821 289.674 335.262 289.674 333.881V324.81C289.673 323.429 290.643 321.75 291.839 321.06Z" fill="#407BFF"/>
<path d="M267.332 295.391C266.21 296.039 265.301 297.614 265.301 298.909C265.301 300.204 266.21 300.729 267.332 300.082C268.454 299.435 269.363 297.859 269.363 296.564C269.363 295.268 268.454 294.743 267.332 295.391Z" fill="#16161B"/>
<path d="M273.765 291.67C272.643 292.318 271.734 293.893 271.734 295.188C271.734 296.483 272.643 297.009 273.765 296.361C274.887 295.713 275.796 294.138 275.796 292.843C275.796 291.548 274.887 291.023 273.765 291.67Z" fill="#16161B"/>
<path d="M280.201 287.95C279.079 288.598 278.17 290.173 278.17 291.468C278.17 292.763 279.079 293.289 280.201 292.641C281.323 291.993 282.232 290.418 282.232 289.123C282.232 287.828 281.322 287.303 280.201 287.95Z" fill="#16161B"/>
<path d="M286.635 284.23C285.513 284.878 284.604 286.453 284.604 287.748C284.604 289.043 285.513 289.568 286.635 288.921C287.757 288.273 288.665 286.698 288.665 285.403C288.665 284.108 287.757 283.582 286.635 284.23Z" fill="#16161B"/>
<path d="M293.069 280.51C291.947 281.158 291.038 282.733 291.038 284.028C291.038 285.323 291.947 285.849 293.069 285.201C294.191 284.553 295.1 282.978 295.1 281.683C295.1 280.388 294.191 279.862 293.069 280.51Z" fill="#16161B"/>
<path d="M299.504 276.79C298.382 277.438 297.473 279.013 297.473 280.308C297.473 281.603 298.382 282.129 299.504 281.481C300.626 280.833 301.535 279.258 301.535 277.963C301.535 276.668 300.625 276.142 299.504 276.79Z" fill="#16161B"/>
<path d="M305.938 273.07C304.816 273.718 303.907 275.293 303.907 276.588C303.907 277.883 304.816 278.408 305.938 277.761C307.06 277.113 307.969 275.538 307.969 274.243C307.969 272.947 307.06 272.422 305.938 273.07Z" fill="#16161B"/>
<path d="M267.332 314.173C266.21 314.821 265.301 316.396 265.301 317.691C265.301 318.986 266.21 319.512 267.332 318.864C268.454 318.216 269.363 316.641 269.363 315.346C269.363 314.051 268.454 313.525 267.332 314.173Z" fill="#16161B"/>
<path d="M273.765 310.453C272.643 311.101 271.734 312.676 271.734 313.971C271.734 315.266 272.643 315.791 273.765 315.144C274.887 314.496 275.796 312.921 275.796 311.626C275.796 310.33 274.887 309.805 273.765 310.453Z" fill="#16161B"/>
<path d="M280.201 306.733C279.079 307.381 278.17 308.956 278.17 310.251C278.17 311.546 279.079 312.072 280.201 311.424C281.323 310.776 282.232 309.201 282.232 307.906C282.232 306.61 281.322 306.085 280.201 306.733Z" fill="#16161B"/>
<path d="M286.635 303.012C285.513 303.66 284.604 305.235 284.604 306.53C284.604 307.825 285.513 308.351 286.635 307.703C287.757 307.055 288.665 305.48 288.665 304.185C288.665 302.89 287.757 302.365 286.635 303.012Z" fill="#16161B"/>
<path d="M293.069 299.292C291.947 299.94 291.038 301.515 291.038 302.81C291.038 304.105 291.947 304.63 293.069 303.983C294.191 303.335 295.1 301.76 295.1 300.465C295.1 299.17 294.191 298.645 293.069 299.292Z" fill="#16161B"/>
<path d="M299.504 295.572C298.382 296.22 297.473 297.795 297.473 299.09C297.473 300.385 298.382 300.911 299.504 300.263C300.626 299.615 301.535 298.04 301.535 296.745C301.534 295.45 300.625 294.924 299.504 295.572Z" fill="#16161B"/>
<path d="M305.938 291.852C304.816 292.5 303.907 294.075 303.907 295.37C303.907 296.665 304.816 297.191 305.938 296.543C307.06 295.896 307.969 294.32 307.969 293.025C307.969 291.729 307.06 291.204 305.938 291.852Z" fill="#16161B"/>
<path d="M396.186 334.13C392.678 334.13 389.351 333.265 386.338 331.526C379.132 327.365 374.999 318.657 374.999 307.635C374.999 288.253 387.318 265.956 403.045 256.877C411.513 251.989 419.922 251.458 426.727 255.387C433.934 259.548 438.066 268.256 438.066 279.278C438.066 298.66 425.747 320.957 410.02 330.036C405.302 332.759 400.601 334.13 396.186 334.13ZM416.846 266.746C414.324 266.746 411.659 268.013 410.02 268.959C398.599 275.553 388.95 293.264 388.95 307.635C388.95 313.452 390.581 317.866 393.313 319.444C396.424 321.24 400.745 319.28 403.044 317.954C414.465 311.36 424.114 293.649 424.114 279.278C424.114 273.461 422.483 269.047 419.751 267.469C418.857 266.952 417.863 266.746 416.846 266.746Z" fill="#455A64"/>
<path d="M426.61 282.381C426.61 271.494 419.751 267.469 419.751 267.469C422.483 269.047 424.114 273.461 424.114 279.278C424.114 293.648 414.465 311.359 403.044 317.954C400.745 319.28 396.424 321.24 393.314 319.445C393.314 319.445 399.102 323.037 407.099 318.675C418.677 312.358 426.61 296.751 426.61 282.381Z" fill="#37474F"/>
<path d="M415.608 146.294C415.608 142.31 412.379 139.081 408.395 139.081C404.411 139.081 401.182 142.31 401.182 146.294C401.182 146.301 401.183 146.307 401.183 146.313H401.182V261.021C401.182 262.087 401.886 263.153 403.295 263.966C406.112 265.592 410.679 265.592 413.496 263.966C414.904 263.153 415.609 262.087 415.609 261.021V146.314H415.608C415.607 146.307 415.608 146.301 415.608 146.294Z" fill="#37474F"/>
<path d="M409.846 171.927C409.846 169.271 407.981 166.04 405.681 164.712C404.511 164.036 403.457 163.989 402.701 164.449L402.697 164.443L384.899 174.697L384.468 174.953C384.406 174.984 384.345 175.015 384.294 175.056C383.986 175.261 383.699 175.497 383.443 175.753C382.366 176.819 381.7 178.306 381.7 179.937C381.7 182.172 382.941 184.121 384.766 185.126C385.607 185.577 386.561 185.833 387.586 185.833C388.601 185.833 389.565 185.577 390.396 185.126C390.509 185.064 390.622 184.993 390.734 184.931L408.645 174.616L408.642 174.611C409.385 174.171 409.846 173.245 409.846 171.927Z" fill="#455A64"/>
<path d="M409.846 200.652C409.846 197.996 407.981 194.765 405.681 193.437C404.511 192.762 403.457 192.714 402.701 193.174L402.697 193.168L381.837 205.147L381.406 205.403C381.344 205.434 381.283 205.465 381.232 205.506C380.924 205.711 380.637 205.947 380.381 206.203C379.304 207.269 378.638 208.756 378.638 210.387C378.638 212.622 379.879 214.571 381.704 215.576C382.545 216.027 383.498 216.284 384.524 216.284C385.539 216.284 386.503 216.028 387.334 215.576C387.447 215.514 387.559 215.443 387.672 215.381L408.645 203.34L408.642 203.335C409.385 202.897 409.846 201.97 409.846 200.652Z" fill="#455A64"/>
</svg>
