<svg viewBox="0 0 200 122" fill="none" xmlns="http://www.w3.org/2000/svg">
<g clip-path="url(#clip0_1418_1804)">
<path d="M23.0856 72.7372V70.5893C23.0856 68.4062 21.4208 66.653 19.3859 66.653C17.351 66.653 15.7174 68.4267 15.7174 70.6101V91.4709V118.271H0.183594V61.8175L61.6379 23.5784V118.271H45.9537V56.4924C45.9537 54.3062 44.2892 52.5616 42.2543 52.5616C40.2193 52.5616 38.5934 54.3298 38.5934 56.5132L38.5883 118.271H23.0856V72.7372Z" fill="black"/>
<path d="M115.752 9.68591L154.397 33.8959V63.0421H138.775V42.5583C138.775 40.3749 137.147 38.6216 135.112 38.6216C133.077 38.6216 131.446 39.9684 131.446 42.1486V103.079C131.446 105.265 133.082 107.015 135.115 107.015C137.15 107.015 138.783 105.244 138.783 103.064L138.775 85.1044H154.397L154.392 118.27H115.749L115.752 9.68591Z" fill="black"/>
<path fill-rule="evenodd" clip-rule="evenodd" d="M92.1563 103.657V63.9678C92.1563 61.7843 90.3802 60.037 88.3452 60.037C86.3103 60.037 84.6536 61.7993 84.6536 63.9855L84.6482 103.518C84.6482 105.701 86.3103 107.609 88.3452 107.609C90.3802 107.609 92.1563 105.841 92.1563 103.657ZM69.2724 57.7292L92.1408 43.3592V27.8203C91.9805 25.8031 90.2796 24.2842 88.3506 24.2842C86.3157 24.2842 84.682 26.0552 84.682 28.2415L84.6847 36.3284L69.2646 45.7236V19.2292L100.363 0L107.747 4.57441L107.752 118.27H69.2673L69.2724 57.7292Z" fill="black"/>
<path fill-rule="evenodd" clip-rule="evenodd" d="M184.951 104.271V71.0961C184.951 68.9099 183.136 67.1626 181.104 67.1626C179.069 67.1626 177.521 68.9099 177.521 71.0961L177.516 104.271C177.516 106.454 179.064 108.202 181.099 108.202C183.134 108.202 184.951 106.454 184.951 104.271ZM162.207 38.6184L200.001 62.0099V118.27H162.21L162.207 38.6184Z" fill="black"/>
</g>
<defs>
<clipPath id="clip0_1418_1804">
<rect width="200" height="122" fill="white"/>
</clipPath>
</defs>
</svg>
