<svg viewBox="0 0 375 466" fill="none" xmlns="http://www.w3.org/2000/svg">
<path opacity="0.2" d="M366 359.643V346.841H350.527C350.527 342.781 350.527 338.721 350.527 334.661C350.527 317.924 350.527 301.185 350.527 284.448C350.527 269.431 350.527 254.416 350.527 239.4C350.527 227.198 350.527 214.996 350.527 202.795C350.527 194.286 350.527 185.778 350.527 177.268C350.527 176.513 350.527 175.758 350.527 175.003C350.527 174.354 350.527 173.706 350.527 173.058C350.527 170.36 350.527 167.662 350.527 164.965C351.88 164.52 353.13 163.819 354.161 162.919C357.131 160.328 358.012 156.644 358.804 153.272C359.737 149.292 360.459 145.18 360.436 141.119C360.418 137.82 359.829 133.975 355.176 133.502C355.016 133.472 354.848 133.452 354.659 133.454C352.684 133.476 350.711 133.499 348.736 133.521C348.736 115.544 348.736 97.5646 348.736 79.5869C348.736 65.0411 348.736 50.4965 348.736 35.9507C348.736 24.4892 348.736 13.0277 348.736 1.5663C348.736 -0.52034 344.781 -0.523863 344.781 1.5663C344.781 19.8064 344.781 38.0467 344.781 56.2869C344.781 70.8327 344.781 85.3773 344.781 99.9231C344.781 111.138 344.781 122.352 344.781 133.567C344.225 133.572 343.67 133.58 343.113 133.585C340.73 133.612 338.429 133.974 337.001 135.742C336.054 136.911 335.853 138.369 335.633 139.73C335.355 141.459 335.248 143.198 335.23 144.941C335.188 148.751 335.695 152.562 336.868 156.253C337.908 159.529 339.521 163.07 343.406 164.74C344.427 165.178 345.497 165.4 346.57 165.467C346.57 167.997 346.57 170.527 346.57 173.057C346.57 173.706 346.57 174.353 346.57 175.002C346.57 181.821 346.57 188.639 346.57 195.459C346.57 206.851 346.57 218.242 346.57 229.633C346.57 243.997 346.57 258.361 346.57 272.724C346.57 289.109 346.57 305.494 346.57 321.878C346.57 330.199 346.57 338.519 346.57 346.839H250.901C251.553 340.602 252.07 335.878 252.325 333.988C253.621 324.434 254.754 305.22 226.208 308.511C218.404 309.411 211.801 311.051 206.618 312.72C206.008 312.346 205.194 312.156 204.066 312.25L203.477 307.582C203.569 305.002 202.839 302.515 202.839 302.515L202.306 298.278L203.442 262.768C204.107 263.114 204.781 263.463 205.48 263.824C208.904 265.587 212.03 267.152 214.314 268.256C216.6 269.36 218.046 270.005 218.11 269.929L218.908 268.912C229.979 274.63 240.641 279.783 243.805 280.159C254.072 281.385 271.341 243.571 275.046 235.165C279.771 235.533 286.432 235.972 287.967 235.651C290.408 235.139 289.845 230.771 289.845 230.771L291.407 229.72C293.789 226.938 292.202 224.322 292.202 224.322C294.821 221.387 290.97 219.392 290.97 219.392C290.97 219.392 291.553 217.18 290.213 214.791C289.622 213.738 287.068 213.416 284.395 213.385L283.359 205.126L315.268 166.814L304.419 157.789L269.817 199.057L278.315 208.937C277.017 208.182 271.672 210.247 269.817 211.637C267.852 213.11 265.807 218.893 265.807 218.893L263.574 223.033L263.52 222.987L240.283 250.095L235.549 247.673L238.888 243.413L205.013 222.987C204.536 222.686 204.062 222.42 203.588 222.183C203.531 221.915 203.495 221.764 203.495 221.764L200.997 221.215C200.695 221.136 200.393 221.072 200.092 221.017L195.701 220.051C194.985 219.409 191.182 216.394 184.288 217.545L177.192 215.988L175.761 216.018L175.598 213.871C175.612 213.87 175.626 213.87 175.641 213.868L175.504 211.075H175.5C176.627 210.86 189.37 208.188 188.766 197.349C188.462 191.872 186.691 180.635 184.94 170.48C184.393 167.312 182.974 164.409 180.925 161.88C183.183 164.156 183.906 166.814 183.906 166.814C183.906 166.814 187.549 166.339 193.635 163.503C197.206 161.84 203.67 157.221 203.074 154.249C202.598 151.875 199.939 150.108 197.099 149.5C194.259 148.893 188.747 148.902 183.541 149.601C180.9 149.957 178.414 150.417 176.006 150.959C165.627 144.127 151.66 147.417 151.66 147.417C134.147 150.515 131.081 164.001 130.847 166.285C130.495 169.704 131.646 174.168 131.646 174.168L131.906 174.039C131.932 174.516 131.966 175.012 132.015 175.551C132.455 180.372 133.762 182.908 135.126 184.323C132.573 184.694 129.903 186.066 130.373 190.297C131.231 198.03 140.736 195.744 140.727 195.521L142.343 216.726L141.43 216.745L131.005 219.183L130.581 218.185C130.581 218.185 123.846 216.391 120.384 221.406C120.384 221.406 120.425 221.493 120.499 221.639L118.506 222.105V222.096C118.506 222.096 107.245 225.41 102.481 234.459C101.373 236.564 84.3179 261.648 84.3179 261.648L85.9752 262.517L76.8165 275.399C76.8165 275.399 74.3688 282.416 76.4385 285.43C78.5083 288.443 86.4411 293.936 95.9708 286.522L107.301 273.703L109.216 274.706L113.743 268.955C114.007 270.579 114.242 271.958 114.432 272.993L115.094 302.518V303.179C113.84 306.625 114.536 309.846 114.908 311.107C114.097 311.242 113.504 311.481 113.1 311.858C107.584 312.518 92.5062 315.471 92.5062 327.988L94.0806 337.006H93.8849C93.9379 337.434 94.211 338.585 94.6553 340.29L95.4379 344.775L95.8322 344.676C96.0207 345.363 96.2184 346.084 96.4293 346.841H64.5754C64.5365 346.145 64.4933 345.763 64.45 345.763C64.4067 345.763 64.3649 346.145 64.3245 346.841H35.8877C35.8877 336.129 35.8877 325.417 35.8877 314.706C35.8877 297.518 35.8877 280.329 35.8877 263.14C35.8877 262.438 35.8877 261.735 35.8877 261.031C35.8877 260.384 35.8877 259.735 35.8877 259.087C35.8877 256.389 35.8877 253.691 35.8877 250.993C37.2406 250.549 38.4911 249.848 39.5224 248.948C42.4922 246.357 43.3734 242.673 44.1652 239.301C45.0984 235.322 45.8195 231.211 45.7979 227.149C45.7792 223.85 45.1907 220.005 40.5378 219.533C40.3777 219.502 40.2075 219.482 40.02 219.484C38.0454 219.507 36.0724 219.529 34.0978 219.551C34.0978 191.934 34.0978 164.316 34.0978 136.699C34.0978 106.695 34.0978 76.6905 34.0978 46.6874C34.0978 31.6474 34.0978 16.6075 34.0978 1.5663C34.0978 -0.52034 30.1416 -0.523863 30.1416 1.5663C30.1416 29.4461 30.1416 57.3261 30.1416 85.2048C30.1416 115.209 30.1416 145.213 30.1416 175.216C30.1416 190.01 30.1416 204.804 30.1416 219.596C29.5862 219.602 29.031 219.609 28.4742 219.616C26.093 219.643 23.791 220.004 22.3617 221.772C21.4155 222.94 21.2151 224.4 20.9944 225.76C20.716 227.488 20.6093 229.228 20.5906 230.97C20.5487 234.78 21.0564 238.593 22.229 242.283C23.269 245.558 24.8814 249.101 28.767 250.77C29.7882 251.209 30.8583 251.431 31.9314 251.496C31.9314 254.027 31.9314 256.557 31.9314 259.087C31.9314 259.736 31.9314 260.384 31.9314 261.031C31.9314 276.355 31.9314 291.678 31.9314 307.001C31.9314 320.282 31.9314 333.561 31.9314 346.839H13.9962C13.9573 346.144 13.914 345.762 13.8708 345.762C13.8275 345.762 13.7857 346.144 13.7453 346.839H3.13846V359.642H13.49C13.4698 362.36 13.4583 365.348 13.4583 368.484C13.4583 379.197 13.5924 388.151 13.7727 390.553H0V394.269H3.40096L3.40534 394.294L3.4572 394.59L4.43084 400.151L5.0409 403.641L13.2102 450.321H31.93C31.93 452.971 31.93 455.62 31.93 458.269C31.93 482.681 31.93 439.244 31.93 463.657L33.8243 464.264L35.7389 463.657C35.7389 457.831 35.8863 456.145 35.8863 450.32H65.1005L71.3573 403.599C71.6284 403.582 71.8101 403.565 71.8101 403.547C71.8101 403.53 71.6327 403.513 71.3716 403.496L71.8101 400.22L72.5674 394.567C74.3024 394.529 75.2659 394.485 75.2659 394.442C75.2659 394.398 74.3141 394.355 72.6005 394.318L72.6063 394.271H75.827V390.554H64.5351C64.7153 388.152 64.851 379.198 64.851 368.485C64.851 365.349 64.8395 362.361 64.8192 359.643H100.029C106.331 381.719 115.199 411.854 115.199 411.854L149.578 409.278L140.735 359.643H213.927L212.79 409.249L244.411 411.854C244.411 411.854 247.267 382.51 249.584 359.643H346.569C346.569 359.761 346.569 359.877 346.569 359.995H340.949V365.507H346.569C346.569 368.418 346.569 371.329 346.569 374.24C346.569 391.813 346.569 409.383 346.569 426.956C346.569 443.693 346.569 446.919 346.569 463.657C349.092 464.871 351.007 463.657 351.007 463.657C351.007 447.272 350.525 456.122 350.525 439.738C350.525 422.284 350.525 404.829 350.525 387.376C350.525 380.086 350.525 372.797 350.525 365.507H356.144V359.995H350.525C350.525 359.877 350.525 359.76 350.525 359.643H366ZM203.476 261.658L210.857 265.83C209.351 265.034 207.688 264.164 205.925 263.258C205.084 262.825 204.262 262.404 203.466 261.999L203.476 261.658ZM114.271 268.27L114.317 268.213L114.328 268.735C114.309 268.581 114.291 268.428 114.271 268.27ZM31.93 359.996H27.3132V365.508H31.93C31.93 369.811 31.93 374.113 31.93 378.414C31.93 382.461 31.93 386.508 31.93 390.553H13.9674C14.1476 388.151 14.2833 379.197 14.2833 368.484C14.2833 365.348 14.2718 362.36 14.2516 359.642H31.9314C31.93 359.761 31.93 359.877 31.93 359.996ZM31.93 247.136C31.93 247.485 31.93 247.833 31.93 248.182C30.8988 248.051 29.8862 247.645 29.0022 246.871C26.6397 244.801 25.9228 241.412 25.3069 238.725C24.6305 235.771 24.4646 232.77 24.5713 229.769C24.6146 228.583 24.6896 227.389 24.8771 226.21C25.0415 225.172 25.1021 223.526 26.4405 223.022C27.3536 222.679 28.7641 222.856 29.7233 222.845C33.1546 222.807 36.5858 222.767 40.0172 222.728C42.6089 222.843 41.8662 227.594 41.7811 229.011C41.6022 231.994 41.1335 234.968 40.47 237.903C39.8513 240.64 39.3263 243.82 37.2594 246.119C36.8556 246.568 36.3824 246.933 35.8849 247.251C35.8849 247.212 35.8849 247.176 35.8849 247.138C35.8877 245.049 31.93 245.046 31.93 247.136ZM35.8877 390.554C35.8877 389.685 35.8877 388.815 35.8877 387.944C35.8877 380.466 35.8877 372.988 35.8877 365.508H42.5095V359.996H35.8877C35.8877 359.879 35.8877 359.761 35.8877 359.644H64.0606C64.0404 362.362 64.0289 365.35 64.0289 368.487C64.0289 379.199 64.163 388.153 64.3447 390.556L35.8877 390.554ZM194.276 346.704C194.165 346.751 194.065 346.794 193.959 346.841H193.756C194.154 346.697 194.548 346.551 194.928 346.412L194.942 346.416C194.727 346.508 194.481 346.616 194.276 346.704ZM195.289 346.841C195.457 346.775 195.627 346.71 195.804 346.642L196.245 346.759L214.222 346.842L195.289 346.841ZM346.57 161.106C346.57 161.454 346.57 161.804 346.57 162.152C345.539 162.021 344.527 161.615 343.643 160.841C341.28 158.771 340.563 155.381 339.948 152.696C339.271 149.741 339.105 146.74 339.213 143.739C339.257 142.552 339.331 141.358 339.519 140.179C339.683 139.141 339.744 137.496 341.083 136.992C341.995 136.648 343.404 136.825 344.365 136.814C347.796 136.775 351.228 136.736 354.659 136.696C357.251 136.811 356.508 141.562 356.425 142.98C356.245 145.963 355.777 148.936 355.113 151.871C354.495 154.608 353.97 157.788 351.902 160.087C351.499 160.537 351.026 160.903 350.528 161.219C350.528 161.182 350.528 161.144 350.528 161.107C350.527 159.019 346.57 159.015 346.57 161.106Z" fill="black"/>
<path d="M250.27 391.947L245.266 417.241C245.266 417.241 274.841 429.83 274.47 434.578L214.502 428.527L220.332 388.859L250.27 391.947Z" fill="#263238"/>
<path d="M227.051 413.232C225.85 413.375 224.884 414.369 225.006 415.361C225.127 416.352 226.343 417.166 227.546 417.039C228.749 416.913 229.954 415.751 229.698 414.776C229.443 413.804 227.951 412.913 226.818 413.272" fill="#E0E0E0"/>
<path d="M214.502 428.527L215.279 424.546L272.485 431.836C272.485 431.836 275.008 433.059 274.47 434.576L214.502 428.527Z" fill="#455A64"/>
<path d="M246.278 417.087C246.231 417.326 244.75 417.287 243.191 417.918C241.61 418.513 240.708 419.482 240.453 419.359C240.19 419.285 240.848 417.889 242.752 417.155C244.648 416.407 246.375 416.873 246.278 417.087Z" fill="white"/>
<path d="M252.239 419.862C252.27 420.101 250.94 420.384 249.789 421.301C248.605 422.193 248.186 423.268 247.895 423.228C247.614 423.239 247.629 421.807 249.085 420.688C250.53 419.559 252.268 419.632 252.239 419.862Z" fill="white"/>
<path d="M254.862 426.414C254.587 426.439 254.364 425.194 255.319 423.95C256.262 422.701 257.723 422.321 257.816 422.533C257.95 422.748 256.954 423.366 256.189 424.396C255.396 425.412 255.158 426.42 254.862 426.414Z" fill="white"/>
<path d="M246.641 411.222C246.484 411.428 245.192 410.961 243.523 410.887C241.856 410.785 240.498 411.111 240.376 410.889C240.234 410.698 241.628 409.933 243.593 410.044C245.557 410.141 246.813 411.047 246.641 411.222Z" fill="white"/>
<path d="M218.037 407.709C218.048 407.541 225.748 407.769 235.23 408.221C244.715 408.671 252.393 409.172 252.382 409.341C252.37 409.51 244.672 409.282 235.187 408.831C225.703 408.38 218.024 407.877 218.037 407.709Z" fill="#455A64"/>
<path d="M148.62 392.746L156.574 421.695L170.314 443.585C171.27 445.395 169.691 450.7 167.433 451.349C166.169 451.712 164.776 451.556 163.678 450.916C156.688 446.851 131.061 431.79 130.844 429.364C130.747 428.288 129.285 423.229 130.653 415.121L122.893 397.871L148.62 392.746Z" fill="#263238"/>
<path d="M171.075 446.343C169.826 443.822 167.764 441.973 164.649 439.98L150.338 429.457L146.777 426.412C143.818 423.881 139.383 422.69 135.228 423.606C131.676 424.388 130.416 426.152 130.688 428.539C130.912 429.742 131.642 430.844 132.76 431.644C135.754 433.786 144.175 439.553 163.556 450.931C164.684 451.593 166.143 451.751 167.432 451.349C170.484 450.952 172.161 448.935 171.075 446.343Z" fill="#455A64"/>
<path d="M101.27 334.885C101.784 338.988 122.72 409.295 122.72 409.295L157.302 406.733L144.347 334.885H101.27Z" fill="#263238"/>
<path d="M157.303 406.735C157.31 406.819 155.381 407.013 152.255 407.271C148.918 407.523 144.699 407.841 140.033 408.193C135.362 408.519 131.139 408.814 127.804 409.048C124.674 409.262 122.736 409.382 122.723 409.296C122.717 409.254 123.193 409.168 124.06 409.048C124.928 408.926 126.189 408.783 127.748 408.619C130.867 408.296 135.189 407.928 139.967 407.585C144.745 407.243 149.075 406.989 152.214 406.843C155.349 406.692 157.295 406.65 157.303 406.735Z" fill="#455A64"/>
<path d="M201.813 316.057C201.813 316.057 214.143 308.864 234.381 306.559C263.097 303.286 261.955 322.388 260.652 331.886C259.461 340.567 252.693 409.293 252.693 409.293L218.625 406.52L222.326 344.663L204.243 344.58L182.913 339.019L201.813 316.057Z" fill="#263238"/>
<path d="M113.927 339.851C113.927 339.851 123.201 347.679 145.213 347.679C160.362 347.679 188.194 349.431 198.758 345.726C220.888 337.964 220.888 335.695 220.888 335.695V309.964C220.888 309.964 168.285 317.417 159.224 314.924C150.165 312.431 122.605 309.703 122.605 309.703C122.605 309.703 99.8843 310.693 99.8843 325.921L102.832 342.61L113.927 339.851Z" fill="#263238"/>
<path d="M224.987 334.157C225.042 334.224 223.68 335.069 221.38 336.326C219.082 337.584 215.837 339.237 212.149 340.921C208.458 342.604 205.029 343.995 202.511 344.934C199.993 345.876 198.394 346.381 198.352 346.307C198.306 346.227 199.823 345.583 202.275 344.546C204.728 343.509 208.103 342.064 211.779 340.388C215.452 338.711 218.728 337.122 221.093 335.962C223.459 334.802 224.925 334.083 224.987 334.157Z" fill="#455A64"/>
<path d="M130.598 346.794C130.569 346.864 129.228 346.594 127.151 345.931C125.077 345.271 122.285 344.178 119.432 342.663C116.58 341.143 114.23 339.504 112.658 338.225C111.08 336.945 110.242 336.055 110.311 336.006C110.396 335.943 111.37 336.725 113.024 337.91C114.673 339.095 117.038 340.655 119.847 342.152C122.659 343.644 125.364 344.78 127.364 345.535C129.362 346.29 130.636 346.705 130.598 346.794Z" fill="#455A64"/>
<path d="M192.866 169.344C190.972 158.49 178.88 150.61 165.077 151.233L163.707 151.296C148.968 152.648 142.184 163.324 144.297 174.964L148.394 194.239L150.723 224.481L184.022 219.669L183.26 209.721C183.26 209.721 197.35 207.327 196.716 196.054C196.408 190.609 194.627 179.438 192.866 169.344Z" fill="#FFBF9D"/>
<path d="M183.376 209.7C183.376 209.7 174.33 210.542 164.441 206.221C164.441 206.221 169.404 214.131 183.514 212.476L183.376 209.7Z" fill="#FF9A6C"/>
<path d="M189.883 180.32C189.983 181.167 189.158 181.934 188.043 182.031C186.93 182.129 185.945 181.523 185.847 180.675C185.748 179.827 186.573 179.06 187.685 178.963C188.799 178.864 189.785 179.471 189.883 180.32Z" fill="#263238"/>
<path d="M190.206 174.994C189.97 175.215 188.368 174.382 186.183 174.484C184 174.563 182.46 175.526 182.209 175.325C182.086 175.236 182.316 174.846 182.984 174.411C183.641 173.979 184.786 173.536 186.147 173.48C187.508 173.425 188.682 173.77 189.368 174.146C190.07 174.524 190.324 174.894 190.206 174.994Z" fill="#263238"/>
<path d="M170.608 181.469C170.708 182.317 169.884 183.081 168.768 183.18C167.654 183.278 166.669 182.672 166.571 181.823C166.473 180.977 167.297 180.21 168.409 180.111C169.525 180.013 170.51 180.621 170.608 181.469Z" fill="#263238"/>
<path d="M168.76 176.287C168.525 176.508 166.92 175.675 164.737 175.779C162.554 175.856 161.015 176.82 160.763 176.619C160.64 176.531 160.865 176.141 161.538 175.706C162.197 175.274 163.34 174.832 164.702 174.775C166.063 174.719 167.236 175.063 167.922 175.44C168.62 175.817 168.877 176.187 168.76 176.287Z" fill="#263238"/>
<path d="M177.61 188.768C177.592 188.669 178.936 188.422 181.121 188.1C181.675 188.029 182.198 187.918 182.268 187.611C182.377 187.286 182.109 186.82 181.802 186.317C181.201 185.271 180.571 184.174 179.91 183.026C177.274 178.336 175.333 174.47 175.572 174.387C175.811 174.305 178.141 178.039 180.776 182.728C181.413 183.884 182.02 184.988 182.599 186.044C182.846 186.536 183.251 187.089 183.015 187.765C182.888 188.102 182.495 188.361 182.144 188.452C181.793 188.554 181.479 188.573 181.203 188.6C178.997 188.795 177.626 188.864 177.61 188.768Z" fill="#263238"/>
<path d="M171.267 190.255C171.621 190.222 171.76 192.101 173.886 193.343C176.009 194.59 178.52 194.264 178.558 194.527C178.6 194.643 178.021 194.917 176.956 194.988C175.912 195.065 174.365 194.866 173.063 194.106C171.766 193.344 171.156 192.277 171.019 191.51C170.875 190.728 171.105 190.251 171.267 190.255Z" fill="#263238"/>
<path d="M168.836 169.476C168.655 169.956 166.456 169.831 163.913 170.192C161.358 170.511 159.334 171.201 158.964 170.793C158.798 170.597 159.126 170.138 159.929 169.645C160.724 169.152 162.016 168.66 163.543 168.455C165.072 168.252 166.494 168.382 167.448 168.641C168.412 168.899 168.913 169.248 168.836 169.476Z" fill="#263238"/>
<path d="M190.141 170.013C189.786 170.423 188.252 170.083 186.44 170.145C184.627 170.158 183.117 170.561 182.736 170.165C182.567 169.973 182.78 169.569 183.423 169.166C184.055 168.764 185.137 168.412 186.382 168.386C187.627 168.362 188.731 168.669 189.389 169.044C190.058 169.418 190.298 169.814 190.141 170.013Z" fill="#263238"/>
<path d="M191.268 163.533C191.268 163.533 187.011 156.647 182.602 155.195C177.263 153.437 175.35 158.058 170.319 157.185C165.288 156.311 160.191 154.623 155.348 157.885C150.049 161.456 152.811 163.669 152.828 168.682C152.898 189.011 148.639 194.953 146.626 185.466C146.406 184.427 140.66 185.535 139.63 174.385C139.099 168.632 139.93 166.725 141.25 162.587C142.365 159.098 144.658 156.618 148.892 153.808C155.574 149.372 165.154 148.851 171.702 149.076C178.248 149.302 191.227 154.673 191.268 163.533Z" fill="#263238"/>
<path d="M147.37 185.826C147.154 184.091 145.166 182.803 142.992 183.068C140.356 183.387 137.492 184.713 137.978 189.047C138.842 196.734 148.402 194.462 148.394 194.24C148.387 194.088 147.766 189.04 147.37 185.826Z" fill="#FFBF9D"/>
<path d="M145.959 191.496C145.914 191.475 145.801 191.601 145.527 191.725C145.26 191.846 144.789 191.949 144.266 191.834C143.208 191.608 142.2 190.38 141.997 188.997C141.894 188.298 142.004 187.619 142.255 187.045C142.488 186.462 142.902 186.038 143.41 185.928C143.914 185.798 144.305 186.017 144.449 186.224C144.602 186.43 144.559 186.587 144.612 186.598C144.64 186.615 144.804 186.455 144.692 186.142C144.633 185.992 144.5 185.819 144.255 185.687C144.005 185.553 143.654 185.501 143.299 185.556C142.555 185.65 141.944 186.243 141.668 186.873C141.351 187.509 141.207 188.272 141.322 189.057C141.559 190.602 142.723 191.981 144.161 192.203C144.858 192.295 145.409 192.092 145.682 191.89C145.963 191.682 145.994 191.507 145.959 191.496Z" fill="#FF9A6C"/>
<path d="M157.151 149.771C157.148 149.798 157.407 149.813 157.853 149.94C158.287 150.068 158.933 150.329 159.436 150.888L159.562 151.03L159.685 150.88C160.524 149.873 161.957 148.564 164.167 147.653C165.265 147.207 166.553 146.875 167.945 146.815C169.329 146.746 170.8 146.999 172.126 147.561C173.157 147.997 174.041 148.602 174.708 149.291C175.363 149.99 175.788 150.778 175.944 151.566L175.992 151.807L176.282 151.73C177.72 151.346 179.223 151.504 180.349 151.937C181.491 152.369 182.249 153.075 182.694 153.713C183.574 155.033 183.364 155.983 183.464 155.968C183.486 155.969 183.552 155.749 183.536 155.333C183.517 154.918 183.408 154.298 182.972 153.598C182.544 152.908 181.767 152.125 180.542 151.63C179.34 151.138 177.716 150.935 176.118 151.342L176.457 151.507C176.302 150.648 175.849 149.788 175.15 149.03C174.437 148.283 173.492 147.635 172.391 147.17C170.978 146.568 169.392 146.304 167.913 146.386C166.433 146.46 165.078 146.825 163.939 147.31C161.65 148.296 160.224 149.689 159.428 150.753L159.68 150.746C159.087 150.152 158.371 149.914 157.9 149.818C157.417 149.725 157.151 149.754 157.151 149.771Z" fill="#455A64"/>
<path d="M147.384 168.348C148.343 170.281 151.128 171.492 153.647 171.068C156.166 170.644 158.126 168.635 158.055 166.553C159.805 167.156 161.951 166.925 163.443 165.969C164.935 165.014 165.711 163.375 165.387 161.857C167.615 163.282 171.444 162.408 172.422 160.247C174.208 161.061 176.483 161.387 178.297 160.618C180.114 159.85 181.06 157.748 179.831 156.42C179.016 155.539 177.575 155.229 176.232 155.058C170.233 154.293 163.926 155.207 158.625 157.61C153.325 160.013 149.065 163.889 146.732 168.433" fill="#263238"/>
<path d="M193.23 162.693C193.23 162.693 189.556 159.094 183.357 158.236C171.842 156.641 156.073 157.134 141.532 171.896L139.259 173.009C139.259 173.009 138.102 168.572 138.455 165.173C138.692 162.902 141.775 149.496 159.393 146.417C159.393 146.417 186.096 140.185 193.23 162.693Z" fill="#0000FF"/>
<path d="M193.23 162.693C193.23 162.693 189.556 159.094 183.357 158.236C171.842 156.641 156.073 157.134 141.532 171.896L139.259 173.009C139.259 173.009 138.102 168.572 138.455 165.173C138.692 162.902 141.775 149.496 159.393 146.417C159.393 146.417 186.096 140.185 193.23 162.693Z" fill="black"/>
<path d="M142.454 170.671C148.331 164.01 156.535 159.716 165.283 156.077C174.033 152.438 181.755 149.877 191.46 148.587C196.697 147.891 202.24 147.882 205.097 148.487C207.954 149.09 210.629 150.847 211.108 153.207C211.707 156.16 205.205 160.753 201.614 162.407C195.491 165.226 191.826 165.698 191.826 165.698C191.826 165.698 190.026 159.104 183.165 157.829C168.914 155.18 141.983 170.941 142.454 170.671Z" fill="#0000FF"/>
<path d="M291.222 220.677L277.969 208.222L318.636 170.004L331.888 182.46L291.222 220.677Z" fill="#FFA000"/>
<path d="M303.392 195.561L297.401 189.931L299.216 188.225L305.207 193.855L303.392 195.561ZM305.972 188.334L302.614 185.177L304.43 183.471L307.788 186.628L305.972 188.334ZM313.665 185.908L307.674 180.278L309.489 178.572L315.48 184.202L313.665 185.908ZM312.831 175.477L314.648 173.771L318.005 176.927L316.19 178.633L312.831 175.477ZM285.426 207.64L282.067 204.484L283.883 202.778L287.242 205.934L285.426 207.64ZM293.118 205.214L287.128 199.584L288.943 197.878L294.933 203.508L293.118 205.214ZM295.7 197.987L292.341 194.83L294.157 193.124L297.515 196.281L295.7 197.987Z" fill="#9E6400"/>
<path d="M284.236 231.989C284.236 231.989 263.697 279.747 252.08 278.376C244.734 277.508 197.173 251.342 197.173 251.342L205.574 226.765L248.539 248.489L271.914 221.541L284.236 231.989Z" fill="#FFBF9D"/>
<path d="M274.213 217.471C274.213 217.471 276.27 211.723 278.247 210.257C280.225 208.793 286.159 206.569 286.988 207.74L285.901 212.38C285.901 212.38 297.415 211.018 298.763 213.392C300.111 215.767 299.525 217.966 299.525 217.966C299.525 217.966 303.399 219.951 300.764 222.868C300.764 222.868 302.362 225.467 299.967 228.233L298.395 229.278C298.395 229.278 298.959 233.62 296.506 234.129C294.052 234.636 278.585 233.236 278.585 233.236L271.447 222.54L274.213 217.471Z" fill="#FFBF9D"/>
<path d="M149.101 215.339L185.075 214.583L211.535 220.325C211.535 220.325 213.343 227.535 212.575 239.41L211.663 255.573L210.341 296.387L212.112 310.276C214.717 310.062 215.724 311.276 216.179 312.983C217.476 314.621 190.805 334.141 175.46 335.722C138.381 337.794 121.79 328.401 119.82 311.97C119.897 310.151 120.672 309.319 122.8 309.077L121.573 254.946L126.043 220.666L149.101 215.339Z" fill="#0000FF"/>
<path d="M103.369 284.697C93.782 292.068 85.8035 286.608 83.7217 283.612C81.64 280.616 84.102 273.639 84.102 273.639L97.1009 255.573L120.791 265.218L103.369 284.697Z" fill="#FFBF9D"/>
<path d="M126.04 220.65C126.04 220.65 114.713 223.945 109.921 232.941C108.806 235.035 91.6494 259.972 91.6494 259.972L109.908 269.435L116.692 272.952L126.04 261.213V246.96V220.65Z" fill="#0000FF"/>
<path d="M247.137 241.848L213.061 221.541C205.191 216.606 197.402 220.684 192.161 227.536C192.246 227.422 192.074 227.648 192.161 227.536C184.505 237.855 192.598 245.878 195.898 251.254L226.237 268.205L247.137 241.848Z" fill="#0000FF"/>
<path d="M117.184 236.9C117.392 236.88 118.738 245.04 120.191 255.121C121.647 265.205 122.656 273.395 122.45 273.415C122.244 273.435 120.898 265.278 119.443 255.192C117.99 245.11 116.978 236.918 117.184 236.9Z" fill="#263238"/>
<path d="M122.606 309.703C122.606 309.703 129.402 322.646 157.87 323.823C186.338 324.999 212.11 310.276 212.11 310.276L211.035 301.84C211.035 301.84 191.818 316.137 158.136 316.029C128.844 315.935 122.604 300.6 122.604 300.6L122.606 309.703Z" fill="#263238"/>
<path d="M127.929 219.97C127.919 219.983 154.039 271.218 154.039 271.218L160.386 268.205L138.186 216.769C138.186 216.769 131.412 214.986 127.929 219.97Z" fill="#263238"/>
<path d="M191.837 216.187C180.689 230.718 170.087 248.028 160.385 267.733L168.315 270.307C168.315 270.307 189.92 223.856 203.827 218.748C203.827 218.748 199.83 214.714 191.837 216.187Z" fill="#263238"/>
<path d="M151.197 274.395C151.197 274.395 123.374 299.172 122.605 301.257C120.983 305.654 122.605 309.703 122.605 309.703L127.929 309.053L154.831 280.596L151.197 274.395Z" fill="#263238"/>
<path d="M160.386 278.404C160.386 278.404 208.388 311.27 209.629 310.296C212.994 307.663 210.878 300.599 210.878 300.599L164.046 273.413L160.386 278.404Z" fill="#263238"/>
<path d="M201.278 255.504C201.331 255.431 202.778 256.077 205.073 257.18C207.368 258.283 210.512 259.844 213.961 261.597C217.409 263.351 220.509 264.969 222.73 266.165C224.951 267.36 226.294 268.135 226.236 268.204C226.178 268.274 224.729 267.626 222.434 266.523C220.139 265.421 216.997 263.863 213.553 262.109C210.11 260.357 207.014 258.741 204.793 257.546C202.571 256.35 201.224 255.575 201.278 255.504Z" fill="#263238"/>
<path d="M157.314 285.346C155.19 284.745 153.561 283.482 152.615 281.976C150.529 278.656 146.53 269.804 147.393 268.058C149.882 263.031 165.591 262.637 169.455 266.929C173.23 271.121 166.91 281.285 164.583 283.599C162.203 285.968 159.461 285.952 157.314 285.346Z" fill="#263238"/>
<path d="M157.314 285.346C157.328 285.257 158.402 285.718 160.372 285.536C161.34 285.419 162.489 285.042 163.509 284.271C164.542 283.51 165.374 282.38 166.222 281.106C167.06 279.829 167.883 278.384 168.608 276.788C169.322 275.195 169.966 273.437 170.193 271.557C170.336 270.619 170.268 269.651 170.031 268.711C169.772 267.763 169.11 266.94 168.178 266.302C166.218 265.081 163.561 264.517 160.889 264.352C158.2 264.186 155.525 264.38 153.095 264.956C151.899 265.276 150.73 265.652 149.774 266.228C148.764 266.739 148.031 267.552 147.677 268.328C147.51 269.142 147.804 270.124 148.027 270.984C148.271 271.865 148.569 272.714 148.874 273.529C149.49 275.161 150.145 276.663 150.782 278.021C152.081 280.724 153.144 282.962 154.728 283.985C156.218 285.06 157.358 285.282 157.314 285.346C157.309 285.362 157.031 285.318 156.534 285.156C156.041 284.992 155.324 284.698 154.535 284.168C153.752 283.641 152.897 282.854 152.266 281.79C151.614 280.75 150.958 279.538 150.284 278.182C149.613 276.825 148.923 275.323 148.276 273.684C147.954 272.862 147.641 272.007 147.379 271.108C147.151 270.198 146.802 269.302 147 268.202C147.434 267.188 148.259 266.337 149.351 265.758C150.395 265.124 151.624 264.725 152.877 264.388C155.414 263.776 158.166 263.574 160.949 263.745C163.713 263.924 166.478 264.486 168.646 265.842C169.692 266.551 170.458 267.535 170.73 268.576C170.986 269.608 171.04 270.638 170.884 271.612C170.626 273.57 169.943 275.352 169.193 276.966C168.431 278.579 167.57 280.031 166.689 281.313C165.803 282.583 164.912 283.739 163.79 284.525C162.683 285.317 161.431 285.688 160.407 285.772C159.374 285.847 158.581 285.712 158.071 285.591C157.558 285.467 157.309 285.361 157.314 285.346Z" fill="#455A64"/>
<path opacity="0.5" d="M357.454 133.379C357.454 115.285 357.454 97.19 357.454 79.0947C357.454 64.6132 357.454 50.1329 357.454 35.6513C357.454 24.2395 357.454 12.8279 357.454 1.41608C357.454 -0.470274 353.836 -0.473777 353.836 1.41608C353.836 19.5103 353.836 37.6046 353.836 55.7001C353.836 70.1815 353.836 84.6619 353.836 99.1434C353.836 110.556 353.836 121.967 353.836 133.379C353.834 135.265 357.454 135.268 357.454 133.379Z" fill="#263238"/>
<path d="M355.001 171.063C355.001 176.361 355.001 181.657 355.001 186.955C355.001 194.628 355.001 202.299 355.001 209.972C355.001 219.508 355.001 229.042 355.001 238.578C355.001 249.358 355.001 260.138 355.001 270.918C355.001 282.356 355.001 293.794 355.001 305.231C355.001 316.684 355.001 328.137 355.001 339.591C355.001 350.585 355.001 361.58 355.001 372.575C355.001 382.468 355.001 392.362 355.001 402.254C355.001 410.425 355.001 418.595 355.001 426.766C355.001 432.707 355.001 451.877 355.001 457.818C355.001 458.856 355.001 459.894 355.001 460.933C355.001 462.355 358.853 462.357 358.853 460.933C358.853 455.635 358.853 437.109 358.853 431.812C358.853 424.14 358.853 416.468 358.853 408.796C358.853 399.26 358.853 389.725 358.853 380.19C358.853 369.41 358.853 358.629 358.853 347.849C358.853 336.412 358.853 324.974 358.853 313.537C358.853 302.084 358.853 290.63 358.853 279.176C358.853 268.182 358.853 257.188 358.853 246.193C358.853 236.3 358.853 226.406 358.853 216.513C358.853 208.343 358.853 200.172 358.853 192.002C358.853 186.061 358.853 180.119 358.853 174.177C358.853 173.139 358.853 172.102 358.853 171.063C358.853 169.641 355.001 169.639 355.001 171.063Z" fill="#263238" fill-opacity="0.5"/>
<path d="M355.635 160.019C355.635 164.624 355.635 169.23 355.635 173.835C355.635 175.721 359.254 175.724 359.254 173.835C359.254 169.23 359.254 164.624 359.254 160.019C359.254 158.133 355.635 158.13 355.635 160.019Z" fill="#E0E0E0"/>
<path d="M363.591 135.607C366.394 135.731 365.64 140.476 365.546 142C365.366 144.978 364.89 147.947 364.222 150.878C363.595 153.62 363.057 156.795 360.96 159.095C358.789 161.481 355.028 162.142 352.383 159.86C349.981 157.786 349.245 154.393 348.62 151.698C347.936 148.747 347.765 145.752 347.873 142.756C347.918 141.575 347.994 140.389 348.181 139.217C348.355 138.124 348.432 136.459 349.844 135.922C350.789 135.563 352.239 135.737 353.237 135.726C356.687 135.686 360.139 135.647 363.591 135.607C365.917 135.582 365.923 132.649 363.591 132.675C359.72 132.719 355.848 132.762 351.976 132.808C349.644 132.834 347.391 133.168 345.983 134.878C345.048 136.016 344.851 137.444 344.632 138.77C344.352 140.488 344.245 142.217 344.227 143.948C344.184 147.725 344.694 151.499 345.869 155.157C346.903 158.374 348.497 161.868 352.363 163.506C355.991 165.044 360.244 164.063 362.962 161.719C365.927 159.162 366.797 155.517 367.586 152.192C368.522 148.25 369.244 144.175 369.223 140.151C369.203 136.839 368.645 132.897 363.591 132.675C361.264 132.574 361.271 135.505 363.591 135.607Z" fill="#E0E0E0"/>
<path opacity="0.5" d="M40.9591 218.903C40.9591 191.149 40.9591 163.395 40.9591 135.644C40.9591 105.782 40.9591 75.9213 40.9591 46.0592C40.9591 31.1781 40.9591 16.2981 40.9591 1.41705C40.9591 -0.469297 37.3408 -0.4728 37.3408 1.41705C37.3408 29.1707 37.3408 56.9244 37.3408 84.677C37.3408 114.538 37.3408 144.4 37.3408 174.261C37.3408 189.142 37.3408 204.022 37.3408 218.903C37.3408 220.789 40.9591 220.793 40.9591 218.903Z" fill="#263238"/>
<path opacity="0.5" d="M39.1592 256.633C39.1592 266.429 39.1592 276.224 39.1592 286.02C39.1592 299.548 39.1592 313.077 39.1592 326.604C39.1592 341.58 39.1592 356.555 39.1592 371.528C39.1592 385.352 39.1592 399.176 39.1592 412.999C39.1592 423.39 39.1592 446.642 39.1592 457.033C39.1592 457.935 39.1592 460.129 39.1592 461.033C39.1592 462.321 43.0109 462.323 43.0109 461.033C43.0109 451.237 43.0109 427.288 43.0109 417.493C43.0109 403.966 43.0109 390.437 43.0109 376.909C43.0109 361.935 43.0109 346.96 43.0109 331.985C43.0109 318.161 43.0109 304.337 43.0109 290.514C43.0109 280.124 43.0109 269.734 43.0109 259.344C43.0109 258.441 43.0109 257.538 43.0109 256.634C43.0109 255.344 39.1592 255.342 39.1592 256.633Z" fill="#263238"/>
<path d="M39.1411 245.544C39.1411 250.148 39.1411 254.755 39.1411 259.359C39.1411 261.245 42.7609 261.249 42.7609 259.359C42.7609 254.755 42.7609 250.149 42.7609 245.544C42.7609 243.658 39.1411 243.654 39.1411 245.544Z" fill="#E0E0E0"/>
<path d="M47.0974 221.133C49.9005 221.255 49.1461 226 49.0532 227.525C48.8733 230.504 48.3974 233.472 47.7286 236.403C47.1018 239.145 46.5635 242.319 44.4671 244.621C42.2953 247.006 38.5347 247.667 35.8899 245.384C33.4873 243.311 32.7518 239.918 32.1265 237.223C31.4431 234.272 31.2719 231.276 31.3808 228.281C31.4242 227.1 31.5011 225.914 31.6883 224.742C31.8624 223.649 31.9393 221.983 33.3509 221.447C34.2954 221.088 35.7462 221.261 36.7444 221.25C40.1944 221.211 43.646 221.172 47.0974 221.133C49.4246 221.107 49.4304 218.175 47.0974 218.201C43.2267 218.244 39.3545 218.288 35.4836 218.331C33.1507 218.357 30.8976 218.692 29.4903 220.402C28.5546 221.539 28.3573 222.967 28.1396 224.293C27.8581 226.011 27.7522 227.742 27.7334 229.473C27.6913 233.249 28.2005 237.021 29.3757 240.68C30.4101 243.897 32.0031 247.392 35.8696 249.03C39.4981 250.567 43.7519 249.587 46.4692 247.243C49.4333 244.686 50.3038 241.042 51.093 237.716C52.0287 233.773 52.7513 229.698 52.7295 225.674C52.7107 222.364 52.1522 218.422 47.0974 218.201C44.7704 218.101 44.7761 221.032 47.0974 221.133Z" fill="#E0E0E0"/>
<path d="M375 344.663H10V357.39H375V344.663Z" fill="#AE7461"/>
<path d="M365.086 357.742H349.803V363.222H365.086V357.742Z" fill="#263238"/>
<path d="M49.6018 357.742H34.3174V363.222H49.6018V357.742Z" fill="#263238"/>
<path d="M12.9048 390.088L23.8208 451.73H77.9741L86.2971 390.3L12.9048 390.088Z" fill="#455A64"/>
<path d="M89.1679 390.088H10.0347V393.921H89.1679V390.088Z" fill="#455A64"/>
<path d="M88.5804 394.098C88.5804 394.267 70.9952 394.364 49.3083 394.316C27.6142 394.266 10.0332 394.09 10.0332 393.922C10.0332 393.753 27.6156 393.656 49.3097 393.705C70.9966 393.752 88.5824 393.929 88.5804 394.098Z" fill="#263238"/>
<path d="M84.9754 400.058C84.9754 400.226 69.315 400.363 50.0017 400.363C30.6812 400.363 15.0254 400.227 15.0254 400.058C15.0254 399.889 30.6826 399.752 50.0017 399.752C69.315 399.752 84.9754 399.889 84.9754 400.058Z" fill="#263238"/>
<path d="M84.9758 403.488C84.9758 403.656 69.3722 403.794 50.1284 403.794C30.8775 403.794 15.2783 403.657 15.2783 403.488C15.2783 403.318 30.8789 403.182 50.1284 403.182C69.3722 403.182 84.9758 403.32 84.9758 403.488Z" fill="#263238"/>
<path d="M24.5095 343.891C24.7171 343.891 24.8868 354.385 24.8868 367.326C24.8868 380.274 24.7185 390.765 24.5095 390.765C24.3006 390.765 24.1323 380.274 24.1323 367.326C24.1323 354.385 24.3006 343.891 24.5095 343.891Z" fill="#263238"/>
<path d="M77.2834 343.891C77.4924 343.891 77.6607 354.385 77.6607 367.326C77.6607 380.274 77.4924 390.765 77.2834 390.765C77.076 390.765 76.9062 380.274 76.9062 367.326C76.9062 354.385 77.0745 343.891 77.2834 343.891Z" fill="#263238"/>
</svg>
