<svg viewBox="0 0 565 487" fill="none" xmlns="http://www.w3.org/2000/svg">
<g clip-path="url(#clip0_1660_2298)">
<path d="M564.878 468.406H0.12175C0.0545094 468.406 0 468.461 0 468.528C0 468.595 0.054534 468.65 0.121775 468.65H564.878C564.945 468.65 565 468.595 565 468.528C565 468.461 564.945 468.406 564.878 468.406Z" fill="#222128"/>
<path d="M508.266 484.083H471.082C471.015 484.083 470.96 484.138 470.96 484.205C470.96 484.272 471.015 484.327 471.082 484.327H508.266C508.334 484.327 508.388 484.272 508.388 484.205C508.388 484.138 508.334 484.083 508.266 484.083Z" fill="#222128"/>
<path d="M374.157 486.727H364.577C364.51 486.727 364.456 486.782 364.456 486.849C364.456 486.916 364.51 486.971 364.577 486.971H374.157C374.224 486.971 374.279 486.916 374.279 486.849C374.279 486.782 374.224 486.727 374.157 486.727Z" fill="#222128"/>
<path d="M469.707 475.039H448.264C448.197 475.039 448.142 475.094 448.142 475.161C448.142 475.228 448.197 475.283 448.264 475.283H469.707C469.775 475.283 469.829 475.228 469.829 475.161C469.829 475.094 469.775 475.039 469.707 475.039Z" fill="#222128"/>
<path d="M107.965 476.675H59.4003C59.3331 476.675 59.2786 476.73 59.2786 476.797C59.2786 476.864 59.3331 476.919 59.4003 476.919H107.965C108.032 476.919 108.087 476.864 108.087 476.797C108.087 476.73 108.032 476.675 107.965 476.675Z" fill="#222128"/>
<path d="M125.183 476.675H118.27C118.203 476.675 118.148 476.73 118.148 476.797C118.148 476.864 118.203 476.919 118.27 476.919H125.183C125.25 476.919 125.304 476.864 125.304 476.797C125.304 476.73 125.25 476.675 125.183 476.675Z" fill="#222128"/>
<path d="M254.294 480.789H148.684C148.617 480.789 148.562 480.843 148.562 480.91C148.562 480.978 148.617 481.032 148.684 481.032H254.294C254.362 481.032 254.416 480.978 254.416 480.91C254.416 480.843 254.362 480.789 254.294 480.789Z" fill="#222128"/>
<path d="M267.826 424.968H49.6239C46.0678 424.968 43.1738 422.473 43.1738 419.408V155.033C43.1738 151.968 46.0678 149.474 49.6239 149.474H267.826C271.381 149.474 274.275 151.968 274.275 155.033V419.408C274.275 422.473 271.381 424.968 267.826 424.968ZM49.6239 149.718C46.2226 149.718 43.4563 152.102 43.4563 155.034V419.409C43.4563 422.341 46.2226 424.725 49.6239 424.725H267.826C271.226 424.725 273.992 422.341 273.992 419.409V155.033C273.992 152.102 271.226 149.717 267.826 149.717L49.6239 149.718Z" fill="#222128"/>
<path d="M512.24 424.968H294.04C290.484 424.968 287.591 422.473 287.591 419.408V155.033C287.591 151.968 290.485 149.474 294.04 149.474H512.24C515.798 149.474 518.691 151.968 518.691 155.033V419.408C518.692 422.473 515.798 424.968 512.24 424.968ZM294.04 149.718C290.64 149.718 287.873 152.102 287.873 155.034V419.409C287.873 422.341 290.64 424.725 294.04 424.725H512.24C515.642 424.725 518.408 422.341 518.408 419.409V155.033C518.408 152.102 515.642 149.717 512.24 149.717L294.04 149.718Z" fill="#222128"/>
<path d="M440.086 190.212H316.508C310.985 190.212 306.508 194.69 306.508 200.212V458.407C306.508 463.93 310.985 468.407 316.508 468.407H440.086C445.608 468.407 450.086 463.93 450.086 458.407V200.212C450.086 194.69 445.608 190.212 440.086 190.212Z" fill="#16161B"/>
<path d="M440.084 190.212H319.537C314.015 190.212 309.537 194.69 309.537 200.212V458.407C309.537 463.93 314.014 468.407 319.537 468.407H440.084C445.607 468.407 450.084 463.93 450.084 458.407V200.212C450.084 194.69 445.607 190.212 440.084 190.212Z" fill="#28292E"/>
<path d="M441.52 452.094L441.52 206.525C441.52 201.002 437.043 196.525 431.52 196.525L328.102 196.525C322.579 196.525 318.102 201.002 318.102 206.525L318.102 452.094C318.102 457.617 322.579 462.094 328.102 462.094H431.52C437.043 462.094 441.52 457.617 441.52 452.094Z" fill="#16161B"/>
<path d="M340.231 245.914C334.708 245.914 330.066 241.273 332.177 236.17C336.821 224.946 349.261 216.913 363.878 216.913H395.745C410.362 216.913 422.801 224.946 427.446 236.17C429.557 241.273 424.915 245.914 419.392 245.914H340.231Z" fill="#28292E"/>
<path d="M429.392 435.586V392.142C429.392 386.619 424.915 382.142 419.392 382.142H340.23C334.707 382.142 330.23 386.619 330.23 392.142V435.586C330.23 441.108 334.707 445.586 340.23 445.586H419.392C424.915 445.586 429.392 441.108 429.392 435.586Z" fill="#28292E"/>
<path d="M340.231 373.958H363.969C369.492 373.958 373.969 369.48 373.969 363.958V273.804C373.969 268.281 369.492 263.804 363.969 263.804H340.231C334.708 263.804 330.231 268.281 330.231 273.804V363.958C330.231 369.48 334.708 373.958 340.231 373.958Z" fill="#28292E"/>
<path d="M395.652 373.958H419.391C424.914 373.958 429.391 369.48 429.391 363.958V273.804C429.391 268.281 424.914 263.804 419.391 263.804H395.652C390.13 263.804 385.652 268.281 385.652 273.804V363.958C385.652 369.48 390.13 373.958 395.652 373.958Z" fill="#28292E"/>
<path d="M413.529 318.385H431.443C432.972 318.385 434.221 317.307 434.221 315.99C434.221 314.673 432.971 313.595 431.443 313.595H413.529C412 313.595 410.75 314.673 410.75 315.99C410.75 317.308 412.001 318.385 413.529 318.385Z" fill="#16161B"/>
<path d="M441.521 460.983L441.521 197.636C441.521 197.022 441.023 196.525 440.41 196.525C439.796 196.525 439.299 197.022 439.299 197.636L439.299 460.983C439.299 461.596 439.796 462.094 440.41 462.094C441.023 462.094 441.521 461.596 441.521 460.983Z" fill="#16161B"/>
<path d="M79.5383 350.327C79.5383 355.85 84.0155 360.327 89.5383 360.327H206.143C211.666 360.327 216.143 355.85 216.143 350.327V193.665C216.143 180.39 79.5372 180.39 79.5383 193.665V350.327Z" fill="#16161B"/>
<path d="M82.6775 350.327C82.6775 355.85 87.1546 360.327 92.6775 360.327H209.282C214.805 360.327 219.282 355.85 219.282 350.327V193.665C219.281 180.39 82.6764 180.39 82.6775 193.665V350.327Z" fill="#28292E"/>
<path d="M212.502 351.961V196.953C212.502 195.887 211.73 194.939 210.565 194.578C202.982 192.226 182.336 189.552 150.979 189.552C119.625 189.552 98.9777 192.226 91.3931 194.578C90.2281 194.939 89.4563 195.886 89.4563 196.953V351.961C89.4563 353.354 90.766 354.483 92.3819 354.483H209.575C211.191 354.483 212.502 353.354 212.502 351.961Z" fill="#222128"/>
<path d="M175.497 190.156C180.232 190.404 184.059 194.043 184.67 198.744L203.453 343.189C204.231 349.173 199.571 354.478 193.537 354.478H182.596C177.572 354.478 173.327 350.75 172.679 345.768L153.837 200.869C153.057 194.874 157.735 189.554 163.778 189.706C167.924 189.811 171.833 189.964 175.497 190.156Z" fill="#323339"/>
<path d="M135.29 189.791C139.7 189.654 143.822 192.911 144.391 197.287L163.588 344.857C164.252 349.957 160.281 354.478 155.138 354.478V354.478C150.856 354.478 147.239 351.301 146.687 347.055L127.484 199.473C126.831 194.452 130.229 189.948 135.29 189.791V189.791Z" fill="#323339"/>
<path d="M130.637 353.665L130.637 190.018C130.637 188.371 129.302 187.036 127.655 187.036C126.008 187.036 124.673 188.371 124.673 190.018L124.673 353.665C124.673 355.312 126.008 356.648 127.655 356.648C129.302 356.648 130.637 355.312 130.637 353.665Z" fill="#28292E"/>
<path d="M178.684 353.665L178.684 190.018C178.684 188.371 177.349 187.036 175.702 187.036C174.055 187.036 172.72 188.371 172.72 190.018L172.72 353.665C172.72 355.312 174.055 356.647 175.702 356.647C177.349 356.647 178.684 355.312 178.684 353.665Z" fill="#28292E"/>
<path d="M172.72 356.108L172.72 187.575C172.72 187.277 172.479 187.036 172.181 187.036C171.883 187.036 171.642 187.277 171.642 187.575L171.642 356.108C171.642 356.406 171.883 356.647 172.181 356.647C172.479 356.647 172.72 356.406 172.72 356.108Z" fill="#16161B"/>
<path d="M124.674 356.109L124.674 187.575C124.674 187.277 124.433 187.036 124.135 187.036C123.837 187.036 123.596 187.277 123.596 187.575L123.596 356.109C123.596 356.406 123.837 356.648 124.135 356.648C124.433 356.648 124.674 356.406 124.674 356.109Z" fill="#16161B"/>
<path d="M89.8392 229.541H213.518C214.938 229.541 216.089 228.39 216.089 226.97C216.089 225.551 214.938 224.4 213.518 224.4H89.8392C88.4196 224.4 87.2688 225.551 87.2688 226.97C87.2688 228.39 88.4196 229.541 89.8392 229.541Z" fill="#28292E"/>
<path d="M88.98 364.439H222.665C224.234 364.439 225.506 363.167 225.506 361.598C225.506 360.029 224.234 358.758 222.665 358.758H88.98C87.4111 358.758 86.1393 360.029 86.1393 361.598C86.1393 363.167 87.4111 364.439 88.98 364.439Z" fill="#323339"/>
<path d="M83.298 358.758H82.379C80.8101 358.758 79.5383 360.03 79.5383 361.598C79.5383 363.167 80.8101 364.439 82.379 364.439H83.298C84.8668 364.439 86.1387 363.167 86.1387 361.598C86.1387 360.03 84.8668 358.758 83.298 358.758Z" fill="#E0E0E0"/>
<path d="M475.38 169.268H501.152C503.444 169.268 505.302 167.409 505.302 165.117C505.302 162.825 503.444 160.967 501.152 160.967H475.38C473.088 160.967 471.23 162.825 471.23 165.117C471.23 167.409 473.088 169.268 475.38 169.268Z" fill="#222128"/>
<path d="M458.345 177.568H484.116C486.408 177.568 488.267 175.71 488.267 173.418C488.267 171.126 486.408 169.267 484.116 169.267H458.345C456.053 169.267 454.195 171.126 454.195 173.418C454.195 175.71 456.053 177.568 458.345 177.568Z" fill="#222128"/>
<path d="M235.78 291.371H261.553C263.845 291.371 265.703 289.513 265.703 287.221C265.703 284.929 263.845 283.071 261.553 283.071H235.78C233.488 283.071 231.63 284.929 231.63 287.221C231.63 289.513 233.488 291.371 235.78 291.371Z" fill="#323339"/>
<path d="M185.242 395.833H211.013C213.305 395.833 215.163 393.975 215.163 391.683C215.163 389.391 213.305 387.533 211.013 387.533H185.242C182.95 387.533 181.092 389.391 181.092 391.683C181.092 393.975 182.95 395.833 185.242 395.833Z" fill="#323339"/>
<path d="M501.152 396.814H475.38C473.088 396.814 471.23 398.673 471.23 400.965C471.23 403.257 473.088 405.115 475.38 405.115H501.152C503.444 405.115 505.302 403.257 505.302 400.965C505.302 398.673 503.444 396.814 501.152 396.814Z" fill="#222128"/>
<path d="M218.745 143.3H244.517C246.809 143.3 248.667 141.442 248.667 139.15C248.667 136.858 246.809 135 244.517 135H218.745C216.453 135 214.595 136.858 214.595 139.15C214.595 141.442 216.453 143.3 218.745 143.3Z" fill="#222128"/>
<path d="M93.608 446.227H119.379C121.671 446.227 123.53 444.369 123.53 442.077C123.53 439.785 121.671 437.927 119.379 437.927H93.608C91.3159 437.927 89.4578 439.785 89.4578 442.077C89.4578 444.369 91.3159 446.227 93.608 446.227Z" fill="#323339"/>
<path d="M66.6529 385.979H92.4242C94.7163 385.979 96.5745 384.121 96.5745 381.829C96.5745 379.537 94.7164 377.679 92.4243 377.679H66.6529C64.3608 377.679 62.5027 379.537 62.5027 381.829C62.5027 384.121 64.3608 385.979 66.6529 385.979Z" fill="#323339"/>
<path d="M110.643 454.527H136.414C138.707 454.527 140.565 452.669 140.565 450.377C140.565 448.085 138.707 446.227 136.414 446.227H110.643C108.351 446.227 106.493 448.085 106.493 450.377C106.493 452.669 108.351 454.527 110.643 454.527Z" fill="#222128"/>
<path d="M112.598 162.168H86.8265C84.5344 162.168 82.6763 164.026 82.6763 166.318C82.6763 168.61 84.5344 170.468 86.8265 170.468H112.598C114.89 170.468 116.748 168.61 116.748 166.318C116.748 164.026 114.89 162.168 112.598 162.168Z" fill="#222128"/>
<path d="M14.1421 206.769C7.46037 208.051 -0.317416 216.132 7.36093 224.384C15.0393 232.635 2.17536 229.025 0.18091 243.465C-1.81354 257.906 13.4437 255.473 8.65704 264.941C3.87036 274.409 37.1138 289.41 57.8697 278.039C78.6255 266.669 80.5578 242.194 74.075 233.547C67.5933 224.899 58.1194 224.357 62.4077 215.087C66.6961 205.817 61.6427 196.19 48.2477 196.103C38.1489 196.039 44.2057 189.948 30.3022 190C18.714 190.045 8.45816 197.062 14.1421 206.769Z" fill="#263238"/>
<path d="M51.3371 218.838C49.5178 218.838 48.0488 220.105 48.0488 221.682C48.0488 223.251 49.5178 224.517 51.3371 224.517C53.1564 224.517 54.6367 223.251 54.6367 221.682C54.6367 220.105 53.1564 218.838 51.3371 218.838ZM51.3371 223.854C49.9472 223.854 48.8172 222.88 48.8172 221.682C48.8172 220.475 49.9472 219.501 51.3371 219.501C52.7383 219.501 53.8683 220.475 53.8683 221.682C53.8683 222.88 52.7383 223.854 51.3371 223.854Z" fill="#323339"/>
<path d="M79.1522 246.547C79.1341 246.547 79.116 246.546 79.0991 246.543C78.9454 246.518 78.846 246.39 78.8742 246.257C79.8867 241.72 75.7871 237.325 71.4467 232.673C66.3809 227.243 60.6394 221.088 62.661 213.76C64.3865 207.507 63.6158 202.283 60.4925 199.052C57.9353 196.405 53.9498 195.186 48.649 195.421C43.7888 195.637 42.3481 194.503 40.8237 193.302C39.1762 192.005 37.2767 190.527 30.3034 190.569H30.3023C30.1475 190.569 30.0209 190.461 30.0198 190.327C30.0187 190.193 30.1452 190.083 30.3012 190.082C30.3837 190.082 30.4661 190.081 30.5464 190.081C37.575 190.081 39.5027 191.6 41.2057 192.943C42.7029 194.122 43.9979 195.143 48.6207 194.934C54.1057 194.691 58.2494 195.97 60.9275 198.74C64.1673 202.092 64.9786 207.467 63.2113 213.873C61.253 220.97 66.6589 226.765 71.8874 232.368C76.3125 237.111 80.4912 241.591 79.4302 246.35C79.403 246.465 79.2844 246.547 79.1522 246.547Z" fill="#263238"/>
<path d="M105.726 227.936L104.202 230.487C103.629 231.446 103.629 232.585 104.203 233.544L106.883 238.026C107.955 239.818 109.967 241.053 112.283 241.337L113.717 241.513C116.58 237.431 116.185 231.201 116.185 231.201L116.301 229.415C116.404 227.825 115.109 226.516 113.326 226.409L109.221 226.166C107.803 226.082 106.412 226.786 105.726 227.936Z" fill="#FFC3BD"/>
<path d="M72.0863 244.988C72.0276 244.946 72.1485 245.094 72.2038 245.169L72.4434 245.467L72.9869 246.096C73.3655 246.522 73.787 246.942 74.2152 247.361C75.074 248.199 75.9905 249.02 76.9453 249.807C78.8573 251.385 80.9715 252.781 83.1705 254.026C87.5684 256.535 92.4828 258.242 97.5893 258.941L98.5498 259.055L99.03 259.114C99.082 259.119 98.9487 259.118 98.9125 259.132C98.6526 259.151 98.3306 259.264 98.2266 259.353C98.0108 259.529 98.534 259.269 99.0312 258.626C100.108 257.339 101.085 255.132 101.817 252.894C102.54 250.62 103.09 248.187 103.477 245.718C103.684 244.483 103.808 243.231 103.934 241.983C104.055 240.754 104.15 239.431 104.155 238.308L117.167 238.849C117.002 240.374 116.832 241.694 116.642 243.105C116.453 244.493 116.205 245.876 115.977 247.266C115.482 250.045 114.911 252.838 114.064 255.693C113.65 257.123 113.161 258.572 112.534 260.055C111.888 261.538 111.158 263.071 110.02 264.682C108.868 266.258 107.325 268.09 104.376 269.523C102.905 270.218 101.063 270.686 99.2639 270.746C98.8436 270.759 98.3249 270.749 97.9938 270.735L97.326 270.696L95.9903 270.616C92.4331 270.337 88.9109 269.737 85.4949 268.873C82.097 267.969 78.7838 266.848 75.639 265.468C72.4807 264.103 69.5144 262.472 66.651 260.707C65.2193 259.821 63.8271 258.884 62.4666 257.885C61.783 257.387 61.1185 256.867 60.4405 256.33L59.4201 255.496L58.8981 255.046C58.7026 254.869 58.5738 254.764 58.2732 254.465L72.0863 244.988Z" fill="#407BFF"/>
<path opacity="0.5" d="M72.0863 244.988C72.0276 244.946 72.1485 245.094 72.2038 245.169L72.4434 245.467L72.9869 246.096C73.3655 246.522 73.787 246.942 74.2152 247.361C75.074 248.199 75.9905 249.02 76.9453 249.807C78.8573 251.385 80.9715 252.781 83.1705 254.026C87.5684 256.535 92.4828 258.242 97.5893 258.941L98.5498 259.055L99.03 259.114C99.082 259.119 98.9487 259.118 98.9125 259.132C98.6526 259.151 98.3306 259.264 98.2266 259.353C98.0108 259.529 98.534 259.269 99.0312 258.626C100.108 257.339 101.085 255.132 101.817 252.894C102.54 250.62 103.09 248.187 103.477 245.718C103.684 244.483 103.808 243.231 103.934 241.983C104.055 240.754 104.15 239.431 104.155 238.308L117.167 238.849C117.002 240.374 116.832 241.694 116.642 243.105C116.453 244.493 116.205 245.876 115.977 247.266C115.482 250.045 114.911 252.838 114.064 255.693C113.65 257.123 113.161 258.572 112.534 260.055C111.888 261.538 111.158 263.071 110.02 264.682C108.868 266.258 107.325 268.09 104.376 269.523C102.905 270.218 101.063 270.686 99.2639 270.746C98.8436 270.759 98.3249 270.749 97.9938 270.735L97.326 270.696L95.9903 270.616C92.4331 270.337 88.9109 269.737 85.4949 268.873C82.097 267.969 78.7838 266.848 75.639 265.468C72.4807 264.103 69.5144 262.472 66.651 260.707C65.2193 259.821 63.8271 258.884 62.4666 257.885C61.783 257.387 61.1185 256.867 60.4405 256.33L59.4201 255.496L58.8981 255.046C58.7026 254.869 58.5738 254.764 58.2732 254.465L72.0863 244.988Z" fill="#323339"/>
<path d="M44.9573 480.401C43.312 477.221 44.4533 463.855 44.6804 461.664C41.8158 460.374 31.9939 461.964 31.9939 461.964C31.9939 461.964 34.7364 476.018 33.0911 480.402C36.8789 482.206 44.9573 480.401 44.9573 480.401Z" fill="#FFC3BD"/>
<path d="M166.273 467.58C163.173 465.346 156.663 453.146 155.749 451.091C152.52 451.018 145.226 455.93 145.226 455.93C145.226 455.93 154.855 467.514 155.613 472.075C159.938 472.262 166.273 467.58 166.273 467.58Z" fill="#FFC3BD"/>
<path d="M55.0243 488.158C46.7583 488.158 45.3458 488.048 40.7015 487.914C36.725 487.791 35.7736 488.219 32.5779 488.158C29.9078 488.109 30.0072 485.905 30.831 483.371C31.1236 482.466 31.5316 481.419 31.9463 480.151C32.2694 479.163 33.3237 478.487 34.5148 478.487H43.5864C44.4203 478.487 45.182 478.837 45.7063 479.396C47.9041 481.74 52.632 483.457 56.7724 483.936C61.2167 484.449 58.3193 488.158 55.0243 488.158Z" fill="#407BFF"/>
<path d="M182.585 473.022C173.695 476.489 169.022 474.727 164.561 475.606C160.735 476.352 160.856 476.972 157.041 477.91C154.513 478.531 153.22 476.196 153.437 474.153C153.577 472.828 153.741 471.292 153.706 469.679C153.692 469.089 154.068 468.543 154.691 468.299L163.535 464.844C164.119 464.616 164.794 464.688 165.295 465.033C168.819 467.46 176.561 470.514 181.991 468.938C186.191 467.729 185.549 471.866 182.585 473.022Z" fill="#407BFF"/>
<path d="M84.4959 299.312C84.4959 299.312 105.375 340.616 116.858 371.077C130.882 398.62 158.982 456.409 158.982 456.409C159.527 457.879 150.654 460.572 148.727 460.294C148.727 460.294 111.646 421.954 96.5451 378.406C57.2788 335.946 45.72 301.858 45.72 301.858L84.4959 299.312Z" fill="#263238"/>
<path opacity="0.2" d="M67.7582 321.93C73.5144 327.369 77.5745 346.27 79.6447 358.62C71.5132 348.298 65.1468 338.852 60.238 330.751C60.8155 326.132 63.167 322.739 67.7582 321.93Z" fill="black"/>
<path d="M72.8692 300.076C72.8692 300.076 74.3563 357.455 68.5651 385.72C62.4823 415.405 43.6757 451.205 45.0046 470.687C43.0678 471.656 36.2629 471.714 32.4492 470.687C32.4492 470.687 25.9471 412.84 45.5006 384.609C41.2699 356.34 29.9846 319.731 40.0055 302.234L72.8692 300.076Z" fill="#263238"/>
<path d="M45.9539 466.63C45.9901 467.613 46.094 469.325 46.3901 470.631C46.4963 471.102 46.128 471.539 45.5776 471.615C40.9819 472.249 34.3319 471.33 32.221 471.003C31.8165 470.941 31.5103 470.664 31.4459 470.314L30.7611 466.571C30.6673 466.06 31.1328 465.599 31.734 465.609L45.007 465.829C45.5223 465.838 45.937 466.187 45.9539 466.63Z" fill="#263238"/>
<path opacity="0.1" d="M45.9539 466.63C45.9901 467.613 46.094 469.325 46.3901 470.631C46.4963 471.102 46.128 471.539 45.5776 471.615C40.9819 472.249 34.3319 471.33 32.221 471.003C31.8165 470.941 31.5103 470.664 31.4459 470.314L30.7611 466.571C30.6673 466.06 31.1328 465.599 31.734 465.609L45.007 465.829C45.5223 465.838 45.937 466.187 45.9539 466.63Z" fill="#323339"/>
<path d="M157.97 452.169C158.539 453.093 159.564 454.736 160.376 455.929C160.645 456.323 160.493 456.819 160.041 457.059C156.655 458.856 150.647 460.665 148.664 461.24C148.271 461.354 147.841 461.237 147.592 460.952L144.897 457.887C144.529 457.469 144.695 456.865 145.242 456.635L156.697 451.817C157.165 451.621 157.725 451.773 157.97 452.169Z" fill="#263238"/>
<path opacity="0.1" d="M157.97 452.169C158.539 453.093 159.564 454.736 160.376 455.929C160.645 456.323 160.493 456.819 160.041 457.059C156.655 458.856 150.647 460.665 148.664 461.24C148.271 461.354 147.841 461.237 147.592 460.952L144.897 457.887C144.529 457.469 144.695 456.865 145.242 456.635L156.697 451.817C157.165 451.621 157.725 451.773 157.97 452.169Z" fill="#323339"/>
<path d="M75.6219 250.693C76.726 254.354 78.5114 258.378 80.6595 267.228C82.6415 274.68 84.0811 287.784 84.497 299.312C78.6944 303.772 59.3827 303.015 40.0077 302.232C39.9478 291.371 34.7747 281.351 20.6972 259.11C17.4326 253.954 20.0779 247.871 26.3788 246.042C28.0625 245.554 29.8581 245.07 31.7135 244.624C38.9286 242.891 44.8566 241.518 51.4704 240.755C53.6626 240.502 55.9486 240.3 58.1442 240.138C66.0644 239.555 73.6433 244.132 75.6219 250.693Z" fill="#407BFF"/>
<path opacity="0.5" d="M75.6219 250.693C76.726 254.354 78.5114 258.378 80.6595 267.228C82.6415 274.68 84.0811 287.784 84.497 299.312C78.6944 303.772 59.3827 303.015 40.0077 302.232C39.9478 291.371 34.7747 281.351 20.6972 259.11C17.4326 253.954 20.0779 247.871 26.3788 246.042C28.0625 245.554 29.8581 245.07 31.7135 244.624C38.9286 242.891 44.8566 241.518 51.4704 240.755C53.6626 240.502 55.9486 240.3 58.1442 240.138C66.0644 239.555 73.6433 244.132 75.6219 250.693Z" fill="#323339"/>
<path d="M52.7496 240.732L32.7983 244.413C32.7983 244.413 48.9427 250.214 61.8721 259.168C65.4034 243.868 52.7496 240.732 52.7496 240.732Z" fill="#323339"/>
<path d="M28.0444 225.179C31.2084 230.322 35.9669 239.948 32.7983 244.413C32.7983 244.413 50.8071 248.9 60.4121 256.014C61.6913 244.507 52.7496 240.732 52.7496 240.732C45.1504 240.685 43.5526 236.005 43.2972 231.578L28.0444 225.179Z" fill="#FFC3BD"/>
<path d="M44.9627 245.893C39.2449 245.893 33.074 244.716 32.7373 244.651C32.5847 244.621 32.4898 244.491 32.5237 244.359C32.5576 244.228 32.7102 244.147 32.8616 244.175C32.9678 244.196 43.6305 246.228 49.8353 245.01C51.8139 244.621 52.9688 243.996 53.2694 243.152C53.6739 242.015 52.3868 240.812 52.3733 240.8C52.2671 240.702 52.2727 240.548 52.3869 240.456C52.501 240.364 52.6795 240.369 52.7869 240.467C52.849 240.525 54.309 241.89 53.8106 243.294C53.4468 244.318 52.1518 245.054 49.9619 245.484C48.4624 245.78 46.7346 245.893 44.9627 245.893Z" fill="#323339"/>
<path d="M52.9926 246.026C52.5157 246.336 51.832 246.253 51.4727 245.842L50.8535 245.134C50.4941 244.723 50.5902 244.133 51.067 243.824C51.5439 243.514 52.2276 243.597 52.5869 244.008L53.2061 244.716C53.5655 245.126 53.4694 245.716 52.9926 246.026Z" fill="#407BFF"/>
<path opacity="0.2" d="M34.2639 227.792L43.2904 231.576C43.3469 232.625 43.4735 233.673 43.739 234.666C40.9129 234.865 36.2957 233.074 35.1533 230.728C34.5826 229.558 34.2323 228.394 34.2639 227.792Z" fill="black"/>
<path d="M18.9422 217.378C23.5899 225.695 25.3493 229.29 32.4615 232.146C43.1604 236.442 54.101 230.315 52.4558 221.118C50.9743 212.839 43.6237 200.629 32.2457 200.168C21.0372 199.713 14.2945 209.061 18.9422 217.378Z" fill="#FFC3BD"/>
<path d="M23.0183 205.301C28.0705 211.49 27.8129 221.633 21.8589 223.008C12.7805 221.804 10.8516 219.781 10.8516 219.781C10.8516 219.781 13.7828 200.704 23.0183 205.301Z" fill="#263238"/>
<path d="M15.9038 207.842C29.2672 209.312 39.9039 204.499 41.8983 201.805C29.7994 194.758 17.2338 200.757 15.9038 207.842Z" fill="#263238"/>
<path d="M43.7944 212.574C43.7944 212.574 46.7234 215.219 49.0037 216.234C48.3517 217.441 46.2974 217.599 46.2974 217.599L43.7944 212.574Z" fill="#ED847E"/>
<path d="M43.1515 221.44C43.6126 221.377 44.0917 221.274 44.5878 221.125C44.7211 221.085 44.7833 220.959 44.7256 220.843C44.668 220.728 44.5166 220.667 44.3787 220.707C40.7593 221.801 37.975 220.126 37.9468 220.109C37.8258 220.034 37.6609 220.052 37.5806 220.149C37.4993 220.246 37.532 220.386 37.653 220.46C37.7614 220.525 40.0022 221.875 43.1515 221.44Z" fill="#263238"/>
<path d="M19.5322 225.929C21.6397 226.943 23.85 227.031 25.4387 226.549C27.8287 225.822 27.1247 223.306 24.8715 221.705C22.8431 220.263 19.1548 218.905 17.5208 220.501C15.9106 222.073 17.1231 224.77 19.5322 225.929Z" fill="#FFC3BD"/>
<path d="M23.7946 226.438C21.9753 226.438 20.5063 227.705 20.5063 229.283C20.5063 230.851 21.9753 232.117 23.7946 232.117C25.6139 232.117 27.0942 230.851 27.0942 229.283C27.0942 227.705 25.6139 226.438 23.7946 226.438ZM23.7946 231.455C22.4047 231.455 21.2747 230.481 21.2747 229.283C21.2747 228.075 22.4047 227.101 23.7946 227.101C25.1958 227.101 26.3258 228.075 26.3258 229.283C26.3258 230.481 25.1958 231.455 23.7946 231.455Z" fill="#323339"/>
<path d="M31.1552 211.925C31.2705 211.861 31.3519 211.76 31.3722 211.637C31.6852 209.726 33.457 209.075 33.4774 209.067C33.7407 208.972 33.8571 208.717 33.7294 208.496C33.6017 208.276 33.2808 208.174 33.0118 208.269C32.9192 208.303 30.6942 209.117 30.3066 211.489C30.2682 211.725 30.475 211.95 30.7699 211.991C30.9111 212.011 31.0479 211.985 31.1552 211.925Z" fill="#263238"/>
<path d="M47.2046 206.766C47.3334 206.752 47.4532 206.7 47.5346 206.607C47.7029 206.418 47.6476 206.139 47.4103 205.983C45.0316 204.426 42.7535 205.018 42.6564 205.045C42.3852 205.119 42.2518 205.367 42.3581 205.601C42.4643 205.834 42.7705 205.963 43.0417 205.891C43.131 205.867 44.9062 205.429 46.7978 206.668C46.9221 206.748 47.0679 206.779 47.2046 206.766Z" fill="#263238"/>
<path d="M47.0386 210.05C47.3279 210.774 47.1165 211.491 46.5651 211.649C46.0137 211.808 45.3311 211.35 45.0419 210.627C44.7526 209.902 44.9639 209.186 45.5165 209.027C46.0668 208.868 46.7493 209.325 47.0386 210.05Z" fill="#263238"/>
<path d="M37.2427 213.527C37.5331 214.251 37.3207 214.968 36.7693 215.126C36.2178 215.285 35.5353 214.827 35.246 214.104C34.9556 213.379 35.168 212.663 35.7195 212.504C36.2709 212.345 36.9523 212.803 37.2427 213.527Z" fill="#263238"/>
<path d="M35.2449 212.928L36.1647 211.216C36.1647 211.216 36.6992 212.846 35.2449 212.928Z" fill="#263238"/>
<path d="M44.9775 209.555L45.8974 207.842C45.8974 207.842 46.4318 209.474 44.9775 209.555Z" fill="#263238"/>
<path opacity="0.5" d="M33.1499 260.165L23.3494 263.342C27.3823 269.789 30.5769 275.132 33.0312 279.762C32.0131 269.52 33.1499 260.165 33.1499 260.165Z" fill="#407BFF"/>
<path d="M94.5979 488.168H107.495L107.495 328.031H94.5979L94.5979 488.168Z" fill="#407BFF"/>
<path opacity="0.2" d="M94.5979 328.031H107.495V354.964L94.5979 352.098V328.031Z" fill="black"/>
<path d="M54.9745 347.972H169.987V329.406C169.987 315.354 156.772 303.963 140.469 303.963H84.4912C68.1887 303.963 54.9734 315.354 54.9734 329.406L54.9745 347.972Z" fill="#407BFF"/>
<path d="M63.454 317.548L61.5443 315.198C60.8256 314.315 59.6561 313.784 58.404 313.775L52.554 313.733C50.2149 313.717 48.0114 314.677 46.6419 316.311L45.7932 317.323C48.6521 321.408 55.2332 324.006 55.2332 324.006L57.0141 324.926C58.6006 325.744 60.5465 325.367 61.4855 324.056L63.6461 321.038C64.3908 319.996 64.3162 318.607 63.454 317.548Z" fill="#FFC3BD"/>
<path d="M36.8177 257.761C36.5228 258.291 36.1352 259.072 35.8029 259.759L34.7984 261.915C34.1464 263.367 33.5305 264.836 32.9576 266.313C31.8141 269.267 30.8886 272.258 30.1744 275.217C29.8309 276.696 29.5461 278.166 29.3348 279.617C29.154 281.062 29.0501 282.484 29.0444 283.856C29.0433 286.584 29.5314 289.095 30.4795 290.843L30.9033 291.624C30.9383 291.688 30.9666 291.759 30.9869 291.824C31.4536 293.381 32.6977 295.325 34.2752 297.178C35.8583 299.049 37.7612 300.902 39.8144 302.677C41.8914 304.439 44.113 306.144 46.4238 307.777C47.5798 308.593 48.7708 309.379 49.9686 310.152C51.1461 310.913 52.4309 311.701 53.5496 312.336L47.1391 321.062C45.6114 320.229 44.3073 319.475 42.9219 318.661C41.5603 317.857 40.2235 317.025 38.8901 316.183C36.2188 314.502 33.6085 312.722 31.0683 310.798C28.5201 308.876 26.0228 306.829 23.6769 304.459C22.5006 303.283 21.3729 301.997 20.3129 300.592C19.262 299.179 18.2473 297.645 17.4472 295.846L17.9535 296.827C15.1793 292.658 14.2629 288.405 13.8697 284.476C13.5273 280.524 13.7612 276.763 14.2256 273.102C14.7126 269.445 15.4754 265.89 16.3975 262.391C16.854 260.639 17.3557 258.901 17.906 257.17C18.1795 256.304 18.4699 255.44 18.7716 254.571C19.0857 253.679 19.366 252.889 19.7829 251.861L36.8177 257.761Z" fill="#407BFF"/>
<path opacity="0.5" d="M36.8177 257.761C36.5228 258.291 36.1352 259.072 35.8029 259.759L34.7984 261.915C34.1464 263.367 33.5305 264.836 32.9576 266.313C31.8141 269.267 30.8886 272.258 30.1744 275.217C29.8309 276.696 29.5461 278.166 29.3348 279.617C29.154 281.062 29.0501 282.484 29.0444 283.856C29.0433 286.584 29.5314 289.095 30.4795 290.843L30.9033 291.624C30.9383 291.688 30.9666 291.759 30.9869 291.824C31.4536 293.381 32.6977 295.325 34.2752 297.178C35.8583 299.049 37.7612 300.902 39.8144 302.677C41.8914 304.439 44.113 306.144 46.4238 307.777C47.5798 308.593 48.7708 309.379 49.9686 310.152C51.1461 310.913 52.4309 311.701 53.5496 312.336L47.1391 321.062C45.6114 320.229 44.3073 319.475 42.9219 318.661C41.5603 317.857 40.2235 317.025 38.8901 316.183C36.2188 314.502 33.6085 312.722 31.0683 310.798C28.5201 308.876 26.0228 306.829 23.6769 304.459C22.5006 303.283 21.3729 301.997 20.3129 300.592C19.262 299.179 18.2473 297.645 17.4472 295.846L17.9535 296.827C15.1793 292.658 14.2629 288.405 13.8697 284.476C13.5273 280.524 13.7612 276.763 14.2256 273.102C14.7126 269.445 15.4754 265.89 16.3975 262.391C16.854 260.639 17.3557 258.901 17.906 257.17C18.1795 256.304 18.4699 255.44 18.7716 254.571C19.0857 253.679 19.366 252.889 19.7829 251.861L36.8177 257.761Z" fill="#323339"/>
<path opacity="0.1" d="M54.9758 342.471H110.953V330.209H54.9758V342.471Z" fill="#323339"/>
<path opacity="0.2" d="M110.952 347.972V329.406C110.952 315.354 124.168 303.963 140.47 303.963C156.773 303.963 169.988 315.354 169.988 329.406V347.972" fill="black"/>
<path d="M110.952 351.239H191.727V347.973H110.952V351.239Z" fill="#407BFF"/>
<path opacity="0.2" d="M132.692 351.239H191.728V347.973H132.692V351.239Z" fill="black"/>
<path d="M101.047 334.649H103.141V291.671H101.047V334.649Z" fill="#E0E0E0"/>
<path d="M89.1469 300.009H103.772V293.842C103.772 293.387 103.344 293.018 102.816 293.018H89.1458L91.5391 296.514L89.1469 300.009Z" fill="#407BFF"/>
<path d="M465.811 58.251L386.287 73.8749L376.101 79.3001L465.811 58.251Z" fill="#407BFF"/>
<path opacity="0.2" d="M386.287 73.8749L376.101 79.3001L465.811 58.251" fill="black"/>
<path d="M465.811 58.251L386.287 73.8749L393.773 78.6232L465.811 58.251Z" fill="#407BFF"/>
<path d="M424.782 71.7574L384.888 70.3451C382.887 70.274 381.317 68.8052 381.4 67.0803L382.142 51.5099C382.225 49.7849 383.929 48.4321 385.93 48.5032L425.822 49.9155C427.824 49.9866 429.393 51.4554 429.311 53.1803L428.568 68.7507C428.487 70.4747 426.783 71.8275 424.782 71.7574Z" fill="#407BFF"/>
<path opacity="0.8" d="M424.782 71.7574L384.888 70.3451C382.887 70.274 381.317 68.8052 381.4 67.0803L382.142 51.5099C382.225 49.7849 383.929 48.4321 385.93 48.5032L425.822 49.9155C427.824 49.9866 429.393 51.4554 429.311 53.1803L428.568 68.7507C428.487 70.4747 426.783 71.8275 424.782 71.7574Z" fill="#323339"/>
<path opacity="0.4" d="M405.181 64.2927C405.068 64.2927 404.956 64.2635 404.86 64.207L384.241 51.9414C383.984 51.7885 383.92 51.4856 384.096 51.2645C384.273 51.0434 384.625 50.9879 384.882 51.1398L405.209 63.2311L426.617 52.6184C426.888 52.484 427.233 52.5648 427.389 52.7976C427.544 53.0304 427.451 53.3284 427.181 53.4628L405.464 64.2294C405.375 64.2713 405.278 64.2927 405.181 64.2927Z" fill="#407BFF"/>
<path opacity="0.4" d="M426.158 69.0429C426.047 69.0429 425.934 69.0146 425.836 68.9562L414.017 61.8762C413.761 61.7223 413.698 61.4194 413.876 61.1983C414.055 60.9781 414.406 60.9236 414.663 61.0765L426.481 68.1565C426.738 68.3104 426.801 68.6133 426.623 68.8344C426.513 68.9708 426.337 69.0429 426.158 69.0429Z" fill="#407BFF"/>
<path opacity="0.4" d="M383.823 67.5438C383.627 67.5438 383.438 67.4571 383.333 67.3012C383.177 67.0685 383.269 66.7704 383.539 66.636L395.992 60.4151C396.262 60.2797 396.607 60.3596 396.763 60.5923C396.919 60.8251 396.828 61.1232 396.558 61.2576L384.104 67.4775C384.016 67.5233 383.919 67.5438 383.823 67.5438Z" fill="#407BFF"/>
<path d="M465.811 58.251L397.635 70.2633L393.773 78.6232L465.811 58.251Z" fill="#407BFF"/>
<path opacity="0.2" d="M465.811 58.251L397.635 70.2633L393.773 78.6232L465.811 58.251Z" fill="black"/>
<path d="M465.811 58.251L397.635 70.2633L419.105 76.9732L465.811 58.251Z" fill="#407BFF"/>
<path d="M371.299 86.0297C371.042 86.0297 370.811 85.8787 370.75 85.6547C370.678 85.3927 370.867 85.1307 371.17 85.0693C372.439 84.8122 373.679 84.4742 374.852 84.0651C375.142 83.9648 375.47 84.0856 375.587 84.3339C375.705 84.5833 375.565 84.8667 375.275 84.968C374.048 85.3956 372.754 85.7482 371.429 86.017C371.386 86.0258 371.342 86.0297 371.299 86.0297Z" fill="#407BFF"/>
<path d="M328.833 254.287C328.534 254.287 328.284 254.084 328.27 253.823C328.255 253.555 328.494 253.327 328.806 253.313C331.421 253.204 334.087 252.996 336.727 252.697C337.034 252.66 337.32 252.848 337.36 253.115C337.401 253.382 337.184 253.627 336.875 253.662C334.204 253.965 331.508 254.175 328.863 254.286C328.853 254.287 328.844 254.287 328.833 254.287ZM344.679 252.49C344.42 252.49 344.185 252.334 344.128 252.106C344.062 251.843 344.256 251.584 344.561 251.527C347.221 251.031 349.805 250.443 352.243 249.779C352.54 249.699 352.857 249.841 352.951 250.097C353.045 250.353 352.88 250.627 352.583 250.708C350.113 251.38 347.493 251.976 344.799 252.478C344.759 252.487 344.718 252.49 344.679 252.49ZM359.885 248.281C359.67 248.281 359.466 248.176 359.371 247.997C359.241 247.753 359.366 247.463 359.65 247.351C361.711 246.54 363.569 245.669 365.172 244.762C365.62 244.509 366.067 244.252 366.511 243.99C366.77 243.838 367.12 243.895 367.296 244.118C367.472 244.34 367.406 244.643 367.148 244.794C366.699 245.059 366.246 245.319 365.792 245.577C364.141 246.51 362.233 247.405 360.12 248.237C360.043 248.268 359.964 248.281 359.885 248.281ZM373.18 240.694C373.022 240.694 372.865 240.636 372.753 240.525C372.549 240.322 372.575 240.014 372.811 239.839C374.908 238.273 376.777 236.645 378.364 235C378.564 234.793 378.92 234.765 379.159 234.937C379.399 235.109 379.431 235.416 379.233 235.622C377.607 237.308 375.695 238.974 373.551 240.575C373.442 240.655 373.311 240.694 373.18 240.694ZM383.226 230.076C383.139 230.076 383.051 230.059 382.968 230.023C382.69 229.9 382.581 229.607 382.723 229.367C383.088 228.754 383.427 228.125 383.731 227.499C384.417 226.088 384.989 224.58 385.43 223.019C385.503 222.758 385.81 222.597 386.112 222.661C386.415 222.725 386.601 222.989 386.527 223.25C386.071 224.861 385.482 226.417 384.773 227.876C384.458 228.525 384.106 229.176 383.729 229.811C383.629 229.98 383.432 230.076 383.226 230.076ZM387.148 216.81C387.136 216.81 387.122 216.81 387.11 216.81C386.799 216.791 386.563 216.559 386.584 216.291C386.688 214.963 386.739 213.562 386.739 212.009C386.739 211.156 386.723 210.302 386.699 209.446C386.691 209.177 386.937 208.953 387.249 208.946C387.563 208.92 387.821 209.151 387.829 209.421C387.855 210.285 387.87 211.148 387.87 212.008C387.87 213.583 387.819 215.006 387.713 216.356C387.692 216.614 387.443 216.81 387.148 216.81ZM386.931 203.033C386.631 203.033 386.381 202.83 386.367 202.568C386.265 200.587 386.169 198.461 386.169 196.335L386.172 195.651C386.174 195.382 386.39 195.149 386.741 195.168C387.053 195.17 387.304 195.39 387.302 195.659L387.299 196.336C387.299 198.442 387.393 200.555 387.496 202.525C387.51 202.794 387.269 203.021 386.957 203.033C386.949 203.032 386.94 203.033 386.931 203.033ZM435.246 197.033C434.218 197.033 433.213 197.011 432.247 196.974C431.935 196.962 431.693 196.735 431.706 196.467C431.72 196.198 431.984 195.989 432.295 196.001C433.245 196.037 434.234 196.059 435.246 196.059C437.019 196.059 438.685 195.987 440.201 195.847C440.509 195.817 440.789 196.012 440.823 196.279C440.857 196.546 440.632 196.786 440.323 196.815C438.768 196.959 437.059 197.033 435.246 197.033ZM424.29 196.538C424.276 196.538 424.261 196.538 424.246 196.537C421.597 196.361 418.914 196.153 416.266 195.918C415.955 195.891 415.73 195.651 415.762 195.383C415.794 195.116 416.069 194.917 416.383 194.949C419.02 195.183 421.695 195.39 424.333 195.566C424.644 195.586 424.877 195.82 424.853 196.089C424.83 196.344 424.583 196.538 424.29 196.538ZM447.989 195.143C447.774 195.143 447.568 195.037 447.473 194.857C447.344 194.612 447.471 194.323 447.755 194.212C450.292 193.221 452.225 191.807 453.501 190.007C453.663 189.777 454.01 189.705 454.278 189.845C454.545 189.986 454.628 190.286 454.466 190.515C453.069 192.485 450.968 194.027 448.221 195.099C448.146 195.129 448.067 195.143 447.989 195.143ZM408.382 195.125C408.357 195.125 408.333 195.124 408.309 195.121C405.677 194.828 403.008 194.501 400.376 194.147C400.068 194.107 399.856 193.857 399.905 193.591C399.953 193.325 400.24 193.144 400.55 193.185C403.172 193.537 405.832 193.863 408.453 194.155C408.763 194.189 408.981 194.434 408.941 194.701C408.904 194.946 408.661 195.125 408.382 195.125ZM392.578 193.005C392.544 193.005 392.51 193.002 392.476 192.997C389.864 192.587 387.217 192.141 384.613 191.672C384.307 191.616 384.111 191.358 384.175 191.095C384.24 190.832 384.539 190.664 384.844 190.718C387.44 191.186 390.075 191.63 392.678 192.039C392.986 192.087 393.189 192.341 393.133 192.605C393.084 192.84 392.846 193.005 392.578 193.005ZM376.923 190.185C376.88 190.185 376.836 190.181 376.792 190.172C374.205 189.646 371.59 189.083 369.019 188.498C368.717 188.43 368.536 188.163 368.616 187.903C368.695 187.643 369.003 187.487 369.307 187.556C371.868 188.139 374.474 188.699 377.052 189.224C377.356 189.285 377.543 189.548 377.472 189.81C377.411 190.033 377.178 190.185 376.923 190.185ZM387.295 189.271C387.268 189.271 387.24 189.269 387.212 189.266C386.903 189.226 386.691 188.978 386.736 188.713C387.153 186.306 387.817 184.027 388.71 181.94C388.817 181.688 389.143 181.56 389.435 181.652C389.728 181.746 389.878 182.025 389.77 182.277C388.903 184.302 388.259 186.515 387.853 188.857C387.812 189.097 387.571 189.271 387.295 189.271ZM361.458 186.671C361.406 186.671 361.352 186.664 361.3 186.652C358.748 186.011 356.169 185.332 353.637 184.632C353.34 184.551 353.176 184.276 353.271 184.02C353.366 183.764 353.686 183.623 353.982 183.704C356.505 184.401 359.073 185.077 361.616 185.716C361.915 185.791 362.087 186.061 362 186.319C361.928 186.533 361.702 186.671 361.458 186.671ZM455.596 184.159C455.33 184.159 455.094 183.997 455.042 183.766C454.615 181.873 453.268 180.036 451.037 178.303C450.806 178.123 450.786 177.815 450.996 177.616C451.205 177.416 451.562 177.4 451.793 177.58C454.209 179.456 455.675 181.475 456.151 183.58C456.21 183.843 456.01 184.099 455.704 184.15C455.668 184.156 455.632 184.159 455.596 184.159ZM346.229 182.458C346.167 182.458 346.102 182.449 346.04 182.429C343.468 181.643 340.941 180.827 338.529 180.002C338.238 179.903 338.097 179.619 338.211 179.37C338.327 179.12 338.654 178.997 338.945 179.096C341.344 179.916 343.858 180.729 346.416 181.511C346.71 181.6 346.865 181.879 346.76 182.132C346.678 182.333 346.461 182.458 346.229 182.458ZM331.364 177.363C331.287 177.363 331.209 177.349 331.133 177.32C328.645 176.361 326.207 175.362 323.886 174.347C323.608 174.225 323.496 173.932 323.638 173.692C323.779 173.453 324.119 173.356 324.397 173.478C326.702 174.485 329.123 175.479 331.594 176.43C331.879 176.54 332.007 176.828 331.88 177.073C331.786 177.254 331.579 177.363 331.364 177.363ZM392.968 176.522C392.851 176.522 392.734 176.491 392.632 176.426C392.381 176.267 392.328 175.962 392.513 175.746C394.054 173.95 395.862 172.444 397.889 171.271C398.082 171.159 398.278 171.05 398.474 170.945C398.739 170.803 399.088 170.872 399.253 171.101C399.418 171.329 399.338 171.63 399.072 171.772C398.886 171.872 398.701 171.974 398.518 172.081C396.6 173.191 394.885 174.62 393.422 176.325C393.312 176.454 393.141 176.522 392.968 176.522ZM444.803 174.573C444.713 174.573 444.62 174.554 444.534 174.515C443.587 174.072 442.655 173.664 441.776 173.289C440.342 172.678 438.857 172.112 437.362 171.607C437.072 171.509 436.928 171.226 437.042 170.976C437.156 170.725 437.483 170.603 437.775 170.7C439.299 171.215 440.813 171.792 442.278 172.417C443.169 172.796 444.114 173.209 445.073 173.658C445.348 173.787 445.45 174.082 445.3 174.319C445.198 174.48 445.003 174.573 444.803 174.573ZM317.112 171.113C317.016 171.113 316.918 171.092 316.828 171.047C314.469 169.867 312.175 168.634 310.013 167.383C309.755 167.233 309.686 166.93 309.859 166.707C310.033 166.484 310.383 166.424 310.643 166.574C312.785 167.812 315.058 169.034 317.396 170.205C317.666 170.34 317.757 170.638 317.6 170.87C317.496 171.027 317.306 171.113 317.112 171.113ZM429.941 169.585C429.898 169.585 429.854 169.581 429.81 169.572C427.244 169.047 424.617 168.676 422.003 168.468C421.692 168.444 421.464 168.206 421.492 167.938C421.521 167.67 421.801 167.474 422.107 167.498C424.774 167.71 427.453 168.089 430.071 168.624C430.374 168.686 430.563 168.948 430.491 169.21C430.43 169.434 430.198 169.585 429.941 169.585ZM406.153 169.268C405.898 169.268 405.667 169.118 405.605 168.896C405.531 168.634 405.718 168.371 406.02 168.307C407.87 167.922 409.844 167.651 412.053 167.48C412.713 167.429 413.374 167.389 414.037 167.359C414.355 167.344 414.614 167.55 414.631 167.819C414.648 168.088 414.408 168.317 414.097 168.332C413.449 168.361 412.802 168.401 412.155 168.45C410.001 168.616 408.082 168.879 406.287 169.254C406.242 169.263 406.197 169.268 406.153 169.268ZM303.855 163.421C303.733 163.421 303.61 163.387 303.507 163.316C301.364 161.868 299.307 160.354 297.39 158.816C297.162 158.632 297.149 158.324 297.362 158.127C297.575 157.93 297.933 157.92 298.161 158.103C300.054 159.622 302.086 161.118 304.204 162.55C304.449 162.716 304.492 163.022 304.3 163.234C304.188 163.356 304.023 163.421 303.855 163.421ZM292.19 154.018C292.033 154.018 291.877 153.962 291.765 153.852C289.976 152.099 288.305 150.258 286.801 148.379C286.623 148.158 286.688 147.854 286.944 147.702C287.201 147.548 287.553 147.605 287.731 147.826C289.211 149.674 290.854 151.484 292.615 153.209C292.82 153.411 292.798 153.719 292.564 153.897C292.455 153.978 292.323 154.018 292.19 154.018ZM283.146 142.686C282.942 142.686 282.744 142.59 282.644 142.422C281.389 140.329 280.315 138.18 279.448 136.035C279.345 135.78 279.501 135.503 279.796 135.414C280.091 135.325 280.413 135.46 280.515 135.714C281.364 137.816 282.418 139.923 283.648 141.975C283.792 142.214 283.683 142.508 283.405 142.632C283.322 142.669 283.233 142.686 283.146 142.686ZM277.946 129.704C277.677 129.704 277.44 129.538 277.39 129.302C277.283 128.783 277.186 128.263 277.1 127.74C276.823 126.045 276.683 124.302 276.683 122.556L276.684 122.357C276.685 122.088 276.942 121.862 277.251 121.872C277.563 121.873 277.815 122.092 277.814 122.361L277.813 122.556C277.813 124.256 277.95 125.955 278.219 127.605C278.302 128.115 278.397 128.625 278.502 129.131C278.558 129.396 278.353 129.649 278.046 129.696C278.013 129.701 277.979 129.704 277.946 129.704ZM278.003 115.993C277.969 115.993 277.935 115.99 277.9 115.985C277.594 115.936 277.39 115.682 277.447 115.418C277.934 113.14 278.654 110.878 279.588 108.697C279.697 108.445 280.021 108.316 280.314 108.409C280.606 108.502 280.756 108.782 280.648 109.034C279.736 111.164 279.033 113.37 278.559 115.594C278.508 115.828 278.271 115.993 278.003 115.993ZM283.519 103.123C283.423 103.123 283.325 103.102 283.236 103.057C282.966 102.922 282.874 102.624 283.031 102.391C284.403 100.36 285.979 98.448 287.716 96.7065C287.92 96.502 288.277 96.4796 288.513 96.6549C288.75 96.8302 288.776 97.138 288.573 97.3416C286.88 99.0383 285.344 100.902 284.006 102.881C283.904 103.037 283.714 103.123 283.519 103.123ZM293.919 92.7589C293.75 92.7589 293.584 92.6946 293.472 92.5709C293.281 92.3586 293.326 92.0528 293.572 91.8872C295.648 90.4953 297.948 89.2418 300.411 88.1607C300.689 88.0379 301.029 88.1334 301.17 88.374C301.311 88.6136 301.2 88.9067 300.922 89.0285C298.524 90.0814 296.284 91.3018 294.265 92.6557C294.163 92.7248 294.041 92.7589 293.919 92.7589ZM363.36 86.7152C363.357 86.7152 363.355 86.7152 363.352 86.7152C360.955 86.688 358.401 86.4941 355.316 86.1055C355.008 86.0666 354.794 85.8192 354.839 85.5533C354.885 85.2874 355.172 85.1033 355.48 85.1422C358.514 85.525 361.02 85.7159 363.366 85.7412C363.678 85.7451 363.928 85.9653 363.923 86.2351C363.92 86.501 363.668 86.7152 363.36 86.7152ZM308.056 86.463C307.818 86.463 307.597 86.3325 307.519 86.1269C307.422 85.8718 307.585 85.5961 307.881 85.5123C310.298 84.8315 312.923 84.2452 315.683 83.7669C315.99 83.7153 316.287 83.8848 316.348 84.1487C316.409 84.4127 316.211 84.6689 315.905 84.7224C313.189 85.1929 310.607 85.7695 308.232 86.4386C308.174 86.4552 308.114 86.463 308.056 86.463ZM347.518 84.9318C347.484 84.9318 347.449 84.9289 347.414 84.9241C344.989 84.5354 342.241 84.0942 339.554 83.766C339.245 83.728 339.029 83.4816 339.074 83.2157C339.118 82.9498 339.401 82.7637 339.712 82.8017C342.423 83.1329 345.185 83.576 347.621 83.9666C347.928 84.0163 348.129 84.2705 348.073 84.5345C348.023 84.7682 347.786 84.9318 347.518 84.9318ZM323.695 83.6773C323.413 83.6773 323.168 83.4942 323.135 83.2459C323.1 82.979 323.321 82.7374 323.632 82.7063C325.071 82.5641 326.602 82.4365 328.181 82.3283C329.186 82.2602 330.236 82.2251 331.304 82.2251L331.674 82.227C331.986 82.229 332.237 82.4491 332.235 82.7189C332.231 82.9877 331.936 83.1981 331.665 83.201L331.304 83.1991C330.265 83.1991 329.245 83.2332 328.271 83.2994C326.703 83.4066 325.187 83.5332 323.761 83.6744C323.738 83.6764 323.717 83.6773 323.695 83.6773Z" fill="#407BFF"/>
<path d="M320.721 254.312C320.712 254.312 320.704 254.312 320.696 254.312C319.349 254.26 318.013 254.18 316.723 254.073C316.412 254.047 316.185 253.809 316.215 253.541C316.245 253.273 316.519 253.077 316.832 253.103C318.102 253.209 319.418 253.288 320.746 253.338C321.058 253.349 321.3 253.577 321.286 253.846C321.271 254.107 321.022 254.312 320.721 254.312Z" fill="#407BFF"/>
<g opacity="0.6">
<path d="M371.299 86.0297C371.042 86.0297 370.811 85.8787 370.75 85.6547C370.678 85.3927 370.867 85.1307 371.17 85.0693C372.439 84.8122 373.679 84.4742 374.852 84.0651C375.142 83.9648 375.47 84.0856 375.587 84.3339C375.705 84.5833 375.565 84.8667 375.275 84.968C374.048 85.3956 372.754 85.7482 371.429 86.017C371.386 86.0258 371.342 86.0297 371.299 86.0297Z" fill="#323339"/>
<path d="M328.833 254.287C328.534 254.287 328.284 254.084 328.27 253.823C328.255 253.555 328.494 253.327 328.806 253.313C331.421 253.204 334.087 252.996 336.727 252.697C337.034 252.66 337.32 252.848 337.36 253.115C337.401 253.382 337.184 253.627 336.875 253.662C334.204 253.965 331.508 254.175 328.863 254.286C328.853 254.287 328.844 254.287 328.833 254.287ZM344.679 252.49C344.42 252.49 344.185 252.334 344.128 252.106C344.062 251.843 344.256 251.584 344.561 251.527C347.221 251.031 349.805 250.443 352.243 249.779C352.54 249.699 352.857 249.841 352.951 250.097C353.045 250.353 352.88 250.627 352.583 250.708C350.113 251.38 347.493 251.976 344.799 252.478C344.759 252.487 344.718 252.49 344.679 252.49ZM359.885 248.281C359.67 248.281 359.466 248.176 359.371 247.997C359.241 247.753 359.366 247.463 359.65 247.351C361.711 246.54 363.569 245.669 365.172 244.762C365.62 244.509 366.067 244.252 366.511 243.99C366.77 243.838 367.12 243.895 367.296 244.118C367.472 244.34 367.406 244.643 367.148 244.794C366.699 245.059 366.246 245.319 365.792 245.577C364.141 246.51 362.233 247.405 360.12 248.237C360.043 248.268 359.964 248.281 359.885 248.281ZM373.18 240.694C373.022 240.694 372.865 240.636 372.753 240.525C372.549 240.322 372.575 240.014 372.811 239.839C374.908 238.273 376.777 236.645 378.364 235C378.564 234.793 378.92 234.765 379.159 234.937C379.399 235.109 379.431 235.416 379.233 235.622C377.607 237.308 375.695 238.974 373.551 240.575C373.442 240.655 373.311 240.694 373.18 240.694ZM383.226 230.076C383.139 230.076 383.051 230.059 382.968 230.023C382.69 229.9 382.581 229.607 382.723 229.367C383.088 228.754 383.427 228.125 383.731 227.499C384.417 226.088 384.989 224.58 385.43 223.019C385.503 222.758 385.81 222.597 386.112 222.661C386.415 222.725 386.601 222.989 386.527 223.25C386.071 224.861 385.482 226.417 384.773 227.876C384.458 228.525 384.106 229.176 383.729 229.811C383.629 229.98 383.432 230.076 383.226 230.076ZM387.148 216.81C387.136 216.81 387.122 216.81 387.11 216.81C386.799 216.791 386.563 216.559 386.584 216.291C386.688 214.963 386.739 213.562 386.739 212.009C386.739 211.156 386.723 210.302 386.699 209.446C386.691 209.177 386.937 208.953 387.249 208.946C387.563 208.92 387.821 209.151 387.829 209.421C387.855 210.285 387.87 211.148 387.87 212.008C387.87 213.583 387.819 215.006 387.713 216.356C387.692 216.614 387.443 216.81 387.148 216.81ZM386.931 203.033C386.631 203.033 386.381 202.83 386.367 202.568C386.265 200.587 386.169 198.461 386.169 196.335L386.172 195.651C386.174 195.382 386.39 195.149 386.741 195.168C387.053 195.17 387.304 195.39 387.302 195.659L387.299 196.336C387.299 198.442 387.393 200.555 387.496 202.525C387.51 202.794 387.269 203.021 386.957 203.033C386.949 203.032 386.94 203.033 386.931 203.033ZM435.246 197.033C434.218 197.033 433.213 197.011 432.247 196.974C431.935 196.962 431.693 196.735 431.706 196.467C431.72 196.198 431.984 195.989 432.295 196.001C433.245 196.037 434.234 196.059 435.246 196.059C437.019 196.059 438.685 195.987 440.201 195.847C440.509 195.817 440.789 196.012 440.823 196.279C440.857 196.546 440.632 196.786 440.323 196.815C438.768 196.959 437.059 197.033 435.246 197.033ZM424.29 196.538C424.276 196.538 424.261 196.538 424.246 196.537C421.597 196.361 418.914 196.153 416.266 195.918C415.955 195.891 415.73 195.651 415.762 195.383C415.794 195.116 416.069 194.917 416.383 194.949C419.02 195.183 421.695 195.39 424.333 195.566C424.644 195.586 424.877 195.82 424.853 196.089C424.83 196.344 424.583 196.538 424.29 196.538ZM447.989 195.143C447.774 195.143 447.568 195.037 447.473 194.857C447.344 194.612 447.471 194.323 447.755 194.212C450.292 193.221 452.225 191.807 453.501 190.007C453.663 189.777 454.01 189.705 454.278 189.845C454.545 189.986 454.628 190.286 454.466 190.515C453.069 192.485 450.968 194.027 448.221 195.099C448.146 195.129 448.067 195.143 447.989 195.143ZM408.382 195.125C408.357 195.125 408.333 195.124 408.309 195.121C405.677 194.828 403.008 194.501 400.376 194.147C400.068 194.107 399.856 193.857 399.905 193.591C399.953 193.325 400.24 193.144 400.55 193.185C403.172 193.537 405.832 193.863 408.453 194.155C408.763 194.189 408.981 194.434 408.941 194.701C408.904 194.946 408.661 195.125 408.382 195.125ZM392.578 193.005C392.544 193.005 392.51 193.002 392.476 192.997C389.864 192.587 387.217 192.141 384.613 191.672C384.307 191.616 384.111 191.358 384.175 191.095C384.24 190.832 384.539 190.664 384.844 190.718C387.44 191.186 390.075 191.63 392.678 192.039C392.986 192.087 393.189 192.341 393.133 192.605C393.084 192.84 392.846 193.005 392.578 193.005ZM376.923 190.185C376.88 190.185 376.836 190.181 376.792 190.172C374.205 189.646 371.59 189.083 369.019 188.498C368.717 188.43 368.536 188.163 368.616 187.903C368.695 187.643 369.003 187.487 369.307 187.556C371.868 188.139 374.474 188.699 377.052 189.224C377.356 189.285 377.543 189.548 377.472 189.81C377.411 190.033 377.178 190.185 376.923 190.185ZM387.295 189.271C387.268 189.271 387.24 189.269 387.212 189.266C386.903 189.226 386.691 188.978 386.736 188.713C387.153 186.306 387.817 184.027 388.71 181.94C388.817 181.688 389.143 181.56 389.435 181.652C389.728 181.746 389.878 182.025 389.77 182.277C388.903 184.302 388.259 186.515 387.853 188.857C387.812 189.097 387.571 189.271 387.295 189.271ZM361.458 186.671C361.406 186.671 361.352 186.664 361.3 186.652C358.748 186.011 356.169 185.332 353.637 184.632C353.34 184.551 353.176 184.276 353.271 184.02C353.366 183.764 353.686 183.623 353.982 183.704C356.505 184.401 359.073 185.077 361.616 185.716C361.915 185.791 362.087 186.061 362 186.319C361.928 186.533 361.702 186.671 361.458 186.671ZM455.596 184.159C455.33 184.159 455.094 183.997 455.042 183.766C454.615 181.873 453.268 180.036 451.037 178.303C450.806 178.123 450.786 177.815 450.996 177.616C451.205 177.416 451.562 177.4 451.793 177.58C454.209 179.456 455.675 181.475 456.151 183.58C456.21 183.843 456.01 184.099 455.704 184.15C455.668 184.156 455.632 184.159 455.596 184.159ZM346.229 182.458C346.167 182.458 346.102 182.449 346.04 182.429C343.468 181.643 340.941 180.827 338.529 180.002C338.238 179.903 338.097 179.619 338.211 179.37C338.327 179.12 338.654 178.997 338.945 179.096C341.344 179.916 343.858 180.729 346.416 181.511C346.71 181.6 346.865 181.879 346.76 182.132C346.678 182.333 346.461 182.458 346.229 182.458ZM331.364 177.363C331.287 177.363 331.209 177.349 331.133 177.32C328.645 176.361 326.207 175.362 323.886 174.347C323.608 174.225 323.496 173.932 323.638 173.692C323.779 173.453 324.119 173.356 324.397 173.478C326.702 174.485 329.123 175.479 331.594 176.43C331.879 176.54 332.007 176.828 331.88 177.073C331.786 177.254 331.579 177.363 331.364 177.363ZM392.968 176.522C392.851 176.522 392.734 176.491 392.632 176.426C392.381 176.267 392.328 175.962 392.513 175.746C394.054 173.95 395.862 172.444 397.889 171.271C398.082 171.159 398.278 171.05 398.474 170.945C398.739 170.803 399.088 170.872 399.253 171.101C399.418 171.329 399.338 171.63 399.072 171.772C398.886 171.872 398.701 171.974 398.518 172.081C396.6 173.191 394.885 174.62 393.422 176.325C393.312 176.454 393.141 176.522 392.968 176.522ZM444.803 174.573C444.713 174.573 444.62 174.554 444.534 174.515C443.587 174.072 442.655 173.664 441.776 173.289C440.342 172.678 438.857 172.112 437.362 171.607C437.072 171.509 436.928 171.226 437.042 170.976C437.156 170.725 437.483 170.603 437.775 170.7C439.299 171.215 440.813 171.792 442.278 172.417C443.169 172.796 444.114 173.209 445.073 173.658C445.348 173.787 445.45 174.082 445.3 174.319C445.198 174.48 445.003 174.573 444.803 174.573ZM317.112 171.113C317.016 171.113 316.918 171.092 316.828 171.047C314.469 169.867 312.175 168.634 310.013 167.383C309.755 167.233 309.686 166.93 309.859 166.707C310.033 166.484 310.383 166.424 310.643 166.574C312.785 167.812 315.058 169.034 317.396 170.205C317.666 170.34 317.757 170.638 317.6 170.87C317.496 171.027 317.306 171.113 317.112 171.113ZM429.941 169.585C429.898 169.585 429.854 169.581 429.81 169.572C427.244 169.047 424.617 168.676 422.003 168.468C421.692 168.444 421.464 168.206 421.492 167.938C421.521 167.67 421.801 167.474 422.107 167.498C424.774 167.71 427.453 168.089 430.071 168.624C430.374 168.686 430.563 168.948 430.491 169.21C430.43 169.434 430.198 169.585 429.941 169.585ZM406.153 169.268C405.898 169.268 405.667 169.118 405.605 168.896C405.531 168.634 405.718 168.371 406.02 168.307C407.87 167.922 409.844 167.651 412.053 167.48C412.713 167.429 413.374 167.389 414.037 167.359C414.355 167.344 414.614 167.55 414.631 167.819C414.648 168.088 414.408 168.317 414.097 168.332C413.449 168.361 412.802 168.401 412.155 168.45C410.001 168.616 408.082 168.879 406.287 169.254C406.242 169.263 406.197 169.268 406.153 169.268ZM303.855 163.421C303.733 163.421 303.61 163.387 303.507 163.316C301.364 161.868 299.307 160.354 297.39 158.816C297.162 158.632 297.149 158.324 297.362 158.127C297.575 157.93 297.933 157.92 298.161 158.103C300.054 159.622 302.086 161.118 304.204 162.55C304.449 162.716 304.492 163.022 304.3 163.234C304.188 163.356 304.023 163.421 303.855 163.421ZM292.19 154.018C292.033 154.018 291.877 153.962 291.765 153.852C289.976 152.099 288.305 150.258 286.801 148.379C286.623 148.158 286.688 147.854 286.944 147.702C287.201 147.548 287.553 147.605 287.731 147.826C289.211 149.674 290.854 151.484 292.615 153.209C292.82 153.411 292.798 153.719 292.564 153.897C292.455 153.978 292.323 154.018 292.19 154.018ZM283.146 142.686C282.942 142.686 282.744 142.59 282.644 142.422C281.389 140.329 280.315 138.18 279.448 136.035C279.345 135.78 279.501 135.503 279.796 135.414C280.091 135.325 280.413 135.46 280.515 135.714C281.364 137.816 282.418 139.923 283.648 141.975C283.792 142.214 283.683 142.508 283.405 142.632C283.322 142.669 283.233 142.686 283.146 142.686ZM277.946 129.704C277.677 129.704 277.44 129.538 277.39 129.302C277.283 128.783 277.186 128.263 277.1 127.74C276.823 126.045 276.683 124.302 276.683 122.556L276.684 122.357C276.685 122.088 276.942 121.862 277.251 121.872C277.563 121.873 277.815 122.092 277.814 122.361L277.813 122.556C277.813 124.256 277.95 125.955 278.219 127.605C278.302 128.115 278.397 128.625 278.502 129.131C278.558 129.396 278.353 129.649 278.046 129.696C278.013 129.701 277.979 129.704 277.946 129.704ZM278.003 115.993C277.969 115.993 277.935 115.99 277.9 115.985C277.594 115.936 277.39 115.682 277.447 115.418C277.934 113.14 278.654 110.878 279.588 108.697C279.697 108.445 280.021 108.316 280.314 108.409C280.606 108.502 280.756 108.782 280.648 109.034C279.736 111.164 279.033 113.37 278.559 115.594C278.508 115.828 278.271 115.993 278.003 115.993ZM283.519 103.123C283.423 103.123 283.325 103.102 283.236 103.057C282.966 102.922 282.874 102.624 283.031 102.391C284.403 100.36 285.979 98.448 287.716 96.7065C287.92 96.502 288.277 96.4796 288.513 96.6549C288.75 96.8302 288.776 97.138 288.573 97.3416C286.88 99.0383 285.344 100.902 284.006 102.881C283.904 103.037 283.714 103.123 283.519 103.123ZM293.919 92.7589C293.75 92.7589 293.584 92.6946 293.472 92.5709C293.281 92.3586 293.326 92.0528 293.572 91.8872C295.648 90.4953 297.948 89.2418 300.411 88.1607C300.689 88.0379 301.029 88.1334 301.17 88.374C301.311 88.6136 301.2 88.9067 300.922 89.0285C298.524 90.0814 296.284 91.3018 294.265 92.6557C294.163 92.7248 294.041 92.7589 293.919 92.7589ZM363.36 86.7152C363.357 86.7152 363.355 86.7152 363.352 86.7152C360.955 86.688 358.401 86.4941 355.316 86.1055C355.008 86.0666 354.794 85.8192 354.839 85.5533C354.885 85.2874 355.172 85.1033 355.48 85.1422C358.514 85.525 361.02 85.7159 363.366 85.7412C363.678 85.7451 363.928 85.9653 363.923 86.2351C363.92 86.501 363.668 86.7152 363.36 86.7152ZM308.056 86.463C307.818 86.463 307.597 86.3325 307.519 86.1269C307.422 85.8718 307.585 85.5961 307.881 85.5123C310.298 84.8315 312.923 84.2452 315.683 83.7669C315.99 83.7153 316.287 83.8848 316.348 84.1487C316.409 84.4127 316.211 84.6689 315.905 84.7224C313.189 85.1929 310.607 85.7695 308.232 86.4386C308.174 86.4552 308.114 86.463 308.056 86.463ZM347.518 84.9318C347.484 84.9318 347.449 84.9289 347.414 84.9241C344.989 84.5354 342.241 84.0942 339.554 83.766C339.245 83.728 339.029 83.4816 339.074 83.2157C339.118 82.9498 339.401 82.7637 339.712 82.8017C342.423 83.1329 345.185 83.576 347.621 83.9666C347.928 84.0163 348.129 84.2705 348.073 84.5345C348.023 84.7682 347.786 84.9318 347.518 84.9318ZM323.695 83.6773C323.413 83.6773 323.168 83.4942 323.135 83.2459C323.1 82.979 323.321 82.7374 323.632 82.7063C325.071 82.5641 326.602 82.4365 328.181 82.3283C329.186 82.2602 330.236 82.2251 331.304 82.2251L331.674 82.227C331.986 82.229 332.237 82.4491 332.235 82.7189C332.231 82.9877 331.936 83.1981 331.665 83.201L331.304 83.1991C330.265 83.1991 329.245 83.2332 328.271 83.2994C326.703 83.4066 325.187 83.5332 323.761 83.6744C323.738 83.6764 323.717 83.6773 323.695 83.6773Z" fill="#323339"/>
<path d="M320.721 254.312C320.712 254.312 320.704 254.312 320.696 254.312C319.349 254.26 318.013 254.18 316.723 254.073C316.412 254.047 316.185 253.809 316.215 253.541C316.245 253.273 316.519 253.077 316.832 253.103C318.102 253.209 319.418 253.288 320.746 253.338C321.058 253.349 321.3 253.577 321.286 253.846C321.271 254.107 321.022 254.312 320.721 254.312Z" fill="#323339"/>
</g>
</g>
<defs>
<clipPath id="clip0_1660_2298">
<rect width="565" height="487" fill="white"/>
</clipPath>
</defs>
</svg>
