<svg width="209" height="173" viewBox="0 0 209 173" fill="none" xmlns="http://www.w3.org/2000/svg">
<path d="M14.3921 53.382L161.673 0.333043C164.506 -0.686957 167.639 0.711042 168.772 3.50104L207.717 99.4611C210.869 107.228 206.96 116.062 199.092 118.952L57.1981 171.082C48.3061 174.349 38.3911 170.285 34.3491 161.718L0.608103 90.199C-0.946897 86.903 0.590104 82.9781 3.9681 81.6141L17.1861 76.2761L11.0711 60.71C9.9161 57.769 11.4181 54.453 14.3921 53.382Z" fill="#FFFDFF"/>
<path d="M17.1872 76.2759L3.96924 81.6139C0.590236 82.9789 -0.945765 86.9039 0.609235 90.1989L34.3502 161.718C35.8612 164.921 38.1942 167.493 40.9862 169.29C55.4352 166.68 47.0052 146.101 47.0052 146.101L17.1872 76.2759Z" fill="#D0CDD3"/>
<path d="M83.9254 77.6587L36.0757 96.9482L55.3652 144.798L103.215 125.508L83.9254 77.6587Z" fill="#81A6D9"/>
<path d="M96.3546 108.489L48.5049 127.779L55.3659 144.798L103.216 125.509L96.3546 108.489Z" fill="#BBDE95"/>
<path d="M56.7332 118.28L91.0222 95.2617L96.3492 108.474L58.8712 123.584L56.7332 118.28Z" fill="#3D5539"/>
<path d="M69.2411 119.403L44.2241 117.158L48.5011 127.765L69.2411 119.403Z" fill="#7BA859"/>
<path d="M62.1412 101.792C63.4542 105.05 61.8782 108.755 58.6212 110.069C55.3632 111.382 51.6582 109.806 50.3452 106.549C49.0322 103.291 50.6082 99.5855 53.8652 98.2725C57.1222 96.9575 60.8272 98.5335 62.1412 101.792Z" fill="#FFC672"/>
<path d="M124.372 61.353L88.9553 75.6304L90.5063 79.4777L125.923 65.2003L124.372 61.353Z" fill="#898192"/>
<path d="M127.908 70.1225L92.491 84.3999L94.0419 88.2472L129.458 73.9698L127.908 70.1225Z" fill="#898192"/>
<path d="M131.443 78.8935L96.0261 93.1709L97.5771 97.0182L132.994 82.7408L131.443 78.8935Z" fill="#898192"/>
<path d="M134.978 87.6626L99.5618 101.94L101.113 105.787L136.529 91.5098L134.978 87.6626Z" fill="#898192"/>
<path d="M138.5 96.396L103.083 110.673L104.634 114.521L140.051 100.243L138.5 96.396Z" fill="#898192"/>
<path d="M142.035 105.165L106.618 119.442L108.169 123.29L143.586 109.012L142.035 105.165Z" fill="#898192"/>
<path d="M169.285 43.247L133.868 57.5244L135.419 61.3717L170.835 47.0943L169.285 43.247Z" fill="#898192"/>
<path d="M172.82 52.0171L137.403 66.2944L138.954 70.1417L174.371 55.8643L172.82 52.0171Z" fill="#898192"/>
<path d="M176.356 60.7871L140.939 75.0645L142.49 78.9117L177.907 64.6343L176.356 60.7871Z" fill="#898192"/>
<path d="M179.892 69.5561L144.475 83.8335L146.026 87.6808L181.443 73.4034L179.892 69.5561Z" fill="#898192"/>
<path d="M183.411 78.29L147.995 92.5674L149.546 96.4146L184.962 82.1373L183.411 78.29Z" fill="#898192"/>
<path d="M186.947 87.06L151.531 101.337L153.082 105.185L188.498 90.9073L186.947 87.06Z" fill="#898192"/>
<path d="M148.637 121.544L113.22 135.821L114.771 139.669L150.187 125.391L148.637 121.544Z" fill="#898192"/>
<path d="M95.7569 142.862L60.3403 157.139L61.8913 160.986L97.3078 146.709L95.7569 142.862Z" fill="#898192"/>
<path d="M164.683 31.8338L31.4741 85.5337L33.0251 89.381L166.234 35.6811L164.683 31.8338Z" fill="#898192"/>
<path d="M193.55 103.436L158.133 117.713L159.684 121.561L195.101 107.283L193.55 103.436Z" fill="#898192"/>
<path d="M29.5553 75.7119L23.6524 61.0691L26.4554 59.9391L39.3448 66.9992L37.9851 67.5473L33.735 57.0045L37.082 55.6552L42.9849 70.2981L40.2027 71.4196L27.2924 64.3679L28.6521 63.8198L32.9022 74.3627L29.5553 75.7119ZM46.0413 58.9011L53.0908 56.0593L54.1533 58.695L47.1038 61.5368L46.0413 58.9011ZM48.7209 64.8244L56.6908 61.6115L57.7871 64.3309L46.4493 68.9015L40.5464 54.2586L51.6122 49.7977L52.7085 52.5171L45.0105 55.6203L48.7209 64.8244ZM63.7934 61.9096L53.1002 49.1978L56.6145 47.7811L66.0055 59.0724L64.2484 59.7808L63.3711 45.0574L66.5089 43.7925L75.9209 55.0753L74.2265 55.7583L73.2655 41.0687L76.5079 39.7616L77.6205 56.3356L73.9807 57.8029L65.6907 47.9159L66.653 47.528L67.4332 60.4423L63.7934 61.9096ZM89.215 51.9533C88.0436 52.4255 86.8591 52.7247 85.6616 52.8508C84.4585 52.9629 83.428 52.9001 82.5702 52.6623L82.6919 49.6464C83.4994 49.8397 84.3875 49.9113 85.3562 49.8612C86.3333 49.7916 87.2611 49.5797 88.1397 49.2255C88.8091 48.9556 89.3207 48.6764 89.6745 48.3879C90.0366 48.0798 90.2675 47.7678 90.3672 47.4521C90.4669 47.1363 90.4549 46.825 90.3312 46.5182C90.1738 46.1277 89.8967 45.8827 89.4999 45.7833C89.0976 45.6699 88.6173 45.6447 88.059 45.7076C87.4951 45.7566 86.8811 45.842 86.2169 45.9639C85.561 46.0661 84.8869 46.1433 84.1946 46.1955C83.5162 46.242 82.8642 46.213 82.2385 46.1086C81.6127 46.0042 81.0383 45.7656 80.5152 45.3929C80.006 45.0145 79.594 44.4348 79.2792 43.6539C78.9418 42.8172 78.8586 41.9672 79.0294 41.1039C79.2085 40.2211 79.6698 39.3948 80.4132 38.625C81.1649 37.8356 82.2311 37.1626 83.6117 36.606C84.5321 36.235 85.4836 35.9811 86.466 35.8445C87.4429 35.6938 88.3601 35.697 89.2177 35.8538L89.209 38.8484C88.3683 38.7334 87.5697 38.723 86.8133 38.8172C86.0513 38.8974 85.3425 39.0696 84.6871 39.3338C84.0316 39.5981 83.5256 39.8912 83.1691 40.2133C82.8126 40.5353 82.5943 40.8584 82.5142 41.1825C82.4285 41.4927 82.4502 41.8081 82.5795 42.1289C82.7313 42.5054 83.0084 42.7504 83.4108 42.8638C83.8075 42.9632 84.2851 42.9815 84.8433 42.9185C85.4016 42.8556 86.0086 42.773 86.6645 42.6707C87.3343 42.5628 88.0056 42.4786 88.6784 42.4182C89.3651 42.3521 90.0213 42.3713 90.647 42.4757C91.2727 42.5801 91.8402 42.8215 92.3493 43.1999C92.8725 43.5726 93.2887 44.1425 93.5979 44.9095C93.9295 45.7323 94.003 46.5781 93.8183 47.447C93.6336 48.3158 93.1653 49.1449 92.4136 49.9344C91.6757 50.7181 90.6096 51.3911 89.215 51.9533Z" fill="#898192"/>
</svg>
