<svg viewBox="0 0 500 500" fill="none" xmlns="http://www.w3.org/2000/svg">
<path d="M500 382.398H0V382.648H500V382.398Z" fill="#222128"/>
<path d="M449.901 398.494H416.779V398.744H449.901V398.494Z" fill="#222128"/>
<path d="M331.22 401.208H322.527V401.458H331.22V401.208Z" fill="#222128"/>
<path d="M415.778 389.208H396.586V389.458H415.778V389.208Z" fill="#222128"/>
<path d="M95.652 390.888H52.459V391.138H95.652V390.888Z" fill="#222128"/>
<path d="M110.889 390.888H104.556V391.138H110.889V390.888Z" fill="#222128"/>
<path d="M225.147 395.111H131.471V395.361H225.147V395.111Z" fill="#222128"/>
<path d="M237.014 337.8H43.915C40.768 337.8 38.207 335.239 38.207 332.092V60.6601C38.207 57.5131 40.768 54.9521 43.915 54.9521H237.014C240.16 54.9521 242.721 57.5131 242.721 60.6601V332.092C242.721 335.239 240.16 337.8 237.014 337.8ZM43.915 55.2031C40.905 55.2031 38.457 57.6511 38.457 60.6611V332.093C38.457 335.103 40.905 337.551 43.915 337.551H237.014C240.023 337.551 242.471 335.103 242.471 332.093V60.6601C242.471 57.6511 240.023 55.2021 237.014 55.2021L43.915 55.2031Z" fill="#222128"/>
<path d="M453.31 337.8H260.212C257.065 337.8 254.505 335.239 254.505 332.092V60.6601C254.505 57.5131 257.066 54.9521 260.212 54.9521H453.31C456.458 54.9521 459.018 57.5131 459.018 60.6601V332.092C459.019 335.239 456.458 337.8 453.31 337.8ZM260.212 55.2031C257.203 55.2031 254.755 57.6511 254.755 60.6611V332.093C254.755 335.103 257.203 337.551 260.212 337.551H453.31C456.32 337.551 458.768 335.103 458.768 332.093V60.6601C458.768 57.6511 456.32 55.2021 453.31 55.2021L260.212 55.2031Z" fill="#222128"/>
<path d="M289.69 174.059L427.471 174.059V83.8316L289.69 83.8316V174.059Z" fill="#16161B"/>
<path d="M285.487 174.059L425.507 174.059V83.8316L285.487 83.8316V174.059Z" fill="#222128"/>
<path d="M289.69 191.766L427.471 191.766V174.058L289.69 174.058V191.766Z" fill="#16161B"/>
<path d="M278.483 191.766L418.503 191.766V174.058L278.483 174.058V191.766Z" fill="#222128"/>
<path d="M419.622 168.173V89.7173L291.373 89.7173V168.173L419.622 168.173Z" fill="#16161B"/>
<path d="M390.702 168.174L374.322 89.7183H348.761L365.141 168.174H390.702Z" fill="#111115"/>
<path d="M416.897 162.315C417.129 162.315 417.318 162.127 417.318 161.895V93.5474C417.318 93.3154 417.13 93.1274 416.897 93.1274C416.665 93.1274 416.476 93.3154 416.476 93.5474V161.895C416.476 162.127 416.665 162.315 416.897 162.315Z" fill="#222128"/>
<path d="M359.65 168.174L343.27 89.7183H333.304L349.685 168.174H359.65Z" fill="#16161B"/>
<path d="M292.12 168.173V89.7173H291.373V168.173H292.12Z" fill="#16161B"/>
<path opacity="0.6" d="M284.095 98.5914H421.876L422.417 92.0054H284.636L284.095 98.5914Z" fill="#222128"/>
<path opacity="0.6" d="M284.095 109.393H421.876L422.417 102.807H284.636L284.095 109.393Z" fill="#222128"/>
<path opacity="0.6" d="M284.095 120.195H421.876L422.417 113.609H284.636L284.095 120.195Z" fill="#222128"/>
<path opacity="0.6" d="M284.095 130.997H421.876L422.417 124.411H284.636L284.095 130.997Z" fill="#222128"/>
<path opacity="0.6" d="M284.095 141.799H421.876L422.417 135.213H284.636L284.095 141.799Z" fill="#222128"/>
<path opacity="0.6" d="M284.095 152.601H421.876L422.417 146.015H284.636L284.095 152.601Z" fill="#222128"/>
<path d="M407.689 316.781H378.8V322.477H407.689V316.781Z" fill="#16161B"/>
<path d="M324.309 382.399H329.642V251.334H324.309V382.399Z" fill="#16161B"/>
<path d="M305.836 322.478H378.799V316.782H305.836V322.478Z" fill="#16161B"/>
<path d="M407.689 347.948H378.8V353.644H407.689V347.948Z" fill="#16161B"/>
<path d="M305.836 353.644H378.799V347.948H305.836V353.644Z" fill="#16161B"/>
<path d="M407.689 254.448H378.8V260.144H407.689V254.448Z" fill="#16161B"/>
<path d="M305.836 260.144H378.799V254.448H305.836V260.144Z" fill="#16161B"/>
<path d="M407.689 285.615H378.8V291.311H407.689V285.615Z" fill="#16161B"/>
<path d="M305.836 291.31H378.799V285.614H305.836V291.31Z" fill="#16161B"/>
<path d="M397.271 382.399H402.604V251.334H397.271V382.399Z" fill="#16161B"/>
<path d="M373.466 382.399H378.799V251.334H373.466V382.399Z" fill="#16161B"/>
<path d="M305.836 382.399H311.169V251.334H305.836V382.399Z" fill="#16161B"/>
<path d="M65.3732 382.399H119.951L119.951 276.507H65.3732L65.3732 382.399Z" fill="#16161B"/>
<path d="M79.948 382.399H65.374V367.781H95.228L79.948 382.399Z" fill="#16161B"/>
<path d="M214.183 382.399H268.761V276.507H214.183V382.399Z" fill="#16161B"/>
<path d="M65.3734 377.368H226.902V276.507H65.3734V377.368Z" fill="#222128"/>
<path d="M212.329 382.399H226.903V367.781H197.048L212.329 382.399Z" fill="#16161B"/>
<path d="M76.6787 339.332H215.596V314.091H76.6787V339.332Z" fill="#222128"/>
<path d="M76.6787 369.967H215.596V344.726H76.6787V369.967Z" fill="#222128"/>
<path d="M103.084 316.79H189.192C191.719 316.79 193.768 314.741 193.768 312.213V311.905H98.5078V312.213C98.5078 314.741 100.557 316.79 103.084 316.79Z" fill="#16161B"/>
<path d="M76.6787 308.696H215.596V283.455H76.6787V308.696Z" fill="#222128"/>
<path d="M103.084 286.154H189.192C191.719 286.154 193.768 284.105 193.768 281.577V281.269H98.5078V281.577C98.5078 284.105 100.557 286.154 103.084 286.154Z" fill="#16161B"/>
<path d="M103.084 347.425H189.192C191.719 347.425 193.768 345.376 193.768 342.849V342.541H98.5078V342.849C98.5078 345.376 100.557 347.425 103.084 347.425Z" fill="#16161B"/>
<path d="M74.0676 174.059L211.849 174.059V83.8316L74.0676 83.8316V174.059Z" fill="#16161B"/>
<path d="M69.8648 174.059L209.885 174.059V83.8316L69.8648 83.8316V174.059Z" fill="#222128"/>
<path d="M74.0676 191.766L211.849 191.766V174.058L74.0676 174.058V191.766Z" fill="#E6E6E6"/>
<path d="M62.8599 191.766L202.88 191.766V174.058L62.8599 174.058V191.766Z" fill="#222128"/>
<path d="M203.999 168.174L203.999 89.7183L75.75 89.7183L75.75 168.174L203.999 168.174Z" fill="#16161B"/>
<path d="M175.08 168.174L158.699 89.7183H133.138L149.519 168.174H175.08Z" fill="#121216"/>
<path d="M201.274 162.315C201.506 162.315 201.694 162.127 201.694 161.895V93.5474C201.694 93.3154 201.506 93.1274 201.274 93.1274C201.042 93.1274 200.853 93.3154 200.853 93.5474V161.895C200.854 162.127 201.042 162.315 201.274 162.315Z" fill="#222128"/>
<path d="M144.028 168.174L127.647 89.7183H117.682L134.063 168.174H144.028Z" fill="#121216"/>
<path d="M76.4971 168.174L76.4971 89.7183H75.7501L75.7501 168.174H76.4971Z" fill="#08080A"/>
<path opacity="0.6" d="M68.4717 98.5914H206.253L206.795 92.0054H69.0137L68.4717 98.5914Z" fill="#222128"/>
<path opacity="0.6" d="M68.4717 102.307H206.253L206.795 95.7202H69.0137L68.4717 102.307Z" fill="#222128"/>
<path opacity="0.6" d="M68.4717 106.023H206.253L206.795 99.4365H69.0137L68.4717 106.023Z" fill="#222128"/>
<path opacity="0.6" d="M68.4717 109.738H206.253L206.795 103.151H69.0137L68.4717 109.738Z" fill="#222128"/>
<path opacity="0.6" d="M68.4717 113.453H206.253L206.795 106.867H69.0137L68.4717 113.453Z" fill="#222128"/>
<path opacity="0.6" d="M68.4717 117.169H206.253L206.795 110.583H69.0137L68.4717 117.169Z" fill="#222128"/>
<path d="M96.0143 273.271H100.777V220.179H96.0143V273.271Z" fill="#323339"/>
<path d="M96.6267 273.234H97.9717V220.142H96.6267V273.234Z" fill="#222128"/>
<path d="M98.5355 273.234H99.0625V220.142H98.5355V273.234Z" fill="#407BFF"/>
<path d="M80.7637 276.507H116.028C116.028 274.053 114.039 272.064 111.585 272.064H85.2067C82.7527 272.064 80.7637 274.053 80.7637 276.507Z" fill="#16161B"/>
<path d="M89.8348 253.138C90.5888 253.138 91.2048 252.521 91.2048 251.768V216.958C91.2048 216.205 90.5878 215.588 89.8348 215.588C89.0808 215.588 88.4648 216.205 88.4648 216.958V251.768C88.4648 252.522 89.0808 253.138 89.8348 253.138Z" fill="#222128"/>
<path d="M77.0742 232.799H119.716L114.811 203H81.9792L77.0742 232.799Z" fill="#16161B"/>
<path d="M250 427.561C357.082 427.561 443.889 422.492 443.889 416.238C443.889 409.985 357.082 404.915 250 404.915C142.918 404.915 56.1113 409.985 56.1113 416.238C56.1113 422.492 142.918 427.561 250 427.561Z" fill="#28292E"/>
<path d="M104.108 202.36L103.11 202.432L104.438 220.873L105.435 220.801L104.108 202.36Z" fill="#407BFF"/>
<path d="M106.139 230.316L105.142 230.388L105.642 237.325L106.639 237.253L106.139 230.316Z" fill="#407BFF"/>
<path d="M337.711 315.161H123.553C118.709 315.161 114.461 311.198 114.112 306.354L103.589 160.224C103.24 155.38 106.918 151.417 111.762 151.417H325.92C330.764 151.417 335.012 155.38 335.361 160.224L345.884 306.354C346.232 311.198 342.555 315.161 337.711 315.161Z" fill="#407BFF"/>
<path d="M338.532 315.161H124.374C119.53 315.161 115.282 311.198 114.933 306.354L104.41 160.224C104.061 155.38 107.739 151.417 112.583 151.417H326.741C331.585 151.417 335.833 155.38 336.182 160.224L346.705 306.354C347.053 311.198 343.376 315.161 338.532 315.161Z" fill="#407BFF"/>
<path opacity="0.5" d="M338.532 315.161H124.374C119.53 315.161 115.282 311.198 114.933 306.354L104.41 160.224C104.061 155.38 107.739 151.417 112.583 151.417H326.741C331.585 151.417 335.833 155.38 336.182 160.224L346.705 306.354C347.053 311.198 343.376 315.161 338.532 315.161Z" fill="#16161B"/>
<path d="M327.058 155.821H112.9C112.658 155.821 112.419 155.831 112.183 155.85C106.709 156.301 107.827 164.628 113.352 164.628H327.875C333.4 164.628 333.319 156.301 327.78 155.85C327.541 155.831 327.3 155.821 327.058 155.821Z" fill="#407BFF"/>
<path d="M118.478 160.225C118.558 161.34 117.72 162.244 116.604 162.244C115.489 162.244 114.52 161.34 114.44 160.225C114.36 159.11 115.198 158.206 116.314 158.206C117.43 158.206 118.398 159.109 118.478 160.225Z" fill="#FAFAFA"/>
<path d="M125.346 160.225C125.426 161.34 124.588 162.244 123.472 162.244C122.357 162.244 121.388 161.34 121.308 160.225C121.228 159.11 122.066 158.206 123.182 158.206C124.297 158.206 125.266 159.109 125.346 160.225Z" fill="#FAFAFA"/>
<path d="M132.213 160.225C132.293 161.34 131.454 162.244 130.339 162.244C129.224 162.244 128.255 161.34 128.174 160.225C128.094 159.11 128.933 158.206 130.048 158.206C131.163 158.206 132.132 159.109 132.213 160.225Z" fill="#FAFAFA"/>
<path d="M332.854 300.577H127.951C126.188 300.577 124.655 299.147 124.528 297.384L115.874 177.211C115.747 175.448 117.074 174.018 118.837 174.018H323.74C325.503 174.018 327.036 175.447 327.163 177.211L335.817 297.384C335.944 299.147 334.617 300.577 332.854 300.577Z" fill="#16161B"/>
<path d="M246.53 254.798L243.195 208.479L233.087 202.395H205.283L209.057 254.798H246.53Z" fill="#16161B"/>
<path d="M246.53 255.283H209.057C208.803 255.283 208.592 255.087 208.574 254.833L204.8 202.43C204.79 202.296 204.837 202.163 204.929 202.065C205.021 201.966 205.149 201.911 205.284 201.911H233.088C233.176 201.911 233.263 201.935 233.338 201.981L243.445 208.064C243.58 208.145 243.667 208.287 243.678 208.444L247.013 254.763C247.023 254.897 246.976 255.03 246.884 255.128C246.793 255.227 246.664 255.283 246.53 255.283ZM209.508 254.314H246.009L242.729 208.765L232.953 202.88H205.804L209.508 254.314Z" fill="#407BFF"/>
<path d="M243.195 208.479L233.087 202.395L236.798 210.455L243.195 208.479Z" fill="#222128"/>
<path d="M236.798 210.939C236.613 210.939 236.439 210.832 236.358 210.657L232.647 202.598C232.558 202.405 232.605 202.176 232.764 202.034C232.922 201.892 233.155 201.871 233.337 201.98L243.444 208.064C243.608 208.162 243.698 208.348 243.675 208.538C243.652 208.728 243.52 208.886 243.337 208.942L236.941 210.918C236.894 210.932 236.846 210.939 236.798 210.939ZM234.186 203.622L237.061 209.866L242.017 208.335L234.186 203.622Z" fill="#407BFF"/>
<path d="M220.969 226.005C221.053 227.174 220.174 228.122 219.004 228.122C217.834 228.122 216.819 227.174 216.735 226.005C216.651 224.836 217.53 223.888 218.699 223.888C219.868 223.888 220.885 224.836 220.969 226.005Z" fill="#407BFF"/>
<path d="M234.705 226.005C234.789 227.174 233.91 228.122 232.74 228.122C231.571 228.122 230.555 227.174 230.47 226.005C230.386 224.836 231.265 223.888 232.435 223.888C233.605 223.889 234.621 224.836 234.705 226.005Z" fill="#407BFF"/>
<path d="M238.58 239.735C238.328 239.735 238.116 239.54 238.097 239.285C237.852 235.881 232.514 233.112 226.197 233.112C222.012 233.112 218.255 234.356 216.391 236.359C215.562 237.25 215.179 238.21 215.251 239.215C215.27 239.482 215.069 239.714 214.802 239.733C214.534 239.75 214.303 239.551 214.284 239.284C214.193 238.018 214.676 236.778 215.681 235.698C217.722 233.504 221.751 232.142 226.197 232.142C233.126 232.142 238.778 235.249 239.064 239.214C239.083 239.481 238.882 239.713 238.615 239.732C238.603 239.735 238.591 239.735 238.58 239.735Z" fill="#407BFF"/>
<path d="M213.167 221.717C213.049 221.717 212.931 221.674 212.837 221.588C212.641 221.406 212.629 221.099 212.811 220.903L214.935 218.615C215.117 218.418 215.424 218.408 215.62 218.589C215.816 218.771 215.827 219.078 215.646 219.274L213.523 221.562C213.427 221.665 213.297 221.717 213.167 221.717Z" fill="#407BFF"/>
<path d="M237.585 221.717C237.467 221.717 237.348 221.674 237.254 221.587L234.801 219.299C234.605 219.117 234.595 218.81 234.777 218.614C234.959 218.418 235.266 218.408 235.462 218.59L237.915 220.878C238.111 221.06 238.121 221.367 237.939 221.563C237.844 221.665 237.715 221.717 237.585 221.717Z" fill="#407BFF"/>
<path d="M202.257 265.153H204.517L207.778 269.487L207.466 265.153H209.747L210.311 272.986H208.029L204.786 268.685L205.096 272.986H202.82L202.257 265.153Z" fill="#407BFF"/>
<path d="M211.334 269.074C211.242 267.795 211.526 266.8 212.188 266.087C212.849 265.375 213.816 265.018 215.087 265.018C216.391 265.018 217.42 265.368 218.176 266.068C218.932 266.768 219.355 267.748 219.446 269.009C219.512 269.924 219.412 270.675 219.146 271.261C218.88 271.847 218.468 272.303 217.909 272.629C217.35 272.955 216.636 273.118 215.767 273.118C214.884 273.118 214.142 272.977 213.543 272.696C212.944 272.415 212.443 271.969 212.039 271.36C211.635 270.752 211.4 269.99 211.334 269.074ZM213.755 269.085C213.812 269.876 214 270.444 214.318 270.789C214.637 271.135 215.049 271.307 215.555 271.307C216.075 271.307 216.465 271.138 216.726 270.799C216.987 270.461 217.085 269.853 217.022 268.977C216.969 268.24 216.781 267.701 216.459 267.361C216.137 267.021 215.721 266.851 215.212 266.851C214.724 266.851 214.345 267.024 214.074 267.369C213.804 267.716 213.698 268.287 213.755 269.085Z" fill="#407BFF"/>
<path d="M224.151 265.153H227.747C228.456 265.153 229.035 265.249 229.486 265.441C229.936 265.633 230.317 265.909 230.628 266.269C230.939 266.629 231.176 267.047 231.338 267.525C231.501 268.002 231.601 268.508 231.64 269.042C231.7 269.879 231.652 270.528 231.494 270.99C231.337 271.451 231.1 271.838 230.784 272.149C230.468 272.461 230.12 272.668 229.739 272.771C229.219 272.914 228.743 272.985 228.312 272.985H224.716L224.151 265.153ZM226.699 266.927L227.007 271.207H227.6C228.106 271.207 228.461 271.151 228.667 271.039C228.873 270.927 229.026 270.731 229.127 270.451C229.228 270.171 229.256 269.718 229.211 269.091C229.151 268.261 228.975 267.693 228.682 267.387C228.389 267.081 227.929 266.928 227.302 266.928H226.699V266.927Z" fill="#407BFF"/>
<path d="M237.447 271.692H234.699L234.41 272.985H231.939L234.319 265.152H236.959L240.466 272.985H237.931L237.447 271.692ZM236.823 269.999L235.755 267.183L235.102 269.999H236.823Z" fill="#407BFF"/>
<path d="M239.369 265.153H246.726L246.865 267.087H244.397L244.822 272.986H242.402L241.977 267.087H239.509L239.369 265.153Z" fill="#407BFF"/>
<path d="M252.364 271.692H249.616L249.327 272.985H246.856L249.236 265.152H251.876L255.383 272.985H252.848L252.364 271.692ZM251.74 269.999L250.673 267.183L250.02 269.999H251.74Z" fill="#407BFF"/>
<path d="M353.688 173.08C354.582 172.632 355.647 172.053 356.632 171.512C357.635 170.961 358.633 170.386 359.615 169.788C361.574 168.582 363.549 167.39 365.423 166.066C369.205 163.461 372.748 160.57 375.936 157.413C376.354 157.031 376.709 156.607 377.095 156.203L377.665 155.591L377.951 155.285L378.094 155.132C378.132 155.092 378.123 155.1 378.105 155.124L378.073 155.173C377.931 155.44 378.049 155.359 378.104 155.101C378.171 154.853 378.227 154.448 378.245 154.01C378.309 152.194 377.951 149.905 377.516 147.692C376.626 143.207 375.279 138.594 373.947 134.074L377.831 132.37C380.265 136.716 382.293 141.155 383.944 145.968C384.73 148.406 385.452 150.854 385.663 153.861C385.702 154.627 385.719 155.432 385.58 156.371C385.433 157.295 385.2 158.401 384.357 159.655L384.19 159.886L384.061 160.054L383.908 160.242L383.599 160.616L382.982 161.366C382.565 161.86 382.17 162.381 381.727 162.844C378.279 166.673 374.442 170.055 370.347 172.996C368.309 174.485 366.227 175.899 364.064 177.186C362.987 177.838 361.896 178.464 360.787 179.071C359.664 179.695 358.596 180.238 357.32 180.837L353.688 173.08Z" fill="#FFB573"/>
<path d="M344.795 408.178C345.569 408.178 346.415 408.018 347.006 407.878C347.083 407.86 347.142 407.798 347.156 407.719C347.17 407.641 347.136 407.562 347.07 407.519C346.783 407.33 344.24 405.689 343.265 406.13C343.111 406.2 342.918 406.353 342.87 406.688C342.807 407.132 342.918 407.486 343.199 407.742C343.556 408.068 344.151 408.178 344.795 408.178ZM346.445 407.595C344.987 407.886 343.89 407.836 343.466 407.449C343.286 407.285 343.219 407.054 343.263 406.743C343.286 406.576 343.364 406.521 343.428 406.492C343.941 406.26 345.408 406.968 346.445 407.595Z" fill="#407BFF"/>
<path d="M346.96 407.884C346.994 407.884 347.029 407.875 347.06 407.857C347.121 407.821 347.159 407.756 347.159 407.685C347.159 407.583 347.148 405.171 346.237 404.365C345.995 404.151 345.713 404.062 345.397 404.1C344.9 404.16 344.766 404.473 344.729 404.653C344.54 405.597 346.063 407.404 346.862 407.857C346.892 407.875 346.926 407.884 346.96 407.884ZM345.535 404.488C345.698 404.488 345.842 404.545 345.974 404.662C346.518 405.143 346.704 406.497 346.75 407.3C345.953 406.664 345.004 405.306 345.119 404.731C345.138 404.637 345.192 404.525 345.445 404.494C345.475 404.49 345.505 404.488 345.535 404.488Z" fill="#407BFF"/>
<path d="M346.223 148.067C345.249 153.037 343.195 163.104 346.673 166.421C346.673 166.421 345.314 171.463 336.079 171.463C325.924 171.463 331.226 166.422 331.226 166.422C336.769 165.098 336.626 160.986 335.66 157.124L346.223 148.067Z" fill="#FFB573"/>
<path d="M329.284 168.424C327.69 168.64 329.046 164.511 329.694 164.083C331.19 163.094 350.545 161.694 350.419 164.043C350.339 165.054 349.864 167.027 349.018 167.697C348.171 168.367 343.199 166.342 329.284 168.424Z" fill="#263238"/>
<path d="M332.437 167.034C331.171 167.462 331.291 163.301 331.722 162.8C332.72 161.642 348.386 157.617 348.851 159.894C349.03 160.877 349.116 162.841 348.579 163.604C348.042 164.366 343.439 163.105 332.437 167.034Z" fill="#263238"/>
<path d="M326.61 139.108C326.487 139.115 326.363 139.066 326.279 138.963C325.159 137.593 323.703 137.733 323.689 137.735C323.468 137.758 323.275 137.601 323.252 137.383C323.228 137.165 323.386 136.969 323.604 136.946C323.681 136.938 325.504 136.761 326.894 138.46C327.033 138.63 327.008 138.88 326.838 139.018C326.771 139.074 326.691 139.103 326.61 139.108Z" fill="#263238"/>
<path d="M324.672 144.001C324.672 144.001 323.816 147.008 322.697 148.528C323.666 149.269 325.138 148.742 325.138 148.742L324.672 144.001Z" fill="#FF5652"/>
<path d="M325.161 142.786C325.227 143.458 324.924 144.038 324.485 144.082C324.045 144.125 323.636 143.615 323.569 142.943C323.503 142.271 323.806 141.691 324.245 141.647C324.685 141.604 325.095 142.114 325.161 142.786Z" fill="#263238"/>
<path d="M324.443 141.665L322.782 141.358C322.782 141.358 323.735 142.539 324.443 141.665Z" fill="#263238"/>
<path d="M356.7 407.685H348.324L348.981 388.288H357.357L356.7 407.685Z" fill="#FFB573"/>
<path d="M347.662 406.716H357.072C357.414 406.716 357.692 406.954 357.74 407.288L358.812 414.733C358.923 415.505 358.259 416.236 357.469 416.223C354.188 416.167 352.607 415.974 348.469 415.974C345.923 415.974 342.203 416.238 338.688 416.238C335.249 416.238 334.985 412.761 336.449 412.447C343.013 411.035 344.05 409.088 346.262 407.231C346.66 406.896 347.161 406.716 347.662 406.716Z" fill="#263238"/>
<g opacity="0.2">
<path d="M357.36 388.293H348.98L348.646 398.292H357.026L357.36 388.293Z" fill="black"/>
</g>
<path d="M323.374 178.044C318.191 176.015 313.247 173.808 308.324 171.29C303.409 168.775 298.57 166.096 293.92 162.517C292.762 161.606 291.617 160.61 290.498 159.447C290.219 159.147 289.94 158.869 289.666 158.525C289.378 158.163 289.161 157.95 288.787 157.394C288.111 156.422 287.588 155.117 287.449 153.785C287.318 152.452 287.557 151.179 287.94 150.164C288.322 149.131 288.823 148.288 289.347 147.557C290.398 146.093 291.563 145.011 292.736 144.037C295.079 142.098 297.557 140.688 300.039 139.37C301.279 138.712 302.543 138.119 303.823 137.573C305.109 137.018 306.364 136.502 307.729 136.032L309.504 139.885C305.142 142.634 300.624 145.656 297.302 149.044C296.495 149.883 295.789 150.761 295.345 151.534C294.869 152.321 294.875 152.91 294.956 152.865C294.997 152.865 294.981 152.847 295.097 152.963L295.495 153.39C295.645 153.569 295.856 153.752 296.045 153.936C296.83 154.669 297.751 155.405 298.744 156.105C300.729 157.518 302.916 158.84 305.178 160.075C307.432 161.327 309.751 162.525 312.113 163.662C316.825 165.919 321.711 168.091 326.505 170.075L323.374 178.044Z" fill="#FFB573"/>
<path d="M311.969 137.154L313.354 134.15L307.058 131.964C307.058 131.964 305.097 137.867 307.434 140.591C309.424 140.272 311.125 138.984 311.969 137.154Z" fill="#FFB573"/>
<path d="M313.355 127.656L308.322 126.205L307.059 131.963L313.355 134.15V127.656Z" fill="#FFB573"/>
<path d="M378.35 134.441L379.084 127.421L372.596 128.946C372.596 128.946 372.501 135.526 375.933 136.575L378.35 134.441Z" fill="#FFB573"/>
<path d="M375.958 122.507L371.731 124.481L372.595 128.946L379.083 127.421L375.958 122.507Z" fill="#FFB573"/>
<path d="M347.54 138.255C347.845 146.562 348.152 150.072 344.398 154.721C338.752 161.713 328.481 160.271 325.7 152.222C323.197 144.977 323.118 132.609 330.878 128.527C338.523 124.507 347.235 129.947 347.54 138.255Z" fill="#FFB573"/>
<path d="M343.921 154.705C352.076 151.181 357.44 143.75 355.176 132.131C353.01 121.015 345.505 119.917 342.405 122.223C339.305 124.529 331.578 121.092 326.941 124.994C318.906 131.755 326.502 139.044 330.459 143.363C332.823 148.221 335.919 158.163 343.921 154.705Z" fill="#263238"/>
<path d="M340.535 130.137C343.287 134.122 348.565 135.247 352.325 132.65C356.085 130.054 356.902 124.719 354.15 120.734C351.398 116.749 346.12 115.624 342.36 118.221C338.6 120.817 337.783 126.152 340.535 130.137Z" fill="#407BFF"/>
<path d="M342.652 123.002C341.475 116.304 347.813 111.139 356.288 113.635C364.763 116.131 360.28 123.644 358.542 129.644C356.804 135.644 361.365 141.359 363.271 136.789C365.177 132.22 361.973 130.809 361.973 130.809C361.973 130.809 370.972 133.142 362.612 143.286C354.252 153.431 346.684 142.229 348.731 135.618C350.385 130.276 343.765 129.333 342.652 123.002Z" fill="#263238"/>
<path d="M334.181 125.533C330.312 123.515 323.76 121.883 320.031 128.156C318.268 131.122 318.951 135.145 318.951 135.145L330.34 135.903L334.181 125.533Z" fill="#263238"/>
<path d="M317.612 133.178C317.607 133.178 317.602 133.178 317.596 133.177C317.458 133.169 317.354 133.05 317.362 132.912C317.372 132.742 317.648 128.719 320.076 126.195C325.945 120.097 332.826 125.155 334.795 126.851C334.9 126.941 334.912 127.099 334.821 127.204C334.73 127.309 334.573 127.32 334.468 127.23C332.583 125.607 326.001 120.76 320.436 126.542C318.137 128.931 317.863 132.903 317.86 132.943C317.853 133.075 317.743 133.178 317.612 133.178Z" fill="#263238"/>
<path d="M331.853 143.033C331.841 144.651 331.116 146.235 330.198 147.31C328.816 148.926 327.232 148.13 326.869 146.338C326.542 144.725 326.866 141.941 328.613 140.965C330.333 140.004 331.867 141.183 331.853 143.033Z" fill="#FFB573"/>
<path d="M330.054 219.122C330.054 219.122 330.588 277.266 335.632 309.667C339.706 335.837 347.245 396.356 347.245 396.356H358.667C358.667 396.356 359.783 337.932 357.715 312.048C352.482 246.55 365.986 234.305 355.089 219.122H330.054Z" fill="#263238"/>
<path opacity="0.1" d="M330.054 219.122C330.054 219.122 330.588 277.266 335.632 309.667C339.706 335.837 347.245 396.356 347.245 396.356H358.667C358.667 396.356 359.783 337.932 357.715 312.048C352.482 246.55 365.986 234.305 355.089 219.122H330.054Z" fill="#16161B"/>
<path opacity="0.3" d="M336.057 245.5C340.067 263.05 336.867 290.69 334.677 302.86C332.357 284.38 331.187 260.43 330.607 242.88C332.677 239.52 334.637 239.3 336.057 245.5Z" fill="black"/>
<path d="M345.682 396.582H360.231L360.995 391.478L345.599 390.957L345.682 396.582Z" fill="#407BFF"/>
<path d="M349.833 170.042C351.201 167.321 358.558 165.609 362.579 165.615L365.589 178.98C365.589 178.98 357.577 190.87 354.246 189.609C350.31 188.122 346.901 175.872 349.833 170.042Z" fill="#407BFF"/>
<path opacity="0.4" d="M349.833 170.042C351.201 167.321 358.558 165.609 362.579 165.615L365.589 178.98C365.589 178.98 357.577 190.87 354.246 189.609C350.31 188.122 346.901 175.872 349.833 170.042Z" fill="black"/>
<path d="M341.354 393.313C341.39 393.254 341.393 393.179 341.36 393.117C341.321 393.043 341.239 393.001 341.155 393.014C340.735 393.077 337.033 393.665 336.533 394.722C336.436 394.927 336.45 395.143 336.572 395.347C336.776 395.688 337.065 395.88 337.43 395.917C338.643 396.042 340.395 394.359 341.331 393.345C341.339 393.334 341.347 393.324 341.354 393.313ZM336.913 394.85C337.255 394.289 339.169 393.772 340.63 393.503C339.311 394.844 338.149 395.591 337.469 395.521C337.231 395.496 337.049 395.372 336.911 395.142C336.857 395.052 336.851 394.975 336.891 394.891C336.898 394.877 336.905 394.863 336.913 394.85Z" fill="#407BFF"/>
<path d="M341.353 393.313C341.361 393.301 341.367 393.287 341.371 393.273C341.394 393.207 341.379 393.133 341.334 393.08C341.271 393.007 339.788 391.298 338.421 391.209C338.002 391.182 337.636 391.306 337.331 391.579C336.92 391.947 336.955 392.267 337.058 392.47C337.491 393.328 340.151 393.627 341.224 393.404C341.278 393.392 341.324 393.359 341.353 393.313ZM337.438 392.054C337.469 392.003 337.519 391.943 337.596 391.874C337.821 391.672 338.083 391.584 338.395 391.605C339.293 391.664 340.314 392.593 340.778 393.066C339.593 393.166 337.672 392.806 337.412 392.291C337.397 392.26 337.358 392.184 337.438 392.054Z" fill="#407BFF"/>
<path d="M350.083 389.765L342.422 393.168L339.008 386.063L334.547 376.759L334.024 375.677L341.676 372.269L342.268 373.487L346.593 382.497L350.083 389.765Z" fill="#FFB573"/>
<path opacity="0.2" d="M346.593 382.497L339.008 386.063L334.547 376.759L342.268 373.487L346.593 382.497Z" fill="black"/>
<path d="M321.069 219.122C321.069 219.122 296.595 279.957 303.229 308.604C309.224 334.494 335.733 383.525 335.733 383.525L345.983 378.38C345.983 378.38 329.595 319.192 327.817 306.334C324.358 281.316 346.593 246.001 346.593 219.122H321.069Z" fill="#263238"/>
<path opacity="0.1" d="M321.069 219.122C321.069 219.122 296.595 279.957 303.229 308.604C309.224 334.494 335.733 383.525 335.733 383.525L345.983 378.38C345.983 378.38 329.595 319.192 327.817 306.334C324.358 281.316 346.593 246.001 346.593 219.122H321.069Z" fill="#16161B"/>
<path d="M341.056 392.103L348.664 386.565C348.941 386.363 349.306 386.392 349.541 386.634L354.789 392.023C355.333 392.582 355.226 393.564 354.58 394.018C351.894 395.903 350.502 396.678 347.157 399.113C345.098 400.611 340.996 403.924 338.154 405.993C335.374 408.016 333.114 405.361 334.113 404.245C338.59 399.241 339.533 396.146 340.228 393.343C340.353 392.838 340.651 392.398 341.056 392.103Z" fill="#263238"/>
<path d="M335.073 385.694L348.304 379.642L346.606 374.251L332.438 380.713L335.073 385.694Z" fill="#407BFF"/>
<path d="M327.564 169.36C326.466 166.519 316.907 163.403 312.112 162.315L310.005 178.083C310.005 178.083 317.836 189.338 321.275 188.407C325.335 187.308 329.916 175.447 327.564 169.36Z" fill="#407BFF"/>
<path opacity="0.4" d="M327.564 169.36C326.466 166.519 316.907 163.403 312.112 162.315L310.005 178.083C310.005 178.083 317.836 189.338 321.275 188.407C325.335 187.308 329.916 175.447 327.564 169.36Z" fill="black"/>
<path d="M317.066 168.567C317.066 168.567 313.076 169.972 321.069 219.122C334.568 219.122 348.52 219.122 355.088 219.122C354.517 205.276 354.501 196.739 361.118 168.324C361.118 168.324 353.99 166.773 346.672 166.421C340.947 166.145 336.257 165.962 331.224 166.422C324.591 167.027 317.066 168.567 317.066 168.567Z" fill="#407BFF"/>
<path opacity="0.4" d="M317.066 168.567C317.066 168.567 313.076 169.972 321.069 219.122C334.568 219.122 348.52 219.122 355.088 219.122C354.517 205.276 354.501 196.739 361.118 168.324C361.118 168.324 353.99 166.773 346.672 166.421C340.947 166.145 336.257 165.962 331.224 166.422C324.591 167.027 317.066 168.567 317.066 168.567Z" fill="black"/>
<path d="M355.598 217.125L357.132 220.17C357.251 220.406 356.971 220.647 356.578 220.647H320.901C320.594 220.647 320.34 220.497 320.321 220.304L320.014 217.259C319.993 217.048 320.259 216.869 320.594 216.869H355.044C355.297 216.87 355.521 216.973 355.598 217.125Z" fill="#407BFF"/>
<path opacity="0.3" d="M355.598 217.125L357.132 220.17C357.251 220.406 356.971 220.647 356.578 220.647H320.901C320.594 220.647 320.34 220.497 320.321 220.304L320.014 217.259C319.993 217.048 320.259 216.869 320.594 216.869H355.044C355.297 216.87 355.521 216.973 355.598 217.125Z" fill="#16161B"/>
<path d="M350.972 220.977H351.895C352.079 220.977 352.218 220.882 352.205 220.767L351.773 216.811C351.76 216.695 351.6 216.601 351.416 216.601H350.493C350.309 216.601 350.169 216.696 350.182 216.811L350.615 220.767C350.628 220.883 350.789 220.977 350.972 220.977Z" fill="#263238"/>
<path d="M328.608 220.977H329.531C329.715 220.977 329.855 220.882 329.842 220.767L329.409 216.811C329.396 216.695 329.236 216.601 329.052 216.601H328.129C327.945 216.601 327.805 216.696 327.818 216.811L328.251 220.767C328.263 220.883 328.424 220.977 328.608 220.977Z" fill="#263238"/>
</svg>
