<svg viewBox="0 0 500 500" fill="none" xmlns="http://www.w3.org/2000/svg">
<path d="M500 382.398H0V382.648H500V382.398Z" fill="#EBEBEB"/>
<path d="M85.581 391.922H52.459V392.172H85.581V391.922Z" fill="#EBEBEB"/>
<path d="M179.833 389.208H145.333V389.458H179.833V389.208Z" fill="#EBEBEB"/>
<path d="M131.5 396.75H76.082V397H131.5V396.75Z" fill="#EBEBEB"/>
<path d="M448.833 397.666H405.64V397.916H448.833V397.666Z" fill="#EBEBEB"/>
<path d="M393.333 391.416H370.43V391.666H393.333V391.416Z" fill="#EBEBEB"/>
<path d="M289.309 395.43H195.633V395.68H289.309V395.43Z" fill="#EBEBEB"/>
<path d="M237.014 337.799H43.915C40.768 337.799 38.207 335.238 38.207 332.091V60.6601C38.207 57.5131 40.768 54.9521 43.915 54.9521H237.014C240.16 54.9521 242.721 57.5131 242.721 60.6601V332.092C242.721 335.239 240.16 337.799 237.014 337.799ZM43.915 55.2021C40.905 55.2021 38.457 57.6501 38.457 60.6601V332.092C38.457 335.102 40.905 337.55 43.915 337.55H237.014C240.023 337.55 242.471 335.102 242.471 332.092V60.6601C242.471 57.6511 240.023 55.2021 237.014 55.2021H43.915Z" fill="#EBEBEB"/>
<path d="M453.31 337.799H260.212C257.065 337.799 254.505 335.238 254.505 332.091V60.6601C254.505 57.5131 257.066 54.9521 260.212 54.9521H453.31C456.458 54.9521 459.018 57.5131 459.018 60.6601V332.092C459.019 335.239 456.458 337.799 453.31 337.799ZM260.212 55.2021C257.203 55.2021 254.755 57.6501 254.755 60.6601V332.092C254.755 335.102 257.203 337.55 260.212 337.55H453.31C456.32 337.55 458.768 335.102 458.768 332.092V60.6601C458.768 57.6511 456.32 55.2021 453.31 55.2021H260.212Z" fill="#EBEBEB"/>
<path d="M132.277 315.853H147.484V256.923H132.277V315.853Z" fill="#E6E6E6"/>
<path d="M91.0479 315.853H141.517L149.139 246.88H98.6689L91.0479 315.853Z" fill="#F0F0F0"/>
<path d="M85.5811 315.853H137.713L145.335 246.88H93.2031L85.5811 315.853Z" fill="#F5F5F5"/>
<path d="M133.946 310.418L140.367 252.315H96.9698L90.5488 310.418H133.946Z" fill="white"/>
<path d="M124.983 296.334L125.245 293.966C126.856 279.389 117.755 266.398 105.932 266.398L105.67 268.766C104.06 283.343 113.161 296.334 124.983 296.334Z" fill="#F5F5F5"/>
<path d="M107.726 200.862L406.78 200.862V92.4003L107.726 92.4003V200.862Z" fill="#E6E6E6"/>
<path d="M102.285 200.862L404.237 200.862V92.4003L102.285 92.4003V200.862Z" fill="#F0F0F0"/>
<path d="M107.726 210.973L406.78 210.973V200.862L107.726 200.862V210.973Z" fill="#E6E6E6"/>
<path d="M93.2218 210.973L395.174 210.973V200.862L93.2218 200.862V210.973Z" fill="#F0F0F0"/>
<path d="M396.621 193.245V100.018L109.904 100.018V193.245L396.621 193.245Z" fill="#FAFAFA"/>
<path d="M365.962 193.245L328.692 100.018H295.976L333.246 193.245H365.962Z" fill="white"/>
<path d="M204.436 193.245L167.167 100.018H134.45L171.72 193.245H204.436Z" fill="white"/>
<path d="M326.217 193.245L288.947 100.018H276.192L313.462 193.245H326.217Z" fill="white"/>
<path d="M110.871 193.245L110.871 100.018H109.904L109.904 193.245H110.871Z" fill="#E6E6E6"/>
<path d="M57.3797 382.398H102.219L102.219 315.853H57.3797L57.3797 382.398Z" fill="#E6E6E6"/>
<path d="M61.8918 382.398H57.3818V369.569H66.6198L61.8918 382.398Z" fill="#F0F0F0"/>
<path d="M183.051 382.398H227.89V315.853H183.051V382.398Z" fill="#E6E6E6"/>
<path d="M57.3803 374.526H186.986V315.853H57.3803V374.526Z" fill="#F0F0F0"/>
<path d="M182.476 382.398H186.986V369.569H177.747L182.476 382.398Z" fill="#F0F0F0"/>
<path d="M60.8803 343.198H183.488V319.523H60.8803V343.198Z" fill="#E6E6E6"/>
<path d="M114.007 334.957H130.36C137.463 334.957 144.254 332.036 149.139 326.88H95.2275C100.113 332.036 106.904 334.957 114.007 334.957Z" fill="#F0F0F0"/>
<path d="M60.8803 370.7H183.488V347.025H60.8803V370.7Z" fill="#E6E6E6"/>
<path d="M114.007 362.459H130.36C137.463 362.459 144.254 359.538 149.139 354.382H95.2275C100.113 359.538 106.904 362.459 114.007 362.459Z" fill="#F0F0F0"/>
<path d="M344.919 288.121C344.828 287.681 344.444 287.366 343.989 287.366H332.646H319.316H307.974C307.52 287.366 307.135 287.68 307.044 288.121L294.274 382.398H296.21L308.749 289.26H343.212L355.751 382.398H357.687L344.919 288.121Z" fill="#F0F0F0"/>
<path d="M414.642 288.121C414.551 287.681 414.167 287.366 413.712 287.366H402.37H389.04H377.697C377.243 287.366 376.858 287.68 376.767 288.121L363.997 382.398H365.933L378.472 289.26H412.935L425.474 382.398H427.41L414.642 288.121Z" fill="#F0F0F0"/>
<path d="M415.667 280.169H302.41C296.998 280.169 292.61 282.774 292.61 285.989V286.189C292.61 287.361 294.21 288.311 296.184 288.311H421.894C423.868 288.311 425.468 287.361 425.468 286.189V285.989C425.467 282.775 421.08 280.169 415.667 280.169Z" fill="#E0E0E0"/>
<path d="M422.602 233.501H347.712L336.858 277.725H411.748L422.602 233.501Z" fill="#E6E6E6"/>
<path d="M411.748 277.726L411.445 280.17H336.551L336.854 277.726H411.748Z" fill="#E6E6E6"/>
<path d="M420.297 233.501H345.406L334.552 277.725H409.443L420.297 233.501Z" fill="#F0F0F0"/>
<path d="M407.859 275.704L417.721 235.522H346.991L337.128 275.704H407.859Z" fill="white"/>
<path d="M389.929 277.726L389.626 280.17H307.157L307.46 277.726H389.929Z" fill="#F0F0F0"/>
<path d="M178.778 313.139H179.936C179.924 310.753 179.942 304.7 180.058 290.827C180.266 265.683 180.666 264.15 180.666 264.15L177.908 275.758C176.158 288.611 178.413 301.527 178.778 313.139Z" fill="#E6E6E6"/>
<path d="M176.487 274.028C172.517 269.297 164.036 267.919 155.352 266.742C151.943 266.28 164.311 274.07 170.356 279.604C175.052 283.902 178.055 285.09 179.344 289.374C180.017 284.032 179.908 278.105 176.487 274.028Z" fill="#E6E6E6"/>
<path d="M181.752 282.484C185.721 277.753 194.203 276.375 202.887 275.198C206.297 274.736 193.928 282.526 187.883 288.06C183.186 292.358 180.184 293.546 178.895 297.83C178.223 292.488 178.332 286.561 181.752 282.484Z" fill="#E6E6E6"/>
<path d="M180.054 263.038C183.03 257.383 190.52 252.059 198.924 250.039C202.223 249.246 191.281 260.481 187.122 267.726C183.891 273.354 179.606 279.965 178.94 284.714C177.934 275.306 177.078 268.693 180.054 263.038Z" fill="#E6E6E6"/>
<path d="M179.702 315.853C176.156 315.853 173.226 314.076 173.022 311.802L172.431 307.917H186.972L186.381 311.802C186.178 314.076 183.248 315.853 179.702 315.853Z" fill="#F0F0F0"/>
<path d="M187.914 309.411H171.49L171.019 305.083H188.385L187.914 309.411Z" fill="#F0F0F0"/>
<path d="M250 427.561C357.082 427.561 443.889 422.492 443.889 416.238C443.889 409.985 357.082 404.915 250 404.915C142.918 404.915 56.1113 409.985 56.1113 416.238C56.1113 422.492 142.918 427.561 250 427.561Z" fill="#F5F5F5"/>
<path d="M311.281 399.98L303.677 398.123L305.954 380.02L313.558 381.877L311.281 399.98Z" fill="#FFB573"/>
<path d="M377.522 408.246H369.695L363.596 390.119H371.424L377.522 408.246Z" fill="#FFB573"/>
<path d="M368.65 407.339H378.193C378.513 407.339 378.79 407.561 378.859 407.874L380.405 414.832C380.565 415.554 379.998 416.237 379.259 416.224C376.189 416.171 373.948 415.991 370.081 415.991C367.702 415.991 360.527 416.238 357.242 416.238C354.029 416.238 353.527 412.989 354.872 412.695C360.903 411.376 365.448 409.556 367.379 407.821C367.728 407.507 368.182 407.339 368.65 407.339Z" fill="#263238"/>
<path d="M303.946 397.256L312.25 399.284C312.561 399.36 312.777 399.642 312.771 399.961L312.623 407.087C312.608 407.826 311.913 408.36 311.199 408.172C308.216 407.39 303.93 406.157 300.165 405.238C295.763 404.163 291.902 403.475 286.739 402.214C283.617 401.452 283.522 398.084 284.898 398.118C291.164 398.269 296.055 399.316 301.97 397.402C302.612 397.193 303.289 397.096 303.946 397.256Z" fill="#263238"/>
<path d="M341.891 172.94C341.346 174.56 340.834 175.959 340.24 177.429C339.661 178.879 339.058 180.317 338.432 181.747C337.183 184.608 335.787 187.414 334.27 190.186C332.733 192.947 331.083 195.685 329.172 198.329C327.252 200.968 325.151 203.572 322.509 205.942C321.844 206.533 321.166 207.117 320.418 207.669C320.021 207.955 319.731 208.199 319.244 208.513C318.79 208.82 318.301 209.102 317.802 209.37C315.797 210.447 313.356 211.049 311.045 211.001C308.725 210.969 306.608 210.384 304.802 209.584C302.992 208.769 301.44 207.758 300.044 206.679C297.274 204.494 295.078 202.033 293.143 199.465C292.167 198.188 291.297 196.853 290.461 195.509C289.618 194.148 288.863 192.832 288.124 191.313L293.116 188.211C293.983 189.211 294.968 190.329 295.93 191.348C296.904 192.382 297.926 193.363 298.935 194.32C300.973 196.208 303.104 197.932 305.244 199.168C307.362 200.421 309.508 201.036 310.838 200.827C311.517 200.729 312.04 200.504 312.638 200.113C312.785 200.006 312.936 199.903 313.088 199.771C313.223 199.67 313.495 199.419 313.693 199.254C314.125 198.89 314.551 198.462 314.973 198.03C318.37 194.471 321.296 189.619 323.847 184.636C325.14 182.134 326.324 179.543 327.484 176.935C328.059 175.629 328.614 174.311 329.146 172.987C329.662 171.682 330.222 170.292 330.666 169.091L341.891 172.94Z" fill="#FFB573"/>
<path d="M345.066 169.091C346.744 176.384 330.746 195.037 330.746 195.037L316.367 184.521C316.367 184.521 321.358 174.814 327.779 167.569C334.373 160.13 343.224 161.088 345.066 169.091Z" fill="#407BFF"/>
<path opacity="0.2" d="M328.977 181.322C327.376 184.427 326.055 187.8 325.002 190.841L330.749 195.041C330.749 195.041 340.246 183.965 343.834 175.543C339.505 171.826 332.759 173.942 328.977 181.322Z" fill="black"/>
<path d="M293.903 189.28L290.252 184.395L284.063 191.693C284.063 191.693 287.805 195.453 292.45 193.979L293.903 189.28Z" fill="#FFB573"/>
<path d="M282.1 181.704L280.047 190.081L284.064 191.692L290.252 184.394L282.1 181.704Z" fill="#FFB573"/>
<path opacity="0.2" d="M305.955 380.025L304.78 389.356L312.387 391.214L313.562 381.883L305.955 380.025Z" fill="black"/>
<path opacity="0.2" d="M371.428 390.124H363.598L366.745 399.467H374.576L371.428 390.124Z" fill="black"/>
<path d="M380.086 168.005C377.121 176.481 375.015 185.172 373.468 193.38C372.34 199.385 371.524 205.133 370.911 210.354C369.471 222.59 369.138 231.969 368.569 235.117C362.488 234.301 339.573 231.217 327.079 229.531C324.264 184.733 336.576 162.538 336.576 162.538C336.576 162.538 341.249 161.915 346.631 161.947C347.34 161.947 348.06 161.968 348.79 162.001C353.517 162.205 361.166 163.408 366.43 164.375C367.537 164.579 368.654 164.815 369.739 165.063C375.263 166.329 380.086 168.005 380.086 168.005Z" fill="#407BFF"/>
<path opacity="0.2" d="M349.409 173.723C341.814 172.753 338.431 174.921 337.802 177.731C335.361 188.645 343.796 198.824 343.796 198.824C343.796 198.824 356.188 191.306 358.628 180.392C359.257 177.582 357.004 174.693 349.409 173.723Z" fill="black"/>
<path d="M344.647 195.015C342.565 191.813 338.947 184.984 340.492 178.074C340.777 176.802 343.717 175.852 348.787 176.5C353.857 177.148 356.222 178.775 355.937 180.047C354.392 186.958 348.006 192.508 344.647 195.015Z" fill="white"/>
<path opacity="0.2" d="M373.469 193.379C372.341 199.384 371.525 205.132 370.912 210.353L365.304 197.402L373.469 193.379Z" fill="black"/>
<path d="M367.359 144.278C365.482 149.803 362.97 160.051 366.43 164.373C363.115 166.978 358.459 168.948 352.103 167.95C347.235 167.186 347.449 163.74 348.792 161.996C355.324 161.338 355.793 156.62 355.285 152.062L367.359 144.278Z" fill="#FFB573"/>
<path opacity="0.2" d="M362.436 147.455L355.291 152.059C355.415 153.138 355.478 154.224 355.413 155.263C357.878 155.239 361.556 153.033 362.154 150.537C362.452 149.291 362.563 148.071 362.436 147.455Z" fill="black"/>
<path d="M352.994 122.1C346.929 121.606 344.829 136.206 348.612 139.006C352.394 141.807 364.348 123.024 352.994 122.1Z" fill="#263238"/>
<path d="M369.185 135.829C367.677 143.45 367.182 147.987 362.77 151.408C356.132 156.554 347.122 151.756 346.322 143.839C345.602 136.713 348.189 125.447 356.123 123.403C363.939 121.388 370.693 128.208 369.185 135.829Z" fill="#FFB573"/>
<path d="M367.633 143.287C363.874 145.626 360.713 122.228 370.681 125.305C386.867 130.301 372.098 140.508 367.633 143.287Z" fill="#263238"/>
<path d="M367.646 129.632C365.376 126.825 351.576 128.517 345.22 124.354C338.864 120.191 342.892 111.015 354.531 112.492C349.115 113.119 350.099 117.64 353.815 117.595C357.53 117.55 366.105 112.95 369.84 116.879C375.032 122.34 377.629 119.104 380.225 122.201C383.966 126.665 372.57 135.72 367.646 129.632Z" fill="#263238"/>
<path d="M371.514 144.767C370.186 146.387 368.233 147.242 366.518 147.384C363.938 147.597 363.134 145.171 364.26 142.991C365.273 141.029 367.836 138.553 370.229 139.359C372.587 140.153 373.033 142.915 371.514 144.767Z" fill="#FFB573"/>
<path d="M302.36 386.904L315.237 390.042C315.237 390.042 323.541 346.166 327.387 322.08C328.558 314.753 331.169 304.612 334.327 293.783C338.313 280.14 343.158 265.422 347.09 253.905C351.237 241.776 354.353 233.203 354.353 233.203L327.076 229.529C327.076 229.529 306.299 293.235 303.957 317.009C301.517 341.729 302.36 386.904 302.36 386.904Z" fill="#263238"/>
<path opacity="0.2" d="M334.327 293.783C338.313 280.14 343.158 265.422 347.09 253.905L344.641 247.599C337.324 255.238 333.886 280.118 334.327 293.783Z" fill="black"/>
<path d="M341.791 231.512C341.791 231.512 340.443 298.577 342.282 321.438C344.296 346.472 363.062 397.658 363.062 397.658H377.398C377.398 397.658 367.833 350.809 364.898 326.497C361.556 298.804 368.563 235.121 368.563 235.121L341.791 231.512Z" fill="#263238"/>
<path d="M361.345 397.968H378.226V392.925L359.355 392.596L361.345 397.968Z" fill="#407BFF"/>
<path d="M300.669 386.809L316.013 390.556L317.223 385.599L300.136 381.149L300.669 386.809Z" fill="#407BFF"/>
<path d="M357.24 136.406C357.156 137.032 356.756 137.494 356.347 137.439C355.938 137.384 355.675 136.832 355.759 136.206C355.843 135.58 356.243 135.118 356.652 135.173C357.061 135.228 357.324 135.78 357.24 136.406Z" fill="#263238"/>
<path d="M350.168 135.452C350.084 136.078 349.684 136.54 349.275 136.485C348.866 136.43 348.603 135.878 348.687 135.252C348.771 134.626 349.171 134.164 349.58 134.219C349.989 134.275 350.252 134.827 350.168 135.452Z" fill="#263238"/>
<path d="M352.374 136.067C352.374 136.067 350.465 139.485 348.664 141.015C349.632 142.197 351.577 141.979 351.577 141.979L352.374 136.067Z" fill="#ED893E"/>
<path d="M353.99 144.008C353.728 144.008 353.455 143.991 353.168 143.952C353.066 143.938 352.995 143.845 353.009 143.744C353.022 143.642 353.118 143.571 353.217 143.585C355.966 143.952 357.504 142.21 357.519 142.192C357.586 142.114 357.703 142.107 357.78 142.173C357.858 142.24 357.866 142.357 357.799 142.435C357.739 142.505 356.412 144.008 353.99 144.008Z" fill="#263238"/>
<path d="M359.728 134.416C359.599 134.416 359.473 134.348 359.405 134.227C358.592 132.787 357.23 132.684 357.216 132.683C357.012 132.67 356.856 132.494 356.87 132.29C356.883 132.086 357.06 131.931 357.264 131.944C357.336 131.948 359.043 132.077 360.051 133.864C360.152 134.042 360.089 134.268 359.91 134.369C359.853 134.4 359.79 134.416 359.728 134.416Z" fill="#263238"/>
<path d="M347.448 132.609C347.377 132.609 347.306 132.589 347.243 132.547C347.072 132.434 347.026 132.203 347.139 132.033C348.275 130.321 349.981 130.33 350.058 130.32C350.263 130.322 350.427 130.489 350.425 130.694C350.423 130.898 350.257 131.062 350.054 131.062C349.983 131.059 348.668 131.069 347.756 132.443C347.686 132.551 347.568 132.609 347.448 132.609Z" fill="#263238"/>
<path d="M366.062 408.707C365.466 408.707 364.908 408.606 364.553 408.308C364.272 408.072 364.143 407.743 364.17 407.328C364.189 407.019 364.354 406.873 364.489 406.804C365.353 406.358 367.88 407.91 368.165 408.089C368.228 408.129 368.261 408.202 368.25 408.276C368.238 408.349 368.182 408.409 368.109 408.426C367.565 408.557 366.786 408.707 366.062 408.707ZM364.898 407.086C364.801 407.086 364.72 407.101 364.657 407.133C364.607 407.159 364.549 407.206 364.54 407.351C364.522 407.646 364.605 407.866 364.793 408.024C365.221 408.383 366.244 408.432 367.572 408.165C366.689 407.654 365.498 407.086 364.898 407.086Z" fill="#407BFF"/>
<path d="M368.066 408.431C368.036 408.431 368.005 408.424 367.978 408.409C367.168 407.969 365.602 406.254 365.767 405.381C365.797 405.223 365.914 404.949 366.357 404.895C366.645 404.862 366.91 404.94 367.146 405.134C368.056 405.877 368.243 408.136 368.25 408.232C368.255 408.3 368.223 408.365 368.166 408.402C368.137 408.421 368.102 408.431 368.066 408.431ZM366.487 405.258C366.46 405.258 366.431 405.259 366.403 405.263C366.162 405.292 366.141 405.403 366.132 405.45C366.034 405.965 367.032 407.261 367.837 407.872C367.746 407.213 367.496 405.896 366.913 405.42C366.779 405.311 366.639 405.258 366.487 405.258Z" fill="#407BFF"/>
<path d="M302.941 398.124C302.933 398.125 302.924 398.125 302.916 398.125C301.632 398.07 299.379 397.837 298.726 396.896C298.529 396.612 298.488 396.29 298.602 395.937C298.671 395.727 298.814 395.586 299.016 395.53C300.071 395.233 302.743 397.537 303.045 397.8C303.104 397.852 303.125 397.935 303.095 398.009C303.069 398.073 303.009 398.117 302.941 398.124ZM299.187 395.874C299.161 395.876 299.137 395.88 299.114 395.887C299.032 395.91 298.984 395.959 298.954 396.052C298.876 396.291 298.901 396.498 299.03 396.684C299.397 397.213 300.63 397.591 302.377 397.722C301.312 396.852 299.809 395.816 299.187 395.874Z" fill="#407BFF"/>
<path d="M302.941 398.124C302.894 398.128 302.847 398.115 302.81 398.086C301.993 397.45 300.577 395.362 300.925 394.536C301.007 394.342 301.211 394.127 301.719 394.196C302.096 394.249 302.406 394.434 302.642 394.749C303.415 395.78 303.12 397.877 303.107 397.967C303.097 398.032 303.054 398.087 302.993 398.112C302.976 398.118 302.958 398.122 302.941 398.124ZM301.474 394.555C301.312 394.57 301.279 394.649 301.266 394.679C301.057 395.174 301.977 396.768 302.776 397.56C302.824 396.938 302.853 395.647 302.345 394.97C302.168 394.734 301.946 394.601 301.667 394.562C301.588 394.552 301.525 394.551 301.474 394.555Z" fill="#407BFF"/>
<path d="M384.421 177.115C384.292 178.586 384.153 179.864 383.956 181.215C383.771 182.55 383.57 183.875 383.345 185.199C382.9 187.847 382.356 190.479 381.708 193.104C381.052 195.726 380.344 198.346 379.447 200.944C378.591 203.545 377.578 206.139 376.371 208.698L375.436 210.615L375.377 210.735L375.252 210.97L374.979 211.452C374.783 211.762 374.575 212.071 374.351 212.354C373.902 212.923 373.403 213.431 372.89 213.85C371.859 214.709 370.804 215.24 369.825 215.618C368.843 215.995 367.922 216.221 367.049 216.378C363.579 216.962 360.694 216.646 357.882 216.261C352.295 215.374 347.258 213.764 342.233 211.64L343.904 206.006C346.329 206.319 348.874 206.641 351.336 206.843C353.807 207.06 356.258 207.219 358.608 207.202C360.926 207.205 363.262 206.998 364.85 206.502C365.626 206.275 366.118 205.876 365.988 205.877C365.968 205.879 365.906 205.909 365.849 205.966C365.821 205.993 365.783 206.027 365.759 206.065C365.741 206.082 365.726 206.1 365.713 206.12C365.709 206.126 365.697 206.15 365.7 206.141L365.739 206.039L366.369 204.417C367.999 200.044 369.215 195.303 370.205 190.496C370.717 188.094 371.133 185.655 371.552 183.218C371.762 182 371.951 180.776 372.123 179.555L372.611 175.976L384.421 177.115Z" fill="#FFB573"/>
<path d="M385.857 172.439C390.235 178.509 385.182 197.223 385.182 197.223L364.638 197.879C364.638 197.879 366.311 185.545 369.346 176.362C372.651 166.358 380.554 165.087 385.857 172.439Z" fill="#407BFF"/>
<path d="M344.858 206.233L337.651 202.886L337.606 212.884C337.606 212.884 344.374 214.371 345.562 210.873L344.858 206.233Z" fill="#FFB573"/>
<path d="M331.274 204.331L331.624 212.597L337.606 212.884L337.651 202.886L331.274 204.331Z" fill="#FFB573"/>
<path d="M303.521 269.934H112.403C107.337 269.934 102.899 265.789 102.542 260.722L93.9556 138.844C93.5986 133.778 97.4516 129.632 102.519 129.632H293.637C298.704 129.632 303.141 133.777 303.498 138.844L312.084 260.722C312.441 265.789 308.588 269.934 303.521 269.934Z" fill="#263238"/>
<path d="M358.194 369.399H142.84C137.131 369.399 131.374 365.707 130.058 361.237L105.117 276.477C104.054 272.865 107.337 269.934 112.403 269.934H303.521C308.587 269.934 314.378 272.865 316.406 276.477L363.992 361.237C366.502 365.707 363.904 369.399 358.194 369.399Z" fill="#263238"/>
<path d="M305.823 269.934H114.705C109.639 269.934 105.201 265.789 104.844 260.722L96.2593 138.844C95.9023 133.778 99.7553 129.632 104.822 129.632H295.94C301.006 129.632 305.444 133.777 305.801 138.844L314.387 260.722C314.743 265.789 310.89 269.934 305.823 269.934Z" fill="#407BFF"/>
<path d="M116.265 262.258C114.265 262.258 112.514 260.622 112.373 258.622L104.083 140.945C103.942 138.945 105.463 137.309 107.463 137.309H294.38C296.38 137.309 298.131 138.945 298.272 140.945L306.562 258.622C306.703 260.622 305.182 262.258 303.182 262.258H116.265Z" fill="white"/>
<path opacity="0.2" d="M202.084 133.681C202.139 134.464 201.549 135.098 200.767 135.098C199.985 135.098 199.305 134.463 199.25 133.681C199.195 132.898 199.785 132.264 200.567 132.264C201.349 132.264 202.029 132.898 202.084 133.681Z" fill="black"/>
<path d="M360.497 369.399H145.143C139.434 369.399 133.677 365.707 132.361 361.237L107.42 276.477C106.357 272.865 109.64 269.934 114.706 269.934H305.824C310.89 269.934 316.681 272.865 318.709 276.477L366.295 361.237C368.805 365.707 366.206 369.399 360.497 369.399Z" fill="#407BFF"/>
<path opacity="0.2" d="M133.535 324.128C131.397 324.128 129.248 322.813 128.761 321.211L115.618 277.983C115.182 276.548 116.473 275.378 118.487 275.378H306.702C308.716 275.378 311.009 276.548 311.8 277.983L335.646 321.211C336.53 322.813 335.506 324.128 333.368 324.128H133.535Z" fill="black"/>
<path opacity="0.2" d="M219.759 361.858C218.457 361.858 217.064 361.02 216.665 359.999L205.653 331.843C205.28 330.888 206.002 330.109 207.257 330.109H264.765C266.02 330.109 267.409 330.888 267.852 331.843L280.933 359.999C281.408 361.02 280.731 361.858 279.429 361.858H219.759Z" fill="black"/>
<path d="M111.408 244.931L116.133 235.573H131.721L136.111 242.328L140.5 249.083L137.094 255.828L133.847 262.258H134.201L137.373 255.976L140.779 249.231H156.367L160.756 255.986L164.831 262.258H165.207L161.023 255.819L156.634 249.064L160.04 242.319L163.446 235.574H179.033L183.423 242.329L187.812 249.084L184.407 255.829L181.16 262.259H181.514L184.686 255.977L188.091 249.232H203.679L208.069 255.987L212.144 262.259H212.52L208.336 255.82L203.947 249.065L207.352 242.32L210.758 235.575H226.346L230.736 242.33L235.125 249.085L231.719 255.83L228.472 262.26H228.826L231.998 255.978L235.404 249.233H250.992L255.381 255.988L259.456 262.26H259.832L255.647 255.821L251.258 249.066L254.664 242.321L258.069 235.576H273.657L278.047 242.331L282.436 249.086L279.03 255.831L275.783 262.261H276.136L279.308 255.979L282.714 249.234H298.302L302.691 255.989L305.889 260.91C305.956 260.82 306.031 260.736 306.09 260.639L302.959 255.821L298.57 249.066L301.976 242.321L304.995 236.343L304.952 235.728L301.698 242.173L298.292 248.918H282.704L278.315 242.163L273.926 235.409L277.331 228.663L280.737 221.918H296.325L304.91 235.13L304.864 234.481L296.592 221.751L303.064 208.932L303.021 208.318L296.313 221.604H280.725L276.335 214.849L271.946 208.095L275.352 201.35L278.758 194.604H294.345L302.991 207.91L302.945 207.261L294.612 194.437L301.132 181.524L301.089 180.909L294.334 194.289H278.747L274.357 187.534L269.968 180.78L273.374 174.035L276.78 167.29H292.368L301.075 180.689L301.03 180.039L292.636 167.122L299.203 154.114L299.16 153.501L292.357 166.975H276.769L272.38 160.22L267.991 153.466L271.396 146.721L274.802 139.976H290.39L294.779 146.731L299.158 153.469L299.113 152.821L295.047 146.563L290.658 139.809L291.917 137.315H291.564L290.379 139.661H274.791L273.267 137.315H272.892L274.525 139.828L271.119 146.574L267.714 153.319H252.126L247.736 146.564L243.347 139.81L244.606 137.316H244.252L243.068 139.662H227.48L225.956 137.316H225.58L227.213 139.829L223.807 146.575L220.401 153.32H204.809L200.419 146.565L196.03 139.811L197.289 137.317H196.935L195.751 139.663H180.163L178.639 137.317H178.263L179.896 139.83L176.491 146.576L173.085 153.321H157.497L153.108 146.566L148.719 139.812L149.978 137.318H149.624L148.439 139.664H132.852L131.328 137.318H130.952L132.585 139.831L129.179 146.577L125.774 153.322H110.186L104.319 144.292L104.364 144.941L109.918 153.489L105.572 162.096L105.616 162.71L110.197 153.636H125.785L130.174 160.391L134.563 167.145L131.157 173.89L127.751 180.636H112.164L107.774 173.881L106.235 171.513L106.28 172.162L107.506 174.049L111.895 180.803L108.489 187.549L107.501 189.505L107.545 190.119L108.768 187.696L112.174 180.951H127.762L132.151 187.706L136.541 194.46L133.135 201.205L129.729 207.951H114.141L109.752 201.196L108.152 198.734L108.198 199.383L109.485 201.364L113.874 208.118L110.468 214.863L109.432 216.914L109.475 217.528L110.746 215.01L114.152 208.265H129.74L134.129 215.02L138.518 221.774L135.113 228.519L131.707 235.264H116.119L110.068 225.953L110.114 226.602L115.852 235.432L111.363 244.324L111.408 244.931ZM179.021 235.258H163.433L159.044 228.503L154.655 221.748L158.06 215.003L161.466 208.258H177.054L181.443 215.013L185.832 221.767L182.427 228.512L179.021 235.258ZM247.02 194.285H231.433L227.043 187.53L222.654 180.776L226.06 174.031L229.465 167.286H245.053L249.443 174.041L253.832 180.795L250.426 187.541L247.02 194.285ZM247.032 194.6L251.421 201.355L255.81 208.109L252.404 214.854L248.998 221.6H233.411L229.021 214.845L224.632 208.091L228.037 201.346L231.443 194.6H247.032ZM226.776 187.698L231.165 194.452L227.759 201.197L224.354 207.943H208.766L204.376 201.188L199.987 194.434L203.393 187.688L206.799 180.943H222.386L226.776 187.698ZM208.498 208.11L205.093 214.855L201.687 221.601H186.099L181.709 214.846L177.32 208.092L180.726 201.347L184.132 194.601H199.72L204.109 201.356L208.498 208.11ZM203.114 187.54L199.708 194.285H184.121L179.731 187.53L175.342 180.776L178.748 174.031L182.153 167.286H197.741L202.131 174.041L206.52 180.795L203.114 187.54ZM179.464 187.698L183.853 194.452L180.447 201.197L177.041 207.943H161.454L157.064 201.188L152.675 194.434L156.081 187.688L159.486 180.943H175.074L179.464 187.698ZM207.071 242.17L203.666 248.915H188.078L183.689 242.16L179.3 235.406L182.706 228.66L186.112 221.915H201.699L206.088 228.67L210.477 235.424L207.071 242.17ZM226.332 235.258H210.745L206.356 228.503L201.967 221.748L205.373 215.003L208.778 208.258H224.366L228.755 215.013L233.144 221.767L229.738 228.512L226.332 235.258ZM254.383 242.17L250.977 248.915H235.389L231 242.16L226.611 235.406L230.016 228.66L233.422 221.915H249.01L253.399 228.67L257.788 235.424L254.383 242.17ZM276.066 215.013L280.455 221.767L277.05 228.512L273.644 235.257H258.056L253.666 228.502L249.277 221.747L252.683 215.002L256.089 208.257H271.677L276.066 215.013ZM274.087 187.698L278.476 194.452L275.07 201.197L271.664 207.943H256.076L251.687 201.188L247.298 194.434L250.703 187.688L254.109 180.943H269.697L274.087 187.698ZM252.131 153.627H267.719L272.109 160.382L276.498 167.136L273.092 173.881L269.686 180.627H254.099L249.71 173.872L245.321 167.118L248.726 160.373L252.131 153.627ZM224.08 146.715L227.486 139.97H243.074L247.463 146.725L251.852 153.48L248.447 160.225L245.041 166.97H229.453L225.064 160.215L220.674 153.461L224.08 146.715ZM204.82 153.627H220.408L224.797 160.382L229.187 167.136L225.781 173.881L222.375 180.627H206.787L202.398 173.872L198.009 167.118L201.414 160.373L204.82 153.627ZM176.769 146.715L180.175 139.97H195.762L200.152 146.725L204.541 153.48L201.135 160.225L197.729 166.97H182.142L177.752 160.215L173.363 153.461L176.769 146.715ZM157.508 153.627H173.095L177.485 160.382L181.874 167.136L178.468 173.881L175.063 180.627H159.475L155.085 173.872L150.696 167.118L154.102 160.373L157.508 153.627ZM130.441 160.214L126.052 153.46L129.457 146.715L132.863 139.97H148.451L152.84 146.725L157.229 153.48L153.823 160.225L150.417 166.97H134.829L130.441 160.214ZM132.42 187.53L128.03 180.776L131.436 174.031L134.842 167.286H150.43L154.819 174.041L159.208 180.795L155.803 187.541L152.397 194.286H136.809L132.42 187.53ZM134.398 214.845L130.009 208.091L133.415 201.346L136.821 194.6H152.408L156.798 201.355L161.187 208.109L157.781 214.854L154.376 221.6H138.788L134.398 214.845ZM135.394 228.661L138.8 221.916H154.388L158.778 228.671L163.167 235.425L159.761 242.17L156.355 248.915H140.767L136.378 242.16L131.989 235.406L135.394 228.661Z" fill="#E0E0E0"/>
<path d="M117.895 262.258L111.988 253.167L112.034 253.816L117.519 262.258H117.895Z" fill="#E0E0E0"/>
<path d="M245.163 249.853H175.985C173.148 249.853 170.698 247.532 170.54 244.695L167.89 197.112C167.732 194.275 169.924 191.954 172.761 191.954H241.939C244.776 191.954 247.226 194.275 247.384 197.112L250.033 244.695C250.191 247.532 248 249.853 245.163 249.853Z" fill="#407BFF"/>
<path opacity="0.2" d="M172.761 191.954C169.924 191.954 167.732 194.275 167.89 197.112L170.54 244.695C170.698 247.532 173.148 249.853 175.985 249.853H210.574L207.35 191.954H172.761Z" fill="black"/>
<path opacity="0.2" d="M203.553 236.195L204.346 221.076C201.894 219.526 200.313 216.905 200.153 214.038C199.894 209.392 203.464 205.611 208.111 205.611C212.758 205.611 216.748 209.391 217.007 214.038C217.167 216.905 215.877 219.526 213.598 221.076L216.074 236.195H203.553Z" fill="black"/>
<path d="M215.698 214.037C215.479 210.105 212.114 206.918 208.182 206.918C204.25 206.918 201.24 210.105 201.459 214.037C201.613 216.803 203.326 219.194 205.696 220.373L204.935 234.886H214.543L212.166 220.373C214.405 219.195 215.852 216.803 215.698 214.037Z" fill="#263238"/>
<path d="M240.15 188.536H230.997L230.444 178.611C229.712 165.467 218.423 154.774 205.279 154.774C192.135 154.774 182.037 165.467 182.769 178.611L183.322 188.536H174.169L173.616 178.611C172.603 160.42 186.579 145.62 204.77 145.62C222.961 145.62 238.585 160.42 239.598 178.611L240.15 188.536Z" fill="#407BFF"/>
</svg>
