<svg viewBox="0 0 500 500" fill="none" xmlns="http://www.w3.org/2000/svg">
<path d="M500 382.398H0V382.648H500V382.398Z" fill="#EBEBEB"/>
<path d="M321.526 396.342H288.404V396.592H321.526V396.342Z" fill="#EBEBEB"/>
<path d="M415.778 393.629H407.085V393.879H415.778V393.629Z" fill="#EBEBEB"/>
<path d="M396.586 389.208H327.667V389.458H396.586V389.208Z" fill="#EBEBEB"/>
<path d="M225.147 395.111H194.843V395.361H225.147V395.111Z" fill="#EBEBEB"/>
<path d="M185.939 395.111H166.717V395.361H185.939V395.111Z" fill="#EBEBEB"/>
<path d="M99.297 390.888H52.459V391.138H99.297V390.888Z" fill="#EBEBEB"/>
<path d="M237.014 337.8H43.915C40.768 337.8 38.207 335.239 38.207 332.092V60.6601C38.207 57.5131 40.768 54.9521 43.915 54.9521H237.014C240.16 54.9521 242.721 57.5131 242.721 60.6601V332.092C242.721 335.239 240.16 337.8 237.014 337.8ZM43.915 55.2031C40.905 55.2031 38.457 57.6511 38.457 60.6611V332.093C38.457 335.103 40.905 337.551 43.915 337.551H237.014C240.023 337.551 242.471 335.103 242.471 332.093V60.6601C242.471 57.6511 240.023 55.2021 237.014 55.2021L43.915 55.2031Z" fill="#EBEBEB"/>
<path d="M453.31 337.8H260.212C257.065 337.8 254.505 335.239 254.505 332.092V60.6601C254.505 57.5131 257.066 54.9521 260.212 54.9521H453.31C456.458 54.9521 459.018 57.5131 459.018 60.6601V332.092C459.019 335.239 456.458 337.8 453.31 337.8ZM260.212 55.2031C257.203 55.2031 254.755 57.6511 254.755 60.6611V332.093C254.755 335.103 257.203 337.551 260.212 337.551H453.31C456.32 337.551 458.768 335.103 458.768 332.093V60.6601C458.768 57.6511 456.32 55.2021 453.31 55.2021L260.212 55.2031Z" fill="#EBEBEB"/>
<path d="M57.3378 234.744L227.632 234.744L227.632 77.9631L57.3378 77.9631L57.3378 234.744Z" fill="#E6E6E6"/>
<path d="M53.295 234.744L225.875 234.744L225.875 77.9631L53.295 77.9631L53.295 234.744Z" fill="#F5F5F5"/>
<path d="M218.619 226.902L218.619 85.8057L60.5531 85.8057L60.5531 226.902L218.619 226.902Z" fill="#FAFAFA"/>
<path d="M199.088 226.902L145.932 85.8062H123.55L176.707 226.902H199.088Z" fill="white"/>
<path d="M170.363 226.902L117.206 85.8062H101.795L154.952 226.902H170.363Z" fill="white"/>
<path d="M122.718 226.903L122.718 85.8066H114.06L114.06 226.903H122.718Z" fill="#E6E6E6"/>
<path d="M170.911 226.902L170.911 85.8062H162.253L162.253 226.902H170.911Z" fill="#E6E6E6"/>
<path d="M121.156 231.878L121.156 79.9751H110.212L110.212 231.878H121.156Z" fill="#F5F5F5"/>
<path d="M169.35 231.878L169.35 79.9746H158.406L158.406 231.878H169.35Z" fill="#F5F5F5"/>
<path d="M61.3232 226.902L61.3232 85.8062H60.5532L60.5532 226.902H61.3232Z" fill="#E6E6E6"/>
<path d="M445.875 79.396H270.689V201.939H445.875V79.396Z" fill="#EBEBEB"/>
<path d="M445.875 201.94H447.352V79.3969H445.875V201.94Z" fill="#E0E0E0"/>
<path d="M439.738 195.803V85.5337L276.827 85.5337V195.803L439.738 195.803Z" fill="white"/>
<path d="M278.046 195.802V85.5332H276.828V195.802H278.046Z" fill="#E0E0E0"/>
<path d="M420.348 97.4248H380.549V153.343H420.348V97.4248Z" fill="#F5F5F5"/>
<path d="M329.387 107.79H289.588V163.708H329.387V107.79Z" fill="#F5F5F5"/>
<path d="M392.811 121.702H353.012V177.62H392.811V121.702Z" fill="#EBEBEB"/>
<path d="M338.236 124.157H322.692V139.701H338.236V124.157Z" fill="#F5F5F5"/>
<path d="M333.723 155.936H318.179V171.48H333.723V155.936Z" fill="#F0F0F0"/>
<path d="M409.1 375.213C409.1 371.245 412.317 368.028 416.285 368.028C420.253 368.028 423.47 371.245 423.47 375.213C423.47 379.181 420.253 382.398 416.285 382.398C412.317 382.398 409.1 379.182 409.1 375.213Z" fill="#E0E0E0"/>
<path d="M421.224 375.213C421.224 371.245 424.441 368.028 428.409 368.028C432.377 368.028 435.594 371.245 435.594 375.213C435.594 379.181 432.377 382.398 428.409 382.398C424.441 382.398 421.224 379.182 421.224 375.213Z" fill="#E0E0E0"/>
<path d="M222.675 375.213C222.675 371.245 225.892 368.028 229.86 368.028C233.828 368.028 237.045 371.245 237.045 375.213C237.045 379.181 233.828 382.398 229.86 382.398C225.892 382.398 222.675 379.182 222.675 375.213Z" fill="#E0E0E0"/>
<path d="M234.799 375.213C234.799 371.245 238.016 368.028 241.984 368.028C245.952 368.028 249.169 371.245 249.169 375.213C249.169 379.181 245.952 382.398 241.984 382.398C238.016 382.398 234.799 379.182 234.799 375.213Z" fill="#E0E0E0"/>
<path d="M421.539 376.205H438.544V223.001H421.539V376.205Z" fill="#EBEBEB"/>
<path d="M421.538 223H221.201V376.204H421.538V223Z" fill="#F5F5F5"/>
<path d="M415.026 229.287H227.714V369.918H415.026V229.287Z" fill="#EBEBEB"/>
<path d="M412.362 288.433H230.378V367.324H412.362V288.433Z" fill="#F5F5F5"/>
<path d="M412.362 232.247H230.378V286.435H412.362V232.247Z" fill="#F5F5F5"/>
<path d="M263.49 289.765H379.25C379.983 289.765 380.582 289.166 380.582 288.433C380.582 287.7 379.983 287.101 379.25 287.101H263.49C262.757 287.101 262.158 287.7 262.158 288.433C262.157 289.166 262.757 289.765 263.49 289.765Z" fill="#EBEBEB"/>
<path d="M263.49 233.579H379.25C379.983 233.579 380.582 232.98 380.582 232.247C380.582 231.514 379.983 230.915 379.25 230.915H263.49C262.757 230.915 262.158 231.515 262.158 232.247C262.157 232.98 262.757 233.579 263.49 233.579Z" fill="#EBEBEB"/>
<path d="M152.123 304.174H63.9072V382.398H152.123V304.174Z" fill="#F5F5F5"/>
<path d="M152.122 382.398H186.417V304.174H152.122V382.398Z" fill="#EBEBEB"/>
<path d="M154.037 290.452H59.5586V304.175H154.037V290.452Z" fill="#EBEBEB"/>
<path d="M154.037 304.175H190.766V290.452H154.037V304.175Z" fill="#E0E0E0"/>
<path d="M250 427.561C357.082 427.561 443.889 422.492 443.889 416.238C443.889 409.985 357.082 404.915 250 404.915C142.918 404.915 56.1113 409.985 56.1113 416.238C56.1113 422.492 142.918 427.561 250 427.561Z" fill="#F5F5F5"/>
<path d="M408.694 186.891H407.694V198.808H408.694V186.891Z" fill="#407BFF"/>
<path d="M408.694 152.748H407.694V178.549H408.694V152.748Z" fill="#407BFF"/>
<path d="M394.171 275.195H154.398C150.465 275.195 147.248 271.977 147.248 268.045V139.064C147.248 135.131 150.466 131.914 154.398 131.914H394.172C398.105 131.914 401.322 135.132 401.322 139.064V268.045C401.322 271.978 398.104 275.195 394.171 275.195Z" fill="#E0E0E0"/>
<path d="M397.827 271.54H158.053C154.12 271.54 150.903 268.322 150.903 264.39V135.409C150.903 131.476 154.121 128.259 158.053 128.259H397.827C401.76 128.259 404.977 131.477 404.977 135.409V264.39C404.977 268.322 401.759 271.54 397.827 271.54Z" fill="white"/>
<path d="M397.826 272.04H158.053C153.835 272.04 150.403 268.608 150.403 264.39V135.409C150.403 131.191 153.835 127.759 158.053 127.759H397.826C402.044 127.759 405.476 131.191 405.476 135.409V264.39C405.477 268.608 402.044 272.04 397.826 272.04ZM158.053 128.758C154.386 128.758 151.403 131.741 151.403 135.408V264.39C151.403 268.057 154.386 271.04 158.053 271.04H397.826C401.493 271.04 404.476 268.057 404.476 264.39V135.409C404.476 131.742 401.493 128.759 397.826 128.759H158.053V128.758Z" fill="#407BFF"/>
<path d="M262.797 190.489H170.394C168.34 190.489 166.669 188.818 166.669 186.764V174.028C166.669 171.974 168.34 170.303 170.394 170.303H262.797C264.851 170.303 266.522 171.974 266.522 174.028V186.764C266.523 188.818 264.852 190.489 262.797 190.489ZM170.395 171.303C168.893 171.303 167.67 172.526 167.67 174.028V186.764C167.67 188.266 168.893 189.489 170.395 189.489H262.798C264.3 189.489 265.523 188.266 265.523 186.764V174.028C265.523 172.526 264.3 171.303 262.798 171.303H170.395Z" fill="#E0E0E0"/>
<path d="M311.479 217.482H170.395C168.341 217.482 166.67 215.811 166.67 213.757V201.02C166.67 198.966 168.341 197.294 170.395 197.294H311.479C313.533 197.294 315.204 198.965 315.204 201.02V213.756C315.204 215.811 313.533 217.482 311.479 217.482ZM170.395 198.295C168.893 198.295 167.67 199.518 167.67 201.021V213.757C167.67 215.259 168.893 216.482 170.395 216.482H311.479C312.981 216.482 314.204 215.259 314.204 213.757V201.02C314.204 199.517 312.981 198.294 311.479 198.294L170.395 198.295Z" fill="#E0E0E0"/>
<path d="M171.46 211.404C171.184 211.404 170.96 211.18 170.96 210.904V203.873C170.96 203.597 171.184 203.373 171.46 203.373C171.736 203.373 171.96 203.597 171.96 203.873V210.904C171.96 211.18 171.736 211.404 171.46 211.404Z" fill="#E0E0E0"/>
<path d="M373.568 190.489H281.165C279.111 190.489 277.44 188.818 277.44 186.764V174.028C277.44 171.974 279.111 170.303 281.165 170.303H373.568C375.622 170.303 377.293 171.974 377.293 174.028V186.764C377.293 188.818 375.622 190.489 373.568 190.489ZM281.165 171.303C279.662 171.303 278.44 172.526 278.44 174.028V186.764C278.44 188.266 279.663 189.489 281.165 189.489H373.568C375.07 189.489 376.293 188.266 376.293 186.764V174.028C376.293 172.526 375.07 171.303 373.568 171.303H281.165Z" fill="#E0E0E0"/>
<path opacity="0.2" d="M230.509 152.748H171.281C169.02 152.748 167.17 150.898 167.17 148.637C167.17 146.376 169.02 144.526 171.281 144.526H230.509C232.77 144.526 234.621 146.376 234.621 148.637C234.621 150.898 232.771 152.748 230.509 152.748Z" fill="#407BFF"/>
<path opacity="0.2" d="M246.806 232.027H182.632C181.731 232.027 180.993 231.29 180.993 230.388C180.993 229.487 181.73 228.749 182.632 228.749H246.806C247.707 228.749 248.445 229.486 248.445 230.388C248.445 231.29 247.707 232.027 246.806 232.027Z" fill="#407BFF"/>
<path d="M170.477 233.696C172.303 233.696 173.784 232.215 173.784 230.389C173.784 228.563 172.303 227.082 170.477 227.082C168.651 227.082 167.17 228.563 167.17 230.389C167.17 232.215 168.651 233.696 170.477 233.696Z" fill="#407BFF"/>
<path d="M282.23 184.412C281.954 184.412 281.73 184.188 281.73 183.912V176.881C281.73 176.605 281.954 176.381 282.23 176.381C282.506 176.381 282.73 176.605 282.73 176.881V183.912C282.73 184.188 282.506 184.412 282.23 184.412Z" fill="#E0E0E0"/>
<path d="M171.46 184.412C171.184 184.412 170.96 184.188 170.96 183.912V176.881C170.96 176.605 171.184 176.381 171.46 176.381C171.736 176.381 171.96 176.605 171.96 176.881V183.912C171.96 184.188 171.736 184.412 171.46 184.412Z" fill="#E0E0E0"/>
<g opacity="0.6">
<path d="M175.443 183.376V177.234H179.586V177.959H176.255V179.861H179.138V180.586H176.255V183.377L175.443 183.376Z" fill="#263238"/>
<path d="M180.55 178.102V177.235H181.305V178.102H180.55ZM180.55 183.376V178.927H181.305V183.376H180.55Z" fill="#263238"/>
<path d="M182.443 183.376V178.927H183.122V179.601C183.295 179.286 183.455 179.078 183.602 178.977C183.748 178.877 183.91 178.826 184.085 178.826C184.34 178.826 184.598 178.907 184.86 179.069L184.6 179.769C184.415 179.66 184.232 179.606 184.047 179.606C183.882 179.606 183.733 179.655 183.603 179.754C183.472 179.853 183.378 179.991 183.323 180.167C183.239 180.435 183.197 180.728 183.197 181.047V183.377L182.443 183.376Z" fill="#263238"/>
<path d="M185.008 182.048L185.754 181.931C185.796 182.23 185.912 182.459 186.104 182.618C186.295 182.777 186.563 182.857 186.907 182.857C187.253 182.857 187.511 182.787 187.678 182.646C187.846 182.505 187.93 182.339 187.93 182.149C187.93 181.979 187.856 181.845 187.707 181.747C187.603 181.68 187.347 181.595 186.936 181.492C186.382 181.352 185.999 181.232 185.786 181.13C185.572 181.028 185.41 180.887 185.3 180.707C185.19 180.527 185.135 180.328 185.135 180.11C185.135 179.912 185.18 179.728 185.271 179.559C185.362 179.39 185.486 179.25 185.642 179.138C185.759 179.051 185.919 178.978 186.122 178.918C186.325 178.858 186.542 178.828 186.773 178.828C187.123 178.828 187.429 178.878 187.693 178.979C187.957 179.08 188.152 179.215 188.278 179.387C188.403 179.559 188.49 179.789 188.538 180.076L187.801 180.177C187.767 179.948 187.67 179.769 187.509 179.64C187.349 179.511 187.122 179.448 186.828 179.448C186.482 179.448 186.234 179.505 186.087 179.619C185.938 179.734 185.864 179.868 185.864 180.021C185.864 180.119 185.895 180.207 185.957 180.285C186.019 180.366 186.114 180.433 186.246 180.486C186.321 180.514 186.543 180.578 186.912 180.678C187.445 180.821 187.817 180.937 188.028 181.028C188.239 181.119 188.405 181.251 188.525 181.424C188.645 181.597 188.705 181.812 188.705 182.069C188.705 182.32 188.632 182.557 188.485 182.779C188.339 183.001 188.127 183.173 187.85 183.295C187.574 183.417 187.261 183.477 186.912 183.477C186.334 183.477 185.893 183.357 185.59 183.117C185.285 182.876 185.092 182.52 185.008 182.048Z" fill="#263238"/>
<path d="M191.246 182.702L191.355 183.368C191.142 183.412 190.953 183.435 190.785 183.435C190.512 183.435 190.3 183.391 190.148 183.305C189.998 183.219 189.891 183.105 189.83 182.964C189.769 182.823 189.738 182.526 189.738 182.074V179.514H189.184V178.927H189.738V177.825L190.488 177.372V178.927H191.246V179.514H190.488V182.116C190.488 182.331 190.501 182.47 190.527 182.531C190.554 182.592 190.597 182.641 190.657 182.677C190.718 182.713 190.803 182.732 190.915 182.732C190.999 182.731 191.11 182.722 191.246 182.702Z" fill="#263238"/>
<path d="M194.366 183.376V178.927H195.045V179.559C195.372 179.07 195.844 178.826 196.461 178.826C196.73 178.826 196.976 178.874 197.2 178.971C197.426 179.067 197.594 179.194 197.705 179.35C197.817 179.507 197.895 179.692 197.94 179.907C197.967 180.047 197.982 180.291 197.982 180.64V183.376H197.227V180.669C197.227 180.362 197.198 180.132 197.139 179.98C197.081 179.828 196.977 179.706 196.828 179.615C196.679 179.524 196.503 179.479 196.302 179.479C195.981 179.479 195.703 179.581 195.471 179.785C195.238 179.989 195.12 180.375 195.12 180.945V183.375H194.366V183.376Z" fill="#263238"/>
<path d="M202.043 182.828C201.764 183.065 201.495 183.233 201.236 183.331C200.978 183.429 200.701 183.477 200.405 183.477C199.916 183.477 199.541 183.357 199.278 183.119C199.015 182.88 198.883 182.575 198.883 182.203C198.883 181.985 198.933 181.787 199.032 181.606C199.131 181.426 199.261 181.281 199.422 181.172C199.582 181.063 199.763 180.981 199.964 180.924C200.112 180.885 200.336 180.847 200.635 180.811C201.243 180.738 201.692 180.652 201.98 180.551C201.983 180.447 201.984 180.382 201.984 180.354C201.984 180.046 201.913 179.83 201.77 179.704C201.578 179.534 201.291 179.448 200.912 179.448C200.558 179.448 200.296 179.511 200.127 179.635C199.957 179.759 199.832 179.979 199.752 180.295L199.014 180.194C199.081 179.879 199.192 179.624 199.345 179.43C199.499 179.236 199.721 179.086 200.012 178.981C200.302 178.877 200.639 178.824 201.021 178.824C201.401 178.824 201.709 178.868 201.948 178.958C202.185 179.047 202.359 179.16 202.471 179.295C202.582 179.431 202.66 179.602 202.705 179.808C202.73 179.936 202.743 180.168 202.743 180.503V181.509C202.743 182.21 202.759 182.653 202.791 182.839C202.823 183.025 202.887 183.203 202.982 183.373H202.195C202.116 183.22 202.066 183.037 202.043 182.828ZM201.981 181.144C201.708 181.256 201.296 181.35 200.749 181.429C200.439 181.474 200.22 181.524 200.091 181.58C199.962 181.636 199.863 181.718 199.793 181.825C199.724 181.932 199.689 182.052 199.689 182.183C199.689 182.384 199.765 182.552 199.918 182.686C200.07 182.82 200.293 182.887 200.586 182.887C200.877 182.887 201.135 182.824 201.361 182.697C201.588 182.57 201.754 182.396 201.86 182.175C201.94 182.005 201.981 181.754 201.981 181.421V181.144Z" fill="#263238"/>
<path d="M203.91 183.376V178.927H204.585V179.551C204.725 179.333 204.91 179.158 205.142 179.025C205.374 178.893 205.638 178.826 205.934 178.826C206.264 178.826 206.535 178.894 206.745 179.031C206.956 179.168 207.105 179.359 207.191 179.605C207.544 179.085 208.002 178.826 208.566 178.826C209.006 178.826 209.346 178.948 209.584 179.193C209.821 179.437 209.941 179.814 209.941 180.322V183.376H209.191V180.573C209.191 180.271 209.166 180.054 209.118 179.921C209.069 179.789 208.98 179.682 208.851 179.601C208.723 179.52 208.572 179.479 208.399 179.479C208.086 179.479 207.827 179.583 207.62 179.791C207.413 179.999 207.31 180.332 207.31 180.79V183.375H206.555V180.484C206.555 180.149 206.493 179.897 206.371 179.73C206.248 179.563 206.047 179.479 205.767 179.479C205.554 179.479 205.358 179.535 205.178 179.647C204.997 179.759 204.867 179.922 204.786 180.137C204.705 180.352 204.664 180.662 204.664 181.067V183.376H203.91Z" fill="#263238"/>
<path d="M214.105 181.944L214.884 182.04C214.761 182.495 214.533 182.849 214.201 183.1C213.868 183.351 213.444 183.477 212.928 183.477C212.277 183.477 211.761 183.277 211.379 182.876C210.998 182.475 210.808 181.913 210.808 181.189C210.808 180.44 211 179.859 211.386 179.446C211.772 179.032 212.271 178.826 212.886 178.826C213.481 178.826 213.967 179.029 214.344 179.433C214.721 179.838 214.909 180.408 214.909 181.143C214.909 181.187 214.907 181.255 214.905 181.344H211.587C211.614 181.833 211.753 182.207 212.001 182.467C212.25 182.727 212.56 182.857 212.932 182.857C213.208 182.857 213.445 182.784 213.64 182.639C213.835 182.494 213.99 182.262 214.105 181.944ZM211.629 180.725H214.113C214.079 180.351 213.984 180.07 213.828 179.883C213.588 179.593 213.276 179.447 212.894 179.447C212.548 179.447 212.256 179.563 212.021 179.795C211.784 180.026 211.653 180.336 211.629 180.725Z" fill="#263238"/>
</g>
<g opacity="0.6">
<path d="M286.137 183.376V177.234H286.95V182.651H289.974V183.376H286.137Z" fill="#263238"/>
<path d="M293.749 182.828C293.47 183.065 293.201 183.233 292.942 183.331C292.684 183.429 292.407 183.477 292.111 183.477C291.622 183.477 291.247 183.357 290.984 183.119C290.721 182.88 290.589 182.575 290.589 182.203C290.589 181.985 290.639 181.787 290.739 181.606C290.838 181.426 290.967 181.281 291.129 181.172C291.289 181.063 291.47 180.981 291.671 180.924C291.819 180.885 292.043 180.847 292.342 180.811C292.95 180.738 293.399 180.652 293.687 180.551C293.69 180.447 293.691 180.382 293.691 180.354C293.691 180.046 293.62 179.83 293.477 179.704C293.285 179.534 292.998 179.448 292.619 179.448C292.265 179.448 292.003 179.511 291.834 179.635C291.664 179.759 291.539 179.979 291.459 180.295L290.721 180.194C290.788 179.879 290.899 179.624 291.052 179.43C291.206 179.236 291.428 179.086 291.719 178.981C292.009 178.877 292.346 178.824 292.728 178.824C293.108 178.824 293.416 178.868 293.655 178.958C293.892 179.047 294.066 179.16 294.178 179.295C294.289 179.431 294.367 179.602 294.412 179.808C294.437 179.936 294.45 180.168 294.45 180.503V181.509C294.45 182.21 294.466 182.653 294.498 182.839C294.53 183.025 294.594 183.203 294.688 183.373H293.901C293.822 183.22 293.772 183.037 293.749 182.828ZM293.687 181.144C293.414 181.256 293.002 181.35 292.456 181.429C292.145 181.474 291.927 181.524 291.798 181.58C291.669 181.636 291.57 181.718 291.5 181.825C291.431 181.932 291.395 182.052 291.395 182.183C291.395 182.384 291.471 182.552 291.624 182.686C291.776 182.82 291.999 182.887 292.292 182.887C292.583 182.887 292.841 182.824 293.067 182.697C293.294 182.57 293.46 182.396 293.566 182.175C293.646 182.005 293.687 181.754 293.687 181.421V181.144Z" fill="#263238"/>
<path d="M295.314 182.048L296.06 181.931C296.102 182.23 296.218 182.459 296.41 182.618C296.601 182.777 296.869 182.857 297.213 182.857C297.559 182.857 297.817 182.787 297.984 182.646C298.152 182.505 298.236 182.339 298.236 182.149C298.236 181.979 298.162 181.845 298.013 181.747C297.91 181.68 297.653 181.595 297.242 181.492C296.688 181.352 296.305 181.232 296.092 181.13C295.878 181.028 295.716 180.887 295.606 180.707C295.496 180.527 295.441 180.328 295.441 180.11C295.441 179.912 295.486 179.728 295.577 179.559C295.668 179.39 295.792 179.25 295.948 179.138C296.065 179.051 296.225 178.978 296.427 178.918C296.63 178.858 296.847 178.828 297.078 178.828C297.428 178.828 297.734 178.878 297.998 178.979C298.262 179.08 298.457 179.215 298.583 179.387C298.708 179.559 298.795 179.789 298.843 180.076L298.106 180.177C298.072 179.948 297.975 179.769 297.814 179.64C297.654 179.511 297.427 179.448 297.133 179.448C296.787 179.448 296.539 179.505 296.392 179.619C296.244 179.734 296.169 179.868 296.169 180.021C296.169 180.119 296.2 180.207 296.262 180.285C296.324 180.366 296.419 180.433 296.551 180.486C296.626 180.514 296.848 180.578 297.217 180.678C297.75 180.821 298.122 180.937 298.333 181.028C298.544 181.119 298.71 181.251 298.83 181.424C298.95 181.597 299.01 181.812 299.01 182.069C299.01 182.32 298.937 182.557 298.79 182.779C298.643 183.001 298.432 183.173 298.155 183.295C297.879 183.417 297.566 183.477 297.216 183.477C296.638 183.477 296.197 183.357 295.894 183.117C295.592 182.876 295.399 182.52 295.314 182.048Z" fill="#263238"/>
<path d="M301.554 182.702L301.663 183.368C301.45 183.412 301.261 183.435 301.093 183.435C300.82 183.435 300.608 183.391 300.456 183.305C300.306 183.219 300.199 183.105 300.138 182.964C300.077 182.823 300.046 182.526 300.046 182.074V179.514H299.492V178.927H300.046V177.825L300.796 177.372V178.927H301.554V179.514H300.796V182.116C300.796 182.331 300.809 182.47 300.835 182.531C300.862 182.592 300.905 182.641 300.965 182.677C301.026 182.713 301.111 182.732 301.223 182.732C301.307 182.731 301.417 182.722 301.554 182.702Z" fill="#263238"/>
<path d="M304.675 183.376V178.927H305.354V179.559C305.681 179.07 306.153 178.826 306.77 178.826C307.039 178.826 307.285 178.874 307.509 178.971C307.735 179.067 307.902 179.194 308.014 179.35C308.126 179.507 308.204 179.692 308.249 179.907C308.276 180.047 308.291 180.291 308.291 180.64V183.376H307.536V180.669C307.536 180.362 307.507 180.132 307.448 179.98C307.389 179.828 307.286 179.706 307.137 179.615C306.988 179.524 306.812 179.479 306.611 179.479C306.29 179.479 306.012 179.581 305.78 179.785C305.547 179.989 305.429 180.375 305.429 180.945V183.375H304.675V183.376Z" fill="#263238"/>
<path d="M312.35 182.828C312.071 183.065 311.802 183.233 311.543 183.331C311.285 183.429 311.008 183.477 310.712 183.477C310.223 183.477 309.848 183.357 309.585 183.119C309.322 182.88 309.19 182.575 309.19 182.203C309.19 181.985 309.24 181.787 309.339 181.606C309.438 181.426 309.567 181.281 309.729 181.172C309.889 181.063 310.07 180.981 310.271 180.924C310.419 180.885 310.643 180.847 310.942 180.811C311.55 180.738 311.999 180.652 312.287 180.551C312.29 180.447 312.291 180.382 312.291 180.354C312.291 180.046 312.22 179.83 312.077 179.704C311.885 179.534 311.599 179.448 311.219 179.448C310.865 179.448 310.603 179.511 310.434 179.635C310.264 179.759 310.139 179.979 310.059 180.295L309.321 180.194C309.388 179.879 309.499 179.624 309.652 179.43C309.806 179.236 310.028 179.086 310.319 178.981C310.609 178.877 310.946 178.824 311.328 178.824C311.708 178.824 312.017 178.868 312.255 178.958C312.492 179.047 312.666 179.16 312.778 179.295C312.889 179.431 312.967 179.602 313.012 179.808C313.037 179.936 313.05 180.168 313.05 180.503V181.509C313.05 182.21 313.066 182.653 313.098 182.839C313.13 183.025 313.194 183.203 313.289 183.373H312.502C312.423 183.22 312.372 183.037 312.35 182.828ZM312.287 181.144C312.014 181.256 311.602 181.35 311.055 181.429C310.744 181.474 310.526 181.524 310.397 181.58C310.268 181.636 310.169 181.718 310.099 181.825C310.03 181.932 309.994 182.052 309.994 182.183C309.994 182.384 310.07 182.552 310.223 182.686C310.375 182.82 310.598 182.887 310.891 182.887C311.182 182.887 311.44 182.824 311.666 182.697C311.893 182.57 312.059 182.396 312.165 182.175C312.245 182.005 312.286 181.754 312.286 181.421V181.144H312.287Z" fill="#263238"/>
<path d="M314.219 183.376V178.927H314.894V179.551C315.034 179.333 315.219 179.158 315.451 179.025C315.683 178.893 315.947 178.826 316.243 178.826C316.573 178.826 316.844 178.894 317.053 179.031C317.264 179.168 317.413 179.359 317.499 179.605C317.852 179.085 318.31 178.826 318.874 178.826C319.314 178.826 319.654 178.948 319.892 179.193C320.129 179.437 320.248 179.814 320.248 180.322V183.376H319.498V180.573C319.498 180.271 319.474 180.054 319.425 179.921C319.376 179.789 319.287 179.682 319.158 179.601C319.03 179.52 318.879 179.479 318.706 179.479C318.393 179.479 318.134 179.583 317.927 179.791C317.72 179.999 317.617 180.332 317.617 180.79V183.375H316.862V180.484C316.862 180.149 316.801 179.897 316.678 179.73C316.555 179.563 316.354 179.479 316.074 179.479C315.861 179.479 315.665 179.535 315.485 179.647C315.304 179.759 315.175 179.922 315.093 180.137C315.012 180.352 314.971 180.662 314.971 181.067V183.376H314.219Z" fill="#263238"/>
<path d="M324.411 181.944L325.19 182.04C325.067 182.495 324.839 182.849 324.507 183.1C324.174 183.351 323.75 183.477 323.234 183.477C322.583 183.477 322.067 183.277 321.685 182.876C321.304 182.475 321.114 181.913 321.114 181.189C321.114 180.44 321.306 179.859 321.692 179.446C322.078 179.032 322.577 178.826 323.192 178.826C323.787 178.826 324.273 179.029 324.65 179.433C325.027 179.838 325.215 180.408 325.215 181.143C325.215 181.187 325.213 181.255 325.211 181.344H321.893C321.92 181.833 322.059 182.207 322.307 182.467C322.556 182.727 322.866 182.857 323.238 182.857C323.514 182.857 323.751 182.784 323.946 182.639C324.142 182.494 324.297 182.262 324.411 181.944ZM321.936 180.725H324.42C324.386 180.351 324.291 180.07 324.135 179.883C323.895 179.593 323.583 179.447 323.2 179.447C322.854 179.447 322.562 179.563 322.327 179.795C322.091 180.026 321.96 180.336 321.936 180.725Z" fill="#263238"/>
</g>
<path d="M299.036 243.915H333.238C336.241 243.915 338.698 246.372 338.698 249.375V255.556C338.698 258.559 336.241 261.016 333.238 261.016H299.036C296.033 261.016 293.576 258.559 293.576 255.556V249.375C293.576 246.372 296.033 243.915 299.036 243.915Z" fill="#407BFF"/>
<path opacity="0.2" d="M353.636 243.915H387.838C390.841 243.915 393.298 246.372 393.298 249.375V255.556C393.298 258.559 390.841 261.016 387.838 261.016H353.636C350.633 261.016 348.176 258.559 348.176 255.556V249.375C348.176 246.372 350.633 243.915 353.636 243.915Z" fill="#407BFF"/>
<path d="M136.805 87.1761C129.419 86.0671 127.743 92.7791 119.974 92.5151C121.196 96.5861 125.249 98.3111 125.249 98.3111C125.249 98.3111 119.079 102.795 120.455 109.491C125.29 104.02 131.783 109.213 138.845 108.996C153.519 108.545 158.816 101.747 153.735 95.9161C158.458 89.9431 145.553 86.7401 145.845 82.2881C144.368 82.9761 144.423 85.8171 144.423 85.8171C144.423 85.8171 139.096 86.2691 134.502 82.5381C134.313 85.2811 136.805 87.1761 136.805 87.1761Z" fill="#263238"/>
<path d="M150.96 95.6423C154.254 96.2683 156.387 93.7993 156.407 91.7573C158.75 96.6953 155.137 99.3833 150.96 95.6423Z" fill="#263238"/>
<path d="M157.894 396.789L150.935 400.798L140.688 385.337L147.647 381.328L157.894 396.789Z" fill="#FF8B7B"/>
<path d="M150.104 400.209L157.922 395.705C158.207 395.541 158.536 395.614 158.714 395.879L162.679 401.795C163.09 402.409 162.84 403.358 162.178 403.724C159.429 405.246 158.036 405.836 154.598 407.816C152.483 409.034 144.844 413.121 139.202 412.691C135.915 412.44 135.841 409.439 137.261 409.11C143.63 407.636 148.083 403.985 149.153 401.323C149.347 400.844 149.688 400.449 150.104 400.209Z" fill="#263238"/>
<path opacity="0.2" d="M147.651 381.332L140.69 385.342L145.975 393.31L152.937 389.299L147.651 381.332Z" fill="black"/>
<path d="M108.993 201.937C108.993 201.937 92.1497 268.173 90.3927 291.058C88.4687 316.119 141.73 392.438 141.73 392.438L154.761 385.623C154.761 385.623 130.101 342.091 113.646 292.868C121.636 267.114 137.544 204.116 137.544 204.116L108.993 201.937Z" fill="#407BFF"/>
<g opacity="0.3">
<path d="M108.993 201.937C108.993 201.937 92.1497 268.173 90.3927 291.058C88.4687 316.119 141.73 392.438 141.73 392.438L154.761 385.623C154.761 385.623 130.101 342.091 113.646 292.868C121.636 267.114 137.544 204.116 137.544 204.116L108.993 201.937Z" fill="white"/>
</g>
<path opacity="0.4" d="M123.915 227.975C117.309 239.546 115.078 267.211 116.775 282.32C121.396 266.229 127.222 244.15 131.534 227.559C128.627 225.321 125.781 224.703 123.915 227.975Z" fill="#407BFF"/>
<path d="M155.214 385.582L141.265 392.89L137.233 388.211L153.763 380.854L155.214 385.582Z" fill="#407BFF"/>
<path d="M148.341 402.832C148.984 402.462 149.618 401.921 150.051 401.517C150.105 401.467 150.124 401.39 150.1 401.321C150.075 401.251 150.012 401.203 149.939 401.197C149.627 401.172 146.876 400.971 146.22 401.792C146.067 401.982 146.029 402.214 146.109 402.465C146.24 402.878 146.48 403.132 146.822 403.221C147.257 403.333 147.802 403.143 148.341 402.832ZM149.469 401.541C148.368 402.504 147.429 402.994 146.917 402.861C146.705 402.806 146.557 402.64 146.466 402.353C146.424 402.22 146.439 402.116 146.513 402.024C146.866 401.582 148.363 401.496 149.469 401.541Z" fill="#407BFF"/>
<path d="M150.016 401.543C150.041 401.529 150.063 401.508 150.08 401.482C150.115 401.428 150.119 401.36 150.091 401.302C150.049 401.214 149.045 399.139 147.95 398.872C147.655 398.8 147.38 398.859 147.131 399.044C146.833 399.267 146.725 399.56 146.828 399.87C147.108 400.715 148.988 401.558 149.92 401.568C149.955 401.568 149.988 401.559 150.016 401.543ZM147.43 399.293C147.565 399.215 147.706 399.196 147.861 399.234C148.514 399.392 149.236 400.497 149.6 401.163C148.699 401.005 147.368 400.308 147.185 399.754C147.15 399.649 147.138 399.506 147.358 399.342C147.381 399.323 147.406 399.307 147.43 399.293Z" fill="#407BFF"/>
<path d="M120.904 145.106L113.666 157.553C112.483 159.623 111.314 161.687 110.22 163.718C109.678 164.73 109.178 165.747 108.706 166.704C108.246 167.638 107.831 168.637 107.653 169.133L107.265 165.433C107.363 165.889 107.421 166.358 107.509 166.794C107.609 167.207 107.657 167.673 107.759 168.056C107.835 168.468 107.925 168.869 108.014 169.261L108.144 169.842C108.165 169.947 108.178 170.035 108.187 170.129C108.181 170.169 108.199 170.232 108.175 170.268C108.133 170.309 108.219 170.366 107.968 170.369C109.725 170.64 110.931 172.284 110.66 174.042C110.389 175.799 108.745 177.005 106.987 176.734C106.568 176.706 106.488 176.719 106.283 176.71L105.784 176.687C105.475 176.657 105.17 176.619 104.886 176.568C104.308 176.456 103.772 176.305 103.25 176.11C102.214 175.721 101.301 175.18 100.465 174.576C99.6369 173.954 98.9129 173.284 98.2679 172.552C97.9539 172.189 97.6639 171.82 97.3619 171.444C97.0839 171.075 96.8409 170.683 96.5819 170.296C95.9979 169.426 95.8249 168.4 96.0179 167.448L96.1929 166.596C96.5829 164.7 97.0509 163.399 97.5249 162.065C97.9959 160.756 98.5229 159.541 99.0409 158.339C100.083 155.948 101.192 153.66 102.348 151.413C103.489 149.16 104.7 146.963 105.929 144.784C107.174 142.602 108.426 140.48 109.81 138.329L109.814 138.323C111.756 135.303 115.779 134.429 118.799 136.371C121.734 138.256 122.635 142.119 120.904 145.106Z" fill="#FF8B7B"/>
<path d="M116.848 133.041C124.991 132.428 128.988 138.185 125.111 147.661C122.98 152.89 119.63 159.095 117.176 163.423C116.531 164.571 115.937 165.592 115.454 166.415L99.1357 153.703C102.306 146.194 111.401 133.452 116.848 133.041Z" fill="#263238"/>
<path opacity="0.3" d="M115.069 142.312C120.47 138.815 112.963 155.238 109.866 162.064L105.072 158.327C106.364 153.463 110.922 144.998 115.069 142.312Z" fill="black"/>
<path d="M137.889 408.137L129.9 407.527L130.128 388.935L138.117 389.545L137.889 408.137Z" fill="#FF8B7B"/>
<path d="M129.545 406.57L138.521 407.255C138.848 407.28 139.078 407.526 139.076 407.846L139.025 414.985C139.02 415.726 138.281 416.37 137.529 416.3C134.408 416.008 132.928 415.71 128.981 415.409C126.553 415.224 116.211 414.688 112.858 414.432C109.578 414.182 109.827 410.866 111.269 410.674C117.734 409.813 125.759 408.558 128.136 406.957C128.564 406.668 129.067 406.533 129.545 406.57Z" fill="#263238"/>
<path opacity="0.2" d="M138.12 389.551L130.128 388.94L130.014 398.524L138.006 399.134L138.12 389.551Z" fill="black"/>
<path d="M124.592 203.128C124.592 203.128 119.685 263.754 119.415 286.74C119.119 311.912 126.744 395.959 126.744 395.959L141.377 397.076C141.377 397.076 140.283 315.562 142.862 290.814C145.661 263.954 151.722 205.199 151.722 205.199L124.592 203.128Z" fill="#407BFF"/>
<path opacity="0.3" d="M124.592 203.128C124.592 203.128 119.685 263.754 119.415 286.74C119.119 311.912 126.744 395.959 126.744 395.959L141.377 397.076C141.377 397.076 140.283 315.562 142.862 290.814C145.661 263.954 151.722 205.199 151.722 205.199L124.592 203.128Z" fill="white"/>
<path d="M141.966 397.121L126.154 395.914L125.657 390.291L143.049 392.491L141.966 397.121Z" fill="#407BFF"/>
<path d="M126.617 407.746C127.355 407.802 128.182 407.712 128.765 407.623C128.838 407.612 128.897 407.559 128.915 407.488C128.934 407.416 128.909 407.341 128.852 407.294C128.609 407.097 126.453 405.377 125.451 405.686C125.219 405.757 125.056 405.928 124.981 406.18C124.857 406.596 124.913 406.942 125.145 407.209C125.442 407.548 125.998 407.699 126.617 407.746ZM128.272 407.314C126.823 407.49 125.774 407.365 125.426 406.965C125.282 406.8 125.254 406.579 125.339 406.289C125.379 406.156 125.45 406.077 125.563 406.043C126.103 405.878 127.386 406.653 128.272 407.314Z" fill="#407BFF"/>
<path d="M128.723 407.624C128.752 407.626 128.782 407.622 128.81 407.61C128.869 407.585 128.911 407.531 128.92 407.468C128.934 407.371 129.271 405.086 128.518 404.247C128.315 404.021 128.055 403.914 127.747 403.927C127.376 403.943 127.122 404.125 127.033 404.439C126.789 405.297 127.866 407.056 128.63 407.591C128.658 407.611 128.69 407.622 128.723 407.624ZM127.853 404.301C128.008 404.313 128.136 404.377 128.242 404.495C128.692 404.995 128.667 406.317 128.593 407.074C127.939 406.434 127.232 405.105 127.392 404.543C127.422 404.436 127.493 404.311 127.766 404.299C127.796 404.298 127.825 404.299 127.853 404.301Z" fill="#407BFF"/>
<path d="M108.992 201.937L151.721 205.199C152.284 201.405 152.25 188.915 153.989 173.147C155.158 162.559 157.131 150.494 160.62 138.599C160.873 137.751 161.125 136.914 161.389 136.067C161.389 136.067 159.253 135.459 156.181 134.77C153.631 134.196 150.425 133.561 147.267 133.168C141.832 132.493 133.945 131.717 129.109 131.782C126.3 131.828 123.542 132.084 121.336 132.338C118.517 132.687 116.846 133.041 116.846 133.041C116.846 133.041 107.521 155.911 108.992 201.937Z" fill="#407BFF"/>
<path d="M110.887 169.473C110.887 169.473 112.543 167.085 114.055 166.361C115.133 165.845 115.955 165.327 116.441 164.994C116.778 164.763 117.232 165.002 117.257 165.412C117.294 166.04 116.962 167.044 115.312 168.417C115.047 170.384 111.981 172.33 111.981 172.33L110.887 169.473Z" fill="#FF8B7B"/>
<path opacity="0.3" d="M117.046 174.741L125.924 175.419L121.114 157.438L112.235 156.76L117.046 174.741Z" fill="black"/>
<path d="M116.44 174.695L125.319 175.373L120.509 157.392L111.63 156.714L116.44 174.695Z" fill="white"/>
<path opacity="0.3" d="M153.989 173.151C155.158 162.563 157.131 150.498 160.621 138.603C157.782 138.137 152.881 138.044 151.757 142.598C150.545 147.491 150.846 159.242 153.989 173.151Z" fill="black"/>
<path d="M164.394 142.314C164.842 143.708 165.198 144.919 165.541 146.223C165.893 147.504 166.194 148.794 166.489 150.087C167.057 152.679 167.576 155.287 167.937 157.953C168.308 160.62 168.598 163.313 168.69 166.091C168.791 168.874 168.719 171.72 168.317 174.709L168.274 175.031C168.106 176.282 167.524 177.379 166.689 178.2C166.002 178.875 165.339 179.325 164.727 179.683C164.141 180.008 163.567 180.272 163.068 180.453C162.044 180.838 161.153 181.044 160.313 181.193C158.643 181.483 157.166 181.565 155.724 181.602C152.86 181.663 150.185 181.42 147.544 181.13C144.909 180.808 142.328 180.388 139.774 179.872C137.212 179.346 134.715 178.773 132.164 178.021C130.442 177.513 129.457 175.705 129.966 173.983C130.38 172.581 131.655 171.668 133.044 171.651H133.106L140.562 171.568C143.042 171.53 145.506 171.48 147.924 171.356C150.335 171.256 152.725 171.054 154.906 170.746C155.984 170.587 157.026 170.379 157.825 170.12C158.217 169.991 158.548 169.852 158.694 169.759C158.785 169.712 158.773 169.683 158.736 169.697C158.66 169.722 158.51 169.795 158.27 170.023L156.641 173.514C156.706 171.462 156.546 169.237 156.316 166.974C156.057 164.704 155.659 162.381 155.233 160.053C154.779 157.725 154.272 155.377 153.712 153.039C153.445 151.867 153.14 150.7 152.851 149.535L151.966 146.134L151.915 145.939C151.011 142.465 153.095 138.917 156.568 138.013C159.919 137.142 163.342 139.064 164.394 142.314Z" fill="#FF8B7B"/>
<path d="M161.391 136.067C153.572 133.616 148.896 138.618 150.198 148.811C150.909 154.433 152.901 161.19 154.38 165.968L171.612 160.667C170.108 152.624 166.621 137.708 161.391 136.067Z" fill="#263238"/>
<path d="M129.977 131.783C135.343 130.936 136.493 127.739 136.383 124.121C136.367 123.242 136.278 122.324 136.146 121.414L143.139 116.42L148.275 112.758C146.527 118.511 144.278 129.059 147.967 133.264C147.967 133.264 140.809 138.544 132.099 141.945C130.723 142.482 129.13 141.767 128.695 140.355C127.028 134.94 129.977 131.783 129.977 131.783Z" fill="#FF8B7B"/>
<path opacity="0.2" d="M136.145 121.414C136.278 122.324 136.367 123.241 136.382 124.121C138.884 123.813 142.764 121.898 143.313 119.14C143.501 118.2 143.157 117.083 143.137 116.42L136.145 121.414Z" fill="black"/>
<path d="M148.688 100.919C149.064 108.891 149.686 113.528 146.161 118.127C140.859 125.045 130.774 122.745 128.044 115.109C125.587 108.235 125.384 96.3529 132.728 92.1579C139.963 88.0249 148.311 92.9469 148.688 100.919Z" fill="#FF8B7B"/>
<path d="M145.352 96.082C143.099 100.155 144.813 103.138 144.813 103.138L145.23 101.221C145.23 101.221 148.071 104.238 147.265 107.699C152.21 105.051 152.77 94.751 145.352 96.082Z" fill="#263238"/>
<path d="M149.505 97.302C140.502 99.279 135.437 98.375 133.838 98.027C137.606 97.773 138.596 96.063 138.596 96.063C138.596 96.063 129.614 98.268 127.767 97.563C129.58 92.077 133.792 89.554 142.303 89.887C150.813 90.221 149.505 97.302 149.505 97.302Z" fill="#263238"/>
<path d="M152.52 108.344C151.607 110.315 150.011 111.753 148.506 112.434C146.242 113.457 145.12 111.391 145.758 108.948C146.332 106.749 148.202 103.567 150.47 103.578C152.704 103.589 153.563 106.09 152.52 108.344Z" fill="#FF8B7B"/>
<path d="M137.018 104.753C137.088 105.397 136.806 105.965 136.388 106.022C135.97 106.079 135.575 105.603 135.505 104.959C135.435 104.315 135.717 103.747 136.135 103.69C136.553 103.633 136.948 104.109 137.018 104.753Z" fill="#263238"/>
<path d="M129.791 105.738C129.861 106.382 129.579 106.95 129.161 107.007C128.743 107.064 128.348 106.588 128.278 105.944C128.208 105.3 128.49 104.732 128.908 104.675C129.326 104.619 129.721 105.094 129.791 105.738Z" fill="#263238"/>
<path d="M132.124 105.745C132.124 105.745 131.073 109.657 129.668 111.667C130.914 112.576 132.785 111.828 132.785 111.828L132.124 105.745Z" fill="#FF5652"/>
<path d="M135.584 113.206C138.042 112.567 139.007 110.672 139.05 110.584C139.096 110.491 139.058 110.376 138.964 110.329C138.87 110.281 138.757 110.32 138.71 110.413C138.699 110.434 137.604 112.593 134.792 112.974C134.687 112.988 134.616 113.084 134.632 113.188C134.647 113.292 134.743 113.365 134.847 113.35C135.106 113.316 135.352 113.267 135.584 113.206Z" fill="#263238"/>
<path d="M138.998 102.099C139.058 102.083 139.115 102.053 139.163 102.007C139.313 101.862 139.318 101.622 139.172 101.47C137.731 99.966 136.007 100.305 135.935 100.321C135.738 100.342 135.6 100.564 135.644 100.77C135.688 100.975 135.89 101.107 136.094 101.065C136.166 101.051 137.494 100.812 138.626 101.994C138.726 102.097 138.869 102.132 138.998 102.099Z" fill="#263238"/>
<path d="M126.414 103.66C126.531 103.629 126.631 103.543 126.674 103.421C127.244 101.795 128.601 101.416 128.614 101.413C128.816 101.359 128.935 101.151 128.88 100.949C128.825 100.747 128.618 100.626 128.416 100.679L128.414 100.68C128.342 100.699 126.658 101.169 125.958 103.165C125.889 103.362 125.993 103.58 126.191 103.651C126.266 103.676 126.343 103.678 126.414 103.66Z" fill="#263238"/>
<path d="M134.798 172.371L126.595 167.304L127.349 177.388C127.349 177.388 134.218 179.85 135.164 176.208L134.798 172.371Z" fill="#FF8B7B"/>
<path d="M129.199 168.912C129.199 168.912 127.498 166.53 125.973 165.81C124.886 165.297 123.853 164.376 123.361 164.045C123.019 163.815 122.57 164.056 122.553 164.466C122.527 165.094 123.078 166.503 124.754 167.87C125.056 169.836 128.158 171.773 128.158 171.773L129.199 168.912Z" fill="#FF8B7B"/>
<path d="M119.501 168.154L120.226 174.465C120.289 175.009 120.673 175.463 121.199 175.615L127.348 177.388L126.588 167.392L120.997 166.676C120.135 166.564 119.402 167.289 119.501 168.154Z" fill="#FF8B7B"/>
<path d="M106.963 171.071L114.07 167.476L113.894 176.361C113.894 176.361 106.519 178.56 106.079 174.813L106.963 171.071Z" fill="#FF8B7B"/>
<path d="M117.183 167.811L117.184 174.827C117.184 175.223 116.919 175.567 116.538 175.667L113.894 176.361L114.07 167.476L116.085 166.957C116.64 166.814 117.183 167.236 117.183 167.811Z" fill="#FF8B7B"/>
<path d="M333.161 290.907C339.872 297.589 338.9 304.371 334.119 309.173C329.339 313.974 322.56 314.976 315.849 308.294C309.138 301.612 305.037 289.778 309.817 284.977C314.598 280.175 326.45 284.225 333.161 290.907Z" fill="#407BFF"/>
<path d="M356.911 334.742C348.616 336.205 343.618 332.281 341.88 326.659C340.142 321.037 342.321 315.846 350.616 314.383C358.911 312.92 370.18 315.738 371.918 321.36C373.657 326.982 365.206 333.279 356.911 334.742Z" fill="#407BFF"/>
<path d="M313.126 347.868C319.104 349.844 323.224 347.479 325.115 343.507C327.006 339.535 325.953 335.461 319.975 333.485C313.997 331.509 305.358 332.381 303.466 336.352C301.575 340.324 307.148 345.892 313.126 347.868Z" fill="#407BFF"/>
<path d="M361.553 290.524C355.809 298.385 348.718 299.034 343.038 295.638C337.357 292.243 335.237 286.089 340.982 278.228C346.726 270.367 358.159 263.775 363.84 267.171C369.521 270.566 367.298 282.663 361.553 290.524Z" fill="#407BFF"/>
<path d="M328.09 393.605C327.562 393.605 327.12 393.191 327.092 392.657C324.016 333.401 346.464 287.368 346.691 286.91C346.937 286.415 347.536 286.211 348.031 286.459C348.526 286.704 348.728 287.304 348.483 287.799C348.258 288.252 326.041 333.843 329.089 392.554C329.118 393.106 328.694 393.575 328.142 393.605C328.125 393.605 328.107 393.605 328.09 393.605Z" fill="#263238"/>
<path d="M336.391 319.645C336.359 319.645 336.328 319.643 336.295 319.64C335.746 319.588 335.342 319.1 335.394 318.551C335.406 318.421 336.509 305.512 327.659 301.277C327.161 301.039 326.95 300.441 327.189 299.943C327.427 299.444 328.026 299.236 328.522 299.472C338.638 304.314 337.44 318.153 337.385 318.74C337.336 319.257 336.9 319.645 336.391 319.645Z" fill="#263238"/>
<path d="M329.143 357.676C328.628 357.676 328.191 357.28 328.147 356.759C328.137 356.635 326.992 344.35 316.215 340.933C315.689 340.766 315.397 340.205 315.564 339.678C315.731 339.15 316.294 338.859 316.819 339.027C328.892 342.854 330.129 356.46 330.139 356.596C330.183 357.147 329.774 357.628 329.224 357.673C329.198 357.675 329.17 357.676 329.143 357.676Z" fill="#263238"/>
<path d="M331.305 342.383C331.225 342.383 331.145 342.374 331.065 342.354C330.529 342.222 330.201 341.68 330.333 341.144C335.014 322.153 349.778 322.606 349.93 322.608C350.482 322.633 350.909 323.1 350.884 323.652C350.859 324.205 350.39 324.638 349.84 324.606C349.304 324.588 336.551 324.275 332.275 341.623C332.162 342.078 331.754 342.383 331.305 342.383Z" fill="#263238"/>
<path d="M369.651 384.897C369.651 397.172 364.036 408.154 355.209 415.453C354.578 415.975 353.84 416.234 353.097 416.234H305.645C304.902 416.234 304.164 415.975 303.533 415.453C294.706 408.154 289.091 397.172 289.091 384.897C289.091 381.005 289.652 377.242 290.709 373.693C290.712 373.682 290.716 373.67 290.719 373.659C291.317 371.646 292.815 370.359 294.446 370.359H364.296C365.927 370.359 367.426 371.646 368.023 373.659C368.026 373.67 368.03 373.682 368.033 373.693C369.09 377.242 369.651 381.005 369.651 384.897Z" fill="#407BFF"/>
<path d="M369.532 387.812C346.578 395.269 323.93 404.061 301.949 414.072C302.223 414.324 302.51 414.562 302.79 414.806C324.476 404.948 346.804 396.271 369.438 388.901C369.475 388.54 369.505 388.177 369.532 387.812Z" fill="white"/>
<path d="M355.149 370.359H353.415C334.934 383.429 316.961 397.531 299.447 411.543C299.672 411.789 299.895 412.036 300.126 412.277C317.975 397.998 336.305 383.627 355.149 370.359Z" fill="white"/>
<path d="M343.903 416.234C352.202 409.432 360.345 402.398 368.279 395.187C368.435 394.609 368.583 394.028 368.713 393.44C360.145 401.266 351.328 408.888 342.329 416.234H343.903Z" fill="white"/>
<path d="M343.954 370.359C325.086 376.546 307.388 386.325 290.886 396.645C290.989 396.973 291.091 397.302 291.202 397.627C308.585 386.745 327.292 376.455 347.269 370.359H343.954Z" fill="white"/>
<path d="M289.697 378.103C295.023 375.291 300.47 372.712 306.014 370.36H303.514C298.912 372.371 294.375 374.528 289.925 376.856C289.839 377.268 289.77 377.686 289.697 378.103Z" fill="white"/>
<path d="M314.541 370.359H313.067L289.726 391.939C289.796 392.324 289.877 392.705 289.958 393.087L314.541 370.359Z" fill="white"/>
</svg>
