<svg viewBox="0 0 289 81" fill="none" xmlns="http://www.w3.org/2000/svg">
<path d="M25.4495 0.167512C25.1069 0.222803 23.9078 0.416318 22.7577 0.609833L20.6776 0.941574L25.4495 1.10744C30.7841 1.3286 33.6961 1.85386 38.0764 3.42963C42.163 4.89482 47.1795 7.96342 49.7979 10.5897C50.7523 11.5573 50.7767 11.5849 50.2873 12.0272C48.9904 13.1883 41.3799 16.8375 40.2543 16.8375C40.1075 16.8375 39.3244 15.8146 38.5413 14.5706C37.0241 12.1931 31.714 5.86239 30.1968 4.67366C29.7318 4.28663 29.169 3.81666 28.9732 3.62314C28.2147 2.82144 28.7041 3.73372 30.1723 5.89004C32.6439 9.45625 36.9507 17.0033 36.9507 17.7498C36.9507 17.9433 36.1677 18.1644 31.9342 19.1873C29.7808 19.6849 27.9455 20.0167 27.8721 19.9337C27.7742 19.8231 27.5295 18.745 27.2848 17.5286C26.6241 13.8795 24.96 6.85762 24.4462 5.36478L23.9567 3.98253L24.1036 6.88526C24.1525 8.48867 24.3972 12.1655 24.6419 15.0958C24.8622 18.0262 25.009 20.4866 24.9356 20.5696C24.7153 20.8184 18.5487 21.5371 16.3953 21.5648C14.8536 21.5648 14.4865 21.6477 15.0004 21.8136C15.8814 22.1177 21.2894 22.6429 23.4918 22.6429H25.1803L25.3271 23.804C25.6207 26.4027 25.9389 32.2911 25.9389 35.5255V38.8982L24.3238 39.0917C21.1671 39.4788 15.0738 38.5112 12.9204 37.2672C11.3543 36.3825 9.95944 36.6866 9.22532 38.1242C8.63802 39.23 8.71143 39.7276 9.61685 40.7505C10.2776 41.4969 10.8404 41.7457 13.0917 42.3539C16.175 43.1832 21.3139 43.7085 23.9567 43.4597L25.7676 43.2938L25.5963 45.2013C25.1803 50.2051 25.1558 52.1402 25.425 52.7208C26.0612 54.0754 27.2848 53.0525 27.9944 50.6197C28.2636 49.6522 29.1201 43.8743 29.1201 42.9621C29.1201 42.8791 29.3648 42.8238 29.6829 42.8238C31.2246 42.8238 39.5202 40.5016 42.2854 39.2853L43.5578 38.7324L43.7291 39.4511C44.0473 40.9716 43.9004 49.044 43.4844 52.1126C42.9461 55.8723 43.1908 57.4757 44.2675 57.4757C46.0783 57.4757 47.5955 48.5464 47.0816 40.8887L46.8614 37.4607L48.452 36.659C54.2516 33.701 57.7509 31.5723 57.7509 31.0194C57.7509 30.5218 57.6775 30.5494 54.9368 31.6552C52.612 32.5952 46.9348 34.5303 46.4943 34.5303C46.3965 34.5303 46.2252 34.0051 46.1273 33.3416C45.8336 31.3788 44.1207 25.7945 42.9461 23.0023C42.3343 21.5371 41.8449 20.2655 41.8449 20.1549C41.8449 20.0443 42.3588 19.7955 42.9705 19.6296C44.9527 19.0491 49.1127 17.0863 51.1927 15.704L53.2238 14.3771L54.0313 15.2617C54.4718 15.7593 55.4996 17.2522 56.3071 18.6068C57.0902 19.9614 57.7509 20.9566 57.7754 20.8184C57.7754 20.6801 57.7998 19.132 57.7998 17.3627L57.8243 14.1559L57.0168 13.0225L56.2092 11.889L56.9923 10.8938C57.9222 9.67741 57.9711 8.76512 57.1147 8.01871C56.1848 7.18936 55.2304 7.27229 54.2271 8.29516C53.3951 9.09686 53.3462 9.12451 52.9302 8.65454C52.0737 7.68697 48.4275 5.17127 45.956 3.8443C41.1597 1.27331 35.4335 -0.053648 29.4137 0.00164211C27.5784 0.0292872 25.792 0.0845773 25.4495 0.167512ZM39.5936 23.3894C40.8171 26.4303 41.9917 30.1348 42.6035 33.0098C42.8482 34.2262 43.0684 35.3044 43.0684 35.415C43.0684 35.7743 32.8886 38.2071 30.2213 38.4559L29.2424 38.5388L29.0711 33.8392C28.9977 31.2406 28.753 27.6743 28.5083 25.8498C28.2881 24.0528 28.1412 22.56 28.1902 22.5047C28.2391 22.4771 29.7074 22.2836 31.4448 22.1177C33.2067 21.9242 35.3357 21.5924 36.2166 21.3989C37.0975 21.2054 37.9785 21.0395 38.1987 21.0119C38.4679 20.9842 38.9084 21.7859 39.5936 23.3894Z" fill="#0E78C9"/>
<path d="M122.281 13.6306C120.372 14.4046 118.512 16.6992 117.949 19.049C117.802 19.6295 117.705 25.5179 117.705 33.5073V46.9981L120.714 46.9152L123.7 46.8323L123.822 34.5579L123.945 22.3111L128.839 28.7524C131.531 32.3186 135.275 37.2671 137.183 39.7828C139.068 42.2985 141.099 44.8142 141.686 45.3947C144.476 48.2422 147.363 48.1869 149.663 45.2289C151.523 42.8514 151.572 42.5749 151.67 27.3978L151.743 14.0729H148.685H145.601V26.4026C145.601 34.7514 145.528 38.6493 145.357 38.5387C145.21 38.4282 141.613 33.6732 137.33 27.9507C128.154 15.621 127.077 14.3493 125.437 13.7135C123.994 13.1606 123.504 13.1329 122.281 13.6306Z" fill="#E32C20"/>
<path d="M209.225 14.1834C205.897 15.2339 203.744 18.109 203.083 22.4216C202.912 23.638 202.863 26.8725 202.912 31.6827C203.034 39.8104 203.108 40.2803 204.625 42.7407C205.702 44.5377 206.387 45.2012 208.247 46.224L209.837 47.1087L223.492 47.1916L237.122 47.2745V42.8237V38.4005H223.051H208.981V36.6035V34.8066H223.051H237.122V30.5216V26.2367H223.051H208.981V24.3291C208.981 22.9192 209.079 22.394 209.348 22.2834C209.544 22.1728 215.735 22.1175 223.1 22.1175C230.466 22.0899 236.657 22.0899 236.829 22.0899C237.049 22.0899 237.122 21.067 237.122 17.9431V13.7964L223.737 13.824C213.826 13.8517 210.033 13.9346 209.225 14.1834Z" fill="#E32C20"/>
<path d="M60.1982 30.5215V46.9703H63.3794H66.5606V40.7502V34.5301H77.4502H88.3397V40.7502V46.9703H91.423H94.4818L94.4084 40.1144C94.335 33.3137 94.335 33.286 93.6743 31.7656L93.0136 30.2174L93.6253 28.1717C94.8978 24.1079 94.0658 19.5188 91.5453 16.6161C90.958 15.9526 89.9303 15.1232 89.2451 14.7362L87.9726 14.0727H74.0977H60.1982V30.5215ZM88.2907 24.3567L88.2173 26.3748H77.4502H66.683L66.6096 24.3567L66.5362 22.3662H77.4502H88.3641L88.2907 24.3567Z" fill="#E32C20"/>
<path d="M102.777 30.6599V47.2469H106.081H109.384V30.6599V14.0729H106.081H102.777V30.6599Z" fill="#E32C20"/>
<path d="M164.811 14.6809C163.758 15.0956 163 15.6485 162.119 16.6714C160.112 18.9383 159.99 19.5741 159.843 28.0611C159.794 32.0144 159.867 36.2717 159.99 37.5157C160.528 42.5195 163.147 45.8093 167.258 46.6663C169.093 47.0533 184.803 47.0533 186.957 46.6939C190.04 46.141 192.56 44.0953 193.784 41.1925C194.396 39.6721 194.42 39.5062 194.494 32.9267L194.567 26.2366H186.002H177.413V30.3833V34.5301H182.919H188.425V36.4652V38.4004H177.168H165.912V30.2451V22.0898H180.349H194.787V18.0813V14.0727L180.545 14.1004C166.768 14.128 166.23 14.128 164.811 14.6809Z" fill="#E32C20"/>
<path d="M245.442 30.5215V46.9703H248.501H251.56L251.609 40.8055L251.682 34.6683H262.571H273.461L273.534 40.8055L273.583 46.9703H276.642H279.701V41.2755C279.701 35.3041 279.407 32.7055 278.502 31.0744C278.061 30.2727 278.086 30.2174 278.673 28.4482C279.505 26.0154 279.53 22.6703 278.747 20.3482C277.768 17.5284 275.614 14.985 273.632 14.3492C273.069 14.1833 267.735 14.0727 259.097 14.0727H245.442V30.5215ZM273.461 24.3014V26.3748L262.523 26.4577L251.56 26.513V24.4949C251.56 23.3615 251.633 22.3662 251.731 22.2833C251.804 22.1727 256.747 22.1174 262.669 22.1451L273.461 22.228V24.3014Z" fill="#E32C20"/>
<path d="M239.569 36.0505V38.9532H241.282H242.995V36.0505V33.1478H241.282H239.569V36.0505Z" fill="#0E78C9"/>
<path d="M198.581 36.8524L197.112 37.1565L196.721 39.2299C196.305 41.4968 195.791 42.9896 195.032 44.206C194.763 44.6207 194.543 45.0353 194.543 45.0906C194.543 45.2288 201.909 43.7084 202.056 43.5425C202.104 43.5148 201.86 42.7408 201.493 41.8838C201.15 40.9991 200.783 39.5063 200.71 38.4834C200.612 37.4882 200.44 36.6312 200.294 36.5759C200.171 36.5483 199.388 36.6589 198.581 36.8524Z" fill="#0E78C9"/>
<path d="M254.007 38.511V39.7274L255.181 39.8932C259.88 40.6396 266.83 42.5471 269.864 43.9018L271.136 44.4823V42.713V40.9714L269.154 39.9485C268.053 39.368 266.267 38.5663 265.141 38.0963C263.159 37.3222 262.963 37.2946 258.558 37.2946H254.007V38.511Z" fill="#0E78C9"/>
<path d="M0 41.1097C0 41.2479 0.856478 42.2708 1.90872 43.4042C12.5046 54.9598 26.1103 62.7281 42.3345 66.4602C57.1393 69.8882 73.9018 70.1923 95.069 67.4278C102.704 66.4325 108.968 65.3544 119.98 63.1151C127.542 61.567 139.532 58.7749 149.541 56.2315C152.282 55.5404 159.28 53.7711 165.055 52.3336C170.855 50.8684 175.627 49.6243 175.676 49.5691C175.725 49.5138 173.792 49.4585 171.369 49.4585C165.643 49.4585 164.077 48.9609 161.018 46.1411L160.382 45.5605L155.757 46.7216C151.939 47.6615 150.862 48.0209 149.737 48.795C148.171 49.9008 146.042 50.3984 144.549 50.0114C143.815 49.8455 143.007 49.9008 141.343 50.3155C140.12 50.6196 138.138 51.0895 136.914 51.3936C135.715 51.6701 133.121 52.3059 131.163 52.7759C127.224 53.7435 116.065 56.2592 114.156 56.6462C113.496 56.7844 111.391 57.2267 109.507 57.6138C101.603 59.2725 89.7099 61.18 81.9771 62.037C67.466 63.5851 53.1995 63.5022 42.6526 61.7605C26.3795 59.079 13.41 53.0247 2.56943 43.1278C1.49272 42.1325 0.587299 41.2203 0.538357 41.1097C0.416003 40.8056 0 40.8332 0 41.1097Z" fill="#0E78C9"/>
<path d="M281.781 49.4308C281.634 49.569 281.267 49.7349 280.949 49.7902C280.435 49.8731 280.582 50.0666 282.148 51.366C283.127 52.1953 284.865 53.8817 285.99 55.098C287.14 56.3421 288.168 57.3649 288.29 57.4202C288.731 57.6137 288.486 56.6462 287.85 55.7615C287.018 54.6004 282.32 49.182 282.148 49.182C282.075 49.182 281.904 49.2926 281.781 49.4308Z" fill="#0E78C9"/>
<path d="M60.8101 50.0667C60.0026 53.0247 59.244 55.4851 58.6811 57.0609C57.947 59.0789 57.947 59.6871 58.6567 59.6871C59.3663 59.6871 61.6176 57.8349 62.2783 56.6738C62.8412 55.7339 64.6031 50.6472 64.6031 50.0114C64.6031 49.5967 60.9324 49.652 60.8101 50.0667Z" fill="#0E78C9"/>
<path d="M203.107 50.4537C202.496 50.509 200.587 50.7025 198.825 50.8407C186.174 52.0295 173.522 54.5452 145.723 61.4841C109.751 70.4411 97.2222 73.0397 81.9769 74.6155C53.4929 77.5458 32.6683 72.4592 17.7656 58.9131C16.5665 57.8073 15.5143 57.0056 15.4409 57.0885C15.2451 57.3097 18.2061 60.4612 20.8 62.811C37.0486 77.5735 58.852 82.7984 89.9299 79.4257C104.563 77.8499 116.774 75.3342 147.803 67.566C173.082 61.2353 179.322 59.7977 189.918 57.9179C206.46 54.9322 219.38 54.4622 229.732 56.3974C239.96 58.3049 247.375 62.2858 254.202 69.4735C255.891 71.2704 255.891 70.4964 254.202 68.34C247.84 60.3506 240.376 55.4022 230.368 52.6376C224.275 50.9513 220.873 50.5366 211.917 50.426C207.683 50.3984 203.719 50.3984 203.107 50.4537Z" fill="#E32C20"/>
</svg>
