<svg viewBox="0 0 3393 1076" fill="none" xmlns="http://www.w3.org/2000/svg">
<path d="M0 0L2.28513 799.313H243.376V826.144H291.823V1076H440.64V784.911H484.666V538.326H540.896V482.847H650.049H759.203V538.318H815.433V784.903H859.46V854.234H963.85V403.292H1542.7V823.951H1609.26V680.894H1962.36C1962.36 707.017 1962.36 902.562 1962.36 909.099H2150.49V656.196L2183.05 637.034V568.489L2215.97 549.113V481.633L2285.97 440.438H2332.82H2379.68L2449.68 481.633V549.113L2482.6 568.489V637.034L2515.16 656.196V909.099H2703.29V753.427H3006.74V490.926L3391.39 489.539L3393 0.00429413L0 0Z" fill="currentColor"/>
</svg>
