<svg viewBox="0 0 283 122" fill="none" xmlns="http://www.w3.org/2000/svg">
<g clip-path="url(#clip0_1418_1812)">
<path d="M16.1939 36.6C13.6784 37.9791 10.6912 40.2069 9.66921 41.5861C7.93977 43.7078 4.71671 50.8156 4.71671 52.513C4.71671 52.8313 10.5339 53.0435 17.6875 53.0435C24.8412 53.0435 30.6584 53.4678 30.6584 53.9982C30.6584 54.5287 29.2434 55.6956 27.5139 56.6504C25.1556 57.9235 21.6181 58.3478 13.757 58.3478H3.14449L2.35838 61.1061C1.88671 62.5913 1.57227 64.0765 1.57227 64.5008C1.57227 64.9252 7.70393 65.0313 15.0934 64.713C27.7498 64.1826 28.9289 63.9704 32.2306 61.5304C35.6109 58.9843 39.4628 52.6191 40.4062 48.2695C40.8778 46.2539 40.4848 46.1478 27.8284 46.36C18.2378 46.4661 14.9362 46.1478 15.172 45.2991C15.7223 42.9652 22.4042 41.48 32.152 41.5861C41.5853 41.5861 41.8998 41.5861 42.9217 39.1461C45.0442 34.0539 44.8084 33.9478 32.4664 33.9478C22.0112 33.9478 20.3603 34.2661 16.1939 36.6Z" fill="#CB0022"/>
<path d="M56.9932 35.8574C51.569 38.4035 48.346 41.6922 45.9877 47.1027C44.3368 51.0279 40.8779 62.6975 40.8779 64.607C40.8779 64.9253 48.5818 65.1375 57.9365 65.0314L75.0738 64.8192L76.0957 61.5305L77.039 58.3479H64.0682C49.3679 58.3479 49.761 58.5601 52.7482 50.0731C55.5782 42.3288 57.3863 41.4801 70.5929 41.4801H81.9915L83.0921 38.1914C83.6424 36.2818 84.114 34.5844 84.114 34.3722C84.114 34.1601 78.9257 33.9479 72.5582 33.9479C63.5965 34.054 59.9804 34.4783 56.9932 35.8574Z" fill="#CB0022"/>
<path d="M91.7399 35.0087L88.7527 35.5391L84.5863 50.073L80.4199 64.5009L83.5644 64.9252C86.0799 65.2435 86.7088 64.9252 87.2591 63.1217C87.5735 61.9548 88.4383 59.1965 89.0671 56.9687L90.3249 53.0435H100.937C106.912 53.0435 111.629 53.4678 111.629 53.9983C111.629 54.5287 110.921 57.1809 110.056 59.9391L108.484 64.8191L111.786 64.5009L115.087 64.1826L119.175 49.5426L123.263 34.9026L120.119 35.2209C117.21 35.5391 116.817 35.9635 115.638 39.7826C113.515 46.8904 113.987 46.6783 102.903 46.6783C91.5827 46.6783 91.8185 46.8904 94.0196 39.2522C94.7271 36.8122 95.1988 34.7965 95.0416 34.6904C94.8844 34.4783 93.3908 34.6904 91.7399 35.0087Z" fill="#CB0022"/>
<path d="M207.534 36.0696C207.219 36.9183 205.254 43.3896 203.21 50.3913C201.166 57.3931 199.358 63.7583 199.122 64.5009C198.808 65.5618 199.515 65.88 202.11 65.5618L205.49 65.2435L208.949 53.2557L212.408 41.3739H222.942C234.419 41.3739 234.969 41.6922 231.825 47.1026C230.252 49.7548 229.938 49.8609 222.077 49.8609H213.901L212.644 53.0435C212.015 54.7409 211.464 56.3322 211.464 56.7565C211.464 57.0748 213.351 57.287 215.631 57.287C219.561 57.287 219.797 57.3931 221.527 61.5304C223.177 65.4557 223.57 65.7739 226.794 65.7739C228.759 65.7739 230.331 65.5618 230.331 65.2435C230.331 65.0313 229.624 63.2278 228.759 61.3183L227.187 57.8174L231.039 55.5896C235.205 53.0435 238.035 48.6939 240.157 41.3739C240.865 38.7218 241.651 36.0696 241.808 35.5391C242.044 34.9026 236.148 34.4783 225.143 34.4783C210.835 34.4783 208.084 34.6904 207.534 36.0696Z" fill="#CB0022"/>
<path d="M242.909 49.1183C240.787 57.0748 238.979 64.1826 238.979 64.7131C238.979 65.3496 240.315 65.7739 242.044 65.7739H245.11L247.704 55.6957C249.119 50.1791 250.534 45.6174 250.927 45.6174C252.735 45.6174 257.767 49.2244 260.046 52.3009C261.54 54.2104 263.584 57.9235 264.606 60.6818C266.414 65.4557 266.571 65.6678 269.715 65.4557L273.017 65.2435L277.184 50.6035C279.542 42.5409 281.429 35.5391 281.429 35.2209C281.429 34.7965 280.014 34.4783 278.284 34.4783H275.14L272.86 42.9652C270.816 50.6035 268.851 54.4226 268.851 50.7096C268.851 47.9513 263.191 40.3131 259.26 37.5548C256.745 35.8574 253.836 34.7965 251.085 34.6904L246.918 34.4783L242.909 49.1183Z" fill="#CB0022"/>
<path d="M133.011 37.767C129.394 40.207 124.992 46.36 124.992 49.0122C124.992 49.5426 126.329 49.8609 127.979 49.8609C130.338 49.8609 131.438 49.1183 133.561 46.1479C135.841 42.8592 139.457 40.4192 140.321 41.5861C140.479 41.7983 139.064 47.1026 137.177 53.3618L133.718 64.7131H136.391C137.884 64.7131 139.378 64.8192 139.692 64.9252C140.007 65.1374 141.815 59.9392 143.623 53.5739L146.846 41.9044L153.921 41.5861C160.524 41.2679 160.996 41.1618 161.861 38.6157C162.332 37.1305 162.726 35.7513 162.726 35.5392C162.726 35.2209 156.987 35.0087 149.912 35.0087C137.649 35.0087 136.941 35.1148 133.011 37.767Z" fill="#CB0022"/>
<path d="M173.338 36.494C168.621 39.2522 161.703 52.7253 159.974 62.5914L159.502 65.2435L176.639 65.0314L193.776 64.8192L194.798 61.5305L195.742 58.3479H182.378C175.067 58.3479 169.014 58.0296 169.014 57.7114C169.014 57.3931 169.407 56.2261 169.8 55.0592C170.586 53.1496 171.608 53.0435 183.871 53.0435H197.157L197.943 49.8609L198.808 46.6783L185.286 46.4661L171.765 46.1479L174.517 43.814C177.032 41.5861 178.211 41.374 188.903 41.374H200.458L201.244 38.6157C201.716 37.1305 202.031 35.7514 202.031 35.4331C202.031 35.2209 196.135 35.0087 188.903 35.0087C179.784 35.1148 174.988 35.5392 173.338 36.494Z" fill="#CB0022"/>
<path d="M238.742 70.6539C238.664 70.76 207.612 71.0783 169.8 71.5026C72.5585 72.4574 0.472099 73.4122 0.0790433 73.8365C-1.72901 75.9583 4.7171 76.3826 46.6168 76.3826C71.7724 76.4887 95.5915 76.7009 99.4435 76.9131C103.374 77.0192 146.217 77.5496 194.799 77.9739L283 78.8226V74.2609V69.8052L260.911 70.1235C248.805 70.3357 238.821 70.6539 238.742 70.6539Z" fill="black"/>
</g>
<defs>
<clipPath id="clip0_1418_1812">
<rect width="283" height="122" fill="white"/>
</clipPath>
</defs>
</svg>
