<svg viewBox="0 0 164 165" fill="none" xmlns="http://www.w3.org/2000/svg">
<path fill-rule="evenodd" clip-rule="evenodd" d="M0.584113 58.6504C2.15611 54.2724 6.04513 52.8074 10.3321 52.2484C20.3031 50.9494 30.2501 49.4364 40.2481 48.4234C48.6071 47.5754 54.8631 44.9664 58.2681 36.1784C62.1491 26.1604 67.5411 16.7294 72.2721 7.04038C74.1571 3.18138 76.5041 0.178374 81.4241 0.00337407C81.5491 -0.00162593 81.6641 0.00337407 81.7851 0.00337407C81.9061 0.00337407 82.0211 -0.00262483 82.1461 0.00137517C87.0661 0.165375 89.4211 3.16137 91.3161 7.01737C96.0701 16.6934 101.482 26.1124 105.388 36.1214C108.814 44.9004 115.076 47.4954 123.437 48.3234C133.439 49.3134 143.388 50.8014 153.363 52.0764C157.65 52.6254 161.543 54.0794 163.127 58.4544C164.789 63.0524 162.762 66.6044 159.344 69.8514C150.432 78.3244 141.778 87.0664 132.91 95.5894C129.529 98.8374 128.265 102.285 129.225 107.088C131.559 118.772 133.541 130.53 135.344 142.309C136.012 146.67 136.776 151.58 132.295 154.642C128.002 157.575 123.803 155.873 119.67 153.638C109.336 148.051 98.9141 142.632 88.5551 137.091C86.2601 135.862 84.1191 135.259 81.9471 135.304C79.7751 135.264 77.6341 135.873 75.3421 137.107C64.9981 142.673 54.5881 148.117 44.2681 153.729C40.1391 155.974 35.9461 157.684 31.6451 154.761C27.1571 151.712 27.9091 146.799 28.5671 142.437C30.3421 130.655 32.2951 118.891 34.6021 107.202C35.5491 102.396 34.2761 98.9514 30.8891 95.7124C22.0021 87.2114 13.3261 78.4904 4.39313 70.0384C0.967134 66.7984 -1.06789 63.2524 0.584113 58.6504Z" fill="#F9D555"/>
<path d="M75.5259 92.0934C77.8719 92.8344 79.8869 94.1824 82.4049 93.9414C84.4949 93.7404 86.6689 92.6404 88.6259 91.9384C90.4309 91.2924 92.3699 91.1194 93.6769 92.7554C95.4969 95.0394 95.8369 98.9624 94.9929 101.683C94.1529 104.388 92.2369 106.845 89.9109 108.44C88.7019 109.272 87.1839 110.108 85.7589 110.491C79.2589 112.242 72.9619 108.721 69.6749 103.039C66.6759 98.0984 68.4979 89.8804 75.5259 92.0934Z" fill="#074785"/>
<path d="M70.5186 104.344C72.2846 102.702 74.6946 101.642 77.1266 101.397C83.0426 100.738 85.3846 105.837 84.8806 110.685C79.2096 111.808 73.7976 109.001 70.5186 104.344Z" fill="#FD6085"/>
<path fill-rule="evenodd" clip-rule="evenodd" d="M76.6705 75.0592C77.2705 84.1692 70.2995 91.9932 61.1025 92.5372C51.9075 93.0792 43.9675 86.1332 43.3725 77.0242C42.7765 67.9142 49.7455 60.0902 58.9405 59.5502C68.1355 59.0082 76.0745 65.9532 76.6705 75.0592Z" fill="white"/>
<path fill-rule="evenodd" clip-rule="evenodd" d="M66.0881 60.6812C61.0291 61.5352 56.5221 64.9062 54.4771 69.9732C51.3621 77.6912 55.1492 86.4251 62.9322 89.4791C64.6352 90.1461 66.3911 90.4882 68.1251 90.5302C73.5801 87.5532 77.1031 81.6412 76.6701 75.0592C76.2361 68.4462 71.9341 62.9782 66.0881 60.6812Z" fill="#074785"/>
<path fill-rule="evenodd" clip-rule="evenodd" d="M116.628 71.0605C118.417 80.0155 112.536 88.6865 103.491 90.4315C94.4457 92.1755 85.6627 86.3365 83.8757 77.3835C82.0847 68.4325 87.9677 59.7615 97.0127 58.0145C106.058 56.2705 114.841 62.1105 116.628 71.0605Z" fill="white"/>
<path fill-rule="evenodd" clip-rule="evenodd" d="M104.247 58.1987C99.3471 59.7117 95.3191 63.6437 93.9601 68.9337C91.8841 76.9937 96.7821 85.1557 104.903 87.1597C106.678 87.5997 108.464 87.7047 110.188 87.5227C115.205 83.8537 117.92 77.5317 116.627 71.0607C115.329 64.5617 110.341 59.7087 104.247 58.1987Z" fill="#074785"/>
<path fill-rule="evenodd" clip-rule="evenodd" d="M116.698 55.1924C114.171 51.6634 110.302 49.8024 105.968 50.2584C103.794 50.4884 104.323 53.8304 106.488 53.6044C109.656 53.2674 112.236 54.7674 114.047 57.2944C115.318 59.0744 117.962 56.9584 116.698 55.1924Z" fill="#074785"/>
<path fill-rule="evenodd" clip-rule="evenodd" d="M54.5494 51.0143C50.2094 51.1243 46.4984 53.2843 44.4444 57.1263C43.4134 59.0553 46.4774 60.4943 47.5034 58.5733C49.0054 55.7653 51.6934 54.4693 54.8024 54.3903C56.9864 54.3343 56.7194 50.9613 54.5494 51.0143Z" fill="#074785"/>
<path d="M57.885 103.496C56.996 105.931 53.467 106.881 50 105.619C46.531 104.358 44.439 101.361 45.324 98.9233C46.213 96.4873 49.742 95.5353 53.211 96.7993C56.68 98.0613 58.772 101.059 57.885 103.496Z" fill="#FD6085"/>
<path d="M118.464 95.0854C119.388 97.5064 117.339 100.536 113.892 101.847C110.443 103.164 106.902 102.266 105.976 99.8444C105.052 97.4224 107.099 94.3924 110.548 93.0784C113.995 91.7644 117.54 92.6624 118.464 95.0854Z" fill="#FD6085"/>
<path d="M74.0044 70.56C72.9844 68.361 71.5984 66.454 69.4964 65.186C68.5534 64.615 67.7734 66.138 68.7094 66.703C70.3984 67.722 71.5624 69.331 72.3814 71.098C72.8384 72.084 74.4654 71.561 74.0044 70.56Z" fill="white"/>
<path d="M67.0357 63.6171C66.7857 63.5081 66.5397 63.3921 66.2917 63.2851C65.8637 63.0991 65.3637 63.2151 65.1377 63.6501C64.9367 64.0421 65.0787 64.6171 65.5047 64.8011C65.7547 64.9101 66.0007 65.0261 66.2507 65.1331C66.6787 65.3201 67.1767 65.2031 67.4027 64.7681C67.6047 64.3761 67.4617 63.8031 67.0357 63.6171Z" fill="white"/>
<path d="M74.6161 73.716C74.5091 73.262 73.9461 73.036 73.5361 73.174C73.0651 73.331 72.8881 73.799 72.9931 74.251C72.9951 74.241 72.9971 74.235 72.9971 74.223C72.9271 74.681 73.1811 75.134 73.6551 75.235C74.0931 75.328 74.5981 75.038 74.6691 74.576C74.7161 74.271 74.6871 74.014 74.6161 73.716Z" fill="white"/>
<path d="M72.9868 74.2478C72.9868 74.2598 72.9888 74.2748 72.9868 74.2888C72.9888 74.2788 72.9908 74.2658 72.9928 74.2508C72.9388 74.0138 72.9818 74.1878 72.9868 74.2478Z" fill="white"/>
<path d="M72.9873 74.2881C72.9863 74.3531 72.9703 74.4131 72.9873 74.2881Z" fill="white"/>
<path d="M113.338 68.2913C112.383 66.0633 111.055 64.1163 108.99 62.7863C108.062 62.1893 107.242 63.6883 108.16 64.2803C109.816 65.3493 110.933 66.9923 111.699 68.7823C112.127 69.7803 113.772 69.3063 113.338 68.2913Z" fill="white"/>
<path d="M106.576 61.1474C106.33 61.0314 106.088 60.9084 105.842 60.7934C105.42 60.5964 104.918 60.6954 104.678 61.1244C104.465 61.5114 104.59 62.0894 105.01 62.2854C105.256 62.4034 105.498 62.5264 105.746 62.6394C106.168 62.8404 106.67 62.7364 106.908 62.3084C107.123 61.9224 106.998 61.3444 106.576 61.1474Z" fill="white"/>
<path d="M113.854 71.4646C113.762 71.0086 113.208 70.7666 112.791 70.8916C112.316 71.0346 112.125 71.4976 112.219 71.9516C112.219 71.9436 112.221 71.9376 112.223 71.9256C112.139 72.3816 112.379 72.8416 112.85 72.9556C113.284 73.0606 113.799 72.7846 113.885 72.3266C113.938 72.0216 113.916 71.7656 113.854 71.4646Z" fill="white"/>
<path d="M112.213 71.9487C112.213 71.9617 112.213 71.9757 112.211 71.9897C112.215 71.9787 112.215 71.9657 112.217 71.9517C112.17 71.7137 112.207 71.8897 112.213 71.9487Z" fill="white"/>
<path d="M112.211 71.9897C112.209 72.0547 112.19 72.1127 112.211 71.9897Z" fill="white"/>
<path d="M112.219 71.9547V71.9517H112.217L112.219 71.9547Z" fill="white"/>
<path fill-rule="evenodd" clip-rule="evenodd" d="M156.178 108.101C150.006 105.917 144.149 102.973 137.903 100.981C136.604 100.567 135.221 101.786 135.003 102.993C134.739 104.464 135.72 105.48 137.015 105.893C142.841 107.75 148.298 110.581 154.058 112.618C155.341 113.072 156.757 112.739 157.378 111.42C157.912 110.282 157.461 108.554 156.178 108.101Z" fill="#F9D555"/>
<path fill-rule="evenodd" clip-rule="evenodd" d="M9.38286 115.205C14.8669 111.629 20.7639 108.764 26.1409 105.014C27.2579 104.235 27.1309 102.395 26.3049 101.488C25.2989 100.384 23.8949 100.547 22.7799 101.324C17.7659 104.822 12.2019 107.439 7.08485 110.775C5.94585 111.517 5.34885 112.844 6.01985 114.139C6.59785 115.257 8.24386 115.947 9.38286 115.205Z" fill="#F9D555"/>
<path fill-rule="evenodd" clip-rule="evenodd" d="M84.6291 162.045C84.5371 155.5 85.2661 148.984 84.9691 142.435C84.9061 141.074 83.2831 140.199 82.0761 140.413C80.6031 140.674 79.9921 141.948 80.0531 143.306C80.3301 149.413 79.5711 155.515 79.6561 161.624C79.6761 162.983 80.4801 164.195 81.9311 164.321C83.1861 164.427 84.6491 163.404 84.6291 162.045Z" fill="#F9D555"/>
<path fill-rule="evenodd" clip-rule="evenodd" d="M131.561 24.8594C128.049 30.3824 125.251 36.3124 121.561 41.7314C120.793 42.8564 118.952 42.7514 118.038 41.9354C116.923 40.9404 117.069 39.5354 117.833 38.4124C121.274 33.3584 123.829 27.7654 127.106 22.6104C127.836 21.4624 129.157 20.8514 130.46 21.5074C131.582 22.0734 132.291 23.7114 131.561 24.8594Z" fill="#F9D555"/>
<path fill-rule="evenodd" clip-rule="evenodd" d="M38.8069 20.2143C41.8639 26.0033 45.6249 31.3723 48.5019 37.2623C49.0999 38.4873 48.0959 40.0333 46.9339 40.4233C45.5159 40.8993 44.3699 40.0743 43.7719 38.8543C41.0879 33.3603 37.4969 28.3693 34.6449 22.9663C34.0099 21.7643 34.1329 20.3153 35.3479 19.5093C36.3969 18.8153 38.1719 19.0103 38.8069 20.2143Z" fill="#F9D555"/>
<path d="M138.877 64.6526C138.252 64.0486 137.002 55.5896 135.867 55.6576C134.73 55.7276 133.738 64.1156 133.209 64.6686C132.143 65.7766 124.342 66.5616 124.404 67.6366C124.468 68.7096 132.129 69.2166 133.211 70.2636C133.814 70.8476 135.084 79.3296 136.221 79.2636C137.358 79.1976 138.328 70.8326 138.883 70.2596C139.912 69.1896 147.772 68.3626 147.707 67.2836C147.645 66.2056 139.918 65.6656 138.877 64.6526Z" fill="white"/>
<path d="M86.2867 122.012C85.9977 121.732 85.4157 117.802 84.8887 117.832C84.3617 117.865 83.9007 121.763 83.6547 122.02C83.1587 122.535 79.5337 122.899 79.5627 123.399C79.5937 123.898 83.1527 124.132 83.6547 124.62C83.9357 124.891 84.5257 128.832 85.0547 128.801C85.5817 128.77 86.0327 124.884 86.2887 124.617C86.7667 124.119 90.4217 123.736 90.3907 123.234C90.3607 122.734 86.7717 122.482 86.2867 122.012Z" fill="white"/>
<path d="M89.0142 37.5854C88.7232 37.3054 88.1432 33.3754 87.6162 33.4064C87.0872 33.4384 86.6282 37.3364 86.3802 37.5934C85.8842 38.1084 82.2612 38.4724 82.2902 38.9724C82.3192 39.4714 85.8802 39.7054 86.3822 40.1934C86.6632 40.4644 87.2512 44.4054 87.7802 44.3744C88.3072 44.3444 88.7602 40.4564 89.0162 40.1904C89.4952 39.6934 93.1472 39.3094 93.1182 38.8074C93.0882 38.3064 89.4982 38.0564 89.0142 37.5854Z" fill="white"/>
<path d="M59.5625 139.7C62.6545 138.035 60.0825 133.235 56.9885 134.899C53.2775 136.897 49.6645 139.065 45.9535 141.061C42.8615 142.726 45.4335 147.527 48.5275 145.863C52.2375 143.866 55.8515 141.696 59.5625 139.7Z" fill="white"/>
<path d="M67.2658 131.891C65.6078 128.795 60.8049 131.369 62.4649 134.464C64.1229 137.56 68.9258 134.986 67.2658 131.891Z" fill="white"/>
<path d="M66.3111 27.7616C64.7351 30.9006 69.6 33.3506 71.174 30.2116C73.063 26.4436 74.7741 22.5926 76.6641 18.8266C78.2381 15.6866 73.375 13.2356 71.799 16.3776C69.91 20.1426 68.1991 23.9956 66.3111 27.7616Z" fill="white"/>
<path d="M64.4922 38.5788C67.6292 40.1588 70.0801 35.2948 66.9431 33.7148C63.8051 32.1348 61.3562 36.9998 64.4922 38.5788Z" fill="white"/>
<path d="M19.3669 77.3318C21.7299 79.9318 25.7668 76.2738 23.4038 73.6738C20.5678 70.5568 17.5898 67.5748 14.7558 64.4578C12.3928 61.8588 8.35586 65.5158 10.7209 68.1158C13.5549 71.2328 16.5329 74.2158 19.3669 77.3318Z" fill="white"/>
<path d="M28.8068 82.9184C31.4098 80.5604 27.7518 76.5234 25.1488 78.8824C22.5468 81.2424 26.2048 85.2784 28.8068 82.9184Z" fill="white"/>
<path d="M122.966 126.925C123.517 130.393 128.898 129.551 128.349 126.082C127.689 121.92 126.835 117.792 126.177 113.631C125.626 110.162 120.245 111.003 120.796 114.474C121.454 118.635 122.31 122.764 122.966 126.925Z" fill="white"/>
<path d="M127.793 136.775C131.264 136.232 130.42 130.849 126.951 131.393C123.481 131.937 124.322 137.319 127.793 136.775Z" fill="white"/>
<path d="M44.5573 117.783C41.3403 117.783 41.3403 122.772 44.5573 122.772C47.7743 122.772 47.7743 117.783 44.5573 117.783Z" fill="white"/>
<path d="M32.1129 59.9385C28.8959 59.9385 28.8959 64.9285 32.1129 64.9285C35.3319 64.9285 35.3319 59.9385 32.1129 59.9385Z" fill="white"/>
<path d="M106.381 123.315C103.164 123.315 103.164 128.305 106.381 128.305C109.6 128.306 109.6 123.315 106.381 123.315Z" fill="white"/>
</svg>
