<svg viewBox="0 0 500 500" fill="none" xmlns="http://www.w3.org/2000/svg">
<path d="M417.011 366.549C417.091 352.618 426.204 343.713 426.204 343.713C428.984 355.172 417.011 366.549 417.011 366.549Z" fill="#25262B"/>
<path d="M430.358 360.086C443.164 354.603 454.965 359.405 454.965 359.405C445.57 366.525 430.358 360.086 430.358 360.086Z" fill="#25262B"/>
<path d="M431.878 352.66C429.653 341.894 435.225 333.534 435.225 333.534C439.253 341.927 431.878 352.66 431.878 352.66Z" fill="#25262B"/>
<path d="M380.266 325.873C399.776 331.067 410.241 348.029 410.241 348.029C393.566 348.039 380.266 325.873 380.266 325.873Z" fill="#25262B"/>
<path d="M411.426 333.868C410.412 312.839 430.965 289.038 430.965 289.038C427.862 315.149 411.426 333.868 411.426 333.868Z" fill="#25262B"/>
<path d="M411.326 273.977C412.198 291.033 403.936 304.099 403.936 304.099C401.033 290.572 411.326 273.977 411.326 273.977Z" fill="#25262B"/>
<path d="M403.401 316.701C388.026 315.051 379.662 299.755 379.662 299.755C398.255 304.965 403.401 316.701 403.401 316.701Z" fill="#25262B"/>
<path d="M370.238 380.993C381.988 373.507 394.411 376.338 394.411 376.338C386.292 384.883 370.238 380.993 370.238 380.993Z" fill="#25262B"/>
<path d="M410.08 387.895C407.165 395.933 399.749 399.534 399.749 399.534C400.406 392.439 410.08 387.895 410.08 387.895Z" fill="#25262B"/>
<path d="M408.103 385.632C399.358 391.015 389.715 388.913 389.715 388.913C395.635 382.744 408.103 385.632 408.103 385.632Z" fill="#25262B"/>
<path d="M415.964 413.939C415.952 413.939 415.942 413.833 415.934 413.626C415.929 413.378 415.922 413.077 415.915 412.709C415.913 411.845 415.911 410.669 415.908 409.185C415.922 407.655 415.923 405.784 415.877 403.611C415.842 401.439 415.837 398.965 415.721 396.232C415.589 390.765 415.201 384.263 414.642 377.057C414.016 369.855 413.142 361.954 411.938 353.699C409.508 337.183 406.188 322.422 403.52 311.817C402.176 306.516 401.042 302.236 400.215 299.29C399.828 297.857 399.522 296.722 399.297 295.888C399.208 295.531 399.135 295.239 399.075 294.998C399.029 294.796 399.01 294.692 399.022 294.688C399.033 294.685 399.074 294.783 399.143 294.978C399.221 295.213 399.315 295.499 399.431 295.848C399.687 296.673 400.035 297.797 400.474 299.215C401.381 302.139 402.588 306.403 403.994 311.694C406.787 322.279 410.188 337.049 412.623 353.597C413.83 361.867 414.686 369.787 415.278 377.004C415.803 384.227 416.141 390.742 416.211 396.219C416.296 398.956 416.267 401.434 416.265 403.609C416.275 405.784 416.235 407.657 416.179 409.188C416.127 410.672 416.087 411.848 416.057 412.712C416.037 413.08 416.021 413.38 416.008 413.628C415.989 413.834 415.975 413.94 415.964 413.939Z" fill="#16161B"/>
<path d="M387.745 369.427C387.853 369.27 394.067 373.342 401.624 378.522C409.183 383.704 415.222 388.03 415.114 388.187C415.006 388.344 408.793 384.272 401.234 379.091C393.677 373.911 387.637 369.583 387.745 369.427Z" fill="#16161B"/>
<path d="M415.114 371.667C415.082 371.632 415.424 371.262 416.068 370.623C416.831 369.888 417.754 368.999 418.835 367.958C421.325 365.622 424.53 362.616 428.075 359.29C431.621 355.965 434.827 352.96 437.317 350.625C438.411 349.599 439.345 348.723 440.118 347.998C440.785 347.383 441.17 347.059 441.204 347.092C441.238 347.125 440.918 347.513 440.308 348.187C439.702 348.865 438.792 349.811 437.658 350.973C435.383 353.289 432.165 356.413 428.546 359.793C424.929 363.173 421.602 366.176 419.163 368.317C417.944 369.388 416.947 370.243 416.247 370.821C415.549 371.4 415.146 371.702 415.114 371.667Z" fill="#16161B"/>
<path d="M368.005 359.461C368.005 359.461 383.894 359.158 390.615 371.665C390.615 371.665 377.061 372.111 368.005 359.461Z" fill="#25262B"/>
<path d="M389.706 353.083C389.706 353.083 402.644 362.311 400.585 376.36C400.585 376.36 389.436 368.638 389.706 353.083Z" fill="#25262B"/>
<path d="M457.85 330.344C457.85 330.344 452.745 348.13 436.524 351.326C436.524 351.326 440.671 336.09 457.85 330.344Z" fill="#25262B"/>
<path d="M382.648 264.222C382.648 264.222 402.919 277.445 400.675 298.952C400.675 298.952 383.223 287.909 382.648 264.222Z" fill="#25262B"/>
<path d="M450.117 381.84C450.143 381.88 449.672 382.254 448.801 382.896C447.924 383.529 446.676 384.475 445.164 385.676C442.136 388.072 438.127 391.611 434.187 395.989C430.255 400.377 427.165 404.743 425.107 408.01C424.075 409.642 423.269 410.984 422.733 411.924C422.189 412.859 421.867 413.367 421.824 413.345C421.782 413.323 422.023 412.774 422.496 411.797C422.961 410.815 423.706 409.43 424.691 407.756C426.653 404.405 429.708 399.954 433.673 395.529C437.647 391.114 441.744 387.601 444.866 385.29C446.426 384.132 447.723 383.242 448.649 382.675C449.57 382.098 450.091 381.8 450.117 381.84Z" fill="#16161B"/>
<path d="M432.477 395.047C429.891 381.358 437.131 370.875 437.131 370.875C439.311 385.948 432.477 395.047 432.477 395.047Z" fill="#25262B"/>
<path d="M446.118 387.61C454.858 382.481 463.813 384.868 463.813 384.868C454.025 390.058 446.118 387.61 446.118 387.61Z" fill="#25262B"/>
<path d="M386.406 415.594L394.012 465.575H438.199L448.454 416.316L386.406 415.594Z" fill="#25262B"/>
<path d="M442.276 447.626C442.276 447.769 430.954 447.885 416.99 447.885C403.022 447.885 391.702 447.769 391.702 447.626C391.702 447.483 403.022 447.367 416.99 447.367C430.953 447.367 442.276 447.483 442.276 447.626Z" fill="#28292E"/>
<path d="M442.447 445.168C442.447 445.311 431.048 445.427 416.99 445.427C402.927 445.427 391.53 445.311 391.53 445.168C391.53 445.025 402.927 444.909 416.99 444.909C431.048 444.909 442.447 445.025 442.447 445.168Z" fill="#28292E"/>
<path d="M442.36 442.392C442.36 442.535 430.961 442.651 416.902 442.651C402.839 442.651 391.442 442.535 391.442 442.392C391.442 442.249 402.839 442.133 416.902 442.133C430.961 442.133 442.36 442.249 442.36 442.392Z" fill="#28292E"/>
<path d="M399.088 462.723C398.947 462.748 398.34 459.93 397.733 456.43C397.125 452.929 396.748 450.072 396.889 450.048C397.03 450.024 397.637 452.841 398.244 456.342C398.851 459.841 399.229 462.699 399.088 462.723Z" fill="#28292E"/>
<path d="M402.094 462.192C401.947 462.195 401.779 459.442 401.546 456.052C401.318 452.661 401.112 449.91 401.258 449.894C401.397 449.877 401.834 452.612 402.064 456.017C402.297 459.421 402.233 462.19 402.094 462.192Z" fill="#28292E"/>
<path d="M407.572 462.19C407.435 462.214 406.831 459.407 406.422 455.894C406.008 452.38 405.947 449.511 406.085 449.503C406.232 449.494 406.524 452.336 406.937 455.834C407.344 459.332 407.717 462.166 407.572 462.19Z" fill="#28292E"/>
<path d="M411.418 462.454C411.279 462.466 410.919 459.606 410.806 456.057C410.688 452.506 410.862 449.63 411.001 449.633C411.148 449.636 411.206 452.505 411.324 456.04C411.437 459.574 411.564 462.442 411.418 462.454Z" fill="#28292E"/>
<path d="M418.226 462.193C418.083 462.198 417.875 459.479 417.761 456.122C417.647 452.763 417.671 450.037 417.814 450.033C417.957 450.028 418.165 452.746 418.279 456.105C418.393 459.461 418.369 462.188 418.226 462.193Z" fill="#28292E"/>
<path d="M423.199 462.456C423.056 462.455 422.963 459.642 422.991 456.175C423.019 452.707 423.158 449.897 423.301 449.898C423.444 449.899 423.538 452.711 423.509 456.179C423.481 459.647 423.342 462.457 423.199 462.456Z" fill="#28292E"/>
<path d="M427.861 461.788C427.718 461.774 427.887 458.836 428.238 455.225C428.589 451.613 428.988 448.697 429.131 448.71C429.273 448.724 429.105 451.662 428.754 455.274C428.403 458.885 428.003 461.802 427.861 461.788Z" fill="#28292E"/>
<path d="M433.873 461.135C433.736 461.118 433.951 458.596 434.617 455.553C435.276 452.507 436.128 450.125 436.26 450.166C436.402 450.209 435.778 452.641 435.124 455.663C434.463 458.682 434.02 461.155 433.873 461.135Z" fill="#28292E"/>
<path d="M381.336 405.696V415.048C381.336 417.082 382.984 418.73 385.018 418.73H449.005C451.038 418.73 452.687 417.082 452.687 415.048V405.696H381.336Z" fill="#25262B"/>
<path d="M386.883 418.731L387.415 421.708L446.456 425.916L447.952 418.731H386.883Z" fill="#16161B"/>
<path d="M107.266 57.355H26.2579V174.773H107.266V57.355Z" fill="black"/>
<path d="M103.208 57.355H22.2V174.773H103.208V57.355Z" fill="#16161B"/>
<path d="M93.1429 70.0723H32.2639V162.056H93.1429V70.0723Z" fill="#28292E"/>
<path d="M93.1429 162.056C93.1429 162.056 93.1349 161.9 93.1309 161.606C93.1279 161.302 93.1239 160.869 93.1189 160.302C93.1129 159.146 93.1049 157.454 93.0939 155.257C93.0809 150.849 93.0629 144.424 93.0399 136.309C93.0159 120.089 92.9809 97.121 92.9409 70.073L93.1429 70.275C74.5439 70.281 53.9339 70.287 32.2719 70.293H32.2649L32.4849 70.073C32.4679 104.773 32.4529 136.767 32.4399 162.056L32.2639 161.88C50.8039 161.919 66.0009 161.95 76.5759 161.972C81.8659 161.991 85.9969 162.006 88.8189 162.017C90.2209 162.026 91.2959 162.032 92.0319 162.037C92.7599 162.043 93.1429 162.056 93.1429 162.056C93.1429 162.056 92.7849 162.069 92.0689 162.075C91.3399 162.08 90.2759 162.086 88.8879 162.095C86.0749 162.105 81.9579 162.12 76.6849 162.14C66.0839 162.162 50.8499 162.194 32.2639 162.232H32.0889V162.056C32.0769 136.766 32.0609 104.772 32.0439 70.073V69.853H32.2639H32.2709C53.9329 69.86 74.5429 69.866 93.1419 69.871H93.3439V70.073C93.3029 97.175 93.2689 120.189 93.2449 136.441C93.2219 144.537 93.2029 150.946 93.1909 155.343C93.1799 157.522 93.1719 159.201 93.1669 160.348C93.1619 160.905 93.1579 161.331 93.1549 161.63C93.1509 161.916 93.1429 162.056 93.1429 162.056Z" fill="#E0E0E0"/>
<path d="M103.435 57.3549C103.482 57.3919 102.932 58.1939 101.991 59.4529C101.05 60.7109 99.7139 62.4229 98.1899 64.2739C96.6649 66.1249 95.2409 67.7639 94.1859 68.9289C93.1309 70.0939 92.4489 70.7869 92.4039 70.7479C92.3569 70.7069 92.9569 69.9409 93.9499 68.7259C95.0359 67.4079 96.3719 65.7869 97.8499 63.9939C99.3259 62.2009 100.661 60.5779 101.746 59.2599C102.75 58.0519 103.387 57.3169 103.435 57.3549Z" fill="#E0E0E0"/>
<path d="M93.453 161.76C96.477 166.568 100.046 171.032 104.071 175.039Z" fill="white"/>
<path d="M104.072 175.039C104.032 175.08 103.309 174.452 102.221 173.355C101.132 172.259 99.69 170.68 98.216 168.838C96.743 166.994 95.52 165.239 94.69 163.936C93.859 162.633 93.406 161.79 93.455 161.76C93.51 161.726 94.055 162.509 94.948 163.762C95.841 165.015 97.096 166.73 98.56 168.563C100.026 170.394 101.422 171.996 102.448 173.142C103.473 174.289 104.117 174.993 104.072 175.039Z" fill="#E0E0E0"/>
<path d="M22.188 174.68C25.725 170.316 29.262 165.952 32.799 161.588Z" fill="white"/>
<path d="M32.799 161.588C32.894 161.665 30.595 164.658 27.665 168.272C24.734 171.888 22.283 174.756 22.188 174.679C22.094 174.603 24.392 171.61 27.323 167.994C30.252 164.381 32.704 161.512 32.799 161.588Z" fill="#E0E0E0"/>
<path d="M22.1999 57.355C22.2959 57.279 24.6019 60.0361 27.3499 63.5121C30.0999 66.9891 32.2499 69.8671 32.1549 69.9431C32.0599 70.0191 29.7539 67.262 27.0049 63.786C24.2559 60.31 22.1049 57.431 22.1999 57.355Z" fill="#E0E0E0"/>
<path d="M74.176 88.749H53.791V146.627H74.176V88.749Z" fill="#16161B"/>
<path d="M464.36 62.2432H383.352V179.661H464.36V62.2432Z" fill="black"/>
<path d="M460.302 62.2432H379.294V179.661H460.302V62.2432Z" fill="#16161B"/>
<path d="M450.238 74.9604H389.359V166.943H450.238V74.9604Z" fill="#28292E"/>
<path d="M450.237 166.944C450.237 166.944 450.229 166.788 450.225 166.494C450.222 166.19 450.218 165.757 450.213 165.19C450.207 164.034 450.199 162.342 450.189 160.145C450.176 155.737 450.158 149.312 450.135 141.197C450.111 124.977 450.076 102.009 450.036 74.9612L450.238 75.1632C431.638 75.1692 411.028 75.1752 389.366 75.1812H389.359L389.579 74.9612C389.562 109.661 389.547 141.655 389.534 166.944L389.359 166.769C407.899 166.808 423.096 166.839 433.671 166.861C438.961 166.88 443.092 166.895 445.913 166.906C447.315 166.915 448.39 166.921 449.127 166.926C449.854 166.931 450.237 166.944 450.237 166.944C450.237 166.944 449.879 166.957 449.163 166.963C448.434 166.968 447.37 166.974 445.982 166.983C443.169 166.993 439.052 167.008 433.779 167.028C423.178 167.05 407.944 167.082 389.358 167.12H389.182V166.944C389.17 141.654 389.154 109.661 389.137 74.9612V74.7412H389.358H389.365C411.027 74.7472 431.637 74.7542 450.237 74.7592H450.439V74.9612C450.398 102.063 450.364 125.077 450.34 141.33C450.317 149.426 450.298 155.835 450.286 160.232C450.275 162.411 450.267 164.09 450.261 165.237C450.256 165.794 450.252 166.22 450.249 166.519C450.245 166.804 450.237 166.944 450.237 166.944Z" fill="#E0E0E0"/>
<path d="M460.529 62.2431C460.576 62.2801 460.026 63.0821 459.085 64.3411C458.144 65.5991 456.808 67.3111 455.284 69.1621C453.759 71.0131 452.335 72.6521 451.28 73.8171C450.225 74.9821 449.543 75.6751 449.498 75.6361C449.451 75.5951 450.051 74.8301 451.044 73.6141C452.13 72.2961 453.466 70.6751 454.944 68.8821C456.42 67.0891 457.755 65.4671 458.84 64.1481C459.844 62.9401 460.481 62.2051 460.529 62.2431Z" fill="#E0E0E0"/>
<path d="M450.548 166.647C453.572 171.455 457.141 175.919 461.166 179.926Z" fill="white"/>
<path d="M461.166 179.927C461.126 179.967 460.403 179.34 459.315 178.243C458.226 177.146 456.784 175.568 455.31 173.725C453.837 171.881 452.614 170.126 451.784 168.823C450.953 167.52 450.5 166.677 450.548 166.647C450.603 166.613 451.148 167.396 452.042 168.649C452.935 169.902 454.19 171.617 455.654 173.45C457.12 175.281 458.516 176.883 459.542 178.029C460.567 179.177 461.211 179.881 461.166 179.927Z" fill="#E0E0E0"/>
<path d="M379.282 179.568C382.819 175.204 386.356 170.84 389.893 166.476Z" fill="white"/>
<path d="M389.893 166.476C389.987 166.553 387.689 169.546 384.759 173.16C381.828 176.776 379.377 179.644 379.282 179.567C379.187 179.49 381.486 176.498 384.416 172.882C387.346 169.268 389.799 166.4 389.893 166.476Z" fill="#E0E0E0"/>
<path d="M379.294 62.2432C379.389 62.1672 381.695 64.9242 384.444 68.4002C387.194 71.8772 389.344 74.7552 389.249 74.8312C389.154 74.9072 386.848 72.1502 384.099 68.6742C381.35 65.1982 379.199 62.3182 379.294 62.2432Z" fill="#E0E0E0"/>
<path d="M431.271 93.6362H410.886V151.514H431.271V93.6362Z" fill="#16161B"/>
<path d="M467.104 466.423C467.104 466.567 370.343 466.683 251.011 466.683C131.637 466.683 34.897 466.566 34.897 466.423C34.897 466.28 131.637 466.163 251.011 466.163C370.343 466.163 467.104 466.279 467.104 466.423Z" fill="#263238"/>
<path d="M359.155 25.0986H140.844V466.423H359.155V25.0986Z" fill="#28292E"/>
<path d="M359.156 466.423C359.155 464.154 359.054 282.602 358.91 25.0989L359.155 25.3449C291.647 25.3499 217.797 25.3549 140.876 25.3599H140.844L141.104 25.0999C141.078 195.556 141.054 350.89 141.037 466.424L140.844 466.231C275.486 466.349 357.625 466.422 359.156 466.423C357.626 466.424 275.487 466.497 140.845 466.616H140.652V466.423C140.634 350.889 140.611 195.555 140.585 25.0989V24.8389H140.845H140.877C217.799 24.8439 291.648 24.8489 359.156 24.8539H359.402V25.0999C359.258 282.602 359.157 464.155 359.156 466.423Z" fill="#263238"/>
<path d="M343.674 40.5249H156.327V451.043H343.674V40.5249Z" fill="#455A64"/>
<g opacity="0.1">
<path d="M319.57 125.403C315.175 114.919 304.927 106.581 293.561 106.349C285.755 106.189 276.511 109.202 271.08 103.592C266.073 98.4189 268.578 89.5739 273.108 83.9789C275.929 80.4949 279.401 77.5299 281.837 73.7669C284.273 70.0039 285.532 65.0099 283.432 61.0489C280.983 56.4289 275.146 54.9849 269.969 54.2479C256.675 52.3549 240.855 52.1379 227.992 57.0229C203.345 64.2569 184.483 91.7089 181.913 117.267C180.923 127.116 180.851 134.013 188.209 140.635C196.323 147.937 208.474 147.808 219.376 147.262C227.924 146.834 236.472 146.406 245.02 145.978C248.75 145.791 252.691 145.649 255.986 147.407C262.75 151.017 263.344 161.006 259.673 167.738C256.002 174.47 249.463 179.043 243.957 184.38C238.452 189.717 233.597 196.979 234.937 204.528C236.01 210.576 241.068 215.429 246.888 217.39C252.709 219.351 259.139 218.758 265.011 216.956C280.198 212.296 291.885 200.235 301.776 187.804C308.854 178.908 315.467 169.432 319.299 158.729C323.132 148.025 323.966 135.887 319.57 125.403Z" fill="white"/>
</g>
<path d="M208.296 100.599C197.954 100.599 189.57 92.2148 189.57 81.8728C189.57 77.8208 190.861 74.0728 193.049 71.0078C188.292 74.4038 185.188 79.9648 185.188 86.2548C185.188 96.5968 193.572 104.981 203.914 104.981C210.204 104.981 215.765 101.877 219.161 97.1198C216.096 99.3078 212.348 100.599 208.296 100.599Z" fill="white"/>
<path d="M214.967 106.066C214.984 106.093 214.686 106.328 214.104 106.692C213.523 107.058 212.645 107.531 211.506 107.997C209.245 108.936 205.825 109.734 202.055 109.351C198.284 108.969 195.094 107.5 193.068 106.125C192.046 105.44 191.28 104.8 190.785 104.325C190.288 103.851 190.043 103.561 190.065 103.538C190.13 103.465 191.204 104.544 193.266 105.814C195.308 107.086 198.437 108.46 202.108 108.832C205.777 109.205 209.118 108.488 211.374 107.652C213.649 106.822 214.918 105.981 214.967 106.066Z" fill="white"/>
<path d="M208.234 111.327C208.263 111.456 206.319 111.905 203.894 111.677C201.467 111.464 199.636 110.672 199.688 110.55C199.736 110.402 201.589 110.953 203.941 111.158C206.291 111.38 208.213 111.173 208.234 111.327Z" fill="white"/>
<path d="M262.623 450.731L196.957 451.013V243.192H262.623V450.731Z" fill="#263238"/>
<path d="M262.623 450.995L229.79 451.133V243.192H262.623V450.995Z" fill="#263238"/>
<path d="M227.643 222.761H204.455V243.192H227.643V222.761Z" fill="#263238"/>
<path d="M227.644 222.761H222.117V243.192H227.644V222.761Z" fill="#263238"/>
<path d="M191.484 243.192V242.001H264.545V243.192" fill="#263238"/>
<path d="M215.477 252.103H209.919V263.823H215.477V252.103Z" fill="#455A64"/>
<path d="M229.79 268.423C229.79 268.547 222.439 268.647 213.374 268.647C204.306 268.647 196.957 268.547 196.957 268.423C196.957 268.299 204.306 268.199 213.374 268.199C222.439 268.199 229.79 268.3 229.79 268.423Z" fill="#455A64"/>
<path d="M248.596 252.103H243.038V263.823H248.596V252.103Z" fill="#455A64"/>
<path d="M262.909 268.423C262.909 268.547 255.558 268.647 246.493 268.647C237.425 268.647 230.076 268.547 230.076 268.423C230.076 268.299 237.425 268.199 246.493 268.199C255.558 268.199 262.909 268.3 262.909 268.423Z" fill="#455A64"/>
<path d="M248.596 275.372H243.038V287.092H248.596V275.372Z" fill="#455A64"/>
<path d="M262.909 291.693C262.909 291.817 255.558 291.917 246.493 291.917C237.425 291.917 230.076 291.817 230.076 291.693C230.076 291.57 237.425 291.469 246.493 291.469C255.558 291.469 262.909 291.569 262.909 291.693Z" fill="#455A64"/>
<path d="M248.596 299.344H243.038V311.064H248.596V299.344Z" fill="#F5F5F5"/>
<path d="M262.909 315.664C262.909 315.788 255.558 315.888 246.493 315.888C237.425 315.888 230.076 315.788 230.076 315.664C230.076 315.54 237.425 315.44 246.493 315.44C255.558 315.44 262.909 315.541 262.909 315.664Z" fill="#455A64"/>
<path d="M248.596 323.316H243.038V335.036H248.596V323.316Z" fill="#455A64"/>
<path d="M262.909 339.636C262.909 339.76 255.558 339.86 246.493 339.86C237.425 339.86 230.076 339.76 230.076 339.636C230.076 339.513 237.425 339.412 246.493 339.412C255.558 339.412 262.909 339.512 262.909 339.636Z" fill="#455A64"/>
<path d="M248.596 346.602H243.038V358.322H248.596V346.602Z" fill="#455A64"/>
<path d="M262.909 362.922C262.909 363.046 255.558 363.146 246.493 363.146C237.425 363.146 230.076 363.046 230.076 362.922C230.076 362.799 237.425 362.698 246.493 362.698C255.558 362.698 262.909 362.798 262.909 362.922Z" fill="#455A64"/>
<path d="M248.596 369.981H243.038V381.701H248.596V369.981Z" fill="#455A64"/>
<path d="M248.596 393.668H243.038V405.388H248.596V393.668Z" fill="#455A64"/>
<path d="M262.909 386.302C262.909 386.426 255.558 386.526 246.493 386.526C237.425 386.526 230.076 386.426 230.076 386.302C230.076 386.178 237.425 386.078 246.493 386.078C255.558 386.078 262.909 386.178 262.909 386.302Z" fill="#455A64"/>
<path d="M248.596 415.857H243.038V427.577H248.596V415.857Z" fill="#455A64"/>
<path d="M248.612 451.07H243.054L243.038 439.543H248.596L248.612 451.07Z" fill="#455A64"/>
<path d="M262.909 432.177C262.909 432.301 255.558 432.401 246.493 432.401C237.425 432.401 230.076 432.301 230.076 432.177C230.076 432.053 237.425 431.953 246.493 431.953C255.558 431.953 262.909 432.053 262.909 432.177Z" fill="#455A64"/>
<path d="M262.909 411.59C262.909 411.714 255.558 411.814 246.493 411.814C237.425 411.814 230.076 411.714 230.076 411.59C230.076 411.466 237.425 411.366 246.493 411.366C255.558 411.366 262.909 411.466 262.909 411.59Z" fill="#455A64"/>
<path d="M215.477 275.728H209.919V287.448H215.477V275.728Z" fill="#FFF500"/>
<path d="M229.79 292.048C229.79 292.172 222.439 292.272 213.374 292.272C204.306 292.272 196.957 292.172 196.957 292.048C196.957 291.924 204.306 291.824 213.374 291.824C222.439 291.824 229.79 291.924 229.79 292.048Z" fill="#455A64"/>
<path d="M215.477 299.352H209.919V311.072H215.477V299.352Z" fill="#455A64"/>
<path d="M229.79 315.672C229.79 315.796 222.439 315.896 213.374 315.896C204.306 315.896 196.957 315.796 196.957 315.672C196.957 315.548 204.306 315.448 213.374 315.448C222.439 315.449 229.79 315.549 229.79 315.672Z" fill="#455A64"/>
<path d="M215.477 322.977H209.919V334.697H215.477V322.977Z" fill="#455A64"/>
<path d="M229.79 339.297C229.79 339.421 222.439 339.521 213.374 339.521C204.306 339.521 196.957 339.421 196.957 339.297C196.957 339.174 204.306 339.073 213.374 339.073C222.439 339.073 229.79 339.174 229.79 339.297Z" fill="#455A64"/>
<path d="M215.477 346.602H209.919V358.322H215.477V346.602Z" fill="#455A64"/>
<path d="M229.79 362.922C229.79 363.046 222.439 363.146 213.374 363.146C204.306 363.146 196.957 363.046 196.957 362.922C196.957 362.799 204.306 362.698 213.374 362.698C222.439 362.698 229.79 362.798 229.79 362.922Z" fill="#455A64"/>
<path d="M215.477 370.226H209.919V381.946H215.477V370.226Z" fill="#455A64"/>
<path d="M229.79 386.546C229.79 386.67 222.439 386.77 213.374 386.77C204.306 386.77 196.957 386.67 196.957 386.546C196.957 386.423 204.306 386.322 213.374 386.322C222.439 386.323 229.79 386.423 229.79 386.546Z" fill="#455A64"/>
<path d="M215.477 393.851H209.919V405.571H215.477V393.851Z" fill="#455A64"/>
<path d="M228.327 451.013H156.619L156.307 337.683H228.015L228.327 451.013Z" fill="#263238"/>
<path d="M228.015 337.683H192.161V451.013H228.015V337.683Z" fill="#263238"/>
<path d="M189.817 315.372H164.495V337.683H189.817V315.372Z" fill="#263238"/>
<path d="M230.113 336.381H156.593V337.682H230.113V336.381Z" fill="#263238"/>
<path d="M176.531 347.414H170.461V360.213H176.531V347.414Z" fill="#455A64"/>
<path d="M192.161 365.235C192.161 365.37 184.134 365.479 174.235 365.479C164.332 365.479 156.307 365.37 156.307 365.235C156.307 365.1 164.332 364.991 174.235 364.991C184.134 364.991 192.161 365.1 192.161 365.235Z" fill="#455A64"/>
<path d="M212.697 347.414H206.627V360.213H212.697V347.414Z" fill="#455A64"/>
<path d="M228.327 365.235C228.327 365.37 220.3 365.479 210.401 365.479C200.498 365.479 192.473 365.37 192.473 365.235C192.473 365.1 200.498 364.991 210.401 364.991C220.3 364.991 228.327 365.1 228.327 365.235Z" fill="#455A64"/>
<path d="M212.697 372.824H206.627V385.623H212.697V372.824Z" fill="#455A64"/>
<path d="M228.327 390.646C228.327 390.781 220.3 390.89 210.401 390.89C200.498 390.89 192.473 390.781 192.473 390.646C192.473 390.511 200.498 390.402 210.401 390.402C220.3 390.401 228.327 390.511 228.327 390.646Z" fill="#455A64"/>
<path d="M212.697 399H206.627V411.799H212.697V399Z" fill="#455A64"/>
<path d="M228.327 416.823C228.327 416.958 220.3 417.067 210.401 417.067C200.498 417.067 192.473 416.958 192.473 416.823C192.473 416.688 200.498 416.579 210.401 416.579C220.3 416.578 228.327 416.688 228.327 416.823Z" fill="#455A64"/>
<path d="M212.697 425.178H206.627V437.977H212.697V425.178Z" fill="#F5F5F5"/>
<path d="M228.327 443C228.327 443.135 220.3 443.245 210.401 443.245C200.498 443.245 192.473 443.136 192.473 443C192.473 442.865 200.498 442.756 210.401 442.756C220.3 442.755 228.327 442.865 228.327 443Z" fill="#455A64"/>
<path d="M176.531 373.211H170.461V386.01H176.531V373.211Z" fill="#F5F5F5"/>
<path d="M192.161 391.033C192.161 391.168 184.134 391.278 174.235 391.278C164.332 391.278 156.307 391.168 156.307 391.033C156.307 390.898 164.332 390.789 174.235 390.789C184.134 390.789 192.161 390.898 192.161 391.033Z" fill="#455A64"/>
<path d="M176.531 399.01H170.461V411.809H176.531V399.01Z" fill="#455A64"/>
<path d="M192.161 416.831C192.161 416.966 184.134 417.075 174.235 417.075C164.332 417.075 156.307 416.966 156.307 416.831C156.307 416.696 164.332 416.587 174.235 416.587C184.134 416.586 192.161 416.696 192.161 416.831Z" fill="#455A64"/>
<path d="M176.531 424.808H170.461V437.606H176.531V424.808Z" fill="#455A64"/>
<path d="M192.161 442.63C192.161 442.765 184.134 442.874 174.235 442.874C164.332 442.874 156.307 442.765 156.307 442.63C156.307 442.495 164.332 442.386 174.235 442.386C184.134 442.386 192.161 442.495 192.161 442.63Z" fill="#455A64"/>
<path d="M182.826 336.436C182.682 336.436 182.566 331.897 182.566 326.3C182.566 320.701 182.683 316.163 182.826 316.163C182.97 316.163 183.086 320.701 183.086 326.3C183.086 331.897 182.969 336.436 182.826 336.436Z" fill="#455A64"/>
<path d="M222.34 240.937C222.196 240.937 222.08 237.073 222.08 232.307C222.08 227.54 222.197 223.676 222.34 223.676C222.484 223.676 222.6 227.539 222.6 232.307C222.601 237.072 222.484 240.937 222.34 240.937Z" fill="#455A64"/>
<path d="M232.035 241.646C232.035 241.79 225.894 241.906 218.321 241.906C210.745 241.906 204.606 241.789 204.606 241.646C204.606 241.503 210.745 241.386 218.321 241.386C225.894 241.385 232.035 241.502 232.035 241.646Z" fill="#455A64"/>
<path d="M262.623 243.774C262.623 243.918 247.94 244.034 229.833 244.034C211.719 244.034 197.04 243.917 197.04 243.774C197.04 243.63 211.719 243.514 229.833 243.514C247.941 243.514 262.623 243.63 262.623 243.774Z" fill="#455A64"/>
<path d="M229.807 449.753C229.663 449.753 229.547 403.713 229.547 346.933C229.547 290.133 229.664 244.103 229.807 244.103C229.951 244.103 230.067 290.133 230.067 346.933C230.068 403.712 229.951 449.753 229.807 449.753Z" fill="#455A64"/>
<path d="M156.593 336.382C156.593 336.373 156.717 336.364 156.96 336.356C157.229 336.35 157.586 336.341 158.039 336.33C159.018 336.319 160.41 336.302 162.189 336.282C165.824 336.262 171.035 336.234 177.468 336.2C190.404 336.18 208.247 336.153 228.014 336.122H228.274V336.383C228.274 336.743 228.274 337.133 228.274 337.524C228.274 337.756 228.274 337.988 228.274 338.201V338.462H228.014C208.136 338.432 190.175 338.405 177.149 338.385C170.671 338.35 165.422 338.322 161.76 338.303C159.967 338.282 158.565 338.266 157.579 338.254C157.122 338.243 156.763 338.235 156.492 338.228C156.247 338.219 156.122 338.21 156.122 338.201C156.122 338.192 156.247 338.183 156.492 338.175C156.763 338.169 157.122 338.16 157.579 338.149C158.565 338.137 159.968 338.121 161.76 338.1C165.422 338.08 170.671 338.052 177.149 338.018C190.175 337.998 208.135 337.971 228.014 337.941L227.754 338.201C227.754 337.988 227.754 337.756 227.754 337.524C227.754 337.133 227.754 336.743 227.754 336.383L228.014 336.643C208.247 336.613 190.404 336.585 177.468 336.565C171.035 336.53 165.824 336.502 162.189 336.483C160.41 336.462 159.018 336.446 158.039 336.435C157.586 336.424 157.229 336.416 156.96 336.409C156.718 336.4 156.593 336.391 156.593 336.382Z" fill="#455A64"/>
<path d="M192.161 451.012C192.017 451.012 191.96 425.879 192.033 394.884C192.106 363.878 192.282 338.751 192.426 338.751C192.57 338.751 192.627 363.879 192.553 394.885C192.48 425.88 192.304 451.013 192.161 451.012Z" fill="#455A64"/>
<path d="M228.327 451.013C228.183 451.013 228.058 425.614 228.048 394.29C228.038 362.956 228.146 337.562 228.29 337.562C228.434 337.562 228.559 362.955 228.569 394.29C228.579 425.613 228.471 451.013 228.327 451.013Z" fill="#455A64"/>
<path d="M337.774 450.775L256.585 451.012V343.69H337.774V450.775Z" fill="#263238"/>
<path d="M299.706 343.69V450.775L337.774 451.012V343.69H299.706Z" fill="#263238"/>
<path d="M280.909 358.188H273.609V375.924H280.909V358.188Z" fill="#455A64"/>
<path d="M280.909 427.603H273.609V445.339H280.909V427.603Z" fill="#455A64"/>
<path d="M299.706 382.884C299.706 383.083 290.052 383.245 278.146 383.245C266.236 383.245 256.584 383.083 256.584 382.884C256.584 382.685 266.236 382.523 278.146 382.523C290.053 382.524 299.706 382.685 299.706 382.884Z" fill="#455A64"/>
<path d="M280.909 393.159H273.609V410.895H280.909V393.159Z" fill="#FFF500"/>
<path d="M299.706 417.856C299.706 418.055 290.052 418.217 278.146 418.217C266.236 418.217 256.584 418.055 256.584 417.856C256.584 417.657 266.236 417.495 278.146 417.495C290.053 417.495 299.706 417.657 299.706 417.856Z" fill="#455A64"/>
<path d="M315.09 358.188H307.79V375.924H315.09V358.188Z" fill="#F5F5F5"/>
<path d="M330.928 358.188H323.628V375.924H330.928V358.188Z" fill="#455A64"/>
<path d="M315.09 391.843H307.79V409.579H315.09V391.843Z" fill="#455A64"/>
<path d="M330.928 391.843H323.628V409.579H330.928V391.843Z" fill="#455A64"/>
<path d="M315.09 425.497H307.79V443.233H315.09V425.497Z" fill="#455A64"/>
<path d="M330.928 425.497H323.628V443.233H330.928V425.497Z" fill="#455A64"/>
<path d="M343.878 340.688H250.482V344.549H343.878V340.688Z" fill="#263238"/>
<path d="M343.878 344.549C343.874 344.545 343.87 344.465 343.865 344.307C343.861 344.131 343.856 343.899 343.849 343.594C343.84 342.942 343.827 341.988 343.809 340.689L343.878 340.758C332.949 340.868 295.246 340.949 250.487 340.949H250.483C250.599 340.833 250.222 341.209 250.743 340.689V340.69V340.692V340.7V340.716V340.747V340.809V340.933V341.181V341.676C250.743 342.005 250.743 342.332 250.743 342.656C250.743 343.304 250.743 343.939 250.743 344.551L250.483 344.291C276.424 344.333 299.73 344.371 316.576 344.399C324.998 344.432 331.804 344.459 336.529 344.478C338.872 344.494 340.697 344.507 341.962 344.515C342.569 344.523 343.041 344.529 343.383 344.533C343.703 344.537 343.878 344.549 343.878 344.549C343.878 344.549 343.728 344.561 343.418 344.567C343.085 344.571 342.625 344.577 342.032 344.585C340.782 344.594 338.976 344.606 336.66 344.622C331.949 344.641 325.164 344.668 316.768 344.701C299.872 344.728 276.499 344.766 250.482 344.808L250.222 344.809V344.548C250.222 343.936 250.222 343.301 250.222 342.653C250.222 342.329 250.222 342.002 250.222 341.673V341.178V340.93V340.806V340.744V340.713V340.697V340.689V340.687V340.686C250.742 340.165 250.367 340.542 250.483 340.426H250.487C295.246 340.426 332.949 340.507 343.878 340.617L343.948 340.618L343.947 340.687C343.929 342.004 343.916 342.972 343.907 343.632C343.9 343.931 343.895 344.157 343.891 344.33C343.886 344.482 343.882 344.553 343.878 344.549Z" fill="#455A64"/>
<path d="M299.706 451.044C299.562 451.044 299.446 427.315 299.446 398.05C299.446 368.775 299.563 345.051 299.706 345.051C299.849 345.051 299.966 368.775 299.966 398.05C299.967 427.314 299.85 451.044 299.706 451.044Z" fill="#455A64"/>
<path d="M256.585 449.824C256.441 449.824 256.325 426.531 256.325 397.804C256.325 369.067 256.442 345.779 256.585 345.779C256.729 345.779 256.845 369.067 256.845 397.804C256.845 426.531 256.729 449.824 256.585 449.824Z" fill="#455A64"/>
<path d="M232.094 138.66L231.926 138.689C231.617 138.8 231.507 139.259 231.732 139.499C231.957 139.738 232.422 139.656 232.552 139.355C232.683 139.053 232.423 138.659 232.094 138.66Z" fill="white"/>
<path d="M271.418 80.5317L271.25 80.5607C270.941 80.6717 270.831 81.1307 271.056 81.3707C271.281 81.6107 271.746 81.5277 271.876 81.2267C272.006 80.9247 271.746 80.5307 271.418 80.5317Z" fill="white"/>
<path d="M325.637 118.584L325.469 118.613C325.16 118.725 325.05 119.183 325.275 119.423C325.5 119.662 325.965 119.58 326.095 119.279C326.225 118.977 325.965 118.583 325.637 118.584Z" fill="white"/>
<path d="M302.9 177.7L302.732 177.729C302.423 177.84 302.313 178.299 302.538 178.538C302.763 178.777 303.228 178.695 303.358 178.394C303.488 178.093 303.228 177.699 302.9 177.7Z" fill="white"/>
<path d="M325.81 247.183L325.642 247.212C325.333 247.323 325.223 247.782 325.448 248.022C325.673 248.261 326.138 248.179 326.268 247.878C326.399 247.576 326.139 247.182 325.81 247.183Z" fill="white"/>
<path d="M174.595 118.234L174.427 118.263C174.118 118.375 174.008 118.833 174.233 119.073C174.458 119.312 174.923 119.23 175.053 118.929C175.183 118.627 174.923 118.233 174.595 118.234Z" fill="white"/>
<path d="M323.795 64.4819L323.627 64.5119C323.318 64.6229 323.208 65.0819 323.433 65.3209C323.658 65.5599 324.123 65.4779 324.253 65.1769C324.384 64.8749 324.124 64.4809 323.795 64.4819Z" fill="white"/>
<path d="M294.843 260.742L294.675 260.771C294.366 260.882 294.256 261.341 294.481 261.581C294.706 261.82 295.171 261.738 295.301 261.437C295.431 261.135 295.171 260.741 294.843 260.742Z" fill="white"/>
<path d="M325.517 318.67L325.349 318.7C325.04 318.811 324.93 319.27 325.155 319.509C325.38 319.748 325.845 319.666 325.975 319.365C326.106 319.063 325.846 318.669 325.517 318.67Z" fill="white"/>
<path d="M183.187 296.283L183.019 296.313C182.71 296.424 182.6 296.883 182.825 297.122C183.05 297.361 183.515 297.279 183.645 296.978C183.775 296.675 183.515 296.282 183.187 296.283Z" fill="white"/>
<path d="M221.658 181.736L221.491 181.765C221.182 181.876 221.072 182.335 221.297 182.575C221.522 182.814 221.987 182.732 222.117 182.431C222.247 182.13 221.987 181.735 221.658 181.736Z" fill="white"/>
<path d="M315.451 154.855L315.283 154.885C314.974 154.996 314.864 155.455 315.089 155.695C315.314 155.934 315.779 155.852 315.909 155.551C316.04 155.248 315.78 154.854 315.451 154.855Z" fill="white"/>
<path d="M178.784 201.47L178.616 201.499C178.307 201.61 178.197 202.069 178.422 202.308C178.647 202.547 179.112 202.465 179.242 202.164C179.372 201.863 179.113 201.469 178.784 201.47Z" fill="white"/>
<path d="M249.541 222.067L249.373 222.097C249.064 222.208 248.954 222.667 249.179 222.906C249.404 223.145 249.869 223.063 249.999 222.762C250.13 222.46 249.87 222.066 249.541 222.067Z" fill="white"/>
<path d="M173.467 252.349L173.914 253.092C174.416 253.926 175.146 254.598 176.018 255.029L176.795 255.413L176.053 255.86C175.219 256.362 174.547 257.092 174.116 257.964L173.732 258.741L173.285 257.998C172.783 257.164 172.053 256.492 171.181 256.061L170.404 255.677L171.147 255.23C171.981 254.729 172.653 253.998 173.084 253.126L173.467 252.349Z" fill="white"/>
<path d="M189.685 148.463L190.132 149.206C190.633 150.04 191.363 150.712 192.236 151.143L193.013 151.527L192.27 151.974C191.436 152.475 190.764 153.206 190.333 154.078L189.949 154.855L189.502 154.112C189.001 153.278 188.27 152.606 187.398 152.175L186.621 151.791L187.364 151.344C188.198 150.843 188.87 150.112 189.301 149.24L189.685 148.463Z" fill="white"/>
<path d="M232.971 67.813L233.418 68.556C233.919 69.39 234.65 70.062 235.522 70.493L236.299 70.877L235.556 71.324C234.722 71.826 234.05 72.556 233.619 73.428L233.235 74.205L232.788 73.462C232.286 72.628 231.556 71.956 230.684 71.525L229.907 71.141L230.65 70.694C231.484 70.192 232.156 69.462 232.587 68.59L232.971 67.813Z" fill="white"/>
<path d="M292.785 207.786L293.232 208.529C293.734 209.362 294.464 210.035 295.336 210.466L296.113 210.85L295.37 211.297C294.536 211.798 293.864 212.529 293.433 213.401L293.049 214.178L292.602 213.435C292.1 212.601 291.37 211.929 290.498 211.498L289.721 211.114L290.464 210.667C291.298 210.166 291.97 209.435 292.401 208.563L292.785 207.786Z" fill="white"/>
<g opacity="0.3">
<path d="M257.645 193.318L257.842 193.645C258.063 194.012 258.384 194.308 258.768 194.497L259.11 194.666L258.783 194.863C258.416 195.084 258.12 195.405 257.93 195.789L257.761 196.131L257.564 195.804C257.343 195.437 257.022 195.141 256.638 194.952L256.296 194.783L256.623 194.586C256.99 194.365 257.286 194.044 257.475 193.66L257.645 193.318Z" fill="white"/>
</g>
<path d="M321.46 190.084L321.657 190.411C321.878 190.778 322.199 191.074 322.583 191.264L322.925 191.433L322.598 191.63C322.231 191.851 321.935 192.172 321.745 192.556L321.576 192.898L321.379 192.571C321.158 192.204 320.837 191.908 320.453 191.719L320.111 191.55L320.438 191.353C320.805 191.132 321.101 190.811 321.29 190.427L321.46 190.084Z" fill="white"/>
<path d="M260.458 158.748L260.655 159.075C260.876 159.442 261.197 159.738 261.581 159.928L261.923 160.097L261.596 160.294C261.229 160.515 260.933 160.836 260.743 161.22L260.574 161.562L260.377 161.235C260.156 160.868 259.835 160.572 259.451 160.383L259.109 160.214L259.436 160.017C259.803 159.796 260.099 159.475 260.289 159.091L260.458 158.748Z" fill="white"/>
<path d="M294.93 92.5117L295.127 92.8387C295.348 93.2057 295.669 93.5017 296.053 93.6917L296.395 93.8607L296.068 94.0577C295.701 94.2787 295.405 94.5997 295.215 94.9837L295.046 95.3257L294.849 94.9987C294.628 94.6317 294.307 94.3357 293.923 94.1467L293.581 93.9777L293.908 93.7807C294.275 93.5597 294.571 93.2387 294.76 92.8547L294.93 92.5117Z" fill="white"/>
<path d="M281.743 304.025L281.94 304.352C282.161 304.719 282.482 305.015 282.866 305.204L283.208 305.373L282.881 305.57C282.514 305.791 282.218 306.112 282.028 306.496L281.859 306.838L281.662 306.511C281.441 306.144 281.12 305.848 280.736 305.658L280.394 305.489L280.721 305.292C281.088 305.071 281.384 304.75 281.573 304.366L281.743 304.025Z" fill="white"/>
<path d="M193.068 208.51L193.265 208.837C193.486 209.204 193.807 209.5 194.191 209.69L194.533 209.859L194.206 210.056C193.839 210.277 193.543 210.598 193.353 210.982L193.184 211.324L192.987 210.997C192.766 210.63 192.445 210.334 192.061 210.144L191.719 209.975L192.046 209.778C192.413 209.557 192.709 209.236 192.898 208.852L193.068 208.51Z" fill="white"/>
<g opacity="0.3">
<path d="M283.099 124.293L283.466 124.903C283.878 125.587 284.477 126.139 285.193 126.493L285.831 126.808L285.221 127.175C284.537 127.587 283.985 128.186 283.631 128.902L283.316 129.54L282.949 128.93C282.537 128.246 281.938 127.694 281.222 127.34L280.584 127.025L281.194 126.658C281.878 126.246 282.43 125.647 282.784 124.931L283.099 124.293Z" fill="white"/>
</g>
<g opacity="0.3">
<path d="M313.318 284.401L313.685 285.011C314.097 285.695 314.696 286.247 315.412 286.601L316.05 286.916L315.44 287.283C314.755 287.695 314.204 288.294 313.85 289.01L313.535 289.648L313.168 289.038C312.756 288.354 312.157 287.802 311.441 287.448L310.803 287.133L311.413 286.766C312.097 286.354 312.649 285.755 313.003 285.039L313.318 284.401Z" fill="white"/>
</g>
<g opacity="0.1">
<path d="M304.141 250.61C297.055 252.682 291.602 255.159 286.406 260.404C281.21 265.649 278.226 273.58 280.464 280.615C282.78 287.898 290.407 292.754 298.046 292.999C308.671 293.339 318.89 284.965 320.644 274.481C322.399 263.997 318.161 249.398 304.141 250.61Z" fill="white"/>
</g>
<path d="M359.156 25.0989C359.258 25.2009 355.874 28.7369 351.599 32.9959C347.323 37.2569 343.775 40.6269 343.674 40.5249C343.573 40.4229 346.956 36.8879 351.232 32.6269C355.506 28.3679 359.054 24.9969 359.156 25.0989Z" fill="#263238"/>
<path d="M343.673 451.044C343.672 448.741 343.57 279.442 343.426 40.5256L343.673 40.7726C285.569 40.7766 222.204 40.7806 156.355 40.7856H156.326L156.586 40.5256C156.558 199.929 156.533 344.74 156.515 451.044L156.326 450.855C272.005 450.971 342.186 451.042 343.673 451.044C342.186 451.046 272.005 451.116 156.326 451.233H156.137V451.044C156.119 344.74 156.093 199.929 156.066 40.5256V40.2656H156.326H156.355C222.204 40.2706 285.569 40.2746 343.673 40.2786H343.92V40.5256C343.777 279.442 343.675 448.742 343.673 451.044Z" fill="#263238"/>
<path d="M156.327 40.5248C156.161 40.7308 152.591 37.3438 148.341 33.0638C146.214 30.9198 144.314 28.9528 142.959 27.5108C141.604 26.0678 140.793 25.1488 140.844 25.0988C140.895 25.0488 141.799 25.8758 143.221 27.2528C144.643 28.6288 146.583 30.5548 148.71 32.6978C150.768 34.7948 152.629 36.6918 154.123 38.2148C154.739 38.8558 155.278 39.4158 155.746 39.9028C155.961 40.1318 156.141 40.3258 156.327 40.5248Z" fill="#263238"/>
<path d="M156.327 451.044C156.428 451.146 153.044 454.672 148.77 458.918C144.494 463.166 140.946 466.525 140.845 466.423C140.744 466.321 144.127 462.796 148.403 458.548C152.677 454.302 156.225 450.942 156.327 451.044Z" fill="#263238"/>
<path d="M359.156 466.423C359.055 466.526 355.494 463.201 351.202 458.998C346.909 454.794 343.511 451.303 343.612 451.2C343.712 451.097 347.273 454.421 351.567 458.626C355.858 462.829 359.256 466.32 359.156 466.423Z" fill="#263238"/>
<path d="M351.322 269.973C351.319 269.94 351.675 269.973 352.286 269.764C352.874 269.564 353.775 269.003 354.174 267.844C354.391 267.278 354.321 266.591 354.323 265.831C354.316 265.073 354.309 264.252 354.302 263.372C354.291 261.601 354.278 259.593 354.263 257.378C354.247 252.923 354.228 247.639 354.207 241.776C354.202 238.838 354.197 235.757 354.192 232.563C354.191 230.965 354.189 229.34 354.188 227.69C354.208 226.914 353.929 226.16 353.394 225.602C352.867 225.043 352.104 224.708 351.325 224.713C350.545 224.707 349.782 225.041 349.254 225.6C348.718 226.158 348.438 226.912 348.457 227.688C348.456 229.338 348.454 230.964 348.453 232.562C348.448 235.757 348.443 238.839 348.438 241.777C348.417 247.641 348.398 252.925 348.382 257.38C348.368 259.595 348.355 261.603 348.343 263.374C348.335 264.254 348.328 265.074 348.322 265.833C348.323 266.593 348.254 267.281 348.471 267.846C348.87 269.004 349.771 269.565 350.359 269.765C350.97 269.973 351.326 269.94 351.322 269.973C351.322 269.973 350.969 270.046 350.326 269.864C349.708 269.689 348.738 269.137 348.279 267.912C348.032 267.302 348.09 266.573 348.073 265.832C348.066 265.074 348.059 264.253 348.051 263.373C348.04 261.602 348.027 259.594 348.013 257.379C347.997 252.924 347.978 247.64 347.957 241.776C347.952 238.838 347.947 235.756 347.942 232.561C347.941 230.963 347.939 229.337 347.938 227.687C347.913 226.812 348.245 225.889 348.877 225.24C349.498 224.581 350.404 224.185 351.325 224.192C352.245 224.186 353.15 224.584 353.77 225.243C354.401 225.893 354.732 226.816 354.706 227.69C354.705 229.34 354.703 230.965 354.702 232.563C354.697 235.757 354.692 238.839 354.687 241.776C354.666 247.639 354.647 252.923 354.631 257.378C354.617 259.593 354.604 261.601 354.593 263.372C354.585 264.252 354.578 265.072 354.571 265.831C354.554 266.573 354.613 267.301 354.365 267.911C353.907 269.137 352.936 269.688 352.318 269.864C351.676 270.046 351.322 269.973 351.322 269.973Z" fill="#263238"/>
<path d="M351.415 182.225H155.141V183.925H351.415V182.225Z" fill="#F5F5F5"/>
<path d="M351.415 367.057H155.141V368.757H351.415V367.057Z" fill="#F5F5F5"/>
<path d="M249.841 32.9337L249.841 463.389H252.263L252.263 32.9337H249.841Z" fill="#F5F5F5"/>
<path d="M87.4761 454.211L88.4831 473.204L88.3381 480.667C88.2831 483.5 90.5901 483.008 93.4231 483.063L127.982 483.733C127.982 483.733 129.679 480.295 127.15 479.161C124.621 478.027 105.503 466.993 105.503 466.993L106.241 449.115L87.4761 454.211Z" fill="#28292E"/>
<path d="M95.927 482.908C95.857 482.914 95.799 482.249 95.486 481.239C95.179 480.234 94.56 478.883 93.486 477.692C92.412 476.501 91.132 475.745 90.164 475.336C89.192 474.92 88.536 474.794 88.55 474.725C88.555 474.678 89.238 474.698 90.274 475.055C91.302 475.404 92.674 476.153 93.803 477.406C94.932 478.658 95.536 480.1 95.777 481.158C96.025 482.226 95.974 482.908 95.927 482.908Z" fill="white"/>
<path d="M117.779 483.534C117.735 483.545 117.547 483.076 117.48 482.264C117.413 481.46 117.554 480.284 118.172 479.184C118.784 478.083 119.64 477.321 120.275 476.838C120.922 476.36 121.37 476.142 121.399 476.185C121.436 476.239 121.05 476.545 120.467 477.07C119.895 477.6 119.115 478.363 118.545 479.39C117.97 480.416 117.795 481.485 117.782 482.257C117.77 483.033 117.849 483.521 117.779 483.534Z" fill="white"/>
<path d="M123.057 434.387L111.567 449.543L106.639 455.15C104.769 457.278 106.848 458.391 108.976 460.262L134.939 483.08C134.939 483.08 138.455 481.549 137.255 479.051C136.055 476.553 128.575 455.784 128.575 455.784L140.678 442.606L123.057 434.387Z" fill="#28292E"/>
<path d="M110.989 461.76C110.932 461.72 111.317 461.174 111.729 460.201C112.144 459.235 112.542 457.804 112.491 456.201C112.44 454.598 111.95 453.195 111.474 452.258C111 451.313 110.581 450.793 110.636 450.749C110.67 450.716 111.179 451.173 111.739 452.114C112.299 453.044 112.863 454.502 112.917 456.188C112.971 457.873 112.502 459.364 112.002 460.328C111.503 461.302 111.025 461.79 110.989 461.76Z" fill="#263238"/>
<path d="M127.275 476.343C127.234 476.323 127.394 475.844 127.867 475.18C128.335 474.523 129.201 473.715 130.384 473.274C131.562 472.828 132.708 472.798 133.505 472.84C134.308 472.893 134.79 473.015 134.784 473.067C134.777 473.132 134.285 473.117 133.501 473.141C132.722 473.177 131.633 473.256 130.535 473.672C129.434 474.084 128.61 474.788 128.101 475.369C127.591 475.954 127.337 476.378 127.275 476.343Z" fill="white"/>
<path d="M92.6781 107.604C87.9101 116.069 85.7641 125.808 85.1281 135.503C84.4921 145.198 85.3031 154.923 86.1151 164.605C86.2621 166.358 86.5171 168.322 87.9071 169.401C89.3181 170.497 91.3171 170.234 93.0761 169.917C95.3781 169.501 97.8321 169.009 99.4881 167.356C101.618 165.23 101.774 161.885 101.767 158.875C101.736 145.702 101.14 132.531 99.9811 119.41" fill="#263238"/>
<path d="M142.545 113.069L136.559 138.164L124.528 131.777L132.783 104.007L142.545 113.069Z" fill="#FFBE9D"/>
<path d="M154.89 84.4291C154.89 84.4291 151.186 80.4791 149.705 80.2321C148.224 79.9851 139.829 84.4291 139.829 84.4291L133.163 93.3171V110.106L142.545 113.069L146.145 108.841C146.145 108.841 154.634 104.341 154.89 103.255C155.145 102.169 154.89 95.4961 154.89 95.4961C154.89 95.4961 152.197 94.2541 151.732 97.5131L151.422 100.461L146.146 102.013L147.853 95.1851C147.853 95.1851 155.018 92.8571 155.005 91.4611C154.992 90.0641 152.974 88.6681 152.974 88.6681L155.005 85.0991" fill="#FFBE9D"/>
<path d="M72.9531 276.47C72.9531 276.47 63.7681 294.309 71.5741 333.82C76.4361 358.429 81.3751 465.412 81.3751 465.412L119.708 464.777C119.708 464.777 119.708 387.653 119.577 374.055C119.493 365.37 122.936 330.337 122.936 330.337L125.196 286.859L72.9531 276.47Z" fill="#0000FF"/>
<path d="M140.043 284.05C139.459 285.346 180.569 353.316 180.559 367.691C180.549 381.543 133.988 451.321 133.988 451.321L104.349 430.952L137.145 373.709L108.196 324.552L98.9731 289.733L140.043 284.05Z" fill="#0000FF"/>
<path d="M119.708 464.777C119.699 464.777 119.69 464.642 119.68 464.379C119.673 464.091 119.664 463.703 119.652 463.21C119.638 462.154 119.619 460.645 119.593 458.715C119.565 454.783 119.525 449.141 119.475 442.182C119.425 428.197 119.357 408.923 119.282 387.635C119.272 382.308 119.263 377.108 119.254 372.085C119.215 370.828 119.353 369.588 119.416 368.357C119.494 367.127 119.572 365.908 119.649 364.703C119.803 362.292 119.954 359.932 120.102 357.628C120.701 348.422 121.241 340.13 121.695 333.155C122.166 326.211 122.548 320.583 122.814 316.66C122.956 314.736 123.067 313.231 123.144 312.177C123.186 311.685 123.219 311.3 123.243 311.012C123.268 310.75 123.285 310.616 123.294 310.616C123.303 310.617 123.303 310.752 123.296 311.015C123.284 311.303 123.269 311.69 123.249 312.183C123.194 313.238 123.116 314.745 123.016 316.671C122.789 320.596 122.464 326.226 122.063 333.173C121.641 340.148 121.139 348.44 120.582 357.645C120.44 359.948 120.295 362.308 120.147 364.718C120.072 365.923 119.997 367.141 119.921 368.371C119.86 369.601 119.724 370.841 119.765 372.098C119.777 377.12 119.79 382.32 119.804 387.646C119.82 408.93 119.834 428.2 119.845 442.182C119.825 449.14 119.809 454.781 119.798 458.713C119.781 460.643 119.768 462.152 119.759 463.208C119.749 463.701 119.741 464.089 119.736 464.377C119.726 464.642 119.717 464.777 119.708 464.777Z" fill="#263238"/>
<path d="M153.932 371.576C153.92 371.658 152.903 371.548 151.261 371.492C149.62 371.434 147.347 371.475 144.869 371.82C142.39 372.171 140.195 372.758 138.633 373.265C137.07 373.771 136.123 374.156 136.089 374.081C136.063 374.026 136.96 373.519 138.511 372.918C140.059 372.315 142.278 371.661 144.797 371.304C147.316 370.953 149.63 370.971 151.284 371.124C152.94 371.276 153.942 371.516 153.932 371.576Z" fill="#263238"/>
<path d="M119.498 447.286C119.497 447.322 118.955 447.346 117.975 447.359C116.9 447.368 115.505 447.379 113.826 447.392C110.324 447.415 105.486 447.474 100.147 447.645C94.8061 447.818 89.9741 448.071 86.4771 448.273C84.8011 448.368 83.4081 448.446 82.3351 448.507C81.3561 448.557 80.8141 448.568 80.8101 448.532C80.8071 448.496 81.3441 448.417 82.3181 448.305C83.2921 448.191 84.7041 448.054 86.4511 447.906C89.9441 447.609 94.7801 447.298 100.13 447.125C105.478 446.954 110.323 446.953 113.828 447.025C115.581 447.06 116.999 447.106 117.978 447.157C118.958 447.206 119.499 447.25 119.498 447.286Z" fill="#263238"/>
<path d="M144.451 434.421C144.426 434.447 144.094 434.189 143.516 433.701C142.852 433.144 142.032 432.456 141.062 431.641C138.982 429.914 136.047 427.604 132.655 425.261C129.259 422.922 126.057 420.998 123.704 419.667C122.598 419.049 121.663 418.527 120.907 418.105C120.245 417.738 119.886 417.519 119.902 417.487C119.918 417.455 120.307 417.612 120.999 417.924C121.692 418.233 122.678 418.716 123.881 419.344C126.287 420.597 129.538 422.481 132.952 424.833C136.362 427.188 139.277 429.558 141.303 431.362C142.317 432.263 143.119 433.013 143.654 433.552C144.19 434.087 144.475 434.395 144.451 434.421Z" fill="#263238"/>
<path d="M82.4181 448.332C82.4091 448.332 82.3971 448.201 82.3821 447.946C82.3691 447.665 82.3511 447.29 82.3291 446.812C82.2921 445.785 82.2401 444.322 82.1741 442.451C82.0481 438.635 81.8661 433.162 81.6421 426.413C81.1801 412.871 80.4471 394.167 79.4021 373.52C78.3511 352.867 77.1861 334.183 76.2751 320.664C75.8141 313.926 75.4411 308.464 75.1801 304.655C75.0571 302.787 74.9601 301.326 74.8931 300.302C74.8671 299.825 74.8471 299.449 74.8311 299.169C74.8201 298.913 74.8191 298.782 74.8281 298.781C74.8371 298.78 74.8561 298.91 74.8841 299.164C74.9121 299.444 74.9491 299.818 74.9971 300.293C75.0871 301.316 75.2171 302.775 75.3821 304.639C75.7081 308.414 76.1411 313.88 76.6421 320.638C77.6481 334.152 78.8711 352.837 79.9221 373.494C80.9681 394.145 81.6421 412.855 82.0101 426.401C82.1961 433.174 82.3191 438.657 82.3761 442.446C82.4011 444.318 82.4201 445.782 82.4331 446.809C82.4341 447.287 82.4341 447.663 82.4351 447.944C82.4331 448.201 82.4271 448.332 82.4181 448.332Z" fill="white"/>
<path d="M97.9961 304.483C98.1401 304.485 97.7271 336.394 97.0741 375.745C96.4211 415.109 95.7751 447.007 95.6311 447.005C95.4871 447.003 95.9001 415.1 96.5541 375.737C97.2061 336.385 97.8521 304.48 97.9961 304.483Z" fill="white"/>
<path d="M108.138 446.141C108.129 446.141 108.119 446.018 108.108 445.778C108.099 445.511 108.087 445.158 108.072 444.711C108.051 443.741 108.021 442.365 107.983 440.607C107.912 437.042 107.857 431.883 107.829 425.509C107.772 412.76 107.902 395.145 108.461 375.699C109.027 356.247 109.914 338.652 110.708 325.927C111.103 319.565 111.457 314.418 111.733 310.864C111.873 309.111 111.982 307.739 112.059 306.772C112.1 306.326 112.132 305.975 112.157 305.709C112.182 305.47 112.199 305.347 112.208 305.348C112.217 305.349 112.217 305.472 112.21 305.713C112.198 305.98 112.183 306.332 112.164 306.78C112.11 307.748 112.033 309.123 111.936 310.878C111.731 314.468 111.438 319.609 111.076 325.949C110.376 338.677 109.548 356.268 108.982 375.715C108.424 395.155 108.235 412.763 108.198 425.51C108.193 431.861 108.189 437.011 108.186 440.606C108.182 442.364 108.179 443.741 108.177 444.711C108.17 445.159 108.165 445.512 108.162 445.779C108.154 446.017 108.147 446.141 108.138 446.141Z" fill="white"/>
<path d="M144.863 371.76C144.846 371.764 144.772 371.543 144.647 371.117C144.514 370.638 144.341 370.018 144.126 369.248C143.661 367.564 143.016 365.23 142.226 362.372C140.593 356.575 138.195 348.605 135.196 339.92C132.189 331.234 129.151 323.485 126.853 317.918C125.709 315.182 124.774 312.949 124.1 311.337C123.793 310.599 123.546 310.004 123.355 309.545C123.19 309.133 123.111 308.913 123.127 308.906C123.143 308.898 123.254 309.104 123.45 309.502C123.664 309.951 123.941 310.532 124.284 311.255C125.003 312.78 126 315.006 127.192 317.775C129.579 323.311 132.676 331.051 135.687 339.75C138.691 348.448 141.037 356.446 142.58 362.275C143.353 365.189 143.945 367.555 144.322 369.199C144.498 369.979 144.639 370.608 144.749 371.093C144.841 371.526 144.881 371.756 144.863 371.76Z" fill="white"/>
<path d="M148.978 372.213C148.995 372.22 148.939 372.397 148.817 372.728C148.669 373.112 148.485 373.587 148.262 374.166C147.775 375.413 147.02 377.197 146.04 379.381C144.085 383.751 141.146 389.688 137.449 395.993C133.743 402.296 129.989 407.755 127.126 411.591C125.696 413.51 124.506 415.039 123.654 416.072C123.257 416.549 122.932 416.941 122.669 417.257C122.439 417.524 122.312 417.659 122.298 417.648C122.284 417.637 122.384 417.48 122.587 417.192C122.829 416.86 123.129 416.449 123.495 415.948C124.297 414.878 125.44 413.318 126.829 411.375C129.611 407.491 133.305 402.015 137.001 395.73C140.688 389.443 143.67 383.55 145.707 379.228C146.727 377.068 147.533 375.309 148.077 374.088C148.337 373.525 148.55 373.062 148.722 372.689C148.873 372.37 148.961 372.206 148.978 372.213Z" fill="white"/>
<path d="M134.04 425.871C134.033 425.866 134.102 425.762 134.244 425.564C134.404 425.347 134.615 425.059 134.883 424.694C135.471 423.911 136.307 422.798 137.375 421.376C139.533 418.492 142.693 414.342 146.318 409.023C149.914 403.697 154.028 397.184 157.381 389.369C160.703 381.586 163.301 372.401 163.194 362.584C163.143 360.14 162.974 357.724 162.592 355.372C162.4 354.198 162.124 353.046 161.897 351.896C161.685 350.741 161.285 349.642 160.993 348.526C159.657 344.107 157.851 340.014 155.925 336.228C151.997 328.684 147.742 322.284 144.405 316.773C141.024 311.285 138.523 306.692 137.015 303.416C136.21 301.802 135.718 300.487 135.347 299.614C135.178 299.194 135.045 298.863 134.944 298.613C134.856 298.386 134.815 298.269 134.823 298.265C134.831 298.262 134.889 298.373 134.993 298.593C135.105 298.838 135.254 299.162 135.444 299.573C135.846 300.432 136.366 301.73 137.198 303.328C138.759 306.571 141.301 311.123 144.719 316.58C148.093 322.062 152.382 328.442 156.352 336.008C158.298 339.805 160.127 343.922 161.482 348.378C161.779 349.503 162.183 350.612 162.399 351.778C162.63 352.94 162.909 354.103 163.104 355.289C163.492 357.666 163.664 360.107 163.715 362.576C163.823 372.492 161.187 381.74 157.822 389.556C154.426 397.406 150.264 403.918 146.622 409.229C142.951 414.532 139.744 418.65 137.536 421.497C136.435 422.893 135.573 423.986 134.966 424.756C134.681 425.108 134.456 425.385 134.286 425.594C134.13 425.783 134.047 425.876 134.04 425.871Z" fill="white"/>
<g opacity="0.3">
<path d="M68.8011 295.101C70.0051 299.556 74.5951 302.553 78.8601 304.316C90.6091 309.171 103.603 310.978 116.231 309.513C122.252 308.815 128.319 307.329 133.383 303.996C135.591 302.543 137.618 300.737 140.095 299.813C142.572 298.89 145.758 299.121 147.355 301.227C148.063 299.664 147.608 297.606 146.32 296.471C145.737 295.957 143.239 295.186 141.704 294.42C139.93 293.535 137.322 292.389 137.322 292.389C137.322 292.389 135.256 295.66 134.154 296.768C131.409 299.526 127.743 301.485 124.047 302.703C112.619 306.47 100.112 306.003 88.3721 303.104C81.4781 301.403 74.7031 298.986 68.8011 295.101Z" fill="black"/>
</g>
<g opacity="0.3">
<path d="M122.698 319.039C126.259 333.311 129.618 348.098 130.787 362.76C127.537 356.762 124.518 352.665 121.268 346.667L122.698 319.039Z" fill="black"/>
</g>
<path d="M142.13 123.64L139.538 125.277C140.337 132.125 136.577 138.613 132.674 144.296C128.771 149.979 124.427 155.844 123.818 162.711C122.698 175.333 134.433 185.917 135.088 198.571C136.787 198.574 145.989 198.065 147.687 198.068C149.394 172.154 145.011 150.374 142.13 123.64Z" fill="#263238"/>
<path d="M90.1741 125.961C89.8951 135.662 94.0131 145.404 101.166 151.963C102.803 147.219 104.441 142.475 106.078 137.731" fill="#263238"/>
<path d="M127.211 97.6509C122.994 95.3459 117.899 95.0149 113.187 95.9579C108.474 96.9019 104.083 99.0349 99.923 101.442C97.589 102.792 95.262 104.277 93.584 106.388C90.522 110.241 87.495 116.568 87.2 121.481C86.961 125.453 88.483 135.398 90.162 139.006C91.703 142.317 98.914 144.837 102.473 145.655L135.132 107.673C133.977 103.452 131.05 99.7489 127.211 97.6509Z" fill="#263238"/>
<path d="M132.842 102.774L125.013 101.374C129.292 111.566 130.453 134.874 132.901 145.654C135.787 141.466 142.489 128.712 142.13 123.64C141.772 118.567 142.144 101.909 132.842 102.774Z" fill="#263238"/>
<path d="M137.318 119.39C136.808 111.569 131.604 101.984 123.812 102.826L105.782 107.426C99.9981 108.902 96.1431 113.785 95.7221 119.74C95.7011 120.037 95.6711 119.675 95.6761 119.898L99.7001 166.587L118.766 191.259L125.175 167.995C125.182 164.187 125.186 158.438 125.187 158.457C125.187 158.457 135.176 156.775 137.218 143.733C138.234 137.248 137.885 128.079 137.318 119.39Z" fill="#FFBE9D"/>
<path d="M135.246 128.488C135.279 129.371 134.559 130.127 133.637 130.179C132.718 130.23 131.943 129.559 131.91 128.675C131.877 127.792 132.597 127.035 133.517 126.984C134.439 126.932 135.213 127.605 135.246 128.488Z" fill="#263238"/>
<path d="M135.361 124.498C135.154 124.717 133.885 123.782 132.086 123.791C130.288 123.774 128.97 124.703 128.774 124.483C128.678 124.386 128.889 123.992 129.462 123.572C130.027 123.154 130.992 122.746 132.112 122.749C133.233 122.753 134.177 123.163 134.719 123.584C135.274 124.006 135.463 124.4 135.361 124.498Z" fill="#263238"/>
<path d="M119.386 129.083C119.419 129.966 118.699 130.722 117.777 130.773C116.858 130.824 116.083 130.152 116.05 129.269C116.017 128.386 116.737 127.629 117.657 127.578C118.578 127.526 119.353 128.2 119.386 129.083Z" fill="#263238"/>
<path d="M118.273 124.498C118.065 124.716 116.795 123.782 114.997 123.791C113.2 123.774 111.881 124.702 111.686 124.482C111.59 124.385 111.798 123.991 112.374 123.571C112.939 123.152 113.904 122.745 115.024 122.747C116.145 122.751 117.088 123.162 117.631 123.582C118.185 124.006 118.374 124.4 118.273 124.498Z" fill="#263238"/>
<path d="M123.898 138.63C123.89 138.528 125.007 138.332 126.819 138.096C127.278 138.047 127.713 137.955 127.79 137.642C127.898 137.31 127.704 136.815 127.48 136.281C127.045 135.17 126.591 134.006 126.113 132.785C124.215 127.808 122.84 123.715 123.041 123.641C123.242 123.566 124.944 127.54 126.842 132.517C127.299 133.744 127.736 134.914 128.151 136.033C128.326 136.555 128.626 137.147 128.393 137.836C128.27 138.18 127.934 138.429 127.639 138.509C127.345 138.6 127.086 138.605 126.859 138.619C125.037 138.721 123.905 138.732 123.898 138.63Z" fill="#263238"/>
<path d="M107.896 153.818C107.896 153.818 112.139 162.773 125.185 161.524L125.189 158.457C125.189 158.457 116.597 159.022 107.896 153.818Z" fill="#EB996E"/>
<path d="M117.709 117.996C117.533 118.485 115.736 118.258 113.626 118.517C111.51 118.734 109.809 119.355 109.528 118.917C109.402 118.707 109.698 118.246 110.385 117.771C111.066 117.297 112.154 116.845 113.421 116.701C114.688 116.56 115.849 116.758 116.618 117.069C117.393 117.381 117.784 117.764 117.709 117.996Z" fill="#263238"/>
<path d="M134.774 118.994C134.458 119.403 133.218 118.982 131.727 118.965C130.237 118.896 128.975 119.246 128.683 118.819C128.555 118.611 128.753 118.202 129.304 117.814C129.847 117.427 130.755 117.11 131.779 117.139C132.803 117.17 133.691 117.538 134.211 117.955C134.74 118.374 134.913 118.795 134.774 118.994Z" fill="#263238"/>
<path d="M133.777 107.482C132.98 105.52 130.827 104.342 128.712 104.235C126.597 104.128 124.531 104.929 122.698 105.988C114.933 110.476 110.942 121.317 103.27 125.961C101.383 127.103 98.927 126.057 97.322 127.57C95.717 129.083 94.676 131.5 95.564 133.519C94.533 132.105 93.489 130.665 92.902 129.017C92.316 127.368 92.242 125.451 93.117 123.935C93.781 122.785 94.953 121.907 95.275 120.618C95.558 119.485 95.111 118.299 95.16 117.132C95.21 115.943 95.769 114.841 96.354 113.806C99.359 108.491 103.494 103.683 108.817 100.694C112.295 98.741 116.273 97.599 120.26 97.735C124.247 97.871 128.229 99.336 131.147 102.056C132.863 103.656 134.667 105.311 133.777 107.482Z" fill="#263238"/>
<path d="M97.509 129.186C97.372 128.812 90.57 126.358 90.48 133.586C90.393 140.609 97.479 139.226 97.493 139.025C97.507 138.824 97.509 129.186 97.509 129.186Z" fill="#FFBE9D"/>
<path d="M95.351 136.344C95.32 136.322 95.228 136.429 95.02 136.521C94.818 136.611 94.47 136.672 94.105 136.531C93.366 136.252 92.752 135.068 92.73 133.802C92.718 133.163 92.858 132.555 93.089 132.054C93.308 131.542 93.644 131.186 94.018 131.123C94.391 131.04 94.653 131.267 94.737 131.465C94.829 131.662 94.783 131.802 94.821 131.815C94.841 131.833 94.973 131.698 94.919 131.408C94.891 131.268 94.811 131.102 94.647 130.965C94.48 130.826 94.233 130.754 93.972 130.78C93.43 130.812 92.938 131.306 92.684 131.857C92.4 132.41 92.228 133.093 92.242 133.811C92.274 135.227 92.986 136.558 93.998 136.86C94.491 136.994 94.904 136.848 95.119 136.685C95.337 136.514 95.376 136.357 95.351 136.344Z" fill="#EB996E"/>
<path d="M94.5531 137.586C93.8691 137.459 93.1281 137.935 92.9591 138.609C92.7901 139.284 93.2181 140.053 93.8811 140.264C94.5441 140.475 95.3391 140.095 95.5901 139.447C95.8421 138.799 95.5121 137.982 94.8811 137.69" fill="white"/>
<path d="M94.8811 137.69C94.8401 137.732 95.3391 137.933 95.5131 138.633C95.5951 138.967 95.5501 139.411 95.2391 139.735C94.9441 140.059 94.4111 140.261 93.9301 140.111C93.4511 139.956 93.1321 139.483 93.0791 139.048C93.0121 138.603 93.2331 138.215 93.4921 137.99C94.0391 137.519 94.5621 137.643 94.5531 137.586C94.5571 137.569 94.4451 137.514 94.2241 137.509C94.0061 137.504 93.6721 137.57 93.3481 137.816C93.0291 138.047 92.7201 138.521 92.7851 139.082C92.8361 139.622 93.2051 140.209 93.8321 140.418C94.4651 140.61 95.1041 140.344 95.4581 139.934C95.8361 139.513 95.8571 138.948 95.7311 138.575C95.6091 138.188 95.3741 137.94 95.1931 137.818C95.0111 137.693 94.8871 137.673 94.8811 137.69Z" fill="#263238"/>
<path d="M96.4811 127.564C96.3711 129.482 96.2821 131.507 97.1691 133.212C98.0551 134.916 100.29 136.076 101.958 135.123C103.319 134.346 103.725 132.603 103.956 131.053C104.622 126.58 104.927 122.058 105.632 117.591L96.4811 127.564Z" fill="#263238"/>
<path d="M119.476 142.046C118.799 142.932 118.588 144.154 118.927 145.216C119.267 146.278 120.148 147.151 121.213 147.48C121.638 147.611 122.107 147.658 122.523 147.501C123.258 147.223 123.623 146.418 123.915 145.689C124.157 145.083 124.4 144.477 124.642 143.871C124.723 143.667 124.805 143.434 124.71 143.236C124.608 143.023 124.35 142.945 124.12 142.89C122.617 142.528 121.115 142.166 119.612 141.804" fill="#EB996E"/>
<path d="M122.424 147.281C122.42 147.326 121.626 147.418 120.376 147.024C119.767 146.813 119.025 146.376 118.581 145.566C118.355 145.177 118.256 144.636 118.306 144.171C118.337 143.693 118.447 143.197 118.663 142.73C118.871 142.277 119.167 141.877 119.511 141.557L119.629 141.447L119.779 141.5C122.764 142.553 125.098 143.086 125.074 143.214C125.054 143.345 122.647 143.022 119.606 142.002L119.874 141.945C119.584 142.225 119.334 142.567 119.155 142.956C118.813 143.762 118.677 144.694 119.023 145.337C119.364 146.013 119.972 146.433 120.517 146.67C121.637 147.124 122.445 147.182 122.424 147.281Z" fill="#263238"/>
<path d="M98.2351 127.914C97.7451 128.123 97.3481 128.292 97.0341 128.426C96.7571 128.538 96.6091 128.592 96.6041 128.579C96.5981 128.567 96.7351 128.489 97.0011 128.353C97.3071 128.202 97.6941 128.01 98.1711 127.774C99.1861 127.272 100.668 126.569 102.438 125.593C104.201 124.614 106.268 123.357 108.265 121.595C109.259 120.719 110.173 119.662 111.007 118.477C111.848 117.297 112.636 116.007 113.538 114.74C115.344 112.199 117.458 110.094 119.505 108.352C120.537 107.487 121.555 106.712 122.567 106.061C123.578 105.408 124.6 104.929 125.559 104.575C127.485 103.863 129.178 103.756 130.311 103.834C130.881 103.871 131.319 103.948 131.61 104.015C131.902 104.084 132.053 104.127 132.05 104.14C132.042 104.181 131.429 104.023 130.304 103.987C129.185 103.957 127.532 104.105 125.656 104.836C124.722 105.2 123.728 105.683 122.745 106.335C121.76 106.986 120.756 107.765 119.741 108.628C117.726 110.369 115.64 112.463 113.86 114.968C112.968 116.221 112.178 117.509 111.322 118.701C110.474 119.898 109.53 120.978 108.506 121.867" fill="#455A64"/>
<path d="M93.7141 163.714L85.1651 171.53L80.0961 218.637L64.7261 292.391C69.6881 296.77 89.2821 306.305 108.864 305.31C133.32 304.067 137.321 292.391 137.321 292.391C142.307 294.331 146.904 296.428 146.904 296.428C146.904 296.428 137.231 213.161 136.395 200.349C135.525 187.019 126.14 171.277 126.14 171.277L125.797 166.195L124.39 170.243L119.576 166.462L96.7351 155.989L93.7141 163.714Z" fill="#0000FF"/>
<path d="M93.7141 163.714C93.7141 163.714 83.5211 167.418 76.0761 174.985C71.7071 179.426 52.4011 239.075 51.7321 243.772C50.6191 251.585 59.0911 266.169 72.6911 263.955C86.2911 261.741 123.295 250.866 123.295 250.866L113.59 217.817L83.5211 230.813L99.2051 194.085C99.2051 194.085 106.048 166.244 93.7141 163.714Z" fill="#0000FF"/>
<path d="M94.9201 204.118C94.9201 204.118 94.8681 204.279 94.7451 204.587C94.6131 204.91 94.4281 205.361 94.1871 205.95C93.6791 207.164 92.9411 208.93 91.9861 211.215C90.0401 215.817 87.2161 222.496 83.6721 230.878L83.4551 230.662C91.7821 227.045 101.989 222.612 113.501 217.613L113.732 217.513L113.803 217.755C116.759 227.79 120.046 238.947 123.536 250.796L123.608 251.039L123.365 251.11C113.918 253.866 103.827 256.712 93.3791 259.449C89.1241 260.564 84.9071 261.619 80.7291 262.577C78.6411 263.058 76.5601 263.508 74.4811 263.892L72.9241 264.175C72.4031 264.258 71.8671 264.281 71.3401 264.335C70.2851 264.495 69.2271 264.374 68.1761 264.32C66.1001 264.039 64.0421 263.494 62.2471 262.46C61.3001 262.035 60.5071 261.367 59.6511 260.812C58.8961 260.128 58.0661 259.528 57.4111 258.756C54.6171 255.843 52.6931 252.25 51.7991 248.5C51.3491 246.629 51.2661 244.656 51.6971 242.805C52.1511 240.992 52.6831 239.241 53.2011 237.51C54.2511 234.054 55.3161 230.715 56.3601 227.491C58.4501 221.044 60.4651 215.062 62.3411 209.613C66.0991 198.718 69.3111 189.959 71.7301 183.983C72.9381 180.995 73.9491 178.702 74.7191 177.188C75.0961 176.427 75.4351 175.872 75.6691 175.505C75.9311 175.155 76.0751 174.985 76.0751 174.985C76.0751 174.985 75.9591 175.178 75.7141 175.533C75.4961 175.907 75.1741 176.467 74.8131 177.234C74.0751 178.759 73.0961 181.061 71.9181 184.058C69.5601 190.052 66.4021 198.826 62.6901 209.732C60.8371 215.186 58.8431 221.173 56.7721 227.623C55.7381 230.848 54.6821 234.188 53.6411 237.641C53.1281 239.368 52.5981 241.124 52.1551 242.913C51.7481 244.676 51.8261 246.566 52.2681 248.393C53.1441 252.044 55.0381 255.572 57.7711 258.411C58.4111 259.166 59.2231 259.747 59.9581 260.415C60.7931 260.951 61.5641 261.604 62.4851 262.014C64.2291 263.018 66.2221 263.54 68.2331 263.812C69.2511 263.862 70.2751 263.982 71.3001 263.824C71.8131 263.77 72.3271 263.749 72.8421 263.668L74.3901 263.385C76.4571 263.002 78.5321 262.552 80.6161 262.071C84.7851 261.114 88.9981 260.059 93.2501 258.945C103.69 256.211 113.782 253.37 123.225 250.626L123.054 250.939C119.584 239.084 116.316 227.922 113.377 217.882L113.679 218.024C102.149 222.983 91.9271 227.38 83.5871 230.967L83.2061 231.131L83.3701 230.751C86.9731 222.395 89.8451 215.736 91.8231 211.148C92.8131 208.878 93.5781 207.124 94.1041 205.917C94.3631 205.336 94.5611 204.89 94.7031 204.571C94.8401 204.267 94.9201 204.118 94.9201 204.118Z" fill="#263238"/>
<path d="M83.5211 230.812C83.5451 230.898 82.7161 231.142 81.4551 231.691C80.2161 232.262 78.5141 233.184 77.1421 234.751C75.7501 236.3 75.0101 238.083 74.6021 239.388C74.1951 240.702 74.0491 241.554 73.9631 241.54C73.9071 241.534 73.9221 240.661 74.2471 239.288C74.5721 237.929 75.2881 236.035 76.7531 234.404C78.1991 232.755 80.0131 231.845 81.3151 231.35C82.6441 230.876 83.5091 230.76 83.5211 230.812Z" fill="#263238"/>
<path d="M131.53 210.174C131.494 210.176 131.418 209.612 131.311 208.591C131.205 207.57 131.043 206.094 130.801 204.275C130.339 200.635 129.518 195.632 128.436 190.136C127.353 184.639 126.266 179.682 125.512 176.086C125.158 174.355 124.865 172.919 124.641 171.822C124.447 170.813 124.357 170.251 124.392 170.243C124.427 170.235 124.585 170.782 124.839 171.778C125.105 172.865 125.452 174.289 125.872 176.005C126.719 179.581 127.863 184.529 128.948 190.036C130.033 195.541 130.798 200.57 131.168 204.232C131.363 206.061 131.47 207.547 131.514 208.575C131.558 209.603 131.566 210.172 131.53 210.174Z" fill="#263238"/>
<path d="M137.322 292.391C137.304 292.391 137.282 292.163 137.257 291.728C137.235 291.239 137.208 290.608 137.173 289.826C137.112 288.11 137.028 285.736 136.925 282.829C136.716 276.921 136.383 268.763 135.879 259.759C135.371 250.752 134.781 242.608 134.302 236.716C134.064 233.817 133.87 231.45 133.729 229.739C133.67 228.958 133.623 228.328 133.586 227.84C133.559 227.405 133.554 227.176 133.571 227.174C133.589 227.172 133.629 227.398 133.69 227.829C133.752 228.314 133.831 228.941 133.93 229.718C134.13 231.36 134.384 233.739 134.668 236.683C135.24 242.57 135.889 250.716 136.398 259.729C136.903 268.739 137.177 276.905 137.292 282.818C137.351 285.774 137.377 288.167 137.374 289.821C137.368 290.604 137.364 291.236 137.36 291.726C137.353 292.161 137.34 292.39 137.322 292.391Z" fill="#263238"/>
<path d="M146.905 296.428C146.899 296.443 146.67 296.369 146.234 296.213C145.761 296.035 145.126 295.798 144.324 295.497C142.667 294.839 140.23 293.943 137.246 292.539L137.472 292.461C136.626 294.324 135.264 296.262 133.368 297.978C131.473 299.691 129.077 301.188 126.315 302.277C124.937 302.825 123.453 303.249 121.926 303.56C121.164 303.731 120.391 303.905 119.61 304.081C118.824 304.233 118.022 304.35 117.215 304.488C113.987 305.05 110.573 305.308 107.068 305.409C100.834 305.507 94.899 304.808 89.636 303.622C84.366 302.442 79.774 300.774 76.062 299.089C74.19 298.275 72.575 297.379 71.146 296.617C69.74 295.814 68.564 295.061 67.593 294.465C66.692 293.827 65.977 293.321 65.451 292.948C65.231 292.786 65.051 292.653 64.902 292.543C64.78 292.45 64.72 292.398 64.726 292.391C64.731 292.384 64.802 292.421 64.933 292.5C65.09 292.598 65.279 292.717 65.511 292.862C66.049 293.214 66.78 293.691 67.702 294.294C68.686 294.862 69.873 295.587 71.286 296.362C72.722 297.096 74.34 297.965 76.212 298.753C79.923 300.386 84.498 302.007 89.74 303.153C94.975 304.306 100.869 304.985 107.059 304.888C110.539 304.787 113.928 304.536 117.135 303.987C117.937 303.852 118.734 303.738 119.515 303.59C120.291 303.418 121.059 303.249 121.816 303.082C123.342 302.777 124.786 302.371 126.145 301.84C128.862 300.786 131.224 299.334 133.095 297.673C134.967 296.009 136.318 294.131 137.172 292.323L137.244 292.17L137.398 292.245C140.328 293.673 142.762 294.625 144.392 295.332C145.18 295.667 145.803 295.931 146.269 296.129C146.693 296.311 146.911 296.413 146.905 296.428Z" fill="#263238"/>
<path d="M113.955 271.591C113.977 271.619 113.663 271.895 113.075 272.369C112.492 272.85 111.606 273.494 110.478 274.238C108.226 275.731 104.917 277.529 101.019 278.913C97.1151 280.288 93.4121 280.968 90.7221 281.223C89.3771 281.353 88.2831 281.41 87.5281 281.402C86.7721 281.403 86.3551 281.386 86.3551 281.35C86.3521 281.259 88.0201 281.209 90.6801 280.858C93.3391 280.512 96.9861 279.782 100.847 278.423C104.702 277.054 107.998 275.329 110.283 273.928C112.571 272.527 113.9 271.518 113.955 271.591Z" fill="#263238"/>
<path d="M112.346 253.503C112.313 253.517 112.106 253.119 111.759 252.385C111.41 251.653 110.935 250.579 110.373 249.242C109.248 246.569 107.811 242.824 106.445 238.613C105.082 234.399 104.051 230.522 103.396 227.697C103.067 226.285 102.823 225.137 102.676 224.339C102.527 223.542 102.461 223.097 102.496 223.09C102.531 223.082 102.664 223.512 102.873 224.294C103.108 225.179 103.402 226.289 103.752 227.608C104.497 230.404 105.581 234.252 106.939 238.453C108.3 242.651 109.678 246.403 110.713 249.106C111.203 250.38 111.615 251.452 111.943 252.306C112.235 253.064 112.379 253.489 112.346 253.503Z" fill="#263238"/>
<path d="M123.432 172.21C123.407 172.234 122.962 171.825 122.171 171.056C121.329 170.22 120.205 169.105 118.832 167.743L119.138 167.64C118.782 170.629 118.323 174.484 117.808 178.811L117.762 179.199L117.426 178.996C115.955 178.106 114.4 177.165 112.799 176.197C107.352 172.892 102.436 169.874 98.8921 167.668C97.1791 166.589 95.7671 165.7 94.7081 165.033C94.2631 164.74 93.8921 164.497 93.5841 164.294C93.3301 164.12 93.2011 164.021 93.2111 164.006C93.2201 163.991 93.3671 164.059 93.6391 164.204C93.9611 164.384 94.3481 164.6 94.8131 164.86C95.8941 165.491 97.3351 166.333 99.0821 167.354C102.675 169.48 107.621 172.447 113.068 175.752C114.666 176.725 116.219 177.67 117.688 178.564L117.306 178.749C117.878 174.429 118.388 170.581 118.783 167.596L118.833 167.22L119.09 167.493C120.415 168.902 121.499 170.055 122.312 170.919C123.059 171.73 123.457 172.186 123.432 172.21Z" fill="#263238"/>
<path d="M96.8411 165.917C96.7071 165.864 97.2801 164.106 98.1211 161.992C98.9621 159.877 99.7521 158.206 99.8851 158.259C100.019 158.312 99.4461 160.069 98.6051 162.185C97.7651 164.299 96.9751 165.971 96.8411 165.917Z" fill="white"/>
<path d="M105.513 159.788C105.636 159.881 104.361 161.681 103.129 164.087C101.883 166.487 101.156 168.569 101.009 168.523C100.88 168.49 101.395 166.299 102.666 163.848C103.925 161.393 105.411 159.702 105.513 159.788Z" fill="white"/>
<path d="M110.766 162.738C110.898 162.794 110.113 164.948 109.012 167.547C107.911 170.148 106.911 172.21 106.778 172.154C106.646 172.098 107.431 169.945 108.532 167.344C109.634 164.744 110.634 162.681 110.766 162.738Z" fill="white"/>
<path d="M115.983 165.122C116.12 165.165 115.483 167.593 114.56 170.545C113.637 173.498 112.777 175.856 112.64 175.813C112.503 175.77 113.14 173.342 114.063 170.39C114.986 167.438 115.845 165.079 115.983 165.122Z" fill="white"/>
<path d="M54.442 253.503C54.434 253.506 54.397 253.428 54.333 253.271C54.269 253.114 54.173 252.881 54.077 252.564C53.876 251.936 53.628 250.981 53.537 249.722C53.448 248.465 53.548 246.909 53.93 245.161C54.322 243.412 54.93 241.486 55.54 239.332C58.046 230.74 61.823 218.954 66.696 206.191C69.128 199.806 71.583 193.78 73.949 188.349C76.326 182.926 78.976 178.217 81.896 174.783C84.783 171.322 87.787 169.149 89.99 167.958C92.199 166.75 93.566 166.428 93.566 166.428C93.569 166.436 93.491 166.476 93.337 166.544C93.154 166.621 92.927 166.717 92.648 166.835C92.051 167.108 91.163 167.5 90.089 168.134C87.935 169.37 85 171.562 82.179 175.018C79.326 178.446 76.733 183.129 74.388 188.542C72.052 193.968 69.611 199.999 67.183 206.376C62.315 219.124 58.487 230.878 55.893 239.436C55.261 241.578 54.626 243.509 54.214 245.223C53.81 246.943 53.683 248.469 53.74 249.709C53.882 252.201 54.521 253.486 54.442 253.503Z" fill="white"/>
<path d="M107.072 243.991C107.076 243.999 106.968 244.057 106.754 244.162C106.515 244.275 106.2 244.425 105.8 244.615C104.96 245.011 103.71 245.569 102.088 246.261C98.843 247.639 94.097 249.534 88.086 251.453C85.081 252.412 81.764 253.386 78.166 254.291C76.366 254.739 74.502 255.192 72.569 255.603C71.606 255.813 70.621 256.039 69.591 256.145C68.568 256.247 67.473 256.238 66.439 255.842C65.402 255.461 64.531 254.63 64.061 253.605C63.599 252.576 63.481 251.436 63.528 250.328C63.612 248.086 64.334 245.94 64.89 243.754C66.051 239.37 67.333 234.851 68.724 230.246C71.525 221.039 74.513 212.36 77.667 204.637C80.799 196.906 84.041 190.117 87.048 184.572C90.018 179.002 92.88 174.761 94.843 171.835C95.869 170.401 96.696 169.309 97.249 168.563C97.516 168.211 97.727 167.933 97.887 167.722C98.033 167.534 98.111 167.441 98.119 167.446C98.126 167.451 98.062 167.556 97.93 167.754C97.781 167.972 97.584 168.26 97.334 168.625C96.785 169.411 96.006 170.525 95.011 171.949C93.103 174.906 90.295 179.166 87.373 184.746C84.413 190.301 81.214 197.09 78.113 204.816C74.99 212.534 72.021 221.203 69.224 230.397C67.835 234.996 66.551 239.508 65.385 243.886C64.821 246.079 64.108 248.208 64.027 250.348C63.978 251.41 64.094 252.475 64.507 253.401C64.927 254.318 65.687 255.049 66.613 255.394C67.535 255.752 68.56 255.773 69.545 255.677C70.536 255.58 71.509 255.362 72.474 255.155C74.403 254.753 76.265 254.31 78.063 253.872C81.656 252.987 84.971 252.036 87.976 251.101C93.988 249.231 98.746 247.392 102.011 246.073C103.615 245.407 104.872 244.886 105.758 244.518C106.166 244.348 106.488 244.214 106.732 244.112C106.953 244.024 107.068 243.982 107.072 243.991Z" fill="white"/>
<path d="M77.0191 233.152C77.0011 233.148 77.0451 232.912 77.1451 232.468C77.2631 231.973 77.4161 231.33 77.6071 230.529C77.7991 229.684 78.0991 228.668 78.4391 227.486C78.7661 226.3 79.1841 224.964 79.6691 223.494C81.5591 217.597 84.6591 209.614 88.5411 201.005C92.4441 192.401 96.3521 184.79 99.3521 179.377C100.839 176.664 102.105 174.503 102.997 173.02C103.428 172.319 103.775 171.756 104.041 171.323C104.285 170.938 104.42 170.741 104.435 170.75C104.451 170.759 104.345 170.975 104.131 171.377C103.886 171.822 103.568 172.401 103.172 173.122C102.336 174.635 101.12 176.821 99.6761 179.553C96.7621 185.004 92.9121 192.629 89.0161 201.219C85.1401 209.814 81.9941 217.757 80.0191 223.61C79.5121 225.069 79.0711 226.395 78.7181 227.57C78.3521 228.741 78.0241 229.747 77.8031 230.582C77.5741 231.371 77.3891 232.006 77.2481 232.494C77.1141 232.93 77.0361 233.157 77.0191 233.152Z" fill="white"/>
<path d="M103.362 229.537C103.376 229.57 103.009 229.754 102.335 230.058C101.662 230.363 100.677 230.78 99.4511 231.274C97.0011 232.263 93.5781 233.539 89.7431 234.79C85.9061 236.039 82.3881 237.024 79.8261 237.669C78.5451 237.992 77.5041 238.236 76.7801 238.386C76.0561 238.538 75.6531 238.605 75.6441 238.57C75.6351 238.535 76.0231 238.401 76.7301 238.19C77.5451 237.952 78.5471 237.66 79.7301 237.314C82.2641 236.58 85.7561 235.541 89.5831 234.296C93.4081 233.049 96.8411 231.831 99.3211 230.931C100.48 230.513 101.462 230.159 102.261 229.871C102.957 229.624 103.348 229.504 103.362 229.537Z" fill="white"/>
<path d="M91.807 226.565C91.663 226.572 91.413 223.855 91.247 220.496C91.081 217.136 91.063 214.408 91.207 214.401C91.351 214.394 91.601 217.111 91.767 220.47C91.933 223.829 91.951 226.558 91.807 226.565Z" fill="white"/>
<path d="M100.163 223.15C100.019 223.158 99.542 216.337 99.097 207.918C98.652 199.496 98.407 192.664 98.551 192.657C98.695 192.649 99.172 199.469 99.617 207.891C100.062 216.309 100.306 223.142 100.163 223.15Z" fill="white"/>
<path d="M109.753 215.702C109.717 215.705 109.632 215.099 109.508 214.001C109.385 212.903 109.23 211.311 109.066 209.342C108.732 205.405 108.366 199.959 108.006 193.944C107.654 187.969 107.335 182.564 107.098 178.539C106.985 176.634 106.892 175.06 106.822 173.871C106.76 172.768 106.743 172.157 106.779 172.154C106.815 172.151 106.9 172.756 107.024 173.855C107.147 174.953 107.302 176.545 107.465 178.514C107.799 182.451 108.166 187.897 108.525 193.915C108.877 199.888 109.195 205.293 109.432 209.318C109.545 211.223 109.638 212.797 109.708 213.987C109.772 215.087 109.789 215.699 109.753 215.702Z" fill="white"/>
<path d="M127.59 292.391C127.581 292.391 127.569 292.292 127.555 292.097C127.542 291.874 127.526 291.589 127.506 291.234C127.473 290.438 127.427 289.327 127.368 287.915C127.25 284.995 127.082 280.836 126.876 275.711C126.437 265.408 125.703 251.18 124.565 235.488C123.429 219.79 122.063 205.608 120.918 195.36C120.347 190.236 119.859 186.092 119.497 183.231C119.329 181.828 119.197 180.724 119.102 179.934C119.065 179.58 119.036 179.297 119.012 179.075C118.995 178.881 118.99 178.781 118.999 178.78C119.008 178.779 119.03 178.876 119.065 179.068C119.101 179.289 119.148 179.57 119.206 179.92C119.324 180.708 119.489 181.807 119.698 183.205C120.122 186.058 120.666 190.197 121.284 195.318C122.524 205.56 123.948 219.746 125.085 235.451C126.224 251.15 126.9 265.388 127.245 275.698C127.427 280.853 127.523 285.026 127.572 287.91C127.589 289.323 127.603 290.435 127.612 291.232C127.611 291.588 127.61 291.872 127.609 292.096C127.606 292.29 127.599 292.39 127.59 292.391Z" fill="white"/>
<path d="M110.108 273.716C109.964 273.714 109.917 269.461 110.001 264.218C110.086 258.973 110.271 254.725 110.415 254.728C110.559 254.73 110.606 258.982 110.521 264.227C110.437 269.47 110.251 273.719 110.108 273.716Z" fill="white"/>
<path d="M106.207 296.77C106.133 296.761 106.216 295.625 106.361 293.794C106.506 291.963 106.7 289.434 106.854 286.637C107.006 283.839 107.09 281.304 107.146 279.468C107.203 277.632 107.244 276.494 107.319 276.493C107.388 276.492 107.477 277.628 107.515 279.47C107.553 281.311 107.528 283.858 107.374 286.665C107.219 289.472 106.966 292.005 106.727 293.831C106.489 295.658 106.276 296.778 106.207 296.77Z" fill="white"/>
<path d="M91.4901 280.124C91.4181 280.119 91.4551 278.98 91.5731 277.141C91.6911 275.302 91.8891 272.763 92.1401 269.962C92.3911 267.16 92.6481 264.626 92.8591 262.796C93.0701 260.965 93.2371 259.838 93.3081 259.846C93.3801 259.854 93.3421 260.996 93.2251 262.835C93.1071 264.674 92.9091 267.21 92.6581 270.009C92.4071 272.807 92.1511 275.337 91.9401 277.168C91.7291 278.998 91.5621 280.128 91.4901 280.124Z" fill="white"/>
<path d="M87.006 294.634C86.863 294.622 86.978 291.888 87.264 288.53C87.55 285.17 87.898 282.457 88.041 282.47C88.184 282.482 88.069 285.215 87.783 288.575C87.497 291.932 87.149 294.646 87.006 294.634Z" fill="white"/>
<path d="M74.377 288.42C74.341 288.416 74.346 288.062 74.386 287.426C74.425 286.789 74.502 285.87 74.612 284.736C74.832 282.467 75.195 279.339 75.677 275.896C76.16 272.451 76.671 269.344 77.082 267.102C77.287 265.981 77.466 265.076 77.603 264.453C77.74 263.83 77.832 263.489 77.868 263.495C77.903 263.501 77.879 263.854 77.803 264.487C77.703 265.235 77.584 266.125 77.445 267.161C77.105 269.551 76.672 272.598 76.192 275.969C75.727 279.34 75.307 282.389 74.977 284.78C74.826 285.814 74.696 286.702 74.586 287.449C74.486 288.077 74.413 288.424 74.377 288.42Z" fill="white"/>
<path d="M142.718 286.745C142.709 286.746 142.692 286.657 142.666 286.483C142.639 286.279 142.606 286.025 142.565 285.71C142.483 284.989 142.37 283.994 142.227 282.732C141.947 280.102 141.549 276.369 141.06 271.773C140.055 262.486 138.673 249.723 137.147 235.626C135.523 221.534 134.053 208.781 132.984 199.501C132.447 194.91 132.011 191.181 131.703 188.555C131.564 187.293 131.455 186.297 131.375 185.576C131.346 185.26 131.322 185.005 131.303 184.8C131.29 184.625 131.287 184.534 131.296 184.533C131.305 184.532 131.325 184.62 131.356 184.793C131.389 184.996 131.429 185.249 131.479 185.563C131.582 186.281 131.724 187.273 131.904 188.529C132.251 191.151 132.743 194.873 133.349 199.455C134.533 208.686 136.086 221.451 137.664 235.568C139.24 249.68 140.543 262.471 141.426 271.736C141.846 276.339 142.188 280.078 142.429 282.712C142.531 283.978 142.611 284.976 142.67 285.699C142.69 286.016 142.706 286.272 142.719 286.477C142.727 286.654 142.727 286.744 142.718 286.745Z" fill="white"/>
<g opacity="0.3">
<path d="M126.215 249.117C125.112 243.225 123.623 236.717 118.679 233.329C119.79 237.991 120.902 242.653 122.013 247.316C122.264 248.371 122.508 249.519 122.057 250.505C121.476 251.775 119.982 252.299 118.64 252.689C103.226 257.16 86.423 261.473 70.604 264.181C79.632 268.561 90.591 266.988 100.261 264.304C107.508 262.292 114.683 260.019 121.767 257.491C123.269 256.955 124.865 256.334 125.768 255.018C126.915 253.346 126.589 251.11 126.215 249.117Z" fill="black"/>
</g>
<g opacity="0.3">
<path d="M95.399 204.471C90.709 212.715 86.655 221.321 83.285 230.187L84.041 230.206C89.094 229.048 93.013 224.722 94.743 219.836C96.474 214.949 96.29 209.578 95.399 204.471Z" fill="black"/>
</g>
<path d="M146.242 289.047C146.197 289.127 145.475 288.035 143.429 287.409C142.422 287.107 141.109 286.958 139.625 287.172C138.141 287.383 136.518 287.989 134.829 288.854C131.507 290.684 127.453 292.899 122.624 294.471C117.809 296.069 112.265 297.111 106.406 297.252C100.547 297.393 94.9571 296.681 90.0481 295.397C85.1301 294.118 80.9121 292.302 77.5061 290.549C74.1401 288.708 71.5821 286.939 69.9051 285.609C69.1101 284.949 68.4781 284.424 68.0081 284.034C67.5791 283.67 67.3591 283.472 67.3711 283.459C67.3831 283.445 67.6251 283.616 68.0761 283.954C68.5591 284.324 69.2091 284.821 70.0281 285.448C71.7351 286.723 74.3121 288.436 77.6771 290.223C81.0831 291.922 85.2821 293.689 90.1671 294.932C95.0431 296.181 100.586 296.871 106.394 296.732C112.201 296.593 117.697 295.574 122.477 294.015C127.282 292.476 131.28 290.336 134.665 288.525C136.385 287.672 138.052 287.074 139.587 286.884C141.118 286.691 142.464 286.875 143.49 287.216C144.526 287.546 145.228 288.047 145.654 288.416C146.084 288.788 146.242 289.047 146.242 289.047Z" fill="#263238"/>
<g opacity="0.3">
<path d="M119.025 167.783L117.557 178.78L93.5701 164.101C100.443 173.01 109.406 180.296 119.531 185.204C120.002 181.026 120.473 176.847 120.943 172.669C122.211 173.79 123.479 174.911 124.746 176.032C123.491 172.942 121.654 169.835 119.025 167.783Z" fill="black"/>
</g>
<path d="M147.801 202.382C144.924 204.349 142.047 206.316 139.171 208.283L139.136 215.398C141.458 213.849 142.775 212.009 145.098 210.46C145.933 209.903 146.737 208.202 147.326 207.389C148.59 205.643 148.216 204.035 147.801 202.382Z" fill="#FFBE9D"/>
<path d="M153.968 228.172C150.271 228.111 146.569 226.559 144.134 223.777C141.699 220.995 140.653 216.982 141.677 213.43C142.701 209.878 145.87 206.971 149.537 206.505L150.691 210.198C150.691 210.198 144.977 213.04 146.085 217.962C147.194 222.884 154.289 223.489 154.289 223.489L153.968 228.172Z" fill="#0000FF"/>
<path d="M149.394 205.359L152.055 231.719H173.998L176.978 205.378L149.394 205.359Z" fill="#0000FF"/>
<path d="M148.808 219.347C147.518 219.235 146.209 219.01 146.134 218.562C145.984 217.664 145.984 217.664 145.984 217.664C145.984 217.664 150.622 217.066 150.921 216.018C151.043 215.591 150.945 214.772 150.786 213.951C150.405 211.983 148.462 210.645 146.516 211.125C146.497 211.13 146.478 211.135 146.459 211.14C145.214 211.465 143.441 211.679 143.441 211.679L139.701 210.632L139.252 208.238L129.528 214.671L115.825 224.032L119.415 235.882L126.834 231.726C126.834 231.726 142.992 232.624 144.039 232.025C145.086 231.427 145.685 228.734 145.685 228.734C145.685 228.734 150.622 226.49 150.024 224.695C150.024 224.695 150.475 224.197 150.923 223.465C151.978 221.742 150.822 219.522 148.808 219.347Z" fill="#FFBE9D"/>
<path d="M167.754 219.582C167.682 219.58 167.65 218.615 167.673 217.06C167.691 215.505 167.78 213.36 167.796 210.997C167.791 209.816 167.829 208.682 167.643 207.713C167.467 206.74 167.026 205.942 166.418 205.529C165.827 205.09 165.202 204.995 164.798 205.036C164.387 205.082 164.176 205.214 164.153 205.173C164.137 205.155 164.314 204.955 164.763 204.836C165.204 204.724 165.928 204.769 166.625 205.225C167.35 205.652 167.904 206.576 168.112 207.616C168.339 208.668 168.31 209.813 168.316 210.999C168.299 213.38 168.153 215.525 168.04 217.075C167.924 218.627 167.826 219.585 167.754 219.582Z" fill="#263238"/>
<path d="M170.633 218.702L165.568 218.669L164.153 221.52V227.63H171.471L171.73 221.52L170.633 218.702Z" fill="#E0E0E0"/>
<path d="M160.702 173.921C160.708 173.908 160.817 173.935 161.005 174.038C161.193 174.138 161.451 174.336 161.698 174.664C162.189 175.307 162.576 176.562 162.179 177.99C161.847 179.422 160.801 180.834 160.275 182.562C160.021 183.422 159.938 184.391 160.328 185.265C160.697 186.151 161.419 186.914 162.103 187.759C162.789 188.587 163.422 189.604 163.43 190.728C163.439 191.835 162.975 192.805 162.462 193.603C161.381 195.189 160.116 196.315 159.573 197.592C159.002 198.836 159.184 200.043 159.537 200.7C159.897 201.38 160.336 201.569 160.299 201.614C160.292 201.627 160.186 201.591 160.004 201.479C159.825 201.364 159.58 201.15 159.361 200.801C158.923 200.119 158.66 198.823 159.235 197.446C159.775 196.065 161.065 194.859 162.057 193.346C162.535 192.582 162.936 191.686 162.919 190.739C162.906 189.789 162.37 188.902 161.696 188.087C161.034 187.263 160.272 186.47 159.855 185.461C159.413 184.448 159.529 183.333 159.814 182.426C160.415 180.581 161.474 179.233 161.823 177.893C162.236 176.576 161.935 175.413 161.53 174.779C161.114 174.131 160.669 173.969 160.702 173.921Z" fill="#263238"/>
<path d="M167.25 173.921C167.256 173.908 167.365 173.935 167.553 174.038C167.741 174.138 167.999 174.336 168.246 174.664C168.737 175.307 169.123 176.562 168.727 177.99C168.395 179.422 167.349 180.834 166.823 182.562C166.569 183.422 166.486 184.391 166.876 185.265C167.245 186.151 167.967 186.914 168.651 187.759C169.337 188.587 169.97 189.604 169.978 190.728C169.987 191.835 169.523 192.805 169.01 193.603C167.929 195.189 166.664 196.315 166.121 197.592C165.55 198.836 165.732 200.043 166.085 200.7C166.445 201.38 166.884 201.569 166.847 201.614C166.84 201.627 166.734 201.591 166.552 201.479C166.373 201.364 166.128 201.15 165.909 200.801C165.471 200.119 165.208 198.823 165.783 197.446C166.323 196.065 167.613 194.859 168.605 193.346C169.083 192.582 169.484 191.686 169.467 190.739C169.454 189.789 168.918 188.902 168.244 188.087C167.582 187.263 166.82 186.47 166.403 185.461C165.961 184.448 166.077 183.333 166.362 182.426C166.963 180.581 168.022 179.233 168.371 177.893C168.784 176.576 168.483 175.413 168.078 174.779C167.662 174.131 167.217 173.969 167.25 173.921Z" fill="#263238"/>
<path d="M167.171 225.419C167.171 225.335 167.892 225.625 168.717 225.029C169.105 224.744 169.432 224.217 169.517 223.572C169.612 222.931 169.444 222.196 169.082 221.512C169.027 221.415 168.973 221.319 168.923 221.228L169.274 221.319C168.598 221.7 167.981 222.065 167.528 222.505C167.071 222.939 166.787 223.44 166.688 223.89C166.491 224.826 166.941 225.357 166.869 225.39C166.847 225.41 166.705 225.32 166.554 225.062C166.406 224.808 166.267 224.373 166.335 223.83C166.401 223.287 166.702 222.681 167.194 222.174C167.683 221.658 168.342 221.253 169.016 220.869L169.243 220.739L169.368 220.959C169.424 221.058 169.484 221.164 169.544 221.271C169.944 222.025 170.134 222.884 169.991 223.647C169.863 224.406 169.429 225.027 168.924 225.333C168.422 225.644 167.925 225.672 167.616 225.617C167.3 225.564 167.158 225.446 167.171 225.419Z" fill="#263238"/>
<path d="M168.837 222.965C168.939 223.076 168.287 223.81 167.666 224.825C167.035 225.835 166.669 226.746 166.525 226.704C166.391 226.674 166.549 225.634 167.223 224.551C167.89 223.465 168.749 222.859 168.837 222.965Z" fill="#263238"/>
<path d="M136.288 198.069C136.177 198.065 136.476 196.17 135.948 193.185C135.478 190.188 133.942 186.266 131.966 182.069C130.016 177.849 128.275 174.016 127.039 171.231C126.463 169.907 125.981 168.798 125.6 167.922C125.271 167.136 125.104 166.694 125.137 166.679C125.17 166.664 125.398 167.077 125.784 167.837C126.205 168.695 126.737 169.781 127.373 171.077C128.694 173.823 130.488 177.63 132.438 181.852C134.418 186.054 135.927 190.063 136.311 193.127C136.527 194.648 136.543 195.898 136.476 196.753C136.411 197.607 136.316 198.073 136.288 198.069Z" fill="#263238"/>
<path d="M441.739 432.159C441.739 432.159 442.25 435.352 443.399 437.267C444.548 439.183 444.804 443.141 444.676 445.695C444.548 448.249 444.421 455.273 445.442 457.316C446.464 459.359 449.568 463.318 450.422 466.383C451.276 469.448 451.571 473.662 450.422 476.344C449.273 479.026 448.24 482.985 446.458 483.623C444.676 484.261 439.185 483.623 439.185 483.623C439.185 483.623 439.185 481.707 439.951 481.069C440.717 480.431 443.399 479.154 443.654 477.11C443.909 475.067 444.293 471.619 444.293 471.619C444.293 471.619 437.78 468.937 434.46 465.745C431.14 462.552 426.926 458.033 426.926 458.033C426.926 458.033 425.521 463.191 424.244 465.617C422.967 468.043 423.861 470.086 424.244 470.98C424.627 471.874 419.774 477.197 414.411 481.196C409.048 485.195 404.578 482.729 404.578 482.729C404.578 482.729 403.812 479.409 405.217 478.77C406.622 478.131 409.431 478.387 409.431 478.387C409.431 478.387 416.072 473.534 415.305 469.959C414.539 466.383 412.24 462.297 411.985 459.615C411.73 456.933 411.602 455.656 411.602 455.656C411.602 455.656 404.006 456.678 399.184 456.422C394.362 456.167 391.425 455.145 391.425 455.145C391.425 455.145 389.254 468.426 390.659 470.341C392.064 472.257 396.533 475.832 396.916 478.259C397.299 480.685 396.661 484.19 393.851 483.906C391.042 483.622 391.169 481.962 391.297 479.664C391.297 479.664 387.338 475.705 386.444 474.173C385.55 472.641 380.697 459.232 380.697 459.232C380.697 459.232 373.163 473.79 372.907 476.344C372.652 478.898 370.608 480.686 370.098 480.813C369.587 480.941 368.438 485.196 366.65 485.196C364.862 485.196 360.52 484.389 360.52 484.389C360.52 484.389 360.648 481.579 362.563 480.686C364.478 479.792 367.16 479.409 367.16 475.706C367.16 472.003 369.331 457.445 369.203 456.934C369.075 456.423 365.117 449.144 364.478 446.59C363.839 444.036 362.435 438.162 362.435 438.162C362.435 438.162 359.881 430.117 357.838 428.074C355.795 426.031 352.858 426.031 350.687 425.775C348.516 425.519 348.41 424.626 347.75 423.221C347.09 421.816 345.601 418.752 346.345 418.368C347.09 417.985 351.07 416.325 351.581 415.559C352.092 414.793 352.475 413.133 354.135 412.494C355.795 411.856 359.882 409.174 361.925 409.174C363.968 409.174 367.927 412.75 368.821 413.516C369.715 414.282 372.269 416.964 373.674 418.752C375.079 420.54 376.1 425.392 381.336 425.52C386.572 425.648 431.65 426.669 433.821 425.392C435.992 424.115 438.801 425.52 439.695 415.176C440.589 404.832 441.1 398.064 439.95 396.404C438.801 394.744 439.95 394.361 437.779 393.978C435.608 393.595 432.926 393.084 432.16 391.552C431.394 390.02 431.905 387.748 433.948 387.748C435.991 387.748 445.441 387.721 446.973 400.236C448.506 412.751 444.419 420.541 443.525 425.393C442.632 430.244 441.294 430.156 441.739 432.159Z" fill="#263238"/>
<path d="M407.897 454.887C407.908 454.786 409.083 455.068 410.906 454.601C411.816 454.387 412.868 454.001 414.053 453.581C415.237 453.172 416.579 452.711 418.08 452.63C419.582 452.557 420.997 452.939 422.15 453.495C423.31 454.051 424.238 454.749 424.947 455.395C425.658 456.043 426.168 456.629 426.491 457.055C426.815 457.481 426.966 457.736 426.94 457.756C426.868 457.816 426.152 456.872 424.707 455.674C423.985 455.079 423.065 454.437 421.948 453.93C420.836 453.423 419.506 453.082 418.105 453.15C416.702 453.224 415.394 453.651 414.207 454.035C413.02 454.428 411.933 454.787 410.983 454.961C410.036 455.14 409.243 455.161 408.708 455.085C408.174 455.015 407.891 454.915 407.897 454.887Z" fill="#455A64"/>
<path d="M367.409 414.827C366.776 411.493 365.672 408.248 364.14 405.22C363.964 404.873 363.727 404.487 363.341 404.435C362.763 404.357 362.416 405.05 362.275 405.616C361.904 407.105 361.672 408.629 361.583 410.161" fill="#263238"/>
<path d="M359.309 410.264C358.961 408.931 358.246 407.695 357.263 406.73C356.994 406.466 356.616 406.204 356.269 406.351C355.936 406.491 355.848 406.915 355.814 407.275C355.658 408.939 355.685 410.619 355.894 412.277" fill="#263238"/>
<path d="M346.99 421.249C347.588 420.908 348.34 420.307 348.491 419.635C348.642 418.963 348.522 418.089 348.126 417.524C348.126 417.524 346.34 418.06 346.205 418.577C346.035 419.232 346.99 421.249 346.99 421.249Z" fill="#455A64"/>
<path d="M362.266 409.817C362.195 409.806 362.241 409.215 362.374 408.266C362.46 407.715 362.547 407.163 362.634 406.601C362.662 406.453 362.67 406.282 362.776 406.071C362.828 405.975 362.909 405.846 363.087 405.779C363.257 405.712 363.469 405.776 363.578 405.885C363.789 406.101 363.809 406.292 363.879 406.45C363.938 406.621 363.997 406.793 364.057 406.967C364.517 408.374 364.712 409.709 364.76 410.672C364.796 411.15 364.76 411.58 364.628 411.844C364.497 412.112 364.336 412.185 364.319 412.162C364.289 412.133 364.385 412.017 364.437 411.777C364.492 411.536 364.475 411.177 364.394 410.709C364.253 409.775 364.008 408.493 363.562 407.128C363.505 406.958 363.448 406.791 363.392 406.625C363.334 406.457 363.275 406.289 363.233 406.26C363.291 406.12 363.16 406.369 363.102 406.705C362.978 407.255 362.857 407.795 362.735 408.334C362.511 409.259 362.337 409.828 362.266 409.817Z" fill="#455A64"/>
<path d="M353.753 412.611C353.691 412.481 354.966 411.738 356.601 410.952C358.237 410.165 359.613 409.632 359.675 409.762C359.737 409.891 358.462 410.634 356.827 411.421C355.192 412.208 353.815 412.741 353.753 412.611Z" fill="#455A64"/>
<path d="M368.747 445.893C368.851 445.868 368.956 447.064 369.906 448.664C370.827 450.258 372.637 452.177 374.908 453.835C376.073 454.598 377.377 455.134 378.373 455.953C379.39 456.743 380.067 457.71 380.513 458.553C380.941 459.41 381.204 460.135 381.344 460.647C381.483 461.159 381.543 461.445 381.508 461.455C381.413 461.489 381.098 460.35 380.192 458.733C379.72 457.94 379.051 457.055 378.079 456.332C377.129 455.579 375.859 455.075 374.62 454.269C372.258 452.546 370.471 450.558 369.584 448.844C369.133 447.997 368.911 447.243 368.815 446.719C368.714 446.193 368.719 445.896 368.747 445.893Z" fill="#455A64"/>
<path d="M366.551 443.274C366.707 443.276 366.724 444.772 367.314 446.477C367.884 448.19 368.78 449.387 368.658 449.483C368.568 449.58 367.43 448.465 366.821 446.644C366.196 444.829 366.42 443.252 366.551 443.274Z" fill="#455A64"/>
<path d="M357.948 415.714C357.948 416.204 357.551 416.601 357.061 416.601C356.571 416.601 356.174 416.204 356.174 415.714C356.174 415.224 356.571 414.827 357.061 414.827C357.551 414.827 357.948 415.224 357.948 415.714Z" fill="#455A64"/>
<path d="M359.097 415.946C358.986 416.071 358.227 415.22 356.993 415.267C356.449 415.271 356.031 415.683 355.735 415.968C355.441 416.264 355.253 416.463 355.188 416.422C355.132 416.386 355.207 416.118 355.448 415.737C355.569 415.547 355.739 415.33 355.984 415.127C356.223 414.925 356.587 414.75 356.976 414.747C357.696 414.739 358.343 415.015 358.678 415.336C359.023 415.645 359.145 415.901 359.097 415.946Z" fill="#455A64"/>
</svg>
