<svg viewBox="0 0 224 236" fill="none" xmlns="http://www.w3.org/2000/svg">
<path opacity="0.0381" d="M32.5457 168.013C27.9104 165.161 27.9009 160.521 32.5243 157.648L74.6821 131.739C79.3055 128.867 86.8109 128.849 91.4458 131.701L191.586 193.299C196.222 196.15 196.23 200.789 191.607 203.662L149.42 229.574C144.797 232.446 137.291 232.463 132.656 229.611L32.5457 168.013Z" fill="#F7F7F7"/>
<path opacity="0.0762" d="M33.1539 167.843C28.6326 165.06 28.6232 160.533 33.1335 157.731L74.9767 132.017C79.4871 129.214 86.8094 129.197 91.3317 131.979L191.111 193.356C195.633 196.137 195.642 200.663 191.13 203.464L149.228 229.184C144.716 231.985 137.394 232 132.872 229.217L33.1539 167.843Z" fill="#F0F0F0"/>
<path opacity="0.1143" d="M33.7622 167.672C29.3534 164.959 29.3444 160.544 33.7423 157.811L75.2699 132.294C79.6672 129.561 86.8069 129.545 91.2162 132.257L190.634 193.411C195.043 196.123 195.051 200.534 190.651 203.264L149.035 228.793C144.635 231.522 137.495 231.535 133.087 228.823L33.7622 167.672Z" fill="#E8E8E8"/>
<path opacity="0.1524" d="M34.3701 167.501C30.0748 164.857 30.0663 160.556 34.3512 157.893L75.5637 132.571C79.8486 129.909 86.805 129.893 91.1008 132.536L190.158 193.468C194.453 196.11 194.461 200.407 190.174 203.066L148.842 228.403C144.555 231.061 137.597 231.074 133.302 228.429L34.3701 167.501Z" fill="#E0E0E0"/>
<path opacity="0.1905" d="M34.9782 167.33C30.7959 164.755 30.7884 160.567 34.9603 157.974L75.8582 132.848C80.0301 130.256 86.8039 130.239 90.9867 132.813L189.682 193.523C193.865 196.096 193.871 200.279 189.696 202.866L148.649 228.01C144.474 230.598 137.7 230.608 133.517 228.033L34.9782 167.33Z" fill="#D8D8D8"/>
<path opacity="0.2286" d="M35.5861 167.159C31.5173 164.653 31.5103 160.577 35.5692 158.055L76.1521 133.125C80.2114 130.603 86.8015 130.587 90.8708 133.091L189.205 193.579C193.275 196.082 193.281 200.151 189.218 202.668L148.456 227.62C144.393 230.137 137.801 230.145 133.732 227.639L35.5861 167.159Z" fill="#D1D1D1"/>
<path opacity="0.2667" d="M36.1944 166.989C32.2391 164.552 32.2316 160.589 36.1785 158.137L76.4463 133.402C80.3931 130.95 86.8 130.935 90.7569 133.369L188.729 193.634C192.686 196.069 192.691 200.024 188.74 202.469L148.264 227.229C144.313 229.675 137.904 229.682 133.949 227.245L36.1944 166.989Z" fill="#C9C9C9"/>
<path opacity="0.3048" d="M36.8026 166.818C32.9602 164.45 32.9533 160.6 36.7871 158.218L76.7398 133.679C80.5737 131.297 86.7974 131.282 90.6412 133.647L188.252 193.69C192.097 196.054 192.101 199.895 188.262 202.27L148.071 226.838C144.232 229.212 138.006 229.218 134.163 226.85L36.8026 166.818Z" fill="#C1C1C1"/>
<path opacity="0.3429" d="M37.4109 166.647C33.6816 164.348 33.6756 160.611 37.3965 158.299L77.034 133.956C80.7549 131.644 86.796 131.63 90.5263 133.925L187.777 193.746C191.508 196.041 191.511 199.767 187.785 202.071L147.878 226.447C144.152 228.751 138.108 228.754 134.379 226.456L37.4109 166.647Z" fill="#BABABA"/>
<path opacity="0.381" d="M38.0188 166.476C34.4029 164.246 34.397 160.622 38.0054 158.38L77.3278 134.233C80.9362 131.991 86.7941 131.978 90.4119 134.203L187.3 193.802C190.918 196.027 190.921 199.64 187.307 201.872L147.685 226.056C144.071 228.288 138.21 228.291 134.594 226.062L38.0188 166.476Z" fill="#B2B2B2"/>
<path opacity="0.419" d="M38.6269 166.304C35.1245 164.145 35.1186 160.634 38.6145 158.461L77.6218 134.51C81.1177 132.338 86.7924 132.325 90.2967 134.481L186.824 193.857C190.329 196.013 190.331 199.512 186.829 201.672L147.492 225.665C143.991 227.825 138.312 227.826 134.81 225.667L38.6269 166.304Z" fill="#AAAAAA"/>
<path opacity="0.4571" d="M39.2348 166.134C35.8454 164.044 35.8404 160.645 39.2233 158.543L77.9156 134.787C81.2985 132.685 86.79 132.672 90.1818 134.758L186.348 193.913C189.739 196 189.741 199.384 186.352 201.474L147.3 225.275C143.909 227.364 138.414 227.363 135.025 225.273L39.2348 166.134Z" fill="#A2A2A2"/>
<path opacity="0.4952" d="M39.8431 165.963C36.5673 163.941 36.5623 160.656 39.8327 158.624L78.2104 135.065C81.4803 133.033 86.7891 133.021 90.0674 135.037L185.873 193.969C189.151 195.986 189.152 199.257 185.874 201.275L147.107 224.884C143.829 226.903 138.517 226.901 135.241 224.879L39.8431 165.963Z" fill="#9B9B9B"/>
<path opacity="0.5333" d="M40.4515 165.792C37.2886 163.84 37.2841 160.667 40.4415 158.705L78.5036 135.341C81.661 133.38 86.7867 133.367 89.952 135.315L185.396 194.024C188.561 195.971 188.561 199.129 185.396 201.076L146.914 224.492C143.748 226.44 138.619 226.436 135.456 224.483L40.4515 165.792Z" fill="#939393"/>
<path opacity="0.5714" d="M41.0592 165.622C38.0098 163.738 38.0053 160.679 41.0497 158.787L78.7972 135.619C81.8416 133.727 86.7841 133.715 89.8369 135.593L184.919 194.08C187.972 195.958 187.972 199.001 184.918 200.877L146.721 224.102C143.668 225.978 138.721 225.973 135.671 224.09L41.0592 165.622Z" fill="#8B8B8B"/>
<path opacity="0.6095" d="M41.6674 165.451C38.7315 163.636 38.7275 160.69 41.6589 158.868L79.0913 135.895C82.0232 134.074 86.7825 134.063 89.7218 135.871L184.443 194.136C187.382 195.944 187.381 198.873 184.439 200.679L146.528 223.712C143.587 225.516 138.822 225.51 135.886 223.696L41.6674 165.451Z" fill="#848484"/>
<path opacity="0.6476" d="M42.2757 165.279C39.4528 163.535 39.4493 160.701 42.2682 158.949L79.3855 136.173C82.2044 134.421 86.7805 134.411 89.6069 136.149L183.967 194.192C186.794 195.93 186.791 198.746 183.962 200.479L146.335 223.321C143.506 225.054 138.924 225.046 136.101 223.301L42.2757 165.279Z" fill="#7C7C7C"/>
<path opacity="0.6857" d="M42.8836 165.109C40.1742 163.434 40.1712 160.712 42.8771 159.031L79.6798 136.45C82.3857 134.768 86.7791 134.758 89.4925 136.427L183.491 194.248C186.204 195.916 186.202 198.617 183.484 200.28L146.143 222.93C143.426 224.593 139.027 224.582 136.317 222.907L42.8836 165.109Z" fill="#747474"/>
<path opacity="0.7238" d="M43.4919 164.938C40.8955 163.331 40.893 160.723 43.4864 159.112L79.9735 136.727C82.567 135.115 86.7772 135.106 89.3775 136.705L183.015 194.303C185.616 195.903 185.612 198.49 183.007 200.082L145.95 222.538C143.346 224.13 139.129 224.119 136.533 222.512L43.4919 164.938Z" fill="#6C6C6C"/>
<path opacity="0.7619" d="M44.1001 164.767C41.6172 163.23 41.6147 160.735 44.0951 159.193L80.2676 137.004C82.748 135.463 86.7756 135.453 89.2625 136.983L182.539 194.359C185.026 195.889 185.022 198.362 182.529 199.883L145.757 222.148C143.264 223.668 139.231 223.655 136.747 222.118L44.1001 164.767Z" fill="#656565"/>
<path opacity="0.8" d="M44.7079 164.596L136.963 221.724C139.333 223.192 143.184 223.207 145.564 221.758L182.051 199.684C184.432 198.235 184.437 195.876 182.063 194.416L89.1475 137.262C86.7731 135.802 82.9293 135.81 80.5614 137.282L44.704 159.275C42.3365 160.746 42.338 163.128 44.7079 164.596Z" fill="#5D5D5D"/>
<path d="M84.1697 12.6084L103.026 24.1325L101.923 27.8168L57.4276 48.376L42.3992 38.5611L84.1697 12.6084Z" fill="#8A8E96"/>
<path d="M100.262 23.4985V28.3108L97.0765 29.6408L94.0122 26.3835L100.262 23.4985Z" fill="#B3BAC2"/>
<path d="M90.5378 17.5439V25.334L87.2226 26.7957L81.9939 22.4229L90.5378 17.5439Z" fill="#B3BAC2"/>
<path d="M84.1697 13.6455V19.9535L80.4906 22.4226L75.0823 18.5601L84.1697 13.6455Z" fill="#B3BAC2"/>
<path d="M51.7151 32.231L63.1834 39.2062L63.0689 26.4517L51.7151 32.231Z" fill="#B3BAC2"/>
<path d="M74.1868 19.7178L64.3433 25.1741L74.1868 32.5525V19.7178Z" fill="#B3BAC2"/>
<path d="M57.4275 37.6299V47.7427L49.4915 42.3604L57.4275 37.6299Z" fill="#B3BAC2"/>
<path d="M51.0595 33.7314V40.7144L46.9672 42.3601L41.7993 39.1311L51.0595 33.7314Z" fill="#B3BAC2"/>
<path d="M159.842 181.573L183.942 196.327L176.004 201.156L142.497 194.659C144.435 192.617 157.904 183.614 159.842 181.573Z" fill="#A1A7AF"/>
<path d="M159.542 176.114L183.927 191.044L183.942 196.327L156.375 179.449L159.542 176.114Z" fill="#8A8E96"/>
<path d="M164.492 176.674L183.92 188.569L175.983 193.398L158.676 182.801C160.614 180.758 162.553 178.716 164.492 176.674Z" fill="#A1A7AF"/>
<path d="M166.644 168.631L183.896 179.194L183.92 188.569L161.024 174.551L166.644 168.631Z" fill="#8A8E96"/>
<path d="M141.935 182.402L173.96 202.399L152.881 215.168L134.003 203.609C136.335 201.151 139.603 184.859 141.935 182.402Z" fill="#A1A7AF"/>
<path d="M171.594 169.191L183.889 176.718L178.746 179.847L167.825 173.16C169.082 171.838 170.337 170.515 171.594 169.191Z" fill="#A1A7AF"/>
<path d="M169.199 165.938L183.884 174.93L183.889 176.719L168.127 167.069L169.199 165.938Z" fill="#8A8E96"/>
<path d="M185.952 172.307L84.2792 110.069L80.2427 109.494L181.892 171.73L185.952 172.307Z" fill="#D0D2D8"/>
<path d="M181.892 171.73L80.2427 109.494L75.0315 112.665L176.68 174.901L181.892 171.73Z" fill="#A8ACB5"/>
<path d="M132.501 205.19L150.832 216.413L143.332 220.976L127.006 210.978C128.838 209.049 130.67 207.119 132.501 205.19Z" fill="#A1A7AF"/>
<path d="M137.156 194.512L150.796 202.863L150.812 208.655L133.684 198.168L137.156 194.512Z" fill="#8A8E96"/>
<path d="M140.321 196.952L148.354 201.869C148.203 201.962 148.066 201.972 147.972 201.916C145.366 200.319 142.759 198.723 140.153 197.128C140.209 197.069 140.265 197.009 140.321 196.952Z" fill="#A8ACB5"/>
<path d="M157.183 178.599L173.923 188.85L173.96 202.399L143.708 183.509L157.183 178.599Z" fill="#8A8E96"/>
<path d="M145.49 185.685L162.231 195.936L162.268 209.485L132.016 190.595L145.49 185.685Z" fill="#8A8E96"/>
<path d="M132.201 199.731L150.818 211.13L150.833 216.412L129.035 203.066L132.201 199.731Z" fill="#8A8E96"/>
<path d="M137.151 200.29L150.811 208.655L143.311 213.216L131.656 206.08C133.488 204.152 135.319 202.221 137.151 200.29Z" fill="#A1A7AF"/>
<path d="M135.312 196.453L145.793 202.869C145.795 203.688 146.072 204.264 146.52 204.539C142.54 202.101 138.559 199.664 134.579 197.226L135.312 196.453Z" fill="#8A8E96"/>
<path d="M135.644 196.104L145.791 202.317L145.793 202.869L135.312 196.453L135.644 196.104Z" fill="#8A8E96"/>
<path d="M89.7686 132.153L176.196 184.989L148.354 201.869L62.0603 149.035L89.7686 132.153Z" fill="#A1A7AF"/>
<path d="M103.49 27.8168V123.855L105.015 122.923V23.8457L103.49 27.8168Z" fill="#C2C5CC"/>
<path d="M90.6409 26.3868L98.2843 30.9857V127.024L176.68 174.902L176.706 184.055C176.706 184.4 176.482 184.816 176.195 184.989L90.9699 132.807C90.9699 132.807 90.0481 132.603 89.7683 132.776V26.3837C90.0486 26.2127 90.3567 26.2127 90.6409 26.3868Z" fill="#8A8E96"/>
<path d="M92.6528 29.5362L92.7081 30.69L98.2842 33.5288V30.9847L94.2621 28.5649L92.6528 29.5362Z" fill="#4B4D51"/>
<path d="M176.68 174.902L174.893 173.807L175.267 180.589L176.694 179.744L176.68 174.902Z" fill="#4B4D51"/>
<path d="M98.2842 30.9851V127.023L103.49 123.855V27.8169L98.2842 30.9851Z" fill="#B3BAC2"/>
<path d="M89.7687 26.3833V132.775L62.0604 149.795L61.7751 43.2652L89.7687 26.3833Z" fill="#B3BAC2"/>
<path d="M61.5461 43.5903C61.6571 84.8798 61.7686 126.167 61.8797 167.456C61.8797 167.342 61.9553 167.223 62.1091 167.131L61.7756 43.2651C61.6238 43.3569 61.5461 43.476 61.5461 43.5903Z" fill="#B3BAC2"/>
<path d="M59.6726 45.1024L60.1265 45.3798L60.459 169.244L60.0071 168.968C59.3341 168.556 58.9981 168.016 58.9971 167.469L58.6646 43.6035C58.665 44.15 59.0006 44.6896 59.6726 45.1024Z" fill="#757A82"/>
<path d="M39.533 38.2974L57.7407 49.3925V151.58L141.255 202.613V224.698L39.533 162.46V38.2974Z" fill="#B4B8BF"/>
<path d="M53.4592 46.7837L54.1009 155.11L140.283 208.312L141.255 207.752V202.612L57.7406 151.58V49.3923L53.4592 46.7837Z" fill="#4B4D51"/>
<path d="M64.3432 147.562L147.833 198.597L141.255 202.612L57.7407 151.58L64.3432 147.562Z" fill="#9098A0"/>
<path d="M64.3432 45.377V147.563L57.7407 151.58V49.3926L64.3432 45.377Z" fill="#A0A7AF"/>
<path d="M71.7884 77.9514L71.6685 48.1903L66.7922 45.2046L66.9241 77.9514H71.7884Z" fill="#8A8E96"/>
<path d="M102.203 31.6416L97.998 33.195L93.629 30.2754L68.8208 45.8986L72.6402 48.3761L69.6909 50.9469L64.7261 48.3761L57.4276 51.7823L52.4708 48.793L48.8201 51.1142V54.8367L67.2085 66.2491L73.1933 65.7404L79.0083 62.138L72.7015 58.2514L90.1082 47.7425L97.3569 51.7818L114.546 40.1266L102.203 31.6416Z" fill="#B3BAC2"/>
<path d="M170.921 180.653L86.0966 128.476L83.6555 129.959L156.01 189.663L170.921 180.653Z" fill="#A1A7AF"/>
<path d="M177.419 170.407L92.5941 118.23L88.1245 120.95L172.949 173.127L177.419 170.407Z" fill="#A1A7AF"/>
<path d="M153.961 190.91L69.1363 138.73L66.9067 140.087L151.732 192.264L153.961 190.91Z" fill="#A1A7AF"/>
<path d="M177.386 158.241L92.5608 106.062L92.5941 118.231L177.419 170.408L177.386 158.241Z" fill="#8A8E96"/>
<path d="M170.887 167.865L170.919 179.944L170.921 180.652L86.0966 128.475L86.0946 127.767L86.0627 115.688L170.887 167.865Z" fill="#8A8E96"/>
<path d="M162.558 172.899L162.593 185.685L77.7677 133.508L77.7662 132.801L77.7339 120.722L162.558 172.899Z" fill="#8A8E96"/>
<path d="M176.788 156.854C142.904 136.108 125.848 125.423 91.9639 104.677C92.3312 104.902 92.5597 105.382 92.5607 106.063L177.386 158.241C177.384 157.559 177.156 157.079 176.788 156.854Z" fill="#8A8E96"/>
<path d="M149.679 190.046L64.8545 137.869L64.8699 143.81L149.695 195.987L149.679 190.046Z" fill="#8A8E96"/>
<path d="M153.926 178.122L69.1008 125.943L69.1362 138.73L153.96 190.909L153.926 178.122Z" fill="#8A8E96"/>
<path d="M138.232 207.08L53.4064 154.902L52.5005 155.455L137.325 207.631L138.232 207.08Z" fill="#A1A7AF"/>
<path d="M151.716 186.322L66.8913 134.146L60.7397 137.887L145.565 190.063L151.716 186.322Z" fill="#A1A7AF"/>
<path d="M145.565 190.063L60.7397 137.887L60.7557 143.828L145.581 196.006L145.565 190.063Z" fill="#8A8E96"/>
<path d="M138.221 202.968L53.397 150.79L53.4064 154.902L138.232 207.08L138.221 202.968Z" fill="#8A8E96"/>
<path d="M145.581 196.006L60.7556 143.828L55.4333 147.066L140.258 199.243L145.581 196.006Z" fill="#A1A7AF"/>
<path d="M50.2068 155.687C84.0905 176.434 101.147 187.12 135.03 207.865C135.618 208.225 136.43 208.176 137.324 207.631L52.5005 155.455C51.607 155.999 50.7942 156.048 50.2068 155.687Z" fill="#A1A7AF"/>
<path d="M138.173 185.22L53.3494 133.042L53.3972 150.79L138.221 202.968L138.173 185.22Z" fill="#8A8E96"/>
<path d="M140.985 183.509L56.1618 131.331L53.3494 133.042L138.173 185.22L140.985 183.509Z" fill="#A1A7AF"/>
<path d="M102.923 123.584L170.88 165.385L143.035 182.262L75.0823 140.462L102.923 123.584Z" fill="#2E3033"/>
<path d="M140.971 177.844L56.1462 125.667L56.1617 131.33L140.985 183.509L140.971 177.844Z" fill="#8A8E96"/>
<path d="M179.474 171.642L179.435 156.994C179.428 154.256 177.585 153.157 175.328 154.528L170.859 157.248L170.881 165.386L143.035 182.263L143.014 174.125L137.246 177.633C134.34 179.4 131.981 183.705 131.99 187.222L132.042 206.926C132.052 210.449 134.427 211.874 137.332 210.106L140.283 208.312L140.265 201.724L147.637 197.239L147.621 191.298L149.68 190.045L149.695 195.987L176.209 180.023L176.192 173.741L179.474 171.642ZM137.325 207.631C135.548 208.713 134.093 207.839 134.087 205.683L134.034 185.978C134.028 183.827 135.473 181.189 137.251 180.108L140.971 177.845L140.985 183.51L138.173 185.22L138.221 202.968L138.232 207.081L137.325 207.631ZM151.732 192.264L151.716 186.322L145.565 190.063L145.581 196.006L140.258 199.243L140.224 186.456L143.042 184.742L153.925 178.122L153.96 190.909L151.732 192.264ZM155.974 176.876L162.568 172.892L162.588 185.688L156.01 189.662L155.974 176.876ZM164.639 184.449L164.618 171.653L170.887 167.865L170.919 179.944L170.921 180.652L164.639 184.449ZM172.925 164.142L172.91 158.479L175.335 157.003C176.463 156.318 177.383 156.869 177.387 158.241L177.419 170.407L172.949 173.127L172.925 164.142Z" fill="#DEDFE4"/>
<path d="M100.666 67.804L100.554 40.0216L90.6427 33.9522L90.0613 33.5977L90.1992 67.804H100.666Z" fill="#8A8E96"/>
<path d="M92.371 72.4383L92.2595 44.6559L82.3478 38.5865L81.7664 38.2319L81.9042 72.4383H92.371Z" fill="#8A8E96"/>
<path d="M112.671 67.8042L112.56 40.1403C112.559 39.6924 112.28 39.244 111.722 38.9016L101.736 32.7876L101.876 67.8042H112.671Z" fill="#8A8E96"/>
<path d="M115.445 40.1265C115.548 78.8667 115.653 81.4889 115.757 115.767L114.044 116.831L113.745 42.6338C114.88 41.9447 115.447 41.0348 115.445 40.1265Z" fill="#C2C5CC"/>
<path d="M115.757 115.767C136.651 128.628 152.648 138.56 178.24 154.23C177.495 153.774 176.465 153.838 175.328 154.528L114.043 116.831L115.757 115.767Z" fill="#DEDFE4"/>
<path d="M83.6987 75.3288L83.5977 50.2751L73.1045 43.8501L70.8774 45.2047L75.7492 48.1888V75.3288H83.6987Z" fill="#8A8E96"/>
<path d="M69.6907 75.3289L69.5966 51.9303L64.7258 48.9473L64.8319 75.3289H69.6907Z" fill="#8A8E96"/>
<path d="M113.745 42.6348L114.043 116.831L109.567 119.547L109.269 45.3577L113.745 42.6348Z" fill="#DEDFE4"/>
<path d="M114.043 116.831L175.328 154.528L170.859 157.248L109.567 119.547L114.043 116.831Z" fill="url(#paint0_linear_1396_1678)"/>
<path d="M109.269 45.3577L109.567 119.547L170.859 157.248L170.88 165.386L102.922 123.583L102.589 41.2681L109.269 45.3577Z" fill="#4B4D51"/>
<path d="M102.589 41.2681L102.923 123.585L75.0823 140.463L74.7498 58.1415L102.589 41.2681Z" fill="#2E3033"/>
<path d="M69.9403 75.3288L69.883 61.1016L55.319 52.185L51.9436 50.1177L52.0447 75.3288H69.9403Z" fill="#8A8E96"/>
<path d="M77.4009 75.3292L77.3487 62.2343L72.7014 59.3882L72.7651 75.3292H77.4009Z" fill="#8A8E96"/>
<path d="M46.8179 52.6558C46.8209 53.8106 47.5392 54.9633 48.9752 55.8433L65.1441 65.7428L65.4686 146.305L131.99 187.223L132.041 206.927C132.046 208.679 132.635 209.91 133.584 210.49C99.6998 189.745 82.6429 179.059 48.7582 158.313C47.8104 157.733 47.2221 156.5 47.2171 154.75C47.2171 154.749 46.9274 93.9453 46.8179 52.6558Z" fill="#C2C5CC"/>
<path d="M81.4289 62.2314L81.7276 136.427L75.9583 139.934L75.6597 65.7405L81.4289 62.2314Z" fill="#DEDFE4"/>
<path d="M81.7275 136.427L143.013 174.125L137.245 177.633L75.9583 139.934L81.7275 136.427Z" fill="url(#paint1_linear_1396_1678)"/>
<path d="M75.6596 65.7407L75.9583 139.934L65.4691 146.304L65.1445 65.7418C68.0316 67.5112 72.7486 67.5112 75.6596 65.7407Z" fill="url(#paint2_linear_1396_1678)"/>
<path d="M75.9582 139.934L137.245 177.633C134.339 179.4 131.98 183.705 131.99 187.222L65.4685 146.305C65.4685 146.305 70.2163 141.168 75.9582 139.934Z" fill="url(#paint3_linear_1396_1678)"/>
<path d="M102.848 123.656L170.63 165.331L168.625 166.552L100.84 124.874L102.848 123.656Z" fill="#30B5AB"/>
<path d="M102.848 123.656L102.844 41.2935L100.838 42.5144L100.84 124.874L102.848 123.656Z" fill="#52CEC8"/>
<path opacity="0.8" d="M170.518 131.698L170.653 165.322L168.625 166.552L168.489 132.932L170.518 131.698Z" fill="#5257CE"/>
<path opacity="0.8" d="M102.848 41.2935L130.354 58.2126L128.349 59.434L100.84 42.5133L102.848 41.2935Z" fill="#9DA6F4"/>
<path opacity="0.8" d="M130.354 58.2124L170.518 131.698L168.489 132.932L128.349 59.4338L130.354 58.2124Z" fill="#7F89E5"/>
<path opacity="0.3" d="M128.349 59.4339L168.489 132.932L168.625 166.552L100.84 124.874V42.5132L128.349 59.4339Z" fill="#7F83E5"/>
<path d="M104.891 45.0334L100.6 42.4175L89.8977 48.9458L94.191 51.5617C94.5888 51.805 95.1527 51.8543 95.4519 51.6724L105.07 45.8022C105.369 45.6203 105.29 45.2768 104.891 45.0334Z" fill="#212121"/>
<path d="M95.5242 128.731L155.74 166.388L155.726 167.465L157.849 168.831L168.369 161.678L105.449 123.154L105.247 45.5825L97.8871 50.0597L96.0195 51.1962L95.5242 128.731Z" fill="#212121"/>
<path d="M95.7292 51.5121L95.9239 127.129L95.9289 128.958L96.5715 129.351L158.632 167.351L167.87 161.725L105.159 123.329L104.956 45.8979L97.5974 50.3746L95.7292 51.5121ZM99.0798 53.634C99.0818 53.8134 98.9563 54.042 98.8065 54.1328C98.6527 54.2261 98.5322 54.1475 98.5302 53.9681L98.5263 52.0418C98.5263 51.8609 98.6457 51.6354 98.7995 51.5431C98.9494 51.4513 99.0758 51.5268 99.0758 51.7077L99.0798 53.634ZM99.0942 58.5056C99.0942 58.6865 98.9688 58.9152 98.819 59.0059C98.6661 59.0993 98.5447 59.0222 98.5447 58.8412L98.5387 56.915C98.5387 56.7293 98.6602 56.5085 98.812 56.4146C98.9618 56.3244 99.0873 56.3952 99.0883 56.5809L99.0942 58.5056ZM99.1072 63.3745C99.1082 63.5602 98.9827 63.7841 98.8339 63.8743C98.6801 63.9682 98.5576 63.8953 98.5576 63.7081L98.5536 61.7881C98.5516 61.6024 98.6731 61.3816 98.8269 61.2878C98.9758 61.1976 99.1012 61.2684 99.1012 61.454L99.1072 63.3745ZM99.1196 68.2477C99.1206 68.4349 98.9962 68.6573 98.8463 68.7475C98.6925 68.8413 98.5711 68.7684 98.5711 68.5812L98.5661 66.6555C98.5661 66.4745 98.6856 66.2548 98.8394 66.1614C98.9882 66.0712 99.1136 66.142 99.1156 66.3219L99.1196 68.2477ZM99.134 73.1208C99.134 73.3017 99.0086 73.5288 98.8588 73.6196C98.707 73.7145 98.5845 73.6358 98.5845 73.4549L98.5785 71.5307C98.5785 71.3498 98.698 71.1243 98.8518 71.0304C99.0006 70.9396 99.1281 71.0141 99.1281 71.1951L99.134 73.1208ZM99.147 77.9939C99.148 78.1749 99.0225 78.3978 98.8717 78.488C98.7199 78.5813 98.5974 78.5084 98.5974 78.3275L98.5915 76.4017C98.5915 76.2161 98.7119 75.9969 98.8657 75.903C99.0156 75.8123 99.141 75.882 99.141 76.0677L99.147 77.9939ZM102.173 51.7523C102.174 51.9317 102.054 52.1572 101.9 52.2511C101.75 52.3428 101.628 52.2642 101.628 52.0848L101.622 50.1575C101.622 49.9766 101.743 49.7526 101.892 49.6619C102.046 49.5685 102.168 49.6456 102.168 49.8266L102.173 51.7523ZM102.187 56.6255C102.187 56.8064 102.066 57.0303 101.913 57.1258C101.763 57.216 101.642 57.1373 101.64 56.9564L101.636 55.0317C101.636 54.846 101.756 54.6252 101.906 54.5345C102.058 54.4412 102.18 54.5135 102.181 54.6992L102.187 56.6255ZM102.199 61.4928C102.199 61.6795 102.079 61.8993 101.926 61.9932C101.775 62.0834 101.655 62.011 101.655 61.8253L101.649 59.9048C101.649 59.7181 101.768 59.4984 101.918 59.4076C102.071 59.3127 102.194 59.3872 102.194 59.5723L102.199 61.4928ZM102.212 66.366C102.212 66.5527 102.093 66.7724 101.939 66.8663C101.79 66.9565 101.668 66.8841 101.668 66.6985L101.662 64.7722C101.662 64.5912 101.782 64.3715 101.932 64.2808C102.086 64.1874 102.207 64.2603 102.208 64.4397L102.212 66.366ZM102.227 71.2407C102.227 71.4216 102.105 71.6461 101.951 71.7394C101.803 71.8296 101.681 71.7525 101.68 71.5716L101.675 69.6453C101.675 69.466 101.796 69.2389 101.944 69.1481C102.098 69.0548 102.22 69.1335 102.221 69.3144L102.227 71.2407ZM102.238 76.1122C102.24 76.2932 102.118 76.5145 101.966 76.6078C101.817 76.6986 101.694 76.6257 101.694 76.4447L101.688 74.5185C101.687 74.3328 101.809 74.112 101.957 74.0213C102.111 73.9279 102.234 74.0003 102.234 74.1875L102.238 76.1122ZM102.252 80.9807C102.252 81.1663 102.133 81.3871 101.977 81.481C101.828 81.5717 101.707 81.4988 101.707 81.3121L101.701 79.3916C101.701 79.2059 101.822 78.9852 101.972 78.8944C102.126 78.8011 102.246 78.8734 102.248 79.0591L102.252 80.9807ZM102.265 85.8538C102.266 86.0347 102.145 86.2602 101.991 86.3525C101.841 86.4443 101.721 86.3657 101.719 86.1863L101.715 84.259C101.714 84.078 101.834 83.8541 101.984 83.7634C102.138 83.67 102.259 83.7471 102.261 83.928L102.265 85.8538ZM102.278 90.7269C102.279 90.9079 102.158 91.1334 102.004 91.2273C101.854 91.318 101.734 91.2393 101.734 91.0594L101.728 89.1337C101.727 88.947 101.847 88.7272 101.997 88.6365C102.151 88.5431 102.274 88.6155 102.274 88.8012L102.278 90.7269ZM102.291 95.5943C102.291 95.781 102.171 96.0008 102.017 96.0946C101.867 96.1854 101.746 96.1125 101.746 95.9268L101.74 94.0068C101.74 93.8201 101.862 93.6004 102.011 93.5081C102.165 93.4163 102.286 93.4887 102.286 93.6743L102.291 95.5943ZM102.304 101.227C102.305 101.414 102.184 101.634 102.03 101.728C101.881 101.818 101.76 101.746 101.759 101.56L101.755 99.6341C101.753 99.4532 101.874 99.2334 102.023 99.1427C102.177 99.0493 102.298 99.1217 102.298 99.3027L102.304 101.227ZM102.318 106.861C102.318 107.042 102.197 107.267 102.043 107.36C101.894 107.451 101.773 107.373 101.772 107.192L101.768 105.267C101.766 105.086 101.887 104.86 102.036 104.769C102.19 104.676 102.312 104.755 102.312 104.936L102.318 106.861ZM102.331 112.493C102.331 112.674 102.209 112.895 102.057 112.989C101.907 113.079 101.785 113.006 101.785 112.825L101.78 110.899C101.78 110.713 101.901 110.492 102.049 110.401C102.202 110.308 102.325 110.38 102.325 110.566L102.331 112.493ZM102.344 118.121C102.346 118.307 102.224 118.528 102.07 118.62C101.921 118.712 101.798 118.639 101.798 118.452L101.793 116.532C101.793 116.347 101.914 116.126 102.063 116.035C102.217 115.942 102.338 116.015 102.338 116.2L102.344 118.121ZM102.358 123.754C102.358 123.936 102.237 124.161 102.083 124.253C101.933 124.345 101.813 124.268 101.811 124.087L101.807 122.16C101.807 121.98 101.926 121.755 102.076 121.664C102.23 121.57 102.35 121.648 102.352 121.828L102.358 123.754ZM160.954 161.352C161.111 161.257 161.359 161.257 161.516 161.352L163.135 162.345C163.288 162.437 163.29 162.59 163.133 162.686C162.98 162.78 162.725 162.78 162.573 162.686L160.953 161.695C160.796 161.598 160.801 161.446 160.954 161.352ZM157.784 163.281C157.938 163.187 158.185 163.187 158.341 163.283L159.961 164.275C160.113 164.369 160.116 164.52 159.963 164.614C159.806 164.71 159.555 164.707 159.402 164.614L157.782 163.622C157.626 163.526 157.627 163.376 157.784 163.281ZM156.855 158.843C157.012 158.747 157.264 158.749 157.416 158.843L159.036 159.834C159.188 159.928 159.191 160.081 159.034 160.177C158.881 160.27 158.625 160.27 158.474 160.177L156.853 159.184C156.702 159.091 156.703 158.936 156.855 158.843ZM153.686 160.772C153.839 160.678 154.09 160.68 154.242 160.773L155.862 161.765C156.014 161.858 156.018 162.012 155.864 162.105C155.708 162.202 155.456 162.199 155.303 162.105L153.684 161.114C153.532 161.019 153.528 160.867 153.686 160.772ZM152.761 156.335C152.917 156.24 153.165 156.24 153.317 156.333L154.937 157.325C155.093 157.42 155.093 157.572 154.935 157.668C154.782 157.76 154.531 157.763 154.374 157.668L152.754 156.675C152.602 156.581 152.607 156.428 152.761 156.335ZM149.591 158.264C149.745 158.17 149.991 158.17 150.144 158.264L151.764 159.255C151.919 159.35 151.919 159.502 151.766 159.595C151.609 159.69 151.361 159.69 151.205 159.595L149.584 158.603C149.432 158.51 149.433 158.359 149.591 158.264ZM148.662 153.825C148.818 153.73 149.066 153.729 149.222 153.825L150.842 154.817C150.995 154.911 150.994 155.062 150.836 155.157C150.682 155.25 150.432 155.253 150.279 155.16L148.659 154.168C148.504 154.072 148.509 153.917 148.662 153.825ZM145.492 155.753C145.645 155.661 145.891 155.659 146.049 155.756L147.668 156.748C147.82 156.841 147.82 156.993 147.666 157.086C147.509 157.181 147.261 157.181 147.109 157.088L145.49 156.096C145.334 156.001 145.334 155.85 145.492 155.753ZM144.562 151.316C144.72 151.22 144.971 151.223 145.123 151.314L146.743 152.308C146.895 152.401 146.897 152.554 146.742 152.65C146.588 152.744 146.332 152.743 146.18 152.65L144.56 151.657C144.408 151.566 144.409 151.408 144.562 151.316ZM141.393 153.244C141.546 153.15 141.798 153.153 141.95 153.245L143.569 154.238C143.721 154.332 143.724 154.485 143.571 154.578C143.415 154.675 143.162 154.671 143.011 154.578L141.391 153.586C141.238 153.494 141.236 153.339 141.393 153.244ZM140.468 148.809C140.625 148.712 140.873 148.712 141.025 148.805L142.644 149.798C142.797 149.892 142.8 150.045 142.642 150.141C142.49 150.233 142.233 150.233 142.082 150.14L140.462 149.148C140.31 149.055 140.314 148.902 140.468 148.809ZM137.298 150.736C137.45 150.643 137.698 150.644 137.85 150.736L139.47 151.729C139.622 151.823 139.625 151.976 139.472 152.069C139.315 152.166 139.063 152.162 138.911 152.069L137.291 151.077C137.14 150.984 137.141 150.832 137.298 150.736ZM136.368 146.299C136.526 146.203 136.773 146.203 136.925 146.296L138.546 147.289C138.701 147.384 138.7 147.536 138.543 147.63C138.39 147.724 138.139 147.727 137.982 147.63L136.363 146.639C136.211 146.546 136.216 146.393 136.368 146.299ZM133.198 148.227C133.352 148.133 133.6 148.133 133.751 148.227L135.371 149.22C135.527 149.315 135.527 149.466 135.373 149.559C135.216 149.655 134.969 149.655 134.813 149.56L133.193 148.568C133.041 148.475 133.042 148.323 133.198 148.227ZM132.27 143.79C132.427 143.693 132.675 143.693 132.831 143.79L134.451 144.781C134.602 144.875 134.606 145.028 134.448 145.124C134.296 145.216 134.04 145.216 133.888 145.124L132.269 144.131C132.112 144.037 132.117 143.882 132.27 143.79ZM129.1 145.718C129.253 145.624 129.5 145.624 129.656 145.721L131.277 146.712C131.429 146.806 131.432 146.959 131.279 147.052C131.122 147.147 130.871 147.146 130.718 147.052L129.098 146.061C128.941 145.964 128.942 145.812 129.1 145.718ZM128.17 141.279C128.327 141.184 128.579 141.187 128.731 141.279L130.351 142.272C130.504 142.366 130.507 142.519 130.35 142.613C130.196 142.707 129.942 142.707 129.788 142.613L128.168 141.622C128.017 141.528 128.017 141.373 128.17 141.279ZM125.001 143.208C125.154 143.114 125.406 143.117 125.558 143.21L127.178 144.202C127.33 144.296 127.333 144.449 127.179 144.542C127.023 144.637 126.771 144.634 126.619 144.542L124.999 143.549C124.847 143.458 124.844 143.303 125.001 143.208ZM124.076 138.773C124.233 138.676 124.481 138.676 124.632 138.77L126.252 139.762C126.409 139.858 126.409 140.009 126.251 140.104C126.098 140.197 125.846 140.199 125.69 140.104L124.07 139.112C123.918 139.019 123.922 138.866 124.076 138.773ZM120.905 140.7C121.059 140.607 121.307 140.607 121.458 140.7L123.079 141.693C123.235 141.788 123.235 141.939 123.081 142.031C122.925 142.128 122.676 142.128 122.52 142.031L120.9 141.04C120.749 140.947 120.749 140.797 120.905 140.7ZM119.977 136.263C120.134 136.167 120.381 136.167 120.537 136.263L122.153 137.252C122.31 137.348 122.309 137.498 122.151 137.594C121.998 137.688 121.747 137.69 121.591 137.594L119.975 136.605C119.819 136.508 119.824 136.356 119.977 136.263ZM116.808 138.191C116.96 138.097 117.208 138.097 117.364 138.194L118.979 139.184C119.136 139.279 119.135 139.429 118.982 139.522C118.825 139.619 118.577 139.619 118.422 139.522L116.805 138.534C116.65 138.438 116.65 138.286 116.808 138.191ZM115.878 133.753C116.035 133.657 116.286 133.661 116.44 133.753L118.059 134.744C118.21 134.838 118.214 134.992 118.058 135.087C117.904 135.18 117.648 135.18 117.497 135.087L115.876 134.095C115.724 134.003 115.725 133.846 115.878 133.753ZM112.708 135.682C112.86 135.588 113.111 135.592 113.264 135.683L114.885 136.676C115.037 136.768 115.04 136.923 114.887 137.015C114.73 137.111 114.478 137.108 114.325 137.015L112.705 136.023C112.554 135.93 112.551 135.777 112.708 135.682ZM110.941 130.686C111.098 130.589 111.346 130.589 111.498 130.683L113.118 131.675C113.27 131.768 113.272 131.922 113.116 132.017C112.962 132.11 112.708 132.11 112.556 132.017L110.936 131.025C110.783 130.932 110.788 130.778 110.941 130.686ZM107.771 132.613C107.925 132.519 108.173 132.519 108.325 132.613L109.943 133.604C110.097 133.698 110.099 133.853 109.946 133.944C109.789 134.041 109.538 134.038 109.386 133.944L107.766 132.953C107.614 132.86 107.616 132.708 107.771 132.613ZM106.465 127.914C106.624 127.818 106.872 127.818 107.023 127.912L108.643 128.903C108.799 128.999 108.798 129.15 108.642 129.246C108.488 129.34 108.236 129.341 108.08 129.246L106.46 128.253C106.31 128.162 106.314 128.007 106.465 127.914ZM103.297 129.843C103.451 129.749 103.699 129.749 103.85 129.843L105.47 130.834C105.626 130.929 105.626 131.081 105.472 131.174C105.315 131.271 105.067 131.271 104.911 131.174L103.291 130.182C103.14 130.089 103.14 129.938 103.297 129.843ZM102.582 125.447C102.739 125.351 102.987 125.35 103.142 125.447L104.763 126.438C104.915 126.532 104.914 126.683 104.756 126.779C104.603 126.871 104.353 126.874 104.199 126.78L102.58 125.789C102.424 125.693 102.428 125.54 102.582 125.447ZM99.4123 127.374C99.5651 127.282 99.813 127.281 99.9693 127.377L101.589 128.371C101.741 128.462 101.74 128.614 101.587 128.707C101.429 128.803 101.182 128.804 101.031 128.71L99.4093 127.718C99.254 127.622 99.2545 127.471 99.4123 127.374ZM98.7094 124.043C98.7094 123.862 98.8309 123.638 98.9827 123.544C99.1326 123.453 99.258 123.529 99.259 123.709L99.265 125.636C99.265 125.815 99.1395 126.044 98.9907 126.134C98.8369 126.228 98.7154 126.151 98.7154 125.97L98.7094 124.043ZM98.6965 118.415C98.6965 118.229 98.817 118.011 98.9698 117.917C99.1196 117.826 99.2451 117.896 99.246 118.081L99.251 120.003C99.252 120.189 99.1266 120.411 98.9777 120.501C98.8239 120.595 98.7025 120.522 98.7015 120.337L98.6965 118.415ZM98.6841 112.782C98.6831 112.597 98.8045 112.378 98.9573 112.284C99.1072 112.194 99.2326 112.263 99.2336 112.448L99.2386 114.375C99.2386 114.556 99.1141 114.778 98.9653 114.869C98.8115 114.964 98.69 114.889 98.689 114.708L98.6841 112.782ZM98.6706 107.151C98.6706 106.97 98.7911 106.745 98.9449 106.651C99.0927 106.56 99.2202 106.636 99.2202 106.815L99.2261 108.742C99.2261 108.923 99.1007 109.15 98.9509 109.242C98.7971 109.334 98.6766 109.257 98.6766 109.076L98.6706 107.151ZM98.6577 101.516C98.6557 101.337 98.7771 101.116 98.931 101.022C99.0798 100.932 99.2072 101.003 99.2072 101.182L99.2132 103.109C99.2132 103.295 99.0878 103.518 98.9379 103.609C98.7841 103.702 98.6636 103.63 98.6636 103.443L98.6577 101.516ZM98.6452 95.8896C98.6432 95.7039 98.7647 95.4831 98.9185 95.3898C99.0673 95.299 99.1928 95.3704 99.1928 95.556L99.1988 97.476C99.1988 97.6617 99.0753 97.8856 98.9255 97.9763C98.7717 98.0697 98.6512 97.9957 98.6492 97.8101L98.6452 95.8896ZM98.6308 91.0164C98.6308 90.8308 98.7523 90.61 98.9061 90.5166C99.0549 90.4259 99.1803 90.4972 99.1803 90.6829L99.1863 92.6071C99.1863 92.788 99.0629 93.0167 98.913 93.1074C98.7582 93.2007 98.6368 93.1236 98.6368 92.9427L98.6308 91.0164ZM98.6178 86.1433C98.6169 85.9624 98.7373 85.7368 98.8911 85.6445C99.041 85.5528 99.1674 85.6283 99.1674 85.8092L99.1734 87.735C99.1734 87.9159 99.0479 88.143 98.8991 88.2337C98.7463 88.3271 98.6238 88.25 98.6238 88.069L98.6178 86.1433ZM98.6104 83.1964L98.6054 81.2749C98.6054 81.0892 98.7249 80.8695 98.8787 80.7761C99.0285 80.6854 99.154 80.7551 99.155 80.9408L99.1599 82.8624C99.1599 83.048 99.0355 83.2704 98.8867 83.3611C98.7328 83.4545 98.6109 83.3816 98.6104 83.1964Z" fill="#D0D2D8"/>
<path d="M90.1216 131.393L157.904 173.069L155.898 174.289L88.114 132.611L90.1216 131.393Z" fill="#30B5AB"/>
<path d="M90.1216 131.393L90.1176 49.0308L88.1121 50.2517L88.1141 132.611L90.1216 131.393Z" fill="#52CEC8"/>
<path opacity="0.8" d="M157.791 139.436L157.926 173.059L155.898 174.29L155.763 140.669L157.791 139.436Z" fill="#5257CE"/>
<path opacity="0.8" d="M90.1216 49.0308L117.628 65.9499L115.622 67.1713L88.114 50.2501L90.1216 49.0308Z" fill="#9DA6F4"/>
<path opacity="0.8" d="M117.628 65.9497L157.791 139.435L155.763 140.669L115.622 67.1711L117.628 65.9497Z" fill="#7F89E5"/>
<path opacity="0.3" d="M115.622 67.1712L155.763 140.669L155.898 174.289L88.114 132.611V50.25L115.622 67.1712Z" fill="#7F83E5"/>
<path d="M92.165 52.7702L87.8736 50.1543L77.1714 56.6826L81.4647 59.2985C81.8624 59.5419 82.4264 59.5911 82.7256 59.4092L92.3437 53.5391C92.6423 53.3571 92.5637 53.0136 92.165 52.7702Z" fill="#212121"/>
<path d="M82.7979 136.468L143.014 174.125L143 175.202L145.123 176.567L155.643 169.415L92.723 130.89L92.5209 53.3193L85.1613 57.7965L83.2936 58.9335L82.7979 136.468Z" fill="#212121"/>
<path d="M83.0029 59.2494L83.1976 134.867L83.2025 136.696L83.8452 137.089L145.906 175.089L155.144 169.463L92.4323 131.066L92.2292 53.6357L84.8706 58.1124L83.0029 59.2494ZM86.353 61.3713C86.355 61.5507 86.2295 61.7793 86.0797 61.87C85.9259 61.9634 85.8054 61.8847 85.8034 61.7054L85.7995 59.7791C85.7995 59.5981 85.9189 59.3726 86.0727 59.2803C86.2226 59.1886 86.349 59.2641 86.349 59.445L86.353 61.3713ZM86.3679 66.2429C86.3679 66.4238 86.2425 66.6525 86.0926 66.7432C85.9398 66.8365 85.8184 66.7594 85.8184 66.5785L85.8124 64.6522C85.8124 64.4666 85.9338 64.2458 86.0857 64.1519C86.2355 64.0617 86.3609 64.1325 86.3619 64.3181L86.3679 66.2429ZM86.3804 71.1118C86.3813 71.2975 86.2559 71.5214 86.1071 71.6116C85.9533 71.7055 85.8308 71.6326 85.8308 71.4453L85.8268 69.5254C85.8248 69.3397 85.9463 69.1189 86.1001 69.025C86.2489 68.9348 86.3744 69.0056 86.3744 69.1913L86.3804 71.1118ZM86.3933 75.9849C86.3943 76.1722 86.2698 76.3945 86.12 76.4847C85.9662 76.5786 85.8447 76.5057 85.8447 76.3185L85.8398 74.3927C85.8398 74.2118 85.9592 73.9921 86.113 73.8987C86.2619 73.8085 86.3873 73.8793 86.3893 74.0592L86.3933 75.9849ZM86.4077 80.8581C86.4077 81.039 86.2823 81.2661 86.1325 81.3568C85.9806 81.4517 85.8582 81.3731 85.8582 81.1922L85.8522 79.268C85.8522 79.087 85.9717 78.8615 86.1255 78.7676C86.2743 78.6769 86.4018 78.7514 86.4018 78.9323L86.4077 80.8581ZM86.4202 85.7312C86.4212 85.9122 86.2957 86.135 86.1449 86.2252C85.9931 86.3186 85.8706 86.2462 85.8706 86.0648L85.8647 84.139C85.8647 83.9534 85.9851 83.7341 86.1389 83.6403C86.2888 83.5495 86.4142 83.6198 86.4142 83.8049L86.4202 85.7312ZM89.4467 59.4896C89.4477 59.6689 89.3272 59.8945 89.1734 59.9883C89.0236 60.0801 88.9011 60.0014 88.9011 59.8221L88.8951 57.8948C88.8951 57.7138 89.0166 57.4899 89.1654 57.3992C89.3192 57.3058 89.4407 57.3829 89.4407 57.5638L89.4467 59.4896ZM89.4606 64.3627C89.4606 64.5437 89.3401 64.7676 89.1863 64.863C89.0365 64.9533 88.916 64.8746 88.914 64.6937L88.9101 62.7689C88.9101 62.5833 89.0295 62.3625 89.1794 62.2718C89.3322 62.1784 89.4536 62.2508 89.4546 62.4364L89.4606 64.3627ZM89.473 69.2301C89.473 69.4168 89.3526 69.6365 89.1998 69.7304C89.0489 69.8206 88.9285 69.7482 88.9285 69.5626L88.9225 67.6421C88.9225 67.4554 89.042 67.2356 89.1918 67.1449C89.3446 67.05 89.4681 67.1239 89.4681 67.3096L89.473 69.2301ZM89.4855 74.1032C89.4855 74.2899 89.366 74.5097 89.2122 74.6036C89.0634 74.6938 88.9409 74.6214 88.9409 74.4357L88.935 72.5094C88.935 72.3285 89.0554 72.1088 89.2052 72.018C89.3591 71.9247 89.4805 71.9971 89.4815 72.177L89.4855 74.1032ZM89.5004 78.9779C89.5004 79.1589 89.379 79.3828 89.2252 79.4767C89.0763 79.5669 88.9549 79.4898 88.9539 79.3089L88.9489 77.3826C88.9489 77.2032 89.0694 76.9761 89.2182 76.8854C89.372 76.7921 89.4935 76.8707 89.4944 77.0517L89.5004 78.9779ZM89.5109 83.8495C89.5129 84.0304 89.3914 84.2518 89.2396 84.3451C89.0898 84.4358 88.9673 84.3629 88.9673 84.182L88.9613 82.2557C88.9603 82.0701 89.0818 81.8493 89.2306 81.7586C89.3844 81.6652 89.5069 81.7376 89.5069 81.9248L89.5109 83.8495ZM89.5258 88.7179C89.5258 88.9036 89.4063 89.1244 89.2505 89.2183C89.1017 89.309 88.9803 89.2361 88.9803 89.0494L88.9743 87.1289C88.9743 86.9432 89.0957 86.7224 89.2456 86.6317C89.3994 86.5383 89.5198 86.6112 89.5218 86.7964L89.5258 88.7179ZM89.5383 93.5911C89.5393 93.772 89.4188 93.9975 89.265 94.0898C89.1151 94.1816 88.9947 94.1029 88.9927 93.9236L88.9887 91.9962C88.9877 91.8153 89.1082 91.5914 89.258 91.5006C89.4118 91.4073 89.5323 91.4844 89.5343 91.6653L89.5383 93.5911ZM89.5507 98.4642C89.5517 98.6451 89.4312 98.8707 89.2774 98.9645C89.1276 99.0553 89.0071 98.9766 89.0071 98.7967L89.0012 96.8709C89.0002 96.6842 89.1206 96.4645 89.2705 96.3738C89.4243 96.2804 89.5467 96.3528 89.5467 96.5384L89.5507 98.4642ZM89.5646 103.332C89.5646 103.518 89.4452 103.738 89.2904 103.832C89.1405 103.923 89.0201 103.85 89.0201 103.664L89.0141 101.744C89.0141 101.557 89.1356 101.338 89.2844 101.245C89.4382 101.154 89.5597 101.226 89.5597 101.412L89.5646 103.332ZM89.5781 108.964C89.5791 109.151 89.4576 109.371 89.3038 109.464C89.155 109.555 89.0335 109.482 89.0325 109.297L89.0285 107.371C89.0265 107.19 89.148 106.97 89.2968 106.879C89.4507 106.786 89.5721 106.859 89.5721 107.039L89.5781 108.964ZM89.5915 114.599C89.5915 114.78 89.4701 115.004 89.3162 115.097C89.1674 115.188 89.046 115.111 89.045 114.93L89.041 113.004C89.039 112.823 89.1604 112.597 89.3093 112.507C89.4631 112.413 89.5855 112.492 89.5855 112.673L89.5915 114.599ZM89.6045 120.23C89.6045 120.412 89.483 120.632 89.3312 120.726C89.1804 120.816 89.0589 120.743 89.0589 120.562L89.0539 118.636C89.0539 118.45 89.1744 118.229 89.3222 118.139C89.476 118.045 89.5985 118.118 89.5985 118.303L89.6045 120.23ZM89.6169 125.859C89.6189 126.044 89.4974 126.265 89.3436 126.357C89.1938 126.449 89.0713 126.376 89.0713 126.189L89.0664 124.269C89.0664 124.084 89.1868 123.863 89.3367 123.772C89.4905 123.679 89.6109 123.752 89.6109 123.937L89.6169 125.859ZM89.6313 131.492C89.6313 131.673 89.5099 131.898 89.3561 131.99C89.2062 132.082 89.0858 132.005 89.0838 131.824L89.0798 129.897C89.0798 129.717 89.1993 129.492 89.3491 129.401C89.5029 129.307 89.6234 129.385 89.6254 129.566L89.6313 131.492ZM148.227 169.089C148.385 168.994 148.632 168.994 148.789 169.089L150.409 170.082C150.561 170.174 150.563 170.327 150.406 170.423C150.253 170.517 149.998 170.517 149.846 170.423L148.226 169.432C148.069 169.336 148.075 169.183 148.227 169.089ZM145.058 171.018C145.211 170.925 145.459 170.925 145.615 171.02L147.235 172.013C147.387 172.107 147.389 172.258 147.237 172.352C147.079 172.448 146.828 172.445 146.676 172.352L145.056 171.36C144.9 171.263 144.901 171.113 145.058 171.018ZM144.129 166.58C144.286 166.485 144.537 166.486 144.69 166.58L146.309 167.571C146.462 167.665 146.465 167.818 146.307 167.914C146.154 168.008 145.899 168.008 145.747 167.914L144.127 166.922C143.975 166.828 143.976 166.673 144.129 166.58ZM140.959 168.509C141.113 168.416 141.364 168.417 141.516 168.511L143.136 169.502C143.288 169.596 143.291 169.749 143.138 169.842C142.982 169.939 142.729 169.936 142.577 169.842L140.957 168.851C140.805 168.757 140.801 168.604 140.959 168.509ZM140.034 164.072C140.191 163.977 140.439 163.977 140.59 164.071L142.21 165.062C142.366 165.157 142.366 165.309 142.208 165.405C142.055 165.497 141.804 165.5 141.648 165.405L140.027 164.413C139.876 164.318 139.881 164.166 140.034 164.072ZM136.864 166.001C137.018 165.907 137.264 165.907 137.417 166.001L139.037 166.992C139.193 167.088 139.193 167.239 139.039 167.332C138.882 167.427 138.634 167.427 138.478 167.332L136.858 166.34C136.706 166.248 136.707 166.096 136.864 166.001ZM135.936 161.563C136.091 161.468 136.339 161.466 136.496 161.563L138.115 162.554C138.269 162.648 138.267 162.799 138.11 162.894C137.956 162.988 137.705 162.991 137.553 162.897L135.933 161.906C135.777 161.809 135.782 161.655 135.936 161.563ZM132.765 163.49C132.919 163.398 133.165 163.397 133.322 163.493L134.942 164.485C135.094 164.578 135.093 164.73 134.94 164.823C134.783 164.919 134.535 164.919 134.383 164.825L132.763 163.834C132.607 163.738 132.607 163.587 132.765 163.49ZM131.836 159.053C131.993 158.957 132.245 158.96 132.397 159.052L134.017 160.044C134.169 160.138 134.171 160.291 134.015 160.387C133.861 160.481 133.606 160.479 133.454 160.387L131.834 159.394C131.682 159.303 131.683 159.146 131.836 159.053ZM128.666 160.981C128.819 160.887 129.071 160.89 129.223 160.983L130.842 161.975C130.995 162.069 130.998 162.222 130.844 162.315C130.688 162.412 130.436 162.409 130.284 162.315L128.664 161.324C128.512 161.231 128.509 161.076 128.666 160.981ZM127.741 156.546C127.898 156.449 128.146 156.449 128.298 156.543L129.917 157.536C130.07 157.629 130.073 157.782 129.915 157.879C129.763 157.97 129.506 157.97 129.355 157.877L127.735 156.885C127.583 156.792 127.587 156.639 127.741 156.546ZM124.571 158.473C124.724 158.38 124.972 158.381 125.124 158.473L126.744 159.466C126.896 159.559 126.899 159.713 126.746 159.805C126.589 159.902 126.337 159.899 126.185 159.805L124.565 158.814C124.414 158.721 124.414 158.57 124.571 158.473ZM123.642 154.036C123.799 153.94 124.047 153.94 124.199 154.033L125.819 155.027C125.975 155.122 125.974 155.273 125.816 155.367C125.663 155.461 125.413 155.464 125.256 155.367L123.637 154.376C123.484 154.283 123.489 154.13 123.642 154.036ZM120.472 155.964C120.625 155.87 120.874 155.87 121.025 155.964L122.644 156.957C122.801 157.053 122.8 157.204 122.646 157.295C122.49 157.392 122.243 157.392 122.086 157.297L120.467 156.305C120.314 156.212 120.315 156.06 120.472 155.964ZM119.543 151.527C119.7 151.43 119.948 151.43 120.104 151.527L121.724 152.519C121.875 152.613 121.879 152.765 121.722 152.861C121.569 152.953 121.313 152.953 121.162 152.861L119.542 151.868C119.386 151.773 119.39 151.619 119.543 151.527ZM116.373 153.454C116.526 153.361 116.773 153.361 116.929 153.457L118.55 154.449C118.702 154.543 118.705 154.696 118.552 154.788C118.395 154.884 118.144 154.882 117.991 154.788L116.371 153.797C116.215 153.701 116.216 153.55 116.373 153.454ZM115.444 149.016C115.6 148.922 115.853 148.925 116.005 149.016L117.625 150.01C117.777 150.103 117.781 150.256 117.623 150.351C117.47 150.445 117.215 150.445 117.062 150.351L115.442 149.359C115.29 149.266 115.29 149.11 115.444 149.016ZM112.274 150.945C112.427 150.851 112.679 150.855 112.831 150.947L114.452 151.94C114.603 152.034 114.607 152.186 114.453 152.28C114.296 152.374 114.045 152.371 113.893 152.28L112.273 151.286C112.12 151.195 112.117 151.04 112.274 150.945ZM111.349 146.51C111.506 146.413 111.754 146.413 111.905 146.507L113.526 147.5C113.682 147.595 113.681 147.746 113.525 147.841C113.371 147.935 113.119 147.936 112.963 147.841L111.343 146.849C111.191 146.757 111.196 146.603 111.349 146.51ZM108.179 148.437C108.332 148.344 108.58 148.344 108.732 148.437L110.352 149.431C110.508 149.526 110.508 149.677 110.354 149.769C110.198 149.866 109.949 149.866 109.793 149.769L108.173 148.778C108.022 148.684 108.022 148.534 108.179 148.437ZM107.251 144.001C107.407 143.904 107.654 143.904 107.811 144.001L109.426 144.989C109.583 145.086 109.582 145.236 109.424 145.332C109.272 145.426 109.02 145.427 108.864 145.332L107.248 144.342C107.092 144.246 107.097 144.093 107.251 144.001ZM104.081 145.929C104.234 145.835 104.482 145.835 104.638 145.932L106.253 146.921C106.409 147.017 106.408 147.166 106.255 147.26C106.098 147.356 105.851 147.356 105.695 147.26L104.079 146.271C103.923 146.175 103.923 146.023 104.081 145.929ZM103.151 141.49C103.309 141.395 103.56 141.398 103.713 141.49L105.332 142.481C105.484 142.575 105.488 142.729 105.331 142.824C105.177 142.918 104.922 142.918 104.77 142.824L103.149 141.833C102.998 141.74 102.999 141.584 103.151 141.49ZM99.9816 143.419C100.133 143.326 100.384 143.329 100.538 143.421L102.158 144.414C102.31 144.506 102.313 144.66 102.16 144.753C102.003 144.849 101.751 144.846 101.598 144.753L99.9787 143.76C99.8273 143.667 99.8243 143.514 99.9816 143.419ZM98.2155 138.423C98.3718 138.326 98.6202 138.326 98.7725 138.42L100.392 139.411C100.544 139.505 100.547 139.659 100.39 139.754C100.236 139.847 99.9821 139.847 99.8303 139.754L98.2105 138.762C98.0567 138.669 98.0617 138.515 98.2155 138.423ZM95.0447 140.351C95.1985 140.257 95.4464 140.257 95.5987 140.351L97.2165 141.342C97.3703 141.436 97.3728 141.59 97.2195 141.682C97.0632 141.778 96.8113 141.775 96.6595 141.682L95.0397 140.69C94.8874 140.597 94.8894 140.445 95.0447 140.351ZM93.739 135.651C93.8973 135.556 94.1452 135.556 94.297 135.649L95.9168 136.641C96.0731 136.736 96.0716 136.887 95.9158 136.983C95.762 137.077 95.5096 137.079 95.3538 136.983L93.734 135.99C93.5837 135.899 93.5877 135.744 93.739 135.651ZM90.5706 137.58C90.7245 137.487 90.9724 137.487 91.1237 137.58L92.7434 138.572C92.8998 138.667 92.8993 138.818 92.7454 138.911C92.5891 139.008 92.3407 139.008 92.1844 138.911L90.5647 137.92C90.4134 137.826 90.4133 137.675 90.5706 137.58ZM89.8553 133.184C90.0126 133.089 90.2605 133.087 90.4153 133.184L92.0371 134.175C92.1889 134.269 92.1879 134.42 92.0301 134.517C91.8763 134.608 91.6264 134.612 91.4731 134.518L89.8534 133.526C89.6975 133.43 89.7015 133.277 89.8553 133.184ZM86.6855 135.111C86.8383 135.02 87.0862 135.018 87.2425 135.114L88.8623 136.108C89.0141 136.2 89.0131 136.351 88.8603 136.444C88.703 136.54 88.4551 136.541 88.3043 136.448L86.6825 135.455C86.5272 135.359 86.5282 135.208 86.6855 135.111ZM85.9826 131.781C85.9826 131.6 86.1041 131.376 86.2559 131.281C86.4057 131.19 86.5312 131.266 86.5322 131.447L86.5381 133.373C86.5381 133.553 86.4127 133.781 86.2639 133.872C86.1101 133.965 85.9886 133.888 85.9886 133.707L85.9826 131.781ZM85.9702 126.152C85.9702 125.967 86.0907 125.748 86.2435 125.654C86.3933 125.563 86.5187 125.633 86.5197 125.819L86.5247 127.74C86.5257 127.926 86.4003 128.148 86.2514 128.238C86.0976 128.332 85.9762 128.259 85.9752 128.074L85.9702 126.152ZM85.9577 120.52C85.9567 120.334 86.0782 120.115 86.231 120.021C86.3808 119.931 86.5063 120.001 86.5073 120.186L86.5123 122.112C86.5123 122.293 86.3878 122.516 86.239 122.606C86.0852 122.701 85.9637 122.627 85.9627 122.446L85.9577 120.52ZM85.9438 114.888C85.9438 114.707 86.0643 114.482 86.2181 114.388C86.3659 114.298 86.4934 114.373 86.4934 114.553L86.4993 116.479C86.4993 116.66 86.3739 116.887 86.2241 116.979C86.0702 117.071 85.9498 116.994 85.9498 116.813L85.9438 114.888ZM85.9314 109.254C85.9294 109.074 86.0508 108.853 86.2046 108.76C86.3535 108.669 86.4809 108.74 86.4809 108.92L86.4869 110.846C86.4869 111.033 86.3614 111.255 86.2116 111.346C86.0578 111.439 85.9373 111.367 85.9373 111.18L85.9314 109.254ZM85.9184 103.627C85.9164 103.441 86.0379 103.22 86.1917 103.127C86.3405 103.036 86.466 103.108 86.466 103.293L86.4719 105.213C86.4719 105.399 86.3485 105.623 86.1987 105.714C86.0449 105.807 85.9244 105.733 85.9224 105.547L85.9184 103.627ZM85.904 98.7537C85.904 98.568 86.0254 98.3473 86.1793 98.2539C86.3281 98.1632 86.4535 98.2345 86.4535 98.4201L86.4595 100.344C86.4595 100.525 86.3361 100.754 86.1862 100.845C86.0314 100.938 85.91 100.861 85.91 100.68L85.904 98.7537ZM85.8915 93.8806C85.8905 93.6996 86.011 93.4741 86.1648 93.3818C86.3146 93.29 86.4411 93.3656 86.4411 93.5465L86.4471 95.4723C86.4471 95.6532 86.3216 95.8803 86.1728 95.971C86.02 96.0643 85.8975 95.9873 85.8975 95.8063L85.8915 93.8806ZM85.8836 90.9337L85.8786 89.0121C85.8786 88.8265 85.9981 88.6067 86.1519 88.5134C86.3017 88.4227 86.4271 88.4924 86.4281 88.6781L86.4331 90.5996C86.4331 90.7853 86.3087 91.0076 86.1598 91.0984C86.006 91.1917 85.8846 91.1188 85.8836 90.9337Z" fill="#D0D2D8"/>
<path d="M143.126 179.566L143.025 179.505L143.032 181.966L143.133 182.026L145.138 180.804L143.126 179.566Z" fill="#30B5AB"/>
<path d="M75.3477 57.9886V58.5052L75.3546 58.5141L77.3517 59.7366V56.7661L75.3546 57.9886H75.3477Z" fill="#52CEC8"/>
<path opacity="0.8" d="M145.028 147.174L145.163 180.796L143.135 182.026L143 148.407L145.028 147.174Z" fill="#5257CE"/>
<path d="M155.851 169.829L155.856 174.345L145.165 180.848L145.16 176.331C145.16 175.912 145.439 175.403 145.783 175.194L155.226 169.45C155.57 169.24 155.851 169.409 155.851 169.829Z" fill="#212121"/>
<path d="M168.616 162.075L168.621 166.591L157.93 173.095L157.925 168.578C157.925 168.159 158.203 167.65 158.548 167.44L167.991 161.696C168.336 161.487 168.616 161.656 168.616 162.075Z" fill="#212121"/>
<path opacity="0.8" d="M77.3601 56.769L104.865 73.6887L102.86 74.9085L75.3516 57.9873L77.3601 56.769Z" fill="#9DA6F4"/>
<path opacity="0.8" d="M104.865 73.6885L145.029 147.174L143 148.407L102.86 74.9083L104.865 73.6885Z" fill="#7F89E5"/>
<path opacity="0.3" d="M75.3545 57.9888V58.5143L77.3516 59.7367L81.4259 62.2284L81.729 136.427L143.01 174.126L143.025 179.505L143.032 181.966L143.133 182.027L143.126 179.567L143.003 148.407L102.859 74.9094L77.3516 59.2202L75.3545 57.9888Z" fill="#7F83E5"/>
<path d="M181.892 171.73L176.68 174.901L176.706 184.054C176.706 184.4 176.482 184.815 176.195 184.988L148.353 201.869C148.073 202.041 147.842 201.93 147.841 201.624L147.833 198.597L141.254 202.612V224.697L185.952 197.556V172.307L181.892 171.73ZM181.315 174.561L183.885 174.93L183.89 176.719L178.747 179.847L178.737 176.13L181.315 174.561ZM143.286 203.842L145.791 202.318L145.793 202.87C145.797 204.542 146.951 205.202 148.36 204.345L150.796 202.864L150.811 208.656L143.311 213.217L143.286 203.842ZM143.332 220.976L143.318 215.692L150.818 211.131L150.832 216.413L143.332 220.976ZM152.845 201.617L162.237 195.928L162.258 209.488L152.881 215.168L152.845 201.617ZM164.308 208.246L164.287 194.745H164.19L173.924 188.85L173.96 202.399L164.308 208.246ZM175.968 187.606L176.203 187.464C177.617 186.603 178.759 184.519 178.754 182.807L178.753 182.322L183.896 179.194L183.921 188.569L175.984 193.397L175.968 187.606ZM176.004 201.156L175.99 195.873L183.927 191.045L183.942 196.327L176.004 201.156Z" fill="#DEDFE4"/>
<path d="M84.1821 11.1582L39.533 38.2972L57.7407 49.3923L64.3432 45.3772L61.7219 43.8563C61.47 43.7021 61.4894 43.4393 61.7752 43.2657L89.7682 26.3834C90.0484 26.2129 90.3566 26.2129 90.6403 26.3865L98.2837 30.9853L103.49 27.8172L105.014 23.8461L84.1821 11.1582ZM84.1697 13.6456L88.5009 16.2988L80.5628 21.1258L76.2316 18.4742L84.1697 13.6456ZM43.56 38.294L51.0595 33.7313L55.3927 36.3845L47.8921 40.9461L43.56 38.294ZM59.7442 42.0218C58.3315 42.8808 58.3007 44.2622 59.6721 45.1023L60.126 45.3798L57.6217 46.9022L49.9276 42.1922L57.4271 37.629L62.1794 40.5392L59.7442 42.0218ZM53.1034 32.4879L63.0694 26.4515L74.1897 33.2599L64.2247 39.2957L53.1034 32.4879ZM76.2466 32.0143L65.1257 25.206L74.1868 19.7177L85.3081 26.526L76.2466 32.0143ZM92.6892 25.1399C91.2854 24.2793 88.9946 24.2824 87.5869 25.1399L87.3515 25.2825L82.5992 22.3724L90.5373 17.5438L98.2304 22.2549L93.0879 25.3832L92.6892 25.1399ZM100.747 26.9262L98.1697 28.4948L95.1188 26.6267L100.262 23.4984L101.731 24.3978L100.747 26.9262Z" fill="#F4F4F4"/>
<path d="M113.772 37.654L101.751 30.2939L98.7511 32.1263L93.5956 28.9702L66.7928 45.2049L71.6695 48.1906L69.6152 49.4398L64.7395 46.4541L57.3679 50.9387L51.9625 47.6279L49.0097 49.4235C46.0997 51.1935 46.0843 54.0728 48.9759 55.8428L65.1447 65.7422C68.0323 67.5111 72.7492 67.5111 75.6602 65.7406L81.4295 62.2315L74.7503 58.1419L102.59 41.2684L109.27 45.3581L113.746 42.6351C116 41.2632 116.013 39.0264 113.772 37.654ZM77.3487 62.2336L73.6278 64.4966C71.8458 65.5801 68.9601 65.577 67.1935 64.4966L51.0237 54.5961C49.2541 53.5132 49.2591 51.75 51.0401 50.6665L51.9431 50.1174L55.3185 52.1842L69.8825 61.1008L72.7009 59.3869L77.3487 62.2336ZM72.7149 56.8948L69.8965 58.6087L59.4033 52.1847L64.726 48.9468L69.5968 51.9299L75.7488 48.189L70.8771 45.2049L73.1046 43.8503L83.5978 50.2752L72.7149 56.8948ZM75.154 42.6031L81.7456 38.621L92.2392 45.0455L85.6476 49.0286L75.154 42.6031ZM94.2985 43.8015L83.8054 37.3771L90.0614 33.5974L90.6428 33.9519L100.555 40.0213L94.2985 43.8015ZM111.714 41.3906L109.287 42.8669L104.639 40.0208L97.2653 35.5069L101.735 32.7866L111.721 38.9006C112.842 39.5876 112.841 40.7052 111.714 41.3906Z" fill="#F4F4F4"/>
<defs>
<linearGradient id="paint0_linear_1396_1678" x1="143.436" y1="135.102" x2="140.322" y2="140.593" gradientUnits="userSpaceOnUse">
<stop stop-color="#DEDFE4"/>
<stop offset="1" stop-color="#F4F4F4"/>
</linearGradient>
<linearGradient id="paint1_linear_1396_1678" x1="111.99" y1="152.104" x2="108.653" y2="158.018" gradientUnits="userSpaceOnUse">
<stop stop-color="#F4F4F4"/>
<stop offset="1" stop-color="#DEDFE4"/>
</linearGradient>
<linearGradient id="paint2_linear_1396_1678" x1="65.1441" y1="106.023" x2="75.9581" y2="106.023" gradientUnits="userSpaceOnUse">
<stop offset="0.0542" stop-color="#C2C5CC"/>
<stop offset="1" stop-color="#DEDFE4"/>
</linearGradient>
<linearGradient id="paint3_linear_1396_1678" x1="98.9057" y1="166.451" x2="104.445" y2="157.617" gradientUnits="userSpaceOnUse">
<stop offset="0.0837" stop-color="#C2C5CC"/>
<stop offset="1" stop-color="#DEDFE4"/>
</linearGradient>
</defs>
</svg>
