<svg viewBox="0 0 180 220" fill="none" xmlns="http://www.w3.org/2000/svg">
<path opacity="0.0381" d="M4.4936 156.127C-0.494782 153.288 -0.504964 148.67 4.47056 145.81L49.8396 120.021C54.8151 117.162 62.8923 117.144 67.8801 119.983L175.648 181.295C180.637 184.133 180.646 188.751 175.67 191.61L130.27 217.402C125.295 220.261 117.218 220.277 112.229 217.438L4.4936 156.127Z" fill="#F7F7F7"/>
<path opacity="0.0762" d="M5.14828 155.957C0.282575 153.187 0.272401 148.681 5.12632 145.891L50.1568 120.297C55.0107 117.508 62.8907 117.49 67.7575 120.26L175.137 181.351C180.004 184.12 180.013 188.624 175.157 191.412L130.064 217.013C125.209 219.801 117.328 219.816 112.462 217.046L5.14828 155.957Z" fill="#F0F0F0"/>
<path opacity="0.1143" d="M5.80282 155.787C1.05818 153.087 1.04854 148.692 5.7814 145.972L50.4722 120.573C55.2045 117.853 62.888 117.837 67.6331 120.537L174.624 181.407C179.369 184.106 179.377 188.497 174.642 191.214L129.856 216.624C125.121 219.341 117.437 219.354 112.693 216.654L5.80282 155.787Z" fill="#E8E8E8"/>
<path opacity="0.1524" d="M6.45697 155.617C1.83447 152.985 1.82537 148.704 6.43662 146.053L50.7883 120.849C55.3996 118.199 62.8859 118.183 67.5089 120.814L174.111 181.463C178.734 184.093 178.742 188.37 174.128 191.017L129.648 216.235C125.034 218.882 117.547 218.894 112.925 216.262L6.45697 155.617Z" fill="#E0E0E0"/>
<path opacity="0.1905" d="M7.11157 155.447C2.61067 152.884 2.60264 148.715 7.09229 146.134L51.1054 121.124C55.5951 118.544 62.8848 118.528 67.3862 121.089L173.599 181.518C178.101 184.079 178.107 188.243 173.614 190.818L129.441 215.845C124.948 218.421 117.657 218.431 113.156 215.868L7.11157 155.447Z" fill="#D8D8D8"/>
<path opacity="0.2286" d="M7.76573 155.277C3.38697 152.783 3.37947 148.725 7.74752 146.215L51.4216 121.401C55.7902 118.89 62.8822 118.875 67.2615 121.367L173.086 181.574C177.466 184.065 177.473 188.116 173.1 190.621L129.233 215.457C124.86 217.962 117.767 217.971 113.388 215.476L7.76573 155.277Z" fill="#D1D1D1"/>
<path opacity="0.2667" d="M8.42029 155.107C4.16366 152.682 4.15563 148.737 8.40315 146.296L51.7381 121.676C55.9856 119.235 62.8805 119.221 67.1388 121.643L172.574 181.629C176.832 184.052 176.838 187.989 172.586 190.422L129.026 215.068C124.774 217.502 117.877 217.509 113.62 215.084L8.42029 155.107Z" fill="#C9C9C9"/>
<path opacity="0.3048" d="M9.07491 154.936C4.93989 152.58 4.93239 148.747 9.0583 146.376L52.0542 121.951C56.1801 119.58 62.8779 119.566 67.0145 121.92L172.061 181.684C176.198 184.037 176.203 187.861 172.072 190.224L128.819 214.678C124.688 217.041 117.987 217.047 113.852 214.69L9.07491 154.936Z" fill="#C1C1C1"/>
<path opacity="0.3429" d="M9.72951 154.767C5.71609 152.479 5.70966 148.759 9.71398 146.458L52.3707 122.228C56.3751 119.927 62.8762 119.912 66.8907 122.197L171.549 181.74C175.564 184.024 175.567 187.734 171.557 190.027L128.611 214.29C124.601 216.582 118.097 216.586 114.084 214.299L9.72951 154.767Z" fill="#BABABA"/>
<path opacity="0.381" d="M10.3836 154.597C6.49234 152.378 6.48591 148.77 10.3692 146.539L52.6868 122.504C56.5701 120.272 62.8741 120.259 66.7676 122.473L171.036 181.796C174.93 184.01 174.933 187.607 171.043 189.829L128.403 213.901C124.514 216.122 118.207 216.125 114.315 213.906L10.3836 154.597Z" fill="#B2B2B2"/>
<path opacity="0.419" d="M11.0382 154.426C7.26908 152.276 7.26265 148.782 11.0248 146.619L53.0034 122.779C56.7656 120.617 62.8725 120.604 66.6438 122.75L170.524 181.85C174.295 183.996 174.298 187.479 170.529 189.63L128.196 213.511C124.427 215.661 118.317 215.662 114.547 213.513L11.0382 154.426Z" fill="#AAAAAA"/>
<path opacity="0.4571" d="M11.6923 154.256C8.04479 152.175 8.03944 148.792 11.68 146.7L53.3195 123.055C56.9601 120.962 62.8699 120.95 66.5201 123.026L170.011 181.906C173.661 183.983 173.663 187.352 170.015 189.432L127.989 213.122C124.34 215.202 118.426 215.201 114.779 213.121L11.6923 154.256Z" fill="#A2A2A2"/>
<path opacity="0.4952" d="M12.3469 154.086C8.82153 152.074 8.81618 148.804 12.3357 146.781L53.6366 123.331C57.1556 121.309 62.8688 121.297 66.3968 123.303L169.5 181.961C173.028 183.969 173.029 187.225 169.501 189.234L127.781 212.733C124.254 214.743 118.536 214.741 115.011 212.728L12.3469 154.086Z" fill="#9B9B9B"/>
<path opacity="0.5333" d="M13.0016 153.916C9.59776 151.973 9.59294 148.815 12.9908 146.862L53.9521 123.607C57.35 121.654 62.8661 121.642 66.2726 123.58L168.987 182.017C172.393 183.955 172.393 187.098 168.987 189.036L127.573 212.344C124.167 214.282 118.646 214.278 115.242 212.335L13.0016 153.916Z" fill="#939393"/>
<path opacity="0.5714" d="M13.6555 153.746C10.3738 151.872 10.369 148.826 13.6453 146.943L54.2681 123.883C57.5444 122 62.8633 121.988 66.1487 123.857L168.474 182.073C171.759 183.941 171.759 186.971 168.472 188.838L127.366 211.955C124.08 213.822 118.756 213.817 115.474 211.943L13.6555 153.746Z" fill="#8B8B8B"/>
<path opacity="0.6095" d="M14.3101 153.576C11.1506 151.77 11.1463 148.838 14.301 147.024L54.5847 124.158C57.7399 122.345 62.8617 122.334 66.025 124.134L167.961 182.128C171.124 183.928 171.123 186.843 167.957 188.64L127.158 211.567C123.993 213.363 118.865 213.357 115.705 211.551L14.3101 153.576Z" fill="#848484"/>
<path opacity="0.6476" d="M14.9649 153.405C11.927 151.669 11.9233 148.848 14.9569 147.105L54.9015 124.434C57.9351 122.69 62.8597 122.68 65.9014 124.41L167.449 182.184C170.491 183.914 170.488 186.716 167.444 188.442L126.95 211.177C123.906 212.903 118.975 212.895 115.937 211.158L14.9649 153.405Z" fill="#7C7C7C"/>
<path opacity="0.6857" d="M15.6188 153.236C12.7031 151.568 12.6998 148.859 15.6119 147.186L55.2179 124.709C58.1299 123.035 62.8579 123.025 65.778 124.686L166.937 182.239C169.856 183.9 169.854 186.589 166.929 188.244L126.743 210.788C123.819 212.443 119.085 212.433 116.169 210.765L15.6188 153.236Z" fill="#747474"/>
<path opacity="0.7238" d="M16.2734 153.066C13.4792 151.467 13.4765 148.871 16.2675 147.267L55.5339 124.986C58.3248 123.382 62.8557 123.372 65.6542 124.964L166.424 182.295C169.223 183.887 169.219 186.462 166.416 188.047L126.536 210.399C123.733 211.983 119.196 211.972 116.401 210.373L16.2734 153.066Z" fill="#6C6C6C"/>
<path opacity="0.7619" d="M16.9281 152.895C14.256 151.365 14.2533 148.882 16.9227 147.348L55.8505 125.261C58.5199 123.727 62.8542 123.718 65.5305 125.24L165.912 182.35C168.588 183.873 168.584 186.334 165.901 187.848L126.329 210.01C123.646 211.523 119.306 211.51 116.633 209.98L16.9281 152.895Z" fill="#656565"/>
<path opacity="0.8" d="M17.5822 152.726L116.864 209.588C119.415 211.049 123.559 211.064 126.121 209.622L165.387 187.651C167.949 186.208 167.954 183.86 165.399 182.407L65.4068 125.518C62.8515 124.065 58.7149 124.073 56.1666 125.538L17.5779 147.429C15.0301 148.893 15.0317 151.265 17.5822 152.726Z" fill="#5D5D5D"/>
<path d="M60.0499 1.44336L80.3425 12.914L79.1559 16.5811L31.2708 37.045L15.0977 27.2756L60.0499 1.44336Z" fill="#8A8E96"/>
<path d="M77.3677 12.2827V17.0727L73.9398 18.3965L70.6421 15.1543L77.3677 12.2827Z" fill="#B3BAC2"/>
<path d="M66.9031 6.35596V14.1099L63.3354 15.5647L57.7085 11.2122L66.9031 6.35596Z" fill="#B3BAC2"/>
<path d="M60.0499 2.47607V8.75481L56.0906 11.2124L50.2703 7.36783L60.0499 2.47607Z" fill="#B3BAC2"/>
<path d="M25.1233 20.9747L37.4651 27.9175L37.3419 15.2222L25.1233 20.9747Z" fill="#B3BAC2"/>
<path d="M49.3067 8.51953L38.7134 13.9505L49.3067 21.2947V8.51953Z" fill="#B3BAC2"/>
<path d="M31.2708 26.3486V36.4146L22.7302 31.0572L31.2708 26.3486Z" fill="#B3BAC2"/>
<path d="M24.4177 22.4683V29.4188L20.0137 31.0569L14.4521 27.8429L24.4177 22.4683Z" fill="#B3BAC2"/>
<path d="M141.487 169.624L167.422 184.31L158.88 189.116L122.82 182.649C124.906 180.617 139.401 171.656 141.487 169.624Z" fill="#A1A7AF"/>
<path d="M141.164 164.19L167.406 179.051L167.422 184.31L137.756 167.51L141.164 164.19Z" fill="#8A8E96"/>
<path d="M146.49 164.748L167.399 176.588L158.857 181.394L140.231 170.847C142.317 168.813 144.404 166.78 146.49 164.748Z" fill="#A1A7AF"/>
<path d="M148.806 156.742L167.373 167.256L167.399 176.587L142.759 162.634L148.806 156.742Z" fill="#8A8E96"/>
<path d="M122.215 170.449L156.68 190.354L133.995 203.063L113.679 191.557C116.189 189.111 119.705 172.894 122.215 170.449Z" fill="#A1A7AF"/>
<path d="M154.133 157.299L167.366 164.792L161.831 167.906L150.078 161.25C151.43 159.934 152.781 158.617 154.133 157.299Z" fill="#A1A7AF"/>
<path d="M151.557 154.062L167.36 163.011L167.366 164.792L150.403 155.187L151.557 154.062Z" fill="#8A8E96"/>
<path d="M169.586 160.401L60.1679 98.4521L55.824 97.8789L165.216 159.826L169.586 160.401Z" fill="#D0D2D8"/>
<path d="M165.216 159.826L55.824 97.8789L50.2158 101.036L159.607 162.983L165.216 159.826Z" fill="#A8ACB5"/>
<path d="M112.063 193.131L131.79 204.302L123.719 208.844L106.149 198.893C108.121 196.973 110.092 195.052 112.063 193.131Z" fill="#A1A7AF"/>
<path d="M117.072 182.503L131.752 190.815L131.768 196.58L113.335 186.142L117.072 182.503Z" fill="#8A8E96"/>
<path d="M120.478 184.931L129.123 189.826C128.961 189.917 128.814 189.927 128.713 189.871C125.908 188.282 123.103 186.694 120.298 185.107C120.358 185.048 120.418 184.988 120.478 184.931Z" fill="#A8ACB5"/>
<path d="M138.625 166.664L156.64 176.867L156.68 190.353L124.123 171.551L138.625 166.664Z" fill="#8A8E96"/>
<path d="M126.041 173.716L144.057 183.92L144.097 197.406L111.541 178.604L126.041 173.716Z" fill="#8A8E96"/>
<path d="M111.74 187.697L131.775 199.044L131.791 204.301L108.333 191.017L111.74 187.697Z" fill="#8A8E96"/>
<path d="M117.067 188.254L131.768 196.58L123.696 201.12L111.153 194.017C113.124 192.097 115.096 190.176 117.067 188.254Z" fill="#A1A7AF"/>
<path d="M115.088 184.435L126.367 190.821C126.369 191.637 126.667 192.209 127.15 192.483C122.866 190.057 118.582 187.631 114.299 185.205L115.088 184.435Z" fill="#8A8E96"/>
<path d="M115.444 184.088L126.365 190.272L126.367 190.821L115.088 184.435L115.444 184.088Z" fill="#8A8E96"/>
<path d="M66.0755 120.433L159.086 173.024L129.123 189.826L36.2566 137.237L66.0755 120.433Z" fill="#A1A7AF"/>
<path d="M80.8425 16.5811V112.174L82.4828 111.246V12.6284L80.8425 16.5811Z" fill="#C2C5CC"/>
<path d="M67.014 15.1577L75.2396 19.7352V115.328L159.607 162.984L159.634 172.094C159.634 172.438 159.394 172.851 159.085 173.024L67.3681 121.083C67.3681 121.083 66.376 120.881 66.075 121.053V15.1546C66.3765 14.9844 66.7081 14.9844 67.014 15.1577Z" fill="#8A8E96"/>
<path d="M69.1792 18.2929L69.2387 19.4414L75.2395 22.267V19.7347L70.9111 17.3262L69.1792 18.2929Z" fill="#4B4D51"/>
<path d="M159.607 162.983L157.683 161.894L158.086 168.644L159.622 167.803L159.607 162.983Z" fill="#4B4D51"/>
<path d="M75.2395 19.7345V115.327L80.8423 112.174V16.5811L75.2395 19.7345Z" fill="#B3BAC2"/>
<path d="M66.0755 15.1543V121.052L36.2567 137.993L35.9497 31.9578L66.0755 15.1543Z" fill="#B3BAC2"/>
<path d="M35.7031 32.2817C35.8226 73.3795 35.9426 114.475 36.062 155.573C36.062 155.459 36.1435 155.341 36.309 155.249L35.9501 31.958C35.7867 32.0494 35.7031 32.1679 35.7031 32.2817Z" fill="#B3BAC2"/>
<path d="M33.6868 33.7863L34.1754 34.0625L34.5332 157.352L34.0468 157.077C33.3226 156.667 32.961 156.129 32.9599 155.585L32.6021 32.2944C32.6026 32.8384 32.9636 33.3755 33.6868 33.7863Z" fill="#757A82"/>
<path d="M12.0132 27.0127L31.6078 38.0563V139.769L121.483 190.565V212.548L12.0132 150.599V27.0127Z" fill="#B4B8BF"/>
<path d="M27.0002 35.46L27.6908 143.283L120.437 196.239L121.483 195.682V190.565L31.6077 139.77V38.0564L27.0002 35.46Z" fill="#4B4D51"/>
<path d="M38.7134 135.771L128.563 186.569L121.483 190.565L31.6079 139.77L38.7134 135.771Z" fill="#9098A0"/>
<path d="M38.7134 34.0596V135.771L31.6079 139.77V38.0566L38.7134 34.0596Z" fill="#A0A7AF"/>
<path d="M46.7256 66.4835L46.5965 36.8605L41.3489 33.8887L41.4908 66.4835H46.7256Z" fill="#8A8E96"/>
<path d="M79.457 20.3882L74.9314 21.9343L70.2297 19.0283L43.5317 34.579L47.6421 37.045L44.4681 39.6039L39.1251 37.045L31.2708 40.4354L25.9364 37.46L22.0076 39.7704V43.4756L41.7966 54.8351L48.2373 54.3287L54.4953 50.743L47.708 46.8744L66.4407 36.4144L74.2415 40.4349L92.7395 28.8338L79.457 20.3882Z" fill="#B3BAC2"/>
<path d="M153.41 168.708L62.1236 116.773L59.4966 118.25L137.362 177.676L153.41 168.708Z" fill="#A1A7AF"/>
<path d="M160.402 158.51L69.1159 106.575L64.3059 109.282L155.591 161.217L160.402 158.51Z" fill="#A1A7AF"/>
<path d="M135.157 178.917L43.8713 126.98L41.4719 128.33L132.758 180.265L135.157 178.917Z" fill="#A1A7AF"/>
<path d="M160.367 146.4L69.0801 94.4634L69.116 106.575L160.402 158.51L160.367 146.4Z" fill="#8A8E96"/>
<path d="M153.373 155.98L153.407 168.003L153.41 168.707L62.1236 116.773L62.1214 116.068L62.0872 104.045L153.373 155.98Z" fill="#8A8E96"/>
<path d="M144.409 160.989L144.447 173.717L53.1602 121.782L53.1586 121.078L53.1238 109.055L144.409 160.989Z" fill="#8A8E96"/>
<path d="M159.723 145.019C123.259 124.37 104.902 113.734 68.4377 93.0845C68.8331 93.3089 69.079 93.7861 69.08 94.4641L160.367 146.401C160.364 145.721 160.119 145.244 159.723 145.019Z" fill="#8A8E96"/>
<path d="M130.549 178.057L39.2634 126.123L39.28 132.036L130.566 183.971L130.549 178.057Z" fill="#8A8E96"/>
<path d="M135.119 166.189L43.8333 114.252L43.8713 126.98L135.157 178.917L135.119 166.189Z" fill="#8A8E96"/>
<path d="M118.23 195.012L26.9435 143.077L25.9685 143.626L117.254 195.561L118.23 195.012Z" fill="#A1A7AF"/>
<path d="M132.741 174.351L41.4553 122.416L34.8352 126.14L126.121 178.074L132.741 174.351Z" fill="#A1A7AF"/>
<path d="M126.121 178.074L34.8352 126.14L34.8523 132.054L126.139 183.99L126.121 178.074Z" fill="#8A8E96"/>
<path d="M118.218 190.919L26.9333 138.984L26.9435 143.077L118.23 195.013L118.218 190.919Z" fill="#8A8E96"/>
<path d="M126.139 183.99L34.8524 132.054L29.1248 135.277L120.411 187.212L126.139 183.99Z" fill="#A1A7AF"/>
<path d="M23.5 143.858C59.9647 164.508 78.3208 175.144 114.784 195.794C115.418 196.152 116.291 196.103 117.253 195.561L25.9685 143.626C25.0069 144.168 24.1321 144.217 23.5 143.858Z" fill="#A1A7AF"/>
<path d="M118.166 173.254L26.8818 121.318L26.9333 138.984L118.218 190.919L118.166 173.254Z" fill="#8A8E96"/>
<path d="M121.193 171.551L29.9085 119.615L26.8818 121.318L118.166 173.254L121.193 171.551Z" fill="#A1A7AF"/>
<path d="M80.2316 111.904L153.365 153.511L123.399 170.31L50.2703 128.704L80.2316 111.904Z" fill="#2E3033"/>
<path d="M121.177 165.913L29.8918 113.978L29.9085 119.615L121.193 171.551L121.177 165.913Z" fill="#8A8E96"/>
<path d="M162.614 159.739L162.572 145.159C162.564 142.434 160.58 141.34 158.152 142.704L153.343 145.412L153.366 153.512L123.399 170.311L123.376 162.211L117.169 165.702C114.041 167.461 111.503 171.746 111.513 175.246L111.569 194.859C111.579 198.366 114.135 199.784 117.262 198.025L120.438 196.239L120.418 189.681L128.351 185.217L128.334 179.303L130.55 178.057L130.567 183.971L159.1 168.081L159.082 161.829L162.614 159.739ZM117.254 195.561C115.342 196.638 113.776 195.768 113.77 193.622L113.712 174.009C113.706 171.868 115.261 169.242 117.174 168.166L121.177 165.913L121.193 171.552L118.166 173.254L118.218 190.92L118.23 195.014L117.254 195.561ZM132.759 180.265L132.741 174.351L126.121 178.075L126.139 183.99L120.411 187.212L120.374 174.484L123.406 172.778L135.119 166.189L135.156 178.917L132.759 180.265ZM137.324 164.949L144.42 160.983L144.442 173.719L137.362 177.676L137.324 164.949ZM146.648 172.486L146.626 159.75L153.373 155.98L153.407 168.003L153.41 168.708L146.648 172.486ZM155.566 152.274L155.549 146.638L158.16 145.168C159.373 144.486 160.363 145.035 160.367 146.4L160.403 158.51L155.592 161.217L155.566 152.274Z" fill="#DEDFE4"/>
<path d="M77.8028 56.383L77.6828 28.7295L67.0161 22.6883L66.3904 22.3354L66.5388 56.383H77.8028Z" fill="#8A8E96"/>
<path d="M68.876 60.9953L68.7561 33.3419L58.0893 27.3006L57.4636 26.9478L57.612 60.9953H68.876Z" fill="#8A8E96"/>
<path d="M90.7228 56.3829L90.6028 28.8474C90.6017 28.4016 90.3012 27.9553 89.7007 27.6144L78.9541 21.5288L79.1052 56.3829H90.7228Z" fill="#8A8E96"/>
<path d="M93.707 28.834C93.8179 67.3943 93.931 70.0044 94.0429 104.124L92.1996 105.182L91.8782 31.3297C93.099 30.6438 93.7092 29.7381 93.707 28.834Z" fill="#C2C5CC"/>
<path d="M94.0428 104.124C116.529 116.924 133.744 126.811 161.286 142.408C160.484 141.954 159.375 142.018 158.151 142.704L92.199 105.182L94.0428 104.124Z" fill="#DEDFE4"/>
<path d="M59.5432 63.8726L59.4345 38.9352L48.1421 32.54L45.7454 33.8884L50.9882 36.8586V63.8726H59.5432Z" fill="#8A8E96"/>
<path d="M44.4683 63.8725L44.367 40.5825L39.1252 37.6133L39.2393 63.8725H44.4683Z" fill="#8A8E96"/>
<path d="M91.878 31.3301L92.1989 105.182L87.382 107.885L87.0605 34.0404L91.878 31.3301Z" fill="#DEDFE4"/>
<path d="M92.199 105.182L158.152 142.704L153.342 145.412L87.3821 107.885L92.199 105.182Z" fill="url(#paint0_linear_1647_214)"/>
<path d="M87.0607 34.0404L87.3822 107.885L153.342 145.412L153.365 153.511L80.2306 111.903L79.8728 29.9697L87.0607 34.0404Z" fill="#4B4D51"/>
<path d="M79.8726 29.9697L80.2316 111.904L50.2702 128.704L49.9124 46.7649L79.8726 29.9697Z" fill="#2E3033"/>
<path d="M44.7366 63.8729L44.675 49.7118L29.0017 40.8366L25.3691 38.7788L25.4779 63.8729H44.7366Z" fill="#8A8E96"/>
<path d="M52.7655 63.8729L52.7092 50.8388L47.708 48.0059L47.7766 63.8729H52.7655Z" fill="#8A8E96"/>
<path d="M19.853 41.3047C19.8562 42.4542 20.6292 43.6015 22.1747 44.4775L39.5751 54.3309L39.9244 134.52L111.512 175.247L111.568 194.86C111.573 196.603 112.207 197.829 113.228 198.407C76.763 177.758 58.4069 167.122 21.9412 146.472C20.9212 145.895 20.288 144.667 20.2827 142.925C20.2827 142.924 19.9709 82.4025 19.853 41.3047Z" fill="#C2C5CC"/>
<path d="M57.1003 50.8359L57.4217 124.687L51.213 128.178L50.8916 54.3287L57.1003 50.8359Z" fill="#DEDFE4"/>
<path d="M57.4218 124.687L123.376 162.211L117.168 165.702L51.2131 128.178L57.4218 124.687Z" fill="url(#paint1_linear_1647_214)"/>
<path d="M50.8917 54.3286L51.2131 128.178L39.925 134.518L39.5757 54.3297C42.6827 56.0909 47.7589 56.0909 50.8917 54.3286Z" fill="url(#paint2_linear_1647_214)"/>
<path d="M51.213 128.178L117.168 165.702C114.041 167.461 111.502 171.746 111.512 175.246L39.9243 134.519C39.9243 134.519 45.0338 129.406 51.213 128.178Z" fill="url(#paint3_linear_1647_214)"/>
<path d="M80.1504 111.975L153.096 153.457L150.938 154.672L77.99 113.187L80.1504 111.975Z" fill="#30B5AB"/>
<path d="M80.1506 111.975L80.1464 29.9951L77.988 31.2104L77.9902 113.187L80.1506 111.975Z" fill="#52CEC8"/>
<path opacity="0.8" d="M152.975 119.98L153.12 153.448L150.938 154.673L150.792 121.208L152.975 119.98Z" fill="#5257CE"/>
<path opacity="0.8" d="M80.1504 29.9951L109.752 46.8357L107.594 48.0514L77.99 31.2093L80.1504 29.9951Z" fill="#9DA6F4"/>
<path opacity="0.8" d="M109.752 46.8354L152.975 119.98L150.792 121.208L107.594 48.0512L109.752 46.8354Z" fill="#7F89E5"/>
<path opacity="0.3" d="M107.594 48.0516L150.792 121.208L150.938 154.673L77.99 113.188V31.2095L107.594 48.0516Z" fill="#7F83E5"/>
<path d="M82.3497 33.7176L77.7315 31.1138L66.2141 37.6118L70.8345 40.2155C71.2625 40.4578 71.8694 40.5068 72.1914 40.3257L82.5421 34.4828C82.8635 34.3017 82.7788 33.9598 82.3497 33.7176Z" fill="#212121"/>
<path d="M72.269 117.027L137.071 154.509L137.057 155.581L139.342 156.94L150.662 149.82L82.9497 111.475L82.7322 34.2642L74.812 38.7206L72.8021 39.8518L72.269 117.027Z" fill="#212121"/>
<path d="M72.4897 40.1662L72.6992 115.432L72.7046 117.253L73.3961 117.644L140.184 155.467L150.126 149.868L82.6379 111.649L82.4194 34.5781L74.5002 39.034L72.4897 40.1662ZM76.0955 42.2783C76.0976 42.4568 75.9626 42.6844 75.8014 42.7747C75.6359 42.8676 75.5062 42.7893 75.5041 42.6108L75.4998 40.6935C75.4998 40.5134 75.6284 40.2889 75.7939 40.197C75.9551 40.1057 76.0912 40.1809 76.0912 40.361L76.0955 42.2783ZM76.111 47.1272C76.111 47.3073 75.976 47.5349 75.8148 47.6252C75.6503 47.7182 75.5196 47.6414 75.5196 47.4613L75.5132 45.544C75.5132 45.3592 75.6439 45.1394 75.8073 45.046C75.9685 44.9562 76.1035 45.0267 76.1046 45.2115L76.111 47.1272ZM76.125 51.9736C76.126 52.1584 75.991 52.3813 75.8309 52.4711C75.6653 52.5645 75.5336 52.4919 75.5336 52.3056L75.5293 50.3945C75.5271 50.2097 75.6578 49.99 75.8234 49.8965C75.9835 49.8067 76.1185 49.8772 76.1185 50.062L76.125 51.9736ZM76.1384 56.8241C76.1394 57.0105 76.0055 57.2318 75.8443 57.3216C75.6787 57.415 75.548 57.3425 75.548 57.1561L75.5427 55.2393C75.5427 55.0592 75.6712 54.8405 75.8368 54.7476C75.9969 54.6578 76.1319 54.7282 76.1341 54.9073L76.1384 56.8241ZM76.1539 61.6746C76.1539 61.8547 76.0189 62.0808 75.8577 62.1711C75.6943 62.2655 75.5625 62.1872 75.5625 62.0071L75.5561 60.0919C75.5561 59.9118 75.6846 59.6873 75.8502 59.5939C76.0103 59.5036 76.1475 59.5777 76.1475 59.7578L76.1539 61.6746ZM76.1678 66.5251C76.1689 66.7052 76.0339 66.9271 75.8716 67.0169C75.7082 67.1098 75.5764 67.0372 75.5764 66.8571L75.57 64.9403C75.57 64.7555 75.6996 64.5373 75.8652 64.4439C76.0264 64.3536 76.1614 64.423 76.1614 64.6078L76.1678 66.5251ZM79.4248 40.4053C79.4259 40.5839 79.2963 40.8083 79.1307 40.9018C78.9695 40.9931 78.8377 40.9148 78.8377 40.7363L78.8313 38.8179C78.8313 38.6378 78.962 38.4149 79.1222 38.3246C79.2877 38.2317 79.4184 38.3084 79.4184 38.4885L79.4248 40.4053ZM79.4393 45.2558C79.4393 45.4359 79.3097 45.6588 79.1441 45.7538C78.9829 45.8436 78.8533 45.7653 78.8511 45.5852L78.8468 43.6695C78.8468 43.4847 78.9754 43.2649 79.1366 43.1746C79.3011 43.0817 79.4318 43.1537 79.4329 43.3385L79.4393 45.2558ZM79.4527 50.1006C79.4527 50.2865 79.3231 50.5052 79.1586 50.5986C78.9963 50.6884 78.8666 50.6164 78.8666 50.4316L78.8602 48.52C78.8602 48.3341 78.9888 48.1154 79.15 48.0251C79.3145 47.9306 79.4473 48.0048 79.4473 48.189L79.4527 50.1006ZM79.4666 54.9511C79.4666 55.137 79.3381 55.3557 79.1725 55.4491C79.0123 55.5389 78.8806 55.4669 78.8806 55.2821L78.8741 53.3647C78.8741 53.1847 79.0038 52.9659 79.165 52.8756C79.3306 52.7827 79.4613 52.8553 79.4623 53.0338L79.4666 54.9511ZM79.4822 59.8032C79.4822 59.9833 79.3514 60.2067 79.1859 60.2997C79.0257 60.3894 78.895 60.3127 78.894 60.1326L78.8886 58.2153C78.8886 58.0367 79.0182 57.8107 79.1784 57.7204C79.3439 57.6275 79.4747 57.7058 79.4757 57.8859L79.4822 59.8032ZM79.4939 64.6522C79.4961 64.8323 79.3654 65.0526 79.202 65.1455C79.0407 65.2358 78.909 65.1632 78.909 64.9831L78.9025 63.0658C78.9015 62.881 79.0322 62.6612 79.1923 62.5709C79.3579 62.478 79.4897 62.55 79.4897 62.7364L79.4939 64.6522ZM79.5095 69.498C79.5095 69.6828 79.3809 69.9026 79.2132 69.996C79.0531 70.0863 78.9224 70.0137 78.9224 69.8279L78.9159 67.9163C78.9159 67.7315 79.0466 67.5117 79.2079 67.4214C79.3734 67.3285 79.503 67.4006 79.5052 67.5854L79.5095 69.498ZM79.5229 74.3485C79.5239 74.5286 79.3943 74.7531 79.2288 74.8449C79.0675 74.9363 78.9379 74.858 78.9357 74.6795L78.9315 72.7611C78.9304 72.581 79.06 72.3581 79.2213 72.2678C79.3868 72.1749 79.5164 72.2516 79.5186 72.4317L79.5229 74.3485ZM79.5368 79.199C79.5379 79.3791 79.4082 79.6036 79.2427 79.697C79.0815 79.7873 78.9518 79.709 78.9518 79.53L78.9454 77.6132C78.9443 77.4273 79.074 77.2086 79.2352 77.1183C79.4007 77.0254 79.5325 77.0974 79.5325 77.2822L79.5368 79.199ZM79.5513 84.0438C79.5513 84.2296 79.4227 84.4484 79.2561 84.5418C79.0948 84.6321 78.9652 84.5596 78.9652 84.3748L78.9588 82.4637C78.9588 82.2778 79.0895 82.0591 79.2497 81.9672C79.4152 81.8759 79.5459 81.9479 79.5459 82.1327L79.5513 84.0438ZM79.5657 89.6507C79.5668 89.8366 79.4361 90.0553 79.2706 90.1487C79.1104 90.239 78.9797 90.1665 78.9786 89.9817L78.9743 88.0648C78.9722 87.8848 79.1029 87.666 79.2631 87.5757C79.4286 87.4828 79.5593 87.5549 79.5593 87.7349L79.5657 89.6507ZM79.5807 95.2587C79.5807 95.4388 79.45 95.6622 79.2845 95.7551C79.1243 95.8454 78.9936 95.7682 78.9925 95.5881L78.9882 93.6712C78.9861 93.4911 79.1168 93.2667 79.277 93.1764C79.4425 93.0835 79.5743 93.1618 79.5743 93.3419L79.5807 95.2587ZM79.5941 100.864C79.5941 101.044 79.4634 101.264 79.3 101.357C79.1377 101.447 79.007 101.375 79.007 101.194L79.0016 99.2771C79.0016 99.0923 79.1313 98.8726 79.2904 98.7822C79.4559 98.6893 79.5877 98.7614 79.5877 98.9462L79.5941 100.864ZM79.608 106.466C79.6102 106.651 79.4795 106.871 79.3139 106.962C79.1527 107.054 79.0209 106.981 79.0209 106.796L79.0156 104.885C79.0156 104.7 79.1452 104.48 79.3064 104.39C79.472 104.297 79.6016 104.369 79.6016 104.554L79.608 106.466ZM79.6236 112.073C79.6236 112.254 79.4929 112.478 79.3273 112.57C79.1661 112.661 79.0365 112.584 79.0343 112.404L79.03 110.486C79.03 110.307 79.1586 110.083 79.3198 109.992C79.4854 109.899 79.615 109.976 79.6171 110.156L79.6236 112.073ZM142.683 149.496C142.852 149.402 143.118 149.402 143.287 149.496L145.03 150.485C145.194 150.576 145.197 150.729 145.028 150.824C144.863 150.917 144.588 150.917 144.425 150.824L142.682 149.837C142.512 149.741 142.518 149.589 142.683 149.496ZM139.271 151.417C139.436 151.323 139.703 151.323 139.871 151.418L141.614 152.406C141.777 152.499 141.781 152.65 141.616 152.743C141.447 152.839 141.177 152.836 141.012 152.743L139.269 151.756C139.101 151.66 139.102 151.511 139.271 151.417ZM138.272 146.999C138.441 146.904 138.711 146.905 138.875 146.999L140.618 147.985C140.782 148.079 140.786 148.231 140.616 148.327C140.452 148.42 140.177 148.42 140.013 148.327L138.269 147.338C138.106 147.246 138.107 147.092 138.272 146.999ZM134.861 148.919C135.026 148.826 135.296 148.827 135.459 148.92L137.203 149.907C137.367 150 137.37 150.153 137.205 150.246C137.037 150.342 136.766 150.339 136.602 150.246L134.858 149.259C134.695 149.165 134.691 149.013 134.861 148.919ZM133.865 144.503C134.034 144.408 134.301 144.408 134.464 144.501L136.207 145.488C136.375 145.583 136.375 145.733 136.205 145.829C136.041 145.921 135.771 145.924 135.602 145.829L133.858 144.841C133.694 144.747 133.7 144.595 133.865 144.503ZM130.454 146.422C130.619 146.329 130.885 146.329 131.049 146.422L132.792 147.409C132.96 147.504 132.96 147.654 132.794 147.747C132.626 147.842 132.359 147.842 132.191 147.747L130.447 146.76C130.283 146.668 130.284 146.517 130.454 146.422ZM129.454 142.005C129.622 141.91 129.889 141.909 130.057 142.005L131.8 142.991C131.965 143.085 131.964 143.235 131.794 143.33C131.629 143.422 131.359 143.426 131.195 143.333L129.452 142.346C129.284 142.25 129.289 142.096 129.454 142.005ZM126.043 143.923C126.208 143.832 126.473 143.83 126.642 143.926L128.385 144.913C128.549 145.006 128.548 145.157 128.383 145.25C128.214 145.345 127.946 145.345 127.784 145.252L126.04 144.265C125.873 144.17 125.873 144.02 126.043 143.923ZM125.042 139.507C125.212 139.411 125.483 139.414 125.646 139.505L127.389 140.494C127.553 140.587 127.555 140.739 127.388 140.835C127.222 140.928 126.947 140.927 126.783 140.835L125.04 139.847C124.877 139.755 124.877 139.599 125.042 139.507ZM121.632 141.426C121.796 141.332 122.067 141.335 122.231 141.427L123.973 142.415C124.138 142.509 124.141 142.661 123.976 142.754C123.808 142.85 123.536 142.847 123.373 142.754L121.629 141.767C121.465 141.674 121.462 141.52 121.632 141.426ZM120.636 137.011C120.805 136.915 121.072 136.915 121.235 137.008L122.978 137.996C123.143 138.09 123.146 138.242 122.976 138.338C122.812 138.429 122.536 138.429 122.373 138.336L120.63 137.349C120.466 137.256 120.47 137.104 120.636 137.011ZM117.224 138.93C117.389 138.837 117.656 138.838 117.819 138.93L119.562 139.918C119.726 140.011 119.729 140.164 119.565 140.256C119.396 140.353 119.125 140.349 118.961 140.256L117.218 139.269C117.055 139.176 117.056 139.026 117.224 138.93ZM116.224 134.513C116.394 134.417 116.66 134.417 116.824 134.51L118.567 135.499C118.735 135.593 118.734 135.744 118.564 135.838C118.4 135.932 118.13 135.934 117.961 135.838L116.219 134.852C116.055 134.759 116.06 134.607 116.224 134.513ZM112.813 136.432C112.978 136.339 113.245 136.339 113.408 136.432L115.151 137.42C115.319 137.515 115.318 137.666 115.153 137.758C114.984 137.854 114.718 137.854 114.55 137.759L112.808 136.772C112.643 136.679 112.644 136.528 112.813 136.432ZM111.813 132.016C111.983 131.919 112.249 131.919 112.417 132.016L114.161 133.003C114.324 133.096 114.327 133.248 114.158 133.343C113.994 133.435 113.719 133.435 113.555 133.343L111.812 132.355C111.644 132.261 111.649 132.107 111.813 132.016ZM108.403 133.934C108.567 133.841 108.833 133.841 109.001 133.938L110.745 134.925C110.909 135.018 110.912 135.17 110.747 135.262C110.578 135.357 110.308 135.356 110.144 135.262L108.401 134.276C108.232 134.179 108.232 134.029 108.403 133.934ZM107.402 129.517C107.57 129.422 107.842 129.425 108.006 129.517L109.749 130.505C109.913 130.598 109.917 130.751 109.747 130.845C109.582 130.938 109.308 130.938 109.143 130.845L107.4 129.858C107.237 129.765 107.237 129.61 107.402 129.517ZM103.991 131.437C104.156 131.343 104.427 131.346 104.59 131.438L106.334 132.426C106.497 132.52 106.5 132.672 106.335 132.765C106.167 132.859 105.896 132.856 105.732 132.765L103.989 131.776C103.826 131.685 103.822 131.531 103.991 131.437ZM102.995 127.022C103.165 126.925 103.431 126.925 103.594 127.019L105.338 128.007C105.506 128.102 105.506 128.252 105.337 128.347C105.171 128.44 104.901 128.441 104.733 128.347L102.989 127.36C102.826 127.267 102.83 127.115 102.995 127.022ZM99.5835 128.94C99.7491 128.847 100.015 128.847 100.179 128.94L101.923 129.929C102.091 130.023 102.091 130.174 101.925 130.265C101.757 130.362 101.489 130.362 101.321 130.265L99.5776 129.279C99.4148 129.186 99.4148 129.037 99.5835 128.94ZM98.585 124.524C98.7537 124.428 99.0194 124.428 99.1877 124.524L100.927 125.508C101.095 125.604 101.094 125.753 100.924 125.849C100.76 125.942 100.489 125.944 100.322 125.849L98.5823 124.864C98.4146 124.768 98.42 124.616 98.585 124.524ZM95.1742 126.443C95.3376 126.35 95.6044 126.35 95.7726 126.446L97.5104 127.431C97.6791 127.526 97.6781 127.675 97.5136 127.768C97.3443 127.864 97.0781 127.864 96.911 127.768L95.171 126.784C95.0039 126.688 95.0039 126.538 95.1742 126.443ZM94.173 122.025C94.3423 121.93 94.6123 121.933 94.7778 122.025L96.5199 123.012C96.6833 123.105 96.6876 123.259 96.5188 123.353C96.3533 123.446 96.0785 123.446 95.9151 123.353L94.1709 122.366C94.0075 122.274 94.0086 122.118 94.173 122.025ZM90.7623 123.945C90.9257 123.852 91.1956 123.855 91.3606 123.947L93.1049 124.935C93.2682 125.026 93.2715 125.18 93.107 125.273C92.9377 125.368 92.6667 125.365 92.5022 125.273L90.7591 124.285C90.5957 124.192 90.5924 124.04 90.7623 123.945ZM88.8605 118.973C89.0293 118.876 89.2961 118.876 89.46 118.969L91.2031 119.957C91.3665 120.049 91.3692 120.203 91.201 120.297C91.0355 120.39 90.7617 120.39 90.5983 120.297L88.8552 119.31C88.6902 119.217 88.6956 119.064 88.8605 118.973ZM85.4487 120.891C85.6142 120.797 85.881 120.797 86.0449 120.891L87.7859 121.878C87.9515 121.971 87.9542 122.124 87.7892 122.216C87.621 122.312 87.3499 122.309 87.1865 122.216L85.4434 121.229C85.2794 121.136 85.2816 120.985 85.4487 120.891ZM84.0436 116.213C84.2139 116.118 84.4807 116.118 84.6441 116.212L86.3872 117.198C86.5555 117.293 86.5539 117.444 86.3862 117.539C86.2206 117.633 85.9491 117.634 85.7814 117.539L84.0382 116.551C83.8765 116.46 83.8807 116.306 84.0436 116.213ZM80.6339 118.133C80.7994 118.04 81.0662 118.04 81.2291 118.133L82.9722 119.12C83.1404 119.215 83.1399 119.366 82.9743 119.458C82.8061 119.555 82.5388 119.555 82.3706 119.458L80.6275 118.471C80.4646 118.379 80.4646 118.228 80.6339 118.133ZM79.8641 113.758C80.0334 113.663 80.3002 113.661 80.4668 113.758L82.2121 114.744C82.3754 114.838 82.3744 114.988 82.2046 115.084C82.039 115.175 81.7701 115.179 81.6051 115.085L79.862 114.099C79.6948 114.003 79.6986 113.851 79.8641 113.758ZM76.4533 115.676C76.6178 115.585 76.8846 115.583 77.0528 115.679L78.7959 116.668C78.9593 116.759 78.9582 116.91 78.7938 117.003C78.624 117.098 78.3577 117.1 78.1954 117.006L76.4501 116.018C76.283 115.923 76.2835 115.773 76.4533 115.676ZM75.6969 112.361C75.6969 112.181 75.8277 111.958 75.991 111.863C76.1523 111.773 76.2873 111.849 76.2884 112.028L76.2948 113.946C76.2948 114.125 76.1598 114.352 75.9996 114.442C75.8341 114.535 75.7034 114.458 75.7034 114.278L75.6969 112.361ZM75.683 106.759C75.683 106.574 75.8127 106.356 75.9771 106.263C76.1384 106.172 76.2734 106.242 76.2744 106.427L76.2798 108.339C76.2809 108.524 76.1459 108.745 75.9857 108.835C75.8202 108.929 75.6894 108.856 75.6884 108.672L75.683 106.759ZM75.6696 101.152C75.6685 100.967 75.7993 100.749 75.9637 100.656C76.125 100.566 76.26 100.635 76.261 100.82L76.2664 102.737C76.2664 102.917 76.1325 103.139 75.9723 103.229C75.8068 103.323 75.6761 103.249 75.675 103.069L75.6696 101.152ZM75.6552 95.5468C75.6552 95.3667 75.7848 95.1423 75.9503 95.0488C76.1094 94.959 76.2466 95.0342 76.2466 95.2127L76.253 97.1301C76.253 97.3102 76.118 97.5362 75.9568 97.6281C75.7912 97.7194 75.6616 97.6427 75.6616 97.4626L75.6552 95.5468ZM75.6412 89.9383C75.6391 89.7598 75.7698 89.5395 75.9353 89.4466C76.0955 89.3563 76.2326 89.4273 76.2326 89.6058L76.2391 91.5232C76.2391 91.709 76.1041 91.9309 75.9428 92.0212C75.7773 92.1141 75.6477 92.042 75.6477 91.8557L75.6412 89.9383ZM75.6278 84.3377C75.6257 84.1529 75.7564 83.9331 75.9219 83.8402C76.0821 83.7499 76.2171 83.8209 76.2171 84.0057L76.2235 85.9168C76.2235 86.1016 76.0907 86.3245 75.9294 86.4148C75.7639 86.5077 75.6343 86.4341 75.6321 86.2493L75.6278 84.3377ZM75.6123 79.4872C75.6123 79.3024 75.743 79.0826 75.9085 78.9897C76.0687 78.8994 76.2037 78.9704 76.2037 79.1552L76.2101 81.0704C76.2101 81.2505 76.0773 81.4781 75.916 81.5684C75.7494 81.6614 75.6187 81.5846 75.6187 81.4045L75.6123 79.4872ZM75.5984 74.6367C75.5973 74.4566 75.7269 74.2321 75.8925 74.1402C76.0537 74.0489 76.1898 74.1241 76.1898 74.3041L76.1962 76.221C76.1962 76.4011 76.0612 76.6271 75.901 76.7174C75.7366 76.8103 75.6048 76.7336 75.6048 76.5535L75.5984 74.6367ZM75.5903 71.7035L75.585 69.7908C75.585 69.6061 75.7135 69.3873 75.8791 69.2944C76.0403 69.2041 76.1753 69.2735 76.1764 69.4583L76.1817 71.371C76.1817 71.5558 76.0478 71.7771 75.8877 71.8674C75.7221 71.9603 75.5909 71.8878 75.5903 71.7035Z" fill="#D0D2D8"/>
<path d="M66.4551 119.677L139.401 161.159L137.242 162.374L64.2947 120.889L66.4551 119.677Z" fill="#30B5AB"/>
<path d="M66.4553 119.677L66.451 37.6968L64.2927 38.912L64.2949 120.889L66.4553 119.677Z" fill="#52CEC8"/>
<path opacity="0.8" d="M139.279 127.682L139.425 161.15L137.242 162.374L137.097 128.91L139.279 127.682Z" fill="#5257CE"/>
<path opacity="0.8" d="M66.4551 37.6968L96.0565 54.5373L93.8977 55.7531L64.2947 38.9105L66.4551 37.6968Z" fill="#9DA6F4"/>
<path opacity="0.8" d="M96.0568 54.5371L139.279 127.682L137.097 128.909L93.8979 55.7529L96.0568 54.5371Z" fill="#7F89E5"/>
<path opacity="0.3" d="M93.8977 55.7533L137.097 128.91L137.242 162.374L64.2947 120.889V38.9106L93.8977 55.7533Z" fill="#7F83E5"/>
<path d="M68.6542 41.4192L64.036 38.8154L52.5186 45.3134L57.1389 47.9172C57.5669 48.1594 58.1739 48.2085 58.4958 48.0273L68.8465 42.1845C69.1679 42.0033 69.0833 41.6614 68.6542 41.4192Z" fill="#212121"/>
<path d="M58.5735 124.728L123.376 162.21L123.361 163.282L125.646 164.641L136.967 157.522L69.2547 119.176L69.0372 41.9653L61.117 46.4217L59.107 47.5535L58.5735 124.728Z" fill="#212121"/>
<path d="M58.7942 47.8679L59.0036 123.134L59.009 124.955L59.7006 125.346L126.489 163.169L136.43 157.57L68.9418 119.351L68.7233 42.2803L60.8041 46.7361L58.7942 47.8679ZM62.3994 49.9799C62.4016 50.1585 62.2666 50.386 62.1053 50.4764C61.9398 50.5693 61.8101 50.491 61.808 50.3124L61.8037 48.3951C61.8037 48.215 61.9323 47.9905 62.0978 47.8987C62.2591 47.8073 62.3951 47.8825 62.3951 48.0626L62.3994 49.9799ZM62.4155 54.8289C62.4155 55.009 62.2805 55.2366 62.1192 55.3269C61.9548 55.4198 61.8241 55.3431 61.8241 55.163L61.8177 53.2456C61.8177 53.0608 61.9484 52.8411 62.1117 52.7476C62.273 52.6578 62.408 52.7283 62.4091 52.9131L62.4155 54.8289ZM62.4289 59.6752C62.4299 59.86 62.295 60.0829 62.1348 60.1727C61.9693 60.2661 61.8375 60.1936 61.8375 60.0072L61.8332 58.0961C61.831 57.9113 61.9617 57.6916 62.1273 57.5981C62.2874 57.5084 62.4224 57.5788 62.4224 57.7636L62.4289 59.6752ZM62.4428 64.5257C62.4439 64.7121 62.31 64.9334 62.1487 65.0232C61.9832 65.1167 61.8525 65.0441 61.8525 64.8577L61.8471 62.9409C61.8471 62.7608 61.9757 62.5421 62.1412 62.4492C62.3014 62.3594 62.4364 62.4299 62.4385 62.6089L62.4428 64.5257ZM62.4583 69.3762C62.4583 69.5563 62.3233 69.7824 62.1621 69.8727C61.9987 69.9672 61.8669 69.8889 61.8669 69.7088L61.8605 67.7935C61.8605 67.6134 61.9891 67.389 62.1546 67.2955C62.3148 67.2052 62.4519 67.2793 62.4519 67.4594L62.4583 69.3762ZM62.4717 74.2268C62.4728 74.4069 62.3378 74.6287 62.1755 74.7185C62.0121 74.8114 61.8803 74.7394 61.8803 74.5588L61.8739 72.642C61.8739 72.4572 62.0035 72.239 62.1691 72.1455C62.3303 72.0552 62.4653 72.1252 62.4653 72.3094L62.4717 74.2268ZM65.7288 48.1069C65.7298 48.2855 65.6002 48.5099 65.4347 48.6034C65.2734 48.6947 65.1416 48.6164 65.1416 48.4379L65.1352 46.5195C65.1352 46.3394 65.2659 46.1165 65.4261 46.0262C65.5916 45.9333 65.7223 46.01 65.7223 46.1901L65.7288 48.1069ZM65.7438 52.9575C65.7438 53.1376 65.6141 53.3605 65.4486 53.4555C65.2873 53.5453 65.1577 53.467 65.1556 53.2869L65.1513 51.3711C65.1513 51.1863 65.2798 50.9665 65.4411 50.8762C65.6055 50.7833 65.7362 50.8553 65.7373 51.0401L65.7438 52.9575ZM65.7571 57.8022C65.7571 57.9881 65.6275 58.2068 65.463 58.3002C65.3007 58.39 65.1711 58.318 65.1711 58.1332L65.1647 56.2216C65.1647 56.0358 65.2932 55.817 65.4545 55.7267C65.6189 55.6322 65.7518 55.7058 65.7518 55.8906L65.7571 57.8022ZM65.7705 62.6528C65.7705 62.8386 65.642 63.0573 65.4764 63.1508C65.3163 63.2405 65.1845 63.1685 65.1845 62.9837L65.1781 61.0664C65.1781 60.8863 65.3077 60.6676 65.4689 60.5773C65.6345 60.4843 65.7652 60.5564 65.7662 60.7354L65.7705 62.6528ZM65.7866 67.5048C65.7866 67.6849 65.6559 67.9078 65.4904 68.0013C65.3302 68.0911 65.1995 68.0143 65.1984 67.8342L65.1931 65.9169C65.1931 65.7384 65.3227 65.5123 65.4829 65.422C65.6484 65.3291 65.7791 65.4074 65.7802 65.5875L65.7866 67.5048ZM65.7979 72.3538C65.8 72.5339 65.6693 72.7542 65.5059 72.8471C65.3447 72.9374 65.2129 72.8648 65.2129 72.6848L65.2064 70.7674C65.2054 70.5826 65.3361 70.3629 65.4963 70.2725C65.6618 70.1796 65.7936 70.2517 65.7936 70.438L65.7979 72.3538ZM65.8139 77.1996C65.8139 77.3844 65.6854 77.6042 65.5177 77.6976C65.3575 77.7879 65.2268 77.7154 65.2268 77.5295L65.2204 75.6179C65.2204 75.4331 65.3511 75.2134 65.5123 75.1231C65.6779 75.0301 65.8075 75.1027 65.8096 75.287L65.8139 77.1996ZM65.8273 82.0501C65.8284 82.2302 65.6987 82.4547 65.5332 82.5466C65.372 82.6379 65.2423 82.5596 65.2402 82.3811L65.2359 80.4627C65.2348 80.2826 65.3645 80.0597 65.5257 79.9694C65.6913 79.8765 65.8209 79.9532 65.823 80.1333L65.8273 82.0501ZM65.8407 86.9007C65.8418 87.0807 65.7121 87.3052 65.5466 87.3987C65.3854 87.489 65.2557 87.4107 65.2557 87.2316L65.2493 85.3148C65.2482 85.129 65.3779 84.9102 65.5391 84.8199C65.7046 84.727 65.8364 84.799 65.8364 84.9838L65.8407 86.9007ZM65.8557 91.7454C65.8557 91.9313 65.7271 92.15 65.5605 92.2434C65.3993 92.3337 65.2697 92.2612 65.2697 92.0764L65.2632 90.1653C65.2632 89.9795 65.3939 89.7607 65.5541 89.6689C65.7196 89.5775 65.8504 89.6496 65.8504 89.8344L65.8557 91.7454ZM65.8702 97.3518C65.8712 97.5382 65.7405 97.7564 65.575 97.8498C65.4148 97.9401 65.2841 97.8676 65.2831 97.6828L65.2788 95.766C65.2766 95.5859 65.4073 95.3671 65.5675 95.2768C65.733 95.1839 65.8637 95.2565 65.8637 95.436L65.8702 97.3518ZM65.8846 102.96C65.8846 103.14 65.7539 103.363 65.5884 103.457C65.4282 103.547 65.2975 103.47 65.2964 103.29L65.2922 101.373C65.29 101.193 65.4207 100.968 65.5809 100.878C65.7464 100.785 65.8782 100.863 65.8782 101.043L65.8846 102.96ZM65.8986 108.566C65.8986 108.746 65.7679 108.966 65.6045 109.059C65.4422 109.149 65.3114 109.076 65.3114 108.896L65.3061 106.979C65.3061 106.794 65.4357 106.574 65.5948 106.484C65.7604 106.391 65.8921 106.463 65.8921 106.648L65.8986 108.566ZM65.912 114.168C65.9141 114.353 65.7834 114.572 65.6179 114.664C65.4566 114.756 65.3248 114.683 65.3248 114.497L65.3195 112.586C65.3195 112.401 65.4491 112.182 65.6104 112.091C65.7759 111.998 65.9055 112.071 65.9055 112.255L65.912 114.168ZM65.9275 119.775C65.9275 119.955 65.7968 120.179 65.6313 120.271C65.47 120.363 65.3404 120.286 65.3382 120.106L65.3339 118.187C65.3339 118.008 65.4625 117.784 65.6238 117.694C65.7893 117.601 65.9189 117.678 65.9211 117.858L65.9275 119.775ZM128.987 157.198C129.156 157.103 129.422 157.103 129.591 157.198L131.334 158.186C131.498 158.278 131.501 158.43 131.331 158.526C131.167 158.619 130.892 158.619 130.729 158.526L128.986 157.539C128.817 157.443 128.823 157.291 128.987 157.198ZM125.576 159.118C125.741 159.025 126.007 159.025 126.175 159.12L127.919 160.108C128.082 160.201 128.085 160.352 127.921 160.445C127.751 160.541 127.481 160.538 127.317 160.445L125.574 159.458C125.406 159.361 125.407 159.212 125.576 159.118ZM124.576 154.7C124.745 154.605 125.016 154.607 125.18 154.7L126.923 155.687C127.087 155.78 127.09 155.932 126.921 156.028C126.756 156.121 126.481 156.121 126.318 156.028L124.574 155.04C124.41 154.947 124.411 154.793 124.576 154.7ZM121.165 156.62C121.33 156.527 121.601 156.529 121.764 156.622L123.508 157.609C123.671 157.702 123.674 157.854 123.51 157.947C123.342 158.044 123.07 158.041 122.906 157.947L121.163 156.961C120.999 156.867 120.995 156.715 121.165 156.62ZM120.169 152.204C120.338 152.11 120.605 152.11 120.768 152.203L122.511 153.19C122.679 153.284 122.679 153.435 122.509 153.531C122.345 153.622 122.075 153.626 121.906 153.531L120.162 152.543C119.999 152.449 120.005 152.297 120.169 152.204ZM116.758 154.124C116.923 154.031 117.189 154.031 117.353 154.124L119.096 155.111C119.264 155.206 119.264 155.356 119.098 155.449C118.93 155.543 118.663 155.543 118.495 155.449L116.751 154.462C116.588 154.369 116.589 154.219 116.758 154.124ZM115.759 149.707C115.926 149.612 116.193 149.61 116.361 149.707L118.105 150.693C118.27 150.787 118.268 150.937 118.099 151.032C117.933 151.125 117.663 151.128 117.499 151.035L115.756 150.048C115.588 149.952 115.593 149.798 115.759 149.707ZM112.347 151.625C112.513 151.533 112.777 151.532 112.946 151.628L114.69 152.615C114.853 152.708 114.852 152.859 114.687 152.952C114.518 153.047 114.251 153.047 114.088 152.953L112.345 151.967C112.177 151.872 112.177 151.721 112.347 151.625ZM111.347 147.208C111.516 147.112 111.787 147.116 111.951 147.207L113.694 148.195C113.857 148.288 113.86 148.44 113.692 148.536C113.527 148.629 113.252 148.628 113.088 148.536L111.345 147.548C111.181 147.457 111.182 147.3 111.347 147.208ZM107.936 149.127C108.1 149.034 108.371 149.037 108.535 149.129L110.277 150.117C110.442 150.211 110.445 150.362 110.28 150.455C110.112 150.551 109.84 150.548 109.677 150.455L107.933 149.468C107.769 149.376 107.767 149.222 107.936 149.127ZM106.94 144.713C107.109 144.617 107.376 144.617 107.539 144.71L109.282 145.698C109.447 145.791 109.45 145.943 109.28 146.039C109.116 146.131 108.84 146.131 108.677 146.038L106.934 145.05C106.77 144.958 106.775 144.806 106.94 144.713ZM103.529 146.631C103.693 146.538 103.96 146.54 104.124 146.631L105.867 147.619C106.031 147.712 106.034 147.865 105.869 147.957C105.7 148.054 105.429 148.051 105.265 147.957L103.522 146.97C103.359 146.878 103.36 146.727 103.529 146.631ZM102.529 142.215C102.698 142.119 102.964 142.119 103.128 142.212L104.872 143.201C105.04 143.295 105.038 143.446 104.869 143.54C104.704 143.633 104.434 143.636 104.265 143.54L102.523 142.553C102.358 142.46 102.364 142.308 102.529 142.215ZM99.1175 144.134C99.2825 144.04 99.5498 144.04 99.7121 144.134L101.455 145.122C101.623 145.217 101.623 145.367 101.457 145.459C101.289 145.555 101.023 145.555 100.855 145.46L99.1121 144.473C98.9471 144.38 98.9482 144.229 99.1175 144.134ZM98.1173 139.718C98.2866 139.621 98.5534 139.621 98.7211 139.718L100.465 140.704C100.628 140.798 100.632 140.95 100.462 141.045C100.298 141.137 100.023 141.137 99.8594 141.045L98.1163 140.057C97.9481 139.962 97.9534 139.808 98.1173 139.718ZM94.7066 141.636C94.871 141.543 95.1367 141.543 95.3049 141.639L97.0492 142.626C97.2125 142.719 97.2158 142.871 97.0513 142.964C96.882 143.059 96.612 143.057 96.4476 142.964L94.7044 141.977C94.5362 141.881 94.5368 141.731 94.7066 141.636ZM93.7064 137.218C93.8746 137.124 94.1462 137.127 94.3102 137.218L96.0533 138.207C96.2172 138.3 96.221 138.452 96.0517 138.546C95.8867 138.64 95.6124 138.64 95.4474 138.546L93.7043 137.56C93.5409 137.466 93.5409 137.311 93.7064 137.218ZM90.2946 139.138C90.4596 139.045 90.7307 139.048 90.8946 139.14L92.6383 140.128C92.8016 140.221 92.8054 140.373 92.6399 140.466C92.4711 140.561 92.2006 140.558 92.0367 140.466L90.2935 139.478C90.1296 139.387 90.1259 139.233 90.2946 139.138ZM89.2993 134.724C89.4686 134.627 89.7353 134.627 89.8982 134.72L91.6419 135.709C91.8101 135.804 91.8095 135.954 91.6408 136.048C91.4753 136.141 91.2047 136.143 91.0365 136.048L89.2928 135.061C89.1295 134.969 89.1343 134.816 89.2993 134.724ZM85.8874 136.642C86.053 136.549 86.3192 136.549 86.4826 136.642L88.2268 137.631C88.3945 137.725 88.3945 137.876 88.229 137.967C88.0608 138.064 87.7929 138.064 87.6247 137.967L85.8816 136.981C85.7187 136.887 85.7187 136.739 85.8874 136.642ZM84.8889 132.226C85.0577 132.13 85.3234 132.13 85.4916 132.226L87.2304 133.21C87.3986 133.306 87.3981 133.455 87.2283 133.551C87.0638 133.644 86.7928 133.646 86.6256 133.551L84.8862 132.566C84.7186 132.47 84.7239 132.318 84.8889 132.226ZM81.4781 134.145C81.6421 134.051 81.9089 134.051 82.0771 134.148L83.8148 135.133C83.9831 135.228 83.9825 135.377 83.8175 135.47C83.6488 135.566 83.3825 135.566 83.2149 135.47L81.4755 134.486C81.3073 134.39 81.3078 134.239 81.4781 134.145ZM80.4775 129.727C80.6468 129.632 80.9167 129.635 81.0817 129.727L82.8243 130.713C82.9877 130.807 82.992 130.96 82.8227 131.055C82.6572 131.148 82.3824 131.148 82.2195 131.055L80.4753 130.068C80.3119 129.975 80.313 129.82 80.4775 129.727ZM77.0662 131.647C77.2296 131.554 77.4996 131.557 77.6645 131.648L79.4088 132.637C79.5722 132.728 79.5754 132.882 79.4109 132.975C79.2416 133.07 78.9706 133.067 78.8061 132.975L77.063 131.987C76.9001 131.893 76.8969 131.741 77.0662 131.647ZM75.1655 126.674C75.3337 126.578 75.6011 126.578 75.765 126.671L77.5081 127.658C77.6715 127.751 77.6747 127.904 77.506 127.999C77.3405 128.091 77.0667 128.091 76.9033 127.999L75.1602 127.011C74.9946 126.919 75 126.766 75.1655 126.674ZM71.7532 128.593C71.9187 128.499 72.1855 128.499 72.3494 128.593L74.0904 129.579C74.2559 129.673 74.2586 129.826 74.0936 129.917C73.9254 130.013 73.6543 130.01 73.491 129.917L71.7478 128.93C71.5839 128.838 71.586 128.687 71.7532 128.593ZM70.348 123.915C70.5184 123.82 70.7852 123.82 70.9486 123.913L72.6917 124.9C72.8599 124.995 72.8583 125.145 72.6906 125.241C72.5251 125.334 72.2535 125.336 72.0858 125.241L70.3427 124.253C70.1809 124.162 70.1852 124.008 70.348 123.915ZM66.9383 125.835C67.1039 125.742 67.3707 125.742 67.5335 125.835L69.2767 126.822C69.4449 126.916 69.4443 127.067 69.2788 127.16C69.1106 127.256 68.8433 127.256 68.6751 127.16L66.9319 126.173C66.7691 126.08 66.7691 125.93 66.9383 125.835ZM66.1686 121.459C66.3378 121.364 66.6046 121.363 66.7712 121.459L68.5165 122.446C68.6799 122.539 68.6788 122.69 68.509 122.786C68.3435 122.877 68.0746 122.88 67.9096 122.787L66.1664 121.8C65.9987 121.705 66.003 121.552 66.1686 121.459ZM62.7573 123.378C62.9217 123.286 63.1885 123.285 63.3567 123.381L65.0998 124.37C65.2632 124.461 65.2622 124.612 65.0977 124.705C64.9284 124.8 64.6616 124.801 64.4993 124.708L62.754 123.72C62.5869 123.625 62.588 123.474 62.7573 123.378ZM62.0009 120.062C62.0009 119.882 62.1316 119.659 62.295 119.565C62.4562 119.475 62.5912 119.55 62.5923 119.73L62.5987 121.647C62.5987 121.826 62.4637 122.053 62.3035 122.144C62.138 122.237 62.0073 122.16 62.0073 121.98L62.0009 120.062ZM61.9875 114.46C61.9875 114.275 62.1171 114.058 62.2816 113.964C62.4428 113.874 62.5778 113.943 62.5789 114.128L62.5842 116.041C62.5853 116.226 62.4503 116.447 62.2901 116.537C62.1246 116.63 61.9939 116.558 61.9928 116.373L61.9875 114.46ZM61.9741 108.854C61.973 108.669 62.1037 108.451 62.2682 108.358C62.4294 108.268 62.5644 108.337 62.5655 108.522L62.5708 110.439C62.5708 110.619 62.4369 110.841 62.2767 110.931C62.1112 111.025 61.9805 110.951 61.9794 110.771L61.9741 108.854ZM61.9591 103.248C61.9591 103.068 62.0887 102.844 62.2542 102.75C62.4133 102.661 62.5505 102.736 62.5505 102.914L62.5569 104.832C62.5569 105.012 62.4219 105.238 62.2607 105.33C62.0951 105.421 61.9655 105.344 61.9655 105.164L61.9591 103.248ZM61.9457 97.64C61.9435 97.4614 62.0742 97.2412 62.2398 97.1482C62.3999 97.0579 62.5371 97.1289 62.5371 97.3074L62.5435 99.2248C62.5435 99.4106 62.4085 99.6325 62.2473 99.7228C62.0817 99.8157 61.9521 99.7437 61.9521 99.5573L61.9457 97.64ZM61.9318 92.0393C61.9296 91.8545 62.0603 91.6348 62.2258 91.5418C62.386 91.4515 62.521 91.5225 62.521 91.7073L62.5274 93.6184C62.5274 93.8032 62.3946 94.0261 62.2334 94.1164C62.0678 94.2093 61.9382 94.1357 61.936 93.9509L61.9318 92.0393ZM61.9162 87.1888C61.9162 87.004 62.0469 86.7843 62.2125 86.6913C62.3726 86.601 62.5076 86.672 62.5076 86.8568L62.514 88.7721C62.514 88.9522 62.3812 89.1797 62.22 89.2701C62.0534 89.363 61.9226 89.2862 61.9226 89.1061L61.9162 87.1888ZM61.9028 82.3383C61.9018 82.1582 62.0314 81.9337 62.1969 81.8419C62.3582 81.7505 62.4942 81.8257 62.4942 82.0058L62.5007 83.9226C62.5007 84.1027 62.3657 84.3287 62.2055 84.419C62.041 84.5119 61.9093 84.4352 61.9093 84.2551L61.9028 82.3383ZM61.8943 79.4051L61.8889 77.4925C61.8889 77.3077 62.0175 77.0889 62.183 76.996C62.3442 76.9057 62.4792 76.9752 62.4803 77.1599L62.4857 79.0726C62.4857 79.2574 62.3517 79.4787 62.1916 79.569C62.026 79.6619 61.8953 79.5894 61.8943 79.4051Z" fill="#D0D2D8"/>
<path d="M123.497 167.626L123.388 167.565L123.396 170.014L123.504 170.075L125.662 168.858L123.497 167.626Z" fill="#30B5AB"/>
<path d="M50.5559 46.6128V47.127L50.5634 47.1359L52.7126 48.3527V45.396L50.5634 46.6128H50.5559Z" fill="#52CEC8"/>
<path opacity="0.8" d="M125.545 135.384L125.69 168.85L123.507 170.075L123.361 136.612L125.545 135.384Z" fill="#5257CE"/>
<path d="M137.191 157.934L137.197 162.429L125.692 168.903L125.686 164.406C125.686 163.989 125.986 163.482 126.356 163.274L136.519 157.557C136.889 157.348 137.191 157.516 137.191 157.934Z" fill="#212121"/>
<path d="M150.928 150.217L150.934 154.712L139.428 161.185L139.423 156.689C139.423 156.272 139.723 155.765 140.093 155.557L150.256 149.839C150.627 149.631 150.928 149.799 150.928 150.217Z" fill="#212121"/>
<path opacity="0.8" d="M52.7216 45.3989L82.3219 62.24L80.1636 63.4542L50.5601 46.6116L52.7216 45.3989Z" fill="#9DA6F4"/>
<path opacity="0.8" d="M82.3221 62.2397L125.545 135.384L123.361 136.612L80.1638 63.4539L82.3221 62.2397Z" fill="#7F89E5"/>
<path opacity="0.3" d="M50.5632 46.6128V47.1358L52.7124 48.3527L57.0971 50.8327L57.4233 124.687L123.373 162.211L123.388 167.565L123.396 170.014L123.504 170.075L123.497 167.626L123.365 136.612L80.1625 63.4549L52.7124 47.8385L50.5632 46.6128Z" fill="#7F83E5"/>
<path d="M165.216 159.827L159.607 162.983L159.635 172.093C159.635 172.437 159.394 172.851 159.085 173.024L129.122 189.826C128.821 189.997 128.572 189.887 128.571 189.582L128.562 186.569L121.482 190.566V212.548L169.585 185.533V160.401L165.216 159.827ZM164.595 162.645L167.36 163.011L167.366 164.793L161.831 167.906L161.82 164.206L164.595 162.645ZM123.67 191.789L126.365 190.272L126.367 190.822C126.372 192.487 127.614 193.143 129.13 192.29L131.751 190.816L131.768 196.581L123.696 201.121L123.67 191.789ZM123.719 208.844L123.704 203.585L131.775 199.045L131.79 204.302L123.719 208.844ZM133.956 189.575L144.064 183.913L144.086 197.409L133.996 203.063L133.956 189.575ZM146.293 196.173L146.27 182.735H146.166L156.641 176.867L156.68 190.354L146.293 196.173ZM158.841 175.629L159.093 175.487C160.615 174.63 161.845 172.556 161.839 170.853L161.838 170.369L167.373 167.256L167.399 176.587L158.858 181.394L158.841 175.629ZM158.88 189.116L158.865 183.858L167.406 179.052L167.422 184.31L158.88 189.116Z" fill="#DEDFE4"/>
<path d="M60.0633 0L12.0132 27.013L31.6078 38.0566L38.7132 34.0601L35.8923 32.5463C35.6212 32.3928 35.6421 32.1313 35.9496 31.9585L66.0749 15.1545C66.3765 14.9848 66.7081 14.9848 67.0134 15.1576L75.239 19.7351L80.8418 16.5817L82.4821 12.629L60.0633 0ZM60.0499 2.47589L64.711 5.11674L56.1683 9.92133L51.5072 7.28204L60.0499 2.47589ZM16.3469 27.0098L24.4177 22.4684L29.0809 25.1092L21.0091 29.6497L16.3469 27.0098ZM33.764 30.7203C32.2437 31.5753 32.2105 32.9503 33.6863 33.7866L34.1748 34.0627L31.4798 35.5781L23.1995 30.8899L31.2703 26.3479L36.3846 29.2446L33.764 30.7203ZM26.6173 21.2307L37.3424 15.2223L49.3098 21.9991L38.5857 28.0069L26.6173 21.2307ZM51.5233 20.7593L39.5553 13.9826L49.3066 8.51973L61.2751 15.2965L51.5233 20.7593ZM69.2183 13.9168C67.7077 13.0602 65.2424 13.0633 63.7275 13.9168L63.4741 14.0588L58.3598 11.1621L66.9025 6.356L75.1817 11.0452L69.6474 14.159L69.2183 13.9168ZM77.8901 15.6948L75.1163 17.2561L71.8331 15.3967L77.3678 12.2829L78.9487 13.1781L77.8901 15.6948Z" fill="#F4F4F4"/>
<path d="M91.9067 26.3729L78.9702 19.047L75.7422 20.8709L70.194 17.7295L41.3495 33.8888L46.5977 36.8606L44.3869 38.1041L39.1398 35.1323L31.2067 39.596L25.3896 36.3005L22.2119 38.0879C19.0802 39.8497 19.0636 42.7155 22.1754 44.4773L39.5759 54.3308C42.6834 56.0915 47.7596 56.0915 50.8924 54.3292L57.1011 50.8364L49.9131 46.7658L79.8734 29.9706L87.0619 34.0413L91.8794 31.331C94.3045 29.9654 94.3184 27.739 91.9067 26.3729ZM52.7095 50.8385L48.7051 53.091C46.7874 54.1695 43.6819 54.1663 41.7808 53.091L24.3793 43.2365C22.4749 42.1585 22.4803 40.4035 24.397 39.3251L25.3687 38.7785L29.0013 40.8357L44.6746 49.711L47.7077 48.005L52.7095 50.8385ZM47.7227 45.5244L44.6896 47.2304L33.3972 40.8363L39.1253 37.6134L44.3671 40.5826L50.9877 36.8591L45.7449 33.8888L48.1421 32.5405L59.4346 38.9356L47.7227 45.5244ZM50.3476 31.2991L57.4412 27.3355L68.7342 33.7301L61.6405 37.6948L50.3476 31.2991ZM70.9504 32.4919L59.6579 26.0973L66.3905 22.3352L67.0162 22.6881L77.683 28.7293L70.9504 32.4919ZM89.6922 30.0923L87.0807 31.5617L82.0783 28.7288L74.1431 24.2358L78.9536 21.5282L89.7002 27.6138C90.906 28.2976 90.905 29.41 89.6922 30.0923Z" fill="#F4F4F4"/>
<defs>
<linearGradient id="paint0_linear_1647_214" x1="123.831" y1="123.369" x2="120.859" y2="129.033" gradientUnits="userSpaceOnUse">
<stop stop-color="#DEDFE4"/>
<stop offset="1" stop-color="#F4F4F4"/>
</linearGradient>
<linearGradient id="paint1_linear_1647_214" x1="89.9895" y1="140.292" x2="86.8058" y2="146.391" gradientUnits="userSpaceOnUse">
<stop stop-color="#F4F4F4"/>
<stop offset="1" stop-color="#DEDFE4"/>
</linearGradient>
<linearGradient id="paint2_linear_1647_214" x1="39.5752" y1="94.4236" x2="51.2129" y2="94.4236" gradientUnits="userSpaceOnUse">
<stop offset="0.0542" stop-color="#C2C5CC"/>
<stop offset="1" stop-color="#DEDFE4"/>
</linearGradient>
<linearGradient id="paint3_linear_1647_214" x1="75.9084" y1="154.572" x2="81.2253" y2="145.405" gradientUnits="userSpaceOnUse">
<stop offset="0.0837" stop-color="#C2C5CC"/>
<stop offset="1" stop-color="#DEDFE4"/>
</linearGradient>
</defs>
</svg>
